<?xml version="1.0" encoding="utf-8" standalone="no"?>
<!DOCTYPE svg PUBLIC "-//W3C//DTD SVG 1.1//EN"
  "http://www.w3.org/Graphics/SVG/1.1/DTD/svg11.dtd">
<svg xmlns:xlink="http://www.w3.org/1999/xlink" width="720pt" height="360pt" viewBox="0 0 720 360" xmlns="http://www.w3.org/2000/svg" version="1.1">
 <metadata>
  <rdf:RDF xmlns:dc="http://purl.org/dc/elements/1.1/" xmlns:cc="http://creativecommons.org/ns#" xmlns:rdf="http://www.w3.org/1999/02/22-rdf-syntax-ns#">
   <cc:Work>
    <dc:type rdf:resource="http://purl.org/dc/dcmitype/StillImage"/>
    <dc:date>2024-07-23T15:02:24.864192</dc:date>
    <dc:format>image/svg+xml</dc:format>
    <dc:creator>
     <cc:Agent>
      <dc:title>Matplotlib v3.7.2, https://matplotlib.org/</dc:title>
     </cc:Agent>
    </dc:creator>
   </cc:Work>
  </rdf:RDF>
 </metadata>
 <defs>
  <style type="text/css">*{stroke-linejoin: round; stroke-linecap: butt}</style>
 </defs>
 <g id="figure_1">
  <g id="patch_1">
   <path d="M 0 360 
L 720 360 
L 720 0 
L 0 0 
z
" style="fill: #ffffff"/>
  </g>
  <g id="axes_1">
   <g id="patch_2">
    <path d="M 86.6 154.52 
L 283.843918 154.52 
L 283.843918 32.76 
L 86.6 32.76 
z
" style="fill: #ffffff"/>
   </g>
   <g id="matplotlib.axis_1">
    <g id="xtick_1">
     <g id="line2d_1">
      <defs>
       <path id="m3d522391c6" d="M 0 0 
L 0 3.5 
" style="stroke: #000000; stroke-width: 0.8"/>
      </defs>
      <g>
       <use xlink:href="#m3d522391c6" x="93.939847" y="154.52" style="stroke: #000000; stroke-width: 0.8"/>
      </g>
     </g>
    </g>
    <g id="xtick_2">
     <g id="line2d_2">
      <g>
       <use xlink:href="#m3d522391c6" x="139.736612" y="154.52" style="stroke: #000000; stroke-width: 0.8"/>
      </g>
     </g>
    </g>
    <g id="xtick_3">
     <g id="line2d_3">
      <g>
       <use xlink:href="#m3d522391c6" x="185.533377" y="154.52" style="stroke: #000000; stroke-width: 0.8"/>
      </g>
     </g>
    </g>
    <g id="xtick_4">
     <g id="line2d_4">
      <g>
       <use xlink:href="#m3d522391c6" x="231.330142" y="154.52" style="stroke: #000000; stroke-width: 0.8"/>
      </g>
     </g>
    </g>
    <g id="xtick_5">
     <g id="line2d_5">
      <g>
       <use xlink:href="#m3d522391c6" x="277.126907" y="154.52" style="stroke: #000000; stroke-width: 0.8"/>
      </g>
     </g>
    </g>
   </g>
   <g id="matplotlib.axis_2">
    <g id="ytick_1">
     <g id="line2d_6">
      <defs>
       <path id="mcd4e5430e3" d="M 0 0 
L -3.5 0 
" style="stroke: #000000; stroke-width: 0.8"/>
      </defs>
      <g>
       <use xlink:href="#mcd4e5430e3" x="86.6" y="154.52" style="stroke: #000000; stroke-width: 0.8"/>
      </g>
     </g>
     <g id="text_1">
      <!-- 0.0 -->
      <g transform="translate(63.696875 158.319219) scale(0.1 -0.1)">
       <defs>
        <path id="DejaVuSans-30" d="M 2034 4250 
Q 1547 4250 1301 3770 
Q 1056 3291 1056 2328 
Q 1056 1369 1301 889 
Q 1547 409 2034 409 
Q 2525 409 2770 889 
Q 3016 1369 3016 2328 
Q 3016 3291 2770 3770 
Q 2525 4250 2034 4250 
z
M 2034 4750 
Q 2819 4750 3233 4129 
Q 3647 3509 3647 2328 
Q 3647 1150 3233 529 
Q 2819 -91 2034 -91 
Q 1250 -91 836 529 
Q 422 1150 422 2328 
Q 422 3509 836 4129 
Q 1250 4750 2034 4750 
z
" transform="scale(0.015625)"/>
        <path id="DejaVuSans-2e" d="M 684 794 
L 1344 794 
L 1344 0 
L 684 0 
L 684 794 
z
" transform="scale(0.015625)"/>
       </defs>
       <use xlink:href="#DejaVuSans-30"/>
       <use xlink:href="#DejaVuSans-2e" x="63.623047"/>
       <use xlink:href="#DejaVuSans-30" x="95.410156"/>
      </g>
     </g>
    </g>
    <g id="ytick_2">
     <g id="line2d_7">
      <g>
       <use xlink:href="#mcd4e5430e3" x="86.6" y="130.168" style="stroke: #000000; stroke-width: 0.8"/>
      </g>
     </g>
     <g id="text_2">
      <!-- 0.2 -->
      <g transform="translate(63.696875 133.967219) scale(0.1 -0.1)">
       <defs>
        <path id="DejaVuSans-32" d="M 1228 531 
L 3431 531 
L 3431 0 
L 469 0 
L 469 531 
Q 828 903 1448 1529 
Q 2069 2156 2228 2338 
Q 2531 2678 2651 2914 
Q 2772 3150 2772 3378 
Q 2772 3750 2511 3984 
Q 2250 4219 1831 4219 
Q 1534 4219 1204 4116 
Q 875 4013 500 3803 
L 500 4441 
Q 881 4594 1212 4672 
Q 1544 4750 1819 4750 
Q 2544 4750 2975 4387 
Q 3406 4025 3406 3419 
Q 3406 3131 3298 2873 
Q 3191 2616 2906 2266 
Q 2828 2175 2409 1742 
Q 1991 1309 1228 531 
z
" transform="scale(0.015625)"/>
       </defs>
       <use xlink:href="#DejaVuSans-30"/>
       <use xlink:href="#DejaVuSans-2e" x="63.623047"/>
       <use xlink:href="#DejaVuSans-32" x="95.410156"/>
      </g>
     </g>
    </g>
    <g id="ytick_3">
     <g id="line2d_8">
      <g>
       <use xlink:href="#mcd4e5430e3" x="86.6" y="105.816" style="stroke: #000000; stroke-width: 0.8"/>
      </g>
     </g>
     <g id="text_3">
      <!-- 0.4 -->
      <g transform="translate(63.696875 109.615219) scale(0.1 -0.1)">
       <defs>
        <path id="DejaVuSans-34" d="M 2419 4116 
L 825 1625 
L 2419 1625 
L 2419 4116 
z
M 2253 4666 
L 3047 4666 
L 3047 1625 
L 3713 1625 
L 3713 1100 
L 3047 1100 
L 3047 0 
L 2419 0 
L 2419 1100 
L 313 1100 
L 313 1709 
L 2253 4666 
z
" transform="scale(0.015625)"/>
       </defs>
       <use xlink:href="#DejaVuSans-30"/>
       <use xlink:href="#DejaVuSans-2e" x="63.623047"/>
       <use xlink:href="#DejaVuSans-34" x="95.410156"/>
      </g>
     </g>
    </g>
    <g id="ytick_4">
     <g id="line2d_9">
      <g>
       <use xlink:href="#mcd4e5430e3" x="86.6" y="81.464" style="stroke: #000000; stroke-width: 0.8"/>
      </g>
     </g>
     <g id="text_4">
      <!-- 0.6 -->
      <g transform="translate(63.696875 85.263219) scale(0.1 -0.1)">
       <defs>
        <path id="DejaVuSans-36" d="M 2113 2584 
Q 1688 2584 1439 2293 
Q 1191 2003 1191 1497 
Q 1191 994 1439 701 
Q 1688 409 2113 409 
Q 2538 409 2786 701 
Q 3034 994 3034 1497 
Q 3034 2003 2786 2293 
Q 2538 2584 2113 2584 
z
M 3366 4563 
L 3366 3988 
Q 3128 4100 2886 4159 
Q 2644 4219 2406 4219 
Q 1781 4219 1451 3797 
Q 1122 3375 1075 2522 
Q 1259 2794 1537 2939 
Q 1816 3084 2150 3084 
Q 2853 3084 3261 2657 
Q 3669 2231 3669 1497 
Q 3669 778 3244 343 
Q 2819 -91 2113 -91 
Q 1303 -91 875 529 
Q 447 1150 447 2328 
Q 447 3434 972 4092 
Q 1497 4750 2381 4750 
Q 2619 4750 2861 4703 
Q 3103 4656 3366 4563 
z
" transform="scale(0.015625)"/>
       </defs>
       <use xlink:href="#DejaVuSans-30"/>
       <use xlink:href="#DejaVuSans-2e" x="63.623047"/>
       <use xlink:href="#DejaVuSans-36" x="95.410156"/>
      </g>
     </g>
    </g>
    <g id="ytick_5">
     <g id="line2d_10">
      <g>
       <use xlink:href="#mcd4e5430e3" x="86.6" y="57.112" style="stroke: #000000; stroke-width: 0.8"/>
      </g>
     </g>
     <g id="text_5">
      <!-- 0.8 -->
      <g transform="translate(63.696875 60.911219) scale(0.1 -0.1)">
       <defs>
        <path id="DejaVuSans-38" d="M 2034 2216 
Q 1584 2216 1326 1975 
Q 1069 1734 1069 1313 
Q 1069 891 1326 650 
Q 1584 409 2034 409 
Q 2484 409 2743 651 
Q 3003 894 3003 1313 
Q 3003 1734 2745 1975 
Q 2488 2216 2034 2216 
z
M 1403 2484 
Q 997 2584 770 2862 
Q 544 3141 544 3541 
Q 544 4100 942 4425 
Q 1341 4750 2034 4750 
Q 2731 4750 3128 4425 
Q 3525 4100 3525 3541 
Q 3525 3141 3298 2862 
Q 3072 2584 2669 2484 
Q 3125 2378 3379 2068 
Q 3634 1759 3634 1313 
Q 3634 634 3220 271 
Q 2806 -91 2034 -91 
Q 1263 -91 848 271 
Q 434 634 434 1313 
Q 434 1759 690 2068 
Q 947 2378 1403 2484 
z
M 1172 3481 
Q 1172 3119 1398 2916 
Q 1625 2713 2034 2713 
Q 2441 2713 2670 2916 
Q 2900 3119 2900 3481 
Q 2900 3844 2670 4047 
Q 2441 4250 2034 4250 
Q 1625 4250 1398 4047 
Q 1172 3844 1172 3481 
z
" transform="scale(0.015625)"/>
       </defs>
       <use xlink:href="#DejaVuSans-30"/>
       <use xlink:href="#DejaVuSans-2e" x="63.623047"/>
       <use xlink:href="#DejaVuSans-38" x="95.410156"/>
      </g>
     </g>
    </g>
    <g id="ytick_6">
     <g id="line2d_11">
      <g>
       <use xlink:href="#mcd4e5430e3" x="86.6" y="32.76" style="stroke: #000000; stroke-width: 0.8"/>
      </g>
     </g>
     <g id="text_6">
      <!-- 1.0 -->
      <g transform="translate(63.696875 36.559219) scale(0.1 -0.1)">
       <defs>
        <path id="DejaVuSans-31" d="M 794 531 
L 1825 531 
L 1825 4091 
L 703 3866 
L 703 4441 
L 1819 4666 
L 2450 4666 
L 2450 531 
L 3481 531 
L 3481 0 
L 794 0 
L 794 531 
z
" transform="scale(0.015625)"/>
       </defs>
       <use xlink:href="#DejaVuSans-31"/>
       <use xlink:href="#DejaVuSans-2e" x="63.623047"/>
       <use xlink:href="#DejaVuSans-30" x="95.410156"/>
      </g>
     </g>
    </g>
    <g id="text_7">
     <!-- CDF -->
     <g transform="translate(57.20125 105.900625) rotate(-90) scale(0.12 -0.12)">
      <defs>
       <path id="DejaVuSans-43" d="M 4122 4306 
L 4122 3641 
Q 3803 3938 3442 4084 
Q 3081 4231 2675 4231 
Q 1875 4231 1450 3742 
Q 1025 3253 1025 2328 
Q 1025 1406 1450 917 
Q 1875 428 2675 428 
Q 3081 428 3442 575 
Q 3803 722 4122 1019 
L 4122 359 
Q 3791 134 3420 21 
Q 3050 -91 2638 -91 
Q 1578 -91 968 557 
Q 359 1206 359 2328 
Q 359 3453 968 4101 
Q 1578 4750 2638 4750 
Q 3056 4750 3426 4639 
Q 3797 4528 4122 4306 
z
" transform="scale(0.015625)"/>
       <path id="DejaVuSans-44" d="M 1259 4147 
L 1259 519 
L 2022 519 
Q 2988 519 3436 956 
Q 3884 1394 3884 2338 
Q 3884 3275 3436 3711 
Q 2988 4147 2022 4147 
L 1259 4147 
z
M 628 4666 
L 1925 4666 
Q 3281 4666 3915 4102 
Q 4550 3538 4550 2338 
Q 4550 1131 3912 565 
Q 3275 0 1925 0 
L 628 0 
L 628 4666 
z
" transform="scale(0.015625)"/>
       <path id="DejaVuSans-46" d="M 628 4666 
L 3309 4666 
L 3309 4134 
L 1259 4134 
L 1259 2759 
L 3109 2759 
L 3109 2228 
L 1259 2228 
L 1259 0 
L 628 0 
L 628 4666 
z
" transform="scale(0.015625)"/>
      </defs>
      <use xlink:href="#DejaVuSans-43"/>
      <use xlink:href="#DejaVuSans-44" x="69.824219"/>
      <use xlink:href="#DejaVuSans-46" x="146.826172"/>
     </g>
    </g>
   </g>
   <g id="line2d_12">
    <path d="M 95.565633 154.52 
L 95.565633 151.476 
L 95.570212 151.476 
L 95.570212 148.432 
L 95.60227 148.432 
L 95.60227 145.388 
L 95.652646 145.388 
L 95.652646 142.344 
L 95.666386 142.344 
L 95.666386 139.3 
L 95.709892 139.3 
L 95.709892 136.256 
L 95.767138 136.256 
L 95.767138 133.212 
L 95.787747 133.212 
L 95.787747 130.168 
L 95.810645 130.168 
L 95.810645 127.124 
L 95.844993 127.124 
L 95.844993 124.08 
L 95.87934 124.08 
L 95.87934 121.036 
L 95.88163 121.036 
L 95.88163 117.992 
L 95.88392 117.992 
L 95.88392 114.948 
L 95.88621 114.948 
L 95.88621 111.904 
L 95.897659 111.904 
L 95.897659 108.86 
L 95.950325 108.86 
L 95.950325 105.816 
L 96.016731 105.816 
L 96.016731 102.772 
L 96.035049 102.772 
L 96.035049 99.728 
L 96.048789 99.728 
L 96.048789 96.684 
L 96.064817 96.684 
L 96.064817 93.64 
L 96.215947 93.64 
L 96.215947 90.596 
L 96.270903 90.596 
L 96.270903 87.552 
L 96.282352 87.552 
L 96.282352 84.508 
L 96.293801 84.508 
L 96.293801 81.464 
L 96.31212 81.464 
L 96.31212 78.42 
L 96.332728 78.42 
L 96.332728 75.376 
L 96.369366 75.376 
L 96.369366 72.332 
L 96.385395 72.332 
L 96.385395 69.288 
L 96.415163 69.288 
L 96.415163 66.244 
L 96.417452 66.244 
L 96.417452 63.2 
L 96.474698 63.2 
L 96.474698 60.156 
L 96.621248 60.156 
L 96.621248 57.112 
L 96.653306 57.112 
L 96.653306 54.068 
L 96.660175 54.068 
L 96.660175 51.024 
L 96.689943 51.024 
L 96.689943 47.98 
L 96.726581 47.98 
L 96.726581 44.936 
L 96.74261 44.936 
L 96.74261 41.892 
L 96.87313 41.892 
L 96.87313 38.848 
L 97.079216 38.848 
L 97.079216 35.804 
L 97.431851 35.804 
L 97.431851 32.76 
" clip-path="url(#p7cea26f333)" style="fill: none; stroke: #2d936c; stroke-width: 1.5; stroke-linecap: square"/>
   </g>
   <g id="line2d_13">
    <path d="M 96.19425 154.52 
L 96.19425 32.76 
" clip-path="url(#p7cea26f333)" style="fill: none; stroke-dasharray: 5.55,2.4; stroke-dashoffset: 0; stroke: #ff0000; stroke-width: 1.5"/>
   </g>
   <g id="line2d_14">
    <path d="M 96.140382 154.52 
L 96.140382 32.76 
" clip-path="url(#p7cea26f333)" style="fill: none; stroke-dasharray: 9.6,2.4,1.5,2.4; stroke-dashoffset: 0; stroke: #008000; stroke-width: 1.5"/>
   </g>
   <g id="line2d_15">
    <path d="M 96.883435 154.52 
L 96.883435 32.76 
" clip-path="url(#p7cea26f333)" style="fill: none; stroke-dasharray: 1.5,2.475; stroke-dashoffset: 0; stroke: #0000ff; stroke-width: 1.5"/>
   </g>
   <g id="patch_3">
    <path d="M 86.6 154.52 
L 86.6 32.76 
" style="fill: none; stroke: #000000; stroke-width: 0.8; stroke-linejoin: miter; stroke-linecap: square"/>
   </g>
   <g id="patch_4">
    <path d="M 283.843918 154.52 
L 283.843918 32.76 
" style="fill: none; stroke: #000000; stroke-width: 0.8; stroke-linejoin: miter; stroke-linecap: square"/>
   </g>
   <g id="patch_5">
    <path d="M 86.6 154.52 
L 283.843918 154.52 
" style="fill: none; stroke: #000000; stroke-width: 0.8; stroke-linejoin: miter; stroke-linecap: square"/>
   </g>
   <g id="patch_6">
    <path d="M 86.6 32.76 
L 283.843918 32.76 
" style="fill: none; stroke: #000000; stroke-width: 0.8; stroke-linejoin: miter; stroke-linecap: square"/>
   </g>
   <g id="text_8">
    <g id="patch_7">
     <path d="M 230.532939 150.21525 
L 258.532939 150.21525 
L 258.532939 134.47275 
L 230.532939 134.47275 
z
" style="fill: #ffffff; opacity: 0.2; stroke: #000000; stroke-linejoin: miter"/>
    </g>
    <!-- $n = 4$ -->
    <g transform="translate(234.532939 144.5515) scale(0.08 -0.08)">
     <defs>
      <path id="DejaVuSans-Oblique-6e" d="M 3566 2113 
L 3156 0 
L 2578 0 
L 2988 2091 
Q 3016 2238 3031 2350 
Q 3047 2463 3047 2528 
Q 3047 2791 2881 2937 
Q 2716 3084 2419 3084 
Q 1956 3084 1622 2776 
Q 1288 2469 1184 1941 
L 800 0 
L 225 0 
L 903 3500 
L 1478 3500 
L 1363 2950 
Q 1603 3253 1940 3418 
Q 2278 3584 2650 3584 
Q 3113 3584 3367 3334 
Q 3622 3084 3622 2631 
Q 3622 2519 3608 2391 
Q 3594 2263 3566 2113 
z
" transform="scale(0.015625)"/>
      <path id="DejaVuSans-3d" d="M 678 2906 
L 4684 2906 
L 4684 2381 
L 678 2381 
L 678 2906 
z
M 678 1631 
L 4684 1631 
L 4684 1100 
L 678 1100 
L 678 1631 
z
" transform="scale(0.015625)"/>
     </defs>
     <use xlink:href="#DejaVuSans-Oblique-6e" transform="translate(0 0.09375)"/>
     <use xlink:href="#DejaVuSans-3d" transform="translate(82.861328 0.09375)"/>
     <use xlink:href="#DejaVuSans-34" transform="translate(186.132812 0.09375)"/>
    </g>
   </g>
   <g id="legend_1">
    <g id="patch_8">
     <path d="M 182.982668 86.13 
L 278.243918 86.13 
Q 279.843918 86.13 279.843918 84.53 
L 279.843918 38.36 
Q 279.843918 36.76 278.243918 36.76 
L 182.982668 36.76 
Q 181.382668 36.76 181.382668 38.36 
L 181.382668 84.53 
Q 181.382668 86.13 182.982668 86.13 
z
" style="fill: #ffffff; opacity: 0.8; stroke: #cccccc; stroke-linejoin: miter"/>
    </g>
    <g id="line2d_16">
     <path d="M 184.582668 43.23875 
L 192.582668 43.23875 
L 200.582668 43.23875 
" style="fill: none; stroke: #2d936c; stroke-width: 2; stroke-linecap: square"/>
    </g>
    <g id="text_9">
     <!-- readBreachCount -->
     <g transform="translate(206.982668 46.03875) scale(0.08 -0.08)">
      <defs>
       <path id="DejaVuSans-72" d="M 2631 2963 
Q 2534 3019 2420 3045 
Q 2306 3072 2169 3072 
Q 1681 3072 1420 2755 
Q 1159 2438 1159 1844 
L 1159 0 
L 581 0 
L 581 3500 
L 1159 3500 
L 1159 2956 
Q 1341 3275 1631 3429 
Q 1922 3584 2338 3584 
Q 2397 3584 2469 3576 
Q 2541 3569 2628 3553 
L 2631 2963 
z
" transform="scale(0.015625)"/>
       <path id="DejaVuSans-65" d="M 3597 1894 
L 3597 1613 
L 953 1613 
Q 991 1019 1311 708 
Q 1631 397 2203 397 
Q 2534 397 2845 478 
Q 3156 559 3463 722 
L 3463 178 
Q 3153 47 2828 -22 
Q 2503 -91 2169 -91 
Q 1331 -91 842 396 
Q 353 884 353 1716 
Q 353 2575 817 3079 
Q 1281 3584 2069 3584 
Q 2775 3584 3186 3129 
Q 3597 2675 3597 1894 
z
M 3022 2063 
Q 3016 2534 2758 2815 
Q 2500 3097 2075 3097 
Q 1594 3097 1305 2825 
Q 1016 2553 972 2059 
L 3022 2063 
z
" transform="scale(0.015625)"/>
       <path id="DejaVuSans-61" d="M 2194 1759 
Q 1497 1759 1228 1600 
Q 959 1441 959 1056 
Q 959 750 1161 570 
Q 1363 391 1709 391 
Q 2188 391 2477 730 
Q 2766 1069 2766 1631 
L 2766 1759 
L 2194 1759 
z
M 3341 1997 
L 3341 0 
L 2766 0 
L 2766 531 
Q 2569 213 2275 61 
Q 1981 -91 1556 -91 
Q 1019 -91 701 211 
Q 384 513 384 1019 
Q 384 1609 779 1909 
Q 1175 2209 1959 2209 
L 2766 2209 
L 2766 2266 
Q 2766 2663 2505 2880 
Q 2244 3097 1772 3097 
Q 1472 3097 1187 3025 
Q 903 2953 641 2809 
L 641 3341 
Q 956 3463 1253 3523 
Q 1550 3584 1831 3584 
Q 2591 3584 2966 3190 
Q 3341 2797 3341 1997 
z
" transform="scale(0.015625)"/>
       <path id="DejaVuSans-64" d="M 2906 2969 
L 2906 4863 
L 3481 4863 
L 3481 0 
L 2906 0 
L 2906 525 
Q 2725 213 2448 61 
Q 2172 -91 1784 -91 
Q 1150 -91 751 415 
Q 353 922 353 1747 
Q 353 2572 751 3078 
Q 1150 3584 1784 3584 
Q 2172 3584 2448 3432 
Q 2725 3281 2906 2969 
z
M 947 1747 
Q 947 1113 1208 752 
Q 1469 391 1925 391 
Q 2381 391 2643 752 
Q 2906 1113 2906 1747 
Q 2906 2381 2643 2742 
Q 2381 3103 1925 3103 
Q 1469 3103 1208 2742 
Q 947 2381 947 1747 
z
" transform="scale(0.015625)"/>
       <path id="DejaVuSans-42" d="M 1259 2228 
L 1259 519 
L 2272 519 
Q 2781 519 3026 730 
Q 3272 941 3272 1375 
Q 3272 1813 3026 2020 
Q 2781 2228 2272 2228 
L 1259 2228 
z
M 1259 4147 
L 1259 2741 
L 2194 2741 
Q 2656 2741 2882 2914 
Q 3109 3088 3109 3444 
Q 3109 3797 2882 3972 
Q 2656 4147 2194 4147 
L 1259 4147 
z
M 628 4666 
L 2241 4666 
Q 2963 4666 3353 4366 
Q 3744 4066 3744 3513 
Q 3744 3084 3544 2831 
Q 3344 2578 2956 2516 
Q 3422 2416 3680 2098 
Q 3938 1781 3938 1306 
Q 3938 681 3513 340 
Q 3088 0 2303 0 
L 628 0 
L 628 4666 
z
" transform="scale(0.015625)"/>
       <path id="DejaVuSans-63" d="M 3122 3366 
L 3122 2828 
Q 2878 2963 2633 3030 
Q 2388 3097 2138 3097 
Q 1578 3097 1268 2742 
Q 959 2388 959 1747 
Q 959 1106 1268 751 
Q 1578 397 2138 397 
Q 2388 397 2633 464 
Q 2878 531 3122 666 
L 3122 134 
Q 2881 22 2623 -34 
Q 2366 -91 2075 -91 
Q 1284 -91 818 406 
Q 353 903 353 1747 
Q 353 2603 823 3093 
Q 1294 3584 2113 3584 
Q 2378 3584 2631 3529 
Q 2884 3475 3122 3366 
z
" transform="scale(0.015625)"/>
       <path id="DejaVuSans-68" d="M 3513 2113 
L 3513 0 
L 2938 0 
L 2938 2094 
Q 2938 2591 2744 2837 
Q 2550 3084 2163 3084 
Q 1697 3084 1428 2787 
Q 1159 2491 1159 1978 
L 1159 0 
L 581 0 
L 581 4863 
L 1159 4863 
L 1159 2956 
Q 1366 3272 1645 3428 
Q 1925 3584 2291 3584 
Q 2894 3584 3203 3211 
Q 3513 2838 3513 2113 
z
" transform="scale(0.015625)"/>
       <path id="DejaVuSans-6f" d="M 1959 3097 
Q 1497 3097 1228 2736 
Q 959 2375 959 1747 
Q 959 1119 1226 758 
Q 1494 397 1959 397 
Q 2419 397 2687 759 
Q 2956 1122 2956 1747 
Q 2956 2369 2687 2733 
Q 2419 3097 1959 3097 
z
M 1959 3584 
Q 2709 3584 3137 3096 
Q 3566 2609 3566 1747 
Q 3566 888 3137 398 
Q 2709 -91 1959 -91 
Q 1206 -91 779 398 
Q 353 888 353 1747 
Q 353 2609 779 3096 
Q 1206 3584 1959 3584 
z
" transform="scale(0.015625)"/>
       <path id="DejaVuSans-75" d="M 544 1381 
L 544 3500 
L 1119 3500 
L 1119 1403 
Q 1119 906 1312 657 
Q 1506 409 1894 409 
Q 2359 409 2629 706 
Q 2900 1003 2900 1516 
L 2900 3500 
L 3475 3500 
L 3475 0 
L 2900 0 
L 2900 538 
Q 2691 219 2414 64 
Q 2138 -91 1772 -91 
Q 1169 -91 856 284 
Q 544 659 544 1381 
z
M 1991 3584 
L 1991 3584 
z
" transform="scale(0.015625)"/>
       <path id="DejaVuSans-6e" d="M 3513 2113 
L 3513 0 
L 2938 0 
L 2938 2094 
Q 2938 2591 2744 2837 
Q 2550 3084 2163 3084 
Q 1697 3084 1428 2787 
Q 1159 2491 1159 1978 
L 1159 0 
L 581 0 
L 581 3500 
L 1159 3500 
L 1159 2956 
Q 1366 3272 1645 3428 
Q 1925 3584 2291 3584 
Q 2894 3584 3203 3211 
Q 3513 2838 3513 2113 
z
" transform="scale(0.015625)"/>
       <path id="DejaVuSans-74" d="M 1172 4494 
L 1172 3500 
L 2356 3500 
L 2356 3053 
L 1172 3053 
L 1172 1153 
Q 1172 725 1289 603 
Q 1406 481 1766 481 
L 2356 481 
L 2356 0 
L 1766 0 
Q 1100 0 847 248 
Q 594 497 594 1153 
L 594 3053 
L 172 3053 
L 172 3500 
L 594 3500 
L 594 4494 
L 1172 4494 
z
" transform="scale(0.015625)"/>
      </defs>
      <use xlink:href="#DejaVuSans-72"/>
      <use xlink:href="#DejaVuSans-65" x="38.863281"/>
      <use xlink:href="#DejaVuSans-61" x="100.386719"/>
      <use xlink:href="#DejaVuSans-64" x="161.666016"/>
      <use xlink:href="#DejaVuSans-42" x="225.142578"/>
      <use xlink:href="#DejaVuSans-72" x="293.746094"/>
      <use xlink:href="#DejaVuSans-65" x="332.609375"/>
      <use xlink:href="#DejaVuSans-61" x="394.132812"/>
      <use xlink:href="#DejaVuSans-63" x="455.412109"/>
      <use xlink:href="#DejaVuSans-68" x="510.392578"/>
      <use xlink:href="#DejaVuSans-43" x="573.771484"/>
      <use xlink:href="#DejaVuSans-6f" x="643.595703"/>
      <use xlink:href="#DejaVuSans-75" x="704.777344"/>
      <use xlink:href="#DejaVuSans-6e" x="768.15625"/>
      <use xlink:href="#DejaVuSans-74" x="831.535156"/>
     </g>
    </g>
    <g id="line2d_17">
     <path d="M 184.582668 54.98125 
L 192.582668 54.98125 
L 200.582668 54.98125 
" style="fill: none; stroke-dasharray: 7.4,3.2; stroke-dashoffset: 0; stroke: #ff0000; stroke-width: 2"/>
    </g>
    <g id="text_10">
     <!-- Mean -->
     <g transform="translate(206.982668 57.78125) scale(0.08 -0.08)">
      <defs>
       <path id="DejaVuSans-4d" d="M 628 4666 
L 1569 4666 
L 2759 1491 
L 3956 4666 
L 4897 4666 
L 4897 0 
L 4281 0 
L 4281 4097 
L 3078 897 
L 2444 897 
L 1241 4097 
L 1241 0 
L 628 0 
L 628 4666 
z
" transform="scale(0.015625)"/>
      </defs>
      <use xlink:href="#DejaVuSans-4d"/>
      <use xlink:href="#DejaVuSans-65" x="86.279297"/>
      <use xlink:href="#DejaVuSans-61" x="147.802734"/>
      <use xlink:href="#DejaVuSans-6e" x="209.082031"/>
     </g>
    </g>
    <g id="line2d_18">
     <path d="M 184.582668 66.72375 
L 192.582668 66.72375 
L 200.582668 66.72375 
" style="fill: none; stroke-dasharray: 12.8,3.2,2,3.2; stroke-dashoffset: 0; stroke: #008000; stroke-width: 2"/>
    </g>
    <g id="text_11">
     <!-- Median -->
     <g transform="translate(206.982668 69.52375) scale(0.08 -0.08)">
      <defs>
       <path id="DejaVuSans-69" d="M 603 3500 
L 1178 3500 
L 1178 0 
L 603 0 
L 603 3500 
z
M 603 4863 
L 1178 4863 
L 1178 4134 
L 603 4134 
L 603 4863 
z
" transform="scale(0.015625)"/>
      </defs>
      <use xlink:href="#DejaVuSans-4d"/>
      <use xlink:href="#DejaVuSans-65" x="86.279297"/>
      <use xlink:href="#DejaVuSans-64" x="147.802734"/>
      <use xlink:href="#DejaVuSans-69" x="211.279297"/>
      <use xlink:href="#DejaVuSans-61" x="239.0625"/>
      <use xlink:href="#DejaVuSans-6e" x="300.341797"/>
     </g>
    </g>
    <g id="line2d_19">
     <path d="M 184.582668 78.46625 
L 192.582668 78.46625 
L 200.582668 78.46625 
" style="fill: none; stroke-dasharray: 2,3.3; stroke-dashoffset: 0; stroke: #0000ff; stroke-width: 2"/>
    </g>
    <g id="text_12">
     <!-- 95th Percentile -->
     <g transform="translate(206.982668 81.26625) scale(0.08 -0.08)">
      <defs>
       <path id="DejaVuSans-39" d="M 703 97 
L 703 672 
Q 941 559 1184 500 
Q 1428 441 1663 441 
Q 2288 441 2617 861 
Q 2947 1281 2994 2138 
Q 2813 1869 2534 1725 
Q 2256 1581 1919 1581 
Q 1219 1581 811 2004 
Q 403 2428 403 3163 
Q 403 3881 828 4315 
Q 1253 4750 1959 4750 
Q 2769 4750 3195 4129 
Q 3622 3509 3622 2328 
Q 3622 1225 3098 567 
Q 2575 -91 1691 -91 
Q 1453 -91 1209 -44 
Q 966 3 703 97 
z
M 1959 2075 
Q 2384 2075 2632 2365 
Q 2881 2656 2881 3163 
Q 2881 3666 2632 3958 
Q 2384 4250 1959 4250 
Q 1534 4250 1286 3958 
Q 1038 3666 1038 3163 
Q 1038 2656 1286 2365 
Q 1534 2075 1959 2075 
z
" transform="scale(0.015625)"/>
       <path id="DejaVuSans-35" d="M 691 4666 
L 3169 4666 
L 3169 4134 
L 1269 4134 
L 1269 2991 
Q 1406 3038 1543 3061 
Q 1681 3084 1819 3084 
Q 2600 3084 3056 2656 
Q 3513 2228 3513 1497 
Q 3513 744 3044 326 
Q 2575 -91 1722 -91 
Q 1428 -91 1123 -41 
Q 819 9 494 109 
L 494 744 
Q 775 591 1075 516 
Q 1375 441 1709 441 
Q 2250 441 2565 725 
Q 2881 1009 2881 1497 
Q 2881 1984 2565 2268 
Q 2250 2553 1709 2553 
Q 1456 2553 1204 2497 
Q 953 2441 691 2322 
L 691 4666 
z
" transform="scale(0.015625)"/>
       <path id="DejaVuSans-20" transform="scale(0.015625)"/>
       <path id="DejaVuSans-50" d="M 1259 4147 
L 1259 2394 
L 2053 2394 
Q 2494 2394 2734 2622 
Q 2975 2850 2975 3272 
Q 2975 3691 2734 3919 
Q 2494 4147 2053 4147 
L 1259 4147 
z
M 628 4666 
L 2053 4666 
Q 2838 4666 3239 4311 
Q 3641 3956 3641 3272 
Q 3641 2581 3239 2228 
Q 2838 1875 2053 1875 
L 1259 1875 
L 1259 0 
L 628 0 
L 628 4666 
z
" transform="scale(0.015625)"/>
       <path id="DejaVuSans-6c" d="M 603 4863 
L 1178 4863 
L 1178 0 
L 603 0 
L 603 4863 
z
" transform="scale(0.015625)"/>
      </defs>
      <use xlink:href="#DejaVuSans-39"/>
      <use xlink:href="#DejaVuSans-35" x="63.623047"/>
      <use xlink:href="#DejaVuSans-74" x="127.246094"/>
      <use xlink:href="#DejaVuSans-68" x="166.455078"/>
      <use xlink:href="#DejaVuSans-20" x="229.833984"/>
      <use xlink:href="#DejaVuSans-50" x="261.621094"/>
      <use xlink:href="#DejaVuSans-65" x="318.298828"/>
      <use xlink:href="#DejaVuSans-72" x="379.822266"/>
      <use xlink:href="#DejaVuSans-63" x="418.685547"/>
      <use xlink:href="#DejaVuSans-65" x="473.666016"/>
      <use xlink:href="#DejaVuSans-6e" x="535.189453"/>
      <use xlink:href="#DejaVuSans-74" x="598.568359"/>
      <use xlink:href="#DejaVuSans-69" x="637.777344"/>
      <use xlink:href="#DejaVuSans-6c" x="665.560547"/>
      <use xlink:href="#DejaVuSans-65" x="693.34375"/>
     </g>
    </g>
   </g>
  </g>
  <g id="axes_2">
   <g id="patch_9">
    <path d="M 298.9 154.52 
L 496.143918 154.52 
L 496.143918 32.76 
L 298.9 32.76 
z
" style="fill: #ffffff"/>
   </g>
   <g id="matplotlib.axis_3">
    <g id="xtick_6">
     <g id="line2d_20">
      <g>
       <use xlink:href="#m3d522391c6" x="306.239847" y="154.52" style="stroke: #000000; stroke-width: 0.8"/>
      </g>
     </g>
    </g>
    <g id="xtick_7">
     <g id="line2d_21">
      <g>
       <use xlink:href="#m3d522391c6" x="352.036612" y="154.52" style="stroke: #000000; stroke-width: 0.8"/>
      </g>
     </g>
    </g>
    <g id="xtick_8">
     <g id="line2d_22">
      <g>
       <use xlink:href="#m3d522391c6" x="397.833377" y="154.52" style="stroke: #000000; stroke-width: 0.8"/>
      </g>
     </g>
    </g>
    <g id="xtick_9">
     <g id="line2d_23">
      <g>
       <use xlink:href="#m3d522391c6" x="443.630142" y="154.52" style="stroke: #000000; stroke-width: 0.8"/>
      </g>
     </g>
    </g>
    <g id="xtick_10">
     <g id="line2d_24">
      <g>
       <use xlink:href="#m3d522391c6" x="489.426907" y="154.52" style="stroke: #000000; stroke-width: 0.8"/>
      </g>
     </g>
    </g>
   </g>
   <g id="matplotlib.axis_4">
    <g id="ytick_7">
     <g id="line2d_25">
      <g>
       <use xlink:href="#mcd4e5430e3" x="298.9" y="154.52" style="stroke: #000000; stroke-width: 0.8"/>
      </g>
     </g>
    </g>
    <g id="ytick_8">
     <g id="line2d_26">
      <g>
       <use xlink:href="#mcd4e5430e3" x="298.9" y="130.168" style="stroke: #000000; stroke-width: 0.8"/>
      </g>
     </g>
    </g>
    <g id="ytick_9">
     <g id="line2d_27">
      <g>
       <use xlink:href="#mcd4e5430e3" x="298.9" y="105.816" style="stroke: #000000; stroke-width: 0.8"/>
      </g>
     </g>
    </g>
    <g id="ytick_10">
     <g id="line2d_28">
      <g>
       <use xlink:href="#mcd4e5430e3" x="298.9" y="81.464" style="stroke: #000000; stroke-width: 0.8"/>
      </g>
     </g>
    </g>
    <g id="ytick_11">
     <g id="line2d_29">
      <g>
       <use xlink:href="#mcd4e5430e3" x="298.9" y="57.112" style="stroke: #000000; stroke-width: 0.8"/>
      </g>
     </g>
    </g>
    <g id="ytick_12">
     <g id="line2d_30">
      <g>
       <use xlink:href="#mcd4e5430e3" x="298.9" y="32.76" style="stroke: #000000; stroke-width: 0.8"/>
      </g>
     </g>
    </g>
   </g>
   <g id="line2d_31">
    <path d="M 310.040979 154.52 
L 310.040979 154.285846 
L 310.176079 154.285846 
L 310.176079 154.051692 
L 310.302021 154.051692 
L 310.407353 152.646769 
L 310.434831 152.646769 
L 310.441701 151.944308 
L 310.58596 151.944308 
L 310.693583 150.071077 
L 310.718771 150.071077 
L 310.812654 147.261231 
L 310.835553 147.261231 
L 310.943175 145.856308 
L 310.954624 145.856308 
L 311.057667 145.153846 
L 311.105754 145.153846 
L 311.211086 143.983077 
L 311.224825 143.983077 
L 311.334738 143.046462 
L 311.343897 143.046462 
L 311.408012 142.578154 
L 311.531664 142.578154 
L 311.611808 140.939077 
L 311.648445 140.939077 
L 311.694242 139.065846 
L 312.00795 139.065846 
L 312.044587 138.363385 
L 312.161369 138.363385 
L 312.271281 137.660923 
L 312.321658 137.660923 
L 312.420121 136.958462 
L 312.43386 136.958462 
L 312.43386 136.724308 
L 312.552932 136.724308 
L 312.633076 135.319385 
L 312.669713 135.319385 
L 312.779626 134.382769 
L 312.781915 134.382769 
L 312.889538 132.977846 
L 312.900987 132.977846 
L 313.00403 130.870462 
L 313.024638 130.870462 
L 313.129971 129.465538 
L 313.13913 129.465538 
L 313.246753 127.592308 
L 313.251332 127.592308 
L 313.358955 124.08 
L 313.368114 124.08 
L 313.475736 121.036 
L 313.487186 121.036 
L 313.592518 116.352923 
L 313.603967 116.352923 
L 313.71388 113.543077 
L 313.720749 113.543077 
L 313.814632 110.967385 
L 313.832951 110.967385 
L 313.938284 109.328308 
L 314.039037 109.328308 
L 314.059645 108.86 
L 314.190166 108.86 
L 314.290919 106.518462 
L 314.322976 106.518462 
L 314.41915 105.581846 
L 314.448918 105.581846 
L 314.519903 105.113538 
L 314.593177 105.113538 
L 314.69164 104.411077 
L 314.742017 104.411077 
L 314.799263 103.942769 
L 314.929784 103.942769 
L 315.009928 103.474462 
L 315.071754 103.474462 
L 315.165637 102.069538 
L 315.190825 102.069538 
L 315.27097 101.367077 
L 315.332795 101.367077 
L 315.422099 100.430462 
L 315.470185 100.430462 
L 315.509113 99.728 
L 315.591547 99.728 
L 315.655662 99.259692 
L 315.731227 99.259692 
L 315.818241 98.323077 
L 315.889226 98.323077 
L 315.999138 96.215692 
L 316.001428 96.215692 
L 316.10905 93.405846 
L 316.136528 93.405846 
L 316.232702 91.532615 
L 316.24873 91.532615 
L 316.349483 88.956923 
L 316.370092 88.956923 
L 316.480004 86.381231 
L 316.484584 86.381231 
L 316.560148 84.508 
L 316.619684 84.508 
L 316.706698 82.634769 
L 316.768524 82.634769 
L 316.81432 81.932308 
L 316.976899 81.932308 
L 317.075362 80.761538 
L 317.10284 80.761538 
L 317.180695 79.590769 
L 317.283737 79.590769 
L 317.329534 78.888308 
L 317.402809 78.888308 
L 317.423417 78.42 
L 317.624923 78.42 
L 317.624923 78.185846 
L 317.890544 78.185846 
L 317.890544 77.951692 
L 318.027935 77.951692 
L 318.135557 76.780923 
L 318.176774 76.780923 
L 318.206542 76.312615 
L 318.314165 76.312615 
L 318.314165 76.078462 
L 318.51796 76.078462 
L 318.51796 75.844308 
L 318.65535 75.844308 
L 318.751524 75.376 
L 318.840827 75.376 
L 318.918682 73.502769 
L 318.957609 73.502769 
L 319.062942 72.566154 
L 319.170564 72.566154 
L 319.23468 71.629538 
L 319.358331 71.629538 
L 319.463663 70.692923 
L 319.50717 70.692923 
L 319.594184 70.224615 
L 319.736154 70.224615 
L 319.786531 69.522154 
L 319.855226 69.522154 
L 319.855226 69.288 
L 320.313193 69.288 
L 320.36586 68.819692 
L 320.436845 68.819692 
L 320.436845 68.585538 
L 320.890233 68.585538 
L 320.915421 67.883077 
L 321.297824 67.883077 
L 321.297824 67.648923 
L 321.481011 67.648923 
L 321.577184 66.946462 
L 321.620691 66.946462 
L 321.62756 66.478154 
L 321.929819 66.478154 
L 321.929819 66.244 
L 322.174832 66.244 
L 322.241237 65.541538 
L 322.323671 65.541538 
L 322.323671 65.307385 
L 322.495409 65.307385 
L 322.504569 64.839077 
L 322.712944 64.839077 
L 322.712944 64.604923 
L 322.932768 64.604923 
L 323.028941 64.136615 
L 323.221288 64.136615 
L 323.273954 63.668308 
L 323.383866 63.668308 
L 323.397605 63.2 
L 324.089137 63.2 
L 324.089137 62.965846 
L 324.219657 62.965846 
L 324.308961 62.263385 
L 324.400555 62.263385 
L 324.400555 62.029231 
L 324.661596 62.029231 
L 324.682205 61.560923 
L 324.902029 61.560923 
L 324.950116 61.092615 
L 325.041709 61.092615 
L 325.041709 60.858462 
L 325.195128 60.858462 
L 325.268403 60.390154 
L 325.398924 60.390154 
L 325.479068 59.921846 
L 325.584401 59.921846 
L 325.584401 59.687692 
L 325.698893 59.687692 
L 325.698893 59.453538 
L 325.898109 59.453538 
L 325.898109 59.219385 
L 326.15915 59.219385 
L 326.15915 58.985231 
L 326.468279 58.985231 
L 326.468279 58.751077 
L 326.717871 58.751077 
L 326.768247 58.282769 
L 326.898768 58.282769 
L 326.919377 57.814462 
L 327.065926 57.814462 
L 327.118593 57.112 
L 327.233084 57.112 
L 327.233084 56.877846 
L 327.610908 56.877846 
L 327.661284 56.409538 
L 327.979572 56.409538 
L 328.025369 55.707077 
L 328.130701 55.707077 
L 328.233744 55.238769 
L 328.593248 55.238769 
L 328.593248 55.004615 
L 328.781015 55.004615 
L 328.781015 54.770462 
L 328.984811 54.770462 
L 328.984811 54.536308 
L 329.232113 54.536308 
L 329.232113 54.302154 
L 329.589328 54.302154 
L 329.589328 54.068 
L 330.12057 54.068 
L 330.175527 53.599692 
L 330.425119 53.599692 
L 330.425119 53.365538 
L 330.825841 53.365538 
L 330.825841 53.131385 
L 331.428068 53.131385 
L 331.455546 52.428923 
L 331.583777 52.428923 
L 331.583777 52.194769 
L 331.8265 52.194769 
L 331.851688 51.726462 
L 332.176845 51.726462 
L 332.176845 51.492308 
L 332.3898 51.492308 
L 332.492843 51.024 
L 332.721827 51.024 
L 332.721827 50.789846 
L 332.987448 50.789846 
L 332.987448 50.555692 
L 333.234751 50.555692 
L 333.234751 50.321538 
L 333.658371 50.321538 
L 333.695008 49.853231 
L 333.857587 49.853231 
L 333.958339 49.384923 
L 334.127787 49.384923 
L 334.162135 48.916615 
L 334.670479 48.916615 
L 334.681928 48.448308 
L 335.332242 48.448308 
L 335.332242 48.214154 
L 335.563516 48.214154 
L 335.657399 47.511692 
L 335.776471 47.511692 
L 335.776471 47.277538 
L 335.890963 47.277538 
L 335.982556 46.809231 
L 336.051252 46.809231 
L 336.119947 46.340923 
L 336.49777 46.340923 
L 336.532118 45.872615 
L 337.244257 45.872615 
L 337.244257 45.638462 
L 337.461792 45.638462 
L 337.461792 45.404308 
L 337.580863 45.404308 
L 337.580863 45.170154 
L 337.857934 45.170154 
L 337.857934 44.936 
L 338.327351 44.936 
L 338.327351 44.701846 
L 339.419604 44.701846 
L 339.419604 44.467692 
L 340.257684 44.467692 
L 340.257684 44.233538 
L 341.665935 44.233538 
L 341.665935 43.999385 
L 342.490277 43.999385 
L 342.490277 43.765231 
L 343.00549 43.765231 
L 343.00549 43.531077 
L 343.305459 43.531077 
L 343.305459 43.296923 
L 343.667254 43.296923 
L 343.724499 42.828615 
L 344.251162 42.828615 
L 344.345046 42.360308 
L 344.809883 42.360308 
L 344.8511 41.892 
L 344.99078 41.892 
L 344.99078 41.657846 
L 345.570109 41.657846 
L 345.570109 41.423692 
L 345.943353 41.423692 
L 345.943353 41.189538 
L 346.179206 41.189538 
L 346.179206 40.955385 
L 346.607406 40.955385 
L 346.607406 40.721231 
L 349.027765 40.721231 
L 349.027765 40.487077 
L 349.602514 40.487077 
L 349.602514 40.252923 
L 350.161235 40.252923 
L 350.161235 40.018769 
L 350.557377 40.018769 
L 350.557377 39.784615 
L 351.093199 39.784615 
L 351.157314 39.316308 
L 351.812208 39.316308 
L 351.812208 39.082154 
L 352.222089 39.082154 
L 352.222089 38.848 
L 352.858664 38.848 
L 352.858664 38.613846 
L 353.323501 38.613846 
L 353.323501 38.379692 
L 353.637209 38.379692 
L 353.637209 38.145538 
L 356.435392 38.145538 
L 356.435392 37.911385 
L 356.778867 37.911385 
L 356.778867 37.677231 
L 356.909388 37.677231 
L 356.909388 37.443077 
L 357.156691 37.443077 
L 357.156691 37.208923 
L 357.749759 37.208923 
L 357.749759 36.974769 
L 358.148191 36.974769 
L 358.148191 36.740615 
L 358.475637 36.740615 
L 358.475637 36.506462 
L 358.851171 36.506462 
L 358.851171 36.272308 
L 359.801454 36.272308 
L 359.801454 36.038154 
L 359.925105 36.038154 
L 359.925105 35.804 
L 360.639535 35.804 
L 360.639535 35.569846 
L 365.633672 35.569846 
L 365.633672 35.335692 
L 366.499231 35.335692 
L 366.499231 35.101538 
L 367.845656 35.101538 
L 367.845656 34.867385 
L 368.34484 34.867385 
L 368.34484 34.633231 
L 373.311499 34.633231 
L 373.311499 34.399077 
L 375.98832 34.399077 
L 375.98832 34.164923 
L 376.471476 34.164923 
L 376.471476 33.930769 
L 382.550997 33.930769 
L 382.550997 33.696615 
L 386.253665 33.696615 
L 386.253665 33.462462 
L 388.637387 33.462462 
L 388.637387 33.228308 
L 390.492156 33.228308 
L 390.492156 32.994154 
L 390.801284 32.994154 
L 390.801284 32.76 
L 390.801284 32.76 
" clip-path="url(#p336be0ba1f)" style="fill: none; stroke: #2d936c; stroke-width: 1.5; stroke-linecap: square"/>
   </g>
   <g id="line2d_32">
    <path d="M 321.337544 154.52 
L 321.337544 32.76 
" clip-path="url(#p336be0ba1f)" style="fill: none; stroke-dasharray: 5.55,2.4; stroke-dashoffset: 0; stroke: #ff0000; stroke-width: 1.5"/>
   </g>
   <g id="line2d_33">
    <path d="M 316.102181 154.52 
L 316.102181 32.76 
" clip-path="url(#p336be0ba1f)" style="fill: none; stroke-dasharray: 9.6,2.4,1.5,2.4; stroke-dashoffset: 0; stroke: #008000; stroke-width: 1.5"/>
   </g>
   <g id="line2d_34">
    <path d="M 352.253918 154.52 
L 352.253918 32.76 
" clip-path="url(#p336be0ba1f)" style="fill: none; stroke-dasharray: 1.5,2.475; stroke-dashoffset: 0; stroke: #0000ff; stroke-width: 1.5"/>
   </g>
   <g id="patch_10">
    <path d="M 298.9 154.52 
L 298.9 32.76 
" style="fill: none; stroke: #000000; stroke-width: 0.8; stroke-linejoin: miter; stroke-linecap: square"/>
   </g>
   <g id="patch_11">
    <path d="M 496.143918 154.52 
L 496.143918 32.76 
" style="fill: none; stroke: #000000; stroke-width: 0.8; stroke-linejoin: miter; stroke-linecap: square"/>
   </g>
   <g id="patch_12">
    <path d="M 298.9 154.52 
L 496.143918 154.52 
" style="fill: none; stroke: #000000; stroke-width: 0.8; stroke-linejoin: miter; stroke-linecap: square"/>
   </g>
   <g id="patch_13">
    <path d="M 298.9 32.76 
L 496.143918 32.76 
" style="fill: none; stroke: #000000; stroke-width: 0.8; stroke-linejoin: miter; stroke-linecap: square"/>
   </g>
   <g id="text_13">
    <g id="patch_14">
     <path d="M 442.832939 150.21525 
L 475.952939 150.21525 
L 475.952939 134.47275 
L 442.832939 134.47275 
z
" style="fill: #ffffff; opacity: 0.2; stroke: #000000; stroke-linejoin: miter"/>
    </g>
    <!-- $n = 42$ -->
    <g transform="translate(446.832939 144.5515) scale(0.08 -0.08)">
     <use xlink:href="#DejaVuSans-Oblique-6e" transform="translate(0 0.78125)"/>
     <use xlink:href="#DejaVuSans-3d" transform="translate(82.861328 0.78125)"/>
     <use xlink:href="#DejaVuSans-34" transform="translate(186.132812 0.78125)"/>
     <use xlink:href="#DejaVuSans-32" transform="translate(249.755859 0.78125)"/>
    </g>
   </g>
  </g>
  <g id="axes_3">
   <g id="patch_15">
    <path d="M 511.2 154.52 
L 708.443918 154.52 
L 708.443918 32.76 
L 511.2 32.76 
z
" style="fill: #ffffff"/>
   </g>
   <g id="matplotlib.axis_5">
    <g id="xtick_11">
     <g id="line2d_35">
      <g>
       <use xlink:href="#m3d522391c6" x="518.539847" y="154.52" style="stroke: #000000; stroke-width: 0.8"/>
      </g>
     </g>
    </g>
    <g id="xtick_12">
     <g id="line2d_36">
      <g>
       <use xlink:href="#m3d522391c6" x="564.336612" y="154.52" style="stroke: #000000; stroke-width: 0.8"/>
      </g>
     </g>
    </g>
    <g id="xtick_13">
     <g id="line2d_37">
      <g>
       <use xlink:href="#m3d522391c6" x="610.133377" y="154.52" style="stroke: #000000; stroke-width: 0.8"/>
      </g>
     </g>
    </g>
    <g id="xtick_14">
     <g id="line2d_38">
      <g>
       <use xlink:href="#m3d522391c6" x="655.930142" y="154.52" style="stroke: #000000; stroke-width: 0.8"/>
      </g>
     </g>
    </g>
    <g id="xtick_15">
     <g id="line2d_39">
      <g>
       <use xlink:href="#m3d522391c6" x="701.726907" y="154.52" style="stroke: #000000; stroke-width: 0.8"/>
      </g>
     </g>
    </g>
   </g>
   <g id="matplotlib.axis_6">
    <g id="ytick_13">
     <g id="line2d_40">
      <g>
       <use xlink:href="#mcd4e5430e3" x="511.2" y="154.52" style="stroke: #000000; stroke-width: 0.8"/>
      </g>
     </g>
    </g>
    <g id="ytick_14">
     <g id="line2d_41">
      <g>
       <use xlink:href="#mcd4e5430e3" x="511.2" y="130.168" style="stroke: #000000; stroke-width: 0.8"/>
      </g>
     </g>
    </g>
    <g id="ytick_15">
     <g id="line2d_42">
      <g>
       <use xlink:href="#mcd4e5430e3" x="511.2" y="105.816" style="stroke: #000000; stroke-width: 0.8"/>
      </g>
     </g>
    </g>
    <g id="ytick_16">
     <g id="line2d_43">
      <g>
       <use xlink:href="#mcd4e5430e3" x="511.2" y="81.464" style="stroke: #000000; stroke-width: 0.8"/>
      </g>
     </g>
    </g>
    <g id="ytick_17">
     <g id="line2d_44">
      <g>
       <use xlink:href="#mcd4e5430e3" x="511.2" y="57.112" style="stroke: #000000; stroke-width: 0.8"/>
      </g>
     </g>
    </g>
    <g id="ytick_18">
     <g id="line2d_45">
      <g>
       <use xlink:href="#mcd4e5430e3" x="511.2" y="32.76" style="stroke: #000000; stroke-width: 0.8"/>
      </g>
     </g>
    </g>
   </g>
   <g id="line2d_46">
    <path d="M 524.761338 154.52 
L 524.843772 154.031984 
L 524.87583 154.031984 
L 524.87583 153.90998 
L 525.077336 153.90998 
L 525.132292 153.543968 
L 525.246784 153.543968 
L 525.356696 152.68994 
L 525.377304 152.68994 
L 525.471188 152.201924 
L 525.498666 152.201924 
L 525.58797 151.225892 
L 525.615448 151.225892 
L 525.71849 150.005852 
L 525.72994 150.005852 
L 525.798635 149.395832 
L 525.846721 149.395832 
L 525.908547 149.02982 
L 526.084864 149.02982 
L 526.084864 148.907816 
L 527.321377 148.907816 
L 527.385493 148.4198 
L 527.509144 148.4198 
L 527.619056 147.19976 
L 527.621346 147.19976 
L 527.726679 145.857715 
L 527.744997 145.857715 
L 527.84117 144.881683 
L 527.857199 144.881683 
L 527.953372 143.539639 
L 527.973981 143.539639 
L 528.070154 142.197595 
L 528.095342 142.197595 
L 528.196095 140.367535 
L 528.214414 140.367535 
L 528.324326 137.927455 
L 528.333486 137.927455 
L 528.441108 136.097395 
L 528.445688 136.097395 
L 528.54873 134.511343 
L 528.571629 134.511343 
L 528.640324 132.193267 
L 528.683831 132.193267 
L 528.789163 131.461242 
L 528.798323 131.461242 
L 528.885337 130.851222 
L 530.158487 130.851222 
L 530.261529 129.631182 
L 530.272979 129.631182 
L 530.334804 128.65515 
L 530.385181 128.65515 
L 530.451586 127.923126 
L 530.497383 127.923126 
L 530.607295 127.43511 
L 530.627904 127.43511 
L 530.627904 127.313106 
L 530.749265 127.313106 
L 530.854598 126.703086 
L 530.872916 126.703086 
L 530.973669 125.727054 
L 531.001147 125.727054 
L 531.076712 124.751022 
L 531.115639 124.751022 
L 531.223262 123.77499 
L 531.230131 123.77499 
L 531.328594 121.700922 
L 531.342333 121.700922 
L 531.447666 119.138838 
L 531.461405 119.138838 
L 531.564447 118.162806 
L 531.587346 118.162806 
L 531.67436 117.186774 
L 531.736185 117.186774 
L 531.736185 117.06477 
L 532.828438 117.06477 
L 532.887974 116.698758 
L 532.988727 116.698758 
L 533.064291 116.210741 
L 533.194812 116.210741 
L 533.217711 115.478717 
L 533.316174 115.478717 
L 533.323043 115.234709 
L 533.430666 115.234709 
L 533.524549 114.746693 
L 533.682548 114.746693 
L 533.758112 114.136673 
L 533.806199 114.136673 
L 533.916111 113.526653 
L 533.93901 113.526653 
L 534.042052 113.038637 
L 534.07411 113.038637 
L 534.179443 111.818597 
L 534.190892 111.818597 
L 534.300804 110.842565 
L 534.303094 110.842565 
L 534.413006 109.866533 
L 534.438194 109.866533 
L 534.49544 109.378517 
L 534.571005 109.378517 
L 534.625961 108.768497 
L 534.694656 108.768497 
L 534.795409 108.280481 
L 534.820597 108.280481 
L 534.905321 107.670461 
L 534.935089 107.670461 
L 535.031262 106.694429 
L 535.051871 106.694429 
L 535.157204 105.596393 
L 535.235058 105.596393 
L 535.34268 103.766333 
L 535.377028 103.766333 
L 535.404506 103.400321 
L 535.530447 103.400321 
L 535.530447 103.278317 
L 535.720504 103.278317 
L 535.802938 102.546293 
L 535.92201 102.546293 
L 535.92201 102.424289 
L 536.139544 102.424289 
L 536.244877 101.814269 
L 536.251746 101.814269 
L 536.347919 100.96024 
L 536.432644 100.96024 
L 536.464701 100.594228 
L 536.554005 100.594228 
L 536.554005 100.472224 
L 536.695975 100.472224 
L 536.746351 100.106212 
L 536.817336 100.106212 
L 536.915799 99.13018 
L 536.963886 99.13018 
L 537.062349 98.764168 
L 537.092117 98.764168 
L 537.19516 97.91014 
L 537.224928 97.91014 
L 537.33026 96.934108 
L 537.353158 96.934108 
L 537.456201 96.202084 
L 537.47223 96.202084 
L 537.572983 95.47006 
L 537.589012 95.47006 
L 537.678316 94.982044 
L 537.717243 94.982044 
L 537.820285 93.64 
L 537.834025 93.64 
L 537.932488 93.02998 
L 537.948516 93.02998 
L 538.049269 91.687936 
L 538.076747 91.687936 
L 538.131703 90.833908 
L 538.204978 90.833908 
L 538.280543 90.5899 
L 538.385876 90.5899 
L 538.443121 90.345892 
L 538.511817 90.345892 
L 538.614859 89.735872 
L 538.690424 89.735872 
L 538.763699 89.491864 
L 538.809496 89.491864 
L 538.89193 89.125852 
L 538.923988 89.125852 
L 538.997262 88.637836 
L 539.038479 88.637836 
L 539.143812 88.393828 
L 539.31784 88.393828 
L 539.425462 88.14982 
L 539.555983 88.14982 
L 539.645287 87.5398 
L 539.670475 87.5398 
L 539.768938 86.685772 
L 539.784967 86.685772 
L 539.871981 86.31976 
L 539.901748 86.31976 
L 539.993342 85.587735 
L 540.048298 85.587735 
L 540.15821 84.855711 
L 540.171949 84.855711 
L 540.279572 83.879679 
L 540.320789 83.879679 
L 540.410093 83.391663 
L 540.44673 83.391663 
L 540.549773 82.659639 
L 540.568091 82.659639 
L 540.673424 82.049619 
L 540.7238 82.049619 
L 540.826843 81.195591 
L 540.842872 81.195591 
L 540.945915 79.975551 
L 540.973393 79.975551 
L 541.069566 79.487535 
L 541.087885 79.487535 
L 541.172609 79.243527 
L 541.243594 79.243527 
L 541.243594 79.121523 
L 541.781706 79.121523 
L 541.781706 78.999519 
L 542.106863 78.999519 
L 542.177848 78.755511 
L 542.255702 78.755511 
L 542.308368 78.145491 
L 542.42973 78.145491 
L 542.42973 78.023487 
L 542.603758 78.023487 
L 542.647264 77.779479 
L 542.835031 77.779479 
L 542.940364 77.047455 
L 543.045696 77.047455 
L 543.045696 76.925451 
L 543.217434 76.925451 
L 543.320477 76.193427 
L 543.373143 76.193427 
L 543.471606 75.705411 
L 543.531142 75.705411 
L 543.627315 75.217395 
L 543.668532 75.217395 
L 543.776155 74.851383 
L 543.915835 74.851383 
L 544.005139 74.607375 
L 544.073834 74.607375 
L 544.073834 74.485371 
L 544.380672 74.485371 
L 544.442498 74.241363 
L 544.627975 74.241363 
L 544.627975 74.119359 
L 544.900465 74.119359 
L 544.900465 73.997355 
L 545.024117 73.997355 
L 545.101971 73.631343 
L 545.138608 73.631343 
L 545.138608 73.509339 
L 545.342404 73.509339 
L 545.39736 73.265331 
L 545.470635 73.265331 
L 545.571388 72.777315 
L 545.891965 72.777315 
L 545.96753 72.533307 
L 546.082022 72.533307 
L 546.143847 71.923287 
L 546.235441 71.923287 
L 546.288107 71.679279 
L 546.347643 71.679279 
L 546.404889 71.313267 
L 546.53312 71.313267 
L 546.622424 70.703246 
L 546.771263 70.703246 
L 546.835379 70.459238 
L 546.945291 70.459238 
L 546.945291 70.337234 
L 547.231521 70.337234 
L 547.275028 70.093226 
L 547.845197 70.093226 
L 547.94137 69.849218 
L 548.156615 69.849218 
L 548.241339 69.483206 
L 548.406208 69.483206 
L 548.447425 69.239198 
L 548.555047 69.239198 
L 548.616873 68.99519 
L 548.669539 68.99519 
L 548.669539 68.751182 
L 548.845857 68.751182 
L 548.94432 68.507174 
L 549.07484 68.507174 
L 549.08629 68.141162 
L 549.399997 68.141162 
L 549.425186 67.897154 
L 549.551127 67.897154 
L 549.624402 67.531142 
L 549.663329 67.531142 
L 549.759502 67.043126 
L 549.7824 67.043126 
L 549.7824 66.921122 
L 550.49454 66.921122 
L 550.560945 66.677114 
L 550.739553 66.677114 
L 550.739553 66.55511 
L 550.989145 66.55511 
L 550.989145 66.433106 
L 551.48375 66.433106 
L 551.48375 66.311102 
L 551.607402 66.311102 
L 551.607402 66.067094 
L 551.76769 66.067094 
L 551.786009 65.701082 
L 551.969196 65.701082 
L 551.982935 65.457074 
L 552.111166 65.457074 
L 552.205049 65.213066 
L 552.232527 65.213066 
L 552.33099 64.72505 
L 552.848494 64.72505 
L 552.848494 64.603046 
L 553.027101 64.603046 
L 553.027101 64.481042 
L 553.393475 64.481042 
L 553.498808 64.237034 
L 553.517127 64.237034 
L 553.551474 63.993026 
L 553.796487 63.993026 
L 553.796487 63.871022 
L 554.339179 63.871022 
L 554.410164 63.627014 
L 554.712422 63.627014 
L 554.719292 63.383006 
L 554.854392 63.383006 
L 554.854392 63.261002 
L 555.252824 63.261002 
L 555.30549 62.89499 
L 555.378765 62.89499 
L 555.463489 62.528978 
L 555.568822 62.528978 
L 555.568822 62.406974 
L 555.923747 62.406974 
L 555.923747 62.28497 
L 556.100064 62.28497 
L 556.184788 61.796954 
L 556.475598 61.796954 
L 556.498496 61.552946 
L 557.357185 61.552946 
L 557.462518 60.942926 
L 557.544952 60.942926 
L 557.544952 60.820922 
L 557.959413 60.820922 
L 557.959413 60.698918 
L 558.257092 60.698918 
L 558.296019 60.45491 
L 558.437989 60.45491 
L 558.470047 60.210902 
L 558.692161 60.210902 
L 558.779175 59.966894 
L 558.962362 59.966894 
L 558.962362 59.84489 
L 559.244012 59.84489 
L 559.294388 59.600882 
L 560.008818 59.600882 
L 560.008818 59.478878 
L 560.189715 59.478878 
L 560.292758 58.990862 
L 560.480525 58.990862 
L 560.480525 58.868858 
L 560.615625 58.868858 
L 560.615625 58.746854 
L 560.773624 58.746854 
L 560.773624 58.62485 
L 560.933913 58.62485 
L 560.954521 58.380842 
L 561.091912 58.380842 
L 561.091912 58.258838 
L 561.572778 58.258838 
L 561.652922 58.01483 
L 561.703298 58.01483 
L 561.703298 57.892826 
L 562.616944 57.892826 
L 562.722276 57.648818 
L 562.990187 57.648818 
L 562.990187 57.526814 
L 563.152766 57.526814 
L 563.152766 57.40481 
L 563.610734 57.40481 
L 563.677139 57.038798 
L 563.736675 57.038798 
L 563.736675 56.916794 
L 564.105339 56.916794 
L 564.105339 56.79479 
L 564.274787 56.79479 
L 564.274787 56.672786 
L 564.441945 56.672786 
L 564.441945 56.550782 
L 564.602234 56.550782 
L 564.661769 56.306774 
L 564.741914 56.306774 
L 564.819768 55.818758 
L 564.870145 55.818758 
L 564.964028 55.574749 
L 566.239468 55.574749 
L 566.239468 55.452745 
L 566.436394 55.452745 
L 566.502799 55.086733 
L 566.63561 55.086733 
L 566.63561 54.964729 
L 567.031752 54.964729 
L 567.031752 54.842725 
L 567.306532 54.842725 
L 567.370648 54.598717 
L 567.505748 54.598717 
L 567.579023 54.110701 
L 567.716414 54.110701 
L 567.716414 53.988697 
L 568.442292 53.988697 
L 568.442292 53.866693 
L 568.61632 53.866693 
L 568.61632 53.744689 
L 569.001013 53.744689 
L 569.001013 53.622685 
L 569.262054 53.622685 
L 569.262054 53.500681 
L 569.46356 53.500681 
L 569.46356 53.378677 
L 571.16491 53.378677 
L 571.16491 53.256673 
L 571.480908 53.256673 
L 571.480908 53.134669 
L 571.664095 53.134669 
L 571.721341 52.890661 
L 571.851861 52.890661 
L 571.959484 52.280641 
L 572.073976 52.280641 
L 572.112903 52.036633 
L 572.241134 52.036633 
L 572.282351 51.792625 
L 572.396843 51.792625 
L 572.396843 51.670621 
L 572.554842 51.670621 
L 572.568581 51.426613 
L 573.525733 51.426613 
L 573.56466 51.182605 
L 574.004309 51.182605 
L 574.102772 50.816593 
L 574.28138 50.816593 
L 574.304278 50.572585 
L 574.56761 50.572585 
L 574.56761 50.450581 
L 574.759956 50.450581 
L 574.759956 50.328577 
L 575.307227 50.328577 
L 575.350734 50.084569 
L 575.527052 50.084569 
L 575.54766 49.840561 
L 577.608515 49.840561 
L 577.608515 49.718557 
L 577.766514 49.718557 
L 577.766514 49.596553 
L 578.153496 49.596553 
L 578.153496 49.474549 
L 578.306915 49.474549 
L 578.306915 49.352545 
L 579.108359 49.352545 
L 579.108359 49.230541 
L 579.483892 49.230541 
L 579.490762 48.986533 
L 579.630442 48.986533 
L 579.630442 48.864529 
L 580.665449 48.864529 
L 580.665449 48.742525 
L 581.340951 48.742525 
L 581.340951 48.620521 
L 582.453812 48.620521 
L 582.453812 48.498517 
L 582.703405 48.498517 
L 582.712564 48.254509 
L 584.374987 48.254509 
L 584.374987 48.132505 
L 584.768839 48.132505 
L 584.768839 48.010501 
L 585.412283 48.010501 
L 585.412283 47.888497 
L 585.88628 47.888497 
L 585.88628 47.766493 
L 586.538884 47.766493 
L 586.538884 47.644489 
L 586.912128 47.644489 
L 586.912128 47.522485 
L 587.15485 47.522485 
L 587.15485 47.400481 
L 587.363226 47.400481 
L 587.363226 47.278477 
L 587.933395 47.278477 
L 587.933395 47.156473 
L 588.047887 47.156473 
L 588.047887 47.034469 
L 588.455478 47.034469 
L 588.553942 46.790461 
L 589.467587 46.790461 
L 589.467587 46.668457 
L 589.595818 46.668457 
L 589.595818 46.546453 
L 589.71031 46.546453 
L 589.71031 46.424449 
L 590.791113 46.424449 
L 590.791113 46.302445 
L 591.093372 46.302445 
L 591.162067 46.058437 
L 591.784903 46.058437 
L 591.784903 45.936433 
L 592.066553 45.936433 
L 592.169596 45.692425 
L 592.215393 45.692425 
L 592.215393 45.570421 
L 592.574897 45.570421 
L 592.590926 45.326413 
L 593.028285 45.326413 
L 593.10385 45.082405 
L 593.174835 45.082405 
L 593.236661 44.716393 
L 593.554948 44.716393 
L 593.621354 44.472385 
L 594.477753 44.472385 
L 594.477753 44.350381 
L 594.931141 44.350381 
L 594.931141 44.228377 
L 596.387478 44.228377 
L 596.453883 43.984369 
L 596.65081 43.984369 
L 596.65081 43.862365 
L 596.955358 43.862365 
L 596.973677 43.618357 
L 597.136255 43.618357 
L 597.136255 43.496353 
L 597.291964 43.496353 
L 597.291964 43.374349 
L 597.905641 43.374349 
L 597.905641 43.252345 
L 598.711664 43.252345 
L 598.750591 43.008337 
L 598.901721 43.008337 
L 598.901721 42.886333 
L 599.025372 42.886333 
L 599.025372 42.764329 
L 599.348239 42.764329 
L 599.348239 42.642325 
L 599.650498 42.642325 
L 599.650498 42.520321 
L 600.257305 42.520321 
L 600.257305 42.398317 
L 600.502317 42.398317 
L 600.502317 42.276313 
L 600.905329 42.276313 
L 600.905329 42.154309 
L 601.042719 42.154309 
L 601.145762 41.910301 
L 601.562513 41.910301 
L 601.59915 41.666293 
L 601.697613 41.666293 
L 601.789207 41.422285 
L 601.993002 41.422285 
L 602.011321 41.178277 
L 602.421202 41.178277 
L 602.421202 41.056273 
L 603.598179 41.056273 
L 603.598179 40.934269 
L 604.184377 40.934269 
L 604.184377 40.812265 
L 604.406492 40.812265 
L 604.406492 40.690261 
L 604.582809 40.690261 
L 604.582809 40.568257 
L 604.759127 40.568257 
L 604.759127 40.446253 
L 605.789554 40.446253 
L 605.789554 40.324248 
L 606.380332 40.324248 
L 606.382622 40.08024 
L 606.623055 40.08024 
L 606.623055 39.958236 
L 606.874937 39.958236 
L 606.874937 39.836232 
L 607.754235 39.836232 
L 607.754235 39.714228 
L 608.39539 39.714228 
L 608.39539 39.592224 
L 608.734286 39.592224 
L 608.734286 39.47022 
L 608.860227 39.47022 
L 608.860227 39.348216 
L 609.748684 39.348216 
L 609.748684 39.226212 
L 610.282217 39.226212 
L 610.282217 39.104208 
L 610.65546 39.104208 
L 610.708126 38.8602 
L 610.80659 38.8602 
L 610.80659 38.738196 
L 610.978327 38.738196 
L 610.978327 38.616192 
L 611.585135 38.616192 
L 611.589714 38.372184 
L 613.20176 38.372184 
L 613.20176 38.25018 
L 613.435324 38.25018 
L 613.439904 38.006172 
L 613.907031 38.006172 
L 613.907031 37.884168 
L 614.243637 37.884168 
L 614.243637 37.762164 
L 615.379397 37.762164 
L 615.406875 37.518156 
L 617.357817 37.518156 
L 617.357817 37.396152 
L 618.047058 37.396152 
L 618.047058 37.274148 
L 618.29894 37.274148 
L 618.29894 37.152144 
L 618.569141 37.152144 
L 618.569141 37.03014 
L 619.888088 37.03014 
L 619.888088 36.908136 
L 622.4092 36.908136 
L 622.4092 36.786132 
L 622.880907 36.786132 
L 622.880907 36.664128 
L 623.893015 36.664128 
L 623.893015 36.542124 
L 624.231911 36.542124 
L 624.231911 36.42012 
L 625.420337 36.42012 
L 625.420337 36.298116 
L 629.106977 36.298116 
L 629.106977 36.176112 
L 634.810964 36.176112 
L 634.810964 36.054108 
L 635.449829 36.054108 
L 635.449829 35.932104 
L 638.767804 35.932104 
L 638.767804 35.8101 
L 641.227091 35.8101 
L 641.227091 35.688096 
L 647.647797 35.688096 
L 647.647797 35.566092 
L 647.972954 35.566092 
L 647.972954 35.444088 
L 650.097924 35.444088 
L 650.097924 35.322084 
L 651.316118 35.322084 
L 651.316118 35.20008 
L 651.620666 35.20008 
L 651.620666 35.078076 
L 652.122141 35.078076 
L 652.122141 34.956072 
L 653.743346 34.956072 
L 653.743346 34.834068 
L 655.11038 34.834068 
L 655.11038 34.712064 
L 656.399559 34.712064 
L 656.399559 34.59006 
L 656.743034 34.59006 
L 656.743034 34.468056 
L 659.179422 34.468056 
L 659.179422 34.346052 
L 661.247146 34.346052 
L 661.247146 34.224048 
L 663.163741 34.224048 
L 663.163741 34.102044 
L 667.431999 34.102044 
L 667.434289 33.858036 
L 670.269109 33.858036 
L 670.269109 33.736032 
L 670.417948 33.736032 
L 670.417948 33.614028 
L 672.107849 33.614028 
L 672.107849 33.492024 
L 673.422216 33.492024 
L 673.422216 33.37002 
L 674.759482 33.37002 
L 674.759482 33.248016 
L 676.650888 33.248016 
L 676.650888 33.126012 
L 694.967304 33.126012 
L 694.967304 33.004008 
L 699.219534 33.004008 
L 699.219534 32.882004 
L 699.478286 32.882004 
L 699.478286 32.76 
L 699.478286 32.76 
" clip-path="url(#pfa54c9d953)" style="fill: none; stroke: #2d936c; stroke-width: 1.5; stroke-linecap: square"/>
   </g>
   <g id="line2d_47">
    <path d="M 549.367543 154.52 
L 549.367543 32.76 
" clip-path="url(#pfa54c9d953)" style="fill: none; stroke-dasharray: 5.55,2.4; stroke-dashoffset: 0; stroke: #ff0000; stroke-width: 1.5"/>
   </g>
   <g id="line2d_48">
    <path d="M 537.827155 154.52 
L 537.827155 32.76 
" clip-path="url(#pfa54c9d953)" style="fill: none; stroke-dasharray: 9.6,2.4,1.5,2.4; stroke-dashoffset: 0; stroke: #008000; stroke-width: 1.5"/>
   </g>
   <g id="line2d_49">
    <path d="M 610.722896 154.52 
L 610.722896 32.76 
" clip-path="url(#pfa54c9d953)" style="fill: none; stroke-dasharray: 1.5,2.475; stroke-dashoffset: 0; stroke: #0000ff; stroke-width: 1.5"/>
   </g>
   <g id="patch_16">
    <path d="M 511.2 154.52 
L 511.2 32.76 
" style="fill: none; stroke: #000000; stroke-width: 0.8; stroke-linejoin: miter; stroke-linecap: square"/>
   </g>
   <g id="patch_17">
    <path d="M 708.443918 154.52 
L 708.443918 32.76 
" style="fill: none; stroke: #000000; stroke-width: 0.8; stroke-linejoin: miter; stroke-linecap: square"/>
   </g>
   <g id="patch_18">
    <path d="M 511.2 154.52 
L 708.443918 154.52 
" style="fill: none; stroke: #000000; stroke-width: 0.8; stroke-linejoin: miter; stroke-linecap: square"/>
   </g>
   <g id="patch_19">
    <path d="M 511.2 32.76 
L 708.443918 32.76 
" style="fill: none; stroke: #000000; stroke-width: 0.8; stroke-linejoin: miter; stroke-linecap: square"/>
   </g>
   <g id="text_14">
    <g id="patch_20">
     <path d="M 655.132939 150.21525 
L 693.372939 150.21525 
L 693.372939 134.47275 
L 655.132939 134.47275 
z
" style="fill: #ffffff; opacity: 0.2; stroke: #000000; stroke-linejoin: miter"/>
    </g>
    <!-- $n = 100$ -->
    <g transform="translate(659.132939 144.5515) scale(0.08 -0.08)">
     <use xlink:href="#DejaVuSans-Oblique-6e" transform="translate(0 0.78125)"/>
     <use xlink:href="#DejaVuSans-3d" transform="translate(82.861328 0.78125)"/>
     <use xlink:href="#DejaVuSans-31" transform="translate(186.132812 0.78125)"/>
     <use xlink:href="#DejaVuSans-30" transform="translate(249.755859 0.78125)"/>
     <use xlink:href="#DejaVuSans-30" transform="translate(313.378906 0.78125)"/>
    </g>
   </g>
  </g>
  <g id="axes_4">
   <g id="patch_21">
    <path d="M 86.6 297.16 
L 283.843918 297.16 
L 283.843918 175.4 
L 86.6 175.4 
z
" style="fill: #ffffff"/>
   </g>
   <g id="matplotlib.axis_7">
    <g id="xtick_16">
     <g id="line2d_50">
      <g>
       <use xlink:href="#m3d522391c6" x="93.939847" y="297.16" style="stroke: #000000; stroke-width: 0.8"/>
      </g>
     </g>
     <g id="text_15">
      <!-- 0 -->
      <g transform="translate(90.758597 311.758438) scale(0.1 -0.1)">
       <use xlink:href="#DejaVuSans-30"/>
      </g>
     </g>
    </g>
    <g id="xtick_17">
     <g id="line2d_51">
      <g>
       <use xlink:href="#m3d522391c6" x="139.736612" y="297.16" style="stroke: #000000; stroke-width: 0.8"/>
      </g>
     </g>
     <g id="text_16">
      <!-- 20 -->
      <g transform="translate(133.374112 311.758438) scale(0.1 -0.1)">
       <use xlink:href="#DejaVuSans-32"/>
       <use xlink:href="#DejaVuSans-30" x="63.623047"/>
      </g>
     </g>
    </g>
    <g id="xtick_18">
     <g id="line2d_52">
      <g>
       <use xlink:href="#m3d522391c6" x="185.533377" y="297.16" style="stroke: #000000; stroke-width: 0.8"/>
      </g>
     </g>
     <g id="text_17">
      <!-- 40 -->
      <g transform="translate(179.170877 311.758438) scale(0.1 -0.1)">
       <use xlink:href="#DejaVuSans-34"/>
       <use xlink:href="#DejaVuSans-30" x="63.623047"/>
      </g>
     </g>
    </g>
    <g id="xtick_19">
     <g id="line2d_53">
      <g>
       <use xlink:href="#m3d522391c6" x="231.330142" y="297.16" style="stroke: #000000; stroke-width: 0.8"/>
      </g>
     </g>
     <g id="text_18">
      <!-- 60 -->
      <g transform="translate(224.967642 311.758438) scale(0.1 -0.1)">
       <use xlink:href="#DejaVuSans-36"/>
       <use xlink:href="#DejaVuSans-30" x="63.623047"/>
      </g>
     </g>
    </g>
    <g id="xtick_20">
     <g id="line2d_54">
      <g>
       <use xlink:href="#m3d522391c6" x="277.126907" y="297.16" style="stroke: #000000; stroke-width: 0.8"/>
      </g>
     </g>
     <g id="text_19">
      <!-- 80 -->
      <g transform="translate(270.764407 311.758438) scale(0.1 -0.1)">
       <use xlink:href="#DejaVuSans-38"/>
       <use xlink:href="#DejaVuSans-30" x="63.623047"/>
      </g>
     </g>
    </g>
    <g id="text_20">
     <!-- Latency (s) -->
     <g transform="translate(151.790709 326.95625) scale(0.12 -0.12)">
      <defs>
       <path id="DejaVuSans-4c" d="M 628 4666 
L 1259 4666 
L 1259 531 
L 3531 531 
L 3531 0 
L 628 0 
L 628 4666 
z
" transform="scale(0.015625)"/>
       <path id="DejaVuSans-79" d="M 2059 -325 
Q 1816 -950 1584 -1140 
Q 1353 -1331 966 -1331 
L 506 -1331 
L 506 -850 
L 844 -850 
Q 1081 -850 1212 -737 
Q 1344 -625 1503 -206 
L 1606 56 
L 191 3500 
L 800 3500 
L 1894 763 
L 2988 3500 
L 3597 3500 
L 2059 -325 
z
" transform="scale(0.015625)"/>
       <path id="DejaVuSans-28" d="M 1984 4856 
Q 1566 4138 1362 3434 
Q 1159 2731 1159 2009 
Q 1159 1288 1364 580 
Q 1569 -128 1984 -844 
L 1484 -844 
Q 1016 -109 783 600 
Q 550 1309 550 2009 
Q 550 2706 781 3412 
Q 1013 4119 1484 4856 
L 1984 4856 
z
" transform="scale(0.015625)"/>
       <path id="DejaVuSans-73" d="M 2834 3397 
L 2834 2853 
Q 2591 2978 2328 3040 
Q 2066 3103 1784 3103 
Q 1356 3103 1142 2972 
Q 928 2841 928 2578 
Q 928 2378 1081 2264 
Q 1234 2150 1697 2047 
L 1894 2003 
Q 2506 1872 2764 1633 
Q 3022 1394 3022 966 
Q 3022 478 2636 193 
Q 2250 -91 1575 -91 
Q 1294 -91 989 -36 
Q 684 19 347 128 
L 347 722 
Q 666 556 975 473 
Q 1284 391 1588 391 
Q 1994 391 2212 530 
Q 2431 669 2431 922 
Q 2431 1156 2273 1281 
Q 2116 1406 1581 1522 
L 1381 1569 
Q 847 1681 609 1914 
Q 372 2147 372 2553 
Q 372 3047 722 3315 
Q 1072 3584 1716 3584 
Q 2034 3584 2315 3537 
Q 2597 3491 2834 3397 
z
" transform="scale(0.015625)"/>
       <path id="DejaVuSans-29" d="M 513 4856 
L 1013 4856 
Q 1481 4119 1714 3412 
Q 1947 2706 1947 2009 
Q 1947 1309 1714 600 
Q 1481 -109 1013 -844 
L 513 -844 
Q 928 -128 1133 580 
Q 1338 1288 1338 2009 
Q 1338 2731 1133 3434 
Q 928 4138 513 4856 
z
" transform="scale(0.015625)"/>
      </defs>
      <use xlink:href="#DejaVuSans-4c"/>
      <use xlink:href="#DejaVuSans-61" x="55.712891"/>
      <use xlink:href="#DejaVuSans-74" x="116.992188"/>
      <use xlink:href="#DejaVuSans-65" x="156.201172"/>
      <use xlink:href="#DejaVuSans-6e" x="217.724609"/>
      <use xlink:href="#DejaVuSans-63" x="281.103516"/>
      <use xlink:href="#DejaVuSans-79" x="336.083984"/>
      <use xlink:href="#DejaVuSans-20" x="395.263672"/>
      <use xlink:href="#DejaVuSans-28" x="427.050781"/>
      <use xlink:href="#DejaVuSans-73" x="466.064453"/>
      <use xlink:href="#DejaVuSans-29" x="518.164062"/>
     </g>
    </g>
   </g>
   <g id="matplotlib.axis_8">
    <g id="ytick_19">
     <g id="line2d_55">
      <g>
       <use xlink:href="#mcd4e5430e3" x="86.6" y="297.16" style="stroke: #000000; stroke-width: 0.8"/>
      </g>
     </g>
     <g id="text_21">
      <!-- 0.0 -->
      <g transform="translate(63.696875 300.959219) scale(0.1 -0.1)">
       <use xlink:href="#DejaVuSans-30"/>
       <use xlink:href="#DejaVuSans-2e" x="63.623047"/>
       <use xlink:href="#DejaVuSans-30" x="95.410156"/>
      </g>
     </g>
    </g>
    <g id="ytick_20">
     <g id="line2d_56">
      <g>
       <use xlink:href="#mcd4e5430e3" x="86.6" y="272.808" style="stroke: #000000; stroke-width: 0.8"/>
      </g>
     </g>
     <g id="text_22">
      <!-- 0.2 -->
      <g transform="translate(63.696875 276.607219) scale(0.1 -0.1)">
       <use xlink:href="#DejaVuSans-30"/>
       <use xlink:href="#DejaVuSans-2e" x="63.623047"/>
       <use xlink:href="#DejaVuSans-32" x="95.410156"/>
      </g>
     </g>
    </g>
    <g id="ytick_21">
     <g id="line2d_57">
      <g>
       <use xlink:href="#mcd4e5430e3" x="86.6" y="248.456" style="stroke: #000000; stroke-width: 0.8"/>
      </g>
     </g>
     <g id="text_23">
      <!-- 0.4 -->
      <g transform="translate(63.696875 252.255219) scale(0.1 -0.1)">
       <use xlink:href="#DejaVuSans-30"/>
       <use xlink:href="#DejaVuSans-2e" x="63.623047"/>
       <use xlink:href="#DejaVuSans-34" x="95.410156"/>
      </g>
     </g>
    </g>
    <g id="ytick_22">
     <g id="line2d_58">
      <g>
       <use xlink:href="#mcd4e5430e3" x="86.6" y="224.104" style="stroke: #000000; stroke-width: 0.8"/>
      </g>
     </g>
     <g id="text_24">
      <!-- 0.6 -->
      <g transform="translate(63.696875 227.903219) scale(0.1 -0.1)">
       <use xlink:href="#DejaVuSans-30"/>
       <use xlink:href="#DejaVuSans-2e" x="63.623047"/>
       <use xlink:href="#DejaVuSans-36" x="95.410156"/>
      </g>
     </g>
    </g>
    <g id="ytick_23">
     <g id="line2d_59">
      <g>
       <use xlink:href="#mcd4e5430e3" x="86.6" y="199.752" style="stroke: #000000; stroke-width: 0.8"/>
      </g>
     </g>
     <g id="text_25">
      <!-- 0.8 -->
      <g transform="translate(63.696875 203.551219) scale(0.1 -0.1)">
       <use xlink:href="#DejaVuSans-30"/>
       <use xlink:href="#DejaVuSans-2e" x="63.623047"/>
       <use xlink:href="#DejaVuSans-38" x="95.410156"/>
      </g>
     </g>
    </g>
    <g id="ytick_24">
     <g id="line2d_60">
      <g>
       <use xlink:href="#mcd4e5430e3" x="86.6" y="175.4" style="stroke: #000000; stroke-width: 0.8"/>
      </g>
     </g>
     <g id="text_26">
      <!-- 1.0 -->
      <g transform="translate(63.696875 179.199219) scale(0.1 -0.1)">
       <use xlink:href="#DejaVuSans-31"/>
       <use xlink:href="#DejaVuSans-2e" x="63.623047"/>
       <use xlink:href="#DejaVuSans-30" x="95.410156"/>
      </g>
     </g>
    </g>
    <g id="text_27">
     <!-- CDF -->
     <g transform="translate(57.20125 248.540625) rotate(-90) scale(0.12 -0.12)">
      <use xlink:href="#DejaVuSans-43"/>
      <use xlink:href="#DejaVuSans-44" x="69.824219"/>
      <use xlink:href="#DejaVuSans-46" x="146.826172"/>
     </g>
    </g>
   </g>
   <g id="line2d_61">
    <path d="M 110.195409 297.16 
L 110.195409 291.072 
L 110.369437 291.072 
L 110.369437 284.984 
L 112.480668 284.984 
L 112.480668 278.896 
L 119.173865 278.896 
L 119.173865 272.808 
L 119.418878 272.808 
L 119.418878 266.72 
L 119.725716 266.72 
L 119.725716 260.632 
L 119.744035 260.632 
L 119.744035 254.544 
L 119.876845 254.544 
L 119.876845 248.456 
L 119.959279 248.456 
L 119.959279 242.368 
L 120.204292 242.368 
L 120.204292 236.28 
L 120.252379 236.28 
L 120.252379 230.192 
L 120.403508 230.192 
L 120.403508 224.104 
L 120.572956 224.104 
L 120.572956 218.016 
L 121.802599 218.016 
L 121.802599 211.928 
L 128.940025 211.928 
L 128.940025 205.84 
L 130.920735 205.84 
L 130.920735 199.752 
L 131.211545 199.752 
L 131.211545 193.664 
L 139.017603 193.664 
L 139.017603 187.576 
L 174.356677 187.576 
L 174.356677 181.488 
L 174.947455 181.488 
L 174.947455 175.4 
" clip-path="url(#p1d9b09f4bf)" style="fill: none; stroke: #bfae48; stroke-width: 1.5; stroke-linecap: square"/>
   </g>
   <g id="line2d_62">
    <path d="M 126.678695 297.16 
L 126.678695 175.4 
" clip-path="url(#p1d9b09f4bf)" style="fill: none; stroke-dasharray: 5.55,2.4; stroke-dashoffset: 0; stroke: #ff0000; stroke-width: 1.5"/>
   </g>
   <g id="line2d_63">
    <path d="M 120.228335 297.16 
L 120.228335 175.4 
" clip-path="url(#p1d9b09f4bf)" style="fill: none; stroke-dasharray: 9.6,2.4,1.5,2.4; stroke-dashoffset: 0; stroke: #008000; stroke-width: 1.5"/>
   </g>
   <g id="line2d_64">
    <path d="M 174.386216 297.16 
L 174.386216 175.4 
" clip-path="url(#p1d9b09f4bf)" style="fill: none; stroke-dasharray: 1.5,2.475; stroke-dashoffset: 0; stroke: #0000ff; stroke-width: 1.5"/>
   </g>
   <g id="patch_22">
    <path d="M 86.6 297.16 
L 86.6 175.4 
" style="fill: none; stroke: #000000; stroke-width: 0.8; stroke-linejoin: miter; stroke-linecap: square"/>
   </g>
   <g id="patch_23">
    <path d="M 283.843918 297.16 
L 283.843918 175.4 
" style="fill: none; stroke: #000000; stroke-width: 0.8; stroke-linejoin: miter; stroke-linecap: square"/>
   </g>
   <g id="patch_24">
    <path d="M 86.6 297.16 
L 283.843918 297.16 
" style="fill: none; stroke: #000000; stroke-width: 0.8; stroke-linejoin: miter; stroke-linecap: square"/>
   </g>
   <g id="patch_25">
    <path d="M 86.6 175.4 
L 283.843918 175.4 
" style="fill: none; stroke: #000000; stroke-width: 0.8; stroke-linejoin: miter; stroke-linecap: square"/>
   </g>
   <g id="text_28">
    <g id="patch_26">
     <path d="M 230.532939 292.85525 
L 258.532939 292.85525 
L 258.532939 277.11275 
L 230.532939 277.11275 
z
" style="fill: #ffffff; opacity: 0.2; stroke: #000000; stroke-linejoin: miter"/>
    </g>
    <!-- $n = 4$ -->
    <g transform="translate(234.532939 287.1915) scale(0.08 -0.08)">
     <use xlink:href="#DejaVuSans-Oblique-6e" transform="translate(0 0.09375)"/>
     <use xlink:href="#DejaVuSans-3d" transform="translate(82.861328 0.09375)"/>
     <use xlink:href="#DejaVuSans-34" transform="translate(186.132812 0.09375)"/>
    </g>
   </g>
   <g id="legend_2">
    <g id="patch_27">
     <path d="M 199.616418 193.5425 
L 278.243918 193.5425 
Q 279.843918 193.5425 279.843918 191.9425 
L 279.843918 181 
Q 279.843918 179.4 278.243918 179.4 
L 199.616418 179.4 
Q 198.016418 179.4 198.016418 181 
L 198.016418 191.9425 
Q 198.016418 193.5425 199.616418 193.5425 
z
" style="fill: #ffffff; opacity: 0.8; stroke: #cccccc; stroke-linejoin: miter"/>
    </g>
    <g id="line2d_65">
     <path d="M 201.216418 185.87875 
L 209.216418 185.87875 
L 217.216418 185.87875 
" style="fill: none; stroke: #bfae48; stroke-width: 2; stroke-linecap: square"/>
    </g>
    <g id="text_29">
     <!-- getBillDetails -->
     <g transform="translate(223.616418 188.67875) scale(0.08 -0.08)">
      <defs>
       <path id="DejaVuSans-67" d="M 2906 1791 
Q 2906 2416 2648 2759 
Q 2391 3103 1925 3103 
Q 1463 3103 1205 2759 
Q 947 2416 947 1791 
Q 947 1169 1205 825 
Q 1463 481 1925 481 
Q 2391 481 2648 825 
Q 2906 1169 2906 1791 
z
M 3481 434 
Q 3481 -459 3084 -895 
Q 2688 -1331 1869 -1331 
Q 1566 -1331 1297 -1286 
Q 1028 -1241 775 -1147 
L 775 -588 
Q 1028 -725 1275 -790 
Q 1522 -856 1778 -856 
Q 2344 -856 2625 -561 
Q 2906 -266 2906 331 
L 2906 616 
Q 2728 306 2450 153 
Q 2172 0 1784 0 
Q 1141 0 747 490 
Q 353 981 353 1791 
Q 353 2603 747 3093 
Q 1141 3584 1784 3584 
Q 2172 3584 2450 3431 
Q 2728 3278 2906 2969 
L 2906 3500 
L 3481 3500 
L 3481 434 
z
" transform="scale(0.015625)"/>
      </defs>
      <use xlink:href="#DejaVuSans-67"/>
      <use xlink:href="#DejaVuSans-65" x="63.476562"/>
      <use xlink:href="#DejaVuSans-74" x="125"/>
      <use xlink:href="#DejaVuSans-42" x="164.208984"/>
      <use xlink:href="#DejaVuSans-69" x="232.8125"/>
      <use xlink:href="#DejaVuSans-6c" x="260.595703"/>
      <use xlink:href="#DejaVuSans-6c" x="288.378906"/>
      <use xlink:href="#DejaVuSans-44" x="316.162109"/>
      <use xlink:href="#DejaVuSans-65" x="393.164062"/>
      <use xlink:href="#DejaVuSans-74" x="454.6875"/>
      <use xlink:href="#DejaVuSans-61" x="493.896484"/>
      <use xlink:href="#DejaVuSans-69" x="555.175781"/>
      <use xlink:href="#DejaVuSans-6c" x="582.958984"/>
      <use xlink:href="#DejaVuSans-73" x="610.742188"/>
     </g>
    </g>
   </g>
  </g>
  <g id="axes_5">
   <g id="patch_28">
    <path d="M 298.9 297.16 
L 496.143918 297.16 
L 496.143918 175.4 
L 298.9 175.4 
z
" style="fill: #ffffff"/>
   </g>
   <g id="matplotlib.axis_9">
    <g id="xtick_21">
     <g id="line2d_66">
      <g>
       <use xlink:href="#m3d522391c6" x="306.239847" y="297.16" style="stroke: #000000; stroke-width: 0.8"/>
      </g>
     </g>
     <g id="text_30">
      <!-- 0 -->
      <g transform="translate(303.058597 311.758438) scale(0.1 -0.1)">
       <use xlink:href="#DejaVuSans-30"/>
      </g>
     </g>
    </g>
    <g id="xtick_22">
     <g id="line2d_67">
      <g>
       <use xlink:href="#m3d522391c6" x="352.036612" y="297.16" style="stroke: #000000; stroke-width: 0.8"/>
      </g>
     </g>
     <g id="text_31">
      <!-- 20 -->
      <g transform="translate(345.674112 311.758438) scale(0.1 -0.1)">
       <use xlink:href="#DejaVuSans-32"/>
       <use xlink:href="#DejaVuSans-30" x="63.623047"/>
      </g>
     </g>
    </g>
    <g id="xtick_23">
     <g id="line2d_68">
      <g>
       <use xlink:href="#m3d522391c6" x="397.833377" y="297.16" style="stroke: #000000; stroke-width: 0.8"/>
      </g>
     </g>
     <g id="text_32">
      <!-- 40 -->
      <g transform="translate(391.470877 311.758438) scale(0.1 -0.1)">
       <use xlink:href="#DejaVuSans-34"/>
       <use xlink:href="#DejaVuSans-30" x="63.623047"/>
      </g>
     </g>
    </g>
    <g id="xtick_24">
     <g id="line2d_69">
      <g>
       <use xlink:href="#m3d522391c6" x="443.630142" y="297.16" style="stroke: #000000; stroke-width: 0.8"/>
      </g>
     </g>
     <g id="text_33">
      <!-- 60 -->
      <g transform="translate(437.267642 311.758438) scale(0.1 -0.1)">
       <use xlink:href="#DejaVuSans-36"/>
       <use xlink:href="#DejaVuSans-30" x="63.623047"/>
      </g>
     </g>
    </g>
    <g id="xtick_25">
     <g id="line2d_70">
      <g>
       <use xlink:href="#m3d522391c6" x="489.426907" y="297.16" style="stroke: #000000; stroke-width: 0.8"/>
      </g>
     </g>
     <g id="text_34">
      <!-- 80 -->
      <g transform="translate(483.064407 311.758438) scale(0.1 -0.1)">
       <use xlink:href="#DejaVuSans-38"/>
       <use xlink:href="#DejaVuSans-30" x="63.623047"/>
      </g>
     </g>
    </g>
    <g id="text_35">
     <!-- Latency (s) -->
     <g transform="translate(364.090709 326.95625) scale(0.12 -0.12)">
      <use xlink:href="#DejaVuSans-4c"/>
      <use xlink:href="#DejaVuSans-61" x="55.712891"/>
      <use xlink:href="#DejaVuSans-74" x="116.992188"/>
      <use xlink:href="#DejaVuSans-65" x="156.201172"/>
      <use xlink:href="#DejaVuSans-6e" x="217.724609"/>
      <use xlink:href="#DejaVuSans-63" x="281.103516"/>
      <use xlink:href="#DejaVuSans-79" x="336.083984"/>
      <use xlink:href="#DejaVuSans-20" x="395.263672"/>
      <use xlink:href="#DejaVuSans-28" x="427.050781"/>
      <use xlink:href="#DejaVuSans-73" x="466.064453"/>
      <use xlink:href="#DejaVuSans-29" x="518.164062"/>
     </g>
    </g>
   </g>
   <g id="matplotlib.axis_10">
    <g id="ytick_25">
     <g id="line2d_71">
      <g>
       <use xlink:href="#mcd4e5430e3" x="298.9" y="297.16" style="stroke: #000000; stroke-width: 0.8"/>
      </g>
     </g>
    </g>
    <g id="ytick_26">
     <g id="line2d_72">
      <g>
       <use xlink:href="#mcd4e5430e3" x="298.9" y="272.808" style="stroke: #000000; stroke-width: 0.8"/>
      </g>
     </g>
    </g>
    <g id="ytick_27">
     <g id="line2d_73">
      <g>
       <use xlink:href="#mcd4e5430e3" x="298.9" y="248.456" style="stroke: #000000; stroke-width: 0.8"/>
      </g>
     </g>
    </g>
    <g id="ytick_28">
     <g id="line2d_74">
      <g>
       <use xlink:href="#mcd4e5430e3" x="298.9" y="224.104" style="stroke: #000000; stroke-width: 0.8"/>
      </g>
     </g>
    </g>
    <g id="ytick_29">
     <g id="line2d_75">
      <g>
       <use xlink:href="#mcd4e5430e3" x="298.9" y="199.752" style="stroke: #000000; stroke-width: 0.8"/>
      </g>
     </g>
    </g>
    <g id="ytick_30">
     <g id="line2d_76">
      <g>
       <use xlink:href="#mcd4e5430e3" x="298.9" y="175.4" style="stroke: #000000; stroke-width: 0.8"/>
      </g>
     </g>
    </g>
   </g>
   <g id="line2d_77">
    <path d="M 316.11134 297.16 
L 316.11134 296.538776 
L 322.889261 296.538776 
L 322.889261 295.917551 
L 323.976935 295.917551 
L 323.976935 295.296327 
L 324.798986 295.296327 
L 324.815015 294.053878 
L 325.160781 294.053878 
L 325.213447 292.190204 
L 325.272983 292.190204 
L 325.272983 291.56898 
L 325.630198 291.56898 
L 325.639357 290.326531 
L 326.069847 290.326531 
L 326.179759 288.462857 
L 326.411033 288.462857 
L 326.491177 287.220408 
L 326.958304 287.220408 
L 326.958304 286.599184 
L 327.320098 286.599184 
L 327.352156 285.356735 
L 327.885688 285.356735 
L 327.984151 283.493061 
L 328.132991 283.493061 
L 328.132991 282.250612 
L 328.304729 282.250612 
L 328.355105 281.008163 
L 328.758117 281.008163 
L 328.758117 280.386939 
L 329.225244 280.386939 
L 329.225244 279.765714 
L 329.374083 279.765714 
L 329.474836 278.523265 
L 329.598487 278.523265 
L 329.692371 277.280816 
L 330.844159 277.280816 
L 330.844159 276.659592 
L 331.109781 276.659592 
L 331.109781 276.038367 
L 331.274649 276.038367 
L 331.384561 274.795918 
L 331.487604 274.795918 
L 331.487604 274.174694 
L 332.002818 274.174694 
L 332.002818 273.553469 
L 332.190584 273.553469 
L 332.190584 272.932245 
L 332.419568 272.932245 
L 332.419568 272.31102 
L 332.543219 272.31102 
L 332.543219 271.689796 
L 332.67374 271.689796 
L 332.68061 270.447347 
L 333.459155 270.447347 
L 333.459155 269.826122 
L 333.994977 269.826122 
L 333.994977 269.204898 
L 334.432336 269.204898 
L 334.432336 268.583673 
L 334.849086 268.583673 
L 334.849086 267.962449 
L 335.36888 267.962449 
L 335.36888 267.341224 
L 335.673428 267.341224 
L 335.673428 266.72 
L 335.78563 266.72 
L 335.881804 264.856327 
L 336.019194 264.856327 
L 336.030643 263.613878 
L 336.142845 263.613878 
L 336.142845 262.992653 
L 336.280235 262.992653 
L 336.376409 261.750204 
L 336.479451 261.750204 
L 336.50235 260.507755 
L 336.699276 260.507755 
L 336.765681 259.265306 
L 336.941999 259.265306 
L 337.017563 258.022857 
L 337.125186 258.022857 
L 337.141215 256.780408 
L 337.255706 256.780408 
L 337.290054 255.537959 
L 337.441183 255.537959 
L 337.546516 252.431837 
L 337.649559 252.431837 
L 337.649559 251.810612 
L 337.77779 251.810612 
L 337.77779 251.189388 
L 338.043411 251.189388 
L 338.05257 249.946939 
L 338.254076 249.946939 
L 338.254076 249.325714 
L 338.455582 249.325714 
L 338.508248 248.083265 
L 338.650218 248.083265 
L 338.650218 247.462041 
L 338.776159 247.462041 
L 338.776159 246.840816 
L 338.922709 246.840816 
L 338.922709 246.219592 
L 339.101316 246.219592 
L 339.101316 245.598367 
L 339.259315 245.598367 
L 339.259315 244.977143 
L 339.426473 244.977143 
L 339.426473 244.355918 
L 339.728732 244.355918 
L 339.75621 243.113469 
L 339.994353 243.113469 
L 339.994353 242.492245 
L 340.108845 242.492245 
L 340.166091 241.249796 
L 340.376756 241.249796 
L 340.46835 239.386122 
L 340.502697 239.386122 
L 340.59658 238.143673 
L 340.695043 238.143673 
L 340.736261 236.901224 
L 340.820985 236.901224 
L 340.88739 235.658776 
L 341.059128 235.658776 
L 341.111794 234.416327 
L 341.267503 234.416327 
L 341.267503 233.795102 
L 341.381995 233.795102 
L 341.491907 232.552653 
L 341.720891 232.552653 
L 341.720891 231.931429 
L 341.839963 231.931429 
L 341.899498 230.68898 
L 342.368915 230.68898 
L 342.368915 230.067755 
L 342.602479 230.067755 
L 342.602479 229.446531 
L 342.776506 229.446531 
L 342.803985 228.204082 
L 343.57795 228.204082 
L 343.57795 227.582857 
L 344.070265 227.582857 
L 344.161859 225.719184 
L 344.189337 225.719184 
L 344.189337 225.097959 
L 344.358785 225.097959 
L 344.448088 223.234286 
L 344.525943 223.234286 
L 344.635855 221.991837 
L 344.748057 221.991837 
L 344.780115 220.749388 
L 344.926665 220.749388 
L 344.99536 219.506939 
L 345.180837 219.506939 
L 345.185416 218.26449 
L 345.549501 218.26449 
L 345.549501 217.643265 
L 345.810542 217.643265 
L 345.84718 216.400816 
L 345.934193 216.400816 
L 345.934193 215.779592 
L 346.046395 215.779592 
L 346.11738 213.915918 
L 346.2708 213.915918 
L 346.325756 212.673469 
L 346.419639 212.673469 
L 346.419639 212.052245 
L 346.666942 212.052245 
L 346.666942 211.43102 
L 347.202764 211.43102 
L 347.248561 210.188571 
L 347.438617 210.188571 
L 347.495863 208.946122 
L 347.800412 208.946122 
L 347.800412 208.324898 
L 347.940092 208.324898 
L 347.940092 207.703673 
L 348.061453 207.703673 
L 348.061453 207.082449 
L 348.230901 207.082449 
L 348.233191 205.84 
L 348.423248 205.84 
L 348.480494 203.355102 
L 348.604145 203.355102 
L 348.684289 202.112653 
L 348.762144 202.112653 
L 348.762144 201.491429 
L 349.336893 201.491429 
L 349.336893 200.870204 
L 349.476573 200.870204 
L 349.476573 200.24898 
L 349.634572 200.24898 
L 349.634572 199.627755 
L 349.9437 199.627755 
L 349.9437 199.006531 
L 350.108568 199.006531 
L 350.202452 197.764082 
L 350.284886 197.764082 
L 350.284886 197.142857 
L 350.626072 197.142857 
L 350.626072 196.521633 
L 350.928331 196.521633 
L 350.928331 195.900408 
L 351.097779 195.900408 
L 351.097779 195.279184 
L 351.209981 195.279184 
L 351.209981 194.657959 
L 351.965627 194.657959 
L 351.965627 194.036735 
L 352.517478 194.036735 
L 352.517478 193.41551 
L 353.559355 193.41551 
L 353.559355 192.794286 
L 353.898251 192.794286 
L 353.898251 192.173061 
L 354.074568 192.173061 
L 354.074568 191.551837 
L 354.388276 191.551837 
L 354.388276 190.930612 
L 355.093546 190.930612 
L 355.093546 190.309388 
L 355.269864 190.309388 
L 355.33169 189.066939 
L 356.103365 189.066939 
L 356.103365 188.445714 
L 356.45142 188.445714 
L 356.515536 187.203265 
L 357.289501 187.203265 
L 357.289501 186.582041 
L 357.887149 186.582041 
L 357.887149 185.960816 
L 358.988561 185.960816 
L 358.988561 185.339592 
L 359.400732 185.339592 
L 359.400732 184.718367 
L 359.938844 184.718367 
L 359.938844 184.097143 
L 364.66507 184.097143 
L 364.66507 183.475918 
L 365.52376 183.475918 
L 365.52376 182.854694 
L 367.772381 182.854694 
L 367.772381 182.233469 
L 368.108987 182.233469 
L 368.179972 180.369796 
L 372.136812 180.369796 
L 372.136812 179.748571 
L 372.8833 179.748571 
L 372.8833 179.127347 
L 377.144689 179.127347 
L 377.220253 177.884898 
L 377.440078 177.884898 
L 377.440078 177.263673 
L 378.955951 177.263673 
L 378.955951 176.642449 
L 380.341303 176.642449 
L 380.341303 176.021224 
L 404.43956 176.021224 
L 404.43956 175.4 
L 404.43956 175.4 
" clip-path="url(#p44cd889347)" style="fill: none; stroke: #bfae48; stroke-width: 1.5; stroke-linecap: square"/>
   </g>
   <g id="line2d_78">
    <path d="M 342.631791 297.16 
L 342.631791 175.4 
" clip-path="url(#p44cd889347)" style="fill: none; stroke-dasharray: 5.55,2.4; stroke-dashoffset: 0; stroke: #ff0000; stroke-width: 1.5"/>
   </g>
   <g id="line2d_79">
    <path d="M 340.854187 297.16 
L 340.854187 175.4 
" clip-path="url(#p44cd889347)" style="fill: none; stroke-dasharray: 9.6,2.4,1.5,2.4; stroke-dashoffset: 0; stroke: #008000; stroke-width: 1.5"/>
   </g>
   <g id="line2d_80">
    <path d="M 368.122726 297.16 
L 368.122726 175.4 
" clip-path="url(#p44cd889347)" style="fill: none; stroke-dasharray: 1.5,2.475; stroke-dashoffset: 0; stroke: #0000ff; stroke-width: 1.5"/>
   </g>
   <g id="patch_29">
    <path d="M 298.9 297.16 
L 298.9 175.4 
" style="fill: none; stroke: #000000; stroke-width: 0.8; stroke-linejoin: miter; stroke-linecap: square"/>
   </g>
   <g id="patch_30">
    <path d="M 496.143918 297.16 
L 496.143918 175.4 
" style="fill: none; stroke: #000000; stroke-width: 0.8; stroke-linejoin: miter; stroke-linecap: square"/>
   </g>
   <g id="patch_31">
    <path d="M 298.9 297.16 
L 496.143918 297.16 
" style="fill: none; stroke: #000000; stroke-width: 0.8; stroke-linejoin: miter; stroke-linecap: square"/>
   </g>
   <g id="patch_32">
    <path d="M 298.9 175.4 
L 496.143918 175.4 
" style="fill: none; stroke: #000000; stroke-width: 0.8; stroke-linejoin: miter; stroke-linecap: square"/>
   </g>
   <g id="text_36">
    <g id="patch_33">
     <path d="M 442.832939 292.85525 
L 475.952939 292.85525 
L 475.952939 277.11275 
L 442.832939 277.11275 
z
" style="fill: #ffffff; opacity: 0.2; stroke: #000000; stroke-linejoin: miter"/>
    </g>
    <!-- $n = 42$ -->
    <g transform="translate(446.832939 287.1915) scale(0.08 -0.08)">
     <use xlink:href="#DejaVuSans-Oblique-6e" transform="translate(0 0.78125)"/>
     <use xlink:href="#DejaVuSans-3d" transform="translate(82.861328 0.78125)"/>
     <use xlink:href="#DejaVuSans-34" transform="translate(186.132812 0.78125)"/>
     <use xlink:href="#DejaVuSans-32" transform="translate(249.755859 0.78125)"/>
    </g>
   </g>
  </g>
  <g id="axes_6">
   <g id="patch_34">
    <path d="M 511.2 297.16 
L 708.443918 297.16 
L 708.443918 175.4 
L 511.2 175.4 
z
" style="fill: #ffffff"/>
   </g>
   <g id="matplotlib.axis_11">
    <g id="xtick_26">
     <g id="line2d_81">
      <g>
       <use xlink:href="#m3d522391c6" x="518.539847" y="297.16" style="stroke: #000000; stroke-width: 0.8"/>
      </g>
     </g>
     <g id="text_37">
      <!-- 0 -->
      <g transform="translate(515.358597 311.758438) scale(0.1 -0.1)">
       <use xlink:href="#DejaVuSans-30"/>
      </g>
     </g>
    </g>
    <g id="xtick_27">
     <g id="line2d_82">
      <g>
       <use xlink:href="#m3d522391c6" x="564.336612" y="297.16" style="stroke: #000000; stroke-width: 0.8"/>
      </g>
     </g>
     <g id="text_38">
      <!-- 20 -->
      <g transform="translate(557.974112 311.758438) scale(0.1 -0.1)">
       <use xlink:href="#DejaVuSans-32"/>
       <use xlink:href="#DejaVuSans-30" x="63.623047"/>
      </g>
     </g>
    </g>
    <g id="xtick_28">
     <g id="line2d_83">
      <g>
       <use xlink:href="#m3d522391c6" x="610.133377" y="297.16" style="stroke: #000000; stroke-width: 0.8"/>
      </g>
     </g>
     <g id="text_39">
      <!-- 40 -->
      <g transform="translate(603.770877 311.758438) scale(0.1 -0.1)">
       <use xlink:href="#DejaVuSans-34"/>
       <use xlink:href="#DejaVuSans-30" x="63.623047"/>
      </g>
     </g>
    </g>
    <g id="xtick_29">
     <g id="line2d_84">
      <g>
       <use xlink:href="#m3d522391c6" x="655.930142" y="297.16" style="stroke: #000000; stroke-width: 0.8"/>
      </g>
     </g>
     <g id="text_40">
      <!-- 60 -->
      <g transform="translate(649.567642 311.758438) scale(0.1 -0.1)">
       <use xlink:href="#DejaVuSans-36"/>
       <use xlink:href="#DejaVuSans-30" x="63.623047"/>
      </g>
     </g>
    </g>
    <g id="xtick_30">
     <g id="line2d_85">
      <g>
       <use xlink:href="#m3d522391c6" x="701.726907" y="297.16" style="stroke: #000000; stroke-width: 0.8"/>
      </g>
     </g>
     <g id="text_41">
      <!-- 80 -->
      <g transform="translate(695.364407 311.758438) scale(0.1 -0.1)">
       <use xlink:href="#DejaVuSans-38"/>
       <use xlink:href="#DejaVuSans-30" x="63.623047"/>
      </g>
     </g>
    </g>
    <g id="text_42">
     <!-- Latency (s) -->
     <g transform="translate(576.390709 326.95625) scale(0.12 -0.12)">
      <use xlink:href="#DejaVuSans-4c"/>
      <use xlink:href="#DejaVuSans-61" x="55.712891"/>
      <use xlink:href="#DejaVuSans-74" x="116.992188"/>
      <use xlink:href="#DejaVuSans-65" x="156.201172"/>
      <use xlink:href="#DejaVuSans-6e" x="217.724609"/>
      <use xlink:href="#DejaVuSans-63" x="281.103516"/>
      <use xlink:href="#DejaVuSans-79" x="336.083984"/>
      <use xlink:href="#DejaVuSans-20" x="395.263672"/>
      <use xlink:href="#DejaVuSans-28" x="427.050781"/>
      <use xlink:href="#DejaVuSans-73" x="466.064453"/>
      <use xlink:href="#DejaVuSans-29" x="518.164062"/>
     </g>
    </g>
   </g>
   <g id="matplotlib.axis_12">
    <g id="ytick_31">
     <g id="line2d_86">
      <g>
       <use xlink:href="#mcd4e5430e3" x="511.2" y="297.16" style="stroke: #000000; stroke-width: 0.8"/>
      </g>
     </g>
    </g>
    <g id="ytick_32">
     <g id="line2d_87">
      <g>
       <use xlink:href="#mcd4e5430e3" x="511.2" y="272.808" style="stroke: #000000; stroke-width: 0.8"/>
      </g>
     </g>
    </g>
    <g id="ytick_33">
     <g id="line2d_88">
      <g>
       <use xlink:href="#mcd4e5430e3" x="511.2" y="248.456" style="stroke: #000000; stroke-width: 0.8"/>
      </g>
     </g>
    </g>
    <g id="ytick_34">
     <g id="line2d_89">
      <g>
       <use xlink:href="#mcd4e5430e3" x="511.2" y="224.104" style="stroke: #000000; stroke-width: 0.8"/>
      </g>
     </g>
    </g>
    <g id="ytick_35">
     <g id="line2d_90">
      <g>
       <use xlink:href="#mcd4e5430e3" x="511.2" y="199.752" style="stroke: #000000; stroke-width: 0.8"/>
      </g>
     </g>
    </g>
    <g id="ytick_36">
     <g id="line2d_91">
      <g>
       <use xlink:href="#mcd4e5430e3" x="511.2" y="175.4" style="stroke: #000000; stroke-width: 0.8"/>
      </g>
     </g>
    </g>
   </g>
   <g id="line2d_92">
    <path d="M 526.348196 297.16 
L 526.348196 296.877494 
L 534.632831 296.877494 
L 534.710685 296.312483 
L 534.78625 296.312483 
L 534.859525 294.617448 
L 534.992335 294.617448 
L 535.099958 293.76993 
L 535.109117 293.76993 
L 535.20987 292.357401 
L 535.232768 292.357401 
L 535.312913 290.944872 
L 535.34955 290.944872 
L 535.34955 290.662367 
L 535.477781 290.662367 
L 535.562505 289.814849 
L 535.63578 289.814849 
L 535.722794 289.249838 
L 535.759431 289.249838 
L 535.759431 288.967332 
L 535.885372 288.967332 
L 535.995284 286.42478 
L 536.050241 286.42478 
L 536.148704 283.882227 
L 536.258616 283.882227 
L 536.368528 282.469698 
L 536.384557 282.469698 
L 536.469281 281.057169 
L 536.505918 281.057169 
L 536.570034 279.64464 
L 536.62728 279.64464 
L 536.638729 279.079629 
L 536.746351 279.079629 
L 536.851684 278.232111 
L 536.888321 278.232111 
L 536.982205 276.819582 
L 537.030291 276.819582 
L 537.110436 275.407053 
L 537.149363 275.407053 
L 537.151653 274.842042 
L 537.266145 274.842042 
L 537.357738 273.712019 
L 537.747011 273.712019 
L 537.747011 273.429513 
L 537.987444 273.429513 
L 537.996603 272.864501 
L 538.131703 272.864501 
L 538.131703 272.581995 
L 538.372136 272.581995 
L 538.429382 272.016984 
L 538.626309 272.016984 
L 538.626309 271.734478 
L 539.104885 271.734478 
L 539.104885 271.451972 
L 539.553693 271.451972 
L 539.553693 271.169466 
L 539.901748 271.169466 
L 539.901748 270.886961 
L 540.02082 270.886961 
L 540.02082 270.604455 
L 541.030639 270.604455 
L 541.030639 270.321949 
L 543.618156 270.321949 
L 543.684561 269.191926 
L 544.103602 269.191926 
L 544.211224 268.344408 
L 544.220383 268.344408 
L 544.26847 267.779397 
L 544.531801 267.779397 
L 544.54554 266.366868 
L 544.69209 266.366868 
L 544.701249 265.801856 
L 544.854669 265.801856 
L 544.863828 265.236845 
L 544.987479 265.236845 
L 545.076783 264.389327 
L 545.104261 264.389327 
L 545.200434 262.129281 
L 545.317216 262.129281 
L 545.40423 261.281763 
L 545.470635 261.281763 
L 545.566808 260.434246 
L 545.614895 260.434246 
L 545.656112 259.869234 
L 545.747705 259.869234 
L 545.839299 258.739211 
L 545.871357 258.739211 
L 545.978979 257.326682 
L 545.999588 257.326682 
L 546.088891 255.914153 
L 546.127819 255.914153 
L 546.221702 255.066636 
L 546.25376 255.066636 
L 546.315585 253.371601 
L 546.409469 253.371601 
L 546.446106 252.524084 
L 546.521671 252.524084 
L 546.606395 250.829049 
L 546.636163 250.829049 
L 546.709438 248.569002 
L 546.757524 248.569002 
L 546.851407 246.308956 
L 546.897204 246.308956 
L 547.007116 245.178933 
L 547.025435 245.178933 
L 547.135347 244.331415 
L 547.197173 244.331415 
L 547.288767 242.918886 
L 547.339143 242.918886 
L 547.412418 241.506357 
L 547.474243 241.506357 
L 547.579576 240.941346 
L 547.648271 240.941346 
L 547.694068 240.376334 
L 547.771922 240.376334 
L 547.771922 240.093828 
L 547.94595 240.093828 
L 547.94595 239.811323 
L 548.117688 239.811323 
L 548.117688 239.528817 
L 548.255078 239.528817 
L 548.332933 238.963805 
L 548.410787 238.963805 
L 548.481772 237.833782 
L 548.642061 237.833782 
L 548.648931 236.986265 
L 548.761133 236.986265 
L 548.768002 236.421253 
L 548.962638 236.421253 
L 549.056522 235.29123 
L 549.260317 235.29123 
L 549.342751 234.726218 
L 549.461823 234.726218 
L 549.461823 234.443712 
L 549.899182 234.443712 
L 549.899182 234.161206 
L 550.258687 234.161206 
L 550.258687 233.878701 
L 550.451033 233.878701 
L 550.505989 233.313689 
L 550.657119 233.313689 
L 550.657119 233.031183 
L 550.851755 233.031183 
L 550.947928 232.466172 
L 551.557025 232.466172 
L 551.557025 232.183666 
L 552.988174 232.183666 
L 553.04084 231.618654 
L 553.109535 231.618654 
L 553.212578 230.771137 
L 553.317911 230.771137 
L 553.391186 229.358608 
L 553.443852 229.358608 
L 553.537735 228.228585 
L 553.567503 228.228585 
L 553.670546 225.968538 
L 553.681995 225.968538 
L 553.75756 225.121021 
L 553.798777 225.121021 
L 553.881211 223.990998 
L 553.933877 223.990998 
L 554.03692 223.425986 
L 554.057528 223.425986 
L 554.142252 221.730951 
L 554.18347 221.730951 
L 554.268194 219.188399 
L 554.32544 219.188399 
L 554.430772 216.928353 
L 554.45825 216.928353 
L 554.559003 215.515824 
L 554.586481 215.515824 
L 554.684944 214.103295 
L 554.705553 214.103295 
L 554.808595 211.560742 
L 554.88874 211.560742 
L 554.989493 209.865708 
L 555.02613 209.865708 
L 555.133752 209.300696 
L 555.16581 209.300696 
L 555.275722 207.605661 
L 555.436011 207.605661 
L 555.545923 206.193132 
L 555.568822 206.193132 
L 555.612329 205.628121 
L 555.692473 205.628121 
L 555.793226 204.780603 
L 555.804675 204.780603 
L 555.88253 203.65058 
L 556.049688 203.65058 
L 556.138991 202.520557 
L 556.230585 202.520557 
L 556.232875 201.955545 
L 556.347367 201.955545 
L 556.347367 201.673039 
L 556.509945 201.673039 
L 556.525974 201.108028 
L 556.640466 201.108028 
L 556.672524 200.543016 
L 556.977072 200.543016 
L 557.061796 199.695499 
L 557.089274 199.695499 
L 557.187737 199.130487 
L 557.256432 199.130487 
L 557.322838 198.565476 
L 557.480837 198.565476 
L 557.480837 198.28297 
L 557.785385 198.28297 
L 557.794544 197.717958 
L 559.472996 197.717958 
L 559.472996 197.435452 
L 559.683661 197.435452 
L 559.683661 197.152947 
L 560.244671 197.152947 
L 560.324816 196.587935 
L 560.874377 196.587935 
L 560.874377 196.305429 
L 561.884196 196.305429 
L 561.95976 195.175406 
L 562.039905 195.175406 
L 562.039905 194.8929 
L 562.367351 194.8929 
L 562.465814 194.045383 
L 562.594045 194.045383 
L 562.594045 193.762877 
L 562.713117 193.762877 
L 562.81616 192.91536 
L 562.95813 192.91536 
L 563.038274 192.350348 
L 563.070332 192.350348 
L 563.150476 190.372807 
L 563.285577 190.372807 
L 563.37488 189.242784 
L 563.471053 189.242784 
L 563.539749 188.395267 
L 563.613023 188.395267 
L 563.681719 187.830255 
L 563.729805 187.830255 
L 563.748124 186.982738 
L 563.883224 186.982738 
L 563.926731 186.13522 
L 564.004586 186.13522 
L 564.077861 185.570209 
L 564.123657 185.570209 
L 564.23357 185.005197 
L 564.435075 185.005197 
L 564.535828 184.15768 
L 564.588495 184.15768 
L 564.684668 183.310162 
L 564.702986 183.310162 
L 564.776261 182.180139 
L 564.989216 182.180139 
L 564.989216 181.897633 
L 565.186142 181.897633 
L 565.186142 181.615128 
L 565.312083 181.615128 
L 565.312083 181.332622 
L 565.596023 181.332622 
L 565.662429 180.485104 
L 565.985296 180.485104 
L 565.985296 180.202599 
L 568.126295 180.202599 
L 568.126295 179.920093 
L 569.667356 179.920093 
L 569.667356 179.637587 
L 572.094584 179.637587 
L 572.094584 179.355081 
L 572.886868 179.355081 
L 572.886868 179.072575 
L 573.170808 179.072575 
L 573.170808 178.79007 
L 573.511994 178.79007 
L 573.511994 178.507564 
L 573.653964 178.507564 
L 573.653964 178.225058 
L 574.359234 178.225058 
L 574.359234 177.942552 
L 580.408987 177.942552 
L 580.408987 177.660046 
L 580.809709 177.660046 
L 580.809709 177.377541 
L 581.205851 177.377541 
L 581.205851 177.095035 
L 581.393617 177.095035 
L 581.393617 176.812529 
L 582.20193 176.812529 
L 582.20193 176.530023 
L 582.744622 176.530023 
L 582.744622 176.247517 
L 589.515674 176.247517 
L 589.515674 175.965012 
L 590.411 175.965012 
L 590.411 175.682506 
L 591.230762 175.682506 
L 591.230762 175.4 
L 591.230762 175.4 
" clip-path="url(#p73bd90725c)" style="fill: none; stroke: #bfae48; stroke-width: 1.5; stroke-linecap: square"/>
   </g>
   <g id="line2d_93">
    <path d="M 550.371197 297.16 
L 550.371197 175.4 
" clip-path="url(#p73bd90725c)" style="fill: none; stroke-dasharray: 5.55,2.4; stroke-dashoffset: 0; stroke: #ff0000; stroke-width: 1.5"/>
   </g>
   <g id="line2d_94">
    <path d="M 548.962638 297.16 
L 548.962638 175.4 
" clip-path="url(#p73bd90725c)" style="fill: none; stroke-dasharray: 9.6,2.4,1.5,2.4; stroke-dashoffset: 0; stroke: #008000; stroke-width: 1.5"/>
   </g>
   <g id="line2d_95">
    <path d="M 565.249113 297.16 
L 565.249113 175.4 
" clip-path="url(#p73bd90725c)" style="fill: none; stroke-dasharray: 1.5,2.475; stroke-dashoffset: 0; stroke: #0000ff; stroke-width: 1.5"/>
   </g>
   <g id="patch_35">
    <path d="M 511.2 297.16 
L 511.2 175.4 
" style="fill: none; stroke: #000000; stroke-width: 0.8; stroke-linejoin: miter; stroke-linecap: square"/>
   </g>
   <g id="patch_36">
    <path d="M 708.443918 297.16 
L 708.443918 175.4 
" style="fill: none; stroke: #000000; stroke-width: 0.8; stroke-linejoin: miter; stroke-linecap: square"/>
   </g>
   <g id="patch_37">
    <path d="M 511.2 297.16 
L 708.443918 297.16 
" style="fill: none; stroke: #000000; stroke-width: 0.8; stroke-linejoin: miter; stroke-linecap: square"/>
   </g>
   <g id="patch_38">
    <path d="M 511.2 175.4 
L 708.443918 175.4 
" style="fill: none; stroke: #000000; stroke-width: 0.8; stroke-linejoin: miter; stroke-linecap: square"/>
   </g>
   <g id="text_43">
    <g id="patch_39">
     <path d="M 655.132939 292.85525 
L 693.372939 292.85525 
L 693.372939 277.11275 
L 655.132939 277.11275 
z
" style="fill: #ffffff; opacity: 0.2; stroke: #000000; stroke-linejoin: miter"/>
    </g>
    <!-- $n = 100$ -->
    <g transform="translate(659.132939 287.1915) scale(0.08 -0.08)">
     <use xlink:href="#DejaVuSans-Oblique-6e" transform="translate(0 0.78125)"/>
     <use xlink:href="#DejaVuSans-3d" transform="translate(82.861328 0.78125)"/>
     <use xlink:href="#DejaVuSans-31" transform="translate(186.132812 0.78125)"/>
     <use xlink:href="#DejaVuSans-30" transform="translate(249.755859 0.78125)"/>
     <use xlink:href="#DejaVuSans-30" transform="translate(313.378906 0.78125)"/>
    </g>
   </g>
  </g>
 </g>
 <defs>
  <clipPath id="p7cea26f333">
   <rect x="86.6" y="32.76" width="197.243918" height="121.76"/>
  </clipPath>
  <clipPath id="p336be0ba1f">
   <rect x="298.9" y="32.76" width="197.243918" height="121.76"/>
  </clipPath>
  <clipPath id="pfa54c9d953">
   <rect x="511.2" y="32.76" width="197.243918" height="121.76"/>
  </clipPath>
  <clipPath id="p1d9b09f4bf">
   <rect x="86.6" y="175.4" width="197.243918" height="121.76"/>
  </clipPath>
  <clipPath id="p44cd889347">
   <rect x="298.9" y="175.4" width="197.243918" height="121.76"/>
  </clipPath>
  <clipPath id="p73bd90725c">
   <rect x="511.2" y="175.4" width="197.243918" height="121.76"/>
  </clipPath>
 </defs>
</svg>
