<?xml version="1.0" encoding="utf-8" standalone="no"?>
<!DOCTYPE svg PUBLIC "-//W3C//DTD SVG 1.1//EN"
  "http://www.w3.org/Graphics/SVG/1.1/DTD/svg11.dtd">
<svg xmlns:xlink="http://www.w3.org/1999/xlink" width="648pt" height="216pt" viewBox="0 0 648 216" xmlns="http://www.w3.org/2000/svg" version="1.1">
 <metadata>
  <rdf:RDF xmlns:dc="http://purl.org/dc/elements/1.1/" xmlns:cc="http://creativecommons.org/ns#" xmlns:rdf="http://www.w3.org/1999/02/22-rdf-syntax-ns#">
   <cc:Work>
    <dc:type rdf:resource="http://purl.org/dc/dcmitype/StillImage"/>
    <dc:date>2024-07-23T15:02:05.519036</dc:date>
    <dc:format>image/svg+xml</dc:format>
    <dc:creator>
     <cc:Agent>
      <dc:title>Matplotlib v3.7.2, https://matplotlib.org/</dc:title>
     </cc:Agent>
    </dc:creator>
   </cc:Work>
  </rdf:RDF>
 </metadata>
 <defs>
  <style type="text/css">*{stroke-linejoin: round; stroke-linecap: butt}</style>
 </defs>
 <g id="figure_1">
  <g id="patch_1">
   <path d="M 0 216 
L 648 216 
L 648 0 
L 0 0 
z
" style="fill: #ffffff"/>
  </g>
  <g id="axes_1">
   <g id="patch_2">
    <path d="M 44.57 201.7 
L 232.064842 201.7 
L 232.064842 10.8 
L 44.57 10.8 
z
" style="fill: #ffffff"/>
   </g>
   <g id="PolyCollection_1">
    <defs>
     <path id="m5ba1e20032" d="M 92.999602 -24.111124 
L 89.887819 -24.111124 
L 87.708669 -24.130334 
L 84.101128 -24.149544 
L 79.519091 -24.168754 
L 75.197467 -24.187964 
L 72.372247 -24.207174 
L 71.324467 -24.226384 
L 71.363793 -24.245595 
L 71.75994 -24.264805 
L 72.391423 -24.284015 
L 73.375208 -24.303225 
L 74.382226 -24.322435 
L 74.63584 -24.341645 
L 73.580452 -24.360855 
L 71.370566 -24.380065 
L 68.542245 -24.399275 
L 65.255516 -24.418486 
L 61.248731 -24.437696 
L 56.886148 -24.456906 
L 53.944742 -24.476116 
L 54.588376 -24.495326 
L 59.252375 -24.514536 
L 65.887416 -24.533746 
L 71.425023 -24.552956 
L 73.789977 -24.572167 
L 72.860564 -24.591377 
L 70.322387 -24.610587 
L 68.735581 -24.629797 
L 70.028614 -24.649007 
L 74.278565 -24.668217 
L 79.824389 -24.687427 
L 84.563476 -24.706637 
L 87.171816 -24.725848 
L 87.386063 -24.745058 
L 85.586912 -24.764268 
L 82.287677 -24.783478 
L 77.850219 -24.802688 
L 72.598495 -24.821898 
L 67.256697 -24.841108 
L 63.065091 -24.860318 
L 61.049334 -24.879528 
L 61.109758 -24.898739 
L 62.133992 -24.917949 
L 63.148113 -24.937159 
L 64.209842 -24.956369 
L 66.096729 -24.975579 
L 69.2948 -24.994789 
L 73.486461 -25.013999 
L 77.928312 -25.033209 
L 82.000371 -25.05242 
L 85.271591 -25.07163 
L 87.287808 -25.09084 
L 87.54588 -25.11005 
L 85.707913 -25.12926 
L 81.892317 -25.14847 
L 76.886058 -25.16768 
L 72.031122 -25.18689 
L 68.647822 -25.206101 
L 67.371229 -25.225311 
L 68.051664 -25.244521 
L 70.27607 -25.263731 
L 73.755636 -25.282941 
L 78.070424 -25.302151 
L 82.305552 -25.321361 
L 85.322327 -25.340571 
L 86.503536 -25.359781 
L 86.213593 -25.378992 
L 85.549197 -25.398202 
L 85.570985 -25.417412 
L 86.610038 -25.436622 
L 88.20895 -25.455832 
L 89.65539 -25.475042 
L 90.493524 -25.494252 
L 90.587288 -25.513462 
L 89.929264 -25.532673 
L 88.607009 -25.551883 
L 86.990688 -25.571093 
L 85.783588 -25.590303 
L 85.642268 -25.609513 
L 86.651049 -25.628723 
L 88.252731 -25.647933 
L 89.731431 -25.667143 
L 90.703204 -25.686354 
L 91.18561 -25.705564 
L 91.371183 -25.724774 
L 91.427063 -25.743984 
L 91.43902 -25.763194 
L 91.433337 -25.782404 
L 91.396762 -25.801614 
L 91.265257 -25.820824 
L 90.896459 -25.840035 
L 90.091127 -25.859245 
L 88.749418 -25.878455 
L 87.118285 -25.897665 
L 85.847216 -25.916875 
L 85.607829 -25.936085 
L 86.53915 -25.955295 
L 88.121731 -25.974505 
L 89.630297 -25.993715 
L 90.645899 -26.012926 
L 92.241522 -26.012926 
L 92.241522 -26.012926 
L 93.257124 -25.993715 
L 94.76569 -25.974505 
L 96.348271 -25.955295 
L 97.279592 -25.936085 
L 97.040205 -25.916875 
L 95.769136 -25.897665 
L 94.138003 -25.878455 
L 92.796294 -25.859245 
L 91.990962 -25.840035 
L 91.622164 -25.820824 
L 91.490659 -25.801614 
L 91.454084 -25.782404 
L 91.448401 -25.763194 
L 91.460358 -25.743984 
L 91.516238 -25.724774 
L 91.701812 -25.705564 
L 92.184217 -25.686354 
L 93.15599 -25.667143 
L 94.63469 -25.647933 
L 96.236372 -25.628723 
L 97.245153 -25.609513 
L 97.103833 -25.590303 
L 95.896733 -25.571093 
L 94.280412 -25.551883 
L 92.958157 -25.532673 
L 92.300133 -25.513462 
L 92.393897 -25.494252 
L 93.232031 -25.475042 
L 94.678471 -25.455832 
L 96.277383 -25.436622 
L 97.316436 -25.417412 
L 97.338224 -25.398202 
L 96.673828 -25.378992 
L 96.383885 -25.359781 
L 97.565094 -25.340571 
L 100.58187 -25.321361 
L 104.816997 -25.302151 
L 109.131785 -25.282941 
L 112.611351 -25.263731 
L 114.835757 -25.244521 
L 115.516192 -25.225311 
L 114.239599 -25.206101 
L 110.856299 -25.18689 
L 106.001364 -25.16768 
L 100.995104 -25.14847 
L 97.179508 -25.12926 
L 95.341541 -25.11005 
L 95.599613 -25.09084 
L 97.61583 -25.07163 
L 100.88705 -25.05242 
L 104.959109 -25.033209 
L 109.40096 -25.013999 
L 113.592621 -24.994789 
L 116.790692 -24.975579 
L 118.677579 -24.956369 
L 119.739308 -24.937159 
L 120.753429 -24.917949 
L 121.777663 -24.898739 
L 121.838087 -24.879528 
L 119.82233 -24.860318 
L 115.630724 -24.841108 
L 110.288926 -24.821898 
L 105.037202 -24.802688 
L 100.599744 -24.783478 
L 97.300509 -24.764268 
L 95.501358 -24.745058 
L 95.715605 -24.725848 
L 98.323945 -24.706637 
L 103.063032 -24.687427 
L 108.608856 -24.668217 
L 112.858807 -24.649007 
L 114.15184 -24.629797 
L 112.565034 -24.610587 
L 110.026857 -24.591377 
L 109.097444 -24.572167 
L 111.462398 -24.552956 
L 117.000005 -24.533746 
L 123.635046 -24.514536 
L 128.299045 -24.495326 
L 128.942679 -24.476116 
L 126.001273 -24.456906 
L 121.63869 -24.437696 
L 117.631905 -24.418486 
L 114.345176 -24.399275 
L 111.516855 -24.380065 
L 109.306969 -24.360855 
L 108.251581 -24.341645 
L 108.505195 -24.322435 
L 109.512213 -24.303225 
L 110.495998 -24.284015 
L 111.127481 -24.264805 
L 111.523628 -24.245595 
L 111.562954 -24.226384 
L 110.515174 -24.207174 
L 107.689954 -24.187964 
L 103.36833 -24.168754 
L 98.786293 -24.149544 
L 95.178752 -24.130334 
L 92.999602 -24.111124 
z
" style="stroke: #3a3a3a; stroke-width: 1.5"/>
    </defs>
    <g clip-path="url(#pefa20109be)">
     <use xlink:href="#m5ba1e20032" x="0" y="216" style="fill: #3a8669; stroke: #3a3a3a; stroke-width: 1.5"/>
    </g>
   </g>
   <g id="PolyCollection_2">
    <defs>
     <path id="m2f2a621f66" d="M 186.116674 -34.493728 
L 184.26559 -34.493728 
L 183.206879 -35.169189 
L 181.560631 -35.84465 
L 179.497119 -36.520111 
L 177.485876 -37.195572 
L 176.113059 -37.871033 
L 175.774159 -38.546494 
L 176.488222 -39.221956 
L 177.955781 -39.897417 
L 179.741281 -40.572878 
L 181.399907 -41.248339 
L 182.488615 -41.9238 
L 182.496729 -42.599261 
L 180.776528 -43.274722 
L 176.642746 -43.950183 
L 169.823519 -44.625645 
L 161.140284 -45.301106 
L 152.804444 -45.976567 
L 147.692163 -46.652028 
L 147.787961 -47.327489 
L 152.957227 -48.00295 
L 161.09997 -48.678411 
L 169.505586 -49.353873 
L 176.239218 -50.029334 
L 180.641452 -50.704795 
L 182.972813 -51.380256 
L 183.796946 -52.055717 
L 183.577905 -52.731178 
L 182.596695 -53.406639 
L 181.055981 -54.0821 
L 179.206313 -54.757562 
L 177.404725 -55.433023 
L 176.092121 -56.108484 
L 175.685474 -56.783945 
L 176.392154 -57.459406 
L 178.048956 -58.134867 
L 180.15207 -58.810328 
L 182.1069 -59.48579 
L 183.504809 -60.161251 
L 184.215571 -60.836712 
L 184.292007 -61.512173 
L 183.852853 -62.187634 
L 183.067876 -62.863095 
L 182.20525 -63.538556 
L 181.608192 -64.214018 
L 181.54611 -64.889479 
L 182.05066 -65.56494 
L 182.900007 -66.240401 
L 183.775829 -66.915862 
L 184.450853 -67.591323 
L 184.863274 -68.266784 
L 185.068184 -68.942245 
L 185.152093 -69.617707 
L 185.180636 -70.293168 
L 185.188742 -70.968629 
L 185.190671 -71.64409 
L 185.191056 -72.319551 
L 185.191121 -72.995012 
L 185.19113 -73.670473 
L 185.191131 -74.345935 
L 185.191132 -75.021396 
L 185.191132 -75.696857 
L 185.191132 -76.372318 
L 185.191132 -77.047779 
L 185.191132 -77.72324 
L 185.191132 -78.398701 
L 185.191132 -79.074163 
L 185.191132 -79.749624 
L 185.191132 -80.425085 
L 185.191132 -81.100546 
L 185.191132 -81.776007 
L 185.191132 -82.451468 
L 185.191132 -83.126929 
L 185.191132 -83.80239 
L 185.191132 -84.477852 
L 185.191132 -85.153313 
L 185.191132 -85.828774 
L 185.191132 -86.504235 
L 185.191132 -87.179696 
L 185.191131 -87.855157 
L 185.19113 -88.530618 
L 185.191116 -89.20608 
L 185.19102 -89.881541 
L 185.190441 -90.557002 
L 185.18752 -91.232463 
L 185.175084 -91.907924 
L 185.130546 -92.583385 
L 184.996773 -93.258846 
L 184.661209 -93.934307 
L 183.962882 -94.609769 
L 182.770625 -95.28523 
L 181.134735 -95.960691 
L 179.409596 -96.636152 
L 178.182174 -97.311613 
L 177.963559 -97.987074 
L 178.851504 -98.662535 
L 180.461224 -99.337997 
L 182.18971 -100.013458 
L 183.571419 -100.688919 
L 184.447903 -101.36438 
L 185.93436 -101.36438 
L 185.93436 -101.36438 
L 186.810844 -100.688919 
L 188.192553 -100.013458 
L 189.921039 -99.337997 
L 191.530759 -98.662535 
L 192.418704 -97.987074 
L 192.200089 -97.311613 
L 190.972667 -96.636152 
L 189.247528 -95.960691 
L 187.611639 -95.28523 
L 186.419381 -94.609769 
L 185.721054 -93.934307 
L 185.38549 -93.258846 
L 185.251717 -92.583385 
L 185.207179 -91.907924 
L 185.194743 -91.232463 
L 185.191822 -90.557002 
L 185.191244 -89.881541 
L 185.191147 -89.20608 
L 185.191133 -88.530618 
L 185.191132 -87.855157 
L 185.191132 -87.179696 
L 185.191132 -86.504235 
L 185.191132 -85.828774 
L 185.191132 -85.153313 
L 185.191132 -84.477852 
L 185.191132 -83.80239 
L 185.191132 -83.126929 
L 185.191132 -82.451468 
L 185.191132 -81.776007 
L 185.191132 -81.100546 
L 185.191132 -80.425085 
L 185.191132 -79.749624 
L 185.191132 -79.074163 
L 185.191132 -78.398701 
L 185.191132 -77.72324 
L 185.191132 -77.047779 
L 185.191132 -76.372318 
L 185.191132 -75.696857 
L 185.191132 -75.021396 
L 185.191132 -74.345935 
L 185.191133 -73.670473 
L 185.191142 -72.995012 
L 185.191207 -72.319551 
L 185.191592 -71.64409 
L 185.193521 -70.968629 
L 185.201627 -70.293168 
L 185.23017 -69.617707 
L 185.314079 -68.942245 
L 185.518989 -68.266784 
L 185.93141 -67.591323 
L 186.606434 -66.915862 
L 187.482256 -66.240401 
L 188.331603 -65.56494 
L 188.836153 -64.889479 
L 188.774071 -64.214018 
L 188.177013 -63.538556 
L 187.314387 -62.863095 
L 186.52941 -62.187634 
L 186.090256 -61.512173 
L 186.166692 -60.836712 
L 186.877454 -60.161251 
L 188.275363 -59.48579 
L 190.230193 -58.810328 
L 192.333307 -58.134867 
L 193.990109 -57.459406 
L 194.696789 -56.783945 
L 194.290142 -56.108484 
L 192.977538 -55.433023 
L 191.17595 -54.757562 
L 189.326282 -54.0821 
L 187.785568 -53.406639 
L 186.804358 -52.731178 
L 186.585317 -52.055717 
L 187.40945 -51.380256 
L 189.740811 -50.704795 
L 194.143045 -50.029334 
L 200.876677 -49.353873 
L 209.282293 -48.678411 
L 217.425036 -48.00295 
L 222.594302 -47.327489 
L 222.6901 -46.652028 
L 217.577819 -45.976567 
L 209.241979 -45.301106 
L 200.558744 -44.625645 
L 193.739517 -43.950183 
L 189.605735 -43.274722 
L 187.885534 -42.599261 
L 187.893648 -41.9238 
L 188.982356 -41.248339 
L 190.640982 -40.572878 
L 192.426482 -39.897417 
L 193.894041 -39.221956 
L 194.608105 -38.546494 
L 194.269204 -37.871033 
L 192.896387 -37.195572 
L 190.885144 -36.520111 
L 188.821632 -35.84465 
L 187.175384 -35.169189 
L 186.116674 -34.493728 
z
" style="stroke: #3a3a3a; stroke-width: 1.5"/>
    </defs>
    <g clip-path="url(#pefa20109be)">
     <use xlink:href="#m2f2a621f66" x="0" y="216" style="fill: #b0a357; stroke: #3a3a3a; stroke-width: 1.5"/>
    </g>
   </g>
   <g id="matplotlib.axis_1">
    <g id="xtick_1">
     <g id="line2d_1">
      <defs>
       <path id="mfde5fced47" d="M 0 0 
L 0 3.5 
" style="stroke: #000000; stroke-width: 0.8"/>
      </defs>
      <g>
       <use xlink:href="#mfde5fced47" x="91.443711" y="201.7" style="stroke: #000000; stroke-width: 0.8"/>
      </g>
     </g>
    </g>
    <g id="xtick_2">
     <g id="line2d_2">
      <g>
       <use xlink:href="#mfde5fced47" x="185.191132" y="201.7" style="stroke: #000000; stroke-width: 0.8"/>
      </g>
     </g>
    </g>
   </g>
   <g id="matplotlib.axis_2">
    <g id="ytick_1">
     <g id="line2d_3">
      <defs>
       <path id="m967a5095a5" d="M 0 0 
L -3.5 0 
" style="stroke: #000000; stroke-width: 0.8"/>
      </defs>
      <g>
       <use xlink:href="#m967a5095a5" x="44.57" y="193.318826" style="stroke: #000000; stroke-width: 0.8"/>
      </g>
     </g>
     <g id="text_1">
      <!-- 0 -->
      <g transform="translate(31.2075 197.118045) scale(0.1 -0.1)">
       <defs>
        <path id="DejaVuSans-30" d="M 2034 4250 
Q 1547 4250 1301 3770 
Q 1056 3291 1056 2328 
Q 1056 1369 1301 889 
Q 1547 409 2034 409 
Q 2525 409 2770 889 
Q 3016 1369 3016 2328 
Q 3016 3291 2770 3770 
Q 2525 4250 2034 4250 
z
M 2034 4750 
Q 2819 4750 3233 4129 
Q 3647 3509 3647 2328 
Q 3647 1150 3233 529 
Q 2819 -91 2034 -91 
Q 1250 -91 836 529 
Q 422 1150 422 2328 
Q 422 3509 836 4129 
Q 1250 4750 2034 4750 
z
" transform="scale(0.015625)"/>
       </defs>
       <use xlink:href="#DejaVuSans-30"/>
      </g>
     </g>
    </g>
    <g id="ytick_2">
     <g id="line2d_4">
      <g>
       <use xlink:href="#m967a5095a5" x="44.57" y="172.013675" style="stroke: #000000; stroke-width: 0.8"/>
      </g>
     </g>
     <g id="text_2">
      <!-- 10 -->
      <g transform="translate(24.845 175.812894) scale(0.1 -0.1)">
       <defs>
        <path id="DejaVuSans-31" d="M 794 531 
L 1825 531 
L 1825 4091 
L 703 3866 
L 703 4441 
L 1819 4666 
L 2450 4666 
L 2450 531 
L 3481 531 
L 3481 0 
L 794 0 
L 794 531 
z
" transform="scale(0.015625)"/>
       </defs>
       <use xlink:href="#DejaVuSans-31"/>
       <use xlink:href="#DejaVuSans-30" x="63.623047"/>
      </g>
     </g>
    </g>
    <g id="ytick_3">
     <g id="line2d_5">
      <g>
       <use xlink:href="#m967a5095a5" x="44.57" y="150.708524" style="stroke: #000000; stroke-width: 0.8"/>
      </g>
     </g>
     <g id="text_3">
      <!-- 20 -->
      <g transform="translate(24.845 154.507743) scale(0.1 -0.1)">
       <defs>
        <path id="DejaVuSans-32" d="M 1228 531 
L 3431 531 
L 3431 0 
L 469 0 
L 469 531 
Q 828 903 1448 1529 
Q 2069 2156 2228 2338 
Q 2531 2678 2651 2914 
Q 2772 3150 2772 3378 
Q 2772 3750 2511 3984 
Q 2250 4219 1831 4219 
Q 1534 4219 1204 4116 
Q 875 4013 500 3803 
L 500 4441 
Q 881 4594 1212 4672 
Q 1544 4750 1819 4750 
Q 2544 4750 2975 4387 
Q 3406 4025 3406 3419 
Q 3406 3131 3298 2873 
Q 3191 2616 2906 2266 
Q 2828 2175 2409 1742 
Q 1991 1309 1228 531 
z
" transform="scale(0.015625)"/>
       </defs>
       <use xlink:href="#DejaVuSans-32"/>
       <use xlink:href="#DejaVuSans-30" x="63.623047"/>
      </g>
     </g>
    </g>
    <g id="ytick_4">
     <g id="line2d_6">
      <g>
       <use xlink:href="#m967a5095a5" x="44.57" y="129.403373" style="stroke: #000000; stroke-width: 0.8"/>
      </g>
     </g>
     <g id="text_4">
      <!-- 30 -->
      <g transform="translate(24.845 133.202592) scale(0.1 -0.1)">
       <defs>
        <path id="DejaVuSans-33" d="M 2597 2516 
Q 3050 2419 3304 2112 
Q 3559 1806 3559 1356 
Q 3559 666 3084 287 
Q 2609 -91 1734 -91 
Q 1441 -91 1130 -33 
Q 819 25 488 141 
L 488 750 
Q 750 597 1062 519 
Q 1375 441 1716 441 
Q 2309 441 2620 675 
Q 2931 909 2931 1356 
Q 2931 1769 2642 2001 
Q 2353 2234 1838 2234 
L 1294 2234 
L 1294 2753 
L 1863 2753 
Q 2328 2753 2575 2939 
Q 2822 3125 2822 3475 
Q 2822 3834 2567 4026 
Q 2313 4219 1838 4219 
Q 1578 4219 1281 4162 
Q 984 4106 628 3988 
L 628 4550 
Q 988 4650 1302 4700 
Q 1616 4750 1894 4750 
Q 2613 4750 3031 4423 
Q 3450 4097 3450 3541 
Q 3450 3153 3228 2886 
Q 3006 2619 2597 2516 
z
" transform="scale(0.015625)"/>
       </defs>
       <use xlink:href="#DejaVuSans-33"/>
       <use xlink:href="#DejaVuSans-30" x="63.623047"/>
      </g>
     </g>
    </g>
    <g id="ytick_5">
     <g id="line2d_7">
      <g>
       <use xlink:href="#m967a5095a5" x="44.57" y="108.098222" style="stroke: #000000; stroke-width: 0.8"/>
      </g>
     </g>
     <g id="text_5">
      <!-- 40 -->
      <g transform="translate(24.845 111.897441) scale(0.1 -0.1)">
       <defs>
        <path id="DejaVuSans-34" d="M 2419 4116 
L 825 1625 
L 2419 1625 
L 2419 4116 
z
M 2253 4666 
L 3047 4666 
L 3047 1625 
L 3713 1625 
L 3713 1100 
L 3047 1100 
L 3047 0 
L 2419 0 
L 2419 1100 
L 313 1100 
L 313 1709 
L 2253 4666 
z
" transform="scale(0.015625)"/>
       </defs>
       <use xlink:href="#DejaVuSans-34"/>
       <use xlink:href="#DejaVuSans-30" x="63.623047"/>
      </g>
     </g>
    </g>
    <g id="ytick_6">
     <g id="line2d_8">
      <g>
       <use xlink:href="#m967a5095a5" x="44.57" y="86.793071" style="stroke: #000000; stroke-width: 0.8"/>
      </g>
     </g>
     <g id="text_6">
      <!-- 50 -->
      <g transform="translate(24.845 90.59229) scale(0.1 -0.1)">
       <defs>
        <path id="DejaVuSans-35" d="M 691 4666 
L 3169 4666 
L 3169 4134 
L 1269 4134 
L 1269 2991 
Q 1406 3038 1543 3061 
Q 1681 3084 1819 3084 
Q 2600 3084 3056 2656 
Q 3513 2228 3513 1497 
Q 3513 744 3044 326 
Q 2575 -91 1722 -91 
Q 1428 -91 1123 -41 
Q 819 9 494 109 
L 494 744 
Q 775 591 1075 516 
Q 1375 441 1709 441 
Q 2250 441 2565 725 
Q 2881 1009 2881 1497 
Q 2881 1984 2565 2268 
Q 2250 2553 1709 2553 
Q 1456 2553 1204 2497 
Q 953 2441 691 2322 
L 691 4666 
z
" transform="scale(0.015625)"/>
       </defs>
       <use xlink:href="#DejaVuSans-35"/>
       <use xlink:href="#DejaVuSans-30" x="63.623047"/>
      </g>
     </g>
    </g>
    <g id="ytick_7">
     <g id="line2d_9">
      <g>
       <use xlink:href="#m967a5095a5" x="44.57" y="65.48792" style="stroke: #000000; stroke-width: 0.8"/>
      </g>
     </g>
     <g id="text_7">
      <!-- 60 -->
      <g transform="translate(24.845 69.287139) scale(0.1 -0.1)">
       <defs>
        <path id="DejaVuSans-36" d="M 2113 2584 
Q 1688 2584 1439 2293 
Q 1191 2003 1191 1497 
Q 1191 994 1439 701 
Q 1688 409 2113 409 
Q 2538 409 2786 701 
Q 3034 994 3034 1497 
Q 3034 2003 2786 2293 
Q 2538 2584 2113 2584 
z
M 3366 4563 
L 3366 3988 
Q 3128 4100 2886 4159 
Q 2644 4219 2406 4219 
Q 1781 4219 1451 3797 
Q 1122 3375 1075 2522 
Q 1259 2794 1537 2939 
Q 1816 3084 2150 3084 
Q 2853 3084 3261 2657 
Q 3669 2231 3669 1497 
Q 3669 778 3244 343 
Q 2819 -91 2113 -91 
Q 1303 -91 875 529 
Q 447 1150 447 2328 
Q 447 3434 972 4092 
Q 1497 4750 2381 4750 
Q 2619 4750 2861 4703 
Q 3103 4656 3366 4563 
z
" transform="scale(0.015625)"/>
       </defs>
       <use xlink:href="#DejaVuSans-36"/>
       <use xlink:href="#DejaVuSans-30" x="63.623047"/>
      </g>
     </g>
    </g>
    <g id="ytick_8">
     <g id="line2d_10">
      <g>
       <use xlink:href="#m967a5095a5" x="44.57" y="44.182769" style="stroke: #000000; stroke-width: 0.8"/>
      </g>
     </g>
     <g id="text_8">
      <!-- 70 -->
      <g transform="translate(24.845 47.981987) scale(0.1 -0.1)">
       <defs>
        <path id="DejaVuSans-37" d="M 525 4666 
L 3525 4666 
L 3525 4397 
L 1831 0 
L 1172 0 
L 2766 4134 
L 525 4134 
L 525 4666 
z
" transform="scale(0.015625)"/>
       </defs>
       <use xlink:href="#DejaVuSans-37"/>
       <use xlink:href="#DejaVuSans-30" x="63.623047"/>
      </g>
     </g>
    </g>
    <g id="ytick_9">
     <g id="line2d_11">
      <g>
       <use xlink:href="#m967a5095a5" x="44.57" y="22.877618" style="stroke: #000000; stroke-width: 0.8"/>
      </g>
     </g>
     <g id="text_9">
      <!-- 80 -->
      <g transform="translate(24.845 26.676836) scale(0.1 -0.1)">
       <defs>
        <path id="DejaVuSans-38" d="M 2034 2216 
Q 1584 2216 1326 1975 
Q 1069 1734 1069 1313 
Q 1069 891 1326 650 
Q 1584 409 2034 409 
Q 2484 409 2743 651 
Q 3003 894 3003 1313 
Q 3003 1734 2745 1975 
Q 2488 2216 2034 2216 
z
M 1403 2484 
Q 997 2584 770 2862 
Q 544 3141 544 3541 
Q 544 4100 942 4425 
Q 1341 4750 2034 4750 
Q 2731 4750 3128 4425 
Q 3525 4100 3525 3541 
Q 3525 3141 3298 2862 
Q 3072 2584 2669 2484 
Q 3125 2378 3379 2068 
Q 3634 1759 3634 1313 
Q 3634 634 3220 271 
Q 2806 -91 2034 -91 
Q 1263 -91 848 271 
Q 434 634 434 1313 
Q 434 1759 690 2068 
Q 947 2378 1403 2484 
z
M 1172 3481 
Q 1172 3119 1398 2916 
Q 1625 2713 2034 2713 
Q 2441 2713 2670 2916 
Q 2900 3119 2900 3481 
Q 2900 3844 2670 4047 
Q 2441 4250 2034 4250 
Q 1625 4250 1398 4047 
Q 1172 3844 1172 3481 
z
" transform="scale(0.015625)"/>
       </defs>
       <use xlink:href="#DejaVuSans-38"/>
       <use xlink:href="#DejaVuSans-30" x="63.623047"/>
      </g>
     </g>
    </g>
    <g id="text_10">
     <!-- Latency (s) -->
     <g transform="translate(18.765313 134.109375) rotate(-90) scale(0.1 -0.1)">
      <defs>
       <path id="DejaVuSans-4c" d="M 628 4666 
L 1259 4666 
L 1259 531 
L 3531 531 
L 3531 0 
L 628 0 
L 628 4666 
z
" transform="scale(0.015625)"/>
       <path id="DejaVuSans-61" d="M 2194 1759 
Q 1497 1759 1228 1600 
Q 959 1441 959 1056 
Q 959 750 1161 570 
Q 1363 391 1709 391 
Q 2188 391 2477 730 
Q 2766 1069 2766 1631 
L 2766 1759 
L 2194 1759 
z
M 3341 1997 
L 3341 0 
L 2766 0 
L 2766 531 
Q 2569 213 2275 61 
Q 1981 -91 1556 -91 
Q 1019 -91 701 211 
Q 384 513 384 1019 
Q 384 1609 779 1909 
Q 1175 2209 1959 2209 
L 2766 2209 
L 2766 2266 
Q 2766 2663 2505 2880 
Q 2244 3097 1772 3097 
Q 1472 3097 1187 3025 
Q 903 2953 641 2809 
L 641 3341 
Q 956 3463 1253 3523 
Q 1550 3584 1831 3584 
Q 2591 3584 2966 3190 
Q 3341 2797 3341 1997 
z
" transform="scale(0.015625)"/>
       <path id="DejaVuSans-74" d="M 1172 4494 
L 1172 3500 
L 2356 3500 
L 2356 3053 
L 1172 3053 
L 1172 1153 
Q 1172 725 1289 603 
Q 1406 481 1766 481 
L 2356 481 
L 2356 0 
L 1766 0 
Q 1100 0 847 248 
Q 594 497 594 1153 
L 594 3053 
L 172 3053 
L 172 3500 
L 594 3500 
L 594 4494 
L 1172 4494 
z
" transform="scale(0.015625)"/>
       <path id="DejaVuSans-65" d="M 3597 1894 
L 3597 1613 
L 953 1613 
Q 991 1019 1311 708 
Q 1631 397 2203 397 
Q 2534 397 2845 478 
Q 3156 559 3463 722 
L 3463 178 
Q 3153 47 2828 -22 
Q 2503 -91 2169 -91 
Q 1331 -91 842 396 
Q 353 884 353 1716 
Q 353 2575 817 3079 
Q 1281 3584 2069 3584 
Q 2775 3584 3186 3129 
Q 3597 2675 3597 1894 
z
M 3022 2063 
Q 3016 2534 2758 2815 
Q 2500 3097 2075 3097 
Q 1594 3097 1305 2825 
Q 1016 2553 972 2059 
L 3022 2063 
z
" transform="scale(0.015625)"/>
       <path id="DejaVuSans-6e" d="M 3513 2113 
L 3513 0 
L 2938 0 
L 2938 2094 
Q 2938 2591 2744 2837 
Q 2550 3084 2163 3084 
Q 1697 3084 1428 2787 
Q 1159 2491 1159 1978 
L 1159 0 
L 581 0 
L 581 3500 
L 1159 3500 
L 1159 2956 
Q 1366 3272 1645 3428 
Q 1925 3584 2291 3584 
Q 2894 3584 3203 3211 
Q 3513 2838 3513 2113 
z
" transform="scale(0.015625)"/>
       <path id="DejaVuSans-63" d="M 3122 3366 
L 3122 2828 
Q 2878 2963 2633 3030 
Q 2388 3097 2138 3097 
Q 1578 3097 1268 2742 
Q 959 2388 959 1747 
Q 959 1106 1268 751 
Q 1578 397 2138 397 
Q 2388 397 2633 464 
Q 2878 531 3122 666 
L 3122 134 
Q 2881 22 2623 -34 
Q 2366 -91 2075 -91 
Q 1284 -91 818 406 
Q 353 903 353 1747 
Q 353 2603 823 3093 
Q 1294 3584 2113 3584 
Q 2378 3584 2631 3529 
Q 2884 3475 3122 3366 
z
" transform="scale(0.015625)"/>
       <path id="DejaVuSans-79" d="M 2059 -325 
Q 1816 -950 1584 -1140 
Q 1353 -1331 966 -1331 
L 506 -1331 
L 506 -850 
L 844 -850 
Q 1081 -850 1212 -737 
Q 1344 -625 1503 -206 
L 1606 56 
L 191 3500 
L 800 3500 
L 1894 763 
L 2988 3500 
L 3597 3500 
L 2059 -325 
z
" transform="scale(0.015625)"/>
       <path id="DejaVuSans-20" transform="scale(0.015625)"/>
       <path id="DejaVuSans-28" d="M 1984 4856 
Q 1566 4138 1362 3434 
Q 1159 2731 1159 2009 
Q 1159 1288 1364 580 
Q 1569 -128 1984 -844 
L 1484 -844 
Q 1016 -109 783 600 
Q 550 1309 550 2009 
Q 550 2706 781 3412 
Q 1013 4119 1484 4856 
L 1984 4856 
z
" transform="scale(0.015625)"/>
       <path id="DejaVuSans-73" d="M 2834 3397 
L 2834 2853 
Q 2591 2978 2328 3040 
Q 2066 3103 1784 3103 
Q 1356 3103 1142 2972 
Q 928 2841 928 2578 
Q 928 2378 1081 2264 
Q 1234 2150 1697 2047 
L 1894 2003 
Q 2506 1872 2764 1633 
Q 3022 1394 3022 966 
Q 3022 478 2636 193 
Q 2250 -91 1575 -91 
Q 1294 -91 989 -36 
Q 684 19 347 128 
L 347 722 
Q 666 556 975 473 
Q 1284 391 1588 391 
Q 1994 391 2212 530 
Q 2431 669 2431 922 
Q 2431 1156 2273 1281 
Q 2116 1406 1581 1522 
L 1381 1569 
Q 847 1681 609 1914 
Q 372 2147 372 2553 
Q 372 3047 722 3315 
Q 1072 3584 1716 3584 
Q 2034 3584 2315 3537 
Q 2597 3491 2834 3397 
z
" transform="scale(0.015625)"/>
       <path id="DejaVuSans-29" d="M 513 4856 
L 1013 4856 
Q 1481 4119 1714 3412 
Q 1947 2706 1947 2009 
Q 1947 1309 1714 600 
Q 1481 -109 1013 -844 
L 513 -844 
Q 928 -128 1133 580 
Q 1338 1288 1338 2009 
Q 1338 2731 1133 3434 
Q 928 4138 513 4856 
z
" transform="scale(0.015625)"/>
      </defs>
      <use xlink:href="#DejaVuSans-4c"/>
      <use xlink:href="#DejaVuSans-61" x="55.712891"/>
      <use xlink:href="#DejaVuSans-74" x="116.992188"/>
      <use xlink:href="#DejaVuSans-65" x="156.201172"/>
      <use xlink:href="#DejaVuSans-6e" x="217.724609"/>
      <use xlink:href="#DejaVuSans-63" x="281.103516"/>
      <use xlink:href="#DejaVuSans-79" x="336.083984"/>
      <use xlink:href="#DejaVuSans-20" x="395.263672"/>
      <use xlink:href="#DejaVuSans-28" x="427.050781"/>
      <use xlink:href="#DejaVuSans-73" x="466.064453"/>
      <use xlink:href="#DejaVuSans-29" x="518.164062"/>
     </g>
    </g>
   </g>
   <g id="line2d_12">
    <path d="M 91.443711 191.80616 
L 91.443711 190.39789 
" clip-path="url(#pefa20109be)" style="fill: none; stroke: #3a3a3a; stroke-width: 1.5; stroke-linecap: square"/>
   </g>
   <g id="line2d_13">
    <path d="M 91.443711 191.522269 
L 91.443711 191.000293 
" clip-path="url(#pefa20109be)" style="fill: none; stroke: #3a3a3a; stroke-width: 4.5; stroke-linecap: square"/>
   </g>
   <g id="line2d_14">
    <path d="M 185.191132 178.194299 
L 185.191132 151.377506 
" clip-path="url(#pefa20109be)" style="fill: none; stroke: #3a3a3a; stroke-width: 1.5; stroke-linecap: square"/>
   </g>
   <g id="line2d_15">
    <path d="M 185.191132 169.398468 
L 185.191132 160.293179 
" clip-path="url(#pefa20109be)" style="fill: none; stroke: #3a3a3a; stroke-width: 4.5; stroke-linecap: square"/>
   </g>
   <g id="patch_3">
    <path d="M 44.57 201.7 
L 44.57 10.8 
" style="fill: none; stroke: #000000; stroke-width: 0.8; stroke-linejoin: miter; stroke-linecap: square"/>
   </g>
   <g id="patch_4">
    <path d="M 232.064842 201.7 
L 232.064842 10.8 
" style="fill: none; stroke: #000000; stroke-width: 0.8; stroke-linejoin: miter; stroke-linecap: square"/>
   </g>
   <g id="patch_5">
    <path d="M 44.57 201.7 
L 232.064842 201.7 
" style="fill: none; stroke: #000000; stroke-width: 0.8; stroke-linejoin: miter; stroke-linecap: square"/>
   </g>
   <g id="patch_6">
    <path d="M 44.57 10.8 
L 232.064842 10.8 
" style="fill: none; stroke: #000000; stroke-width: 0.8; stroke-linejoin: miter; stroke-linecap: square"/>
   </g>
   <g id="PathCollection_1">
    <defs>
     <path id="m099fd3ff6f" d="M 0 1.5 
C 0.397805 1.5 0.77937 1.341951 1.06066 1.06066 
C 1.341951 0.77937 1.5 0.397805 1.5 0 
C 1.5 -0.397805 1.341951 -0.77937 1.06066 -1.06066 
C 0.77937 -1.341951 0.397805 -1.5 0 -1.5 
C -0.397805 -1.5 -0.77937 -1.341951 -1.06066 -1.06066 
C -1.341951 -0.77937 -1.5 -0.397805 -1.5 0 
C -1.5 0.397805 -1.341951 0.77937 -1.06066 1.06066 
C -0.77937 1.341951 -0.397805 1.5 0 1.5 
z
" style="stroke: #3a3a3a"/>
    </defs>
    <g clip-path="url(#pefa20109be)">
     <use xlink:href="#m099fd3ff6f" x="91.443711" y="191.271401" style="fill: #ffffff; stroke: #3a3a3a"/>
    </g>
   </g>
   <g id="PathCollection_2">
    <g clip-path="url(#pefa20109be)">
     <use xlink:href="#m099fd3ff6f" x="185.191132" y="168.859447" style="fill: #ffffff; stroke: #3a3a3a"/>
    </g>
   </g>
   <g id="text_11">
    <g id="patch_7">
     <path d="M 190.565874 32.03425 
L 218.565874 32.03425 
L 218.565874 16.29175 
L 190.565874 16.29175 
z
" style="fill: #ffffff; opacity: 0.2; stroke: #000000; stroke-linejoin: miter"/>
    </g>
    <!-- $n = 4$ -->
    <g transform="translate(194.565874 26.3705) scale(0.08 -0.08)">
     <defs>
      <path id="DejaVuSans-Oblique-6e" d="M 3566 2113 
L 3156 0 
L 2578 0 
L 2988 2091 
Q 3016 2238 3031 2350 
Q 3047 2463 3047 2528 
Q 3047 2791 2881 2937 
Q 2716 3084 2419 3084 
Q 1956 3084 1622 2776 
Q 1288 2469 1184 1941 
L 800 0 
L 225 0 
L 903 3500 
L 1478 3500 
L 1363 2950 
Q 1603 3253 1940 3418 
Q 2278 3584 2650 3584 
Q 3113 3584 3367 3334 
Q 3622 3084 3622 2631 
Q 3622 2519 3608 2391 
Q 3594 2263 3566 2113 
z
" transform="scale(0.015625)"/>
      <path id="DejaVuSans-3d" d="M 678 2906 
L 4684 2906 
L 4684 2381 
L 678 2381 
L 678 2906 
z
M 678 1631 
L 4684 1631 
L 4684 1100 
L 678 1100 
L 678 1631 
z
" transform="scale(0.015625)"/>
     </defs>
     <use xlink:href="#DejaVuSans-Oblique-6e" transform="translate(0 0.09375)"/>
     <use xlink:href="#DejaVuSans-3d" transform="translate(82.861328 0.09375)"/>
     <use xlink:href="#DejaVuSans-34" transform="translate(186.132812 0.09375)"/>
    </g>
   </g>
   <g id="legend_1">
    <g id="patch_8">
     <path d="M 51.57 48.15625 
L 170.646563 48.15625 
Q 172.646563 48.15625 172.646563 46.15625 
L 172.646563 17.8 
Q 172.646563 15.8 170.646563 15.8 
L 51.57 15.8 
Q 49.57 15.8 49.57 17.8 
L 49.57 46.15625 
Q 49.57 48.15625 51.57 48.15625 
z
" style="fill: #ffffff; opacity: 0.8; stroke: #cccccc; stroke-linejoin: miter"/>
    </g>
    <g id="line2d_16">
     <path d="M 53.57 23.898438 
L 63.57 23.898438 
L 73.57 23.898438 
" style="fill: none; stroke: #2d936c; stroke-width: 4; stroke-linecap: square"/>
    </g>
    <g id="text_12">
     <!-- readBreachCount -->
     <g transform="translate(81.57 27.398438) scale(0.1 -0.1)">
      <defs>
       <path id="DejaVuSans-72" d="M 2631 2963 
Q 2534 3019 2420 3045 
Q 2306 3072 2169 3072 
Q 1681 3072 1420 2755 
Q 1159 2438 1159 1844 
L 1159 0 
L 581 0 
L 581 3500 
L 1159 3500 
L 1159 2956 
Q 1341 3275 1631 3429 
Q 1922 3584 2338 3584 
Q 2397 3584 2469 3576 
Q 2541 3569 2628 3553 
L 2631 2963 
z
" transform="scale(0.015625)"/>
       <path id="DejaVuSans-64" d="M 2906 2969 
L 2906 4863 
L 3481 4863 
L 3481 0 
L 2906 0 
L 2906 525 
Q 2725 213 2448 61 
Q 2172 -91 1784 -91 
Q 1150 -91 751 415 
Q 353 922 353 1747 
Q 353 2572 751 3078 
Q 1150 3584 1784 3584 
Q 2172 3584 2448 3432 
Q 2725 3281 2906 2969 
z
M 947 1747 
Q 947 1113 1208 752 
Q 1469 391 1925 391 
Q 2381 391 2643 752 
Q 2906 1113 2906 1747 
Q 2906 2381 2643 2742 
Q 2381 3103 1925 3103 
Q 1469 3103 1208 2742 
Q 947 2381 947 1747 
z
" transform="scale(0.015625)"/>
       <path id="DejaVuSans-42" d="M 1259 2228 
L 1259 519 
L 2272 519 
Q 2781 519 3026 730 
Q 3272 941 3272 1375 
Q 3272 1813 3026 2020 
Q 2781 2228 2272 2228 
L 1259 2228 
z
M 1259 4147 
L 1259 2741 
L 2194 2741 
Q 2656 2741 2882 2914 
Q 3109 3088 3109 3444 
Q 3109 3797 2882 3972 
Q 2656 4147 2194 4147 
L 1259 4147 
z
M 628 4666 
L 2241 4666 
Q 2963 4666 3353 4366 
Q 3744 4066 3744 3513 
Q 3744 3084 3544 2831 
Q 3344 2578 2956 2516 
Q 3422 2416 3680 2098 
Q 3938 1781 3938 1306 
Q 3938 681 3513 340 
Q 3088 0 2303 0 
L 628 0 
L 628 4666 
z
" transform="scale(0.015625)"/>
       <path id="DejaVuSans-68" d="M 3513 2113 
L 3513 0 
L 2938 0 
L 2938 2094 
Q 2938 2591 2744 2837 
Q 2550 3084 2163 3084 
Q 1697 3084 1428 2787 
Q 1159 2491 1159 1978 
L 1159 0 
L 581 0 
L 581 4863 
L 1159 4863 
L 1159 2956 
Q 1366 3272 1645 3428 
Q 1925 3584 2291 3584 
Q 2894 3584 3203 3211 
Q 3513 2838 3513 2113 
z
" transform="scale(0.015625)"/>
       <path id="DejaVuSans-43" d="M 4122 4306 
L 4122 3641 
Q 3803 3938 3442 4084 
Q 3081 4231 2675 4231 
Q 1875 4231 1450 3742 
Q 1025 3253 1025 2328 
Q 1025 1406 1450 917 
Q 1875 428 2675 428 
Q 3081 428 3442 575 
Q 3803 722 4122 1019 
L 4122 359 
Q 3791 134 3420 21 
Q 3050 -91 2638 -91 
Q 1578 -91 968 557 
Q 359 1206 359 2328 
Q 359 3453 968 4101 
Q 1578 4750 2638 4750 
Q 3056 4750 3426 4639 
Q 3797 4528 4122 4306 
z
" transform="scale(0.015625)"/>
       <path id="DejaVuSans-6f" d="M 1959 3097 
Q 1497 3097 1228 2736 
Q 959 2375 959 1747 
Q 959 1119 1226 758 
Q 1494 397 1959 397 
Q 2419 397 2687 759 
Q 2956 1122 2956 1747 
Q 2956 2369 2687 2733 
Q 2419 3097 1959 3097 
z
M 1959 3584 
Q 2709 3584 3137 3096 
Q 3566 2609 3566 1747 
Q 3566 888 3137 398 
Q 2709 -91 1959 -91 
Q 1206 -91 779 398 
Q 353 888 353 1747 
Q 353 2609 779 3096 
Q 1206 3584 1959 3584 
z
" transform="scale(0.015625)"/>
       <path id="DejaVuSans-75" d="M 544 1381 
L 544 3500 
L 1119 3500 
L 1119 1403 
Q 1119 906 1312 657 
Q 1506 409 1894 409 
Q 2359 409 2629 706 
Q 2900 1003 2900 1516 
L 2900 3500 
L 3475 3500 
L 3475 0 
L 2900 0 
L 2900 538 
Q 2691 219 2414 64 
Q 2138 -91 1772 -91 
Q 1169 -91 856 284 
Q 544 659 544 1381 
z
M 1991 3584 
L 1991 3584 
z
" transform="scale(0.015625)"/>
      </defs>
      <use xlink:href="#DejaVuSans-72"/>
      <use xlink:href="#DejaVuSans-65" x="38.863281"/>
      <use xlink:href="#DejaVuSans-61" x="100.386719"/>
      <use xlink:href="#DejaVuSans-64" x="161.666016"/>
      <use xlink:href="#DejaVuSans-42" x="225.142578"/>
      <use xlink:href="#DejaVuSans-72" x="293.746094"/>
      <use xlink:href="#DejaVuSans-65" x="332.609375"/>
      <use xlink:href="#DejaVuSans-61" x="394.132812"/>
      <use xlink:href="#DejaVuSans-63" x="455.412109"/>
      <use xlink:href="#DejaVuSans-68" x="510.392578"/>
      <use xlink:href="#DejaVuSans-43" x="573.771484"/>
      <use xlink:href="#DejaVuSans-6f" x="643.595703"/>
      <use xlink:href="#DejaVuSans-75" x="704.777344"/>
      <use xlink:href="#DejaVuSans-6e" x="768.15625"/>
      <use xlink:href="#DejaVuSans-74" x="831.535156"/>
     </g>
    </g>
    <g id="line2d_17">
     <path d="M 53.57 38.576562 
L 63.57 38.576562 
L 73.57 38.576562 
" style="fill: none; stroke: #bfae48; stroke-width: 4; stroke-linecap: square"/>
    </g>
    <g id="text_13">
     <!-- getBillDetails -->
     <g transform="translate(81.57 42.076562) scale(0.1 -0.1)">
      <defs>
       <path id="DejaVuSans-67" d="M 2906 1791 
Q 2906 2416 2648 2759 
Q 2391 3103 1925 3103 
Q 1463 3103 1205 2759 
Q 947 2416 947 1791 
Q 947 1169 1205 825 
Q 1463 481 1925 481 
Q 2391 481 2648 825 
Q 2906 1169 2906 1791 
z
M 3481 434 
Q 3481 -459 3084 -895 
Q 2688 -1331 1869 -1331 
Q 1566 -1331 1297 -1286 
Q 1028 -1241 775 -1147 
L 775 -588 
Q 1028 -725 1275 -790 
Q 1522 -856 1778 -856 
Q 2344 -856 2625 -561 
Q 2906 -266 2906 331 
L 2906 616 
Q 2728 306 2450 153 
Q 2172 0 1784 0 
Q 1141 0 747 490 
Q 353 981 353 1791 
Q 353 2603 747 3093 
Q 1141 3584 1784 3584 
Q 2172 3584 2450 3431 
Q 2728 3278 2906 2969 
L 2906 3500 
L 3481 3500 
L 3481 434 
z
" transform="scale(0.015625)"/>
       <path id="DejaVuSans-69" d="M 603 3500 
L 1178 3500 
L 1178 0 
L 603 0 
L 603 3500 
z
M 603 4863 
L 1178 4863 
L 1178 4134 
L 603 4134 
L 603 4863 
z
" transform="scale(0.015625)"/>
       <path id="DejaVuSans-6c" d="M 603 4863 
L 1178 4863 
L 1178 0 
L 603 0 
L 603 4863 
z
" transform="scale(0.015625)"/>
       <path id="DejaVuSans-44" d="M 1259 4147 
L 1259 519 
L 2022 519 
Q 2988 519 3436 956 
Q 3884 1394 3884 2338 
Q 3884 3275 3436 3711 
Q 2988 4147 2022 4147 
L 1259 4147 
z
M 628 4666 
L 1925 4666 
Q 3281 4666 3915 4102 
Q 4550 3538 4550 2338 
Q 4550 1131 3912 565 
Q 3275 0 1925 0 
L 628 0 
L 628 4666 
z
" transform="scale(0.015625)"/>
      </defs>
      <use xlink:href="#DejaVuSans-67"/>
      <use xlink:href="#DejaVuSans-65" x="63.476562"/>
      <use xlink:href="#DejaVuSans-74" x="125"/>
      <use xlink:href="#DejaVuSans-42" x="164.208984"/>
      <use xlink:href="#DejaVuSans-69" x="232.8125"/>
      <use xlink:href="#DejaVuSans-6c" x="260.595703"/>
      <use xlink:href="#DejaVuSans-6c" x="288.378906"/>
      <use xlink:href="#DejaVuSans-44" x="316.162109"/>
      <use xlink:href="#DejaVuSans-65" x="393.164062"/>
      <use xlink:href="#DejaVuSans-74" x="454.6875"/>
      <use xlink:href="#DejaVuSans-61" x="493.896484"/>
      <use xlink:href="#DejaVuSans-69" x="555.175781"/>
      <use xlink:href="#DejaVuSans-6c" x="582.958984"/>
      <use xlink:href="#DejaVuSans-73" x="610.742188"/>
     </g>
    </g>
   </g>
  </g>
  <g id="axes_2">
   <g id="patch_9">
    <path d="M 246.364842 201.7 
L 433.859684 201.7 
L 433.859684 10.8 
L 246.364842 10.8 
z
" style="fill: #ffffff"/>
   </g>
   <g id="PolyCollection_3">
    <defs>
     <path id="mbde5f37faa" d="M 293.781768 -23.629768 
L 292.695337 -23.629768 
L 291.109736 -24.441053 
L 287.295906 -25.252339 
L 281.008087 -26.063624 
L 273.469417 -26.87491 
L 265.943174 -27.686195 
L 259.330237 -28.497481 
L 255.739584 -29.308766 
L 256.549634 -30.120052 
L 259.683812 -30.931337 
L 263.116566 -31.742622 
L 267.60654 -32.553908 
L 273.28197 -33.365193 
L 278.414812 -34.176479 
L 282.136172 -34.987764 
L 284.748153 -35.79905 
L 286.401933 -36.610335 
L 287.232938 -37.421621 
L 287.606483 -38.232906 
L 287.750686 -39.044191 
L 287.761552 -39.855477 
L 287.777218 -40.666762 
L 287.903648 -41.478048 
L 288.230237 -42.289333 
L 288.817952 -43.100619 
L 289.492246 -43.911904 
L 289.903782 -44.72319 
L 289.904642 -45.534475 
L 289.689637 -46.345761 
L 289.516769 -47.157046 
L 289.43713 -47.968331 
L 289.374323 -48.779617 
L 289.36043 -49.590902 
L 289.588793 -50.402188 
L 290.174147 -51.213473 
L 290.960645 -52.024759 
L 291.676048 -52.836044 
L 292.149197 -53.64733 
L 292.335179 -54.458615 
L 292.235217 -55.2699 
L 291.88053 -56.081186 
L 291.402891 -56.892471 
L 291.035922 -57.703757 
L 290.985338 -58.515042 
L 291.29516 -59.326328 
L 291.813691 -60.137613 
L 292.259812 -60.948899 
L 292.395373 -61.760184 
L 292.210362 -62.571469 
L 291.907243 -63.382755 
L 291.702964 -64.19404 
L 291.691022 -65.005326 
L 291.861429 -65.816611 
L 292.149962 -66.627897 
L 292.402185 -67.439182 
L 292.406254 -68.250468 
L 292.116466 -69.061753 
L 291.759394 -69.873039 
L 291.596374 -70.684324 
L 291.6858 -71.495609 
L 291.948195 -72.306895 
L 292.308959 -73.11818 
L 292.688725 -73.929466 
L 292.978247 -74.740751 
L 293.105225 -75.552037 
L 293.069587 -76.363322 
L 292.919102 -77.174608 
L 292.73641 -77.985893 
L 292.607784 -78.797178 
L 292.584084 -79.608464 
L 292.682996 -80.419749 
L 292.870423 -81.231035 
L 293.048 -82.04232 
L 293.128333 -82.853606 
L 293.101654 -83.664891 
L 293.023315 -84.476177 
L 292.953589 -85.287462 
L 292.891954 -86.098748 
L 292.815863 -86.910033 
L 292.781634 -87.721318 
L 292.86364 -88.532604 
L 293.020795 -89.343889 
L 293.146714 -90.155175 
L 293.190826 -90.96646 
L 293.160218 -91.777746 
L 293.084728 -92.589031 
L 293.021795 -93.400317 
L 293.020333 -94.211602 
L 293.051809 -95.022887 
L 293.045633 -95.834173 
L 292.993249 -96.645458 
L 292.942004 -97.456744 
L 292.902111 -98.268029 
L 292.841599 -99.079315 
L 292.757581 -99.8906 
L 292.705984 -100.701886 
L 292.76127 -101.513171 
L 292.921061 -102.324457 
L 293.089288 -103.135742 
L 293.190116 -103.947027 
L 293.286989 -103.947027 
L 293.286989 -103.947027 
L 293.387817 -103.135742 
L 293.556044 -102.324457 
L 293.715835 -101.513171 
L 293.771121 -100.701886 
L 293.719524 -99.8906 
L 293.635506 -99.079315 
L 293.574994 -98.268029 
L 293.535101 -97.456744 
L 293.483856 -96.645458 
L 293.431472 -95.834173 
L 293.425296 -95.022887 
L 293.456772 -94.211602 
L 293.45531 -93.400317 
L 293.392377 -92.589031 
L 293.316887 -91.777746 
L 293.286279 -90.96646 
L 293.330391 -90.155175 
L 293.45631 -89.343889 
L 293.613465 -88.532604 
L 293.695471 -87.721318 
L 293.661242 -86.910033 
L 293.585151 -86.098748 
L 293.523516 -85.287462 
L 293.45379 -84.476177 
L 293.375451 -83.664891 
L 293.348772 -82.853606 
L 293.429105 -82.04232 
L 293.606683 -81.231035 
L 293.794109 -80.419749 
L 293.893021 -79.608464 
L 293.869321 -78.797178 
L 293.740695 -77.985893 
L 293.558003 -77.174608 
L 293.407518 -76.363322 
L 293.37188 -75.552037 
L 293.498858 -74.740751 
L 293.78838 -73.929466 
L 294.168146 -73.11818 
L 294.52891 -72.306895 
L 294.791305 -71.495609 
L 294.880731 -70.684324 
L 294.717711 -69.873039 
L 294.360639 -69.061753 
L 294.070851 -68.250468 
L 294.07492 -67.439182 
L 294.327143 -66.627897 
L 294.615676 -65.816611 
L 294.786084 -65.005326 
L 294.774141 -64.19404 
L 294.569862 -63.382755 
L 294.266743 -62.571469 
L 294.081732 -61.760184 
L 294.217294 -60.948899 
L 294.663415 -60.137613 
L 295.181945 -59.326328 
L 295.491767 -58.515042 
L 295.441183 -57.703757 
L 295.074214 -56.892471 
L 294.596575 -56.081186 
L 294.241888 -55.2699 
L 294.141926 -54.458615 
L 294.327908 -53.64733 
L 294.801057 -52.836044 
L 295.51646 -52.024759 
L 296.302958 -51.213473 
L 296.888312 -50.402188 
L 297.116675 -49.590902 
L 297.102782 -48.779617 
L 297.039975 -47.968331 
L 296.960336 -47.157046 
L 296.787468 -46.345761 
L 296.572464 -45.534475 
L 296.573323 -44.72319 
L 296.984859 -43.911904 
L 297.659153 -43.100619 
L 298.246868 -42.289333 
L 298.573457 -41.478048 
L 298.699887 -40.666762 
L 298.715554 -39.855477 
L 298.726419 -39.044191 
L 298.870622 -38.232906 
L 299.244167 -37.421621 
L 300.075172 -36.610335 
L 301.728953 -35.79905 
L 304.340933 -34.987764 
L 308.062293 -34.176479 
L 313.195135 -33.365193 
L 318.870565 -32.553908 
L 323.360539 -31.742622 
L 326.793293 -30.931337 
L 329.927471 -30.120052 
L 330.737521 -29.308766 
L 327.146868 -28.497481 
L 320.533931 -27.686195 
L 313.007688 -26.87491 
L 305.469018 -26.063624 
L 299.181199 -25.252339 
L 295.367369 -24.441053 
L 293.781768 -23.629768 
z
" style="stroke: #3a3a3a; stroke-width: 1.5"/>
    </defs>
    <g clip-path="url(#pd08c49106d)">
     <use xlink:href="#mbde5f37faa" x="0" y="216" style="fill: #3a8669; stroke: #3a3a3a; stroke-width: 1.5"/>
    </g>
   </g>
   <g id="PolyCollection_4">
    <defs>
     <path id="mbedfe962c1" d="M 387.160556 -29.514441 
L 386.811391 -29.514441 
L 386.397967 -30.392069 
L 385.851584 -31.269698 
L 385.732425 -32.147327 
L 386.192439 -33.024956 
L 386.696481 -33.902585 
L 386.904734 -34.780214 
L 386.827975 -35.657843 
L 386.321727 -36.535471 
L 384.957779 -37.4131 
L 382.067096 -38.290729 
L 377.033178 -39.168358 
L 371.074701 -40.045987 
L 367.244858 -40.923616 
L 366.227312 -41.801245 
L 366.462855 -42.678874 
L 368.01073 -43.556502 
L 370.660428 -44.434131 
L 372.143413 -45.31176 
L 371.964936 -46.189389 
L 372.407955 -47.067018 
L 373.505658 -47.944647 
L 371.433295 -48.822276 
L 363.817759 -49.699904 
L 354.317204 -50.577533 
L 349.487005 -51.455162 
L 350.8552 -52.332791 
L 353.429806 -53.21042 
L 353.951404 -54.088049 
L 355.641941 -54.965678 
L 360.464077 -55.843307 
L 363.649742 -56.720935 
L 361.289283 -57.598564 
L 357.023752 -58.476193 
L 355.979051 -59.353822 
L 357.460646 -60.231451 
L 358.527315 -61.10908 
L 359.899082 -61.986709 
L 363.491105 -62.864337 
L 368.56798 -63.741966 
L 373.669782 -64.619595 
L 377.26985 -65.497224 
L 378.16354 -66.374853 
L 377.278368 -67.252482 
L 376.661566 -68.130111 
L 377.280502 -69.00774 
L 378.829085 -69.885368 
L 380.373953 -70.762997 
L 381.44684 -71.640626 
L 382.736829 -72.518255 
L 384.561302 -73.395884 
L 386.000095 -74.273513 
L 386.333692 -75.151142 
L 385.66351 -76.02877 
L 384.651676 -76.906399 
L 383.994271 -77.784028 
L 383.264096 -78.661657 
L 382.011098 -79.539286 
L 381.804395 -80.416915 
L 383.519183 -81.294544 
L 385.187697 -82.172173 
L 385.279906 -83.049801 
L 384.614565 -83.92743 
L 384.669559 -84.805059 
L 385.497046 -85.682688 
L 385.824342 -86.560317 
L 384.77623 -87.437946 
L 383.075557 -88.315575 
L 382.421704 -89.193203 
L 383.095791 -90.070832 
L 384.065498 -90.948461 
L 385.000339 -91.82609 
L 385.952679 -92.703719 
L 386.632407 -93.581348 
L 386.912299 -94.458977 
L 386.976938 -95.336606 
L 386.985331 -96.214234 
L 386.985947 -97.091863 
L 386.985973 -97.969492 
L 386.985974 -98.847121 
L 386.985974 -99.72475 
L 386.985974 -100.602379 
L 386.985974 -101.480008 
L 386.985974 -102.357636 
L 386.985974 -103.235265 
L 386.985974 -104.112894 
L 386.985974 -104.990523 
L 386.985974 -105.868152 
L 386.985974 -106.745781 
L 386.985973 -107.62341 
L 386.985955 -108.501038 
L 386.985489 -109.378667 
L 386.978867 -110.256296 
L 386.926234 -111.133925 
L 386.698306 -112.011554 
L 386.19253 -112.889183 
L 385.732428 -113.766812 
L 385.851584 -114.644441 
L 386.397967 -115.522069 
L 386.811391 -116.399698 
L 387.160556 -116.399698 
L 387.160556 -116.399698 
L 387.57398 -115.522069 
L 388.120363 -114.644441 
L 388.239519 -113.766812 
L 387.779417 -112.889183 
L 387.273641 -112.011554 
L 387.045713 -111.133925 
L 386.99308 -110.256296 
L 386.986458 -109.378667 
L 386.985992 -108.501038 
L 386.985974 -107.62341 
L 386.985974 -106.745781 
L 386.985974 -105.868152 
L 386.985974 -104.990523 
L 386.985974 -104.112894 
L 386.985974 -103.235265 
L 386.985974 -102.357636 
L 386.985974 -101.480008 
L 386.985974 -100.602379 
L 386.985974 -99.72475 
L 386.985974 -98.847121 
L 386.985974 -97.969492 
L 386.986 -97.091863 
L 386.986616 -96.214234 
L 386.995009 -95.336606 
L 387.059648 -94.458977 
L 387.33954 -93.581348 
L 388.019268 -92.703719 
L 388.971608 -91.82609 
L 389.906449 -90.948461 
L 390.876156 -90.070832 
L 391.550244 -89.193203 
L 390.896391 -88.315575 
L 389.195717 -87.437946 
L 388.147605 -86.560317 
L 388.474901 -85.682688 
L 389.302388 -84.805059 
L 389.357383 -83.92743 
L 388.692042 -83.049801 
L 388.78425 -82.172173 
L 390.452764 -81.294544 
L 392.167552 -80.416915 
L 391.960849 -79.539286 
L 390.707851 -78.661657 
L 389.977676 -77.784028 
L 389.320271 -76.906399 
L 388.308437 -76.02877 
L 387.638255 -75.151142 
L 387.971853 -74.273513 
L 389.410645 -73.395884 
L 391.235118 -72.518255 
L 392.525107 -71.640626 
L 393.597994 -70.762997 
L 395.142862 -69.885368 
L 396.691445 -69.00774 
L 397.310381 -68.130111 
L 396.693579 -67.252482 
L 395.808407 -66.374853 
L 396.702097 -65.497224 
L 400.302166 -64.619595 
L 405.403967 -63.741966 
L 410.480842 -62.864337 
L 414.072865 -61.986709 
L 415.444632 -61.10908 
L 416.511301 -60.231451 
L 417.992896 -59.353822 
L 416.948195 -58.476193 
L 412.682664 -57.598564 
L 410.322205 -56.720935 
L 413.50787 -55.843307 
L 418.330006 -54.965678 
L 420.020543 -54.088049 
L 420.542142 -53.21042 
L 423.116748 -52.332791 
L 424.484942 -51.455162 
L 419.654743 -50.577533 
L 410.154188 -49.699904 
L 402.538652 -48.822276 
L 400.466289 -47.944647 
L 401.563992 -47.067018 
L 402.007011 -46.189389 
L 401.828534 -45.31176 
L 403.311519 -44.434131 
L 405.961217 -43.556502 
L 407.509092 -42.678874 
L 407.744635 -41.801245 
L 406.727089 -40.923616 
L 402.897246 -40.045987 
L 396.938769 -39.168358 
L 391.904851 -38.290729 
L 389.014168 -37.4131 
L 387.65022 -36.535471 
L 387.143972 -35.657843 
L 387.067213 -34.780214 
L 387.275466 -33.902585 
L 387.779508 -33.024956 
L 388.239522 -32.147327 
L 388.120363 -31.269698 
L 387.57398 -30.392069 
L 387.160556 -29.514441 
z
" style="stroke: #3a3a3a; stroke-width: 1.5"/>
    </defs>
    <g clip-path="url(#pd08c49106d)">
     <use xlink:href="#mbedfe962c1" x="0" y="216" style="fill: #b0a357; stroke: #3a3a3a; stroke-width: 1.5"/>
    </g>
   </g>
   <g id="matplotlib.axis_3">
    <g id="xtick_3">
     <g id="line2d_18">
      <g>
       <use xlink:href="#mfde5fced47" x="293.238553" y="201.7" style="stroke: #000000; stroke-width: 0.8"/>
      </g>
     </g>
    </g>
    <g id="xtick_4">
     <g id="line2d_19">
      <g>
       <use xlink:href="#mfde5fced47" x="386.985974" y="201.7" style="stroke: #000000; stroke-width: 0.8"/>
      </g>
     </g>
    </g>
   </g>
   <g id="matplotlib.axis_4">
    <g id="ytick_10">
     <g id="line2d_20">
      <g>
       <use xlink:href="#m967a5095a5" x="246.364842" y="193.318826" style="stroke: #000000; stroke-width: 0.8"/>
      </g>
     </g>
    </g>
    <g id="ytick_11">
     <g id="line2d_21">
      <g>
       <use xlink:href="#m967a5095a5" x="246.364842" y="172.013675" style="stroke: #000000; stroke-width: 0.8"/>
      </g>
     </g>
    </g>
    <g id="ytick_12">
     <g id="line2d_22">
      <g>
       <use xlink:href="#m967a5095a5" x="246.364842" y="150.708524" style="stroke: #000000; stroke-width: 0.8"/>
      </g>
     </g>
    </g>
    <g id="ytick_13">
     <g id="line2d_23">
      <g>
       <use xlink:href="#m967a5095a5" x="246.364842" y="129.403373" style="stroke: #000000; stroke-width: 0.8"/>
      </g>
     </g>
    </g>
    <g id="ytick_14">
     <g id="line2d_24">
      <g>
       <use xlink:href="#m967a5095a5" x="246.364842" y="108.098222" style="stroke: #000000; stroke-width: 0.8"/>
      </g>
     </g>
    </g>
    <g id="ytick_15">
     <g id="line2d_25">
      <g>
       <use xlink:href="#m967a5095a5" x="246.364842" y="86.793071" style="stroke: #000000; stroke-width: 0.8"/>
      </g>
     </g>
    </g>
    <g id="ytick_16">
     <g id="line2d_26">
      <g>
       <use xlink:href="#m967a5095a5" x="246.364842" y="65.48792" style="stroke: #000000; stroke-width: 0.8"/>
      </g>
     </g>
    </g>
    <g id="ytick_17">
     <g id="line2d_27">
      <g>
       <use xlink:href="#m967a5095a5" x="246.364842" y="44.182769" style="stroke: #000000; stroke-width: 0.8"/>
      </g>
     </g>
    </g>
    <g id="ytick_18">
     <g id="line2d_28">
      <g>
       <use xlink:href="#m967a5095a5" x="246.364842" y="22.877618" style="stroke: #000000; stroke-width: 0.8"/>
      </g>
     </g>
    </g>
   </g>
   <g id="line2d_29">
    <path d="M 293.238553 189.782171 
L 293.238553 163.463918 
" clip-path="url(#pd08c49106d)" style="fill: none; stroke: #3a3a3a; stroke-width: 1.5; stroke-linecap: square"/>
   </g>
   <g id="line2d_30">
    <path d="M 293.238553 186.688663 
L 293.238553 177.194022 
" clip-path="url(#pd08c49106d)" style="fill: none; stroke: #3a3a3a; stroke-width: 4.5; stroke-linecap: square"/>
   </g>
   <g id="line2d_31">
    <path d="M 386.985974 177.827851 
L 386.985974 138.15979 
" clip-path="url(#pd08c49106d)" style="fill: none; stroke: #3a3a3a; stroke-width: 1.5; stroke-linecap: square"/>
   </g>
   <g id="line2d_32">
    <path d="M 386.985974 165.854888 
L 386.985974 154.203101 
" clip-path="url(#pd08c49106d)" style="fill: none; stroke: #3a3a3a; stroke-width: 4.5; stroke-linecap: square"/>
   </g>
   <g id="patch_10">
    <path d="M 246.364842 201.7 
L 246.364842 10.8 
" style="fill: none; stroke: #000000; stroke-width: 0.8; stroke-linejoin: miter; stroke-linecap: square"/>
   </g>
   <g id="patch_11">
    <path d="M 433.859684 201.7 
L 433.859684 10.8 
" style="fill: none; stroke: #000000; stroke-width: 0.8; stroke-linejoin: miter; stroke-linecap: square"/>
   </g>
   <g id="patch_12">
    <path d="M 246.364842 201.7 
L 433.859684 201.7 
" style="fill: none; stroke: #000000; stroke-width: 0.8; stroke-linejoin: miter; stroke-linecap: square"/>
   </g>
   <g id="patch_13">
    <path d="M 246.364842 10.8 
L 433.859684 10.8 
" style="fill: none; stroke: #000000; stroke-width: 0.8; stroke-linejoin: miter; stroke-linecap: square"/>
   </g>
   <g id="PathCollection_3">
    <g clip-path="url(#pd08c49106d)">
     <use xlink:href="#m099fd3ff6f" x="293.238553" y="184.142697" style="fill: #ffffff; stroke: #3a3a3a"/>
    </g>
   </g>
   <g id="PathCollection_4">
    <g clip-path="url(#pd08c49106d)">
     <use xlink:href="#m099fd3ff6f" x="386.985974" y="161.112894" style="fill: #ffffff; stroke: #3a3a3a"/>
    </g>
   </g>
   <g id="text_14">
    <g id="patch_14">
     <path d="M 392.360716 32.03425 
L 425.480716 32.03425 
L 425.480716 16.29175 
L 392.360716 16.29175 
z
" style="fill: #ffffff; opacity: 0.2; stroke: #000000; stroke-linejoin: miter"/>
    </g>
    <!-- $n = 42$ -->
    <g transform="translate(396.360716 26.3705) scale(0.08 -0.08)">
     <use xlink:href="#DejaVuSans-Oblique-6e" transform="translate(0 0.78125)"/>
     <use xlink:href="#DejaVuSans-3d" transform="translate(82.861328 0.78125)"/>
     <use xlink:href="#DejaVuSans-34" transform="translate(186.132812 0.78125)"/>
     <use xlink:href="#DejaVuSans-32" transform="translate(249.755859 0.78125)"/>
    </g>
   </g>
  </g>
  <g id="axes_3">
   <g id="patch_15">
    <path d="M 448.159684 201.7 
L 635.654526 201.7 
L 635.654526 10.8 
L 448.159684 10.8 
z
" style="fill: #ffffff"/>
   </g>
   <g id="PolyCollection_5">
    <defs>
     <path id="md20beb8d9b" d="M 495.677012 -22.977273 
L 494.389777 -22.977273 
L 492.476629 -24.730257 
L 487.625923 -26.483242 
L 478.998095 -28.236226 
L 468.48847 -29.98921 
L 460.410583 -31.742195 
L 457.534426 -33.495179 
L 458.339963 -35.248163 
L 459.688511 -37.001148 
L 460.713414 -38.754132 
L 462.751764 -40.507117 
L 466.857177 -42.260101 
L 472.446 -44.013085 
L 477.851812 -45.76607 
L 481.828655 -47.519054 
L 484.343134 -49.272039 
L 485.983746 -51.025023 
L 487.165057 -52.778007 
L 487.997763 -54.530992 
L 488.534495 -56.283976 
L 488.917021 -58.036961 
L 489.279937 -59.789945 
L 489.620316 -61.542929 
L 489.863256 -63.295914 
L 490.046332 -65.048898 
L 490.311724 -66.801882 
L 490.634152 -68.554867 
L 490.787691 -70.307851 
L 490.784594 -72.060836 
L 491.007688 -73.81382 
L 491.634032 -75.566804 
L 492.365437 -77.319789 
L 492.895626 -79.072773 
L 493.185217 -80.825758 
L 493.259032 -82.578742 
L 493.109381 -84.331726 
L 492.792138 -86.084711 
L 492.411681 -87.837695 
L 492.061616 -89.59068 
L 491.865694 -91.343664 
L 491.878198 -93.096648 
L 491.93815 -94.849633 
L 491.892903 -96.602617 
L 491.844645 -98.355601 
L 491.978099 -100.108586 
L 492.279619 -101.86157 
L 492.561596 -103.614555 
L 492.702581 -105.367539 
L 492.753539 -107.120523 
L 492.851839 -108.873508 
L 493.078419 -110.626492 
L 493.388297 -112.379477 
L 493.684286 -114.132461 
L 493.914722 -115.885445 
L 494.069662 -117.63843 
L 494.171665 -119.391414 
L 494.294117 -121.144399 
L 494.475183 -122.897383 
L 494.65541 -124.650367 
L 494.762679 -126.403352 
L 494.774941 -128.156336 
L 494.721008 -129.90932 
L 494.668717 -131.662305 
L 494.66399 -133.415289 
L 494.701325 -135.168274 
L 494.757442 -136.921258 
L 494.787372 -138.674242 
L 494.72644 -140.427227 
L 494.561031 -142.180211 
L 494.359848 -143.933196 
L 494.213521 -145.68618 
L 494.169365 -147.439164 
L 494.214946 -149.192149 
L 494.311394 -150.945133 
L 494.423557 -152.698118 
L 494.522094 -154.451102 
L 494.590656 -156.204086 
L 494.613434 -157.957071 
L 494.568821 -159.710055 
L 494.472138 -161.463039 
L 494.382924 -163.216024 
L 494.354122 -164.969008 
L 494.405733 -166.721993 
L 494.531038 -168.474977 
L 494.698987 -170.227961 
L 494.857808 -171.980946 
L 494.964289 -173.73393 
L 495.013786 -175.486915 
L 495.029215 -177.239899 
L 495.030623 -178.992883 
L 495.021862 -180.745868 
L 494.993359 -182.498852 
L 494.935478 -184.251837 
L 494.855381 -186.004821 
L 494.774609 -187.757805 
L 494.722762 -189.51079 
L 494.738875 -191.263774 
L 494.828384 -193.016758 
L 494.93396 -194.769743 
L 495.000665 -196.522727 
L 495.066124 -196.522727 
L 495.066124 -196.522727 
L 495.132829 -194.769743 
L 495.238405 -193.016758 
L 495.327914 -191.263774 
L 495.344027 -189.51079 
L 495.29218 -187.757805 
L 495.211408 -186.004821 
L 495.131311 -184.251837 
L 495.07343 -182.498852 
L 495.044927 -180.745868 
L 495.036166 -178.992883 
L 495.037574 -177.239899 
L 495.053003 -175.486915 
L 495.1025 -173.73393 
L 495.208981 -171.980946 
L 495.367803 -170.227961 
L 495.535752 -168.474977 
L 495.661056 -166.721993 
L 495.712667 -164.969008 
L 495.683865 -163.216024 
L 495.594651 -161.463039 
L 495.497968 -159.710055 
L 495.453355 -157.957071 
L 495.476133 -156.204086 
L 495.544695 -154.451102 
L 495.643232 -152.698118 
L 495.755395 -150.945133 
L 495.851843 -149.192149 
L 495.897424 -147.439164 
L 495.853268 -145.68618 
L 495.706941 -143.933196 
L 495.505758 -142.180211 
L 495.340349 -140.427227 
L 495.279417 -138.674242 
L 495.309347 -136.921258 
L 495.365464 -135.168274 
L 495.402799 -133.415289 
L 495.398072 -131.662305 
L 495.345781 -129.90932 
L 495.291848 -128.156336 
L 495.30411 -126.403352 
L 495.411379 -124.650367 
L 495.591606 -122.897383 
L 495.772672 -121.144399 
L 495.895124 -119.391414 
L 495.997127 -117.63843 
L 496.152068 -115.885445 
L 496.382503 -114.132461 
L 496.678492 -112.379477 
L 496.98837 -110.626492 
L 497.21495 -108.873508 
L 497.31325 -107.120523 
L 497.364208 -105.367539 
L 497.505193 -103.614555 
L 497.78717 -101.86157 
L 498.088691 -100.108586 
L 498.222144 -98.355601 
L 498.173887 -96.602617 
L 498.128639 -94.849633 
L 498.188591 -93.096648 
L 498.201096 -91.343664 
L 498.005173 -89.59068 
L 497.655108 -87.837695 
L 497.274651 -86.084711 
L 496.957408 -84.331726 
L 496.807757 -82.578742 
L 496.881572 -80.825758 
L 497.171163 -79.072773 
L 497.701353 -77.319789 
L 498.432757 -75.566804 
L 499.059101 -73.81382 
L 499.282195 -72.060836 
L 499.279098 -70.307851 
L 499.432638 -68.554867 
L 499.755065 -66.801882 
L 500.020457 -65.048898 
L 500.203533 -63.295914 
L 500.446474 -61.542929 
L 500.786852 -59.789945 
L 501.149768 -58.036961 
L 501.532294 -56.283976 
L 502.069026 -54.530992 
L 502.901733 -52.778007 
L 504.083043 -51.025023 
L 505.723655 -49.272039 
L 508.238135 -47.519054 
L 512.214977 -45.76607 
L 517.620789 -44.013085 
L 523.209613 -42.260101 
L 527.315025 -40.507117 
L 529.353375 -38.754132 
L 530.378278 -37.001148 
L 531.726826 -35.248163 
L 532.532363 -33.495179 
L 529.656206 -31.742195 
L 521.578319 -29.98921 
L 511.068695 -28.236226 
L 502.440866 -26.483242 
L 497.59016 -24.730257 
L 495.677012 -22.977273 
z
" style="stroke: #3a3a3a; stroke-width: 1.5"/>
    </defs>
    <g clip-path="url(#p2a6b3a1421)">
     <use xlink:href="#md20beb8d9b" x="0" y="216" style="fill: #3a8669; stroke: #3a3a3a; stroke-width: 1.5"/>
    </g>
   </g>
   <g id="PolyCollection_6">
    <defs>
     <path id="mcf8704d945" d="M 588.841935 -27.961563 
L 588.719696 -27.961563 
L 588.598054 -28.611437 
L 588.424919 -29.26131 
L 588.329479 -29.911184 
L 588.408069 -30.561057 
L 588.580339 -31.210931 
L 588.710597 -31.860804 
L 588.764795 -32.510678 
L 588.778346 -33.160551 
L 588.778938 -33.810425 
L 588.76081 -34.460299 
L 588.618302 -35.110172 
L 587.886395 -35.760046 
L 585.391998 -36.409919 
L 579.717074 -37.059793 
L 571.08373 -37.709666 
L 562.626115 -38.35954 
L 558.699043 -39.009413 
L 561.464196 -39.659287 
L 568.911529 -40.30916 
L 576.692933 -40.959034 
L 581.999169 -41.608907 
L 584.828549 -42.258781 
L 586.326078 -42.908654 
L 587.219212 -43.558528 
L 587.453382 -44.208402 
L 586.367077 -44.858275 
L 583.098827 -45.508149 
L 577.301887 -46.158022 
L 569.617796 -46.807896 
L 561.529421 -47.457769 
L 555.351866 -48.107643 
L 553.954256 -48.757516 
L 558.322253 -49.40739 
L 565.712762 -50.057263 
L 572.557276 -50.707137 
L 577.619547 -51.35701 
L 581.10418 -52.006884 
L 583.13044 -52.656758 
L 583.008688 -53.306631 
L 578.835343 -53.956505 
L 569.545377 -54.606378 
L 558.256538 -55.256252 
L 551.281847 -55.906125 
L 552.35471 -56.555999 
L 559.469436 -57.205872 
L 568.106124 -57.855746 
L 575.48454 -58.505619 
L 580.972193 -59.155493 
L 584.452222 -59.805366 
L 585.932303 -60.45524 
L 585.95503 -61.105114 
L 584.977487 -61.754987 
L 582.625088 -62.404861 
L 578.539969 -63.054734 
L 573.8437 -63.704608 
L 570.907242 -64.354481 
L 571.33871 -65.004355 
L 574.715768 -65.654228 
L 579.36004 -66.304102 
L 583.585433 -66.953975 
L 586.370723 -67.603849 
L 587.636613 -68.253722 
L 587.988324 -68.903596 
L 588.052721 -69.55347 
L 588.119363 -70.203343 
L 588.191794 -70.853217 
L 588.087326 -71.50309 
L 587.645585 -72.152964 
L 586.994707 -72.802837 
L 586.554431 -73.452711 
L 586.689975 -74.102584 
L 587.327715 -74.752458 
L 588.04255 -75.402331 
L 588.510376 -76.052205 
L 588.709721 -76.702078 
L 588.758933 -77.351952 
L 588.722319 -78.001826 
L 588.543872 -78.651699 
L 588.104242 -79.301573 
L 587.427158 -79.951446 
L 586.829172 -80.60132 
L 586.668932 -81.251193 
L 586.989257 -81.901067 
L 587.567579 -82.55094 
L 588.142205 -83.200814 
L 588.532798 -83.850687 
L 588.71296 -84.500561 
L 588.767439 -85.150434 
L 588.772883 -85.800308 
L 588.743921 -86.450181 
L 588.637659 -87.100055 
L 588.397471 -87.749929 
L 588.051446 -88.399802 
L 587.755787 -89.049676 
L 587.684371 -89.699549 
L 587.885538 -90.349423 
L 588.236899 -90.999296 
L 588.543915 -91.64917 
L 588.709244 -92.299043 
L 588.852387 -92.299043 
L 588.852387 -92.299043 
L 589.017716 -91.64917 
L 589.324732 -90.999296 
L 589.676093 -90.349423 
L 589.87726 -89.699549 
L 589.805844 -89.049676 
L 589.510185 -88.399802 
L 589.16416 -87.749929 
L 588.923972 -87.100055 
L 588.81771 -86.450181 
L 588.788748 -85.800308 
L 588.794192 -85.150434 
L 588.848671 -84.500561 
L 589.028833 -83.850687 
L 589.419426 -83.200814 
L 589.994053 -82.55094 
L 590.572374 -81.901067 
L 590.892699 -81.251193 
L 590.732459 -80.60132 
L 590.134473 -79.951446 
L 589.457389 -79.301573 
L 589.017759 -78.651699 
L 588.839312 -78.001826 
L 588.802698 -77.351952 
L 588.85191 -76.702078 
L 589.051255 -76.052205 
L 589.519081 -75.402331 
L 590.233916 -74.752458 
L 590.871656 -74.102584 
L 591.0072 -73.452711 
L 590.566924 -72.802837 
L 589.916046 -72.152964 
L 589.474306 -71.50309 
L 589.369838 -70.853217 
L 589.442268 -70.203343 
L 589.50891 -69.55347 
L 589.573307 -68.903596 
L 589.925018 -68.253722 
L 591.190908 -67.603849 
L 593.976198 -66.953975 
L 598.201591 -66.304102 
L 602.845863 -65.654228 
L 606.222922 -65.004355 
L 606.654389 -64.354481 
L 603.717931 -63.704608 
L 599.021662 -63.054734 
L 594.936543 -62.404861 
L 592.584144 -61.754987 
L 591.606601 -61.105114 
L 591.629328 -60.45524 
L 593.109409 -59.805366 
L 596.589438 -59.155493 
L 602.077091 -58.505619 
L 609.455508 -57.855746 
L 618.092195 -57.205872 
L 625.206921 -56.555999 
L 626.279784 -55.906125 
L 619.305093 -55.256252 
L 608.016254 -54.606378 
L 598.726288 -53.956505 
L 594.552943 -53.306631 
L 594.431191 -52.656758 
L 596.457451 -52.006884 
L 599.942084 -51.35701 
L 605.004355 -50.707137 
L 611.848869 -50.057263 
L 619.239378 -49.40739 
L 623.607375 -48.757516 
L 622.209765 -48.107643 
L 616.03221 -47.457769 
L 607.943835 -46.807896 
L 600.259744 -46.158022 
L 594.462804 -45.508149 
L 591.194554 -44.858275 
L 590.108249 -44.208402 
L 590.342419 -43.558528 
L 591.235553 -42.908654 
L 592.733082 -42.258781 
L 595.562462 -41.608907 
L 600.868698 -40.959034 
L 608.650102 -40.30916 
L 616.097435 -39.659287 
L 618.862588 -39.009413 
L 614.935516 -38.35954 
L 606.477901 -37.709666 
L 597.844558 -37.059793 
L 592.169633 -36.409919 
L 589.675236 -35.760046 
L 588.943329 -35.110172 
L 588.800821 -34.460299 
L 588.782693 -33.810425 
L 588.783285 -33.160551 
L 588.796836 -32.510678 
L 588.851034 -31.860804 
L 588.981292 -31.210931 
L 589.153562 -30.561057 
L 589.232152 -29.911184 
L 589.136712 -29.26131 
L 588.963577 -28.611437 
L 588.841935 -27.961563 
z
" style="stroke: #3a3a3a; stroke-width: 1.5"/>
    </defs>
    <g clip-path="url(#p2a6b3a1421)">
     <use xlink:href="#mcf8704d945" x="0" y="216" style="fill: #b0a357; stroke: #3a3a3a; stroke-width: 1.5"/>
    </g>
   </g>
   <g id="matplotlib.axis_5">
    <g id="xtick_5">
     <g id="line2d_33">
      <g>
       <use xlink:href="#mfde5fced47" x="495.033395" y="201.7" style="stroke: #000000; stroke-width: 0.8"/>
      </g>
     </g>
    </g>
    <g id="xtick_6">
     <g id="line2d_34">
      <g>
       <use xlink:href="#mfde5fced47" x="588.780816" y="201.7" style="stroke: #000000; stroke-width: 0.8"/>
      </g>
     </g>
    </g>
   </g>
   <g id="matplotlib.axis_6">
    <g id="ytick_19">
     <g id="line2d_35">
      <g>
       <use xlink:href="#m967a5095a5" x="448.159684" y="193.318826" style="stroke: #000000; stroke-width: 0.8"/>
      </g>
     </g>
    </g>
    <g id="ytick_20">
     <g id="line2d_36">
      <g>
       <use xlink:href="#m967a5095a5" x="448.159684" y="172.013675" style="stroke: #000000; stroke-width: 0.8"/>
      </g>
     </g>
    </g>
    <g id="ytick_21">
     <g id="line2d_37">
      <g>
       <use xlink:href="#m967a5095a5" x="448.159684" y="150.708524" style="stroke: #000000; stroke-width: 0.8"/>
      </g>
     </g>
    </g>
    <g id="ytick_22">
     <g id="line2d_38">
      <g>
       <use xlink:href="#m967a5095a5" x="448.159684" y="129.403373" style="stroke: #000000; stroke-width: 0.8"/>
      </g>
     </g>
    </g>
    <g id="ytick_23">
     <g id="line2d_39">
      <g>
       <use xlink:href="#m967a5095a5" x="448.159684" y="108.098222" style="stroke: #000000; stroke-width: 0.8"/>
      </g>
     </g>
    </g>
    <g id="ytick_24">
     <g id="line2d_40">
      <g>
       <use xlink:href="#m967a5095a5" x="448.159684" y="86.793071" style="stroke: #000000; stroke-width: 0.8"/>
      </g>
     </g>
    </g>
    <g id="ytick_25">
     <g id="line2d_41">
      <g>
       <use xlink:href="#m967a5095a5" x="448.159684" y="65.48792" style="stroke: #000000; stroke-width: 0.8"/>
      </g>
     </g>
    </g>
    <g id="ytick_26">
     <g id="line2d_42">
      <g>
       <use xlink:href="#m967a5095a5" x="448.159684" y="44.182769" style="stroke: #000000; stroke-width: 0.8"/>
      </g>
     </g>
    </g>
    <g id="ytick_27">
     <g id="line2d_43">
      <g>
       <use xlink:href="#m967a5095a5" x="448.159684" y="22.877618" style="stroke: #000000; stroke-width: 0.8"/>
      </g>
     </g>
    </g>
   </g>
   <g id="line2d_44">
    <path d="M 495.033395 187.530216 
L 495.033395 126.094683 
" clip-path="url(#p2a6b3a1421)" style="fill: none; stroke: #3a3a3a; stroke-width: 1.5; stroke-linecap: square"/>
   </g>
   <g id="line2d_45">
    <path d="M 495.033395 181.526425 
L 495.033395 159.252955 
" clip-path="url(#p2a6b3a1421)" style="fill: none; stroke: #3a3a3a; stroke-width: 4.5; stroke-linecap: square"/>
   </g>
   <g id="line2d_46">
    <path d="M 588.780816 178.345566 
L 588.780816 143.490339 
" clip-path="url(#p2a6b3a1421)" style="fill: none; stroke: #3a3a3a; stroke-width: 1.5; stroke-linecap: square"/>
   </g>
   <g id="line2d_47">
    <path d="M 588.780816 169.122566 
L 588.780816 158.846026 
" clip-path="url(#p2a6b3a1421)" style="fill: none; stroke: #3a3a3a; stroke-width: 4.5; stroke-linecap: square"/>
   </g>
   <g id="patch_16">
    <path d="M 448.159684 201.7 
L 448.159684 10.8 
" style="fill: none; stroke: #000000; stroke-width: 0.8; stroke-linejoin: miter; stroke-linecap: square"/>
   </g>
   <g id="patch_17">
    <path d="M 635.654526 201.7 
L 635.654526 10.8 
" style="fill: none; stroke: #000000; stroke-width: 0.8; stroke-linejoin: miter; stroke-linecap: square"/>
   </g>
   <g id="patch_18">
    <path d="M 448.159684 201.7 
L 635.654526 201.7 
" style="fill: none; stroke: #000000; stroke-width: 0.8; stroke-linejoin: miter; stroke-linecap: square"/>
   </g>
   <g id="patch_19">
    <path d="M 448.159684 10.8 
L 635.654526 10.8 
" style="fill: none; stroke: #000000; stroke-width: 0.8; stroke-linejoin: miter; stroke-linecap: square"/>
   </g>
   <g id="PathCollection_5">
    <g clip-path="url(#p2a6b3a1421)">
     <use xlink:href="#m099fd3ff6f" x="495.033395" y="175.373497" style="fill: #ffffff; stroke: #3a3a3a"/>
    </g>
   </g>
   <g id="PathCollection_6">
    <g clip-path="url(#p2a6b3a1421)">
     <use xlink:href="#m099fd3ff6f" x="588.780816" y="165.012802" style="fill: #ffffff; stroke: #3a3a3a"/>
    </g>
   </g>
   <g id="text_15">
    <g id="patch_20">
     <path d="M 594.155558 32.03425 
L 632.395558 32.03425 
L 632.395558 16.29175 
L 594.155558 16.29175 
z
" style="fill: #ffffff; opacity: 0.2; stroke: #000000; stroke-linejoin: miter"/>
    </g>
    <!-- $n = 100$ -->
    <g transform="translate(598.155558 26.3705) scale(0.08 -0.08)">
     <use xlink:href="#DejaVuSans-Oblique-6e" transform="translate(0 0.78125)"/>
     <use xlink:href="#DejaVuSans-3d" transform="translate(82.861328 0.78125)"/>
     <use xlink:href="#DejaVuSans-31" transform="translate(186.132812 0.78125)"/>
     <use xlink:href="#DejaVuSans-30" transform="translate(249.755859 0.78125)"/>
     <use xlink:href="#DejaVuSans-30" transform="translate(313.378906 0.78125)"/>
    </g>
   </g>
  </g>
 </g>
 <defs>
  <clipPath id="pefa20109be">
   <rect x="44.57" y="10.8" width="187.494842" height="190.9"/>
  </clipPath>
  <clipPath id="pd08c49106d">
   <rect x="246.364842" y="10.8" width="187.494842" height="190.9"/>
  </clipPath>
  <clipPath id="p2a6b3a1421">
   <rect x="448.159684" y="10.8" width="187.494842" height="190.9"/>
  </clipPath>
 </defs>
</svg>
