<?xml version="1.0" encoding="utf-8" standalone="no"?>
<!DOCTYPE svg PUBLIC "-//W3C//DTD SVG 1.1//EN"
  "http://www.w3.org/Graphics/SVG/1.1/DTD/svg11.dtd">
<svg xmlns:xlink="http://www.w3.org/1999/xlink" width="432pt" height="288pt" viewBox="0 0 432 288" xmlns="http://www.w3.org/2000/svg" version="1.1">
 <metadata>
  <rdf:RDF xmlns:dc="http://purl.org/dc/elements/1.1/" xmlns:cc="http://creativecommons.org/ns#" xmlns:rdf="http://www.w3.org/1999/02/22-rdf-syntax-ns#">
   <cc:Work>
    <dc:type rdf:resource="http://purl.org/dc/dcmitype/StillImage"/>
    <dc:date>2025-02-28T19:05:51.715133</dc:date>
    <dc:format>image/svg+xml</dc:format>
    <dc:creator>
     <cc:Agent>
      <dc:title>Matplotlib v3.7.2, https://matplotlib.org/</dc:title>
     </cc:Agent>
    </dc:creator>
   </cc:Work>
  </rdf:RDF>
 </metadata>
 <defs>
  <style type="text/css">*{stroke-linejoin: round; stroke-linecap: butt}</style>
 </defs>
 <g id="figure_1">
  <g id="patch_1">
   <path d="M 0 288 
L 432 288 
L 432 0 
L 0 0 
z
" style="fill: #ffffff"/>
  </g>
  <g id="axes_1">
   <g id="patch_2">
    <path d="M 66.17 259.3 
L 174.98 259.3 
L 174.98 25.2 
L 66.17 25.2 
z
" style="fill: #ffffff"/>
   </g>
   <g id="PolyCollection_1">
    <defs>
     <path id="ma7dd1dde1d" d="M 82.954406 -51.951009 
L 82.104685 -51.951009 
L 81.911118 -52.463864 
L 81.660564 -52.976719 
L 81.35082 -53.489575 
L 80.986083 -54.00243 
L 80.578522 -54.515285 
L 80.148805 -55.02814 
L 79.725108 -55.540996 
L 79.340475 -56.053851 
L 79.028742 -56.566706 
L 78.819691 -57.079561 
L 78.734371 -57.592417 
L 78.781607 -58.105272 
L 78.956497 -58.618127 
L 79.241249 -59.130982 
L 79.608163 -59.643838 
L 80.024067 -60.156693 
L 80.455219 -60.669548 
L 80.871687 -61.182403 
L 81.250458 -61.695259 
L 81.576892 -62.208114 
L 81.844608 -62.720969 
L 82.05416 -63.233824 
L 82.211038 -63.746679 
L 82.323544 -64.259535 
L 82.400929 -64.77239 
L 82.452029 -65.285245 
L 82.484446 -65.7981 
L 82.504217 -66.310956 
L 82.515814 -66.823811 
L 82.522359 -67.336666 
L 82.525915 -67.849521 
L 82.527775 -68.362377 
L 82.52871 -68.875232 
L 82.529162 -69.388087 
L 82.529365 -69.900942 
L 82.529438 -70.413798 
L 82.529423 -70.926653 
L 82.529304 -71.439508 
L 82.528998 -71.952363 
L 82.528305 -72.465219 
L 82.526821 -72.978074 
L 82.523765 -73.490929 
L 82.517706 -74.003784 
L 82.506143 -74.51664 
L 82.484904 -75.029495 
L 82.447364 -75.54235 
L 82.383543 -76.055205 
L 82.27922 -76.568061 
L 82.11535 -77.080916 
L 81.86815 -77.593771 
L 81.510316 -78.106626 
L 81.013756 -78.619482 
L 80.35403 -79.132337 
L 79.516251 -79.645192 
L 78.501656 -80.158047 
L 77.333533 -80.670903 
L 76.060805 -81.183758 
L 74.757661 -81.696613 
L 73.518187 -82.209468 
L 72.446037 -82.722324 
L 71.640475 -83.235179 
L 71.181318 -83.748034 
L 71.115909 -84.260889 
L 71.451066 -84.773745 
L 72.151882 -85.2866 
L 73.147668 -85.799455 
L 74.3436 -86.31231 
L 75.635395 -86.825166 
L 76.923802 -87.338021 
L 78.126139 -87.850876 
L 79.183079 -88.363731 
L 80.060269 -88.876587 
L 80.745573 -89.389442 
L 81.243478 -89.902297 
L 81.568536 -90.415152 
L 81.739426 -90.928008 
L 81.774769 -91.440863 
L 81.691169 -91.953718 
L 81.503374 -92.466573 
L 81.226015 -92.979429 
L 80.876061 -93.492284 
L 80.475068 -94.005139 
L 80.050343 -94.517994 
L 79.634453 -95.03085 
L 79.262888 -95.543705 
L 78.970208 -96.05656 
L 78.785418 -96.569415 
L 78.727621 -97.082271 
L 78.802971 -97.595126 
L 79.00371 -98.107981 
L 79.309536 -98.620836 
L 79.691014 -99.133692 
L 80.114246 -99.646547 
L 80.545789 -100.159402 
L 80.956847 -100.672257 
L 81.326057 -101.185113 
L 81.640596 -101.697968 
L 81.895748 -102.210823 
L 82.09337 -102.723678 
L 82.965721 -102.723678 
L 82.965721 -102.723678 
L 83.163342 -102.210823 
L 83.418495 -101.697968 
L 83.733034 -101.185113 
L 84.102244 -100.672257 
L 84.513302 -100.159402 
L 84.944845 -99.646547 
L 85.368077 -99.133692 
L 85.749555 -98.620836 
L 86.055381 -98.107981 
L 86.25612 -97.595126 
L 86.33147 -97.082271 
L 86.273673 -96.569415 
L 86.088883 -96.05656 
L 85.796203 -95.543705 
L 85.424638 -95.03085 
L 85.008748 -94.517994 
L 84.584023 -94.005139 
L 84.18303 -93.492284 
L 83.833076 -92.979429 
L 83.555717 -92.466573 
L 83.367922 -91.953718 
L 83.284322 -91.440863 
L 83.319665 -90.928008 
L 83.490555 -90.415152 
L 83.815613 -89.902297 
L 84.313518 -89.389442 
L 84.998821 -88.876587 
L 85.876012 -88.363731 
L 86.932952 -87.850876 
L 88.135289 -87.338021 
L 89.423696 -86.825166 
L 90.71549 -86.31231 
L 91.911423 -85.799455 
L 92.907209 -85.2866 
L 93.608025 -84.773745 
L 93.943182 -84.260889 
L 93.877773 -83.748034 
L 93.418616 -83.235179 
L 92.613054 -82.722324 
L 91.540904 -82.209468 
L 90.30143 -81.696613 
L 88.998286 -81.183758 
L 87.725558 -80.670903 
L 86.557434 -80.158047 
L 85.54284 -79.645192 
L 84.705061 -79.132337 
L 84.045335 -78.619482 
L 83.548775 -78.106626 
L 83.19094 -77.593771 
L 82.943741 -77.080916 
L 82.779871 -76.568061 
L 82.675548 -76.055205 
L 82.611727 -75.54235 
L 82.574187 -75.029495 
L 82.552948 -74.51664 
L 82.541385 -74.003784 
L 82.535326 -73.490929 
L 82.53227 -72.978074 
L 82.530785 -72.465219 
L 82.530093 -71.952363 
L 82.529787 -71.439508 
L 82.529668 -70.926653 
L 82.529653 -70.413798 
L 82.529726 -69.900942 
L 82.529929 -69.388087 
L 82.530381 -68.875232 
L 82.531316 -68.362377 
L 82.533176 -67.849521 
L 82.536732 -67.336666 
L 82.543277 -66.823811 
L 82.554874 -66.310956 
L 82.574645 -65.7981 
L 82.607062 -65.285245 
L 82.658162 -64.77239 
L 82.735547 -64.259535 
L 82.848053 -63.746679 
L 83.004931 -63.233824 
L 83.214483 -62.720969 
L 83.482199 -62.208114 
L 83.808633 -61.695259 
L 84.187404 -61.182403 
L 84.603872 -60.669548 
L 85.035024 -60.156693 
L 85.450928 -59.643838 
L 85.817842 -59.130982 
L 86.102594 -58.618127 
L 86.277484 -58.105272 
L 86.32472 -57.592417 
L 86.2394 -57.079561 
L 86.030349 -56.566706 
L 85.718616 -56.053851 
L 85.333982 -55.540996 
L 84.910286 -55.02814 
L 84.480568 -54.515285 
L 84.073008 -54.00243 
L 83.708271 -53.489575 
L 83.398527 -52.976719 
L 83.147973 -52.463864 
L 82.954406 -51.951009 
z
" style="stroke: #595959; stroke-width: 1.5"/>
    </defs>
    <g clip-path="url(#p7a5f4bfe90)">
     <use xlink:href="#ma7dd1dde1d" x="0" y="288" style="fill: #72b6a1; stroke: #595959; stroke-width: 1.5"/>
    </g>
   </g>
   <g id="PolyCollection_2">
    <defs>
     <path id="m54de7d6327" d="M 159.062691 -52.06607 
L 158.178218 -52.06607 
L 157.979197 -52.573608 
L 157.722734 -53.081147 
L 157.407116 -53.588685 
L 157.037187 -54.096224 
L 156.625839 -54.603762 
L 156.194422 -55.111301 
L 155.771621 -55.618839 
L 155.390691 -56.126378 
L 155.085306 -56.633916 
L 154.884702 -57.141455 
L 154.809075 -57.648993 
L 154.866234 -58.156531 
L 155.050268 -58.66407 
L 155.342555 -59.171608 
L 155.714869 -59.679147 
L 156.13386 -60.186685 
L 156.56594 -60.694224 
L 156.981579 -61.201762 
L 157.358292 -61.709301 
L 157.681992 -62.216839 
L 157.946781 -62.724378 
L 158.153565 -63.231916 
L 158.308056 -63.739455 
L 158.418649 -64.246993 
L 158.494595 -64.754531 
L 158.544672 -65.26207 
L 158.576401 -65.769608 
L 158.59573 -66.277147 
L 158.607058 -66.784685 
L 158.613447 -67.292224 
L 158.616915 -67.799762 
L 158.618728 -68.307301 
L 158.619641 -68.814839 
L 158.620081 -69.322378 
L 158.620281 -69.829916 
L 158.620356 -70.337454 
L 158.62035 -70.844993 
L 158.620255 -71.352531 
L 158.620005 -71.86007 
L 158.619435 -72.367608 
L 158.618207 -72.875147 
L 158.615668 -73.382685 
L 158.61061 -73.890224 
L 158.600904 -74.397762 
L 158.58297 -74.905301 
L 158.551062 -75.412839 
L 158.496425 -75.920377 
L 158.406414 -76.427916 
L 158.263817 -76.935454 
L 158.046706 -77.442993 
L 157.729244 -77.950531 
L 157.283841 -78.45807 
L 156.684927 -78.965608 
L 155.914232 -79.473147 
L 154.967031 -79.980685 
L 153.858222 -80.488224 
L 152.626721 -80.995762 
L 151.336582 -81.5033 
L 150.073583 -82.010839 
L 148.936922 -82.518377 
L 148.026841 -83.025916 
L 147.430196 -83.533454 
L 147.206818 -84.040993 
L 147.379616 -84.548531 
L 147.930677 -85.05607 
L 148.804279 -85.563608 
L 149.916079 -86.071147 
L 151.16635 -86.578685 
L 152.454339 -87.086223 
L 153.690834 -87.593762 
L 154.806797 -88.1013 
L 155.757101 -88.608839 
L 156.51964 -89.116377 
L 157.091041 -89.623916 
L 157.480687 -90.131454 
L 157.704731 -90.638993 
L 157.78142 -91.146531 
L 157.728428 -91.65407 
L 157.562316 -92.161608 
L 157.299693 -92.669147 
L 156.959291 -93.176685 
L 156.564026 -93.684223 
L 156.142137 -94.191762 
L 155.726772 -94.6993 
L 155.353795 -95.206839 
L 155.058072 -95.714377 
L 154.868967 -96.221916 
L 154.806048 -96.729454 
L 154.876043 -97.236993 
L 155.071818 -97.744531 
L 155.37365 -98.25207 
L 155.752546 -98.759608 
L 156.17484 -99.267146 
L 156.607084 -99.774685 
L 157.020262 -100.282223 
L 157.392639 -100.789762 
L 157.710947 -101.2973 
L 157.970038 -101.804839 
L 158.171411 -102.312377 
L 159.069498 -102.312377 
L 159.069498 -102.312377 
L 159.270871 -101.804839 
L 159.529962 -101.2973 
L 159.84827 -100.789762 
L 160.220647 -100.282223 
L 160.633825 -99.774685 
L 161.066069 -99.267146 
L 161.488363 -98.759608 
L 161.867259 -98.25207 
L 162.169091 -97.744531 
L 162.364866 -97.236993 
L 162.434861 -96.729454 
L 162.371942 -96.221916 
L 162.182837 -95.714377 
L 161.887114 -95.206839 
L 161.514137 -94.6993 
L 161.098772 -94.191762 
L 160.676883 -93.684223 
L 160.281618 -93.176685 
L 159.941216 -92.669147 
L 159.678593 -92.161608 
L 159.512481 -91.65407 
L 159.459489 -91.146531 
L 159.536178 -90.638993 
L 159.760222 -90.131454 
L 160.149868 -89.623916 
L 160.721269 -89.116377 
L 161.483808 -88.608839 
L 162.434112 -88.1013 
L 163.550075 -87.593762 
L 164.78657 -87.086223 
L 166.074559 -86.578685 
L 167.32483 -86.071147 
L 168.43663 -85.563608 
L 169.310232 -85.05607 
L 169.861293 -84.548531 
L 170.034091 -84.040993 
L 169.810713 -83.533454 
L 169.214068 -83.025916 
L 168.303987 -82.518377 
L 167.167326 -82.010839 
L 165.904327 -81.5033 
L 164.614189 -80.995762 
L 163.382688 -80.488224 
L 162.273878 -79.980685 
L 161.326677 -79.473147 
L 160.555983 -78.965608 
L 159.957068 -78.45807 
L 159.511665 -77.950531 
L 159.194203 -77.442993 
L 158.977092 -76.935454 
L 158.834495 -76.427916 
L 158.744484 -75.920377 
L 158.689847 -75.412839 
L 158.657939 -74.905301 
L 158.640005 -74.397762 
L 158.630299 -73.890224 
L 158.625241 -73.382685 
L 158.622702 -72.875147 
L 158.621474 -72.367608 
L 158.620904 -71.86007 
L 158.620654 -71.352531 
L 158.620559 -70.844993 
L 158.620553 -70.337454 
L 158.620628 -69.829916 
L 158.620828 -69.322378 
L 158.621268 -68.814839 
L 158.622181 -68.307301 
L 158.623994 -67.799762 
L 158.627462 -67.292224 
L 158.633851 -66.784685 
L 158.645179 -66.277147 
L 158.664508 -65.769608 
L 158.696237 -65.26207 
L 158.746314 -64.754531 
L 158.82226 -64.246993 
L 158.932853 -63.739455 
L 159.087344 -63.231916 
L 159.294128 -62.724378 
L 159.558917 -62.216839 
L 159.882617 -61.709301 
L 160.259331 -61.201762 
L 160.674969 -60.694224 
L 161.107049 -60.186685 
L 161.52604 -59.679147 
L 161.898354 -59.171608 
L 162.190641 -58.66407 
L 162.374675 -58.156531 
L 162.431834 -57.648993 
L 162.356207 -57.141455 
L 162.155603 -56.633916 
L 161.850218 -56.126378 
L 161.469288 -55.618839 
L 161.046487 -55.111301 
L 160.61507 -54.603762 
L 160.203722 -54.096224 
L 159.833793 -53.588685 
L 159.518175 -53.081147 
L 159.261712 -52.573608 
L 159.062691 -52.06607 
z
" style="stroke: #595959; stroke-width: 1.5"/>
    </defs>
    <g clip-path="url(#p7a5f4bfe90)">
     <use xlink:href="#m54de7d6327" x="0" y="288" style="fill: #e99675; stroke: #595959; stroke-width: 1.5"/>
    </g>
   </g>
   <g id="matplotlib.axis_1">
    <g id="xtick_1">
     <g id="line2d_1">
      <defs>
       <path id="m0e51ef3727" d="M 0 0 
L 0 3.5 
" style="stroke: #000000; stroke-width: 0.8"/>
      </defs>
      <g>
       <use xlink:href="#m0e51ef3727" x="82.529545" y="259.3" style="stroke: #000000; stroke-width: 0.8"/>
      </g>
     </g>
    </g>
    <g id="xtick_2">
     <g id="line2d_2">
      <g>
       <use xlink:href="#m0e51ef3727" x="158.620455" y="259.3" style="stroke: #000000; stroke-width: 0.8"/>
      </g>
     </g>
    </g>
   </g>
   <g id="matplotlib.axis_2">
    <g id="ytick_1">
     <g id="line2d_3">
      <defs>
       <path id="m8e8571f38b" d="M 0 0 
L -3.5 0 
" style="stroke: #000000; stroke-width: 0.8"/>
      </defs>
      <g>
       <use xlink:href="#m8e8571f38b" x="66.17" y="246.200052" style="stroke: #000000; stroke-width: 0.8"/>
      </g>
     </g>
     <g id="text_1">
      <!-- 0 -->
      <g transform="translate(52.8075 249.999271) scale(0.1 -0.1)">
       <defs>
        <path id="DejaVuSans-30" d="M 2034 4250 
Q 1547 4250 1301 3770 
Q 1056 3291 1056 2328 
Q 1056 1369 1301 889 
Q 1547 409 2034 409 
Q 2525 409 2770 889 
Q 3016 1369 3016 2328 
Q 3016 3291 2770 3770 
Q 2525 4250 2034 4250 
z
M 2034 4750 
Q 2819 4750 3233 4129 
Q 3647 3509 3647 2328 
Q 3647 1150 3233 529 
Q 2819 -91 2034 -91 
Q 1250 -91 836 529 
Q 422 1150 422 2328 
Q 422 3509 836 4129 
Q 1250 4750 2034 4750 
z
" transform="scale(0.015625)"/>
       </defs>
       <use xlink:href="#DejaVuSans-30"/>
      </g>
     </g>
    </g>
    <g id="ytick_2">
     <g id="line2d_4">
      <g>
       <use xlink:href="#m8e8571f38b" x="66.17" y="213.646216" style="stroke: #000000; stroke-width: 0.8"/>
      </g>
     </g>
     <g id="text_2">
      <!-- 10 -->
      <g transform="translate(46.445 217.445434) scale(0.1 -0.1)">
       <defs>
        <path id="DejaVuSans-31" d="M 794 531 
L 1825 531 
L 1825 4091 
L 703 3866 
L 703 4441 
L 1819 4666 
L 2450 4666 
L 2450 531 
L 3481 531 
L 3481 0 
L 794 0 
L 794 531 
z
" transform="scale(0.015625)"/>
       </defs>
       <use xlink:href="#DejaVuSans-31"/>
       <use xlink:href="#DejaVuSans-30" x="63.623047"/>
      </g>
     </g>
    </g>
    <g id="ytick_3">
     <g id="line2d_5">
      <g>
       <use xlink:href="#m8e8571f38b" x="66.17" y="181.092379" style="stroke: #000000; stroke-width: 0.8"/>
      </g>
     </g>
     <g id="text_3">
      <!-- 20 -->
      <g transform="translate(46.445 184.891598) scale(0.1 -0.1)">
       <defs>
        <path id="DejaVuSans-32" d="M 1228 531 
L 3431 531 
L 3431 0 
L 469 0 
L 469 531 
Q 828 903 1448 1529 
Q 2069 2156 2228 2338 
Q 2531 2678 2651 2914 
Q 2772 3150 2772 3378 
Q 2772 3750 2511 3984 
Q 2250 4219 1831 4219 
Q 1534 4219 1204 4116 
Q 875 4013 500 3803 
L 500 4441 
Q 881 4594 1212 4672 
Q 1544 4750 1819 4750 
Q 2544 4750 2975 4387 
Q 3406 4025 3406 3419 
Q 3406 3131 3298 2873 
Q 3191 2616 2906 2266 
Q 2828 2175 2409 1742 
Q 1991 1309 1228 531 
z
" transform="scale(0.015625)"/>
       </defs>
       <use xlink:href="#DejaVuSans-32"/>
       <use xlink:href="#DejaVuSans-30" x="63.623047"/>
      </g>
     </g>
    </g>
    <g id="ytick_4">
     <g id="line2d_6">
      <g>
       <use xlink:href="#m8e8571f38b" x="66.17" y="148.538543" style="stroke: #000000; stroke-width: 0.8"/>
      </g>
     </g>
     <g id="text_4">
      <!-- 30 -->
      <g transform="translate(46.445 152.337762) scale(0.1 -0.1)">
       <defs>
        <path id="DejaVuSans-33" d="M 2597 2516 
Q 3050 2419 3304 2112 
Q 3559 1806 3559 1356 
Q 3559 666 3084 287 
Q 2609 -91 1734 -91 
Q 1441 -91 1130 -33 
Q 819 25 488 141 
L 488 750 
Q 750 597 1062 519 
Q 1375 441 1716 441 
Q 2309 441 2620 675 
Q 2931 909 2931 1356 
Q 2931 1769 2642 2001 
Q 2353 2234 1838 2234 
L 1294 2234 
L 1294 2753 
L 1863 2753 
Q 2328 2753 2575 2939 
Q 2822 3125 2822 3475 
Q 2822 3834 2567 4026 
Q 2313 4219 1838 4219 
Q 1578 4219 1281 4162 
Q 984 4106 628 3988 
L 628 4550 
Q 988 4650 1302 4700 
Q 1616 4750 1894 4750 
Q 2613 4750 3031 4423 
Q 3450 4097 3450 3541 
Q 3450 3153 3228 2886 
Q 3006 2619 2597 2516 
z
" transform="scale(0.015625)"/>
       </defs>
       <use xlink:href="#DejaVuSans-33"/>
       <use xlink:href="#DejaVuSans-30" x="63.623047"/>
      </g>
     </g>
    </g>
    <g id="ytick_5">
     <g id="line2d_7">
      <g>
       <use xlink:href="#m8e8571f38b" x="66.17" y="115.984707" style="stroke: #000000; stroke-width: 0.8"/>
      </g>
     </g>
     <g id="text_5">
      <!-- 40 -->
      <g transform="translate(46.445 119.783925) scale(0.1 -0.1)">
       <defs>
        <path id="DejaVuSans-34" d="M 2419 4116 
L 825 1625 
L 2419 1625 
L 2419 4116 
z
M 2253 4666 
L 3047 4666 
L 3047 1625 
L 3713 1625 
L 3713 1100 
L 3047 1100 
L 3047 0 
L 2419 0 
L 2419 1100 
L 313 1100 
L 313 1709 
L 2253 4666 
z
" transform="scale(0.015625)"/>
       </defs>
       <use xlink:href="#DejaVuSans-34"/>
       <use xlink:href="#DejaVuSans-30" x="63.623047"/>
      </g>
     </g>
    </g>
    <g id="ytick_6">
     <g id="line2d_8">
      <g>
       <use xlink:href="#m8e8571f38b" x="66.17" y="83.43087" style="stroke: #000000; stroke-width: 0.8"/>
      </g>
     </g>
     <g id="text_6">
      <!-- 50 -->
      <g transform="translate(46.445 87.230089) scale(0.1 -0.1)">
       <defs>
        <path id="DejaVuSans-35" d="M 691 4666 
L 3169 4666 
L 3169 4134 
L 1269 4134 
L 1269 2991 
Q 1406 3038 1543 3061 
Q 1681 3084 1819 3084 
Q 2600 3084 3056 2656 
Q 3513 2228 3513 1497 
Q 3513 744 3044 326 
Q 2575 -91 1722 -91 
Q 1428 -91 1123 -41 
Q 819 9 494 109 
L 494 744 
Q 775 591 1075 516 
Q 1375 441 1709 441 
Q 2250 441 2565 725 
Q 2881 1009 2881 1497 
Q 2881 1984 2565 2268 
Q 2250 2553 1709 2553 
Q 1456 2553 1204 2497 
Q 953 2441 691 2322 
L 691 4666 
z
" transform="scale(0.015625)"/>
       </defs>
       <use xlink:href="#DejaVuSans-35"/>
       <use xlink:href="#DejaVuSans-30" x="63.623047"/>
      </g>
     </g>
    </g>
    <g id="ytick_7">
     <g id="line2d_9">
      <g>
       <use xlink:href="#m8e8571f38b" x="66.17" y="50.877034" style="stroke: #000000; stroke-width: 0.8"/>
      </g>
     </g>
     <g id="text_7">
      <!-- 60 -->
      <g transform="translate(46.445 54.676253) scale(0.1 -0.1)">
       <defs>
        <path id="DejaVuSans-36" d="M 2113 2584 
Q 1688 2584 1439 2293 
Q 1191 2003 1191 1497 
Q 1191 994 1439 701 
Q 1688 409 2113 409 
Q 2538 409 2786 701 
Q 3034 994 3034 1497 
Q 3034 2003 2786 2293 
Q 2538 2584 2113 2584 
z
M 3366 4563 
L 3366 3988 
Q 3128 4100 2886 4159 
Q 2644 4219 2406 4219 
Q 1781 4219 1451 3797 
Q 1122 3375 1075 2522 
Q 1259 2794 1537 2939 
Q 1816 3084 2150 3084 
Q 2853 3084 3261 2657 
Q 3669 2231 3669 1497 
Q 3669 778 3244 343 
Q 2819 -91 2113 -91 
Q 1303 -91 875 529 
Q 447 1150 447 2328 
Q 447 3434 972 4092 
Q 1497 4750 2381 4750 
Q 2619 4750 2861 4703 
Q 3103 4656 3366 4563 
z
" transform="scale(0.015625)"/>
       </defs>
       <use xlink:href="#DejaVuSans-36"/>
       <use xlink:href="#DejaVuSans-30" x="63.623047"/>
      </g>
     </g>
    </g>
    <g id="text_8">
     <!-- Mempool Time (s) -->
     <g transform="translate(40.365313 187.110938) rotate(-90) scale(0.1 -0.1)">
      <defs>
       <path id="DejaVuSans-4d" d="M 628 4666 
L 1569 4666 
L 2759 1491 
L 3956 4666 
L 4897 4666 
L 4897 0 
L 4281 0 
L 4281 4097 
L 3078 897 
L 2444 897 
L 1241 4097 
L 1241 0 
L 628 0 
L 628 4666 
z
" transform="scale(0.015625)"/>
       <path id="DejaVuSans-65" d="M 3597 1894 
L 3597 1613 
L 953 1613 
Q 991 1019 1311 708 
Q 1631 397 2203 397 
Q 2534 397 2845 478 
Q 3156 559 3463 722 
L 3463 178 
Q 3153 47 2828 -22 
Q 2503 -91 2169 -91 
Q 1331 -91 842 396 
Q 353 884 353 1716 
Q 353 2575 817 3079 
Q 1281 3584 2069 3584 
Q 2775 3584 3186 3129 
Q 3597 2675 3597 1894 
z
M 3022 2063 
Q 3016 2534 2758 2815 
Q 2500 3097 2075 3097 
Q 1594 3097 1305 2825 
Q 1016 2553 972 2059 
L 3022 2063 
z
" transform="scale(0.015625)"/>
       <path id="DejaVuSans-6d" d="M 3328 2828 
Q 3544 3216 3844 3400 
Q 4144 3584 4550 3584 
Q 5097 3584 5394 3201 
Q 5691 2819 5691 2113 
L 5691 0 
L 5113 0 
L 5113 2094 
Q 5113 2597 4934 2840 
Q 4756 3084 4391 3084 
Q 3944 3084 3684 2787 
Q 3425 2491 3425 1978 
L 3425 0 
L 2847 0 
L 2847 2094 
Q 2847 2600 2669 2842 
Q 2491 3084 2119 3084 
Q 1678 3084 1418 2786 
Q 1159 2488 1159 1978 
L 1159 0 
L 581 0 
L 581 3500 
L 1159 3500 
L 1159 2956 
Q 1356 3278 1631 3431 
Q 1906 3584 2284 3584 
Q 2666 3584 2933 3390 
Q 3200 3197 3328 2828 
z
" transform="scale(0.015625)"/>
       <path id="DejaVuSans-70" d="M 1159 525 
L 1159 -1331 
L 581 -1331 
L 581 3500 
L 1159 3500 
L 1159 2969 
Q 1341 3281 1617 3432 
Q 1894 3584 2278 3584 
Q 2916 3584 3314 3078 
Q 3713 2572 3713 1747 
Q 3713 922 3314 415 
Q 2916 -91 2278 -91 
Q 1894 -91 1617 61 
Q 1341 213 1159 525 
z
M 3116 1747 
Q 3116 2381 2855 2742 
Q 2594 3103 2138 3103 
Q 1681 3103 1420 2742 
Q 1159 2381 1159 1747 
Q 1159 1113 1420 752 
Q 1681 391 2138 391 
Q 2594 391 2855 752 
Q 3116 1113 3116 1747 
z
" transform="scale(0.015625)"/>
       <path id="DejaVuSans-6f" d="M 1959 3097 
Q 1497 3097 1228 2736 
Q 959 2375 959 1747 
Q 959 1119 1226 758 
Q 1494 397 1959 397 
Q 2419 397 2687 759 
Q 2956 1122 2956 1747 
Q 2956 2369 2687 2733 
Q 2419 3097 1959 3097 
z
M 1959 3584 
Q 2709 3584 3137 3096 
Q 3566 2609 3566 1747 
Q 3566 888 3137 398 
Q 2709 -91 1959 -91 
Q 1206 -91 779 398 
Q 353 888 353 1747 
Q 353 2609 779 3096 
Q 1206 3584 1959 3584 
z
" transform="scale(0.015625)"/>
       <path id="DejaVuSans-6c" d="M 603 4863 
L 1178 4863 
L 1178 0 
L 603 0 
L 603 4863 
z
" transform="scale(0.015625)"/>
       <path id="DejaVuSans-20" transform="scale(0.015625)"/>
       <path id="DejaVuSans-54" d="M -19 4666 
L 3928 4666 
L 3928 4134 
L 2272 4134 
L 2272 0 
L 1638 0 
L 1638 4134 
L -19 4134 
L -19 4666 
z
" transform="scale(0.015625)"/>
       <path id="DejaVuSans-69" d="M 603 3500 
L 1178 3500 
L 1178 0 
L 603 0 
L 603 3500 
z
M 603 4863 
L 1178 4863 
L 1178 4134 
L 603 4134 
L 603 4863 
z
" transform="scale(0.015625)"/>
       <path id="DejaVuSans-28" d="M 1984 4856 
Q 1566 4138 1362 3434 
Q 1159 2731 1159 2009 
Q 1159 1288 1364 580 
Q 1569 -128 1984 -844 
L 1484 -844 
Q 1016 -109 783 600 
Q 550 1309 550 2009 
Q 550 2706 781 3412 
Q 1013 4119 1484 4856 
L 1984 4856 
z
" transform="scale(0.015625)"/>
       <path id="DejaVuSans-73" d="M 2834 3397 
L 2834 2853 
Q 2591 2978 2328 3040 
Q 2066 3103 1784 3103 
Q 1356 3103 1142 2972 
Q 928 2841 928 2578 
Q 928 2378 1081 2264 
Q 1234 2150 1697 2047 
L 1894 2003 
Q 2506 1872 2764 1633 
Q 3022 1394 3022 966 
Q 3022 478 2636 193 
Q 2250 -91 1575 -91 
Q 1294 -91 989 -36 
Q 684 19 347 128 
L 347 722 
Q 666 556 975 473 
Q 1284 391 1588 391 
Q 1994 391 2212 530 
Q 2431 669 2431 922 
Q 2431 1156 2273 1281 
Q 2116 1406 1581 1522 
L 1381 1569 
Q 847 1681 609 1914 
Q 372 2147 372 2553 
Q 372 3047 722 3315 
Q 1072 3584 1716 3584 
Q 2034 3584 2315 3537 
Q 2597 3491 2834 3397 
z
" transform="scale(0.015625)"/>
       <path id="DejaVuSans-29" d="M 513 4856 
L 1013 4856 
Q 1481 4119 1714 3412 
Q 1947 2706 1947 2009 
Q 1947 1309 1714 600 
Q 1481 -109 1013 -844 
L 513 -844 
Q 928 -128 1133 580 
Q 1338 1288 1338 2009 
Q 1338 2731 1133 3434 
Q 928 4138 513 4856 
z
" transform="scale(0.015625)"/>
      </defs>
      <use xlink:href="#DejaVuSans-4d"/>
      <use xlink:href="#DejaVuSans-65" x="86.279297"/>
      <use xlink:href="#DejaVuSans-6d" x="147.802734"/>
      <use xlink:href="#DejaVuSans-70" x="245.214844"/>
      <use xlink:href="#DejaVuSans-6f" x="308.691406"/>
      <use xlink:href="#DejaVuSans-6f" x="369.873047"/>
      <use xlink:href="#DejaVuSans-6c" x="431.054688"/>
      <use xlink:href="#DejaVuSans-20" x="458.837891"/>
      <use xlink:href="#DejaVuSans-54" x="490.625"/>
      <use xlink:href="#DejaVuSans-69" x="548.583984"/>
      <use xlink:href="#DejaVuSans-6d" x="576.367188"/>
      <use xlink:href="#DejaVuSans-65" x="673.779297"/>
      <use xlink:href="#DejaVuSans-20" x="735.302734"/>
      <use xlink:href="#DejaVuSans-28" x="767.089844"/>
      <use xlink:href="#DejaVuSans-73" x="806.103516"/>
      <use xlink:href="#DejaVuSans-29" x="858.203125"/>
     </g>
    </g>
   </g>
   <g id="line2d_10">
    <path d="M 82.529545 204.081898 
L 82.529545 203.691252 
" clip-path="url(#p7a5f4bfe90)" style="fill: none; stroke: #595959; stroke-width: 1.5; stroke-linecap: square"/>
   </g>
   <g id="line2d_11">
    <path d="M 82.529545 204.071318 
L 82.529545 203.712412 
" clip-path="url(#p7a5f4bfe90)" style="fill: none; stroke: #595959; stroke-width: 4.5; stroke-linecap: square"/>
   </g>
   <g id="line2d_12">
    <path d="M 158.620455 204.280477 
L 158.620455 203.430822 
" clip-path="url(#p7a5f4bfe90)" style="fill: none; stroke: #595959; stroke-width: 1.5; stroke-linecap: square"/>
   </g>
   <g id="line2d_13">
    <path d="M 158.620455 204.241412 
L 158.620455 203.519531 
" clip-path="url(#p7a5f4bfe90)" style="fill: none; stroke: #595959; stroke-width: 4.5; stroke-linecap: square"/>
   </g>
   <g id="line2d_14"/>
   <g id="line2d_15"/>
   <g id="patch_3">
    <path d="M 66.17 259.3 
L 66.17 25.2 
" style="fill: none; stroke: #000000; stroke-width: 0.8; stroke-linejoin: miter; stroke-linecap: square"/>
   </g>
   <g id="patch_4">
    <path d="M 174.98 259.3 
L 174.98 25.2 
" style="fill: none; stroke: #000000; stroke-width: 0.8; stroke-linejoin: miter; stroke-linecap: square"/>
   </g>
   <g id="patch_5">
    <path d="M 66.17 259.3 
L 174.98 259.3 
" style="fill: none; stroke: #000000; stroke-width: 0.8; stroke-linejoin: miter; stroke-linecap: square"/>
   </g>
   <g id="patch_6">
    <path d="M 66.17 25.2 
L 174.98 25.2 
" style="fill: none; stroke: #000000; stroke-width: 0.8; stroke-linejoin: miter; stroke-linecap: square"/>
   </g>
   <g id="PathCollection_1">
    <defs>
     <path id="mf688b96883" d="M 0 1.5 
C 0.397805 1.5 0.77937 1.341951 1.06066 1.06066 
C 1.341951 0.77937 1.5 0.397805 1.5 0 
C 1.5 -0.397805 1.341951 -0.77937 1.06066 -1.06066 
C 0.77937 -1.341951 0.397805 -1.5 0 -1.5 
C -0.397805 -1.5 -0.77937 -1.341951 -1.06066 -1.06066 
C -1.341951 -0.77937 -1.5 -0.397805 -1.5 0 
C -1.5 0.397805 -1.341951 0.77937 -1.06066 1.06066 
C -0.77937 1.341951 -0.397805 1.5 0 1.5 
z
" style="stroke: #595959"/>
    </defs>
    <g clip-path="url(#p7a5f4bfe90)">
     <use xlink:href="#mf688b96883" x="82.529545" y="203.943545" style="fill: #ffffff; stroke: #595959"/>
    </g>
   </g>
   <g id="PathCollection_2">
    <g clip-path="url(#p7a5f4bfe90)">
     <use xlink:href="#mf688b96883" x="158.620455" y="203.966332" style="fill: #ffffff; stroke: #595959"/>
    </g>
   </g>
   <g id="text_9">
    <g id="patch_7">
     <path d="M 105.694 79.89125 
L 133.694 79.89125 
L 133.694 64.14875 
L 105.694 64.14875 
z
" style="fill: #ffffff; opacity: 0.2; stroke: #000000; stroke-linejoin: miter"/>
    </g>
    <!-- $n = 2$ -->
    <g transform="translate(109.694 74.2275) scale(0.08 -0.08)">
     <defs>
      <path id="DejaVuSans-Oblique-6e" d="M 3566 2113 
L 3156 0 
L 2578 0 
L 2988 2091 
Q 3016 2238 3031 2350 
Q 3047 2463 3047 2528 
Q 3047 2791 2881 2937 
Q 2716 3084 2419 3084 
Q 1956 3084 1622 2776 
Q 1288 2469 1184 1941 
L 800 0 
L 225 0 
L 903 3500 
L 1478 3500 
L 1363 2950 
Q 1603 3253 1940 3418 
Q 2278 3584 2650 3584 
Q 3113 3584 3367 3334 
Q 3622 3084 3622 2631 
Q 3622 2519 3608 2391 
Q 3594 2263 3566 2113 
z
" transform="scale(0.015625)"/>
      <path id="DejaVuSans-3d" d="M 678 2906 
L 4684 2906 
L 4684 2381 
L 678 2381 
L 678 2906 
z
M 678 1631 
L 4684 1631 
L 4684 1100 
L 678 1100 
L 678 1631 
z
" transform="scale(0.015625)"/>
     </defs>
     <use xlink:href="#DejaVuSans-Oblique-6e" transform="translate(0 0.78125)"/>
     <use xlink:href="#DejaVuSans-3d" transform="translate(82.861328 0.78125)"/>
     <use xlink:href="#DejaVuSans-32" transform="translate(186.132812 0.78125)"/>
    </g>
   </g>
   <g id="legend_1">
    <g id="patch_8">
     <path d="M 78.975 55.12 
L 162.175 55.12 
Q 163.775 55.12 163.775 53.52 
L 163.775 30.8 
Q 163.775 29.2 162.175 29.2 
L 78.975 29.2 
Q 77.375 29.2 77.375 30.8 
L 77.375 53.52 
Q 77.375 55.12 78.975 55.12 
z
" style="fill: #ffffff; opacity: 0.8; stroke: #cccccc; stroke-linejoin: miter"/>
    </g>
    <g id="line2d_16">
     <path d="M 80.575 35.68 
L 88.575 35.68 
L 96.575 35.68 
" style="fill: none; stroke: #fc8d62; stroke-width: 2; stroke-linecap: square"/>
    </g>
    <g id="text_10">
     <!-- $registerAD = 0$ -->
     <g transform="translate(102.975 38.48) scale(0.08 -0.08)">
      <defs>
       <path id="DejaVuSans-Oblique-72" d="M 2853 2969 
Q 2766 3016 2653 3041 
Q 2541 3066 2413 3066 
Q 1953 3066 1609 2717 
Q 1266 2369 1153 1784 
L 800 0 
L 225 0 
L 909 3500 
L 1484 3500 
L 1375 2956 
Q 1603 3259 1920 3421 
Q 2238 3584 2597 3584 
Q 2691 3584 2781 3573 
Q 2872 3563 2963 3538 
L 2853 2969 
z
" transform="scale(0.015625)"/>
       <path id="DejaVuSans-Oblique-65" d="M 3078 2063 
Q 3088 2113 3092 2166 
Q 3097 2219 3097 2272 
Q 3097 2653 2873 2875 
Q 2650 3097 2266 3097 
Q 1838 3097 1509 2826 
Q 1181 2556 1013 2059 
L 3078 2063 
z
M 3578 1613 
L 903 1613 
Q 884 1494 878 1425 
Q 872 1356 872 1306 
Q 872 872 1139 634 
Q 1406 397 1894 397 
Q 2269 397 2603 481 
Q 2938 566 3225 728 
L 3116 159 
Q 2806 34 2476 -28 
Q 2147 -91 1806 -91 
Q 1078 -91 686 257 
Q 294 606 294 1247 
Q 294 1794 489 2264 
Q 684 2734 1063 3103 
Q 1306 3334 1642 3459 
Q 1978 3584 2356 3584 
Q 2950 3584 3301 3228 
Q 3653 2872 3653 2272 
Q 3653 2128 3634 1964 
Q 3616 1800 3578 1613 
z
" transform="scale(0.015625)"/>
       <path id="DejaVuSans-Oblique-67" d="M 3816 3500 
L 3219 434 
Q 3047 -456 2561 -893 
Q 2075 -1331 1253 -1331 
Q 950 -1331 690 -1286 
Q 431 -1241 206 -1147 
L 313 -588 
Q 525 -725 762 -790 
Q 1000 -856 1269 -856 
Q 1816 -856 2167 -557 
Q 2519 -259 2631 300 
L 2681 563 
Q 2441 288 2122 144 
Q 1803 0 1434 0 
Q 903 0 598 351 
Q 294 703 294 1319 
Q 294 1803 478 2267 
Q 663 2731 997 3091 
Q 1219 3328 1514 3456 
Q 1809 3584 2131 3584 
Q 2484 3584 2746 3420 
Q 3009 3256 3138 2956 
L 3238 3500 
L 3816 3500 
z
M 2950 2216 
Q 2950 2641 2750 2872 
Q 2550 3103 2181 3103 
Q 1953 3103 1747 3012 
Q 1541 2922 1394 2759 
Q 1156 2491 1023 2127 
Q 891 1763 891 1375 
Q 891 944 1092 712 
Q 1294 481 1672 481 
Q 2219 481 2584 976 
Q 2950 1472 2950 2216 
z
" transform="scale(0.015625)"/>
       <path id="DejaVuSans-Oblique-69" d="M 1172 4863 
L 1747 4863 
L 1606 4134 
L 1031 4134 
L 1172 4863 
z
M 909 3500 
L 1484 3500 
L 800 0 
L 225 0 
L 909 3500 
z
" transform="scale(0.015625)"/>
       <path id="DejaVuSans-Oblique-73" d="M 3200 3397 
L 3091 2853 
Q 2863 2978 2609 3040 
Q 2356 3103 2088 3103 
Q 1634 3103 1373 2948 
Q 1113 2794 1113 2528 
Q 1113 2219 1719 2053 
Q 1766 2041 1788 2034 
L 1972 1978 
Q 2547 1819 2739 1644 
Q 2931 1469 2931 1166 
Q 2931 609 2489 259 
Q 2047 -91 1331 -91 
Q 1053 -91 747 -37 
Q 441 16 72 128 
L 184 722 
Q 500 559 806 475 
Q 1113 391 1394 391 
Q 1816 391 2080 572 
Q 2344 753 2344 1031 
Q 2344 1331 1650 1516 
L 1591 1531 
L 1394 1581 
Q 956 1697 753 1886 
Q 550 2075 550 2369 
Q 550 2928 970 3256 
Q 1391 3584 2113 3584 
Q 2397 3584 2667 3537 
Q 2938 3491 3200 3397 
z
" transform="scale(0.015625)"/>
       <path id="DejaVuSans-Oblique-74" d="M 2706 3500 
L 2619 3053 
L 1472 3053 
L 1100 1153 
Q 1081 1047 1072 975 
Q 1063 903 1063 863 
Q 1063 663 1183 572 
Q 1303 481 1569 481 
L 2150 481 
L 2053 0 
L 1503 0 
Q 991 0 739 200 
Q 488 400 488 806 
Q 488 878 497 964 
Q 506 1050 525 1153 
L 897 3053 
L 409 3053 
L 500 3500 
L 978 3500 
L 1172 4494 
L 1747 4494 
L 1556 3500 
L 2706 3500 
z
" transform="scale(0.015625)"/>
       <path id="DejaVuSans-Oblique-41" d="M 2356 4666 
L 3072 4666 
L 3938 0 
L 3278 0 
L 3084 1197 
L 984 1197 
L 325 0 
L -341 0 
L 2356 4666 
z
M 2584 4044 
L 1275 1722 
L 2988 1722 
L 2584 4044 
z
" transform="scale(0.015625)"/>
       <path id="DejaVuSans-Oblique-44" d="M 1081 4666 
L 2438 4666 
Q 3519 4666 4070 4208 
Q 4622 3750 4622 2847 
Q 4622 2250 4412 1698 
Q 4203 1147 3834 769 
Q 3463 381 2891 190 
Q 2319 0 1538 0 
L 172 0 
L 1081 4666 
z
M 1613 4147 
L 909 519 
L 1734 519 
Q 2794 519 3375 1128 
Q 3956 1738 3956 2847 
Q 3956 3519 3581 3833 
Q 3206 4147 2406 4147 
L 1613 4147 
z
" transform="scale(0.015625)"/>
      </defs>
      <use xlink:href="#DejaVuSans-Oblique-72" transform="translate(0 0.015625)"/>
      <use xlink:href="#DejaVuSans-Oblique-65" transform="translate(41.113281 0.015625)"/>
      <use xlink:href="#DejaVuSans-Oblique-67" transform="translate(102.636719 0.015625)"/>
      <use xlink:href="#DejaVuSans-Oblique-69" transform="translate(166.113281 0.015625)"/>
      <use xlink:href="#DejaVuSans-Oblique-73" transform="translate(193.896484 0.015625)"/>
      <use xlink:href="#DejaVuSans-Oblique-74" transform="translate(245.996094 0.015625)"/>
      <use xlink:href="#DejaVuSans-Oblique-65" transform="translate(285.205078 0.015625)"/>
      <use xlink:href="#DejaVuSans-Oblique-72" transform="translate(346.728516 0.015625)"/>
      <use xlink:href="#DejaVuSans-Oblique-41" transform="translate(387.841797 0.015625)"/>
      <use xlink:href="#DejaVuSans-Oblique-44" transform="translate(456.25 0.015625)"/>
      <use xlink:href="#DejaVuSans-3d" transform="translate(552.734375 0.015625)"/>
      <use xlink:href="#DejaVuSans-30" transform="translate(656.005859 0.015625)"/>
     </g>
    </g>
    <g id="line2d_17">
     <path d="M 80.575 47.44 
L 88.575 47.44 
L 96.575 47.44 
" style="fill: none; stroke: #66c2a5; stroke-width: 2; stroke-linecap: square"/>
    </g>
    <g id="text_11">
     <!-- $registerAD = 1$ -->
     <g transform="translate(102.975 50.24) scale(0.08 -0.08)">
      <use xlink:href="#DejaVuSans-Oblique-72" transform="translate(0 0.015625)"/>
      <use xlink:href="#DejaVuSans-Oblique-65" transform="translate(41.113281 0.015625)"/>
      <use xlink:href="#DejaVuSans-Oblique-67" transform="translate(102.636719 0.015625)"/>
      <use xlink:href="#DejaVuSans-Oblique-69" transform="translate(166.113281 0.015625)"/>
      <use xlink:href="#DejaVuSans-Oblique-73" transform="translate(193.896484 0.015625)"/>
      <use xlink:href="#DejaVuSans-Oblique-74" transform="translate(245.996094 0.015625)"/>
      <use xlink:href="#DejaVuSans-Oblique-65" transform="translate(285.205078 0.015625)"/>
      <use xlink:href="#DejaVuSans-Oblique-72" transform="translate(346.728516 0.015625)"/>
      <use xlink:href="#DejaVuSans-Oblique-41" transform="translate(387.841797 0.015625)"/>
      <use xlink:href="#DejaVuSans-Oblique-44" transform="translate(456.25 0.015625)"/>
      <use xlink:href="#DejaVuSans-3d" transform="translate(552.734375 0.015625)"/>
      <use xlink:href="#DejaVuSans-31" transform="translate(656.005859 0.015625)"/>
     </g>
    </g>
   </g>
  </g>
  <g id="axes_2">
   <g id="patch_9">
    <path d="M 189.28 259.3 
L 298.09 259.3 
L 298.09 25.2 
L 189.28 25.2 
z
" style="fill: #ffffff"/>
   </g>
   <g id="PolyCollection_3">
    <defs>
     <path id="m11fe375731" d="M 205.686207 -39.340909 
L 205.592884 -39.340909 
L 205.555464 -40.433658 
L 205.500978 -41.526406 
L 205.429936 -42.619155 
L 205.346927 -43.711903 
L 205.259602 -44.804652 
L 205.17571 -45.8974 
L 205.099538 -46.990149 
L 205.029553 -48.082897 
L 204.958019 -49.175646 
L 204.871687 -50.268394 
L 204.751995 -51.361143 
L 204.574305 -52.453891 
L 204.30757 -53.54664 
L 203.91691 -54.639388 
L 203.370994 -55.732137 
L 202.654092 -56.824885 
L 201.779606 -57.917634 
L 200.798974 -59.010382 
L 199.799224 -60.103131 
L 198.886404 -61.195879 
L 198.159352 -62.288628 
L 197.683854 -63.381376 
L 197.476584 -64.474125 
L 197.502415 -65.566873 
L 197.683305 -66.659622 
L 197.915379 -67.75237 
L 198.091303 -68.845119 
L 198.124149 -69.937867 
L 197.966856 -71.030616 
L 197.621255 -72.123364 
L 197.133749 -73.216113 
L 196.579199 -74.308861 
L 196.037805 -75.40161 
L 195.571377 -76.494358 
L 195.206266 -77.587107 
L 194.930187 -78.679855 
L 194.706982 -79.772604 
L 194.505498 -80.865352 
L 194.328858 -81.958101 
L 194.225909 -83.050849 
L 194.274154 -84.143598 
L 194.540945 -85.236346 
L 195.045108 -86.329095 
L 195.741831 -87.421843 
L 196.53853 -88.514592 
L 197.330221 -89.60734 
L 198.033771 -90.700089 
L 198.60567 -91.792837 
L 199.04109 -92.885586 
L 199.362309 -93.978334 
L 199.606301 -95.071083 
L 199.816067 -96.163831 
L 200.034429 -97.25658 
L 200.297486 -98.349329 
L 200.627538 -99.442077 
L 201.02811 -100.534826 
L 201.483661 -101.627574 
L 201.964238 -102.720323 
L 202.433089 -103.813071 
L 202.854609 -104.90582 
L 203.200603 -105.998568 
L 203.454102 -107.091317 
L 203.610996 -108.184065 
L 203.680039 -109.276814 
L 203.681028 -110.369562 
L 203.640543 -111.462311 
L 203.585623 -112.555059 
L 203.537836 -113.647808 
L 203.510848 -114.740556 
L 203.512194 -115.833305 
L 203.546335 -116.926053 
L 203.61495 -118.018802 
L 203.713599 -119.11155 
L 203.828604 -120.204299 
L 203.939306 -121.297047 
L 204.026835 -122.389796 
L 204.084429 -123.482544 
L 204.121813 -124.575293 
L 204.159949 -125.668041 
L 204.219522 -126.76079 
L 204.310959 -127.853538 
L 204.431968 -128.946287 
L 204.572382 -130.039035 
L 204.721042 -131.131784 
L 204.869398 -132.224532 
L 205.010754 -133.317281 
L 205.138087 -134.410029 
L 205.243897 -135.502778 
L 205.322822 -136.595526 
L 205.374854 -137.688275 
L 205.406299 -138.781023 
L 205.427436 -139.873772 
L 205.448195 -140.96652 
L 205.474383 -142.059269 
L 205.506405 -143.152017 
L 205.54067 -144.244766 
L 205.572379 -145.337514 
L 205.59796 -146.430263 
L 205.61612 -147.523011 
L 205.662971 -147.523011 
L 205.662971 -147.523011 
L 205.681131 -146.430263 
L 205.706712 -145.337514 
L 205.738421 -144.244766 
L 205.772686 -143.152017 
L 205.804707 -142.059269 
L 205.830896 -140.96652 
L 205.851655 -139.873772 
L 205.872792 -138.781023 
L 205.904236 -137.688275 
L 205.956268 -136.595526 
L 206.035194 -135.502778 
L 206.141004 -134.410029 
L 206.268337 -133.317281 
L 206.409693 -132.224532 
L 206.558049 -131.131784 
L 206.706709 -130.039035 
L 206.847123 -128.946287 
L 206.968132 -127.853538 
L 207.059569 -126.76079 
L 207.119142 -125.668041 
L 207.157278 -124.575293 
L 207.194662 -123.482544 
L 207.252256 -122.389796 
L 207.339785 -121.297047 
L 207.450487 -120.204299 
L 207.565492 -119.11155 
L 207.664141 -118.018802 
L 207.732756 -116.926053 
L 207.766897 -115.833305 
L 207.768243 -114.740556 
L 207.741255 -113.647808 
L 207.693468 -112.555059 
L 207.638548 -111.462311 
L 207.598063 -110.369562 
L 207.599052 -109.276814 
L 207.668094 -108.184065 
L 207.824989 -107.091317 
L 208.078488 -105.998568 
L 208.424482 -104.90582 
L 208.846002 -103.813071 
L 209.314853 -102.720323 
L 209.79543 -101.627574 
L 210.250981 -100.534826 
L 210.651553 -99.442077 
L 210.981605 -98.349329 
L 211.244662 -97.25658 
L 211.463024 -96.163831 
L 211.67279 -95.071083 
L 211.916782 -93.978334 
L 212.238001 -92.885586 
L 212.673421 -91.792837 
L 213.24532 -90.700089 
L 213.94887 -89.60734 
L 214.740561 -88.514592 
L 215.53726 -87.421843 
L 216.233983 -86.329095 
L 216.738146 -85.236346 
L 217.004937 -84.143598 
L 217.053182 -83.050849 
L 216.950233 -81.958101 
L 216.773593 -80.865352 
L 216.572109 -79.772604 
L 216.348904 -78.679855 
L 216.072825 -77.587107 
L 215.707713 -76.494358 
L 215.241285 -75.40161 
L 214.699892 -74.308861 
L 214.145341 -73.216113 
L 213.657836 -72.123364 
L 213.312234 -71.030616 
L 213.154941 -69.937867 
L 213.187788 -68.845119 
L 213.363712 -67.75237 
L 213.595785 -66.659622 
L 213.776675 -65.566873 
L 213.802507 -64.474125 
L 213.595237 -63.381376 
L 213.119739 -62.288628 
L 212.392687 -61.195879 
L 211.479867 -60.103131 
L 210.480117 -59.010382 
L 209.499485 -57.917634 
L 208.624999 -56.824885 
L 207.908097 -55.732137 
L 207.362181 -54.639388 
L 206.971521 -53.54664 
L 206.704786 -52.453891 
L 206.527096 -51.361143 
L 206.407404 -50.268394 
L 206.321072 -49.175646 
L 206.249538 -48.082897 
L 206.179553 -46.990149 
L 206.103381 -45.8974 
L 206.019488 -44.804652 
L 205.932164 -43.711903 
L 205.849155 -42.619155 
L 205.778112 -41.526406 
L 205.723627 -40.433658 
L 205.686207 -39.340909 
z
" style="stroke: #595959; stroke-width: 1.5"/>
    </defs>
    <g clip-path="url(#pc88d751f12)">
     <use xlink:href="#m11fe375731" x="0" y="288" style="fill: #72b6a1; stroke: #595959; stroke-width: 1.5"/>
    </g>
   </g>
   <g id="PolyCollection_4">
    <defs>
     <path id="md6f98b3e4d" d="M 281.75518 -40.220822 
L 281.70573 -40.220822 
L 281.687698 -41.160812 
L 281.662235 -42.100801 
L 281.62979 -43.04079 
L 281.592595 -43.980779 
L 281.554312 -44.920768 
L 281.518905 -45.860757 
L 281.489169 -46.800747 
L 281.465619 -47.740736 
L 281.446227 -48.680725 
L 281.426829 -49.620714 
L 281.401482 -50.560703 
L 281.361998 -51.500692 
L 281.296369 -52.440681 
L 281.18649 -53.380671 
L 281.006193 -54.32066 
L 280.721248 -55.260649 
L 280.293357 -56.200638 
L 279.689584 -57.140627 
L 278.896246 -58.080616 
L 277.932631 -59.020605 
L 276.857509 -59.960595 
L 275.762969 -60.900584 
L 274.755833 -61.840573 
L 273.933363 -62.780562 
L 273.36257 -63.720551 
L 273.069582 -64.66054 
L 273.040032 -65.600529 
L 273.227467 -66.540519 
L 273.565987 -67.480508 
L 273.984049 -68.420497 
L 274.416319 -69.360486 
L 274.810225 -70.300475 
L 275.125526 -71.240464 
L 275.329202 -72.180454 
L 275.391424 -73.120443 
L 275.287708 -74.060432 
L 275.007342 -75.000421 
L 274.562445 -75.94041 
L 273.99021 -76.880399 
L 273.344752 -77.820388 
L 272.681995 -78.760378 
L 272.046362 -79.700367 
L 271.46765 -80.640356 
L 270.969665 -81.580345 
L 270.583129 -82.520334 
L 270.35076 -83.460323 
L 270.316818 -84.400312 
L 270.504841 -85.340302 
L 270.897369 -86.280291 
L 271.432137 -87.22028 
L 272.01942 -88.160269 
L 272.572098 -89.100258 
L 273.0329 -90.040247 
L 273.386352 -90.980236 
L 273.652994 -91.920226 
L 273.872888 -92.860215 
L 274.088691 -93.800204 
L 274.334826 -94.740193 
L 274.632996 -95.680182 
L 274.990619 -96.620171 
L 275.400066 -97.560161 
L 275.840019 -98.50015 
L 276.281504 -99.440139 
L 276.69833 -100.380128 
L 277.0774 -101.320117 
L 277.423022 -102.260106 
L 277.752447 -103.200095 
L 278.085035 -104.140085 
L 278.430828 -105.080074 
L 278.784051 -106.020063 
L 279.124117 -106.960052 
L 279.423218 -107.900041 
L 279.657049 -108.84003 
L 279.814172 -109.780019 
L 279.90025 -110.720009 
L 279.935702 -111.659998 
L 279.948264 -112.599987 
L 279.964073 -113.539976 
L 280.000852 -114.479965 
L 280.064925 -115.419954 
L 280.151578 -116.359944 
L 280.247238 -117.299933 
L 280.332606 -118.239922 
L 280.386974 -119.179911 
L 280.394212 -120.1199 
L 280.349656 -121.059889 
L 280.265282 -121.999878 
L 280.169827 -122.939868 
L 280.10205 -123.879857 
L 280.098627 -124.819846 
L 280.181403 -125.759835 
L 280.349674 -126.699824 
L 280.580986 -127.639813 
L 280.839756 -128.579802 
L 281.089385 -129.519792 
L 281.302487 -130.459781 
L 281.465716 -131.39977 
L 281.57882 -132.339759 
L 281.650085 -133.279748 
L 281.810824 -133.279748 
L 281.810824 -133.279748 
L 281.882089 -132.339759 
L 281.995193 -131.39977 
L 282.158423 -130.459781 
L 282.371524 -129.519792 
L 282.621153 -128.579802 
L 282.879923 -127.639813 
L 283.111235 -126.699824 
L 283.279506 -125.759835 
L 283.362282 -124.819846 
L 283.358859 -123.879857 
L 283.291082 -122.939868 
L 283.195627 -121.999878 
L 283.111253 -121.059889 
L 283.066697 -120.1199 
L 283.073935 -119.179911 
L 283.128303 -118.239922 
L 283.213671 -117.299933 
L 283.309332 -116.359944 
L 283.395984 -115.419954 
L 283.460057 -114.479965 
L 283.496836 -113.539976 
L 283.512645 -112.599987 
L 283.525207 -111.659998 
L 283.560659 -110.720009 
L 283.646738 -109.780019 
L 283.80386 -108.84003 
L 284.037691 -107.900041 
L 284.336792 -106.960052 
L 284.676858 -106.020063 
L 285.030081 -105.080074 
L 285.375874 -104.140085 
L 285.708462 -103.200095 
L 286.037887 -102.260106 
L 286.383509 -101.320117 
L 286.762579 -100.380128 
L 287.179405 -99.440139 
L 287.62089 -98.50015 
L 288.060843 -97.560161 
L 288.47029 -96.620171 
L 288.827914 -95.680182 
L 289.126083 -94.740193 
L 289.372218 -93.800204 
L 289.588021 -92.860215 
L 289.807915 -91.920226 
L 290.074557 -90.980236 
L 290.42801 -90.040247 
L 290.888811 -89.100258 
L 291.441489 -88.160269 
L 292.028772 -87.22028 
L 292.56354 -86.280291 
L 292.956068 -85.340302 
L 293.144091 -84.400312 
L 293.110149 -83.460323 
L 292.87778 -82.520334 
L 292.491244 -81.580345 
L 291.993259 -80.640356 
L 291.414547 -79.700367 
L 290.778914 -78.760378 
L 290.116157 -77.820388 
L 289.470699 -76.880399 
L 288.898464 -75.94041 
L 288.453567 -75.000421 
L 288.173202 -74.060432 
L 288.069485 -73.120443 
L 288.131708 -72.180454 
L 288.335384 -71.240464 
L 288.650684 -70.300475 
L 289.04459 -69.360486 
L 289.47686 -68.420497 
L 289.894922 -67.480508 
L 290.233442 -66.540519 
L 290.420877 -65.600529 
L 290.391327 -64.66054 
L 290.098339 -63.720551 
L 289.527546 -62.780562 
L 288.705077 -61.840573 
L 287.69794 -60.900584 
L 286.6034 -59.960595 
L 285.528278 -59.020605 
L 284.564663 -58.080616 
L 283.771325 -57.140627 
L 283.167552 -56.200638 
L 282.739661 -55.260649 
L 282.454716 -54.32066 
L 282.274419 -53.380671 
L 282.16454 -52.440681 
L 282.098911 -51.500692 
L 282.059427 -50.560703 
L 282.034081 -49.620714 
L 282.014682 -48.680725 
L 281.99529 -47.740736 
L 281.97174 -46.800747 
L 281.942004 -45.860757 
L 281.906598 -44.920768 
L 281.868314 -43.980779 
L 281.831119 -43.04079 
L 281.798674 -42.100801 
L 281.773211 -41.160812 
L 281.75518 -40.220822 
z
" style="stroke: #595959; stroke-width: 1.5"/>
    </defs>
    <g clip-path="url(#pc88d751f12)">
     <use xlink:href="#md6f98b3e4d" x="0" y="288" style="fill: #e99675; stroke: #595959; stroke-width: 1.5"/>
    </g>
   </g>
   <g id="matplotlib.axis_3">
    <g id="xtick_3">
     <g id="line2d_18">
      <g>
       <use xlink:href="#m0e51ef3727" x="205.639545" y="259.3" style="stroke: #000000; stroke-width: 0.8"/>
      </g>
     </g>
    </g>
    <g id="xtick_4">
     <g id="line2d_19">
      <g>
       <use xlink:href="#m0e51ef3727" x="281.730455" y="259.3" style="stroke: #000000; stroke-width: 0.8"/>
      </g>
     </g>
    </g>
   </g>
   <g id="matplotlib.axis_4">
    <g id="ytick_8">
     <g id="line2d_20">
      <g>
       <use xlink:href="#m8e8571f38b" x="189.28" y="246.200052" style="stroke: #000000; stroke-width: 0.8"/>
      </g>
     </g>
    </g>
    <g id="ytick_9">
     <g id="line2d_21">
      <g>
       <use xlink:href="#m8e8571f38b" x="189.28" y="213.646216" style="stroke: #000000; stroke-width: 0.8"/>
      </g>
     </g>
    </g>
    <g id="ytick_10">
     <g id="line2d_22">
      <g>
       <use xlink:href="#m8e8571f38b" x="189.28" y="181.092379" style="stroke: #000000; stroke-width: 0.8"/>
      </g>
     </g>
    </g>
    <g id="ytick_11">
     <g id="line2d_23">
      <g>
       <use xlink:href="#m8e8571f38b" x="189.28" y="148.538543" style="stroke: #000000; stroke-width: 0.8"/>
      </g>
     </g>
    </g>
    <g id="ytick_12">
     <g id="line2d_24">
      <g>
       <use xlink:href="#m8e8571f38b" x="189.28" y="115.984707" style="stroke: #000000; stroke-width: 0.8"/>
      </g>
     </g>
    </g>
    <g id="ytick_13">
     <g id="line2d_25">
      <g>
       <use xlink:href="#m8e8571f38b" x="189.28" y="83.43087" style="stroke: #000000; stroke-width: 0.8"/>
      </g>
     </g>
    </g>
    <g id="ytick_14">
     <g id="line2d_26">
      <g>
       <use xlink:href="#m8e8571f38b" x="189.28" y="50.877034" style="stroke: #000000; stroke-width: 0.8"/>
      </g>
     </g>
    </g>
   </g>
   <g id="line2d_27">
    <path d="M 205.639545 241.613216 
L 205.639545 163.06732 
" clip-path="url(#pc88d751f12)" style="fill: none; stroke: #595959; stroke-width: 1.5; stroke-linecap: square"/>
   </g>
   <g id="line2d_28">
    <path d="M 205.639545 217.129476 
L 205.639545 195.243532 
" clip-path="url(#pc88d751f12)" style="fill: none; stroke: #595959; stroke-width: 4.5; stroke-linecap: square"/>
   </g>
   <g id="line2d_29">
    <path d="M 281.730455 241.323487 
L 281.730455 161.175942 
" clip-path="url(#pc88d751f12)" style="fill: none; stroke: #595959; stroke-width: 1.5; stroke-linecap: square"/>
   </g>
   <g id="line2d_30">
    <path d="M 281.730455 216.75999 
L 281.730455 194.239246 
" clip-path="url(#pc88d751f12)" style="fill: none; stroke: #595959; stroke-width: 4.5; stroke-linecap: square"/>
   </g>
   <g id="line2d_31"/>
   <g id="line2d_32"/>
   <g id="patch_10">
    <path d="M 189.28 259.3 
L 189.28 25.2 
" style="fill: none; stroke: #000000; stroke-width: 0.8; stroke-linejoin: miter; stroke-linecap: square"/>
   </g>
   <g id="patch_11">
    <path d="M 298.09 259.3 
L 298.09 25.2 
" style="fill: none; stroke: #000000; stroke-width: 0.8; stroke-linejoin: miter; stroke-linecap: square"/>
   </g>
   <g id="patch_12">
    <path d="M 189.28 259.3 
L 298.09 259.3 
" style="fill: none; stroke: #000000; stroke-width: 0.8; stroke-linejoin: miter; stroke-linecap: square"/>
   </g>
   <g id="patch_13">
    <path d="M 189.28 25.2 
L 298.09 25.2 
" style="fill: none; stroke: #000000; stroke-width: 0.8; stroke-linejoin: miter; stroke-linecap: square"/>
   </g>
   <g id="PathCollection_3">
    <g clip-path="url(#pc88d751f12)">
     <use xlink:href="#mf688b96883" x="205.639545" y="206.181621" style="fill: #ffffff; stroke: #595959"/>
    </g>
   </g>
   <g id="PathCollection_4">
    <g clip-path="url(#pc88d751f12)">
     <use xlink:href="#mf688b96883" x="281.730455" y="203.886575" style="fill: #ffffff; stroke: #595959"/>
    </g>
   </g>
   <g id="text_12">
    <g id="patch_14">
     <path d="M 228.804 79.89125 
L 261.924 79.89125 
L 261.924 64.14875 
L 228.804 64.14875 
z
" style="fill: #ffffff; opacity: 0.2; stroke: #000000; stroke-linejoin: miter"/>
    </g>
    <!-- $n = 58$ -->
    <g transform="translate(232.804 74.2275) scale(0.08 -0.08)">
     <defs>
      <path id="DejaVuSans-38" d="M 2034 2216 
Q 1584 2216 1326 1975 
Q 1069 1734 1069 1313 
Q 1069 891 1326 650 
Q 1584 409 2034 409 
Q 2484 409 2743 651 
Q 3003 894 3003 1313 
Q 3003 1734 2745 1975 
Q 2488 2216 2034 2216 
z
M 1403 2484 
Q 997 2584 770 2862 
Q 544 3141 544 3541 
Q 544 4100 942 4425 
Q 1341 4750 2034 4750 
Q 2731 4750 3128 4425 
Q 3525 4100 3525 3541 
Q 3525 3141 3298 2862 
Q 3072 2584 2669 2484 
Q 3125 2378 3379 2068 
Q 3634 1759 3634 1313 
Q 3634 634 3220 271 
Q 2806 -91 2034 -91 
Q 1263 -91 848 271 
Q 434 634 434 1313 
Q 434 1759 690 2068 
Q 947 2378 1403 2484 
z
M 1172 3481 
Q 1172 3119 1398 2916 
Q 1625 2713 2034 2713 
Q 2441 2713 2670 2916 
Q 2900 3119 2900 3481 
Q 2900 3844 2670 4047 
Q 2441 4250 2034 4250 
Q 1625 4250 1398 4047 
Q 1172 3844 1172 3481 
z
" transform="scale(0.015625)"/>
     </defs>
     <use xlink:href="#DejaVuSans-Oblique-6e" transform="translate(0 0.78125)"/>
     <use xlink:href="#DejaVuSans-3d" transform="translate(82.861328 0.78125)"/>
     <use xlink:href="#DejaVuSans-35" transform="translate(186.132812 0.78125)"/>
     <use xlink:href="#DejaVuSans-38" transform="translate(249.755859 0.78125)"/>
    </g>
   </g>
  </g>
  <g id="axes_3">
   <g id="patch_15">
    <path d="M 312.39 259.3 
L 421.2 259.3 
L 421.2 25.2 
L 312.39 25.2 
z
" style="fill: #ffffff"/>
   </g>
   <g id="PolyCollection_5">
    <defs>
     <path id="mcda9a30327" d="M 328.793844 -41.447049 
L 328.705247 -41.447049 
L 328.635963 -43.516086 
L 328.496318 -45.585122 
L 328.248712 -47.654159 
L 327.854376 -49.723196 
L 327.284991 -51.792232 
L 326.544281 -53.861269 
L 325.690739 -55.930305 
L 324.832877 -57.999342 
L 324.074862 -60.068379 
L 323.440585 -62.137415 
L 322.8531 -64.206452 
L 322.213229 -66.275489 
L 321.510058 -68.344525 
L 320.843953 -70.413562 
L 320.336347 -72.482599 
L 320.019182 -74.551635 
L 319.795284 -76.620672 
L 319.488848 -78.689709 
L 318.965739 -80.758745 
L 318.264142 -82.827782 
L 317.621261 -84.896819 
L 317.335909 -86.965855 
L 317.582125 -89.034892 
L 318.347871 -91.103929 
L 319.505951 -93.172965 
L 320.883525 -95.242002 
L 322.278129 -97.311039 
L 323.490358 -99.380075 
L 324.401481 -101.449112 
L 325.024354 -103.518149 
L 325.470448 -105.587185 
L 325.863895 -107.656222 
L 326.270438 -109.725259 
L 326.680792 -111.794295 
L 327.04597 -113.863332 
L 327.330432 -115.932369 
L 327.539153 -118.001405 
L 327.701884 -120.070442 
L 327.840038 -122.139479 
L 327.952104 -124.208515 
L 328.026185 -126.277552 
L 328.060199 -128.346589 
L 328.068279 -130.415625 
L 328.071078 -132.484662 
L 328.084816 -134.553699 
L 328.120628 -136.622735 
L 328.188101 -138.691772 
L 328.290885 -140.760808 
L 328.417381 -142.829845 
L 328.54184 -144.898882 
L 328.639494 -146.967918 
L 328.700745 -149.036955 
L 328.731576 -151.105992 
L 328.744077 -153.175028 
L 328.748175 -155.244065 
L 328.749263 -157.313102 
L 328.749498 -159.382138 
L 328.749539 -161.451175 
L 328.749545 -163.520212 
L 328.749545 -165.589248 
L 328.749545 -167.658285 
L 328.749545 -169.727322 
L 328.749545 -171.796358 
L 328.749545 -173.865395 
L 328.749545 -175.934432 
L 328.749545 -178.003468 
L 328.74954 -180.072505 
L 328.749508 -182.141542 
L 328.749348 -184.210578 
L 328.748685 -186.279615 
L 328.746464 -188.348652 
L 328.740461 -190.417688 
L 328.727392 -192.486725 
L 328.704603 -194.555762 
L 328.673112 -196.624798 
L 328.639614 -198.693835 
L 328.614681 -200.762872 
L 328.60755 -202.831908 
L 328.621013 -204.900945 
L 328.649848 -206.969982 
L 328.683743 -209.039018 
L 328.712862 -211.108055 
L 328.732159 -213.177092 
L 328.741563 -215.246128 
L 328.74286 -217.315165 
L 328.736675 -219.384201 
L 328.722095 -221.453238 
L 328.698774 -223.522275 
L 328.668639 -225.591311 
L 328.634123 -227.660348 
L 328.595008 -229.729385 
L 328.550861 -231.798421 
L 328.509629 -233.867458 
L 328.489999 -235.936495 
L 328.508239 -238.005531 
L 328.561617 -240.074568 
L 328.62856 -242.143605 
L 328.685562 -244.212641 
L 328.721828 -246.281678 
L 328.777263 -246.281678 
L 328.777263 -246.281678 
L 328.813529 -244.212641 
L 328.870531 -242.143605 
L 328.937473 -240.074568 
L 328.990852 -238.005531 
L 329.009092 -235.936495 
L 328.989462 -233.867458 
L 328.94823 -231.798421 
L 328.904083 -229.729385 
L 328.864968 -227.660348 
L 328.830452 -225.591311 
L 328.800317 -223.522275 
L 328.776996 -221.453238 
L 328.762416 -219.384201 
L 328.756231 -217.315165 
L 328.757528 -215.246128 
L 328.766932 -213.177092 
L 328.786229 -211.108055 
L 328.815347 -209.039018 
L 328.849243 -206.969982 
L 328.878078 -204.900945 
L 328.891541 -202.831908 
L 328.88441 -200.762872 
L 328.859477 -198.693835 
L 328.825979 -196.624798 
L 328.794488 -194.555762 
L 328.771699 -192.486725 
L 328.75863 -190.417688 
L 328.752627 -188.348652 
L 328.750406 -186.279615 
L 328.749743 -184.210578 
L 328.749583 -182.141542 
L 328.749551 -180.072505 
L 328.749546 -178.003468 
L 328.749546 -175.934432 
L 328.749545 -173.865395 
L 328.749545 -171.796358 
L 328.749545 -169.727322 
L 328.749545 -167.658285 
L 328.749546 -165.589248 
L 328.749546 -163.520212 
L 328.749552 -161.451175 
L 328.749593 -159.382138 
L 328.749828 -157.313102 
L 328.750916 -155.244065 
L 328.755014 -153.175028 
L 328.767515 -151.105992 
L 328.798346 -149.036955 
L 328.859597 -146.967918 
L 328.957251 -144.898882 
L 329.08171 -142.829845 
L 329.208206 -140.760808 
L 329.31099 -138.691772 
L 329.378463 -136.622735 
L 329.414275 -134.553699 
L 329.428013 -132.484662 
L 329.430812 -130.415625 
L 329.438892 -128.346589 
L 329.472906 -126.277552 
L 329.546987 -124.208515 
L 329.659053 -122.139479 
L 329.797207 -120.070442 
L 329.959938 -118.001405 
L 330.168659 -115.932369 
L 330.453121 -113.863332 
L 330.818299 -111.794295 
L 331.228653 -109.725259 
L 331.635196 -107.656222 
L 332.028643 -105.587185 
L 332.474737 -103.518149 
L 333.09761 -101.449112 
L 334.008733 -99.380075 
L 335.220962 -97.311039 
L 336.615566 -95.242002 
L 337.99314 -93.172965 
L 339.15122 -91.103929 
L 339.916966 -89.034892 
L 340.163182 -86.965855 
L 339.87783 -84.896819 
L 339.234949 -82.827782 
L 338.533352 -80.758745 
L 338.010243 -78.689709 
L 337.703807 -76.620672 
L 337.479908 -74.551635 
L 337.162744 -72.482599 
L 336.655138 -70.413562 
L 335.989033 -68.344525 
L 335.285861 -66.275489 
L 334.645991 -64.206452 
L 334.058506 -62.137415 
L 333.424228 -60.068379 
L 332.666214 -57.999342 
L 331.808352 -55.930305 
L 330.95481 -53.861269 
L 330.2141 -51.792232 
L 329.644715 -49.723196 
L 329.250378 -47.654159 
L 329.002772 -45.585122 
L 328.863128 -43.516086 
L 328.793844 -41.447049 
z
" style="stroke: #595959; stroke-width: 1.5"/>
    </defs>
    <g clip-path="url(#p31bf7ed16f)">
     <use xlink:href="#mcda9a30327" x="0" y="288" style="fill: #72b6a1; stroke: #595959; stroke-width: 1.5"/>
    </g>
   </g>
   <g id="PolyCollection_6">
    <defs>
     <path id="m34586761b1" d="M 404.932353 -41.107044 
L 404.748556 -41.107044 
L 404.641432 -43.238882 
L 404.448544 -45.370721 
L 404.135713 -47.50256 
L 403.676831 -49.634399 
L 403.064145 -51.766238 
L 402.312673 -53.898077 
L 401.455821 -56.029916 
L 400.53599 -58.161754 
L 399.598003 -60.293593 
L 398.688972 -62.425432 
L 397.85837 -64.557271 
L 397.147941 -66.68911 
L 396.570802 -68.820949 
L 396.09524 -70.952788 
L 395.653305 -73.084627 
L 395.177865 -75.216465 
L 394.647528 -77.348304 
L 394.109463 -79.480143 
L 393.664747 -81.611982 
L 393.426818 -83.743821 
L 393.479785 -85.87566 
L 393.858612 -88.007499 
L 394.553613 -90.139337 
L 395.524741 -92.271176 
L 396.710477 -94.403015 
L 398.029151 -96.534854 
L 399.381661 -98.666693 
L 400.663245 -100.798532 
L 401.782272 -102.930371 
L 402.677501 -105.062209 
L 403.326625 -107.194048 
L 403.744341 -109.325887 
L 403.97257 -111.457726 
L 404.066939 -113.589565 
L 404.083261 -115.721404 
L 404.066395 -117.853243 
L 404.042788 -119.985081 
L 404.017912 -122.11692 
L 403.980083 -124.248759 
L 403.911108 -126.380598 
L 403.801009 -128.512437 
L 403.660479 -130.644276 
L 403.523732 -132.776115 
L 403.438221 -134.907954 
L 403.44498 -137.039792 
L 403.55969 -139.171631 
L 403.765027 -141.30347 
L 404.018473 -143.435309 
L 404.270542 -145.567148 
L 404.482951 -147.698987 
L 404.637992 -149.830826 
L 404.737131 -151.962664 
L 404.793015 -154.094503 
L 404.820887 -156.226342 
L 404.833213 -158.358181 
L 404.838052 -160.49002 
L 404.839741 -162.621859 
L 404.840265 -164.753698 
L 404.840409 -166.885536 
L 404.840445 -169.017375 
L 404.840453 -171.149214 
L 404.840454 -173.281053 
L 404.840454 -175.412892 
L 404.840455 -177.544731 
L 404.840454 -179.67657 
L 404.840454 -181.808408 
L 404.840452 -183.940247 
L 404.840443 -186.072086 
L 404.840409 -188.203925 
L 404.84029 -190.335764 
L 404.83992 -192.467603 
L 404.838912 -194.599442 
L 404.836481 -196.731281 
L 404.831323 -198.863119 
L 404.821715 -200.994958 
L 404.80605 -203.126797 
L 404.783767 -205.258636 
L 404.75615 -207.390475 
L 404.726138 -209.522314 
L 404.696637 -211.654153 
L 404.667971 -213.785991 
L 404.636182 -215.91783 
L 404.593799 -218.049669 
L 404.533324 -220.181508 
L 404.452017 -222.313347 
L 404.355744 -224.445186 
L 404.259778 -226.577025 
L 404.185321 -228.708863 
L 404.152243 -230.840702 
L 404.17103 -232.972541 
L 404.238308 -235.10438 
L 404.338722 -237.236219 
L 404.451823 -239.368058 
L 404.559579 -241.499897 
L 404.650636 -243.631735 
L 404.720594 -245.763574 
L 404.770019 -247.895413 
L 404.802182 -250.027252 
L 404.821367 -252.159091 
L 404.859542 -252.159091 
L 404.859542 -252.159091 
L 404.878727 -250.027252 
L 404.91089 -247.895413 
L 404.960315 -245.763574 
L 405.030273 -243.631735 
L 405.121331 -241.499897 
L 405.229086 -239.368058 
L 405.342187 -237.236219 
L 405.442601 -235.10438 
L 405.509879 -232.972541 
L 405.528666 -230.840702 
L 405.495588 -228.708863 
L 405.421131 -226.577025 
L 405.325165 -224.445186 
L 405.228892 -222.313347 
L 405.147585 -220.181508 
L 405.08711 -218.049669 
L 405.044727 -215.91783 
L 405.012938 -213.785991 
L 404.984272 -211.654153 
L 404.954771 -209.522314 
L 404.924759 -207.390475 
L 404.897142 -205.258636 
L 404.874859 -203.126797 
L 404.859194 -200.994958 
L 404.849586 -198.863119 
L 404.844428 -196.731281 
L 404.841997 -194.599442 
L 404.840989 -192.467603 
L 404.840619 -190.335764 
L 404.8405 -188.203925 
L 404.840466 -186.072086 
L 404.840457 -183.940247 
L 404.840455 -181.808408 
L 404.840455 -179.67657 
L 404.840455 -177.544731 
L 404.840455 -175.412892 
L 404.840455 -173.281053 
L 404.840456 -171.149214 
L 404.840464 -169.017375 
L 404.8405 -166.885536 
L 404.840644 -164.753698 
L 404.841168 -162.621859 
L 404.842857 -160.49002 
L 404.847696 -158.358181 
L 404.860022 -156.226342 
L 404.887894 -154.094503 
L 404.943778 -151.962664 
L 405.042917 -149.830826 
L 405.197958 -147.698987 
L 405.410367 -145.567148 
L 405.662436 -143.435309 
L 405.915882 -141.30347 
L 406.121219 -139.171631 
L 406.235929 -137.039792 
L 406.242688 -134.907954 
L 406.157177 -132.776115 
L 406.02043 -130.644276 
L 405.8799 -128.512437 
L 405.769801 -126.380598 
L 405.700826 -124.248759 
L 405.662997 -122.11692 
L 405.638121 -119.985081 
L 405.614514 -117.853243 
L 405.597648 -115.721404 
L 405.61397 -113.589565 
L 405.708339 -111.457726 
L 405.936568 -109.325887 
L 406.354285 -107.194048 
L 407.003408 -105.062209 
L 407.898637 -102.930371 
L 409.017664 -100.798532 
L 410.299248 -98.666693 
L 411.651758 -96.534854 
L 412.970432 -94.403015 
L 414.156168 -92.271176 
L 415.127296 -90.139337 
L 415.822297 -88.007499 
L 416.201124 -85.87566 
L 416.254091 -83.743821 
L 416.016162 -81.611982 
L 415.571446 -79.480143 
L 415.033381 -77.348304 
L 414.503045 -75.216465 
L 414.027604 -73.084627 
L 413.585669 -70.952788 
L 413.110107 -68.820949 
L 412.532968 -66.68911 
L 411.82254 -64.557271 
L 410.991937 -62.425432 
L 410.082907 -60.293593 
L 409.144919 -58.161754 
L 408.225088 -56.029916 
L 407.368236 -53.898077 
L 406.616764 -51.766238 
L 406.004078 -49.634399 
L 405.545196 -47.50256 
L 405.232365 -45.370721 
L 405.039478 -43.238882 
L 404.932353 -41.107044 
z
" style="stroke: #595959; stroke-width: 1.5"/>
    </defs>
    <g clip-path="url(#p31bf7ed16f)">
     <use xlink:href="#m34586761b1" x="0" y="288" style="fill: #e99675; stroke: #595959; stroke-width: 1.5"/>
    </g>
   </g>
   <g id="matplotlib.axis_5">
    <g id="xtick_5">
     <g id="line2d_33">
      <g>
       <use xlink:href="#m0e51ef3727" x="328.749545" y="259.3" style="stroke: #000000; stroke-width: 0.8"/>
      </g>
     </g>
    </g>
    <g id="xtick_6">
     <g id="line2d_34">
      <g>
       <use xlink:href="#m0e51ef3727" x="404.840455" y="259.3" style="stroke: #000000; stroke-width: 0.8"/>
      </g>
     </g>
    </g>
   </g>
   <g id="matplotlib.axis_6">
    <g id="ytick_15">
     <g id="line2d_35">
      <g>
       <use xlink:href="#m8e8571f38b" x="312.39" y="246.200052" style="stroke: #000000; stroke-width: 0.8"/>
      </g>
     </g>
    </g>
    <g id="ytick_16">
     <g id="line2d_36">
      <g>
       <use xlink:href="#m8e8571f38b" x="312.39" y="213.646216" style="stroke: #000000; stroke-width: 0.8"/>
      </g>
     </g>
    </g>
    <g id="ytick_17">
     <g id="line2d_37">
      <g>
       <use xlink:href="#m8e8571f38b" x="312.39" y="181.092379" style="stroke: #000000; stroke-width: 0.8"/>
      </g>
     </g>
    </g>
    <g id="ytick_18">
     <g id="line2d_38">
      <g>
       <use xlink:href="#m8e8571f38b" x="312.39" y="148.538543" style="stroke: #000000; stroke-width: 0.8"/>
      </g>
     </g>
    </g>
    <g id="ytick_19">
     <g id="line2d_39">
      <g>
       <use xlink:href="#m8e8571f38b" x="312.39" y="115.984707" style="stroke: #000000; stroke-width: 0.8"/>
      </g>
     </g>
    </g>
    <g id="ytick_20">
     <g id="line2d_40">
      <g>
       <use xlink:href="#m8e8571f38b" x="312.39" y="83.43087" style="stroke: #000000; stroke-width: 0.8"/>
      </g>
     </g>
    </g>
    <g id="ytick_21">
     <g id="line2d_41">
      <g>
       <use xlink:href="#m8e8571f38b" x="312.39" y="50.877034" style="stroke: #000000; stroke-width: 0.8"/>
      </g>
     </g>
    </g>
   </g>
   <g id="line2d_42">
    <path d="M 328.749545 237.361685 
L 328.749545 163.243111 
" clip-path="url(#p31bf7ed16f)" style="fill: none; stroke: #595959; stroke-width: 1.5; stroke-linecap: square"/>
   </g>
   <g id="line2d_43">
    <path d="M 328.749545 215.436677 
L 328.749545 194.286449 
" clip-path="url(#p31bf7ed16f)" style="fill: none; stroke: #595959; stroke-width: 4.5; stroke-linecap: square"/>
   </g>
   <g id="line2d_44">
    <path d="M 404.840455 234.334179 
L 404.840455 164.571307 
" clip-path="url(#p31bf7ed16f)" style="fill: none; stroke: #595959; stroke-width: 1.5; stroke-linecap: square"/>
   </g>
   <g id="line2d_45">
    <path d="M 404.840455 217.409439 
L 404.840455 195.451876 
" clip-path="url(#p31bf7ed16f)" style="fill: none; stroke: #595959; stroke-width: 4.5; stroke-linecap: square"/>
   </g>
   <g id="line2d_46"/>
   <g id="line2d_47"/>
   <g id="patch_16">
    <path d="M 312.39 259.3 
L 312.39 25.2 
" style="fill: none; stroke: #000000; stroke-width: 0.8; stroke-linejoin: miter; stroke-linecap: square"/>
   </g>
   <g id="patch_17">
    <path d="M 421.2 259.3 
L 421.2 25.2 
" style="fill: none; stroke: #000000; stroke-width: 0.8; stroke-linejoin: miter; stroke-linecap: square"/>
   </g>
   <g id="patch_18">
    <path d="M 312.39 259.3 
L 421.2 259.3 
" style="fill: none; stroke: #000000; stroke-width: 0.8; stroke-linejoin: miter; stroke-linecap: square"/>
   </g>
   <g id="patch_19">
    <path d="M 312.39 25.2 
L 421.2 25.2 
" style="fill: none; stroke: #000000; stroke-width: 0.8; stroke-linejoin: miter; stroke-linecap: square"/>
   </g>
   <g id="PathCollection_5">
    <g clip-path="url(#p31bf7ed16f)">
     <use xlink:href="#mf688b96883" x="328.749545" y="203.29084" style="fill: #ffffff; stroke: #595959"/>
    </g>
   </g>
   <g id="PathCollection_6">
    <g clip-path="url(#p31bf7ed16f)">
     <use xlink:href="#mf688b96883" x="404.840455" y="204.394415" style="fill: #ffffff; stroke: #595959"/>
    </g>
   </g>
   <g id="text_13">
    <g id="patch_20">
     <path d="M 351.914 79.89125 
L 390.154 79.89125 
L 390.154 64.14875 
L 351.914 64.14875 
z
" style="fill: #ffffff; opacity: 0.2; stroke: #000000; stroke-linejoin: miter"/>
    </g>
    <!-- $n = 100$ -->
    <g transform="translate(355.914 74.2275) scale(0.08 -0.08)">
     <use xlink:href="#DejaVuSans-Oblique-6e" transform="translate(0 0.78125)"/>
     <use xlink:href="#DejaVuSans-3d" transform="translate(82.861328 0.78125)"/>
     <use xlink:href="#DejaVuSans-31" transform="translate(186.132812 0.78125)"/>
     <use xlink:href="#DejaVuSans-30" transform="translate(249.755859 0.78125)"/>
     <use xlink:href="#DejaVuSans-30" transform="translate(313.378906 0.78125)"/>
    </g>
   </g>
  </g>
 </g>
 <defs>
  <clipPath id="p7a5f4bfe90">
   <rect x="66.17" y="25.2" width="108.81" height="234.1"/>
  </clipPath>
  <clipPath id="pc88d751f12">
   <rect x="189.28" y="25.2" width="108.81" height="234.1"/>
  </clipPath>
  <clipPath id="p31bf7ed16f">
   <rect x="312.39" y="25.2" width="108.81" height="234.1"/>
  </clipPath>
 </defs>
</svg>
