<?xml version="1.0" encoding="utf-8" standalone="no"?>
<!DOCTYPE svg PUBLIC "-//W3C//DTD SVG 1.1//EN"
  "http://www.w3.org/Graphics/SVG/1.1/DTD/svg11.dtd">
<svg xmlns:xlink="http://www.w3.org/1999/xlink" width="432pt" height="288pt" viewBox="0 0 432 288" xmlns="http://www.w3.org/2000/svg" version="1.1">
 <metadata>
  <rdf:RDF xmlns:dc="http://purl.org/dc/elements/1.1/" xmlns:cc="http://creativecommons.org/ns#" xmlns:rdf="http://www.w3.org/1999/02/22-rdf-syntax-ns#">
   <cc:Work>
    <dc:type rdf:resource="http://purl.org/dc/dcmitype/StillImage"/>
    <dc:date>2025-02-28T19:06:22.476295</dc:date>
    <dc:format>image/svg+xml</dc:format>
    <dc:creator>
     <cc:Agent>
      <dc:title>Matplotlib v3.7.2, https://matplotlib.org/</dc:title>
     </cc:Agent>
    </dc:creator>
   </cc:Work>
  </rdf:RDF>
 </metadata>
 <defs>
  <style type="text/css">*{stroke-linejoin: round; stroke-linecap: butt}</style>
 </defs>
 <g id="figure_1">
  <g id="patch_1">
   <path d="M 0 288 
L 432 288 
L 432 0 
L 0 0 
z
" style="fill: #ffffff"/>
  </g>
  <g id="axes_1">
   <g id="patch_2">
    <path d="M 72.47 257.498125 
L 179.18 257.498125 
L 179.18 25.2 
L 72.47 25.2 
z
" style="fill: #ffffff"/>
   </g>
   <g id="PolyCollection_1">
    <defs>
     <path id="m77e61d93c8" d="M 88.937736 -41.761539 
L 88.089887 -41.761539 
L 87.896894 -42.093112 
L 87.647331 -42.424685 
L 87.339225 -42.756258 
L 86.977053 -43.087831 
L 86.573274 -43.419403 
L 86.148792 -43.750976 
L 85.731895 -44.082549 
L 85.355532 -44.414122 
L 85.053186 -44.745695 
L 84.85402 -45.077267 
L 84.77825 -45.40884 
L 84.833764 -45.740413 
L 85.014772 -46.071986 
L 85.302798 -46.403559 
L 85.66979 -46.735131 
L 86.082611 -47.066704 
L 86.507929 -47.398277 
L 86.916511 -47.72985 
L 87.286193 -48.061422 
L 87.603196 -48.392995 
L 87.861881 -48.724568 
L 88.063347 -49.056141 
L 88.213403 -49.387714 
L 88.320456 -49.719286 
L 88.393698 -50.050859 
L 88.441798 -50.382432 
L 88.472141 -50.714005 
L 88.49054 -51.045578 
L 88.501268 -51.37715 
L 88.507286 -51.708723 
L 88.510535 -52.040296 
L 88.512223 -52.371869 
L 88.513067 -52.703442 
L 88.51347 -53.035014 
L 88.513649 -53.366587 
L 88.513706 -53.69816 
L 88.513676 -54.029733 
L 88.513533 -54.361306 
L 88.513178 -54.692878 
L 88.512385 -55.024451 
L 88.510697 -55.356024 
L 88.507244 -55.687597 
L 88.500446 -56.019169 
L 88.487562 -56.350742 
L 88.464065 -56.682315 
L 88.422836 -57.013888 
L 88.35326 -57.345461 
L 88.240394 -57.677033 
L 88.064486 -58.008606 
L 87.801254 -58.340179 
L 87.42337 -58.671752 
L 86.903499 -59.003325 
L 86.219019 -59.334897 
L 85.358064 -59.66647 
L 84.325996 -59.998043 
L 83.150913 -60.329616 
L 81.886477 -60.661189 
L 80.610559 -60.992761 
L 79.418846 -61.324334 
L 78.413731 -61.655907 
L 77.690063 -61.98748 
L 77.320455 -62.319053 
L 77.343282 -62.650625 
L 77.756103 -62.982198 
L 78.516057 -63.313771 
L 79.54714 -63.645344 
L 80.752615 -63.976916 
L 82.029718 -64.308489 
L 83.283521 -64.640062 
L 84.437367 -64.971635 
L 85.438416 -65.303208 
L 86.258174 -65.63478 
L 86.888986 -65.966353 
L 87.338163 -66.297926 
L 87.621518 -66.629499 
L 87.757837 -66.961072 
L 87.765216 -67.292644 
L 87.659616 -67.624217 
L 87.455401 -67.95579 
L 87.167257 -68.287363 
L 86.812608 -68.618936 
L 86.413637 -68.950508 
L 85.998108 -69.282081 
L 85.598509 -69.613654 
L 85.249452 -69.945227 
L 84.983717 -70.2768 
L 84.827767 -70.608372 
L 84.797733 -70.939945 
L 84.896844 -71.271518 
L 85.114949 -71.603091 
L 85.430278 -71.934663 
L 85.813039 -72.266236 
L 86.230055 -72.597809 
L 86.649439 -72.929382 
L 87.044431 -73.260955 
L 87.395784 -73.592527 
L 87.692543 -73.9241 
L 87.931401 -74.255673 
L 88.115079 -74.587246 
L 88.912543 -74.587246 
L 88.912543 -74.587246 
L 89.096221 -74.255673 
L 89.335079 -73.9241 
L 89.631839 -73.592527 
L 89.983192 -73.260955 
L 90.378183 -72.929382 
L 90.797568 -72.597809 
L 91.214583 -72.266236 
L 91.597344 -71.934663 
L 91.912673 -71.603091 
L 92.130779 -71.271518 
L 92.229889 -70.939945 
L 92.199855 -70.608372 
L 92.043906 -70.2768 
L 91.778171 -69.945227 
L 91.429113 -69.613654 
L 91.029514 -69.282081 
L 90.613985 -68.950508 
L 90.215014 -68.618936 
L 89.860365 -68.287363 
L 89.572221 -67.95579 
L 89.368006 -67.624217 
L 89.262406 -67.292644 
L 89.269786 -66.961072 
L 89.406105 -66.629499 
L 89.689459 -66.297926 
L 90.138636 -65.966353 
L 90.769448 -65.63478 
L 91.589206 -65.303208 
L 92.590255 -64.971635 
L 93.744101 -64.640062 
L 94.997904 -64.308489 
L 96.275007 -63.976916 
L 97.480482 -63.645344 
L 98.511565 -63.313771 
L 99.271519 -62.982198 
L 99.68434 -62.650625 
L 99.707168 -62.319053 
L 99.33756 -61.98748 
L 98.613891 -61.655907 
L 97.608776 -61.324334 
L 96.417064 -60.992761 
L 95.141145 -60.661189 
L 93.876709 -60.329616 
L 92.701626 -59.998043 
L 91.669559 -59.66647 
L 90.808603 -59.334897 
L 90.124124 -59.003325 
L 89.604253 -58.671752 
L 89.226368 -58.340179 
L 88.963136 -58.008606 
L 88.787228 -57.677033 
L 88.674363 -57.345461 
L 88.604787 -57.013888 
L 88.563557 -56.682315 
L 88.54006 -56.350742 
L 88.527177 -56.019169 
L 88.520379 -55.687597 
L 88.516926 -55.356024 
L 88.515237 -55.024451 
L 88.514444 -54.692878 
L 88.514089 -54.361306 
L 88.513946 -54.029733 
L 88.513916 -53.69816 
L 88.513974 -53.366587 
L 88.514152 -53.035014 
L 88.514556 -52.703442 
L 88.515399 -52.371869 
L 88.517087 -52.040296 
L 88.520336 -51.708723 
L 88.526354 -51.37715 
L 88.537083 -51.045578 
L 88.555481 -50.714005 
L 88.585824 -50.382432 
L 88.633924 -50.050859 
L 88.707166 -49.719286 
L 88.81422 -49.387714 
L 88.964276 -49.056141 
L 89.165741 -48.724568 
L 89.424427 -48.392995 
L 89.741429 -48.061422 
L 90.111111 -47.72985 
L 90.519694 -47.398277 
L 90.945011 -47.066704 
L 91.357832 -46.735131 
L 91.724824 -46.403559 
L 92.012851 -46.071986 
L 92.193859 -45.740413 
L 92.249373 -45.40884 
L 92.173602 -45.077267 
L 91.974436 -44.745695 
L 91.67209 -44.414122 
L 91.295727 -44.082549 
L 90.87883 -43.750976 
L 90.454348 -43.419403 
L 90.050569 -43.087831 
L 89.688397 -42.756258 
L 89.380292 -42.424685 
L 89.130729 -42.093112 
L 88.937736 -41.761539 
z
" style="stroke: #595959; stroke-width: 1.5"/>
    </defs>
    <g clip-path="url(#p64bc1ef913)">
     <use xlink:href="#m77e61d93c8" x="0" y="288" style="fill: #72b6a1; stroke: #595959; stroke-width: 1.5"/>
    </g>
   </g>
   <g id="PolyCollection_2">
    <defs>
     <path id="mc5a0f45229" d="M 163.568627 -41.842363 
L 162.703751 -41.842363 
L 162.507792 -42.169775 
L 162.254743 -42.497187 
L 161.942727 -42.824598 
L 161.57637 -43.15201 
L 161.168337 -43.479422 
L 160.739762 -43.806833 
L 160.31917 -44.134245 
L 159.939727 -44.461657 
L 159.635096 -44.789068 
L 159.434565 -45.11648 
L 159.358417 -45.443892 
L 159.414553 -45.771303 
L 159.597138 -46.098715 
L 159.887603 -46.426127 
L 160.257755 -46.753539 
L 160.674277 -47.08095 
L 161.103633 -47.408362 
L 161.516372 -47.735774 
L 161.890119 -48.063185 
L 162.210913 -48.390597 
L 162.472977 -48.718009 
L 162.677325 -49.04542 
L 162.829734 -49.372832 
L 162.938629 -49.700244 
L 163.013253 -50.027655 
L 163.062346 -50.355067 
L 163.093375 -50.682479 
L 163.112228 -51.00989 
L 163.123245 -51.337302 
L 163.129439 -51.664714 
L 163.132791 -51.992125 
L 163.134537 -52.319537 
L 163.135412 -52.646949 
L 163.135831 -52.97436 
L 163.136016 -53.301772 
L 163.136073 -53.629184 
L 163.136036 -53.956595 
L 163.135877 -54.284007 
L 163.135489 -54.611419 
L 163.134637 -54.93883 
L 163.132851 -55.266242 
L 163.12925 -55.593654 
L 163.122256 -55.921066 
L 163.109162 -56.248477 
L 163.085545 -56.575889 
L 163.044517 -56.903301 
L 162.975889 -57.230712 
L 162.865403 -57.558124 
L 162.694295 -57.885536 
L 162.439543 -58.212947 
L 162.075193 -58.540359 
L 161.575107 -58.867771 
L 160.917229 -59.195182 
L 160.089089 -59.522594 
L 159.093801 -59.850006 
L 157.955315 -60.177417 
L 156.721426 -60.504829 
L 155.46312 -60.832241 
L 154.269413 -61.159652 
L 153.237735 -61.487064 
L 152.461137 -61.814476 
L 152.014538 -62.141887 
L 151.942832 -62.469299 
L 152.253435 -62.796711 
L 152.914995 -63.124122 
L 153.862553 -63.451534 
L 155.00795 -63.778946 
L 156.253141 -64.106357 
L 157.503578 -64.433769 
L 158.679103 -64.761181 
L 159.720671 -65.088593 
L 160.592382 -65.416004 
L 161.279412 -65.743416 
L 161.783187 -66.070828 
L 162.115469 -66.398239 
L 162.292851 -66.725651 
L 162.33277 -67.053063 
L 162.251551 -67.380474 
L 162.064434 -67.707886 
L 161.787085 -68.035298 
L 161.437795 -68.362709 
L 161.039434 -68.690121 
L 160.620354 -69.017533 
L 160.213661 -69.344944 
L 159.854744 -69.672356 
L 159.577391 -69.999768 
L 159.409281 -70.327179 
L 159.367855 -70.654591 
L 159.457577 -70.982003 
L 159.669275 -71.309414 
L 159.981746 -71.636826 
L 160.365289 -71.964238 
L 160.78636 -72.291649 
L 161.212354 -72.619061 
L 161.61559 -72.946473 
L 161.975875 -73.273884 
L 162.28142 -73.601296 
L 162.528287 -73.928708 
L 162.718812 -74.25612 
L 163.553566 -74.25612 
L 163.553566 -74.25612 
L 163.744091 -73.928708 
L 163.990958 -73.601296 
L 164.296502 -73.273884 
L 164.656787 -72.946473 
L 165.060024 -72.619061 
L 165.486017 -72.291649 
L 165.907088 -71.964238 
L 166.290631 -71.636826 
L 166.603102 -71.309414 
L 166.8148 -70.982003 
L 166.904523 -70.654591 
L 166.863097 -70.327179 
L 166.694986 -69.999768 
L 166.417634 -69.672356 
L 166.058717 -69.344944 
L 165.652024 -69.017533 
L 165.232943 -68.690121 
L 164.834583 -68.362709 
L 164.485292 -68.035298 
L 164.207944 -67.707886 
L 164.020826 -67.380474 
L 163.939607 -67.053063 
L 163.979527 -66.725651 
L 164.156909 -66.398239 
L 164.489191 -66.070828 
L 164.992966 -65.743416 
L 165.679995 -65.416004 
L 166.551706 -65.088593 
L 167.593275 -64.761181 
L 168.7688 -64.433769 
L 170.019236 -64.106357 
L 171.264427 -63.778946 
L 172.409824 -63.451534 
L 173.357382 -63.124122 
L 174.018943 -62.796711 
L 174.329545 -62.469299 
L 174.257839 -62.141887 
L 173.811241 -61.814476 
L 173.034642 -61.487064 
L 172.002965 -61.159652 
L 170.809257 -60.832241 
L 169.550952 -60.504829 
L 168.317063 -60.177417 
L 167.178577 -59.850006 
L 166.183289 -59.522594 
L 165.355148 -59.195182 
L 164.69727 -58.867771 
L 164.197185 -58.540359 
L 163.832835 -58.212947 
L 163.578082 -57.885536 
L 163.406975 -57.558124 
L 163.296489 -57.230712 
L 163.227861 -56.903301 
L 163.186833 -56.575889 
L 163.163216 -56.248477 
L 163.150122 -55.921066 
L 163.143127 -55.593654 
L 163.139527 -55.266242 
L 163.137741 -54.93883 
L 163.136889 -54.611419 
L 163.136501 -54.284007 
L 163.136341 -53.956595 
L 163.136304 -53.629184 
L 163.136362 -53.301772 
L 163.136547 -52.97436 
L 163.136966 -52.646949 
L 163.13784 -52.319537 
L 163.139586 -51.992125 
L 163.142939 -51.664714 
L 163.149133 -51.337302 
L 163.16015 -51.00989 
L 163.179002 -50.682479 
L 163.210031 -50.355067 
L 163.259125 -50.027655 
L 163.333748 -49.700244 
L 163.442643 -49.372832 
L 163.595053 -49.04542 
L 163.7994 -48.718009 
L 164.061465 -48.390597 
L 164.382259 -48.063185 
L 164.756006 -47.735774 
L 165.168744 -47.408362 
L 165.5981 -47.08095 
L 166.014623 -46.753539 
L 166.384775 -46.426127 
L 166.67524 -46.098715 
L 166.857825 -45.771303 
L 166.913961 -45.443892 
L 166.837813 -45.11648 
L 166.637282 -44.789068 
L 166.332651 -44.461657 
L 165.953208 -44.134245 
L 165.532616 -43.806833 
L 165.104041 -43.479422 
L 164.696007 -43.15201 
L 164.329651 -42.824598 
L 164.017634 -42.497187 
L 163.764586 -42.169775 
L 163.568627 -41.842363 
z
" style="stroke: #595959; stroke-width: 1.5"/>
    </defs>
    <g clip-path="url(#p64bc1ef913)">
     <use xlink:href="#mc5a0f45229" x="0" y="288" style="fill: #e99675; stroke: #595959; stroke-width: 1.5"/>
    </g>
   </g>
   <g id="matplotlib.axis_1">
    <g id="xtick_1">
     <g id="line2d_1">
      <defs>
       <path id="mdb3e92db4f" d="M 0 0 
L 0 3.5 
" style="stroke: #000000; stroke-width: 0.8"/>
      </defs>
      <g>
       <use xlink:href="#mdb3e92db4f" x="88.513811" y="257.498125" style="stroke: #000000; stroke-width: 0.8"/>
      </g>
     </g>
    </g>
    <g id="xtick_2">
     <g id="line2d_2">
      <g>
       <use xlink:href="#mdb3e92db4f" x="163.136189" y="257.498125" style="stroke: #000000; stroke-width: 0.8"/>
      </g>
     </g>
    </g>
   </g>
   <g id="matplotlib.axis_2">
    <g id="ytick_1">
     <g id="line2d_3">
      <defs>
       <path id="m684b907721" d="M 0 0 
L -3.5 0 
" style="stroke: #000000; stroke-width: 0.8"/>
      </defs>
      <g>
       <use xlink:href="#m684b907721" x="72.47" y="256.641122" style="stroke: #000000; stroke-width: 0.8"/>
      </g>
     </g>
     <g id="text_1">
      <!-- 0 -->
      <g transform="translate(59.1075 260.440341) scale(0.1 -0.1)">
       <defs>
        <path id="DejaVuSans-30" d="M 2034 4250 
Q 1547 4250 1301 3770 
Q 1056 3291 1056 2328 
Q 1056 1369 1301 889 
Q 1547 409 2034 409 
Q 2525 409 2770 889 
Q 3016 1369 3016 2328 
Q 3016 3291 2770 3770 
Q 2525 4250 2034 4250 
z
M 2034 4750 
Q 2819 4750 3233 4129 
Q 3647 3509 3647 2328 
Q 3647 1150 3233 529 
Q 2819 -91 2034 -91 
Q 1250 -91 836 529 
Q 422 1150 422 2328 
Q 422 3509 836 4129 
Q 1250 4750 2034 4750 
z
" transform="scale(0.015625)"/>
       </defs>
       <use xlink:href="#DejaVuSans-30"/>
      </g>
     </g>
    </g>
    <g id="ytick_2">
     <g id="line2d_4">
      <g>
       <use xlink:href="#m684b907721" x="72.47" y="213.85439" style="stroke: #000000; stroke-width: 0.8"/>
      </g>
     </g>
     <g id="text_2">
      <!-- 20 -->
      <g transform="translate(52.745 217.653608) scale(0.1 -0.1)">
       <defs>
        <path id="DejaVuSans-32" d="M 1228 531 
L 3431 531 
L 3431 0 
L 469 0 
L 469 531 
Q 828 903 1448 1529 
Q 2069 2156 2228 2338 
Q 2531 2678 2651 2914 
Q 2772 3150 2772 3378 
Q 2772 3750 2511 3984 
Q 2250 4219 1831 4219 
Q 1534 4219 1204 4116 
Q 875 4013 500 3803 
L 500 4441 
Q 881 4594 1212 4672 
Q 1544 4750 1819 4750 
Q 2544 4750 2975 4387 
Q 3406 4025 3406 3419 
Q 3406 3131 3298 2873 
Q 3191 2616 2906 2266 
Q 2828 2175 2409 1742 
Q 1991 1309 1228 531 
z
" transform="scale(0.015625)"/>
       </defs>
       <use xlink:href="#DejaVuSans-32"/>
       <use xlink:href="#DejaVuSans-30" x="63.623047"/>
      </g>
     </g>
    </g>
    <g id="ytick_3">
     <g id="line2d_5">
      <g>
       <use xlink:href="#m684b907721" x="72.47" y="171.067657" style="stroke: #000000; stroke-width: 0.8"/>
      </g>
     </g>
     <g id="text_3">
      <!-- 40 -->
      <g transform="translate(52.745 174.866876) scale(0.1 -0.1)">
       <defs>
        <path id="DejaVuSans-34" d="M 2419 4116 
L 825 1625 
L 2419 1625 
L 2419 4116 
z
M 2253 4666 
L 3047 4666 
L 3047 1625 
L 3713 1625 
L 3713 1100 
L 3047 1100 
L 3047 0 
L 2419 0 
L 2419 1100 
L 313 1100 
L 313 1709 
L 2253 4666 
z
" transform="scale(0.015625)"/>
       </defs>
       <use xlink:href="#DejaVuSans-34"/>
       <use xlink:href="#DejaVuSans-30" x="63.623047"/>
      </g>
     </g>
    </g>
    <g id="ytick_4">
     <g id="line2d_6">
      <g>
       <use xlink:href="#m684b907721" x="72.47" y="128.280924" style="stroke: #000000; stroke-width: 0.8"/>
      </g>
     </g>
     <g id="text_4">
      <!-- 60 -->
      <g transform="translate(52.745 132.080143) scale(0.1 -0.1)">
       <defs>
        <path id="DejaVuSans-36" d="M 2113 2584 
Q 1688 2584 1439 2293 
Q 1191 2003 1191 1497 
Q 1191 994 1439 701 
Q 1688 409 2113 409 
Q 2538 409 2786 701 
Q 3034 994 3034 1497 
Q 3034 2003 2786 2293 
Q 2538 2584 2113 2584 
z
M 3366 4563 
L 3366 3988 
Q 3128 4100 2886 4159 
Q 2644 4219 2406 4219 
Q 1781 4219 1451 3797 
Q 1122 3375 1075 2522 
Q 1259 2794 1537 2939 
Q 1816 3084 2150 3084 
Q 2853 3084 3261 2657 
Q 3669 2231 3669 1497 
Q 3669 778 3244 343 
Q 2819 -91 2113 -91 
Q 1303 -91 875 529 
Q 447 1150 447 2328 
Q 447 3434 972 4092 
Q 1497 4750 2381 4750 
Q 2619 4750 2861 4703 
Q 3103 4656 3366 4563 
z
" transform="scale(0.015625)"/>
       </defs>
       <use xlink:href="#DejaVuSans-36"/>
       <use xlink:href="#DejaVuSans-30" x="63.623047"/>
      </g>
     </g>
    </g>
    <g id="ytick_5">
     <g id="line2d_7">
      <g>
       <use xlink:href="#m684b907721" x="72.47" y="85.494192" style="stroke: #000000; stroke-width: 0.8"/>
      </g>
     </g>
     <g id="text_5">
      <!-- 80 -->
      <g transform="translate(52.745 89.293411) scale(0.1 -0.1)">
       <defs>
        <path id="DejaVuSans-38" d="M 2034 2216 
Q 1584 2216 1326 1975 
Q 1069 1734 1069 1313 
Q 1069 891 1326 650 
Q 1584 409 2034 409 
Q 2484 409 2743 651 
Q 3003 894 3003 1313 
Q 3003 1734 2745 1975 
Q 2488 2216 2034 2216 
z
M 1403 2484 
Q 997 2584 770 2862 
Q 544 3141 544 3541 
Q 544 4100 942 4425 
Q 1341 4750 2034 4750 
Q 2731 4750 3128 4425 
Q 3525 4100 3525 3541 
Q 3525 3141 3298 2862 
Q 3072 2584 2669 2484 
Q 3125 2378 3379 2068 
Q 3634 1759 3634 1313 
Q 3634 634 3220 271 
Q 2806 -91 2034 -91 
Q 1263 -91 848 271 
Q 434 634 434 1313 
Q 434 1759 690 2068 
Q 947 2378 1403 2484 
z
M 1172 3481 
Q 1172 3119 1398 2916 
Q 1625 2713 2034 2713 
Q 2441 2713 2670 2916 
Q 2900 3119 2900 3481 
Q 2900 3844 2670 4047 
Q 2441 4250 2034 4250 
Q 1625 4250 1398 4047 
Q 1172 3844 1172 3481 
z
" transform="scale(0.015625)"/>
       </defs>
       <use xlink:href="#DejaVuSans-38"/>
       <use xlink:href="#DejaVuSans-30" x="63.623047"/>
      </g>
     </g>
    </g>
    <g id="ytick_6">
     <g id="line2d_8">
      <g>
       <use xlink:href="#m684b907721" x="72.47" y="42.707459" style="stroke: #000000; stroke-width: 0.8"/>
      </g>
     </g>
     <g id="text_6">
      <!-- 100 -->
      <g transform="translate(46.3825 46.506678) scale(0.1 -0.1)">
       <defs>
        <path id="DejaVuSans-31" d="M 794 531 
L 1825 531 
L 1825 4091 
L 703 3866 
L 703 4441 
L 1819 4666 
L 2450 4666 
L 2450 531 
L 3481 531 
L 3481 0 
L 794 0 
L 794 531 
z
" transform="scale(0.015625)"/>
       </defs>
       <use xlink:href="#DejaVuSans-31"/>
       <use xlink:href="#DejaVuSans-30" x="63.623047"/>
       <use xlink:href="#DejaVuSans-30" x="127.246094"/>
      </g>
     </g>
    </g>
    <g id="text_7">
     <!-- Latency (s) -->
     <g transform="translate(40.302812 169.208437) rotate(-90) scale(0.1 -0.1)">
      <defs>
       <path id="DejaVuSans-4c" d="M 628 4666 
L 1259 4666 
L 1259 531 
L 3531 531 
L 3531 0 
L 628 0 
L 628 4666 
z
" transform="scale(0.015625)"/>
       <path id="DejaVuSans-61" d="M 2194 1759 
Q 1497 1759 1228 1600 
Q 959 1441 959 1056 
Q 959 750 1161 570 
Q 1363 391 1709 391 
Q 2188 391 2477 730 
Q 2766 1069 2766 1631 
L 2766 1759 
L 2194 1759 
z
M 3341 1997 
L 3341 0 
L 2766 0 
L 2766 531 
Q 2569 213 2275 61 
Q 1981 -91 1556 -91 
Q 1019 -91 701 211 
Q 384 513 384 1019 
Q 384 1609 779 1909 
Q 1175 2209 1959 2209 
L 2766 2209 
L 2766 2266 
Q 2766 2663 2505 2880 
Q 2244 3097 1772 3097 
Q 1472 3097 1187 3025 
Q 903 2953 641 2809 
L 641 3341 
Q 956 3463 1253 3523 
Q 1550 3584 1831 3584 
Q 2591 3584 2966 3190 
Q 3341 2797 3341 1997 
z
" transform="scale(0.015625)"/>
       <path id="DejaVuSans-74" d="M 1172 4494 
L 1172 3500 
L 2356 3500 
L 2356 3053 
L 1172 3053 
L 1172 1153 
Q 1172 725 1289 603 
Q 1406 481 1766 481 
L 2356 481 
L 2356 0 
L 1766 0 
Q 1100 0 847 248 
Q 594 497 594 1153 
L 594 3053 
L 172 3053 
L 172 3500 
L 594 3500 
L 594 4494 
L 1172 4494 
z
" transform="scale(0.015625)"/>
       <path id="DejaVuSans-65" d="M 3597 1894 
L 3597 1613 
L 953 1613 
Q 991 1019 1311 708 
Q 1631 397 2203 397 
Q 2534 397 2845 478 
Q 3156 559 3463 722 
L 3463 178 
Q 3153 47 2828 -22 
Q 2503 -91 2169 -91 
Q 1331 -91 842 396 
Q 353 884 353 1716 
Q 353 2575 817 3079 
Q 1281 3584 2069 3584 
Q 2775 3584 3186 3129 
Q 3597 2675 3597 1894 
z
M 3022 2063 
Q 3016 2534 2758 2815 
Q 2500 3097 2075 3097 
Q 1594 3097 1305 2825 
Q 1016 2553 972 2059 
L 3022 2063 
z
" transform="scale(0.015625)"/>
       <path id="DejaVuSans-6e" d="M 3513 2113 
L 3513 0 
L 2938 0 
L 2938 2094 
Q 2938 2591 2744 2837 
Q 2550 3084 2163 3084 
Q 1697 3084 1428 2787 
Q 1159 2491 1159 1978 
L 1159 0 
L 581 0 
L 581 3500 
L 1159 3500 
L 1159 2956 
Q 1366 3272 1645 3428 
Q 1925 3584 2291 3584 
Q 2894 3584 3203 3211 
Q 3513 2838 3513 2113 
z
" transform="scale(0.015625)"/>
       <path id="DejaVuSans-63" d="M 3122 3366 
L 3122 2828 
Q 2878 2963 2633 3030 
Q 2388 3097 2138 3097 
Q 1578 3097 1268 2742 
Q 959 2388 959 1747 
Q 959 1106 1268 751 
Q 1578 397 2138 397 
Q 2388 397 2633 464 
Q 2878 531 3122 666 
L 3122 134 
Q 2881 22 2623 -34 
Q 2366 -91 2075 -91 
Q 1284 -91 818 406 
Q 353 903 353 1747 
Q 353 2603 823 3093 
Q 1294 3584 2113 3584 
Q 2378 3584 2631 3529 
Q 2884 3475 3122 3366 
z
" transform="scale(0.015625)"/>
       <path id="DejaVuSans-79" d="M 2059 -325 
Q 1816 -950 1584 -1140 
Q 1353 -1331 966 -1331 
L 506 -1331 
L 506 -850 
L 844 -850 
Q 1081 -850 1212 -737 
Q 1344 -625 1503 -206 
L 1606 56 
L 191 3500 
L 800 3500 
L 1894 763 
L 2988 3500 
L 3597 3500 
L 2059 -325 
z
" transform="scale(0.015625)"/>
       <path id="DejaVuSans-20" transform="scale(0.015625)"/>
       <path id="DejaVuSans-28" d="M 1984 4856 
Q 1566 4138 1362 3434 
Q 1159 2731 1159 2009 
Q 1159 1288 1364 580 
Q 1569 -128 1984 -844 
L 1484 -844 
Q 1016 -109 783 600 
Q 550 1309 550 2009 
Q 550 2706 781 3412 
Q 1013 4119 1484 4856 
L 1984 4856 
z
" transform="scale(0.015625)"/>
       <path id="DejaVuSans-73" d="M 2834 3397 
L 2834 2853 
Q 2591 2978 2328 3040 
Q 2066 3103 1784 3103 
Q 1356 3103 1142 2972 
Q 928 2841 928 2578 
Q 928 2378 1081 2264 
Q 1234 2150 1697 2047 
L 1894 2003 
Q 2506 1872 2764 1633 
Q 3022 1394 3022 966 
Q 3022 478 2636 193 
Q 2250 -91 1575 -91 
Q 1294 -91 989 -36 
Q 684 19 347 128 
L 347 722 
Q 666 556 975 473 
Q 1284 391 1588 391 
Q 1994 391 2212 530 
Q 2431 669 2431 922 
Q 2431 1156 2273 1281 
Q 2116 1406 1581 1522 
L 1381 1569 
Q 847 1681 609 1914 
Q 372 2147 372 2553 
Q 372 3047 722 3315 
Q 1072 3584 1716 3584 
Q 2034 3584 2315 3537 
Q 2597 3491 2834 3397 
z
" transform="scale(0.015625)"/>
       <path id="DejaVuSans-29" d="M 513 4856 
L 1013 4856 
Q 1481 4119 1714 3412 
Q 1947 2706 1947 2009 
Q 1947 1309 1714 600 
Q 1481 -109 1013 -844 
L 513 -844 
Q 928 -128 1133 580 
Q 1338 1288 1338 2009 
Q 1338 2731 1133 3434 
Q 928 4138 513 4856 
z
" transform="scale(0.015625)"/>
      </defs>
      <use xlink:href="#DejaVuSans-4c"/>
      <use xlink:href="#DejaVuSans-61" x="55.712891"/>
      <use xlink:href="#DejaVuSans-74" x="116.992188"/>
      <use xlink:href="#DejaVuSans-65" x="156.201172"/>
      <use xlink:href="#DejaVuSans-6e" x="217.724609"/>
      <use xlink:href="#DejaVuSans-63" x="281.103516"/>
      <use xlink:href="#DejaVuSans-79" x="336.083984"/>
      <use xlink:href="#DejaVuSans-20" x="395.263672"/>
      <use xlink:href="#DejaVuSans-28" x="427.050781"/>
      <use xlink:href="#DejaVuSans-73" x="466.064453"/>
      <use xlink:href="#DejaVuSans-29" x="518.164062"/>
     </g>
    </g>
   </g>
   <g id="line2d_9">
    <path d="M 88.513811 225.672085 
L 88.513811 225.338349 
" clip-path="url(#p64bc1ef913)" style="fill: none; stroke: #595959; stroke-width: 1.5; stroke-linecap: square"/>
   </g>
   <g id="line2d_10">
    <path d="M 88.513811 225.668341 
L 88.513811 225.361347 
" clip-path="url(#p64bc1ef913)" style="fill: none; stroke: #595959; stroke-width: 4.5; stroke-linecap: square"/>
   </g>
   <g id="line2d_11">
    <path d="M 163.136189 226.112789 
L 163.136189 225.227103 
" clip-path="url(#p64bc1ef913)" style="fill: none; stroke: #595959; stroke-width: 1.5; stroke-linecap: square"/>
   </g>
   <g id="line2d_12">
    <path d="M 163.136189 226.071072 
L 163.136189 225.28647 
" clip-path="url(#p64bc1ef913)" style="fill: none; stroke: #595959; stroke-width: 4.5; stroke-linecap: square"/>
   </g>
   <g id="line2d_13"/>
   <g id="line2d_14"/>
   <g id="patch_3">
    <path d="M 72.47 257.498125 
L 72.47 25.2 
" style="fill: none; stroke: #000000; stroke-width: 0.8; stroke-linejoin: miter; stroke-linecap: square"/>
   </g>
   <g id="patch_4">
    <path d="M 179.18 257.498125 
L 179.18 25.2 
" style="fill: none; stroke: #000000; stroke-width: 0.8; stroke-linejoin: miter; stroke-linecap: square"/>
   </g>
   <g id="patch_5">
    <path d="M 72.47 257.498125 
L 179.18 257.498125 
" style="fill: none; stroke: #000000; stroke-width: 0.8; stroke-linejoin: miter; stroke-linecap: square"/>
   </g>
   <g id="patch_6">
    <path d="M 72.47 25.2 
L 179.18 25.2 
" style="fill: none; stroke: #000000; stroke-width: 0.8; stroke-linejoin: miter; stroke-linecap: square"/>
   </g>
   <g id="PathCollection_1">
    <defs>
     <path id="m5874d994c7" d="M 0 1.5 
C 0.397805 1.5 0.77937 1.341951 1.06066 1.06066 
C 1.341951 0.77937 1.5 0.397805 1.5 0 
C 1.5 -0.397805 1.341951 -0.77937 1.06066 -1.06066 
C 0.77937 -1.341951 0.397805 -1.5 0 -1.5 
C -0.397805 -1.5 -0.77937 -1.341951 -1.06066 -1.06066 
C -1.341951 -0.77937 -1.5 -0.397805 -1.5 0 
C -1.5 0.397805 -1.341951 0.77937 -1.06066 1.06066 
C -0.77937 1.341951 -0.397805 1.5 0 1.5 
z
" style="stroke: #595959"/>
    </defs>
    <g clip-path="url(#p64bc1ef913)">
     <use xlink:href="#m5874d994c7" x="88.513811" y="225.553352" style="fill: #ffffff; stroke: #595959"/>
    </g>
   </g>
   <g id="PathCollection_2">
    <g clip-path="url(#p64bc1ef913)">
     <use xlink:href="#m5874d994c7" x="163.136189" y="225.530889" style="fill: #ffffff; stroke: #595959"/>
    </g>
   </g>
   <g id="text_8">
    <g id="patch_7">
     <path d="M 111.154 79.530875 
L 139.154 79.530875 
L 139.154 63.788375 
L 111.154 63.788375 
z
" style="fill: #ffffff; opacity: 0.2; stroke: #000000; stroke-linejoin: miter"/>
    </g>
    <!-- $n = 2$ -->
    <g transform="translate(115.154 73.867125) scale(0.08 -0.08)">
     <defs>
      <path id="DejaVuSans-Oblique-6e" d="M 3566 2113 
L 3156 0 
L 2578 0 
L 2988 2091 
Q 3016 2238 3031 2350 
Q 3047 2463 3047 2528 
Q 3047 2791 2881 2937 
Q 2716 3084 2419 3084 
Q 1956 3084 1622 2776 
Q 1288 2469 1184 1941 
L 800 0 
L 225 0 
L 903 3500 
L 1478 3500 
L 1363 2950 
Q 1603 3253 1940 3418 
Q 2278 3584 2650 3584 
Q 3113 3584 3367 3334 
Q 3622 3084 3622 2631 
Q 3622 2519 3608 2391 
Q 3594 2263 3566 2113 
z
" transform="scale(0.015625)"/>
      <path id="DejaVuSans-3d" d="M 678 2906 
L 4684 2906 
L 4684 2381 
L 678 2381 
L 678 2906 
z
M 678 1631 
L 4684 1631 
L 4684 1100 
L 678 1100 
L 678 1631 
z
" transform="scale(0.015625)"/>
     </defs>
     <use xlink:href="#DejaVuSans-Oblique-6e" transform="translate(0 0.78125)"/>
     <use xlink:href="#DejaVuSans-3d" transform="translate(82.861328 0.78125)"/>
     <use xlink:href="#DejaVuSans-32" transform="translate(186.132812 0.78125)"/>
    </g>
   </g>
   <g id="legend_1">
    <g id="patch_8">
     <path d="M 92.625 55.085 
L 159.025 55.085 
Q 160.625 55.085 160.625 53.485 
L 160.625 30.8 
Q 160.625 29.2 159.025 29.2 
L 92.625 29.2 
Q 91.025 29.2 91.025 30.8 
L 91.025 53.485 
Q 91.025 55.085 92.625 55.085 
z
" style="fill: #ffffff; opacity: 0.8; stroke: #cccccc; stroke-linejoin: miter"/>
    </g>
    <g id="line2d_15">
     <path d="M 94.225 35.67875 
L 102.225 35.67875 
L 110.225 35.67875 
" style="fill: none; stroke: #fc8d62; stroke-width: 2; stroke-linecap: square"/>
    </g>
    <g id="text_9">
     <!-- $Consumer$ -->
     <g transform="translate(116.625 38.47875) scale(0.08 -0.08)">
      <defs>
       <path id="DejaVuSans-Oblique-43" d="M 4447 4306 
L 4319 3641 
Q 4019 3944 3683 4091 
Q 3347 4238 2956 4238 
Q 2422 4238 2017 3981 
Q 1613 3725 1319 3200 
Q 1131 2863 1032 2486 
Q 934 2109 934 1728 
Q 934 1091 1264 756 
Q 1594 422 2222 422 
Q 2656 422 3056 561 
Q 3456 700 3834 978 
L 3688 231 
Q 3316 72 2936 -9 
Q 2556 -91 2175 -91 
Q 1278 -91 773 396 
Q 269 884 269 1753 
Q 269 2309 461 2846 
Q 653 3384 1013 3828 
Q 1394 4300 1883 4525 
Q 2372 4750 3022 4750 
Q 3422 4750 3780 4639 
Q 4138 4528 4447 4306 
z
" transform="scale(0.015625)"/>
       <path id="DejaVuSans-Oblique-6f" d="M 1625 -91 
Q 1009 -91 651 289 
Q 294 669 294 1325 
Q 294 1706 417 2101 
Q 541 2497 738 2766 
Q 1047 3184 1428 3384 
Q 1809 3584 2291 3584 
Q 2888 3584 3255 3212 
Q 3622 2841 3622 2241 
Q 3622 1825 3500 1412 
Q 3378 1000 3181 728 
Q 2875 309 2494 109 
Q 2113 -91 1625 -91 
z
M 891 1344 
Q 891 869 1089 633 
Q 1288 397 1691 397 
Q 2269 397 2648 901 
Q 3028 1406 3028 2181 
Q 3028 2634 2825 2865 
Q 2622 3097 2228 3097 
Q 1903 3097 1650 2945 
Q 1397 2794 1197 2484 
Q 1050 2253 970 1956 
Q 891 1659 891 1344 
z
" transform="scale(0.015625)"/>
       <path id="DejaVuSans-Oblique-73" d="M 3200 3397 
L 3091 2853 
Q 2863 2978 2609 3040 
Q 2356 3103 2088 3103 
Q 1634 3103 1373 2948 
Q 1113 2794 1113 2528 
Q 1113 2219 1719 2053 
Q 1766 2041 1788 2034 
L 1972 1978 
Q 2547 1819 2739 1644 
Q 2931 1469 2931 1166 
Q 2931 609 2489 259 
Q 2047 -91 1331 -91 
Q 1053 -91 747 -37 
Q 441 16 72 128 
L 184 722 
Q 500 559 806 475 
Q 1113 391 1394 391 
Q 1816 391 2080 572 
Q 2344 753 2344 1031 
Q 2344 1331 1650 1516 
L 1591 1531 
L 1394 1581 
Q 956 1697 753 1886 
Q 550 2075 550 2369 
Q 550 2928 970 3256 
Q 1391 3584 2113 3584 
Q 2397 3584 2667 3537 
Q 2938 3491 3200 3397 
z
" transform="scale(0.015625)"/>
       <path id="DejaVuSans-Oblique-75" d="M 428 1388 
L 838 3500 
L 1416 3500 
L 1006 1409 
Q 975 1256 961 1147 
Q 947 1038 947 966 
Q 947 700 1109 554 
Q 1272 409 1569 409 
Q 2031 409 2368 721 
Q 2706 1034 2809 1563 
L 3194 3500 
L 3769 3500 
L 3091 0 
L 2516 0 
L 2631 550 
Q 2388 244 2052 76 
Q 1716 -91 1338 -91 
Q 878 -91 622 161 
Q 366 413 366 863 
Q 366 956 381 1097 
Q 397 1238 428 1388 
z
" transform="scale(0.015625)"/>
       <path id="DejaVuSans-Oblique-6d" d="M 5747 2113 
L 5338 0 
L 4763 0 
L 5166 2094 
Q 5191 2228 5203 2325 
Q 5216 2422 5216 2491 
Q 5216 2772 5059 2928 
Q 4903 3084 4622 3084 
Q 4203 3084 3875 2770 
Q 3547 2456 3450 1953 
L 3066 0 
L 2491 0 
L 2900 2094 
Q 2925 2209 2937 2307 
Q 2950 2406 2950 2484 
Q 2950 2769 2794 2926 
Q 2638 3084 2363 3084 
Q 1938 3084 1609 2770 
Q 1281 2456 1184 1953 
L 800 0 
L 225 0 
L 909 3500 
L 1484 3500 
L 1375 2956 
Q 1609 3263 1923 3423 
Q 2238 3584 2597 3584 
Q 2978 3584 3223 3384 
Q 3469 3184 3519 2828 
Q 3781 3197 4126 3390 
Q 4472 3584 4856 3584 
Q 5306 3584 5551 3325 
Q 5797 3066 5797 2591 
Q 5797 2488 5784 2364 
Q 5772 2241 5747 2113 
z
" transform="scale(0.015625)"/>
       <path id="DejaVuSans-Oblique-65" d="M 3078 2063 
Q 3088 2113 3092 2166 
Q 3097 2219 3097 2272 
Q 3097 2653 2873 2875 
Q 2650 3097 2266 3097 
Q 1838 3097 1509 2826 
Q 1181 2556 1013 2059 
L 3078 2063 
z
M 3578 1613 
L 903 1613 
Q 884 1494 878 1425 
Q 872 1356 872 1306 
Q 872 872 1139 634 
Q 1406 397 1894 397 
Q 2269 397 2603 481 
Q 2938 566 3225 728 
L 3116 159 
Q 2806 34 2476 -28 
Q 2147 -91 1806 -91 
Q 1078 -91 686 257 
Q 294 606 294 1247 
Q 294 1794 489 2264 
Q 684 2734 1063 3103 
Q 1306 3334 1642 3459 
Q 1978 3584 2356 3584 
Q 2950 3584 3301 3228 
Q 3653 2872 3653 2272 
Q 3653 2128 3634 1964 
Q 3616 1800 3578 1613 
z
" transform="scale(0.015625)"/>
       <path id="DejaVuSans-Oblique-72" d="M 2853 2969 
Q 2766 3016 2653 3041 
Q 2541 3066 2413 3066 
Q 1953 3066 1609 2717 
Q 1266 2369 1153 1784 
L 800 0 
L 225 0 
L 909 3500 
L 1484 3500 
L 1375 2956 
Q 1603 3259 1920 3421 
Q 2238 3584 2597 3584 
Q 2691 3584 2781 3573 
Q 2872 3563 2963 3538 
L 2853 2969 
z
" transform="scale(0.015625)"/>
      </defs>
      <use xlink:href="#DejaVuSans-Oblique-43" transform="translate(0 0.78125)"/>
      <use xlink:href="#DejaVuSans-Oblique-6f" transform="translate(69.824219 0.78125)"/>
      <use xlink:href="#DejaVuSans-Oblique-6e" transform="translate(131.005859 0.78125)"/>
      <use xlink:href="#DejaVuSans-Oblique-73" transform="translate(194.384766 0.78125)"/>
      <use xlink:href="#DejaVuSans-Oblique-75" transform="translate(246.484375 0.78125)"/>
      <use xlink:href="#DejaVuSans-Oblique-6d" transform="translate(309.863281 0.78125)"/>
      <use xlink:href="#DejaVuSans-Oblique-65" transform="translate(407.275391 0.78125)"/>
      <use xlink:href="#DejaVuSans-Oblique-72" transform="translate(468.798828 0.78125)"/>
     </g>
    </g>
    <g id="line2d_16">
     <path d="M 94.225 47.42125 
L 102.225 47.42125 
L 110.225 47.42125 
" style="fill: none; stroke: #66c2a5; stroke-width: 2; stroke-linecap: square"/>
    </g>
    <g id="text_10">
     <!-- $Provider$ -->
     <g transform="translate(116.625 50.22125) scale(0.08 -0.08)">
      <defs>
       <path id="DejaVuSans-Oblique-50" d="M 1081 4666 
L 2541 4666 
Q 3178 4666 3512 4369 
Q 3847 4072 3847 3500 
Q 3847 2731 3353 2303 
Q 2859 1875 1966 1875 
L 1172 1875 
L 806 0 
L 172 0 
L 1081 4666 
z
M 1613 4147 
L 1275 2394 
L 2069 2394 
Q 2606 2394 2893 2669 
Q 3181 2944 3181 3456 
Q 3181 3784 2986 3965 
Q 2791 4147 2438 4147 
L 1613 4147 
z
" transform="scale(0.015625)"/>
       <path id="DejaVuSans-Oblique-76" d="M 459 3500 
L 1069 3500 
L 1581 525 
L 3256 3500 
L 3866 3500 
L 1875 0 
L 1100 0 
L 459 3500 
z
" transform="scale(0.015625)"/>
       <path id="DejaVuSans-Oblique-69" d="M 1172 4863 
L 1747 4863 
L 1606 4134 
L 1031 4134 
L 1172 4863 
z
M 909 3500 
L 1484 3500 
L 800 0 
L 225 0 
L 909 3500 
z
" transform="scale(0.015625)"/>
       <path id="DejaVuSans-Oblique-64" d="M 2675 525 
Q 2444 222 2128 65 
Q 1813 -91 1428 -91 
Q 903 -91 598 267 
Q 294 625 294 1247 
Q 294 1766 478 2236 
Q 663 2706 1013 3078 
Q 1244 3325 1534 3454 
Q 1825 3584 2144 3584 
Q 2481 3584 2739 3421 
Q 2997 3259 3138 2956 
L 3513 4863 
L 4091 4863 
L 3144 0 
L 2566 0 
L 2675 525 
z
M 891 1350 
Q 891 897 1095 644 
Q 1300 391 1663 391 
Q 1931 391 2161 520 
Q 2391 650 2566 903 
Q 2750 1166 2856 1509 
Q 2963 1853 2963 2188 
Q 2963 2622 2758 2865 
Q 2553 3109 2194 3109 
Q 1922 3109 1687 2981 
Q 1453 2853 1288 2613 
Q 1106 2353 998 2009 
Q 891 1666 891 1350 
z
" transform="scale(0.015625)"/>
      </defs>
      <use xlink:href="#DejaVuSans-Oblique-50" transform="translate(0 0.015625)"/>
      <use xlink:href="#DejaVuSans-Oblique-72" transform="translate(60.302734 0.015625)"/>
      <use xlink:href="#DejaVuSans-Oblique-6f" transform="translate(101.416016 0.015625)"/>
      <use xlink:href="#DejaVuSans-Oblique-76" transform="translate(162.597656 0.015625)"/>
      <use xlink:href="#DejaVuSans-Oblique-69" transform="translate(221.777344 0.015625)"/>
      <use xlink:href="#DejaVuSans-Oblique-64" transform="translate(249.560547 0.015625)"/>
      <use xlink:href="#DejaVuSans-Oblique-65" transform="translate(313.037109 0.015625)"/>
      <use xlink:href="#DejaVuSans-Oblique-72" transform="translate(374.560547 0.015625)"/>
     </g>
    </g>
   </g>
  </g>
  <g id="axes_2">
   <g id="patch_9">
    <path d="M 193.48 257.498125 
L 300.19 257.498125 
L 300.19 25.2 
L 193.48 25.2 
z
" style="fill: #ffffff"/>
   </g>
   <g id="PolyCollection_3">
    <defs>
     <path id="m7cbe6dfbf5" d="M 209.636948 -51.20782 
L 209.410674 -51.20782 
L 209.305909 -52.446665 
L 209.137475 -53.68551 
L 208.889844 -54.924356 
L 208.553807 -56.163201 
L 208.126802 -57.402046 
L 207.608965 -58.640891 
L 206.997972 -59.879736 
L 206.288698 -61.118582 
L 205.481757 -62.357427 
L 204.598367 -63.596272 
L 203.692315 -64.835117 
L 202.849065 -66.073963 
L 202.16844 -67.312808 
L 201.736506 -68.551653 
L 201.598501 -69.790498 
L 201.744473 -71.029343 
L 202.113367 -72.268189 
L 202.612485 -73.507034 
L 203.14225 -74.745879 
L 203.615341 -75.984724 
L 203.965368 -77.223569 
L 204.148353 -78.462415 
L 204.143462 -79.70126 
L 203.955432 -80.940105 
L 203.614872 -82.17895 
L 203.170997 -83.417795 
L 202.676381 -84.656641 
L 202.170409 -85.895486 
L 201.670837 -87.134331 
L 201.178355 -88.373176 
L 200.690181 -89.612021 
L 200.211955 -90.850867 
L 199.758834 -92.089712 
L 199.346611 -93.328557 
L 198.984024 -94.567402 
L 198.677311 -95.806247 
L 198.445421 -97.045093 
L 198.330455 -98.283938 
L 198.388044 -99.522783 
L 198.658985 -100.761628 
L 199.141496 -102.000474 
L 199.785455 -103.239319 
L 200.513505 -104.478164 
L 201.254061 -105.717009 
L 201.964525 -106.955854 
L 202.632594 -108.1947 
L 203.259608 -109.433545 
L 203.840389 -110.67239 
L 204.353828 -111.911235 
L 204.770105 -113.15008 
L 205.069761 -114.388926 
L 205.262675 -115.627771 
L 205.394601 -116.866616 
L 205.535426 -118.105461 
L 205.753441 -119.344306 
L 206.088157 -120.583152 
L 206.535522 -121.821997 
L 207.052316 -123.060842 
L 207.575666 -124.299687 
L 208.046221 -125.538532 
L 208.424181 -126.777378 
L 208.694021 -128.016223 
L 208.860335 -129.255068 
L 208.939616 -130.493913 
L 208.951578 -131.732758 
L 208.912066 -132.971604 
L 208.829256 -134.210449 
L 208.704728 -135.449294 
L 208.539351 -136.688139 
L 208.341227 -137.926985 
L 208.131199 -139.16583 
L 207.942359 -140.404675 
L 207.813006 -141.64352 
L 207.775707 -142.882365 
L 207.846743 -144.121211 
L 208.020118 -145.360056 
L 208.268606 -146.598901 
L 208.551704 -147.837746 
L 208.827518 -149.076591 
L 209.063814 -150.315437 
L 209.244085 -151.554282 
L 209.367166 -152.793127 
L 209.442119 -154.031972 
L 209.481699 -155.270817 
L 209.4973 -156.509663 
L 209.496623 -157.748508 
L 209.483876 -158.987353 
L 209.4615 -160.226198 
L 209.432299 -161.465043 
L 209.400898 -162.703889 
L 209.373719 -163.942734 
L 209.357377 -165.181579 
L 209.356261 -166.420424 
L 209.370687 -167.65927 
L 209.396772 -168.898115 
L 209.42813 -170.13696 
L 209.458392 -171.375805 
L 209.483206 -172.61465 
L 209.500931 -173.853496 
L 209.546691 -173.853496 
L 209.546691 -173.853496 
L 209.564416 -172.61465 
L 209.589231 -171.375805 
L 209.619492 -170.13696 
L 209.650851 -168.898115 
L 209.676936 -167.65927 
L 209.691361 -166.420424 
L 209.690245 -165.181579 
L 209.673904 -163.942734 
L 209.646724 -162.703889 
L 209.615323 -161.465043 
L 209.586123 -160.226198 
L 209.563746 -158.987353 
L 209.550999 -157.748508 
L 209.550323 -156.509663 
L 209.565923 -155.270817 
L 209.605504 -154.031972 
L 209.680456 -152.793127 
L 209.803537 -151.554282 
L 209.983808 -150.315437 
L 210.220105 -149.076591 
L 210.495918 -147.837746 
L 210.779016 -146.598901 
L 211.027504 -145.360056 
L 211.20088 -144.121211 
L 211.271916 -142.882365 
L 211.234616 -141.64352 
L 211.105264 -140.404675 
L 210.916423 -139.16583 
L 210.706395 -137.926985 
L 210.508272 -136.688139 
L 210.342895 -135.449294 
L 210.218366 -134.210449 
L 210.135556 -132.971604 
L 210.096044 -131.732758 
L 210.108007 -130.493913 
L 210.187287 -129.255068 
L 210.353601 -128.016223 
L 210.623441 -126.777378 
L 211.001401 -125.538532 
L 211.471956 -124.299687 
L 211.995307 -123.060842 
L 212.512101 -121.821997 
L 212.959466 -120.583152 
L 213.294182 -119.344306 
L 213.512196 -118.105461 
L 213.653022 -116.866616 
L 213.784948 -115.627771 
L 213.977862 -114.388926 
L 214.277518 -113.15008 
L 214.693794 -111.911235 
L 215.207233 -110.67239 
L 215.788014 -109.433545 
L 216.415029 -108.1947 
L 217.083097 -106.955854 
L 217.793561 -105.717009 
L 218.534117 -104.478164 
L 219.262167 -103.239319 
L 219.906126 -102.000474 
L 220.388637 -100.761628 
L 220.659578 -99.522783 
L 220.717168 -98.283938 
L 220.602201 -97.045093 
L 220.370312 -95.806247 
L 220.063599 -94.567402 
L 219.701012 -93.328557 
L 219.288789 -92.089712 
L 218.835668 -90.850867 
L 218.357442 -89.612021 
L 217.869267 -88.373176 
L 217.376785 -87.134331 
L 216.877213 -85.895486 
L 216.371242 -84.656641 
L 215.876625 -83.417795 
L 215.43275 -82.17895 
L 215.092191 -80.940105 
L 214.90416 -79.70126 
L 214.899269 -78.462415 
L 215.082254 -77.223569 
L 215.432282 -75.984724 
L 215.905373 -74.745879 
L 216.435137 -73.507034 
L 216.934255 -72.268189 
L 217.303149 -71.029343 
L 217.449122 -69.790498 
L 217.311116 -68.551653 
L 216.879182 -67.312808 
L 216.198557 -66.073963 
L 215.355308 -64.835117 
L 214.449255 -63.596272 
L 213.565866 -62.357427 
L 212.758925 -61.118582 
L 212.04965 -59.879736 
L 211.438658 -58.640891 
L 210.92082 -57.402046 
L 210.493816 -56.163201 
L 210.157778 -54.924356 
L 209.910147 -53.68551 
L 209.741714 -52.446665 
L 209.636948 -51.20782 
z
" style="stroke: #595959; stroke-width: 1.5"/>
    </defs>
    <g clip-path="url(#pa4000c7552)">
     <use xlink:href="#m7cbe6dfbf5" x="0" y="288" style="fill: #72b6a1; stroke: #595959; stroke-width: 1.5"/>
    </g>
   </g>
   <g id="PolyCollection_4">
    <defs>
     <path id="m658211ea72" d="M 284.232673 -48.393806 
L 284.059705 -48.393806 
L 283.986976 -49.432607 
L 283.873998 -50.471407 
L 283.713534 -51.510208 
L 283.505618 -52.549009 
L 283.260368 -53.587809 
L 282.997299 -54.62661 
L 282.740088 -55.665411 
L 282.508279 -56.704212 
L 282.309759 -57.743012 
L 282.13827 -58.781813 
L 281.977779 -59.820614 
L 281.811495 -60.859414 
L 281.630396 -61.898215 
L 281.436498 -62.937016 
L 281.239489 -63.975817 
L 281.049334 -65.014617 
L 280.86934 -66.053418 
L 280.693054 -67.092219 
L 280.505741 -68.131019 
L 280.28914 -69.16982 
L 280.027454 -70.208621 
L 279.712748 -71.247421 
L 279.347975 -72.286222 
L 278.945986 -73.325023 
L 278.523717 -74.363824 
L 278.092864 -75.402624 
L 277.650932 -76.441425 
L 277.178037 -77.480226 
L 276.643691 -78.519026 
L 276.023592 -79.557827 
L 275.320513 -80.596628 
L 274.578765 -81.635429 
L 273.881974 -82.674229 
L 273.330899 -83.71303 
L 273.009125 -84.751831 
L 272.952832 -85.790631 
L 273.140062 -86.829432 
L 273.504146 -87.868233 
L 273.962319 -88.907033 
L 274.443443 -89.945834 
L 274.902494 -90.984635 
L 275.320005 -92.023436 
L 275.693391 -93.062236 
L 276.028436 -94.101037 
L 276.334672 -95.139838 
L 276.623352 -96.178638 
L 276.905405 -97.217439 
L 277.188795 -98.25624 
L 277.476705 -99.29504 
L 277.767694 -100.333841 
L 278.057143 -101.372642 
L 278.338299 -102.411443 
L 278.602316 -103.450243 
L 278.838667 -104.489044 
L 279.03789 -105.527845 
L 279.196734 -106.566645 
L 279.322913 -107.605446 
L 279.435445 -108.644247 
L 279.558678 -109.683048 
L 279.712375 -110.721848 
L 279.903576 -111.760649 
L 280.125399 -112.79945 
L 280.363615 -113.83825 
L 280.606549 -114.877051 
L 280.85168 -115.915852 
L 281.104795 -116.954652 
L 281.372871 -117.993453 
L 281.656031 -119.032254 
L 281.944062 -120.071055 
L 282.21941 -121.109855 
L 282.464283 -122.148656 
L 282.667405 -123.187457 
L 282.826958 -124.226257 
L 282.948956 -125.265058 
L 283.042668 -126.303859 
L 283.115663 -127.34266 
L 283.170544 -128.38146 
L 283.204326 -129.420261 
L 283.210308 -130.459062 
L 283.181648 -131.497862 
L 283.115532 -132.536663 
L 283.016743 -133.575464 
L 282.899296 -134.614264 
L 282.785037 -135.653065 
L 282.698967 -136.691866 
L 282.662541 -137.730667 
L 282.687537 -138.769467 
L 282.77317 -139.808268 
L 282.907646 -140.847069 
L 283.073049 -141.885869 
L 283.250949 -142.92467 
L 283.426288 -143.963471 
L 283.588644 -145.002272 
L 283.7316 -146.041072 
L 283.851616 -147.079873 
L 283.947333 -148.118674 
L 284.019368 -149.157474 
L 284.070167 -150.196275 
L 284.103536 -151.235076 
L 284.188841 -151.235076 
L 284.188841 -151.235076 
L 284.22221 -150.196275 
L 284.27301 -149.157474 
L 284.345045 -148.118674 
L 284.440762 -147.079873 
L 284.560778 -146.041072 
L 284.703734 -145.002272 
L 284.866089 -143.963471 
L 285.041429 -142.92467 
L 285.219328 -141.885869 
L 285.384731 -140.847069 
L 285.519208 -139.808268 
L 285.604841 -138.769467 
L 285.629836 -137.730667 
L 285.593411 -136.691866 
L 285.507341 -135.653065 
L 285.393082 -134.614264 
L 285.275634 -133.575464 
L 285.176845 -132.536663 
L 285.11073 -131.497862 
L 285.08207 -130.459062 
L 285.088052 -129.420261 
L 285.121833 -128.38146 
L 285.176714 -127.34266 
L 285.249709 -126.303859 
L 285.343421 -125.265058 
L 285.465419 -124.226257 
L 285.624973 -123.187457 
L 285.828095 -122.148656 
L 286.072968 -121.109855 
L 286.348315 -120.071055 
L 286.636346 -119.032254 
L 286.919507 -117.993453 
L 287.187582 -116.954652 
L 287.440697 -115.915852 
L 287.685828 -114.877051 
L 287.928763 -113.83825 
L 288.166979 -112.79945 
L 288.388802 -111.760649 
L 288.580002 -110.721848 
L 288.7337 -109.683048 
L 288.856932 -108.644247 
L 288.969465 -107.605446 
L 289.095644 -106.566645 
L 289.254487 -105.527845 
L 289.45371 -104.489044 
L 289.690062 -103.450243 
L 289.954078 -102.411443 
L 290.235234 -101.372642 
L 290.524683 -100.333841 
L 290.815672 -99.29504 
L 291.103582 -98.25624 
L 291.386972 -97.217439 
L 291.669025 -96.178638 
L 291.957706 -95.139838 
L 292.263942 -94.101037 
L 292.598986 -93.062236 
L 292.972372 -92.023436 
L 293.389884 -90.984635 
L 293.848934 -89.945834 
L 294.330059 -88.907033 
L 294.788232 -87.868233 
L 295.152315 -86.829432 
L 295.339545 -85.790631 
L 295.283253 -84.751831 
L 294.961478 -83.71303 
L 294.410404 -82.674229 
L 293.713612 -81.635429 
L 292.971865 -80.596628 
L 292.268786 -79.557827 
L 291.648687 -78.519026 
L 291.114341 -77.480226 
L 290.641445 -76.441425 
L 290.199513 -75.402624 
L 289.768661 -74.363824 
L 289.346392 -73.325023 
L 288.944402 -72.286222 
L 288.579629 -71.247421 
L 288.264924 -70.208621 
L 288.003238 -69.16982 
L 287.786636 -68.131019 
L 287.599324 -67.092219 
L 287.423037 -66.053418 
L 287.243044 -65.014617 
L 287.052889 -63.975817 
L 286.855879 -62.937016 
L 286.661982 -61.898215 
L 286.480883 -60.859414 
L 286.314598 -59.820614 
L 286.154108 -58.781813 
L 285.982619 -57.743012 
L 285.784098 -56.704212 
L 285.552289 -55.665411 
L 285.295079 -54.62661 
L 285.032009 -53.587809 
L 284.78676 -52.549009 
L 284.578844 -51.510208 
L 284.41838 -50.471407 
L 284.305401 -49.432607 
L 284.232673 -48.393806 
z
" style="stroke: #595959; stroke-width: 1.5"/>
    </defs>
    <g clip-path="url(#pa4000c7552)">
     <use xlink:href="#m658211ea72" x="0" y="288" style="fill: #e99675; stroke: #595959; stroke-width: 1.5"/>
    </g>
   </g>
   <g id="matplotlib.axis_3">
    <g id="xtick_3">
     <g id="line2d_17">
      <g>
       <use xlink:href="#mdb3e92db4f" x="209.523811" y="257.498125" style="stroke: #000000; stroke-width: 0.8"/>
      </g>
     </g>
    </g>
    <g id="xtick_4">
     <g id="line2d_18">
      <g>
       <use xlink:href="#mdb3e92db4f" x="284.146189" y="257.498125" style="stroke: #000000; stroke-width: 0.8"/>
      </g>
     </g>
    </g>
   </g>
   <g id="matplotlib.axis_4">
    <g id="ytick_7">
     <g id="line2d_19">
      <g>
       <use xlink:href="#m684b907721" x="193.48" y="256.641122" style="stroke: #000000; stroke-width: 0.8"/>
      </g>
     </g>
    </g>
    <g id="ytick_8">
     <g id="line2d_20">
      <g>
       <use xlink:href="#m684b907721" x="193.48" y="213.85439" style="stroke: #000000; stroke-width: 0.8"/>
      </g>
     </g>
    </g>
    <g id="ytick_9">
     <g id="line2d_21">
      <g>
       <use xlink:href="#m684b907721" x="193.48" y="171.067657" style="stroke: #000000; stroke-width: 0.8"/>
      </g>
     </g>
    </g>
    <g id="ytick_10">
     <g id="line2d_22">
      <g>
       <use xlink:href="#m684b907721" x="193.48" y="128.280924" style="stroke: #000000; stroke-width: 0.8"/>
      </g>
     </g>
    </g>
    <g id="ytick_11">
     <g id="line2d_23">
      <g>
       <use xlink:href="#m684b907721" x="193.48" y="85.494192" style="stroke: #000000; stroke-width: 0.8"/>
      </g>
     </g>
    </g>
    <g id="ytick_12">
     <g id="line2d_24">
      <g>
       <use xlink:href="#m684b907721" x="193.48" y="42.707459" style="stroke: #000000; stroke-width: 0.8"/>
      </g>
     </g>
    </g>
   </g>
   <g id="line2d_25">
    <path d="M 209.523811 228.825467 
L 209.523811 144.512071 
" clip-path="url(#pa4000c7552)" style="fill: none; stroke: #595959; stroke-width: 1.5; stroke-linecap: square"/>
   </g>
   <g id="line2d_26">
    <path d="M 209.523811 210.600459 
L 209.523811 183.736809 
" clip-path="url(#pa4000c7552)" style="fill: none; stroke: #595959; stroke-width: 4.5; stroke-linecap: square"/>
   </g>
   <g id="line2d_27">
    <path d="M 284.146189 232.239849 
L 284.146189 152.342044 
" clip-path="url(#pa4000c7552)" style="fill: none; stroke: #595959; stroke-width: 1.5; stroke-linecap: square"/>
   </g>
   <g id="line2d_28">
    <path d="M 284.146189 207.95303 
L 284.146189 185.634935 
" clip-path="url(#pa4000c7552)" style="fill: none; stroke: #595959; stroke-width: 4.5; stroke-linecap: square"/>
   </g>
   <g id="line2d_29"/>
   <g id="line2d_30"/>
   <g id="patch_10">
    <path d="M 193.48 257.498125 
L 193.48 25.2 
" style="fill: none; stroke: #000000; stroke-width: 0.8; stroke-linejoin: miter; stroke-linecap: square"/>
   </g>
   <g id="patch_11">
    <path d="M 300.19 257.498125 
L 300.19 25.2 
" style="fill: none; stroke: #000000; stroke-width: 0.8; stroke-linejoin: miter; stroke-linecap: square"/>
   </g>
   <g id="patch_12">
    <path d="M 193.48 257.498125 
L 300.19 257.498125 
" style="fill: none; stroke: #000000; stroke-width: 0.8; stroke-linejoin: miter; stroke-linecap: square"/>
   </g>
   <g id="patch_13">
    <path d="M 193.48 25.2 
L 300.19 25.2 
" style="fill: none; stroke: #000000; stroke-width: 0.8; stroke-linejoin: miter; stroke-linecap: square"/>
   </g>
   <g id="PathCollection_3">
    <g clip-path="url(#pa4000c7552)">
     <use xlink:href="#m5874d994c7" x="209.523811" y="194.401402" style="fill: #ffffff; stroke: #595959"/>
    </g>
   </g>
   <g id="PathCollection_4">
    <g clip-path="url(#pa4000c7552)">
     <use xlink:href="#m5874d994c7" x="284.146189" y="197.823271" style="fill: #ffffff; stroke: #595959"/>
    </g>
   </g>
   <g id="text_11">
    <g id="patch_14">
     <path d="M 232.164 79.530875 
L 265.284 79.530875 
L 265.284 63.788375 
L 232.164 63.788375 
z
" style="fill: #ffffff; opacity: 0.2; stroke: #000000; stroke-linejoin: miter"/>
    </g>
    <!-- $n = 58$ -->
    <g transform="translate(236.164 73.867125) scale(0.08 -0.08)">
     <defs>
      <path id="DejaVuSans-35" d="M 691 4666 
L 3169 4666 
L 3169 4134 
L 1269 4134 
L 1269 2991 
Q 1406 3038 1543 3061 
Q 1681 3084 1819 3084 
Q 2600 3084 3056 2656 
Q 3513 2228 3513 1497 
Q 3513 744 3044 326 
Q 2575 -91 1722 -91 
Q 1428 -91 1123 -41 
Q 819 9 494 109 
L 494 744 
Q 775 591 1075 516 
Q 1375 441 1709 441 
Q 2250 441 2565 725 
Q 2881 1009 2881 1497 
Q 2881 1984 2565 2268 
Q 2250 2553 1709 2553 
Q 1456 2553 1204 2497 
Q 953 2441 691 2322 
L 691 4666 
z
" transform="scale(0.015625)"/>
     </defs>
     <use xlink:href="#DejaVuSans-Oblique-6e" transform="translate(0 0.78125)"/>
     <use xlink:href="#DejaVuSans-3d" transform="translate(82.861328 0.78125)"/>
     <use xlink:href="#DejaVuSans-35" transform="translate(186.132812 0.78125)"/>
     <use xlink:href="#DejaVuSans-38" transform="translate(249.755859 0.78125)"/>
    </g>
   </g>
  </g>
  <g id="axes_3">
   <g id="patch_15">
    <path d="M 314.49 257.498125 
L 421.2 257.498125 
L 421.2 25.2 
L 314.49 25.2 
z
" style="fill: #ffffff"/>
   </g>
   <g id="PolyCollection_5">
    <defs>
     <path id="m6c469a6fb5" d="M 330.567222 -41.060881 
L 330.5004 -41.060881 
L 330.455686 -43.194014 
L 330.368711 -45.327146 
L 330.217856 -47.460278 
L 329.985338 -49.593411 
L 329.668897 -51.726543 
L 329.292745 -53.859676 
L 328.909139 -55.992808 
L 328.583241 -58.125941 
L 328.362619 -60.259073 
L 328.245238 -62.392206 
L 328.166998 -64.525338 
L 328.023702 -66.658471 
L 327.723365 -68.791603 
L 327.243496 -70.924736 
L 326.658231 -73.057868 
L 326.110707 -75.191 
L 325.735449 -77.324133 
L 325.569439 -79.457265 
L 325.505883 -81.590398 
L 325.326236 -83.72353 
L 324.802476 -85.856663 
L 323.82149 -87.989795 
L 322.469584 -90.122928 
L 321.030188 -92.25606 
L 319.88315 -94.389193 
L 319.340455 -96.522325 
L 319.494294 -98.655457 
L 320.160853 -100.78859 
L 320.959026 -102.921722 
L 321.487903 -105.054855 
L 321.510326 -107.187987 
L 321.04957 -109.32112 
L 320.357677 -111.454252 
L 319.781774 -113.587385 
L 319.602532 -115.720517 
L 319.925046 -117.85365 
L 320.665405 -119.986782 
L 321.619197 -122.119914 
L 322.559964 -124.253047 
L 323.318204 -126.386179 
L 323.820055 -128.519312 
L 324.088378 -130.652444 
L 324.216574 -132.785577 
L 324.327443 -134.918709 
L 324.532082 -137.051842 
L 324.901327 -139.184974 
L 325.452938 -141.318107 
L 326.150879 -143.451239 
L 326.914858 -145.584372 
L 327.641613 -147.717504 
L 328.235255 -149.850636 
L 328.635887 -151.983769 
L 328.834139 -154.116901 
L 328.866824 -156.250034 
L 328.798019 -158.383166 
L 328.694466 -160.516299 
L 328.605396 -162.649431 
L 328.555789 -164.782564 
L 328.555339 -166.915696 
L 328.613485 -169.048829 
L 328.744746 -171.181961 
L 328.957926 -173.315093 
L 329.240375 -175.448226 
L 329.554806 -177.581358 
L 329.853802 -179.714491 
L 330.100373 -181.847623 
L 330.279479 -183.980756 
L 330.395884 -186.113888 
L 330.464535 -188.247021 
L 330.501637 -190.380153 
L 330.52007 -192.513286 
L 330.528459 -194.646418 
L 330.531926 -196.77955 
L 330.533216 -198.912683 
L 330.533643 -201.045815 
L 330.533766 -203.178948 
L 330.533786 -205.31208 
L 330.533737 -207.445213 
L 330.533515 -209.578345 
L 330.532749 -211.711478 
L 330.530463 -213.84461 
L 330.52454 -215.977743 
L 330.511233 -218.110875 
L 330.485396 -220.244007 
L 330.442175 -222.37714 
L 330.380152 -224.510272 
L 330.304192 -226.643405 
L 330.225352 -228.776537 
L 330.15689 -230.90967 
L 330.10903 -233.042802 
L 330.086681 -235.175935 
L 330.09119 -237.309067 
L 330.122604 -239.4422 
L 330.178864 -241.575332 
L 330.253036 -243.708465 
L 330.332959 -245.841597 
L 330.405241 -247.974729 
L 330.460713 -250.107862 
L 330.497078 -252.240994 
L 330.570545 -252.240994 
L 330.570545 -252.240994 
L 330.60691 -250.107862 
L 330.662381 -247.974729 
L 330.734664 -245.841597 
L 330.814586 -243.708465 
L 330.888759 -241.575332 
L 330.945019 -239.4422 
L 330.976433 -237.309067 
L 330.980941 -235.175935 
L 330.958593 -233.042802 
L 330.910732 -230.90967 
L 330.84227 -228.776537 
L 330.76343 -226.643405 
L 330.68747 -224.510272 
L 330.625447 -222.37714 
L 330.582227 -220.244007 
L 330.556389 -218.110875 
L 330.543083 -215.977743 
L 330.537159 -213.84461 
L 330.534873 -211.711478 
L 330.534107 -209.578345 
L 330.533885 -207.445213 
L 330.533836 -205.31208 
L 330.533856 -203.178948 
L 330.533979 -201.045815 
L 330.534407 -198.912683 
L 330.535696 -196.77955 
L 330.539164 -194.646418 
L 330.547552 -192.513286 
L 330.565985 -190.380153 
L 330.603087 -188.247021 
L 330.671738 -186.113888 
L 330.788143 -183.980756 
L 330.967249 -181.847623 
L 331.21382 -179.714491 
L 331.512816 -177.581358 
L 331.827247 -175.448226 
L 332.109696 -173.315093 
L 332.322876 -171.181961 
L 332.454137 -169.048829 
L 332.512284 -166.915696 
L 332.511833 -164.782564 
L 332.462226 -162.649431 
L 332.373156 -160.516299 
L 332.269603 -158.383166 
L 332.200798 -156.250034 
L 332.233483 -154.116901 
L 332.431735 -151.983769 
L 332.832368 -149.850636 
L 333.426009 -147.717504 
L 334.152764 -145.584372 
L 334.916744 -143.451239 
L 335.614685 -141.318107 
L 336.166296 -139.184974 
L 336.53554 -137.051842 
L 336.740179 -134.918709 
L 336.851049 -132.785577 
L 336.979244 -130.652444 
L 337.247567 -128.519312 
L 337.749419 -126.386179 
L 338.507659 -124.253047 
L 339.448425 -122.119914 
L 340.402217 -119.986782 
L 341.142576 -117.85365 
L 341.46509 -115.720517 
L 341.285848 -113.587385 
L 340.709946 -111.454252 
L 340.018053 -109.32112 
L 339.557297 -107.187987 
L 339.579719 -105.054855 
L 340.108597 -102.921722 
L 340.906769 -100.78859 
L 341.573328 -98.655457 
L 341.727168 -96.522325 
L 341.184472 -94.389193 
L 340.037434 -92.25606 
L 338.598039 -90.122928 
L 337.246133 -87.989795 
L 336.265147 -85.856663 
L 335.741386 -83.72353 
L 335.561739 -81.590398 
L 335.498184 -79.457265 
L 335.332174 -77.324133 
L 334.956916 -75.191 
L 334.409391 -73.057868 
L 333.824126 -70.924736 
L 333.344258 -68.791603 
L 333.04392 -66.658471 
L 332.900624 -64.525338 
L 332.822384 -62.392206 
L 332.705003 -60.259073 
L 332.484381 -58.125941 
L 332.158483 -55.992808 
L 331.774877 -53.859676 
L 331.398725 -51.726543 
L 331.082284 -49.593411 
L 330.849767 -47.460278 
L 330.698911 -45.327146 
L 330.611937 -43.194014 
L 330.567222 -41.060881 
z
" style="stroke: #595959; stroke-width: 1.5"/>
    </defs>
    <g clip-path="url(#pee1176a923)">
     <use xlink:href="#m6c469a6fb5" x="0" y="288" style="fill: #72b6a1; stroke: #595959; stroke-width: 1.5"/>
    </g>
   </g>
   <g id="PolyCollection_6">
    <defs>
     <path id="m0c8dd5ae99" d="M 405.236023 -43.60783 
L 405.076354 -43.60783 
L 405.009224 -45.664528 
L 404.909765 -47.721227 
L 404.778309 -49.777925 
L 404.622567 -51.834623 
L 404.454128 -53.891322 
L 404.27961 -55.94802 
L 404.090095 -58.004719 
L 403.855251 -60.061417 
L 403.527208 -62.118115 
L 403.054121 -64.174814 
L 402.398107 -66.231512 
L 401.550358 -68.288211 
L 400.538065 -70.344909 
L 399.420739 -72.401608 
L 398.276509 -74.458306 
L 397.182552 -76.515004 
L 396.197996 -78.571703 
L 395.358643 -80.628401 
L 394.686837 -82.6851 
L 394.208654 -84.741798 
L 393.962832 -86.798496 
L 393.98903 -88.855195 
L 394.296714 -90.911893 
L 394.831448 -92.968592 
L 395.462347 -95.02529 
L 396.007334 -97.081988 
L 396.293769 -99.138687 
L 396.230253 -101.195385 
L 395.853953 -103.252084 
L 395.325654 -105.308782 
L 394.870183 -107.365481 
L 394.688603 -109.422179 
L 394.883264 -111.478877 
L 395.428432 -113.535576 
L 396.194225 -115.592274 
L 397.006178 -117.648973 
L 397.710828 -119.705671 
L 398.222129 -121.762369 
L 398.536986 -123.819068 
L 398.721605 -125.875766 
L 398.878668 -127.932465 
L 399.108502 -129.989163 
L 399.476617 -132.045861 
L 399.996317 -134.10256 
L 400.629559 -136.159258 
L 401.303572 -138.215957 
L 401.936376 -140.272655 
L 402.462133 -142.329354 
L 402.847635 -144.386052 
L 403.094845 -146.44275 
L 403.23073 -148.499449 
L 403.291607 -150.556147 
L 403.310898 -152.612846 
L 403.315047 -154.669544 
L 403.325572 -156.726242 
L 403.361534 -158.782941 
L 403.438369 -160.839639 
L 403.563786 -162.896338 
L 403.734459 -164.953036 
L 403.936584 -167.009734 
L 404.150427 -169.066433 
L 404.356581 -171.123131 
L 404.541 -173.17983 
L 404.696935 -175.236528 
L 404.823733 -177.293227 
L 404.924017 -179.349925 
L 405.001191 -181.406623 
L 405.058358 -183.463322 
L 405.09844 -185.52002 
L 405.124599 -187.576719 
L 405.140267 -189.633417 
L 405.148753 -191.690115 
L 405.152727 -193.746814 
L 405.153885 -195.803512 
L 405.152836 -197.860211 
L 405.149121 -199.916909 
L 405.141349 -201.973608 
L 405.127534 -204.030306 
L 405.10578 -206.087004 
L 405.075176 -208.143703 
L 405.036352 -210.200401 
L 404.990918 -212.2571 
L 404.939467 -214.313798 
L 404.879047 -216.370496 
L 404.802183 -218.427195 
L 404.699446 -220.483893 
L 404.565609 -222.540592 
L 404.406646 -224.59729 
L 404.243191 -226.653988 
L 404.107234 -228.710687 
L 404.032248 -230.767385 
L 404.040787 -232.824084 
L 404.135382 -234.880782 
L 404.297215 -236.937481 
L 404.493185 -238.994179 
L 404.687738 -241.050877 
L 404.853758 -243.107576 
L 404.978081 -245.164274 
L 405.060647 -247.220973 
L 405.251731 -247.220973 
L 405.251731 -247.220973 
L 405.334297 -245.164274 
L 405.45862 -243.107576 
L 405.624639 -241.050877 
L 405.819192 -238.994179 
L 406.015163 -236.937481 
L 406.176996 -234.880782 
L 406.27159 -232.824084 
L 406.28013 -230.767385 
L 406.205144 -228.710687 
L 406.069187 -226.653988 
L 405.905732 -224.59729 
L 405.746768 -222.540592 
L 405.612932 -220.483893 
L 405.510195 -218.427195 
L 405.433331 -216.370496 
L 405.372911 -214.313798 
L 405.32146 -212.2571 
L 405.276025 -210.200401 
L 405.237201 -208.143703 
L 405.206597 -206.087004 
L 405.184844 -204.030306 
L 405.171029 -201.973608 
L 405.163257 -199.916909 
L 405.159542 -197.860211 
L 405.158493 -195.803512 
L 405.159651 -193.746814 
L 405.163625 -191.690115 
L 405.172111 -189.633417 
L 405.187779 -187.576719 
L 405.213937 -185.52002 
L 405.25402 -183.463322 
L 405.311187 -181.406623 
L 405.388361 -179.349925 
L 405.488645 -177.293227 
L 405.615443 -175.236528 
L 405.771378 -173.17983 
L 405.955796 -171.123131 
L 406.161951 -169.066433 
L 406.375794 -167.009734 
L 406.577918 -164.953036 
L 406.748592 -162.896338 
L 406.874008 -160.839639 
L 406.950843 -158.782941 
L 406.986806 -156.726242 
L 406.997331 -154.669544 
L 407.001479 -152.612846 
L 407.020771 -150.556147 
L 407.081647 -148.499449 
L 407.217533 -146.44275 
L 407.464743 -144.386052 
L 407.850244 -142.329354 
L 408.376002 -140.272655 
L 409.008806 -138.215957 
L 409.682819 -136.159258 
L 410.316061 -134.10256 
L 410.83576 -132.045861 
L 411.203875 -129.989163 
L 411.433709 -127.932465 
L 411.590772 -125.875766 
L 411.775391 -123.819068 
L 412.090249 -121.762369 
L 412.601549 -119.705671 
L 413.306199 -117.648973 
L 414.118152 -115.592274 
L 414.883946 -113.535576 
L 415.429113 -111.478877 
L 415.623775 -109.422179 
L 415.442195 -107.365481 
L 414.986723 -105.308782 
L 414.458424 -103.252084 
L 414.082124 -101.195385 
L 414.018609 -99.138687 
L 414.305043 -97.081988 
L 414.850031 -95.02529 
L 415.48093 -92.968592 
L 416.015664 -90.911893 
L 416.323348 -88.855195 
L 416.349545 -86.798496 
L 416.103723 -84.741798 
L 415.625541 -82.6851 
L 414.953735 -80.628401 
L 414.114382 -78.571703 
L 413.129825 -76.515004 
L 412.035869 -74.458306 
L 410.891639 -72.401608 
L 409.774313 -70.344909 
L 408.762019 -68.288211 
L 407.914271 -66.231512 
L 407.258256 -64.174814 
L 406.78517 -62.118115 
L 406.457126 -60.061417 
L 406.222282 -58.004719 
L 406.032768 -55.94802 
L 405.85825 -53.891322 
L 405.68981 -51.834623 
L 405.534068 -49.777925 
L 405.402613 -47.721227 
L 405.303154 -45.664528 
L 405.236023 -43.60783 
z
" style="stroke: #595959; stroke-width: 1.5"/>
    </defs>
    <g clip-path="url(#pee1176a923)">
     <use xlink:href="#m0c8dd5ae99" x="0" y="288" style="fill: #e99675; stroke: #595959; stroke-width: 1.5"/>
    </g>
   </g>
   <g id="matplotlib.axis_5">
    <g id="xtick_5">
     <g id="line2d_31">
      <g>
       <use xlink:href="#mdb3e92db4f" x="330.533811" y="257.498125" style="stroke: #000000; stroke-width: 0.8"/>
      </g>
     </g>
    </g>
    <g id="xtick_6">
     <g id="line2d_32">
      <g>
       <use xlink:href="#mdb3e92db4f" x="405.156189" y="257.498125" style="stroke: #000000; stroke-width: 0.8"/>
      </g>
     </g>
    </g>
   </g>
   <g id="matplotlib.axis_6">
    <g id="ytick_13">
     <g id="line2d_33">
      <g>
       <use xlink:href="#m684b907721" x="314.49" y="256.641122" style="stroke: #000000; stroke-width: 0.8"/>
      </g>
     </g>
    </g>
    <g id="ytick_14">
     <g id="line2d_34">
      <g>
       <use xlink:href="#m684b907721" x="314.49" y="213.85439" style="stroke: #000000; stroke-width: 0.8"/>
      </g>
     </g>
    </g>
    <g id="ytick_15">
     <g id="line2d_35">
      <g>
       <use xlink:href="#m684b907721" x="314.49" y="171.067657" style="stroke: #000000; stroke-width: 0.8"/>
      </g>
     </g>
    </g>
    <g id="ytick_16">
     <g id="line2d_36">
      <g>
       <use xlink:href="#m684b907721" x="314.49" y="128.280924" style="stroke: #000000; stroke-width: 0.8"/>
      </g>
     </g>
    </g>
    <g id="ytick_17">
     <g id="line2d_37">
      <g>
       <use xlink:href="#m684b907721" x="314.49" y="85.494192" style="stroke: #000000; stroke-width: 0.8"/>
      </g>
     </g>
    </g>
    <g id="ytick_18">
     <g id="line2d_38">
      <g>
       <use xlink:href="#m684b907721" x="314.49" y="42.707459" style="stroke: #000000; stroke-width: 0.8"/>
      </g>
     </g>
    </g>
   </g>
   <g id="line2d_39">
    <path d="M 330.533811 235.17074 
L 330.533811 108.070611 
" clip-path="url(#pee1176a923)" style="fill: none; stroke: #595959; stroke-width: 1.5; stroke-linecap: square"/>
   </g>
   <g id="line2d_40">
    <path d="M 330.533811 192.997997 
L 330.533811 158.914086 
" clip-path="url(#pee1176a923)" style="fill: none; stroke: #595959; stroke-width: 4.5; stroke-linecap: square"/>
   </g>
   <g id="line2d_41">
    <path d="M 405.156189 231.405507 
L 405.156189 112.770734 
" clip-path="url(#pee1176a923)" style="fill: none; stroke: #595959; stroke-width: 1.5; stroke-linecap: square"/>
   </g>
   <g id="line2d_42">
    <path d="M 405.156189 200.397962 
L 405.156189 163.811027 
" clip-path="url(#pee1176a923)" style="fill: none; stroke: #595959; stroke-width: 4.5; stroke-linecap: square"/>
   </g>
   <g id="line2d_43"/>
   <g id="line2d_44"/>
   <g id="patch_16">
    <path d="M 314.49 257.498125 
L 314.49 25.2 
" style="fill: none; stroke: #000000; stroke-width: 0.8; stroke-linejoin: miter; stroke-linecap: square"/>
   </g>
   <g id="patch_17">
    <path d="M 421.2 257.498125 
L 421.2 25.2 
" style="fill: none; stroke: #000000; stroke-width: 0.8; stroke-linejoin: miter; stroke-linecap: square"/>
   </g>
   <g id="patch_18">
    <path d="M 314.49 257.498125 
L 421.2 257.498125 
" style="fill: none; stroke: #000000; stroke-width: 0.8; stroke-linejoin: miter; stroke-linecap: square"/>
   </g>
   <g id="patch_19">
    <path d="M 314.49 25.2 
L 421.2 25.2 
" style="fill: none; stroke: #000000; stroke-width: 0.8; stroke-linejoin: miter; stroke-linecap: square"/>
   </g>
   <g id="PathCollection_5">
    <g clip-path="url(#pee1176a923)">
     <use xlink:href="#m5874d994c7" x="330.533811" y="176.304753" style="fill: #ffffff; stroke: #595959"/>
    </g>
   </g>
   <g id="PathCollection_6">
    <g clip-path="url(#pee1176a923)">
     <use xlink:href="#m5874d994c7" x="405.156189" y="182.140864" style="fill: #ffffff; stroke: #595959"/>
    </g>
   </g>
   <g id="text_12">
    <g id="patch_20">
     <path d="M 353.174 79.530875 
L 391.414 79.530875 
L 391.414 63.788375 
L 353.174 63.788375 
z
" style="fill: #ffffff; opacity: 0.2; stroke: #000000; stroke-linejoin: miter"/>
    </g>
    <!-- $n = 100$ -->
    <g transform="translate(357.174 73.867125) scale(0.08 -0.08)">
     <use xlink:href="#DejaVuSans-Oblique-6e" transform="translate(0 0.78125)"/>
     <use xlink:href="#DejaVuSans-3d" transform="translate(82.861328 0.78125)"/>
     <use xlink:href="#DejaVuSans-31" transform="translate(186.132812 0.78125)"/>
     <use xlink:href="#DejaVuSans-30" transform="translate(249.755859 0.78125)"/>
     <use xlink:href="#DejaVuSans-30" transform="translate(313.378906 0.78125)"/>
    </g>
   </g>
  </g>
 </g>
 <defs>
  <clipPath id="p64bc1ef913">
   <rect x="72.47" y="25.2" width="106.71" height="232.298125"/>
  </clipPath>
  <clipPath id="pa4000c7552">
   <rect x="193.48" y="25.2" width="106.71" height="232.298125"/>
  </clipPath>
  <clipPath id="pee1176a923">
   <rect x="314.49" y="25.2" width="106.71" height="232.298125"/>
  </clipPath>
 </defs>
</svg>
