<?xml version="1.0" encoding="utf-8" standalone="no"?>
<!DOCTYPE svg PUBLIC "-//W3C//DTD SVG 1.1//EN"
  "http://www.w3.org/Graphics/SVG/1.1/DTD/svg11.dtd">
<svg xmlns:xlink="http://www.w3.org/1999/xlink" width="576pt" height="432pt" viewBox="0 0 576 432" xmlns="http://www.w3.org/2000/svg" version="1.1">
 <metadata>
  <rdf:RDF xmlns:dc="http://purl.org/dc/elements/1.1/" xmlns:cc="http://creativecommons.org/ns#" xmlns:rdf="http://www.w3.org/1999/02/22-rdf-syntax-ns#">
   <cc:Work>
    <dc:type rdf:resource="http://purl.org/dc/dcmitype/StillImage"/>
    <dc:date>2025-02-28T19:08:25.191710</dc:date>
    <dc:format>image/svg+xml</dc:format>
    <dc:creator>
     <cc:Agent>
      <dc:title>Matplotlib v3.7.2, https://matplotlib.org/</dc:title>
     </cc:Agent>
    </dc:creator>
   </cc:Work>
  </rdf:RDF>
 </metadata>
 <defs>
  <style type="text/css">*{stroke-linejoin: round; stroke-linecap: butt}</style>
 </defs>
 <g id="figure_1">
  <g id="patch_1">
   <path d="M 0 432 
L 576 432 
L 576 0 
L 0 0 
z
" style="fill: #ffffff"/>
  </g>
  <g id="axes_1">
   <g id="patch_2">
    <path d="M 62.44 199 
L 214.019113 199 
L 214.019113 36.36 
L 62.44 36.36 
z
" style="fill: #ffffff"/>
   </g>
   <g id="matplotlib.axis_1">
    <g id="xtick_1">
     <g id="line2d_1">
      <defs>
       <path id="m08a70a7f73" d="M 0 0 
L 0 3.5 
" style="stroke: #000000; stroke-width: 0.8"/>
      </defs>
      <g>
       <use xlink:href="#m08a70a7f73" x="97.267045" y="199" style="stroke: #000000; stroke-width: 0.8"/>
      </g>
     </g>
    </g>
    <g id="xtick_2">
     <g id="line2d_2">
      <g>
       <use xlink:href="#m08a70a7f73" x="135.021904" y="199" style="stroke: #000000; stroke-width: 0.8"/>
      </g>
     </g>
    </g>
    <g id="xtick_3">
     <g id="line2d_3">
      <g>
       <use xlink:href="#m08a70a7f73" x="172.776763" y="199" style="stroke: #000000; stroke-width: 0.8"/>
      </g>
     </g>
    </g>
    <g id="xtick_4">
     <g id="line2d_4">
      <g>
       <use xlink:href="#m08a70a7f73" x="210.531622" y="199" style="stroke: #000000; stroke-width: 0.8"/>
      </g>
     </g>
    </g>
   </g>
   <g id="matplotlib.axis_2">
    <g id="ytick_1">
     <g id="line2d_5">
      <defs>
       <path id="m2ac5adf866" d="M 0 0 
L -3.5 0 
" style="stroke: #000000; stroke-width: 0.8"/>
      </defs>
      <g>
       <use xlink:href="#m2ac5adf866" x="62.44" y="199" style="stroke: #000000; stroke-width: 0.8"/>
      </g>
     </g>
     <g id="text_1">
      <!-- 0.0 -->
      <g transform="translate(39.536875 202.799219) scale(0.1 -0.1)">
       <defs>
        <path id="DejaVuSans-30" d="M 2034 4250 
Q 1547 4250 1301 3770 
Q 1056 3291 1056 2328 
Q 1056 1369 1301 889 
Q 1547 409 2034 409 
Q 2525 409 2770 889 
Q 3016 1369 3016 2328 
Q 3016 3291 2770 3770 
Q 2525 4250 2034 4250 
z
M 2034 4750 
Q 2819 4750 3233 4129 
Q 3647 3509 3647 2328 
Q 3647 1150 3233 529 
Q 2819 -91 2034 -91 
Q 1250 -91 836 529 
Q 422 1150 422 2328 
Q 422 3509 836 4129 
Q 1250 4750 2034 4750 
z
" transform="scale(0.015625)"/>
        <path id="DejaVuSans-2e" d="M 684 794 
L 1344 794 
L 1344 0 
L 684 0 
L 684 794 
z
" transform="scale(0.015625)"/>
       </defs>
       <use xlink:href="#DejaVuSans-30"/>
       <use xlink:href="#DejaVuSans-2e" x="63.623047"/>
       <use xlink:href="#DejaVuSans-30" x="95.410156"/>
      </g>
     </g>
    </g>
    <g id="ytick_2">
     <g id="line2d_6">
      <g>
       <use xlink:href="#m2ac5adf866" x="62.44" y="166.472" style="stroke: #000000; stroke-width: 0.8"/>
      </g>
     </g>
     <g id="text_2">
      <!-- 0.2 -->
      <g transform="translate(39.536875 170.271219) scale(0.1 -0.1)">
       <defs>
        <path id="DejaVuSans-32" d="M 1228 531 
L 3431 531 
L 3431 0 
L 469 0 
L 469 531 
Q 828 903 1448 1529 
Q 2069 2156 2228 2338 
Q 2531 2678 2651 2914 
Q 2772 3150 2772 3378 
Q 2772 3750 2511 3984 
Q 2250 4219 1831 4219 
Q 1534 4219 1204 4116 
Q 875 4013 500 3803 
L 500 4441 
Q 881 4594 1212 4672 
Q 1544 4750 1819 4750 
Q 2544 4750 2975 4387 
Q 3406 4025 3406 3419 
Q 3406 3131 3298 2873 
Q 3191 2616 2906 2266 
Q 2828 2175 2409 1742 
Q 1991 1309 1228 531 
z
" transform="scale(0.015625)"/>
       </defs>
       <use xlink:href="#DejaVuSans-30"/>
       <use xlink:href="#DejaVuSans-2e" x="63.623047"/>
       <use xlink:href="#DejaVuSans-32" x="95.410156"/>
      </g>
     </g>
    </g>
    <g id="ytick_3">
     <g id="line2d_7">
      <g>
       <use xlink:href="#m2ac5adf866" x="62.44" y="133.944" style="stroke: #000000; stroke-width: 0.8"/>
      </g>
     </g>
     <g id="text_3">
      <!-- 0.4 -->
      <g transform="translate(39.536875 137.743219) scale(0.1 -0.1)">
       <defs>
        <path id="DejaVuSans-34" d="M 2419 4116 
L 825 1625 
L 2419 1625 
L 2419 4116 
z
M 2253 4666 
L 3047 4666 
L 3047 1625 
L 3713 1625 
L 3713 1100 
L 3047 1100 
L 3047 0 
L 2419 0 
L 2419 1100 
L 313 1100 
L 313 1709 
L 2253 4666 
z
" transform="scale(0.015625)"/>
       </defs>
       <use xlink:href="#DejaVuSans-30"/>
       <use xlink:href="#DejaVuSans-2e" x="63.623047"/>
       <use xlink:href="#DejaVuSans-34" x="95.410156"/>
      </g>
     </g>
    </g>
    <g id="ytick_4">
     <g id="line2d_8">
      <g>
       <use xlink:href="#m2ac5adf866" x="62.44" y="101.416" style="stroke: #000000; stroke-width: 0.8"/>
      </g>
     </g>
     <g id="text_4">
      <!-- 0.6 -->
      <g transform="translate(39.536875 105.215219) scale(0.1 -0.1)">
       <defs>
        <path id="DejaVuSans-36" d="M 2113 2584 
Q 1688 2584 1439 2293 
Q 1191 2003 1191 1497 
Q 1191 994 1439 701 
Q 1688 409 2113 409 
Q 2538 409 2786 701 
Q 3034 994 3034 1497 
Q 3034 2003 2786 2293 
Q 2538 2584 2113 2584 
z
M 3366 4563 
L 3366 3988 
Q 3128 4100 2886 4159 
Q 2644 4219 2406 4219 
Q 1781 4219 1451 3797 
Q 1122 3375 1075 2522 
Q 1259 2794 1537 2939 
Q 1816 3084 2150 3084 
Q 2853 3084 3261 2657 
Q 3669 2231 3669 1497 
Q 3669 778 3244 343 
Q 2819 -91 2113 -91 
Q 1303 -91 875 529 
Q 447 1150 447 2328 
Q 447 3434 972 4092 
Q 1497 4750 2381 4750 
Q 2619 4750 2861 4703 
Q 3103 4656 3366 4563 
z
" transform="scale(0.015625)"/>
       </defs>
       <use xlink:href="#DejaVuSans-30"/>
       <use xlink:href="#DejaVuSans-2e" x="63.623047"/>
       <use xlink:href="#DejaVuSans-36" x="95.410156"/>
      </g>
     </g>
    </g>
    <g id="ytick_5">
     <g id="line2d_9">
      <g>
       <use xlink:href="#m2ac5adf866" x="62.44" y="68.888" style="stroke: #000000; stroke-width: 0.8"/>
      </g>
     </g>
     <g id="text_5">
      <!-- 0.8 -->
      <g transform="translate(39.536875 72.687219) scale(0.1 -0.1)">
       <defs>
        <path id="DejaVuSans-38" d="M 2034 2216 
Q 1584 2216 1326 1975 
Q 1069 1734 1069 1313 
Q 1069 891 1326 650 
Q 1584 409 2034 409 
Q 2484 409 2743 651 
Q 3003 894 3003 1313 
Q 3003 1734 2745 1975 
Q 2488 2216 2034 2216 
z
M 1403 2484 
Q 997 2584 770 2862 
Q 544 3141 544 3541 
Q 544 4100 942 4425 
Q 1341 4750 2034 4750 
Q 2731 4750 3128 4425 
Q 3525 4100 3525 3541 
Q 3525 3141 3298 2862 
Q 3072 2584 2669 2484 
Q 3125 2378 3379 2068 
Q 3634 1759 3634 1313 
Q 3634 634 3220 271 
Q 2806 -91 2034 -91 
Q 1263 -91 848 271 
Q 434 634 434 1313 
Q 434 1759 690 2068 
Q 947 2378 1403 2484 
z
M 1172 3481 
Q 1172 3119 1398 2916 
Q 1625 2713 2034 2713 
Q 2441 2713 2670 2916 
Q 2900 3119 2900 3481 
Q 2900 3844 2670 4047 
Q 2441 4250 2034 4250 
Q 1625 4250 1398 4047 
Q 1172 3844 1172 3481 
z
" transform="scale(0.015625)"/>
       </defs>
       <use xlink:href="#DejaVuSans-30"/>
       <use xlink:href="#DejaVuSans-2e" x="63.623047"/>
       <use xlink:href="#DejaVuSans-38" x="95.410156"/>
      </g>
     </g>
    </g>
    <g id="ytick_6">
     <g id="line2d_10">
      <g>
       <use xlink:href="#m2ac5adf866" x="62.44" y="36.36" style="stroke: #000000; stroke-width: 0.8"/>
      </g>
     </g>
     <g id="text_6">
      <!-- 1.0 -->
      <g transform="translate(39.536875 40.159219) scale(0.1 -0.1)">
       <defs>
        <path id="DejaVuSans-31" d="M 794 531 
L 1825 531 
L 1825 4091 
L 703 3866 
L 703 4441 
L 1819 4666 
L 2450 4666 
L 2450 531 
L 3481 531 
L 3481 0 
L 794 0 
L 794 531 
z
" transform="scale(0.015625)"/>
       </defs>
       <use xlink:href="#DejaVuSans-31"/>
       <use xlink:href="#DejaVuSans-2e" x="63.623047"/>
       <use xlink:href="#DejaVuSans-30" x="95.410156"/>
      </g>
     </g>
    </g>
   </g>
   <g id="line2d_11">
    <path d="M 69.361674 199 
L 69.361674 182.736 
L 69.583672 182.736 
L 69.583672 166.472 
L 81.06266 166.472 
L 81.06266 150.208 
L 81.180455 150.208 
L 81.180455 133.944 
L 81.459841 133.944 
L 81.459841 117.68 
L 81.487024 117.68 
L 81.487024 101.416 
L 81.520249 101.416 
L 81.520249 85.152 
L 81.68788 85.152 
L 81.68788 68.888 
L 87.073233 68.888 
L 87.073233 52.624 
L 87.345068 52.624 
L 87.345068 36.36 
" clip-path="url(#pe3803fd8f5)" style="fill: none; stroke: #fc8d62; stroke-width: 1.5; stroke-linecap: square"/>
   </g>
   <g id="line2d_12">
    <path d="M 80.176176 199 
L 80.176176 36.36 
" clip-path="url(#pe3803fd8f5)" style="fill: none; stroke-dasharray: 5.55,2.4; stroke-dashoffset: 0; stroke: #ff0000; stroke-width: 1.5"/>
   </g>
   <g id="line2d_13">
    <path d="M 81.473432 199 
L 81.473432 36.36 
" clip-path="url(#pe3803fd8f5)" style="fill: none; stroke-dasharray: 9.6,2.4,1.5,2.4; stroke-dashoffset: 0; stroke: #008000; stroke-width: 1.5"/>
   </g>
   <g id="line2d_14">
    <path d="M 87.222742 199 
L 87.222742 36.36 
" clip-path="url(#pe3803fd8f5)" style="fill: none; stroke-dasharray: 1.5,2.475; stroke-dashoffset: 0; stroke: #0000ff; stroke-width: 1.5"/>
   </g>
   <g id="patch_3">
    <path d="M 62.44 199 
L 62.44 36.36 
" style="fill: none; stroke: #000000; stroke-width: 0.8; stroke-linejoin: miter; stroke-linecap: square"/>
   </g>
   <g id="patch_4">
    <path d="M 214.019113 199 
L 214.019113 36.36 
" style="fill: none; stroke: #000000; stroke-width: 0.8; stroke-linejoin: miter; stroke-linecap: square"/>
   </g>
   <g id="patch_5">
    <path d="M 62.44 199 
L 214.019113 199 
" style="fill: none; stroke: #000000; stroke-width: 0.8; stroke-linejoin: miter; stroke-linecap: square"/>
   </g>
   <g id="patch_6">
    <path d="M 62.44 36.36 
L 214.019113 36.36 
" style="fill: none; stroke: #000000; stroke-width: 0.8; stroke-linejoin: miter; stroke-linecap: square"/>
   </g>
   <g id="text_7">
    <g id="patch_7">
     <path d="M 172.124335 190.60725 
L 200.124335 190.60725 
L 200.124335 174.86475 
L 172.124335 174.86475 
z
" style="fill: #ffffff; opacity: 0.2; stroke: #000000; stroke-linejoin: miter"/>
    </g>
    <!-- $n = 2$ -->
    <g transform="translate(176.124335 184.9435) scale(0.08 -0.08)">
     <defs>
      <path id="DejaVuSans-Oblique-6e" d="M 3566 2113 
L 3156 0 
L 2578 0 
L 2988 2091 
Q 3016 2238 3031 2350 
Q 3047 2463 3047 2528 
Q 3047 2791 2881 2937 
Q 2716 3084 2419 3084 
Q 1956 3084 1622 2776 
Q 1288 2469 1184 1941 
L 800 0 
L 225 0 
L 903 3500 
L 1478 3500 
L 1363 2950 
Q 1603 3253 1940 3418 
Q 2278 3584 2650 3584 
Q 3113 3584 3367 3334 
Q 3622 3084 3622 2631 
Q 3622 2519 3608 2391 
Q 3594 2263 3566 2113 
z
" transform="scale(0.015625)"/>
      <path id="DejaVuSans-3d" d="M 678 2906 
L 4684 2906 
L 4684 2381 
L 678 2381 
L 678 2906 
z
M 678 1631 
L 4684 1631 
L 4684 1100 
L 678 1100 
L 678 1631 
z
" transform="scale(0.015625)"/>
     </defs>
     <use xlink:href="#DejaVuSans-Oblique-6e" transform="translate(0 0.78125)"/>
     <use xlink:href="#DejaVuSans-3d" transform="translate(82.861328 0.78125)"/>
     <use xlink:href="#DejaVuSans-32" transform="translate(186.132812 0.78125)"/>
    </g>
   </g>
   <g id="legend_1">
    <g id="patch_8">
     <path d="M 122.430363 89.73 
L 208.419113 89.73 
Q 210.019113 89.73 210.019113 88.13 
L 210.019113 41.96 
Q 210.019113 40.36 208.419113 40.36 
L 122.430363 40.36 
Q 120.830363 40.36 120.830363 41.96 
L 120.830363 88.13 
Q 120.830363 89.73 122.430363 89.73 
z
" style="fill: #ffffff; opacity: 0.8; stroke: #cccccc; stroke-linejoin: miter"/>
    </g>
    <g id="line2d_15">
     <path d="M 124.030363 46.83875 
L 132.030363 46.83875 
L 140.030363 46.83875 
" style="fill: none; stroke: #fc8d62; stroke-width: 2; stroke-linecap: square"/>
    </g>
    <g id="text_8">
     <!-- $Consumer$ -->
     <g transform="translate(146.430363 49.63875) scale(0.08 -0.08)">
      <defs>
       <path id="DejaVuSans-Oblique-43" d="M 4447 4306 
L 4319 3641 
Q 4019 3944 3683 4091 
Q 3347 4238 2956 4238 
Q 2422 4238 2017 3981 
Q 1613 3725 1319 3200 
Q 1131 2863 1032 2486 
Q 934 2109 934 1728 
Q 934 1091 1264 756 
Q 1594 422 2222 422 
Q 2656 422 3056 561 
Q 3456 700 3834 978 
L 3688 231 
Q 3316 72 2936 -9 
Q 2556 -91 2175 -91 
Q 1278 -91 773 396 
Q 269 884 269 1753 
Q 269 2309 461 2846 
Q 653 3384 1013 3828 
Q 1394 4300 1883 4525 
Q 2372 4750 3022 4750 
Q 3422 4750 3780 4639 
Q 4138 4528 4447 4306 
z
" transform="scale(0.015625)"/>
       <path id="DejaVuSans-Oblique-6f" d="M 1625 -91 
Q 1009 -91 651 289 
Q 294 669 294 1325 
Q 294 1706 417 2101 
Q 541 2497 738 2766 
Q 1047 3184 1428 3384 
Q 1809 3584 2291 3584 
Q 2888 3584 3255 3212 
Q 3622 2841 3622 2241 
Q 3622 1825 3500 1412 
Q 3378 1000 3181 728 
Q 2875 309 2494 109 
Q 2113 -91 1625 -91 
z
M 891 1344 
Q 891 869 1089 633 
Q 1288 397 1691 397 
Q 2269 397 2648 901 
Q 3028 1406 3028 2181 
Q 3028 2634 2825 2865 
Q 2622 3097 2228 3097 
Q 1903 3097 1650 2945 
Q 1397 2794 1197 2484 
Q 1050 2253 970 1956 
Q 891 1659 891 1344 
z
" transform="scale(0.015625)"/>
       <path id="DejaVuSans-Oblique-73" d="M 3200 3397 
L 3091 2853 
Q 2863 2978 2609 3040 
Q 2356 3103 2088 3103 
Q 1634 3103 1373 2948 
Q 1113 2794 1113 2528 
Q 1113 2219 1719 2053 
Q 1766 2041 1788 2034 
L 1972 1978 
Q 2547 1819 2739 1644 
Q 2931 1469 2931 1166 
Q 2931 609 2489 259 
Q 2047 -91 1331 -91 
Q 1053 -91 747 -37 
Q 441 16 72 128 
L 184 722 
Q 500 559 806 475 
Q 1113 391 1394 391 
Q 1816 391 2080 572 
Q 2344 753 2344 1031 
Q 2344 1331 1650 1516 
L 1591 1531 
L 1394 1581 
Q 956 1697 753 1886 
Q 550 2075 550 2369 
Q 550 2928 970 3256 
Q 1391 3584 2113 3584 
Q 2397 3584 2667 3537 
Q 2938 3491 3200 3397 
z
" transform="scale(0.015625)"/>
       <path id="DejaVuSans-Oblique-75" d="M 428 1388 
L 838 3500 
L 1416 3500 
L 1006 1409 
Q 975 1256 961 1147 
Q 947 1038 947 966 
Q 947 700 1109 554 
Q 1272 409 1569 409 
Q 2031 409 2368 721 
Q 2706 1034 2809 1563 
L 3194 3500 
L 3769 3500 
L 3091 0 
L 2516 0 
L 2631 550 
Q 2388 244 2052 76 
Q 1716 -91 1338 -91 
Q 878 -91 622 161 
Q 366 413 366 863 
Q 366 956 381 1097 
Q 397 1238 428 1388 
z
" transform="scale(0.015625)"/>
       <path id="DejaVuSans-Oblique-6d" d="M 5747 2113 
L 5338 0 
L 4763 0 
L 5166 2094 
Q 5191 2228 5203 2325 
Q 5216 2422 5216 2491 
Q 5216 2772 5059 2928 
Q 4903 3084 4622 3084 
Q 4203 3084 3875 2770 
Q 3547 2456 3450 1953 
L 3066 0 
L 2491 0 
L 2900 2094 
Q 2925 2209 2937 2307 
Q 2950 2406 2950 2484 
Q 2950 2769 2794 2926 
Q 2638 3084 2363 3084 
Q 1938 3084 1609 2770 
Q 1281 2456 1184 1953 
L 800 0 
L 225 0 
L 909 3500 
L 1484 3500 
L 1375 2956 
Q 1609 3263 1923 3423 
Q 2238 3584 2597 3584 
Q 2978 3584 3223 3384 
Q 3469 3184 3519 2828 
Q 3781 3197 4126 3390 
Q 4472 3584 4856 3584 
Q 5306 3584 5551 3325 
Q 5797 3066 5797 2591 
Q 5797 2488 5784 2364 
Q 5772 2241 5747 2113 
z
" transform="scale(0.015625)"/>
       <path id="DejaVuSans-Oblique-65" d="M 3078 2063 
Q 3088 2113 3092 2166 
Q 3097 2219 3097 2272 
Q 3097 2653 2873 2875 
Q 2650 3097 2266 3097 
Q 1838 3097 1509 2826 
Q 1181 2556 1013 2059 
L 3078 2063 
z
M 3578 1613 
L 903 1613 
Q 884 1494 878 1425 
Q 872 1356 872 1306 
Q 872 872 1139 634 
Q 1406 397 1894 397 
Q 2269 397 2603 481 
Q 2938 566 3225 728 
L 3116 159 
Q 2806 34 2476 -28 
Q 2147 -91 1806 -91 
Q 1078 -91 686 257 
Q 294 606 294 1247 
Q 294 1794 489 2264 
Q 684 2734 1063 3103 
Q 1306 3334 1642 3459 
Q 1978 3584 2356 3584 
Q 2950 3584 3301 3228 
Q 3653 2872 3653 2272 
Q 3653 2128 3634 1964 
Q 3616 1800 3578 1613 
z
" transform="scale(0.015625)"/>
       <path id="DejaVuSans-Oblique-72" d="M 2853 2969 
Q 2766 3016 2653 3041 
Q 2541 3066 2413 3066 
Q 1953 3066 1609 2717 
Q 1266 2369 1153 1784 
L 800 0 
L 225 0 
L 909 3500 
L 1484 3500 
L 1375 2956 
Q 1603 3259 1920 3421 
Q 2238 3584 2597 3584 
Q 2691 3584 2781 3573 
Q 2872 3563 2963 3538 
L 2853 2969 
z
" transform="scale(0.015625)"/>
      </defs>
      <use xlink:href="#DejaVuSans-Oblique-43" transform="translate(0 0.78125)"/>
      <use xlink:href="#DejaVuSans-Oblique-6f" transform="translate(69.824219 0.78125)"/>
      <use xlink:href="#DejaVuSans-Oblique-6e" transform="translate(131.005859 0.78125)"/>
      <use xlink:href="#DejaVuSans-Oblique-73" transform="translate(194.384766 0.78125)"/>
      <use xlink:href="#DejaVuSans-Oblique-75" transform="translate(246.484375 0.78125)"/>
      <use xlink:href="#DejaVuSans-Oblique-6d" transform="translate(309.863281 0.78125)"/>
      <use xlink:href="#DejaVuSans-Oblique-65" transform="translate(407.275391 0.78125)"/>
      <use xlink:href="#DejaVuSans-Oblique-72" transform="translate(468.798828 0.78125)"/>
     </g>
    </g>
    <g id="line2d_16">
     <path d="M 124.030363 58.58125 
L 132.030363 58.58125 
L 140.030363 58.58125 
" style="fill: none; stroke-dasharray: 7.4,3.2; stroke-dashoffset: 0; stroke: #ff0000; stroke-width: 2"/>
    </g>
    <g id="text_9">
     <!-- Mean -->
     <g transform="translate(146.430363 61.38125) scale(0.08 -0.08)">
      <defs>
       <path id="DejaVuSans-4d" d="M 628 4666 
L 1569 4666 
L 2759 1491 
L 3956 4666 
L 4897 4666 
L 4897 0 
L 4281 0 
L 4281 4097 
L 3078 897 
L 2444 897 
L 1241 4097 
L 1241 0 
L 628 0 
L 628 4666 
z
" transform="scale(0.015625)"/>
       <path id="DejaVuSans-65" d="M 3597 1894 
L 3597 1613 
L 953 1613 
Q 991 1019 1311 708 
Q 1631 397 2203 397 
Q 2534 397 2845 478 
Q 3156 559 3463 722 
L 3463 178 
Q 3153 47 2828 -22 
Q 2503 -91 2169 -91 
Q 1331 -91 842 396 
Q 353 884 353 1716 
Q 353 2575 817 3079 
Q 1281 3584 2069 3584 
Q 2775 3584 3186 3129 
Q 3597 2675 3597 1894 
z
M 3022 2063 
Q 3016 2534 2758 2815 
Q 2500 3097 2075 3097 
Q 1594 3097 1305 2825 
Q 1016 2553 972 2059 
L 3022 2063 
z
" transform="scale(0.015625)"/>
       <path id="DejaVuSans-61" d="M 2194 1759 
Q 1497 1759 1228 1600 
Q 959 1441 959 1056 
Q 959 750 1161 570 
Q 1363 391 1709 391 
Q 2188 391 2477 730 
Q 2766 1069 2766 1631 
L 2766 1759 
L 2194 1759 
z
M 3341 1997 
L 3341 0 
L 2766 0 
L 2766 531 
Q 2569 213 2275 61 
Q 1981 -91 1556 -91 
Q 1019 -91 701 211 
Q 384 513 384 1019 
Q 384 1609 779 1909 
Q 1175 2209 1959 2209 
L 2766 2209 
L 2766 2266 
Q 2766 2663 2505 2880 
Q 2244 3097 1772 3097 
Q 1472 3097 1187 3025 
Q 903 2953 641 2809 
L 641 3341 
Q 956 3463 1253 3523 
Q 1550 3584 1831 3584 
Q 2591 3584 2966 3190 
Q 3341 2797 3341 1997 
z
" transform="scale(0.015625)"/>
       <path id="DejaVuSans-6e" d="M 3513 2113 
L 3513 0 
L 2938 0 
L 2938 2094 
Q 2938 2591 2744 2837 
Q 2550 3084 2163 3084 
Q 1697 3084 1428 2787 
Q 1159 2491 1159 1978 
L 1159 0 
L 581 0 
L 581 3500 
L 1159 3500 
L 1159 2956 
Q 1366 3272 1645 3428 
Q 1925 3584 2291 3584 
Q 2894 3584 3203 3211 
Q 3513 2838 3513 2113 
z
" transform="scale(0.015625)"/>
      </defs>
      <use xlink:href="#DejaVuSans-4d"/>
      <use xlink:href="#DejaVuSans-65" x="86.279297"/>
      <use xlink:href="#DejaVuSans-61" x="147.802734"/>
      <use xlink:href="#DejaVuSans-6e" x="209.082031"/>
     </g>
    </g>
    <g id="line2d_17">
     <path d="M 124.030363 70.32375 
L 132.030363 70.32375 
L 140.030363 70.32375 
" style="fill: none; stroke-dasharray: 12.8,3.2,2,3.2; stroke-dashoffset: 0; stroke: #008000; stroke-width: 2"/>
    </g>
    <g id="text_10">
     <!-- Median -->
     <g transform="translate(146.430363 73.12375) scale(0.08 -0.08)">
      <defs>
       <path id="DejaVuSans-64" d="M 2906 2969 
L 2906 4863 
L 3481 4863 
L 3481 0 
L 2906 0 
L 2906 525 
Q 2725 213 2448 61 
Q 2172 -91 1784 -91 
Q 1150 -91 751 415 
Q 353 922 353 1747 
Q 353 2572 751 3078 
Q 1150 3584 1784 3584 
Q 2172 3584 2448 3432 
Q 2725 3281 2906 2969 
z
M 947 1747 
Q 947 1113 1208 752 
Q 1469 391 1925 391 
Q 2381 391 2643 752 
Q 2906 1113 2906 1747 
Q 2906 2381 2643 2742 
Q 2381 3103 1925 3103 
Q 1469 3103 1208 2742 
Q 947 2381 947 1747 
z
" transform="scale(0.015625)"/>
       <path id="DejaVuSans-69" d="M 603 3500 
L 1178 3500 
L 1178 0 
L 603 0 
L 603 3500 
z
M 603 4863 
L 1178 4863 
L 1178 4134 
L 603 4134 
L 603 4863 
z
" transform="scale(0.015625)"/>
      </defs>
      <use xlink:href="#DejaVuSans-4d"/>
      <use xlink:href="#DejaVuSans-65" x="86.279297"/>
      <use xlink:href="#DejaVuSans-64" x="147.802734"/>
      <use xlink:href="#DejaVuSans-69" x="211.279297"/>
      <use xlink:href="#DejaVuSans-61" x="239.0625"/>
      <use xlink:href="#DejaVuSans-6e" x="300.341797"/>
     </g>
    </g>
    <g id="line2d_18">
     <path d="M 124.030363 82.06625 
L 132.030363 82.06625 
L 140.030363 82.06625 
" style="fill: none; stroke-dasharray: 2,3.3; stroke-dashoffset: 0; stroke: #0000ff; stroke-width: 2"/>
    </g>
    <g id="text_11">
     <!-- 95th Percentile -->
     <g transform="translate(146.430363 84.86625) scale(0.08 -0.08)">
      <defs>
       <path id="DejaVuSans-39" d="M 703 97 
L 703 672 
Q 941 559 1184 500 
Q 1428 441 1663 441 
Q 2288 441 2617 861 
Q 2947 1281 2994 2138 
Q 2813 1869 2534 1725 
Q 2256 1581 1919 1581 
Q 1219 1581 811 2004 
Q 403 2428 403 3163 
Q 403 3881 828 4315 
Q 1253 4750 1959 4750 
Q 2769 4750 3195 4129 
Q 3622 3509 3622 2328 
Q 3622 1225 3098 567 
Q 2575 -91 1691 -91 
Q 1453 -91 1209 -44 
Q 966 3 703 97 
z
M 1959 2075 
Q 2384 2075 2632 2365 
Q 2881 2656 2881 3163 
Q 2881 3666 2632 3958 
Q 2384 4250 1959 4250 
Q 1534 4250 1286 3958 
Q 1038 3666 1038 3163 
Q 1038 2656 1286 2365 
Q 1534 2075 1959 2075 
z
" transform="scale(0.015625)"/>
       <path id="DejaVuSans-35" d="M 691 4666 
L 3169 4666 
L 3169 4134 
L 1269 4134 
L 1269 2991 
Q 1406 3038 1543 3061 
Q 1681 3084 1819 3084 
Q 2600 3084 3056 2656 
Q 3513 2228 3513 1497 
Q 3513 744 3044 326 
Q 2575 -91 1722 -91 
Q 1428 -91 1123 -41 
Q 819 9 494 109 
L 494 744 
Q 775 591 1075 516 
Q 1375 441 1709 441 
Q 2250 441 2565 725 
Q 2881 1009 2881 1497 
Q 2881 1984 2565 2268 
Q 2250 2553 1709 2553 
Q 1456 2553 1204 2497 
Q 953 2441 691 2322 
L 691 4666 
z
" transform="scale(0.015625)"/>
       <path id="DejaVuSans-74" d="M 1172 4494 
L 1172 3500 
L 2356 3500 
L 2356 3053 
L 1172 3053 
L 1172 1153 
Q 1172 725 1289 603 
Q 1406 481 1766 481 
L 2356 481 
L 2356 0 
L 1766 0 
Q 1100 0 847 248 
Q 594 497 594 1153 
L 594 3053 
L 172 3053 
L 172 3500 
L 594 3500 
L 594 4494 
L 1172 4494 
z
" transform="scale(0.015625)"/>
       <path id="DejaVuSans-68" d="M 3513 2113 
L 3513 0 
L 2938 0 
L 2938 2094 
Q 2938 2591 2744 2837 
Q 2550 3084 2163 3084 
Q 1697 3084 1428 2787 
Q 1159 2491 1159 1978 
L 1159 0 
L 581 0 
L 581 4863 
L 1159 4863 
L 1159 2956 
Q 1366 3272 1645 3428 
Q 1925 3584 2291 3584 
Q 2894 3584 3203 3211 
Q 3513 2838 3513 2113 
z
" transform="scale(0.015625)"/>
       <path id="DejaVuSans-20" transform="scale(0.015625)"/>
       <path id="DejaVuSans-50" d="M 1259 4147 
L 1259 2394 
L 2053 2394 
Q 2494 2394 2734 2622 
Q 2975 2850 2975 3272 
Q 2975 3691 2734 3919 
Q 2494 4147 2053 4147 
L 1259 4147 
z
M 628 4666 
L 2053 4666 
Q 2838 4666 3239 4311 
Q 3641 3956 3641 3272 
Q 3641 2581 3239 2228 
Q 2838 1875 2053 1875 
L 1259 1875 
L 1259 0 
L 628 0 
L 628 4666 
z
" transform="scale(0.015625)"/>
       <path id="DejaVuSans-72" d="M 2631 2963 
Q 2534 3019 2420 3045 
Q 2306 3072 2169 3072 
Q 1681 3072 1420 2755 
Q 1159 2438 1159 1844 
L 1159 0 
L 581 0 
L 581 3500 
L 1159 3500 
L 1159 2956 
Q 1341 3275 1631 3429 
Q 1922 3584 2338 3584 
Q 2397 3584 2469 3576 
Q 2541 3569 2628 3553 
L 2631 2963 
z
" transform="scale(0.015625)"/>
       <path id="DejaVuSans-63" d="M 3122 3366 
L 3122 2828 
Q 2878 2963 2633 3030 
Q 2388 3097 2138 3097 
Q 1578 3097 1268 2742 
Q 959 2388 959 1747 
Q 959 1106 1268 751 
Q 1578 397 2138 397 
Q 2388 397 2633 464 
Q 2878 531 3122 666 
L 3122 134 
Q 2881 22 2623 -34 
Q 2366 -91 2075 -91 
Q 1284 -91 818 406 
Q 353 903 353 1747 
Q 353 2603 823 3093 
Q 1294 3584 2113 3584 
Q 2378 3584 2631 3529 
Q 2884 3475 3122 3366 
z
" transform="scale(0.015625)"/>
       <path id="DejaVuSans-6c" d="M 603 4863 
L 1178 4863 
L 1178 0 
L 603 0 
L 603 4863 
z
" transform="scale(0.015625)"/>
      </defs>
      <use xlink:href="#DejaVuSans-39"/>
      <use xlink:href="#DejaVuSans-35" x="63.623047"/>
      <use xlink:href="#DejaVuSans-74" x="127.246094"/>
      <use xlink:href="#DejaVuSans-68" x="166.455078"/>
      <use xlink:href="#DejaVuSans-20" x="229.833984"/>
      <use xlink:href="#DejaVuSans-50" x="261.621094"/>
      <use xlink:href="#DejaVuSans-65" x="318.298828"/>
      <use xlink:href="#DejaVuSans-72" x="379.822266"/>
      <use xlink:href="#DejaVuSans-63" x="418.685547"/>
      <use xlink:href="#DejaVuSans-65" x="473.666016"/>
      <use xlink:href="#DejaVuSans-6e" x="535.189453"/>
      <use xlink:href="#DejaVuSans-74" x="598.568359"/>
      <use xlink:href="#DejaVuSans-69" x="637.777344"/>
      <use xlink:href="#DejaVuSans-6c" x="665.560547"/>
      <use xlink:href="#DejaVuSans-65" x="693.34375"/>
     </g>
    </g>
   </g>
  </g>
  <g id="axes_2">
   <g id="patch_9">
    <path d="M 234.793333 199 
L 386.372447 199 
L 386.372447 36.36 
L 234.793333 36.36 
z
" style="fill: #ffffff"/>
   </g>
   <g id="matplotlib.axis_3">
    <g id="xtick_5">
     <g id="line2d_19">
      <g>
       <use xlink:href="#m08a70a7f73" x="269.620378" y="199" style="stroke: #000000; stroke-width: 0.8"/>
      </g>
     </g>
    </g>
    <g id="xtick_6">
     <g id="line2d_20">
      <g>
       <use xlink:href="#m08a70a7f73" x="307.375237" y="199" style="stroke: #000000; stroke-width: 0.8"/>
      </g>
     </g>
    </g>
    <g id="xtick_7">
     <g id="line2d_21">
      <g>
       <use xlink:href="#m08a70a7f73" x="345.130096" y="199" style="stroke: #000000; stroke-width: 0.8"/>
      </g>
     </g>
    </g>
    <g id="xtick_8">
     <g id="line2d_22">
      <g>
       <use xlink:href="#m08a70a7f73" x="382.884955" y="199" style="stroke: #000000; stroke-width: 0.8"/>
      </g>
     </g>
    </g>
   </g>
   <g id="matplotlib.axis_4">
    <g id="ytick_7">
     <g id="line2d_23">
      <g>
       <use xlink:href="#m2ac5adf866" x="234.793333" y="199" style="stroke: #000000; stroke-width: 0.8"/>
      </g>
     </g>
    </g>
    <g id="ytick_8">
     <g id="line2d_24">
      <g>
       <use xlink:href="#m2ac5adf866" x="234.793333" y="166.472" style="stroke: #000000; stroke-width: 0.8"/>
      </g>
     </g>
    </g>
    <g id="ytick_9">
     <g id="line2d_25">
      <g>
       <use xlink:href="#m2ac5adf866" x="234.793333" y="133.944" style="stroke: #000000; stroke-width: 0.8"/>
      </g>
     </g>
    </g>
    <g id="ytick_10">
     <g id="line2d_26">
      <g>
       <use xlink:href="#m2ac5adf866" x="234.793333" y="101.416" style="stroke: #000000; stroke-width: 0.8"/>
      </g>
     </g>
    </g>
    <g id="ytick_11">
     <g id="line2d_27">
      <g>
       <use xlink:href="#m2ac5adf866" x="234.793333" y="68.888" style="stroke: #000000; stroke-width: 0.8"/>
      </g>
     </g>
    </g>
    <g id="ytick_12">
     <g id="line2d_28">
      <g>
       <use xlink:href="#m2ac5adf866" x="234.793333" y="36.36" style="stroke: #000000; stroke-width: 0.8"/>
      </g>
     </g>
    </g>
   </g>
   <g id="line2d_29">
    <path d="M 249.090796 199 
L 249.090796 198.419143 
L 249.765853 198.419143 
L 249.765853 197.838286 
L 249.877608 197.838286 
L 249.939526 196.095714 
L 250.308013 196.095714 
L 250.318584 194.934 
L 251.300211 194.934 
L 251.345517 193.772286 
L 254.09558 193.772286 
L 254.142396 192.610571 
L 254.252641 192.610571 
L 254.347783 191.448857 
L 254.427823 191.448857 
L 254.448966 190.287143 
L 255.093819 190.287143 
L 255.093819 189.706286 
L 255.41247 189.706286 
L 255.41247 189.125429 
L 255.762835 189.125429 
L 255.771896 187.963714 
L 255.995405 187.963714 
L 256.028629 186.802 
L 257.603762 186.802 
L 257.677761 185.059429 
L 258.336206 185.059429 
L 258.381512 182.736 
L 258.481185 182.736 
L 258.52045 181.574286 
L 259.962685 181.574286 
L 259.962685 180.993429 
L 260.204317 180.993429 
L 260.261704 179.250857 
L 260.5426 179.250857 
L 260.5426 178.67 
L 260.939781 178.67 
L 260.939781 178.089143 
L 261.267493 178.089143 
L 261.309779 176.927429 
L 261.543859 176.927429 
L 261.543859 176.346571 
L 262.17059 176.346571 
L 262.255161 175.184857 
L 262.490751 175.184857 
L 262.575322 174.023143 
L 262.726341 174.023143 
L 262.726341 173.442286 
L 262.86981 173.442286 
L 262.913605 171.699714 
L 263.038951 171.699714 
L 263.099359 169.957143 
L 263.312297 169.957143 
L 263.312297 169.376286 
L 263.425561 169.376286 
L 263.425561 168.795429 
L 263.8016 168.795429 
L 263.8016 168.214571 
L 263.948088 168.214571 
L 263.988864 167.052857 
L 264.091557 167.052857 
L 264.135352 165.310286 
L 265.091306 165.310286 
L 265.107918 164.148571 
L 265.400895 164.148571 
L 265.493017 161.825143 
L 265.529262 161.825143 
L 265.556445 160.663429 
L 265.837342 160.663429 
L 265.893219 159.501714 
L 266.042728 159.501714 
L 266.119748 158.34 
L 266.273788 158.34 
L 266.273788 157.759143 
L 266.503337 157.759143 
L 266.571296 156.597429 
L 266.790274 156.597429 
L 266.790274 156.016571 
L 266.956396 156.016571 
L 266.956396 155.435714 
L 267.14668 155.435714 
L 267.14668 154.854857 
L 267.421535 154.854857 
L 267.421535 154.274 
L 267.640514 154.274 
L 267.640514 153.693143 
L 267.782472 153.693143 
L 267.800594 152.531429 
L 268.659895 152.531429 
L 268.696139 151.369714 
L 268.773159 151.369714 
L 268.773159 150.788857 
L 268.903036 150.788857 
L 268.958913 149.627143 
L 269.028382 149.627143 
L 269.117484 146.722857 
L 269.140137 146.722857 
L 269.238299 144.980286 
L 269.276054 144.980286 
L 269.362135 142.076 
L 269.404421 142.076 
L 269.496542 138.01 
L 269.55695 138.01 
L 269.667194 134.524857 
L 269.691358 134.524857 
L 269.795561 131.620571 
L 269.836336 131.620571 
L 269.911846 129.878 
L 270.10062 129.878 
L 270.194252 128.716286 
L 270.238048 128.716286 
L 270.238048 128.135429 
L 270.361884 128.135429 
L 270.361884 127.554571 
L 270.970492 127.554571 
L 270.970492 126.973714 
L 271.136614 126.973714 
L 271.136614 126.392857 
L 271.283102 126.392857 
L 271.332939 125.231143 
L 271.429591 125.231143 
L 271.485468 123.488571 
L 271.607794 123.488571 
L 271.607794 122.907714 
L 271.7271 122.907714 
L 271.7271 122.326857 
L 271.958159 122.326857 
L 272.030649 120.584286 
L 272.113709 120.584286 
L 272.113709 120.003429 
L 272.619624 120.003429 
L 272.619624 119.422571 
L 273.13007 119.422571 
L 273.13007 118.841714 
L 273.303742 118.841714 
L 273.311293 117.68 
L 273.460803 117.68 
L 273.460803 117.099143 
L 273.577088 117.099143 
L 273.687332 113.614 
L 273.741699 113.614 
L 273.833821 110.709714 
L 273.856474 110.709714 
L 273.876106 108.967143 
L 273.978799 108.967143 
L 274.009003 107.805429 
L 274.187206 107.805429 
L 274.187206 107.224571 
L 274.628183 107.224571 
L 274.628183 106.643714 
L 274.8381 106.643714 
L 274.8381 106.062857 
L 275.028384 106.062857 
L 275.051037 104.901143 
L 275.30324 104.901143 
L 275.30324 104.320286 
L 275.493524 104.320286 
L 275.493524 103.739429 
L 275.629442 103.739429 
L 275.720053 101.996857 
L 276.068908 101.996857 
L 276.097602 100.835143 
L 276.215397 100.835143 
L 276.215397 100.254286 
L 276.345274 100.254286 
L 276.345274 99.673429 
L 276.606537 99.673429 
L 276.641272 98.511714 
L 276.887434 98.511714 
L 276.887434 97.930857 
L 277.079228 97.930857 
L 277.079228 97.35 
L 277.422042 97.35 
L 277.422042 96.769143 
L 277.56098 96.769143 
L 277.669714 95.026571 
L 277.837346 95.026571 
L 277.837346 94.445714 
L 278.097099 94.445714 
L 278.163548 92.703143 
L 278.222445 92.703143 
L 278.331179 90.379714 
L 278.524484 90.379714 
L 278.554688 88.637143 
L 278.811421 88.637143 
L 278.811421 88.056286 
L 279.1935 88.056286 
L 279.205582 86.894571 
L 279.323377 86.894571 
L 279.380764 85.732857 
L 279.497049 85.732857 
L 279.497049 85.152 
L 279.723579 85.152 
L 279.723579 84.571143 
L 280.446962 84.571143 
L 280.537573 83.409429 
L 280.691613 83.409429 
L 280.756552 82.247714 
L 281.073692 82.247714 
L 281.073692 81.666857 
L 281.304752 81.666857 
L 281.304752 81.086 
L 281.44218 81.086 
L 281.547893 79.343429 
L 281.567526 79.343429 
L 281.567526 78.762571 
L 281.706464 78.762571 
L 281.738178 77.600857 
L 281.840871 77.600857 
L 281.840871 77.02 
L 282.437398 77.02 
L 282.437398 76.439143 
L 282.724335 76.439143 
L 282.724335 75.858286 
L 282.990129 75.858286 
L 283.014292 74.696571 
L 283.268005 74.696571 
L 283.348045 73.534857 
L 283.403922 73.534857 
L 283.403922 72.954 
L 283.645553 72.954 
L 283.692369 71.792286 
L 283.858491 71.792286 
L 283.943062 70.049714 
L 284.08502 70.049714 
L 284.08502 69.468857 
L 285.740193 69.468857 
L 285.761336 68.307143 
L 285.936518 68.307143 
L 285.936518 67.726286 
L 286.051293 67.726286 
L 286.069415 66.564571 
L 286.199292 66.564571 
L 286.252149 65.402857 
L 287.146184 65.402857 
L 287.147694 64.241143 
L 287.304754 64.241143 
L 287.304754 63.660286 
L 287.495039 63.660286 
L 287.495039 63.079429 
L 287.701935 63.079429 
L 287.762343 61.917714 
L 287.981321 61.917714 
L 288.034178 59.013429 
L 288.383033 59.013429 
L 288.383033 58.432571 
L 288.940295 58.432571 
L 289.044498 57.270857 
L 289.110947 57.270857 
L 289.110947 56.69 
L 289.488495 56.69 
L 289.496046 55.528286 
L 291.429095 55.528286 
L 291.46383 54.366571 
L 291.655624 54.366571 
L 291.655624 53.785714 
L 291.960683 53.785714 
L 291.960683 53.204857 
L 292.150968 53.204857 
L 292.150968 52.624 
L 292.32313 52.624 
L 292.354844 51.462286 
L 292.682556 51.462286 
L 292.761086 50.300571 
L 293.013289 50.300571 
L 293.013289 49.719714 
L 293.303246 49.719714 
L 293.344021 48.558 
L 293.543367 48.558 
L 293.543367 47.977143 
L 295.82225 47.977143 
L 295.834332 46.815429 
L 296.471634 46.815429 
L 296.471634 46.234571 
L 297.776442 46.234571 
L 297.776442 45.653714 
L 299.387819 45.653714 
L 299.387819 45.072857 
L 299.537329 45.072857 
L 299.55092 43.911143 
L 302.592452 43.911143 
L 302.592452 43.330286 
L 302.740451 43.330286 
L 302.740451 42.749429 
L 305.476923 42.749429 
L 305.492025 41.587714 
L 306.645813 41.587714 
L 306.645813 41.006857 
L 307.144177 41.006857 
L 307.144177 40.426 
L 307.340503 40.426 
L 307.370707 38.683429 
L 307.538338 38.683429 
L 307.538338 38.102571 
L 309.18445 38.102571 
L 309.18445 37.521714 
L 310.97101 37.521714 
L 310.97101 36.940857 
L 311.288151 36.940857 
L 311.288151 36.36 
L 311.288151 36.36 
" clip-path="url(#p3a4020de94)" style="fill: none; stroke: #fc8d62; stroke-width: 1.5; stroke-linecap: square"/>
   </g>
   <g id="line2d_30">
    <path d="M 274.686633 199 
L 274.686633 36.36 
" clip-path="url(#p3a4020de94)" style="fill: none; stroke-dasharray: 5.55,2.4; stroke-dashoffset: 0; stroke: #ff0000; stroke-width: 1.5"/>
   </g>
   <g id="line2d_31">
    <path d="M 273.386048 199 
L 273.386048 36.36 
" clip-path="url(#p3a4020de94)" style="fill: none; stroke-dasharray: 9.6,2.4,1.5,2.4; stroke-dashoffset: 0; stroke: #008000; stroke-width: 1.5"/>
   </g>
   <g id="line2d_32">
    <path d="M 299.538008 199 
L 299.538008 36.36 
" clip-path="url(#p3a4020de94)" style="fill: none; stroke-dasharray: 1.5,2.475; stroke-dashoffset: 0; stroke: #0000ff; stroke-width: 1.5"/>
   </g>
   <g id="patch_10">
    <path d="M 234.793333 199 
L 234.793333 36.36 
" style="fill: none; stroke: #000000; stroke-width: 0.8; stroke-linejoin: miter; stroke-linecap: square"/>
   </g>
   <g id="patch_11">
    <path d="M 386.372447 199 
L 386.372447 36.36 
" style="fill: none; stroke: #000000; stroke-width: 0.8; stroke-linejoin: miter; stroke-linecap: square"/>
   </g>
   <g id="patch_12">
    <path d="M 234.793333 199 
L 386.372447 199 
" style="fill: none; stroke: #000000; stroke-width: 0.8; stroke-linejoin: miter; stroke-linecap: square"/>
   </g>
   <g id="patch_13">
    <path d="M 234.793333 36.36 
L 386.372447 36.36 
" style="fill: none; stroke: #000000; stroke-width: 0.8; stroke-linejoin: miter; stroke-linecap: square"/>
   </g>
   <g id="text_12">
    <g id="patch_14">
     <path d="M 344.477668 190.60725 
L 377.597668 190.60725 
L 377.597668 174.86475 
L 344.477668 174.86475 
z
" style="fill: #ffffff; opacity: 0.2; stroke: #000000; stroke-linejoin: miter"/>
    </g>
    <!-- $n = 58$ -->
    <g transform="translate(348.477668 184.9435) scale(0.08 -0.08)">
     <use xlink:href="#DejaVuSans-Oblique-6e" transform="translate(0 0.78125)"/>
     <use xlink:href="#DejaVuSans-3d" transform="translate(82.861328 0.78125)"/>
     <use xlink:href="#DejaVuSans-35" transform="translate(186.132812 0.78125)"/>
     <use xlink:href="#DejaVuSans-38" transform="translate(249.755859 0.78125)"/>
    </g>
   </g>
  </g>
  <g id="axes_3">
   <g id="patch_15">
    <path d="M 407.146667 199 
L 558.72578 199 
L 558.72578 36.36 
L 407.146667 36.36 
z
" style="fill: #ffffff"/>
   </g>
   <g id="matplotlib.axis_5">
    <g id="xtick_9">
     <g id="line2d_33">
      <g>
       <use xlink:href="#m08a70a7f73" x="441.973712" y="199" style="stroke: #000000; stroke-width: 0.8"/>
      </g>
     </g>
    </g>
    <g id="xtick_10">
     <g id="line2d_34">
      <g>
       <use xlink:href="#m08a70a7f73" x="479.728571" y="199" style="stroke: #000000; stroke-width: 0.8"/>
      </g>
     </g>
    </g>
    <g id="xtick_11">
     <g id="line2d_35">
      <g>
       <use xlink:href="#m08a70a7f73" x="517.483429" y="199" style="stroke: #000000; stroke-width: 0.8"/>
      </g>
     </g>
    </g>
    <g id="xtick_12">
     <g id="line2d_36">
      <g>
       <use xlink:href="#m08a70a7f73" x="555.238288" y="199" style="stroke: #000000; stroke-width: 0.8"/>
      </g>
     </g>
    </g>
   </g>
   <g id="matplotlib.axis_6">
    <g id="ytick_13">
     <g id="line2d_37">
      <g>
       <use xlink:href="#m2ac5adf866" x="407.146667" y="199" style="stroke: #000000; stroke-width: 0.8"/>
      </g>
     </g>
    </g>
    <g id="ytick_14">
     <g id="line2d_38">
      <g>
       <use xlink:href="#m2ac5adf866" x="407.146667" y="166.472" style="stroke: #000000; stroke-width: 0.8"/>
      </g>
     </g>
    </g>
    <g id="ytick_15">
     <g id="line2d_39">
      <g>
       <use xlink:href="#m2ac5adf866" x="407.146667" y="133.944" style="stroke: #000000; stroke-width: 0.8"/>
      </g>
     </g>
    </g>
    <g id="ytick_16">
     <g id="line2d_40">
      <g>
       <use xlink:href="#m2ac5adf866" x="407.146667" y="101.416" style="stroke: #000000; stroke-width: 0.8"/>
      </g>
     </g>
    </g>
    <g id="ytick_17">
     <g id="line2d_41">
      <g>
       <use xlink:href="#m2ac5adf866" x="407.146667" y="68.888" style="stroke: #000000; stroke-width: 0.8"/>
      </g>
     </g>
    </g>
    <g id="ytick_18">
     <g id="line2d_42">
      <g>
       <use xlink:href="#m2ac5adf866" x="407.146667" y="36.36" style="stroke: #000000; stroke-width: 0.8"/>
      </g>
     </g>
    </g>
   </g>
   <g id="line2d_43">
    <path d="M 422.033105 199 
L 422.043677 197.683077 
L 422.188655 197.683077 
L 422.188655 197.024615 
L 423.77889 197.024615 
L 423.77889 196.366154 
L 428.667389 196.366154 
L 428.667389 195.707692 
L 429.964646 195.707692 
L 429.964646 195.049231 
L 431.370637 195.049231 
L 431.402351 193.732308 
L 431.577534 193.732308 
L 431.577534 193.073846 
L 432.186142 193.073846 
L 432.260142 191.756923 
L 432.444385 191.756923 
L 432.444385 191.098462 
L 432.621078 191.098462 
L 432.621078 190.44 
L 434.161476 190.44 
L 434.161476 189.781538 
L 435.319795 189.781538 
L 435.319795 189.123077 
L 435.726038 189.123077 
L 435.813629 187.806154 
L 435.954077 187.806154 
L 436.05224 185.830769 
L 436.13077 185.830769 
L 436.144362 183.855385 
L 436.327095 183.855385 
L 436.420727 180.563077 
L 436.502278 180.563077 
L 436.502278 179.904615 
L 436.624603 179.904615 
L 436.624603 179.246154 
L 437.115416 179.246154 
L 437.115416 178.587692 
L 437.781412 178.587692 
L 437.781412 177.929231 
L 438.038145 177.929231 
L 438.038145 177.270769 
L 438.275246 177.270769 
L 438.343204 175.953846 
L 438.400592 175.953846 
L 438.408143 174.636923 
L 438.586346 174.636923 
L 438.658835 173.32 
L 438.725284 173.32 
L 438.725284 172.661538 
L 439.466789 172.661538 
L 439.466789 172.003077 
L 439.691808 172.003077 
L 439.691808 171.344615 
L 440.418212 171.344615 
L 440.418212 170.686154 
L 440.5647 170.686154 
L 440.5647 170.027692 
L 440.854658 170.027692 
L 440.936208 168.052308 
L 440.966412 168.052308 
L 441.022289 166.735385 
L 441.644489 166.735385 
L 441.703387 164.101538 
L 442.053752 164.101538 
L 442.053752 163.443077 
L 442.278771 163.443077 
L 442.343709 162.126154 
L 442.550606 162.126154 
L 442.594402 160.809231 
L 442.715217 160.809231 
L 442.715217 160.150769 
L 442.955338 160.150769 
L 442.955338 159.492308 
L 443.820679 159.492308 
L 443.855414 158.175385 
L 443.988311 158.175385 
L 443.988311 157.516923 
L 444.273738 157.516923 
L 444.350758 155.541538 
L 444.435329 155.541538 
L 444.485165 153.566154 
L 444.610511 153.566154 
L 444.713204 151.590769 
L 444.734347 151.590769 
L 444.820428 149.615385 
L 444.903489 149.615385 
L 444.954835 148.298462 
L 445.194956 148.298462 
L 445.194956 147.64 
L 445.524179 147.64 
L 445.524179 146.981538 
L 445.780912 146.981538 
L 445.780912 146.323077 
L 446.416704 146.323077 
L 446.416704 145.664615 
L 446.536009 145.664615 
L 446.536009 145.006154 
L 446.6976 145.006154 
L 446.6976 144.347692 
L 446.862211 144.347692 
L 446.961884 143.030769 
L 447.066087 143.030769 
L 447.066087 142.372308 
L 447.362085 142.372308 
L 447.430044 141.055385 
L 447.624859 141.055385 
L 447.624859 140.396923 
L 447.831756 140.396923 
L 447.857429 139.08 
L 448.189672 139.08 
L 448.189672 138.421538 
L 448.32861 138.421538 
L 448.429793 135.787692 
L 448.540037 135.787692 
L 448.648771 133.153846 
L 448.87228 133.153846 
L 448.87228 132.495385 
L 449.070115 132.495385 
L 449.121462 130.52 
L 449.181869 130.52 
L 449.287583 129.203077 
L 450.924634 129.203077 
L 451.006184 127.886154 
L 452.339686 127.886154 
L 452.397073 126.569231 
L 452.724785 126.569231 
L 452.724785 125.910769 
L 453.032865 125.910769 
L 453.032865 125.252308 
L 454.206286 125.252308 
L 454.23649 123.935385 
L 454.638202 123.935385 
L 454.638202 123.276923 
L 455.924887 123.276923 
L 455.924887 122.618462 
L 456.10158 122.618462 
L 456.10158 121.96 
L 456.323578 121.96 
L 456.323578 121.301538 
L 456.574271 121.301538 
L 456.634678 119.984615 
L 456.699617 119.984615 
L 456.809861 117.350769 
L 457.000146 117.350769 
L 457.015247 116.033846 
L 457.259899 116.033846 
L 457.259899 115.375385 
L 457.697855 115.375385 
L 457.697855 114.716923 
L 457.89116 114.716923 
L 457.990833 112.741538 
L 458.070873 112.741538 
L 458.161485 110.766154 
L 458.185648 110.766154 
L 458.185648 110.107692 
L 458.496748 110.107692 
L 458.605482 107.473846 
L 458.827481 107.473846 
L 458.869766 106.156923 
L 459.025316 106.156923 
L 459.025316 105.498462 
L 459.170295 105.498462 
L 459.248825 104.181538 
L 459.321314 104.181538 
L 459.321314 103.523077 
L 459.559925 103.523077 
L 459.623353 102.206154 
L 459.75323 102.206154 
L 459.806087 100.889231 
L 460.043187 100.889231 
L 460.043187 100.230769 
L 460.399593 100.230769 
L 460.494735 98.255385 
L 460.718244 98.255385 
L 460.748448 96.938462 
L 460.968936 96.938462 
L 461.044446 95.621538 
L 461.193955 95.621538 
L 461.193955 94.963077 
L 461.354036 94.963077 
L 461.357056 93.646154 
L 461.93093 93.646154 
L 461.93093 92.987692 
L 462.125745 92.987692 
L 462.125745 92.329231 
L 462.248071 92.329231 
L 462.267703 91.012308 
L 462.453457 91.012308 
L 462.506314 89.695385 
L 462.924638 89.695385 
L 462.924638 89.036923 
L 463.101331 89.036923 
L 463.101331 88.378462 
L 463.243289 88.378462 
L 463.243289 87.72 
L 463.418472 87.72 
L 463.418472 87.061538 
L 463.780918 87.061538 
L 463.780918 86.403077 
L 464.001407 86.403077 
L 464.004427 85.086154 
L 464.532995 85.086154 
L 464.532995 84.427692 
L 465.11895 84.427692 
L 465.11895 83.769231 
L 466.561186 83.769231 
L 466.598941 82.452308 
L 466.836041 82.452308 
L 466.941755 81.135385 
L 467.021795 81.135385 
L 467.118448 79.818462 
L 467.165264 79.818462 
L 467.206039 78.501538 
L 467.414446 78.501538 
L 467.414446 77.843077 
L 469.522677 77.843077 
L 469.522677 77.184615 
L 469.975735 77.184615 
L 469.975735 76.526154 
L 470.315529 76.526154 
L 470.315529 75.867692 
L 470.860709 75.867692 
L 470.880342 74.550769 
L 471.313768 74.550769 
L 471.32887 73.233846 
L 471.479889 73.233846 
L 471.479889 72.575385 
L 471.591643 72.575385 
L 471.667153 71.258462 
L 471.886131 71.258462 
L 471.902743 69.941538 
L 472.678983 69.941538 
L 472.678983 69.283077 
L 473.467305 69.283077 
L 473.467305 68.624615 
L 473.5851 68.624615 
L 473.675712 66.649231 
L 473.929424 66.649231 
L 473.929424 65.990769 
L 474.374932 65.990769 
L 474.374932 65.332308 
L 474.497257 65.332308 
L 474.547094 64.015385 
L 474.655828 64.015385 
L 474.655828 63.356923 
L 475.391292 63.356923 
L 475.391292 62.698462 
L 475.820188 62.698462 
L 475.820188 62.04 
L 475.983289 62.04 
L 475.983289 61.381538 
L 476.215858 61.381538 
L 476.267205 60.064615 
L 476.425775 60.064615 
L 476.425775 59.406154 
L 476.945282 59.406154 
L 476.945282 58.747692 
L 477.416463 58.747692 
L 477.416463 58.089231 
L 477.713971 58.089231 
L 477.713971 57.430769 
L 478.668414 57.430769 
L 478.668414 56.772308 
L 478.826985 56.772308 
L 478.826985 56.113846 
L 479.275512 56.113846 
L 479.275512 55.455385 
L 479.474858 55.455385 
L 479.474858 54.796923 
L 479.591143 54.796923 
L 479.591143 54.138462 
L 480.550116 54.138462 
L 480.550116 53.48 
L 483.945033 53.48 
L 483.945033 52.821538 
L 484.485683 52.821538 
L 484.485683 52.163077 
L 487.566479 52.163077 
L 487.566479 51.504615 
L 487.684274 51.504615 
L 487.73109 50.187692 
L 487.827743 50.187692 
L 487.827743 49.529231 
L 488.282311 49.529231 
L 488.282311 48.870769 
L 492.450448 48.870769 
L 492.450448 48.212308 
L 493.031873 48.212308 
L 493.031873 47.553846 
L 494.034642 47.553846 
L 494.034642 46.895385 
L 494.561699 46.895385 
L 494.561699 46.236923 
L 494.764066 46.236923 
L 494.764066 45.578462 
L 495.319817 45.578462 
L 495.319817 44.92 
L 497.417477 44.92 
L 497.417477 44.261538 
L 498.417226 44.261538 
L 498.417226 43.603077 
L 499.993869 43.603077 
L 499.993869 42.944615 
L 500.217377 42.944615 
L 500.217377 42.286154 
L 505.779423 42.286154 
L 505.779423 41.627692 
L 534.844624 41.627692 
L 534.844624 40.969231 
L 543.413466 40.969231 
L 543.446691 39.652308 
L 543.709465 39.652308 
L 543.709465 38.993846 
L 547.117973 38.993846 
L 547.225197 37.018462 
L 547.432094 37.018462 
L 547.432094 36.36 
L 547.432094 36.36 
" clip-path="url(#pb19806eb17)" style="fill: none; stroke: #fc8d62; stroke-width: 1.5; stroke-linecap: square"/>
   </g>
   <g id="line2d_44">
    <path d="M 459.062759 199 
L 459.062759 36.36 
" clip-path="url(#pb19806eb17)" style="fill: none; stroke-dasharray: 5.55,2.4; stroke-dashoffset: 0; stroke: #ff0000; stroke-width: 1.5"/>
   </g>
   <g id="line2d_45">
    <path d="M 456.809861 199 
L 456.809861 36.36 
" clip-path="url(#pb19806eb17)" style="fill: none; stroke-dasharray: 9.6,2.4,1.5,2.4; stroke-dashoffset: 0; stroke: #008000; stroke-width: 1.5"/>
   </g>
   <g id="line2d_46">
    <path d="M 496.788179 199 
L 496.788179 36.36 
" clip-path="url(#pb19806eb17)" style="fill: none; stroke-dasharray: 1.5,2.475; stroke-dashoffset: 0; stroke: #0000ff; stroke-width: 1.5"/>
   </g>
   <g id="patch_16">
    <path d="M 407.146667 199 
L 407.146667 36.36 
" style="fill: none; stroke: #000000; stroke-width: 0.8; stroke-linejoin: miter; stroke-linecap: square"/>
   </g>
   <g id="patch_17">
    <path d="M 558.72578 199 
L 558.72578 36.36 
" style="fill: none; stroke: #000000; stroke-width: 0.8; stroke-linejoin: miter; stroke-linecap: square"/>
   </g>
   <g id="patch_18">
    <path d="M 407.146667 199 
L 558.72578 199 
" style="fill: none; stroke: #000000; stroke-width: 0.8; stroke-linejoin: miter; stroke-linecap: square"/>
   </g>
   <g id="patch_19">
    <path d="M 407.146667 36.36 
L 558.72578 36.36 
" style="fill: none; stroke: #000000; stroke-width: 0.8; stroke-linejoin: miter; stroke-linecap: square"/>
   </g>
   <g id="text_13">
    <g id="patch_20">
     <path d="M 516.831002 190.60725 
L 555.071002 190.60725 
L 555.071002 174.86475 
L 516.831002 174.86475 
z
" style="fill: #ffffff; opacity: 0.2; stroke: #000000; stroke-linejoin: miter"/>
    </g>
    <!-- $n = 100$ -->
    <g transform="translate(520.831002 184.9435) scale(0.08 -0.08)">
     <use xlink:href="#DejaVuSans-Oblique-6e" transform="translate(0 0.78125)"/>
     <use xlink:href="#DejaVuSans-3d" transform="translate(82.861328 0.78125)"/>
     <use xlink:href="#DejaVuSans-31" transform="translate(186.132812 0.78125)"/>
     <use xlink:href="#DejaVuSans-30" transform="translate(249.755859 0.78125)"/>
     <use xlink:href="#DejaVuSans-30" transform="translate(313.378906 0.78125)"/>
    </g>
   </g>
  </g>
  <g id="axes_4">
   <g id="patch_21">
    <path d="M 62.44 382.52 
L 214.019113 382.52 
L 214.019113 219.88 
L 62.44 219.88 
z
" style="fill: #ffffff"/>
   </g>
   <g id="matplotlib.axis_7">
    <g id="xtick_13">
     <g id="line2d_47">
      <g>
       <use xlink:href="#m08a70a7f73" x="97.267045" y="382.52" style="stroke: #000000; stroke-width: 0.8"/>
      </g>
     </g>
     <g id="text_14">
      <!-- 25 -->
      <g transform="translate(90.904545 397.118438) scale(0.1 -0.1)">
       <use xlink:href="#DejaVuSans-32"/>
       <use xlink:href="#DejaVuSans-35" x="63.623047"/>
      </g>
     </g>
    </g>
    <g id="xtick_14">
     <g id="line2d_48">
      <g>
       <use xlink:href="#m08a70a7f73" x="135.021904" y="382.52" style="stroke: #000000; stroke-width: 0.8"/>
      </g>
     </g>
     <g id="text_15">
      <!-- 50 -->
      <g transform="translate(128.659404 397.118438) scale(0.1 -0.1)">
       <use xlink:href="#DejaVuSans-35"/>
       <use xlink:href="#DejaVuSans-30" x="63.623047"/>
      </g>
     </g>
    </g>
    <g id="xtick_15">
     <g id="line2d_49">
      <g>
       <use xlink:href="#m08a70a7f73" x="172.776763" y="382.52" style="stroke: #000000; stroke-width: 0.8"/>
      </g>
     </g>
     <g id="text_16">
      <!-- 75 -->
      <g transform="translate(166.414263 397.118438) scale(0.1 -0.1)">
       <defs>
        <path id="DejaVuSans-37" d="M 525 4666 
L 3525 4666 
L 3525 4397 
L 1831 0 
L 1172 0 
L 2766 4134 
L 525 4134 
L 525 4666 
z
" transform="scale(0.015625)"/>
       </defs>
       <use xlink:href="#DejaVuSans-37"/>
       <use xlink:href="#DejaVuSans-35" x="63.623047"/>
      </g>
     </g>
    </g>
    <g id="xtick_16">
     <g id="line2d_50">
      <g>
       <use xlink:href="#m08a70a7f73" x="210.531622" y="382.52" style="stroke: #000000; stroke-width: 0.8"/>
      </g>
     </g>
     <g id="text_17">
      <!-- 100 -->
      <g transform="translate(200.987872 397.118438) scale(0.1 -0.1)">
       <use xlink:href="#DejaVuSans-31"/>
       <use xlink:href="#DejaVuSans-30" x="63.623047"/>
       <use xlink:href="#DejaVuSans-30" x="127.246094"/>
      </g>
     </g>
    </g>
   </g>
   <g id="matplotlib.axis_8">
    <g id="ytick_19">
     <g id="line2d_51">
      <g>
       <use xlink:href="#m2ac5adf866" x="62.44" y="382.52" style="stroke: #000000; stroke-width: 0.8"/>
      </g>
     </g>
     <g id="text_18">
      <!-- 0.0 -->
      <g transform="translate(39.536875 386.319219) scale(0.1 -0.1)">
       <use xlink:href="#DejaVuSans-30"/>
       <use xlink:href="#DejaVuSans-2e" x="63.623047"/>
       <use xlink:href="#DejaVuSans-30" x="95.410156"/>
      </g>
     </g>
    </g>
    <g id="ytick_20">
     <g id="line2d_52">
      <g>
       <use xlink:href="#m2ac5adf866" x="62.44" y="349.992" style="stroke: #000000; stroke-width: 0.8"/>
      </g>
     </g>
     <g id="text_19">
      <!-- 0.2 -->
      <g transform="translate(39.536875 353.791219) scale(0.1 -0.1)">
       <use xlink:href="#DejaVuSans-30"/>
       <use xlink:href="#DejaVuSans-2e" x="63.623047"/>
       <use xlink:href="#DejaVuSans-32" x="95.410156"/>
      </g>
     </g>
    </g>
    <g id="ytick_21">
     <g id="line2d_53">
      <g>
       <use xlink:href="#m2ac5adf866" x="62.44" y="317.464" style="stroke: #000000; stroke-width: 0.8"/>
      </g>
     </g>
     <g id="text_20">
      <!-- 0.4 -->
      <g transform="translate(39.536875 321.263219) scale(0.1 -0.1)">
       <use xlink:href="#DejaVuSans-30"/>
       <use xlink:href="#DejaVuSans-2e" x="63.623047"/>
       <use xlink:href="#DejaVuSans-34" x="95.410156"/>
      </g>
     </g>
    </g>
    <g id="ytick_22">
     <g id="line2d_54">
      <g>
       <use xlink:href="#m2ac5adf866" x="62.44" y="284.936" style="stroke: #000000; stroke-width: 0.8"/>
      </g>
     </g>
     <g id="text_21">
      <!-- 0.6 -->
      <g transform="translate(39.536875 288.735219) scale(0.1 -0.1)">
       <use xlink:href="#DejaVuSans-30"/>
       <use xlink:href="#DejaVuSans-2e" x="63.623047"/>
       <use xlink:href="#DejaVuSans-36" x="95.410156"/>
      </g>
     </g>
    </g>
    <g id="ytick_23">
     <g id="line2d_55">
      <g>
       <use xlink:href="#m2ac5adf866" x="62.44" y="252.408" style="stroke: #000000; stroke-width: 0.8"/>
      </g>
     </g>
     <g id="text_22">
      <!-- 0.8 -->
      <g transform="translate(39.536875 256.207219) scale(0.1 -0.1)">
       <use xlink:href="#DejaVuSans-30"/>
       <use xlink:href="#DejaVuSans-2e" x="63.623047"/>
       <use xlink:href="#DejaVuSans-38" x="95.410156"/>
      </g>
     </g>
    </g>
    <g id="ytick_24">
     <g id="line2d_56">
      <g>
       <use xlink:href="#m2ac5adf866" x="62.44" y="219.88" style="stroke: #000000; stroke-width: 0.8"/>
      </g>
     </g>
     <g id="text_23">
      <!-- 1.0 -->
      <g transform="translate(39.536875 223.679219) scale(0.1 -0.1)">
       <use xlink:href="#DejaVuSans-31"/>
       <use xlink:href="#DejaVuSans-2e" x="63.623047"/>
       <use xlink:href="#DejaVuSans-30" x="95.410156"/>
      </g>
     </g>
    </g>
   </g>
   <g id="line2d_57">
    <path d="M 69.32996 382.52 
L 69.32996 366.256 
L 69.56706 366.256 
L 69.56706 349.992 
L 81.37376 349.992 
L 81.37376 333.728 
L 81.384331 333.728 
L 81.384331 317.464 
L 81.423596 317.464 
L 81.423596 301.2 
L 81.491555 301.2 
L 81.491555 284.936 
L 81.544412 284.936 
L 81.544412 268.672 
L 81.60935 268.672 
L 81.60935 252.408 
L 87.227273 252.408 
L 87.227273 236.144 
L 87.553475 236.144 
L 87.553475 219.88 
" clip-path="url(#pe79d5781fb)" style="fill: none; stroke: #66c2a5; stroke-width: 1.5; stroke-linecap: square"/>
   </g>
   <g id="line2d_58">
    <path d="M 80.250477 382.52 
L 80.250477 219.88 
" clip-path="url(#pe79d5781fb)" style="fill: none; stroke-dasharray: 5.55,2.4; stroke-dashoffset: 0; stroke: #ff0000; stroke-width: 1.5"/>
   </g>
   <g id="line2d_59">
    <path d="M 81.457575 382.52 
L 81.457575 219.88 
" clip-path="url(#pe79d5781fb)" style="fill: none; stroke-dasharray: 9.6,2.4,1.5,2.4; stroke-dashoffset: 0; stroke: #008000; stroke-width: 1.5"/>
   </g>
   <g id="line2d_60">
    <path d="M 87.406684 382.52 
L 87.406684 219.88 
" clip-path="url(#pe79d5781fb)" style="fill: none; stroke-dasharray: 1.5,2.475; stroke-dashoffset: 0; stroke: #0000ff; stroke-width: 1.5"/>
   </g>
   <g id="patch_22">
    <path d="M 62.44 382.52 
L 62.44 219.88 
" style="fill: none; stroke: #000000; stroke-width: 0.8; stroke-linejoin: miter; stroke-linecap: square"/>
   </g>
   <g id="patch_23">
    <path d="M 214.019113 382.52 
L 214.019113 219.88 
" style="fill: none; stroke: #000000; stroke-width: 0.8; stroke-linejoin: miter; stroke-linecap: square"/>
   </g>
   <g id="patch_24">
    <path d="M 62.44 382.52 
L 214.019113 382.52 
" style="fill: none; stroke: #000000; stroke-width: 0.8; stroke-linejoin: miter; stroke-linecap: square"/>
   </g>
   <g id="patch_25">
    <path d="M 62.44 219.88 
L 214.019113 219.88 
" style="fill: none; stroke: #000000; stroke-width: 0.8; stroke-linejoin: miter; stroke-linecap: square"/>
   </g>
   <g id="text_24">
    <g id="patch_26">
     <path d="M 172.124335 374.12725 
L 200.124335 374.12725 
L 200.124335 358.38475 
L 172.124335 358.38475 
z
" style="fill: #ffffff; opacity: 0.2; stroke: #000000; stroke-linejoin: miter"/>
    </g>
    <!-- $n = 2$ -->
    <g transform="translate(176.124335 368.4635) scale(0.08 -0.08)">
     <use xlink:href="#DejaVuSans-Oblique-6e" transform="translate(0 0.78125)"/>
     <use xlink:href="#DejaVuSans-3d" transform="translate(82.861328 0.78125)"/>
     <use xlink:href="#DejaVuSans-32" transform="translate(186.132812 0.78125)"/>
    </g>
   </g>
   <g id="legend_2">
    <g id="patch_27">
     <path d="M 149.539113 238.0225 
L 208.419113 238.0225 
Q 210.019113 238.0225 210.019113 236.4225 
L 210.019113 225.48 
Q 210.019113 223.88 208.419113 223.88 
L 149.539113 223.88 
Q 147.939113 223.88 147.939113 225.48 
L 147.939113 236.4225 
Q 147.939113 238.0225 149.539113 238.0225 
z
" style="fill: #ffffff; opacity: 0.8; stroke: #cccccc; stroke-linejoin: miter"/>
    </g>
    <g id="line2d_61">
     <path d="M 151.139113 230.35875 
L 159.139113 230.35875 
L 167.139113 230.35875 
" style="fill: none; stroke: #66c2a5; stroke-width: 2; stroke-linecap: square"/>
    </g>
    <g id="text_25">
     <!-- $Provider$ -->
     <g transform="translate(173.539113 233.15875) scale(0.08 -0.08)">
      <defs>
       <path id="DejaVuSans-Oblique-50" d="M 1081 4666 
L 2541 4666 
Q 3178 4666 3512 4369 
Q 3847 4072 3847 3500 
Q 3847 2731 3353 2303 
Q 2859 1875 1966 1875 
L 1172 1875 
L 806 0 
L 172 0 
L 1081 4666 
z
M 1613 4147 
L 1275 2394 
L 2069 2394 
Q 2606 2394 2893 2669 
Q 3181 2944 3181 3456 
Q 3181 3784 2986 3965 
Q 2791 4147 2438 4147 
L 1613 4147 
z
" transform="scale(0.015625)"/>
       <path id="DejaVuSans-Oblique-76" d="M 459 3500 
L 1069 3500 
L 1581 525 
L 3256 3500 
L 3866 3500 
L 1875 0 
L 1100 0 
L 459 3500 
z
" transform="scale(0.015625)"/>
       <path id="DejaVuSans-Oblique-69" d="M 1172 4863 
L 1747 4863 
L 1606 4134 
L 1031 4134 
L 1172 4863 
z
M 909 3500 
L 1484 3500 
L 800 0 
L 225 0 
L 909 3500 
z
" transform="scale(0.015625)"/>
       <path id="DejaVuSans-Oblique-64" d="M 2675 525 
Q 2444 222 2128 65 
Q 1813 -91 1428 -91 
Q 903 -91 598 267 
Q 294 625 294 1247 
Q 294 1766 478 2236 
Q 663 2706 1013 3078 
Q 1244 3325 1534 3454 
Q 1825 3584 2144 3584 
Q 2481 3584 2739 3421 
Q 2997 3259 3138 2956 
L 3513 4863 
L 4091 4863 
L 3144 0 
L 2566 0 
L 2675 525 
z
M 891 1350 
Q 891 897 1095 644 
Q 1300 391 1663 391 
Q 1931 391 2161 520 
Q 2391 650 2566 903 
Q 2750 1166 2856 1509 
Q 2963 1853 2963 2188 
Q 2963 2622 2758 2865 
Q 2553 3109 2194 3109 
Q 1922 3109 1687 2981 
Q 1453 2853 1288 2613 
Q 1106 2353 998 2009 
Q 891 1666 891 1350 
z
" transform="scale(0.015625)"/>
      </defs>
      <use xlink:href="#DejaVuSans-Oblique-50" transform="translate(0 0.015625)"/>
      <use xlink:href="#DejaVuSans-Oblique-72" transform="translate(60.302734 0.015625)"/>
      <use xlink:href="#DejaVuSans-Oblique-6f" transform="translate(101.416016 0.015625)"/>
      <use xlink:href="#DejaVuSans-Oblique-76" transform="translate(162.597656 0.015625)"/>
      <use xlink:href="#DejaVuSans-Oblique-69" transform="translate(221.777344 0.015625)"/>
      <use xlink:href="#DejaVuSans-Oblique-64" transform="translate(249.560547 0.015625)"/>
      <use xlink:href="#DejaVuSans-Oblique-65" transform="translate(313.037109 0.015625)"/>
      <use xlink:href="#DejaVuSans-Oblique-72" transform="translate(374.560547 0.015625)"/>
     </g>
    </g>
   </g>
  </g>
  <g id="axes_5">
   <g id="patch_28">
    <path d="M 234.793333 382.52 
L 386.372447 382.52 
L 386.372447 219.88 
L 234.793333 219.88 
z
" style="fill: #ffffff"/>
   </g>
   <g id="matplotlib.axis_9">
    <g id="xtick_17">
     <g id="line2d_62">
      <g>
       <use xlink:href="#m08a70a7f73" x="269.620378" y="382.52" style="stroke: #000000; stroke-width: 0.8"/>
      </g>
     </g>
     <g id="text_26">
      <!-- 25 -->
      <g transform="translate(263.257878 397.118438) scale(0.1 -0.1)">
       <use xlink:href="#DejaVuSans-32"/>
       <use xlink:href="#DejaVuSans-35" x="63.623047"/>
      </g>
     </g>
    </g>
    <g id="xtick_18">
     <g id="line2d_63">
      <g>
       <use xlink:href="#m08a70a7f73" x="307.375237" y="382.52" style="stroke: #000000; stroke-width: 0.8"/>
      </g>
     </g>
     <g id="text_27">
      <!-- 50 -->
      <g transform="translate(301.012737 397.118438) scale(0.1 -0.1)">
       <use xlink:href="#DejaVuSans-35"/>
       <use xlink:href="#DejaVuSans-30" x="63.623047"/>
      </g>
     </g>
    </g>
    <g id="xtick_19">
     <g id="line2d_64">
      <g>
       <use xlink:href="#m08a70a7f73" x="345.130096" y="382.52" style="stroke: #000000; stroke-width: 0.8"/>
      </g>
     </g>
     <g id="text_28">
      <!-- 75 -->
      <g transform="translate(338.767596 397.118438) scale(0.1 -0.1)">
       <use xlink:href="#DejaVuSans-37"/>
       <use xlink:href="#DejaVuSans-35" x="63.623047"/>
      </g>
     </g>
    </g>
    <g id="xtick_20">
     <g id="line2d_65">
      <g>
       <use xlink:href="#m08a70a7f73" x="382.884955" y="382.52" style="stroke: #000000; stroke-width: 0.8"/>
      </g>
     </g>
     <g id="text_29">
      <!-- 100 -->
      <g transform="translate(373.341205 397.118438) scale(0.1 -0.1)">
       <use xlink:href="#DejaVuSans-31"/>
       <use xlink:href="#DejaVuSans-30" x="63.623047"/>
       <use xlink:href="#DejaVuSans-30" x="127.246094"/>
      </g>
     </g>
    </g>
   </g>
   <g id="matplotlib.axis_10">
    <g id="ytick_25">
     <g id="line2d_66">
      <g>
       <use xlink:href="#m2ac5adf866" x="234.793333" y="382.52" style="stroke: #000000; stroke-width: 0.8"/>
      </g>
     </g>
    </g>
    <g id="ytick_26">
     <g id="line2d_67">
      <g>
       <use xlink:href="#m2ac5adf866" x="234.793333" y="349.992" style="stroke: #000000; stroke-width: 0.8"/>
      </g>
     </g>
    </g>
    <g id="ytick_27">
     <g id="line2d_68">
      <g>
       <use xlink:href="#m2ac5adf866" x="234.793333" y="317.464" style="stroke: #000000; stroke-width: 0.8"/>
      </g>
     </g>
    </g>
    <g id="ytick_28">
     <g id="line2d_69">
      <g>
       <use xlink:href="#m2ac5adf866" x="234.793333" y="284.936" style="stroke: #000000; stroke-width: 0.8"/>
      </g>
     </g>
    </g>
    <g id="ytick_29">
     <g id="line2d_70">
      <g>
       <use xlink:href="#m2ac5adf866" x="234.793333" y="252.408" style="stroke: #000000; stroke-width: 0.8"/>
      </g>
     </g>
    </g>
    <g id="ytick_30">
     <g id="line2d_71">
      <g>
       <use xlink:href="#m2ac5adf866" x="234.793333" y="219.88" style="stroke: #000000; stroke-width: 0.8"/>
      </g>
     </g>
    </g>
   </g>
   <g id="line2d_72">
    <path d="M 251.501067 382.52 
L 251.501067 381.949333 
L 251.656617 381.949333 
L 251.656617 381.378667 
L 252.064369 381.378667 
L 252.124777 380.237333 
L 252.328653 380.237333 
L 252.411714 379.096 
L 252.561223 379.096 
L 252.561223 378.525333 
L 254.527496 378.525333 
L 254.529006 377.384 
L 254.834065 377.384 
L 254.834065 376.813333 
L 255.824753 376.813333 
L 255.857977 375.672 
L 255.989364 375.672 
L 256.013527 373.96 
L 256.178138 373.96 
L 256.250628 372.248 
L 256.362382 372.248 
L 256.362382 371.677333 
L 256.489238 371.677333 
L 256.533034 370.536 
L 256.856216 370.536 
L 256.856216 369.965333 
L 256.999684 369.965333 
L 256.999684 369.394667 
L 257.12201 369.394667 
L 257.12201 368.824 
L 257.336458 368.824 
L 257.336458 368.253333 
L 257.720047 368.253333 
L 257.766863 366.541333 
L 257.928454 366.541333 
L 257.928454 365.970667 
L 258.067392 365.970667 
L 258.123269 364.258667 
L 258.248615 364.258667 
L 258.337716 362.546667 
L 258.370941 362.546667 
L 258.380002 361.405333 
L 259.361628 361.405333 
L 259.461301 359.693333 
L 259.521709 359.693333 
L 259.631953 358.552 
L 259.701422 358.552 
L 259.701422 357.981333 
L 259.829788 357.981333 
L 259.91738 355.698667 
L 259.946073 355.698667 
L 260.039705 352.845333 
L 260.059338 352.845333 
L 260.103134 351.133333 
L 260.257173 351.133333 
L 260.257173 350.562667 
L 261.269004 350.562667 
L 261.269004 349.992 
L 262.09357 349.992 
L 262.09357 349.421333 
L 262.357854 349.421333 
L 262.357854 348.850667 
L 262.533036 348.850667 
L 262.628179 347.138667 
L 262.765606 347.138667 
L 262.833565 344.856 
L 263.49654 344.856 
L 263.49654 344.285333 
L 264.097598 344.285333 
L 264.161026 343.144 
L 264.336208 343.144 
L 264.366412 341.432 
L 264.641268 341.432 
L 264.748491 340.290667 
L 264.805879 340.290667 
L 264.805879 339.72 
L 265.337467 339.72 
L 265.337467 339.149333 
L 266.793295 339.149333 
L 266.852192 338.008 
L 267.090803 338.008 
L 267.095333 336.866667 
L 267.401903 336.866667 
L 267.401903 336.296 
L 267.865533 336.296 
L 267.971246 334.584 
L 268.128306 334.584 
L 268.128306 334.013333 
L 268.755037 334.013333 
L 268.755037 333.442667 
L 268.871322 333.442667 
L 268.946832 332.301333 
L 269.075198 332.301333 
L 269.176381 331.16 
L 269.202055 331.16 
L 269.295687 330.018667 
L 269.348543 330.018667 
L 269.348543 329.448 
L 269.614338 329.448 
L 269.614338 328.877333 
L 269.810663 328.877333 
L 269.810663 328.306667 
L 269.972254 328.306667 
L 269.972254 327.736 
L 270.151967 327.736 
L 270.222946 326.594667 
L 270.899513 326.594667 
L 270.943309 325.453333 
L 271.079226 325.453333 
L 271.162287 324.312 
L 271.224205 324.312 
L 271.271021 323.170667 
L 271.435632 323.170667 
L 271.515672 320.888 
L 271.767875 320.888 
L 271.767875 320.317333 
L 272.106158 320.317333 
L 272.210362 318.605333 
L 272.260198 318.605333 
L 272.260198 318.034667 
L 272.646808 318.034667 
L 272.646808 317.464 
L 272.988112 317.464 
L 273.086274 315.752 
L 273.122519 315.752 
L 273.122519 315.181333 
L 273.466843 315.181333 
L 273.466843 314.610667 
L 273.635985 314.610667 
L 273.635985 314.04 
L 274.028636 314.04 
L 274.05884 312.898667 
L 274.166063 312.898667 
L 274.166063 312.328 
L 274.616101 312.328 
L 274.638754 311.186667 
L 274.768631 311.186667 
L 274.768631 310.616 
L 274.91512 310.616 
L 274.91512 310.045333 
L 275.06916 310.045333 
L 275.162792 308.904 
L 275.180914 308.904 
L 275.280587 307.192 
L 275.377239 307.192 
L 275.479932 305.48 
L 275.582626 305.48 
L 275.582626 304.909333 
L 275.703441 304.909333 
L 275.801604 300.914667 
L 275.855971 300.914667 
L 275.855971 300.344 
L 276.133847 300.344 
L 276.167071 299.202667 
L 276.278825 299.202667 
L 276.278825 298.632 
L 276.419273 298.632 
L 276.419273 298.061333 
L 276.651843 298.061333 
L 276.727353 296.92 
L 276.805883 296.92 
L 276.813434 295.778667 
L 276.928209 295.778667 
L 276.928209 295.208 
L 277.061106 295.208 
L 277.061106 294.637333 
L 277.302737 294.637333 
L 277.302737 294.066667 
L 277.47792 294.066667 
L 277.47792 293.496 
L 277.802611 293.496 
L 277.87057 291.784 
L 278.242078 291.784 
L 278.340241 290.642667 
L 279.022848 290.642667 
L 279.104399 288.930667 
L 279.438152 288.930667 
L 279.438152 288.36 
L 279.566518 288.36 
L 279.634477 287.218667 
L 279.770395 287.218667 
L 279.865537 284.936 
L 279.894231 284.936 
L 279.975781 283.224 
L 280.031658 283.224 
L 280.132841 281.512 
L 280.155494 281.512 
L 280.224963 278.658667 
L 280.271779 278.658667 
L 280.345779 276.946667 
L 280.403166 276.946667 
L 280.427329 275.234667 
L 280.558716 275.234667 
L 280.649328 271.810667 
L 280.74749 271.810667 
L 280.74749 271.24 
L 280.996672 271.24 
L 281.094835 269.528 
L 281.717035 269.528 
L 281.717035 268.957333 
L 282.14291 268.957333 
L 282.179155 267.816 
L 282.435888 267.816 
L 282.435888 267.245333 
L 282.549152 267.245333 
L 282.571805 266.104 
L 282.733396 266.104 
L 282.733396 265.533333 
L 282.885926 265.533333 
L 282.899517 264.392 
L 283.064129 264.392 
L 283.064129 263.821333 
L 283.194005 263.821333 
L 283.292168 260.968 
L 283.329923 260.968 
L 283.329923 260.397333 
L 284.305508 260.397333 
L 284.305508 259.826667 
L 284.418773 259.826667 
L 284.506364 258.114667 
L 284.640771 258.114667 
L 284.640771 257.544 
L 284.912606 257.544 
L 284.93677 256.402667 
L 285.347542 256.402667 
L 285.40644 254.690667 
L 285.515174 254.690667 
L 285.515174 254.12 
L 285.645051 254.12 
L 285.645051 253.549333 
L 285.765866 253.549333 
L 285.765866 252.978667 
L 285.928967 252.978667 
L 285.928967 252.408 
L 286.359373 252.408 
L 286.359373 251.837333 
L 286.57382 251.837333 
L 286.57382 251.266667 
L 287.108429 251.266667 
L 287.19451 250.125333 
L 287.309285 250.125333 
L 287.380264 248.413333 
L 287.42406 248.413333 
L 287.461814 247.272 
L 287.561487 247.272 
L 287.561487 246.701333 
L 287.715527 246.701333 
L 287.715527 246.130667 
L 287.945077 246.130667 
L 287.945077 245.56 
L 288.180667 245.56 
L 288.180667 244.989333 
L 288.414747 244.989333 
L 288.414747 244.418667 
L 288.817969 244.418667 
L 288.817969 243.848 
L 289.4447 243.848 
L 289.4447 243.277333 
L 289.754289 243.277333 
L 289.754289 242.706667 
L 290.905058 242.706667 
L 290.909588 241.565333 
L 291.114975 241.565333 
L 291.128566 240.424 
L 291.226729 240.424 
L 291.226729 239.853333 
L 291.448728 239.853333 
L 291.448728 239.282667 
L 292.720311 239.282667 
L 292.720311 238.712 
L 293.523735 238.712 
L 293.575081 237.570667 
L 293.688346 237.570667 
L 293.762345 235.288 
L 293.8741 235.288 
L 293.8741 234.717333 
L 294.076466 234.717333 
L 294.129323 233.576 
L 294.540095 233.576 
L 294.647319 231.293333 
L 295.271029 231.293333 
L 295.271029 230.722667 
L 295.887189 230.722667 
L 295.887189 230.152 
L 296.036698 230.152 
L 296.036698 229.581333 
L 298.335214 229.581333 
L 298.418275 228.44 
L 303.43514 228.44 
L 303.43514 227.869333 
L 303.996932 227.869333 
L 303.996932 227.298667 
L 307.207606 227.298667 
L 307.207606 226.728 
L 308.695147 226.728 
L 308.695147 226.157333 
L 309.18596 226.157333 
L 309.193511 225.016 
L 309.608815 225.016 
L 309.608815 224.445333 
L 310.049791 224.445333 
L 310.049791 223.874667 
L 311.019336 223.874667 
L 311.019336 223.304 
L 311.90582 223.304 
L 311.98435 221.592 
L 312.049289 221.592 
L 312.049289 221.021333 
L 312.810427 221.021333 
L 312.810427 220.450667 
L 326.831071 220.450667 
L 326.831071 219.88 
L 326.831071 219.88 
" clip-path="url(#p716fdff988)" style="fill: none; stroke: #66c2a5; stroke-width: 1.5; stroke-linecap: square"/>
   </g>
   <g id="line2d_73">
    <path d="M 276.027815 382.52 
L 276.027815 219.88 
" clip-path="url(#p716fdff988)" style="fill: none; stroke-dasharray: 5.55,2.4; stroke-dashoffset: 0; stroke: #ff0000; stroke-width: 1.5"/>
   </g>
   <g id="line2d_74">
    <path d="M 275.801604 382.52 
L 275.801604 219.88 
" clip-path="url(#p716fdff988)" style="fill: none; stroke-dasharray: 9.6,2.4,1.5,2.4; stroke-dashoffset: 0; stroke: #008000; stroke-width: 1.5"/>
   </g>
   <g id="line2d_75">
    <path d="M 302.431767 382.52 
L 302.431767 219.88 
" clip-path="url(#p716fdff988)" style="fill: none; stroke-dasharray: 1.5,2.475; stroke-dashoffset: 0; stroke: #0000ff; stroke-width: 1.5"/>
   </g>
   <g id="patch_29">
    <path d="M 234.793333 382.52 
L 234.793333 219.88 
" style="fill: none; stroke: #000000; stroke-width: 0.8; stroke-linejoin: miter; stroke-linecap: square"/>
   </g>
   <g id="patch_30">
    <path d="M 386.372447 382.52 
L 386.372447 219.88 
" style="fill: none; stroke: #000000; stroke-width: 0.8; stroke-linejoin: miter; stroke-linecap: square"/>
   </g>
   <g id="patch_31">
    <path d="M 234.793333 382.52 
L 386.372447 382.52 
" style="fill: none; stroke: #000000; stroke-width: 0.8; stroke-linejoin: miter; stroke-linecap: square"/>
   </g>
   <g id="patch_32">
    <path d="M 234.793333 219.88 
L 386.372447 219.88 
" style="fill: none; stroke: #000000; stroke-width: 0.8; stroke-linejoin: miter; stroke-linecap: square"/>
   </g>
   <g id="text_30">
    <g id="patch_33">
     <path d="M 344.477668 374.12725 
L 377.597668 374.12725 
L 377.597668 358.38475 
L 344.477668 358.38475 
z
" style="fill: #ffffff; opacity: 0.2; stroke: #000000; stroke-linejoin: miter"/>
    </g>
    <!-- $n = 58$ -->
    <g transform="translate(348.477668 368.4635) scale(0.08 -0.08)">
     <use xlink:href="#DejaVuSans-Oblique-6e" transform="translate(0 0.78125)"/>
     <use xlink:href="#DejaVuSans-3d" transform="translate(82.861328 0.78125)"/>
     <use xlink:href="#DejaVuSans-35" transform="translate(186.132812 0.78125)"/>
     <use xlink:href="#DejaVuSans-38" transform="translate(249.755859 0.78125)"/>
    </g>
   </g>
  </g>
  <g id="axes_6">
   <g id="patch_34">
    <path d="M 407.146667 382.52 
L 558.72578 382.52 
L 558.72578 219.88 
L 407.146667 219.88 
z
" style="fill: #ffffff"/>
   </g>
   <g id="matplotlib.axis_11">
    <g id="xtick_21">
     <g id="line2d_76">
      <g>
       <use xlink:href="#m08a70a7f73" x="441.973712" y="382.52" style="stroke: #000000; stroke-width: 0.8"/>
      </g>
     </g>
     <g id="text_31">
      <!-- 25 -->
      <g transform="translate(435.611212 397.118438) scale(0.1 -0.1)">
       <use xlink:href="#DejaVuSans-32"/>
       <use xlink:href="#DejaVuSans-35" x="63.623047"/>
      </g>
     </g>
    </g>
    <g id="xtick_22">
     <g id="line2d_77">
      <g>
       <use xlink:href="#m08a70a7f73" x="479.728571" y="382.52" style="stroke: #000000; stroke-width: 0.8"/>
      </g>
     </g>
     <g id="text_32">
      <!-- 50 -->
      <g transform="translate(473.366071 397.118438) scale(0.1 -0.1)">
       <use xlink:href="#DejaVuSans-35"/>
       <use xlink:href="#DejaVuSans-30" x="63.623047"/>
      </g>
     </g>
    </g>
    <g id="xtick_23">
     <g id="line2d_78">
      <g>
       <use xlink:href="#m08a70a7f73" x="517.483429" y="382.52" style="stroke: #000000; stroke-width: 0.8"/>
      </g>
     </g>
     <g id="text_33">
      <!-- 75 -->
      <g transform="translate(511.120929 397.118438) scale(0.1 -0.1)">
       <use xlink:href="#DejaVuSans-37"/>
       <use xlink:href="#DejaVuSans-35" x="63.623047"/>
      </g>
     </g>
    </g>
    <g id="xtick_24">
     <g id="line2d_79">
      <g>
       <use xlink:href="#m08a70a7f73" x="555.238288" y="382.52" style="stroke: #000000; stroke-width: 0.8"/>
      </g>
     </g>
     <g id="text_34">
      <!-- 100 -->
      <g transform="translate(545.694538 397.118438) scale(0.1 -0.1)">
       <use xlink:href="#DejaVuSans-31"/>
       <use xlink:href="#DejaVuSans-30" x="63.623047"/>
       <use xlink:href="#DejaVuSans-30" x="127.246094"/>
      </g>
     </g>
    </g>
   </g>
   <g id="matplotlib.axis_12">
    <g id="ytick_31">
     <g id="line2d_80">
      <g>
       <use xlink:href="#m2ac5adf866" x="407.146667" y="382.52" style="stroke: #000000; stroke-width: 0.8"/>
      </g>
     </g>
    </g>
    <g id="ytick_32">
     <g id="line2d_81">
      <g>
       <use xlink:href="#m2ac5adf866" x="407.146667" y="349.992" style="stroke: #000000; stroke-width: 0.8"/>
      </g>
     </g>
    </g>
    <g id="ytick_33">
     <g id="line2d_82">
      <g>
       <use xlink:href="#m2ac5adf866" x="407.146667" y="317.464" style="stroke: #000000; stroke-width: 0.8"/>
      </g>
     </g>
    </g>
    <g id="ytick_34">
     <g id="line2d_83">
      <g>
       <use xlink:href="#m2ac5adf866" x="407.146667" y="284.936" style="stroke: #000000; stroke-width: 0.8"/>
      </g>
     </g>
    </g>
    <g id="ytick_35">
     <g id="line2d_84">
      <g>
       <use xlink:href="#m2ac5adf866" x="407.146667" y="252.408" style="stroke: #000000; stroke-width: 0.8"/>
      </g>
     </g>
    </g>
    <g id="ytick_36">
     <g id="line2d_85">
      <g>
       <use xlink:href="#m2ac5adf866" x="407.146667" y="219.88" style="stroke: #000000; stroke-width: 0.8"/>
      </g>
     </g>
    </g>
   </g>
   <g id="line2d_86">
    <path d="M 419.375163 382.52 
L 419.375163 382.176152 
L 421.540782 382.176152 
L 421.540782 381.832304 
L 421.919841 381.832304 
L 421.919841 381.488457 
L 422.135799 381.488457 
L 422.14637 380.800761 
L 423.176323 380.800761 
L 423.176323 380.456913 
L 423.398321 380.456913 
L 423.398321 380.113066 
L 423.952562 380.113066 
L 424.026562 379.081522 
L 424.334642 379.081522 
L 424.334642 378.737674 
L 425.367615 378.737674 
L 425.40688 377.706131 
L 425.71949 377.706131 
L 425.767816 377.018436 
L 425.995855 377.018436 
L 425.995855 376.674588 
L 426.202752 376.674588 
L 426.202752 376.33074 
L 426.717728 376.33074 
L 426.717728 375.986892 
L 426.840054 375.986892 
L 426.840054 375.643044 
L 427.259888 375.643044 
L 427.259888 375.299197 
L 427.963639 375.299197 
L 427.963639 374.955349 
L 428.614532 374.955349 
L 428.614532 374.611501 
L 431.133537 374.611501 
L 431.133537 374.267653 
L 431.571493 374.267653 
L 431.571493 373.923805 
L 431.790471 373.923805 
L 431.790471 373.579958 
L 432.116673 373.579958 
L 432.116673 373.23611 
L 433.068096 373.23611 
L 433.068096 372.892262 
L 434.279271 372.892262 
L 434.279271 372.548414 
L 434.434821 372.548414 
L 434.434821 372.204567 
L 434.569229 372.204567 
L 434.569229 371.860719 
L 434.720248 371.860719 
L 434.721758 371.173023 
L 435.285061 371.173023 
L 435.285061 370.829175 
L 435.399836 370.829175 
L 435.414938 369.797632 
L 435.621834 369.797632 
L 435.655059 368.422241 
L 435.790976 368.422241 
L 435.840812 367.734545 
L 436.28481 367.734545 
L 436.390523 367.04685 
L 436.573257 367.04685 
L 436.573257 366.703002 
L 436.778643 366.703002 
L 436.778643 366.359154 
L 436.98856 366.359154 
L 436.991581 365.671459 
L 437.183375 365.671459 
L 437.183375 365.327611 
L 437.302681 365.327611 
L 437.302681 364.983763 
L 437.428027 364.983763 
L 437.444639 364.296068 
L 437.668148 364.296068 
L 437.760269 362.920677 
L 437.84182 362.920677 
L 437.84182 362.576829 
L 437.980758 362.576829 
L 437.980758 362.232981 
L 438.131777 362.232981 
L 438.181614 361.545285 
L 438.380959 361.545285 
L 438.488183 360.169894 
L 438.612019 360.169894 
L 438.69659 359.482199 
L 439.537768 359.482199 
L 439.590625 358.794503 
L 439.839807 358.794503 
L 439.885113 358.106808 
L 440.051234 358.106808 
L 440.051234 357.76296 
L 441.307716 357.76296 
L 441.312247 357.075264 
L 442.484157 357.075264 
L 442.484157 356.731416 
L 442.873788 356.731416 
L 442.873788 356.387569 
L 443.647007 356.387569 
L 443.647007 356.043721 
L 443.876557 356.043721 
L 443.876557 355.699873 
L 444.249575 355.699873 
L 444.309982 355.012178 
L 444.480634 355.012178 
L 444.569736 354.324482 
L 444.880836 354.324482 
L 444.924631 353.636786 
L 445.913809 353.636786 
L 445.913809 353.292939 
L 446.363847 353.292939 
L 446.437846 351.917548 
L 446.478621 351.917548 
L 446.581315 351.229852 
L 446.634171 351.229852 
L 446.634171 350.542156 
L 446.786701 350.542156 
L 446.786701 350.198309 
L 447.09025 350.198309 
L 447.100822 349.510613 
L 447.395309 349.510613 
L 447.446656 348.822918 
L 447.55841 348.822918 
L 447.55841 348.47907 
L 447.715471 348.47907 
L 447.824205 347.791374 
L 447.855919 347.791374 
L 447.861959 347.103679 
L 448.2531 347.103679 
L 448.301426 346.072135 
L 448.384487 346.072135 
L 448.48567 345.040592 
L 448.500772 345.040592 
L 448.586853 343.321353 
L 448.638199 343.321353 
L 448.638199 342.977505 
L 448.817913 342.977505 
L 448.817913 342.633658 
L 449.005177 342.633658 
L 449.005177 342.28981 
L 449.139584 342.28981 
L 449.221134 340.570571 
L 449.26191 340.570571 
L 449.357052 338.507484 
L 449.402358 338.507484 
L 449.49448 337.132093 
L 449.547336 337.132093 
L 449.586601 336.444397 
L 449.698356 336.444397 
L 449.772355 335.756702 
L 449.862967 335.756702 
L 449.923375 334.725159 
L 449.997374 334.725159 
L 449.998885 334.037463 
L 450.180108 334.037463 
L 450.242026 333.349767 
L 450.35378 333.349767 
L 450.414188 332.318224 
L 450.503289 332.318224 
L 450.596921 331.286681 
L 450.669411 331.286681 
L 450.669411 330.942833 
L 450.838553 330.942833 
L 450.938225 328.879746 
L 450.995613 328.879746 
L 451.095286 328.192051 
L 451.155693 328.192051 
L 451.240264 327.160507 
L 451.271978 327.160507 
L 451.377692 325.785116 
L 451.435079 325.785116 
L 451.484916 325.097421 
L 451.569487 325.097421 
L 451.635935 324.409725 
L 451.740139 324.409725 
L 451.815648 323.378182 
L 451.886627 323.378182 
L 451.937974 322.346638 
L 452.06483 322.346638 
L 452.087483 321.658943 
L 452.185646 321.658943 
L 452.227931 320.971247 
L 452.298911 320.971247 
L 452.36989 320.283552 
L 452.582827 320.283552 
L 452.582827 319.939704 
L 452.828989 319.939704 
L 452.881846 316.845074 
L 452.957355 316.845074 
L 452.957355 316.501226 
L 453.420985 316.501226 
L 453.420985 316.157378 
L 453.556902 316.157378 
L 453.581066 315.469683 
L 453.872533 315.469683 
L 453.919349 314.094292 
L 454.5491 314.094292 
L 454.5491 313.750444 
L 455.056525 313.750444 
L 455.062566 313.062748 
L 455.583583 313.062748 
L 455.624358 312.375053 
L 455.843337 312.375053 
L 455.843337 312.031205 
L 456.199743 312.031205 
L 456.199743 311.687357 
L 456.636189 311.687357 
L 456.636189 311.34351 
L 457.009207 311.34351 
L 457.072635 310.655814 
L 457.305205 310.655814 
L 457.305205 310.311966 
L 457.447163 310.311966 
L 457.50304 309.280423 
L 457.96818 309.280423 
L 457.96818 308.936575 
L 458.599441 308.936575 
L 458.613033 308.248879 
L 459.028337 308.248879 
L 459.028337 307.905032 
L 459.150662 307.905032 
L 459.150662 307.561184 
L 459.298661 307.561184 
L 459.298661 307.217336 
L 459.528211 307.217336 
L 459.614292 306.185793 
L 459.759271 306.185793 
L 459.810617 305.498097 
L 459.960126 305.498097 
L 460.043187 304.466554 
L 460.13984 304.466554 
L 460.13984 304.122706 
L 460.286328 304.122706 
L 460.384491 303.435011 
L 460.466042 303.435011 
L 460.508327 302.747315 
L 460.626122 302.747315 
L 460.697101 302.059619 
L 460.819427 302.059619 
L 460.929671 301.028076 
L 461.141098 301.028076 
L 461.141098 300.684228 
L 461.292118 300.684228 
L 461.30722 299.308837 
L 461.536769 299.308837 
L 461.625871 298.621142 
L 461.678728 298.621142 
L 461.788972 297.589598 
L 461.865992 297.589598 
L 461.947542 296.901903 
L 462.091011 296.901903 
L 462.110643 296.214207 
L 462.207296 296.214207 
L 462.272234 295.182664 
L 462.326601 295.182664 
L 462.326601 294.838816 
L 462.604477 294.838816 
L 462.664885 293.807273 
L 462.814394 293.807273 
L 462.921618 292.775729 
L 463.007699 292.775729 
L 463.110392 291.744186 
L 463.128514 291.744186 
L 463.226677 289.681099 
L 463.293125 289.681099 
L 463.401859 287.96186 
L 463.454716 287.96186 
L 463.56043 287.274165 
L 463.569491 287.274165 
L 463.617817 286.586469 
L 463.693327 286.586469 
L 463.776388 285.898774 
L 463.847367 285.898774 
L 463.847367 285.554926 
L 464.117692 285.554926 
L 464.164508 284.179535 
L 464.317037 284.179535 
L 464.372914 282.804144 
L 464.511852 282.804144 
L 464.611525 281.428753 
L 464.64928 281.428753 
L 464.690055 280.741057 
L 464.812381 280.741057 
L 464.853156 279.709514 
L 464.9634 279.709514 
L 465.060053 279.021818 
L 465.078175 279.021818 
L 465.146134 277.990275 
L 465.200501 277.990275 
L 465.200501 277.646427 
L 465.322827 277.646427 
L 465.395316 276.614884 
L 465.635437 276.614884 
L 465.635437 276.271036 
L 465.883109 276.271036 
L 465.883109 275.927188 
L 466.20478 275.927188 
L 466.233474 275.239493 
L 466.354289 275.239493 
L 466.354289 274.895645 
L 466.617063 274.895645 
L 466.617063 274.551797 
L 467.091264 274.551797 
L 467.172815 272.48871 
L 467.769341 272.48871 
L 467.769341 272.144863 
L 467.899218 272.144863 
L 467.98832 270.769471 
L 468.030605 270.769471 
L 468.036646 270.081776 
L 468.240522 270.081776 
L 468.308481 269.39408 
L 468.405133 269.39408 
L 468.405133 269.050233 
L 468.595418 269.050233 
L 468.595418 268.706385 
L 468.856681 268.706385 
L 468.856681 268.362537 
L 469.054517 268.362537 
L 469.054517 268.018689 
L 469.23725 268.018689 
L 469.23725 267.674841 
L 469.394311 267.674841 
L 469.394311 267.330994 
L 469.54533 267.330994 
L 469.54533 266.987146 
L 469.685778 266.987146 
L 469.756757 264.924059 
L 469.824716 264.924059 
L 469.824716 264.580211 
L 470.01047 264.580211 
L 470.042184 263.548668 
L 470.270223 263.548668 
L 470.270223 263.20482 
L 470.440875 263.20482 
L 470.440875 262.860973 
L 470.86524 262.860973 
L 470.86524 262.517125 
L 471.156707 262.517125 
L 471.156707 262.173277 
L 471.378706 262.173277 
L 471.378706 261.829429 
L 471.807601 261.829429 
L 471.807601 261.485581 
L 472.096048 261.485581 
L 472.096048 261.141734 
L 473.165266 261.141734 
L 473.206041 260.454038 
L 473.323836 260.454038 
L 473.323836 260.11019 
L 473.521672 260.11019 
L 473.616814 259.078647 
L 473.689303 259.078647 
L 473.696854 258.390951 
L 473.862976 258.390951 
L 473.89469 257.703256 
L 474.023056 257.703256 
L 474.023056 257.359408 
L 474.430809 257.359408 
L 474.430809 257.01556 
L 474.888398 257.01556 
L 474.888398 256.671712 
L 475.21762 256.671712 
L 475.231212 255.984017 
L 475.37166 255.984017 
L 475.418476 255.296321 
L 475.652556 255.296321 
L 475.740147 254.608626 
L 475.817167 254.608626 
L 475.817167 254.264778 
L 475.931942 254.264778 
L 476.024064 253.577082 
L 476.175083 253.577082 
L 476.175083 253.233235 
L 476.30798 253.233235 
L 476.311001 252.545539 
L 476.712712 252.545539 
L 476.712712 252.201691 
L 476.84863 252.201691 
L 476.84863 251.857844 
L 476.999649 251.857844 
L 476.999649 251.513996 
L 477.381729 251.513996 
L 477.46932 250.138605 
L 477.70642 250.138605 
L 477.713971 249.450909 
L 478.120214 249.450909 
L 478.180621 248.419366 
L 478.301437 248.419366 
L 478.40715 247.387822 
L 478.416212 247.387822 
L 478.472089 246.700127 
L 478.858699 246.700127 
L 478.858699 246.356279 
L 479.317798 246.356279 
L 479.317798 246.012431 
L 479.506572 246.012431 
L 479.506572 245.668584 
L 479.666653 245.668584 
L 479.745183 244.980888 
L 479.846366 244.980888 
L 479.949059 244.293192 
L 480.062324 244.293192 
L 480.062324 243.949345 
L 480.547096 243.949345 
L 480.562198 243.261649 
L 480.926155 243.261649 
L 480.926155 242.917801 
L 481.04244 242.917801 
L 481.04244 242.573953 
L 481.20101 242.573953 
L 481.20101 242.230106 
L 481.377703 242.230106 
L 481.377703 241.886258 
L 481.634436 241.886258 
L 481.678231 241.198562 
L 481.74619 241.198562 
L 481.832271 240.510867 
L 482.12978 240.510867 
L 482.12978 240.167019 
L 482.501287 240.167019 
L 482.581328 239.135476 
L 482.922632 239.135476 
L 482.98606 238.103932 
L 483.057039 238.103932 
L 483.1401 237.416237 
L 483.180875 237.416237 
L 483.192956 236.728541 
L 483.555403 236.728541 
L 483.555403 236.384693 
L 483.727565 236.384693 
L 483.727565 236.040846 
L 484.479642 236.040846 
L 484.54156 235.35315 
L 485.020292 235.35315 
L 485.020292 235.009302 
L 485.233229 235.009302 
L 485.233229 234.665455 
L 486.086489 234.665455 
L 486.148407 233.977759 
L 487.771866 233.977759 
L 487.771866 233.633911 
L 488.099578 233.633911 
L 488.099578 233.290063 
L 490.381482 233.290063 
L 490.381482 232.946216 
L 490.644255 232.946216 
L 490.644255 232.602368 
L 491.142619 232.602368 
L 491.142619 232.25852 
L 492.85518 232.25852 
L 492.85518 231.914672 
L 493.87003 231.914672 
L 493.87003 231.570825 
L 494.051254 231.570825 
L 494.092029 230.883129 
L 495.946548 230.883129 
L 495.946548 230.539281 
L 496.058302 230.539281 
L 496.058302 230.195433 
L 496.174587 230.195433 
L 496.174587 229.851586 
L 496.339198 229.851586 
L 496.339198 229.507738 
L 496.807358 229.507738 
L 496.807358 229.16389 
L 497.05201 229.16389 
L 497.157724 227.788499 
L 499.116446 227.788499 
L 499.116446 227.444651 
L 499.341465 227.444651 
L 499.367138 226.756956 
L 501.505573 226.756956 
L 501.505573 226.413108 
L 502.618586 226.413108 
L 502.663892 225.725412 
L 503.070134 225.725412 
L 503.162256 224.693869 
L 503.4205 224.693869 
L 503.4205 224.350021 
L 503.665151 224.350021 
L 503.665151 224.006173 
L 503.844864 224.006173 
L 503.844864 223.662326 
L 504.368902 223.662326 
L 504.368902 223.318478 
L 504.547105 223.318478 
L 504.547105 222.97463 
L 504.754001 222.97463 
L 504.829511 222.286934 
L 509.09732 222.286934 
L 509.09732 221.943087 
L 545.203047 221.943087 
L 545.30725 221.255391 
L 546.033654 221.255391 
L 546.033654 220.911543 
L 551.488476 220.911543 
L 551.563985 220.223848 
L 551.83582 220.223848 
L 551.83582 219.88 
L 551.83582 219.88 
" clip-path="url(#p7146dd9aa5)" style="fill: none; stroke: #66c2a5; stroke-width: 1.5; stroke-linecap: square"/>
   </g>
   <g id="line2d_87">
    <path d="M 461.37946 382.52 
L 461.37946 219.88 
" clip-path="url(#p7146dd9aa5)" style="fill: none; stroke-dasharray: 5.55,2.4; stroke-dashoffset: 0; stroke: #ff0000; stroke-width: 1.5"/>
   </g>
   <g id="line2d_88">
    <path d="M 460.929671 382.52 
L 460.929671 219.88 
" clip-path="url(#p7146dd9aa5)" style="fill: none; stroke-dasharray: 9.6,2.4,1.5,2.4; stroke-dashoffset: 0; stroke: #008000; stroke-width: 1.5"/>
   </g>
   <g id="line2d_89">
    <path d="M 497.148662 382.52 
L 497.148662 219.88 
" clip-path="url(#p7146dd9aa5)" style="fill: none; stroke-dasharray: 1.5,2.475; stroke-dashoffset: 0; stroke: #0000ff; stroke-width: 1.5"/>
   </g>
   <g id="patch_35">
    <path d="M 407.146667 382.52 
L 407.146667 219.88 
" style="fill: none; stroke: #000000; stroke-width: 0.8; stroke-linejoin: miter; stroke-linecap: square"/>
   </g>
   <g id="patch_36">
    <path d="M 558.72578 382.52 
L 558.72578 219.88 
" style="fill: none; stroke: #000000; stroke-width: 0.8; stroke-linejoin: miter; stroke-linecap: square"/>
   </g>
   <g id="patch_37">
    <path d="M 407.146667 382.52 
L 558.72578 382.52 
" style="fill: none; stroke: #000000; stroke-width: 0.8; stroke-linejoin: miter; stroke-linecap: square"/>
   </g>
   <g id="patch_38">
    <path d="M 407.146667 219.88 
L 558.72578 219.88 
" style="fill: none; stroke: #000000; stroke-width: 0.8; stroke-linejoin: miter; stroke-linecap: square"/>
   </g>
   <g id="text_35">
    <g id="patch_39">
     <path d="M 516.831002 374.12725 
L 555.071002 374.12725 
L 555.071002 358.38475 
L 516.831002 358.38475 
z
" style="fill: #ffffff; opacity: 0.2; stroke: #000000; stroke-linejoin: miter"/>
    </g>
    <!-- $n = 100$ -->
    <g transform="translate(520.831002 368.4635) scale(0.08 -0.08)">
     <use xlink:href="#DejaVuSans-Oblique-6e" transform="translate(0 0.78125)"/>
     <use xlink:href="#DejaVuSans-3d" transform="translate(82.861328 0.78125)"/>
     <use xlink:href="#DejaVuSans-31" transform="translate(186.132812 0.78125)"/>
     <use xlink:href="#DejaVuSans-30" transform="translate(249.755859 0.78125)"/>
     <use xlink:href="#DejaVuSans-30" transform="translate(313.378906 0.78125)"/>
    </g>
   </g>
  </g>
  <g id="text_36">
   <!-- Latency (s) -->
   <g transform="translate(257.354688 414.72) scale(0.11 -0.11)">
    <defs>
     <path id="DejaVuSans-4c" d="M 628 4666 
L 1259 4666 
L 1259 531 
L 3531 531 
L 3531 0 
L 628 0 
L 628 4666 
z
" transform="scale(0.015625)"/>
     <path id="DejaVuSans-79" d="M 2059 -325 
Q 1816 -950 1584 -1140 
Q 1353 -1331 966 -1331 
L 506 -1331 
L 506 -850 
L 844 -850 
Q 1081 -850 1212 -737 
Q 1344 -625 1503 -206 
L 1606 56 
L 191 3500 
L 800 3500 
L 1894 763 
L 2988 3500 
L 3597 3500 
L 2059 -325 
z
" transform="scale(0.015625)"/>
     <path id="DejaVuSans-28" d="M 1984 4856 
Q 1566 4138 1362 3434 
Q 1159 2731 1159 2009 
Q 1159 1288 1364 580 
Q 1569 -128 1984 -844 
L 1484 -844 
Q 1016 -109 783 600 
Q 550 1309 550 2009 
Q 550 2706 781 3412 
Q 1013 4119 1484 4856 
L 1984 4856 
z
" transform="scale(0.015625)"/>
     <path id="DejaVuSans-73" d="M 2834 3397 
L 2834 2853 
Q 2591 2978 2328 3040 
Q 2066 3103 1784 3103 
Q 1356 3103 1142 2972 
Q 928 2841 928 2578 
Q 928 2378 1081 2264 
Q 1234 2150 1697 2047 
L 1894 2003 
Q 2506 1872 2764 1633 
Q 3022 1394 3022 966 
Q 3022 478 2636 193 
Q 2250 -91 1575 -91 
Q 1294 -91 989 -36 
Q 684 19 347 128 
L 347 722 
Q 666 556 975 473 
Q 1284 391 1588 391 
Q 1994 391 2212 530 
Q 2431 669 2431 922 
Q 2431 1156 2273 1281 
Q 2116 1406 1581 1522 
L 1381 1569 
Q 847 1681 609 1914 
Q 372 2147 372 2553 
Q 372 3047 722 3315 
Q 1072 3584 1716 3584 
Q 2034 3584 2315 3537 
Q 2597 3491 2834 3397 
z
" transform="scale(0.015625)"/>
     <path id="DejaVuSans-29" d="M 513 4856 
L 1013 4856 
Q 1481 4119 1714 3412 
Q 1947 2706 1947 2009 
Q 1947 1309 1714 600 
Q 1481 -109 1013 -844 
L 513 -844 
Q 928 -128 1133 580 
Q 1338 1288 1338 2009 
Q 1338 2731 1133 3434 
Q 928 4138 513 4856 
z
" transform="scale(0.015625)"/>
    </defs>
    <use xlink:href="#DejaVuSans-4c"/>
    <use xlink:href="#DejaVuSans-61" x="55.712891"/>
    <use xlink:href="#DejaVuSans-74" x="116.992188"/>
    <use xlink:href="#DejaVuSans-65" x="156.201172"/>
    <use xlink:href="#DejaVuSans-6e" x="217.724609"/>
    <use xlink:href="#DejaVuSans-63" x="281.103516"/>
    <use xlink:href="#DejaVuSans-79" x="336.083984"/>
    <use xlink:href="#DejaVuSans-20" x="395.263672"/>
    <use xlink:href="#DejaVuSans-28" x="427.050781"/>
    <use xlink:href="#DejaVuSans-73" x="466.064453"/>
    <use xlink:href="#DejaVuSans-29" x="518.164062"/>
   </g>
  </g>
  <g id="text_37">
   <!-- CDF -->
   <g transform="translate(31.398281 227.238906) rotate(-90) scale(0.11 -0.11)">
    <defs>
     <path id="DejaVuSans-43" d="M 4122 4306 
L 4122 3641 
Q 3803 3938 3442 4084 
Q 3081 4231 2675 4231 
Q 1875 4231 1450 3742 
Q 1025 3253 1025 2328 
Q 1025 1406 1450 917 
Q 1875 428 2675 428 
Q 3081 428 3442 575 
Q 3803 722 4122 1019 
L 4122 359 
Q 3791 134 3420 21 
Q 3050 -91 2638 -91 
Q 1578 -91 968 557 
Q 359 1206 359 2328 
Q 359 3453 968 4101 
Q 1578 4750 2638 4750 
Q 3056 4750 3426 4639 
Q 3797 4528 4122 4306 
z
" transform="scale(0.015625)"/>
     <path id="DejaVuSans-44" d="M 1259 4147 
L 1259 519 
L 2022 519 
Q 2988 519 3436 956 
Q 3884 1394 3884 2338 
Q 3884 3275 3436 3711 
Q 2988 4147 2022 4147 
L 1259 4147 
z
M 628 4666 
L 1925 4666 
Q 3281 4666 3915 4102 
Q 4550 3538 4550 2338 
Q 4550 1131 3912 565 
Q 3275 0 1925 0 
L 628 0 
L 628 4666 
z
" transform="scale(0.015625)"/>
     <path id="DejaVuSans-46" d="M 628 4666 
L 3309 4666 
L 3309 4134 
L 1259 4134 
L 1259 2759 
L 3109 2759 
L 3109 2228 
L 1259 2228 
L 1259 0 
L 628 0 
L 628 4666 
z
" transform="scale(0.015625)"/>
    </defs>
    <use xlink:href="#DejaVuSans-43"/>
    <use xlink:href="#DejaVuSans-44" x="69.824219"/>
    <use xlink:href="#DejaVuSans-46" x="146.826172"/>
   </g>
  </g>
 </g>
 <defs>
  <clipPath id="pe3803fd8f5">
   <rect x="62.44" y="36.36" width="151.579113" height="162.64"/>
  </clipPath>
  <clipPath id="p3a4020de94">
   <rect x="234.793333" y="36.36" width="151.579113" height="162.64"/>
  </clipPath>
  <clipPath id="pb19806eb17">
   <rect x="407.146667" y="36.36" width="151.579113" height="162.64"/>
  </clipPath>
  <clipPath id="pe79d5781fb">
   <rect x="62.44" y="219.88" width="151.579113" height="162.64"/>
  </clipPath>
  <clipPath id="p716fdff988">
   <rect x="234.793333" y="219.88" width="151.579113" height="162.64"/>
  </clipPath>
  <clipPath id="p7146dd9aa5">
   <rect x="407.146667" y="219.88" width="151.579113" height="162.64"/>
  </clipPath>
 </defs>
</svg>
