<?xml version="1.0" encoding="utf-8" standalone="no"?>
<!DOCTYPE svg PUBLIC "-//W3C//DTD SVG 1.1//EN"
  "http://www.w3.org/Graphics/SVG/1.1/DTD/svg11.dtd">
<svg xmlns:xlink="http://www.w3.org/1999/xlink" width="1080pt" height="360pt" viewBox="0 0 1080 360" xmlns="http://www.w3.org/2000/svg" version="1.1">
 <metadata>
  <rdf:RDF xmlns:dc="http://purl.org/dc/elements/1.1/" xmlns:cc="http://creativecommons.org/ns#" xmlns:rdf="http://www.w3.org/1999/02/22-rdf-syntax-ns#">
   <cc:Work>
    <dc:type rdf:resource="http://purl.org/dc/dcmitype/StillImage"/>
    <dc:date>2025-02-16T16:01:31.373373</dc:date>
    <dc:format>image/svg+xml</dc:format>
    <dc:creator>
     <cc:Agent>
      <dc:title>Matplotlib v3.7.2, https://matplotlib.org/</dc:title>
     </cc:Agent>
    </dc:creator>
   </cc:Work>
  </rdf:RDF>
 </metadata>
 <defs>
  <style type="text/css">*{stroke-linejoin: round; stroke-linecap: butt}</style>
 </defs>
 <g id="figure_1">
  <g id="patch_1">
   <path d="M 0 360 
L 1080 360 
L 1080 0 
L 0 0 
z
" style="fill: #ffffff"/>
  </g>
  <g id="axes_1">
   <g id="patch_2">
    <path d="M 54.11 318.04 
L 272.250559 318.04 
L 272.250559 10.8 
L 54.11 10.8 
z
" style="fill: #ffffff"/>
   </g>
   <g id="patch_3">
    <path d="M 64.02548 318.04 
L 70.6358 318.04 
L 70.6358 314.66698 
L 64.02548 314.66698 
z
" clip-path="url(#p102a8f906c)" style="fill: #0000ff; opacity: 0.7"/>
   </g>
   <g id="patch_4">
    <path d="M 70.6358 318.04 
L 77.24612 318.04 
L 77.24612 226.125193 
L 70.6358 226.125193 
z
" clip-path="url(#p102a8f906c)" style="fill: #0000ff; opacity: 0.7"/>
   </g>
   <g id="patch_5">
    <path d="M 77.24612 318.04 
L 83.85644 318.04 
L 83.85644 25.430476 
L 77.24612 25.430476 
z
" clip-path="url(#p102a8f906c)" style="fill: #0000ff; opacity: 0.7"/>
   </g>
   <g id="patch_6">
    <path d="M 83.85644 318.04 
L 90.46676 318.04 
L 90.46676 36.673878 
L 83.85644 36.673878 
z
" clip-path="url(#p102a8f906c)" style="fill: #0000ff; opacity: 0.7"/>
   </g>
   <g id="patch_7">
    <path d="M 90.46676 318.04 
L 97.07708 318.04 
L 97.07708 95.701736 
L 90.46676 95.701736 
z
" clip-path="url(#p102a8f906c)" style="fill: #0000ff; opacity: 0.7"/>
   </g>
   <g id="patch_8">
    <path d="M 97.07708 318.04 
L 103.6874 318.04 
L 103.6874 130.275195 
L 97.07708 130.275195 
z
" clip-path="url(#p102a8f906c)" style="fill: #0000ff; opacity: 0.7"/>
   </g>
   <g id="patch_9">
    <path d="M 103.6874 318.04 
L 110.29772 318.04 
L 110.29772 109.193817 
L 103.6874 109.193817 
z
" clip-path="url(#p102a8f906c)" style="fill: #0000ff; opacity: 0.7"/>
   </g>
   <g id="patch_10">
    <path d="M 110.29772 318.04 
L 116.90804 318.04 
L 116.90804 243.552465 
L 110.29772 243.552465 
z
" clip-path="url(#p102a8f906c)" style="fill: #0000ff; opacity: 0.7"/>
   </g>
   <g id="patch_11">
    <path d="M 116.90804 318.04 
L 123.51836 318.04 
L 123.51836 265.758183 
L 116.90804 265.758183 
z
" clip-path="url(#p102a8f906c)" style="fill: #0000ff; opacity: 0.7"/>
   </g>
   <g id="patch_12">
    <path d="M 123.51836 318.04 
L 130.12868 318.04 
L 130.12868 255.358037 
L 123.51836 255.358037 
z
" clip-path="url(#p102a8f906c)" style="fill: #0000ff; opacity: 0.7"/>
   </g>
   <g id="patch_13">
    <path d="M 130.12868 318.04 
L 136.739 318.04 
L 136.739 248.330911 
L 130.12868 248.330911 
z
" clip-path="url(#p102a8f906c)" style="fill: #0000ff; opacity: 0.7"/>
   </g>
   <g id="patch_14">
    <path d="M 136.739 318.04 
L 143.34932 318.04 
L 143.34932 298.082962 
L 136.739 298.082962 
z
" clip-path="url(#p102a8f906c)" style="fill: #0000ff; opacity: 0.7"/>
   </g>
   <g id="patch_15">
    <path d="M 143.34932 318.04 
L 149.95964 318.04 
L 149.95964 315.79132 
L 143.34932 315.79132 
z
" clip-path="url(#p102a8f906c)" style="fill: #0000ff; opacity: 0.7"/>
   </g>
   <g id="patch_16">
    <path d="M 149.95964 318.04 
L 156.569959 318.04 
L 156.569959 303.704663 
L 149.95964 303.704663 
z
" clip-path="url(#p102a8f906c)" style="fill: #0000ff; opacity: 0.7"/>
   </g>
   <g id="patch_17">
    <path d="M 156.569959 318.04 
L 163.180279 318.04 
L 163.180279 315.79132 
L 156.569959 315.79132 
z
" clip-path="url(#p102a8f906c)" style="fill: #0000ff; opacity: 0.7"/>
   </g>
   <g id="patch_18">
    <path d="M 163.180279 318.04 
L 169.790599 318.04 
L 169.790599 306.515513 
L 163.180279 306.515513 
z
" clip-path="url(#p102a8f906c)" style="fill: #0000ff; opacity: 0.7"/>
   </g>
   <g id="patch_19">
    <path d="M 169.790599 318.04 
L 176.400919 318.04 
L 176.400919 311.012874 
L 169.790599 311.012874 
z
" clip-path="url(#p102a8f906c)" style="fill: #0000ff; opacity: 0.7"/>
   </g>
   <g id="patch_20">
    <path d="M 176.400919 318.04 
L 183.011239 318.04 
L 183.011239 316.91566 
L 176.400919 316.91566 
z
" clip-path="url(#p102a8f906c)" style="fill: #0000ff; opacity: 0.7"/>
   </g>
   <g id="patch_21">
    <path d="M 183.011239 318.04 
L 189.621559 318.04 
L 189.621559 306.515513 
L 183.011239 306.515513 
z
" clip-path="url(#p102a8f906c)" style="fill: #0000ff; opacity: 0.7"/>
   </g>
   <g id="patch_22">
    <path d="M 189.621559 318.04 
L 196.231879 318.04 
L 196.231879 316.072405 
L 189.621559 316.072405 
z
" clip-path="url(#p102a8f906c)" style="fill: #0000ff; opacity: 0.7"/>
   </g>
   <g id="patch_23">
    <path d="M 196.231879 318.04 
L 202.842199 318.04 
L 202.842199 293.023432 
L 196.231879 293.023432 
z
" clip-path="url(#p102a8f906c)" style="fill: #0000ff; opacity: 0.7"/>
   </g>
   <g id="patch_24">
    <path d="M 202.842199 318.04 
L 209.452519 318.04 
L 209.452519 307.077684 
L 202.842199 307.077684 
z
" clip-path="url(#p102a8f906c)" style="fill: #0000ff; opacity: 0.7"/>
   </g>
   <g id="patch_25">
    <path d="M 209.452519 318.04 
L 216.062839 318.04 
L 216.062839 298.364047 
L 209.452519 298.364047 
z
" clip-path="url(#p102a8f906c)" style="fill: #0000ff; opacity: 0.7"/>
   </g>
   <g id="patch_26">
    <path d="M 216.062839 318.04 
L 222.673159 318.04 
L 222.673159 307.920939 
L 216.062839 307.920939 
z
" clip-path="url(#p102a8f906c)" style="fill: #0000ff; opacity: 0.7"/>
   </g>
   <g id="patch_27">
    <path d="M 222.673159 318.04 
L 229.283479 318.04 
L 229.283479 308.483109 
L 222.673159 308.483109 
z
" clip-path="url(#p102a8f906c)" style="fill: #0000ff; opacity: 0.7"/>
   </g>
   <g id="patch_28">
    <path d="M 229.283479 318.04 
L 235.893799 318.04 
L 235.893799 311.575044 
L 229.283479 311.575044 
z
" clip-path="url(#p102a8f906c)" style="fill: #0000ff; opacity: 0.7"/>
   </g>
   <g id="patch_29">
    <path d="M 235.893799 318.04 
L 242.504119 318.04 
L 242.504119 318.04 
L 235.893799 318.04 
z
" clip-path="url(#p102a8f906c)" style="fill: #0000ff; opacity: 0.7"/>
   </g>
   <g id="patch_30">
    <path d="M 242.504119 318.04 
L 249.114439 318.04 
L 249.114439 318.04 
L 242.504119 318.04 
z
" clip-path="url(#p102a8f906c)" style="fill: #0000ff; opacity: 0.7"/>
   </g>
   <g id="patch_31">
    <path d="M 249.114439 318.04 
L 255.724759 318.04 
L 255.724759 318.04 
L 249.114439 318.04 
z
" clip-path="url(#p102a8f906c)" style="fill: #0000ff; opacity: 0.7"/>
   </g>
   <g id="patch_32">
    <path d="M 255.724759 318.04 
L 262.335079 318.04 
L 262.335079 316.91566 
L 255.724759 316.91566 
z
" clip-path="url(#p102a8f906c)" style="fill: #0000ff; opacity: 0.7"/>
   </g>
   <g id="matplotlib.axis_1">
    <g id="xtick_1">
     <g id="line2d_1">
      <defs>
       <path id="mfd7af516f2" d="M 0 0 
L 0 3.5 
" style="stroke: #000000; stroke-width: 0.8"/>
      </defs>
      <g>
       <use xlink:href="#mfd7af516f2" x="61.666618" y="318.04" style="stroke: #000000; stroke-width: 0.8"/>
      </g>
     </g>
     <g id="text_1">
      <!-- 0 -->
      <g transform="translate(58.485368 332.638438) scale(0.1 -0.1)">
       <defs>
        <path id="DejaVuSans-30" d="M 2034 4250 
Q 1547 4250 1301 3770 
Q 1056 3291 1056 2328 
Q 1056 1369 1301 889 
Q 1547 409 2034 409 
Q 2525 409 2770 889 
Q 3016 1369 3016 2328 
Q 3016 3291 2770 3770 
Q 2525 4250 2034 4250 
z
M 2034 4750 
Q 2819 4750 3233 4129 
Q 3647 3509 3647 2328 
Q 3647 1150 3233 529 
Q 2819 -91 2034 -91 
Q 1250 -91 836 529 
Q 422 1150 422 2328 
Q 422 3509 836 4129 
Q 1250 4750 2034 4750 
z
" transform="scale(0.015625)"/>
       </defs>
       <use xlink:href="#DejaVuSans-30"/>
      </g>
     </g>
    </g>
    <g id="xtick_2">
     <g id="line2d_2">
      <g>
       <use xlink:href="#mfd7af516f2" x="98.041512" y="318.04" style="stroke: #000000; stroke-width: 0.8"/>
      </g>
     </g>
     <g id="text_2">
      <!-- 200 -->
      <g transform="translate(88.497762 332.638438) scale(0.1 -0.1)">
       <defs>
        <path id="DejaVuSans-32" d="M 1228 531 
L 3431 531 
L 3431 0 
L 469 0 
L 469 531 
Q 828 903 1448 1529 
Q 2069 2156 2228 2338 
Q 2531 2678 2651 2914 
Q 2772 3150 2772 3378 
Q 2772 3750 2511 3984 
Q 2250 4219 1831 4219 
Q 1534 4219 1204 4116 
Q 875 4013 500 3803 
L 500 4441 
Q 881 4594 1212 4672 
Q 1544 4750 1819 4750 
Q 2544 4750 2975 4387 
Q 3406 4025 3406 3419 
Q 3406 3131 3298 2873 
Q 3191 2616 2906 2266 
Q 2828 2175 2409 1742 
Q 1991 1309 1228 531 
z
" transform="scale(0.015625)"/>
       </defs>
       <use xlink:href="#DejaVuSans-32"/>
       <use xlink:href="#DejaVuSans-30" x="63.623047"/>
       <use xlink:href="#DejaVuSans-30" x="127.246094"/>
      </g>
     </g>
    </g>
    <g id="xtick_3">
     <g id="line2d_3">
      <g>
       <use xlink:href="#mfd7af516f2" x="134.416406" y="318.04" style="stroke: #000000; stroke-width: 0.8"/>
      </g>
     </g>
     <g id="text_3">
      <!-- 400 -->
      <g transform="translate(124.872656 332.638438) scale(0.1 -0.1)">
       <defs>
        <path id="DejaVuSans-34" d="M 2419 4116 
L 825 1625 
L 2419 1625 
L 2419 4116 
z
M 2253 4666 
L 3047 4666 
L 3047 1625 
L 3713 1625 
L 3713 1100 
L 3047 1100 
L 3047 0 
L 2419 0 
L 2419 1100 
L 313 1100 
L 313 1709 
L 2253 4666 
z
" transform="scale(0.015625)"/>
       </defs>
       <use xlink:href="#DejaVuSans-34"/>
       <use xlink:href="#DejaVuSans-30" x="63.623047"/>
       <use xlink:href="#DejaVuSans-30" x="127.246094"/>
      </g>
     </g>
    </g>
    <g id="xtick_4">
     <g id="line2d_4">
      <g>
       <use xlink:href="#mfd7af516f2" x="170.7913" y="318.04" style="stroke: #000000; stroke-width: 0.8"/>
      </g>
     </g>
     <g id="text_4">
      <!-- 600 -->
      <g transform="translate(161.24755 332.638438) scale(0.1 -0.1)">
       <defs>
        <path id="DejaVuSans-36" d="M 2113 2584 
Q 1688 2584 1439 2293 
Q 1191 2003 1191 1497 
Q 1191 994 1439 701 
Q 1688 409 2113 409 
Q 2538 409 2786 701 
Q 3034 994 3034 1497 
Q 3034 2003 2786 2293 
Q 2538 2584 2113 2584 
z
M 3366 4563 
L 3366 3988 
Q 3128 4100 2886 4159 
Q 2644 4219 2406 4219 
Q 1781 4219 1451 3797 
Q 1122 3375 1075 2522 
Q 1259 2794 1537 2939 
Q 1816 3084 2150 3084 
Q 2853 3084 3261 2657 
Q 3669 2231 3669 1497 
Q 3669 778 3244 343 
Q 2819 -91 2113 -91 
Q 1303 -91 875 529 
Q 447 1150 447 2328 
Q 447 3434 972 4092 
Q 1497 4750 2381 4750 
Q 2619 4750 2861 4703 
Q 3103 4656 3366 4563 
z
" transform="scale(0.015625)"/>
       </defs>
       <use xlink:href="#DejaVuSans-36"/>
       <use xlink:href="#DejaVuSans-30" x="63.623047"/>
       <use xlink:href="#DejaVuSans-30" x="127.246094"/>
      </g>
     </g>
    </g>
    <g id="xtick_5">
     <g id="line2d_5">
      <g>
       <use xlink:href="#mfd7af516f2" x="207.166194" y="318.04" style="stroke: #000000; stroke-width: 0.8"/>
      </g>
     </g>
     <g id="text_5">
      <!-- 800 -->
      <g transform="translate(197.622444 332.638438) scale(0.1 -0.1)">
       <defs>
        <path id="DejaVuSans-38" d="M 2034 2216 
Q 1584 2216 1326 1975 
Q 1069 1734 1069 1313 
Q 1069 891 1326 650 
Q 1584 409 2034 409 
Q 2484 409 2743 651 
Q 3003 894 3003 1313 
Q 3003 1734 2745 1975 
Q 2488 2216 2034 2216 
z
M 1403 2484 
Q 997 2584 770 2862 
Q 544 3141 544 3541 
Q 544 4100 942 4425 
Q 1341 4750 2034 4750 
Q 2731 4750 3128 4425 
Q 3525 4100 3525 3541 
Q 3525 3141 3298 2862 
Q 3072 2584 2669 2484 
Q 3125 2378 3379 2068 
Q 3634 1759 3634 1313 
Q 3634 634 3220 271 
Q 2806 -91 2034 -91 
Q 1263 -91 848 271 
Q 434 634 434 1313 
Q 434 1759 690 2068 
Q 947 2378 1403 2484 
z
M 1172 3481 
Q 1172 3119 1398 2916 
Q 1625 2713 2034 2713 
Q 2441 2713 2670 2916 
Q 2900 3119 2900 3481 
Q 2900 3844 2670 4047 
Q 2441 4250 2034 4250 
Q 1625 4250 1398 4047 
Q 1172 3844 1172 3481 
z
" transform="scale(0.015625)"/>
       </defs>
       <use xlink:href="#DejaVuSans-38"/>
       <use xlink:href="#DejaVuSans-30" x="63.623047"/>
       <use xlink:href="#DejaVuSans-30" x="127.246094"/>
      </g>
     </g>
    </g>
    <g id="xtick_6">
     <g id="line2d_6">
      <g>
       <use xlink:href="#mfd7af516f2" x="243.541088" y="318.04" style="stroke: #000000; stroke-width: 0.8"/>
      </g>
     </g>
     <g id="text_6">
      <!-- 1000 -->
      <g transform="translate(230.816088 332.638438) scale(0.1 -0.1)">
       <defs>
        <path id="DejaVuSans-31" d="M 794 531 
L 1825 531 
L 1825 4091 
L 703 3866 
L 703 4441 
L 1819 4666 
L 2450 4666 
L 2450 531 
L 3481 531 
L 3481 0 
L 794 0 
L 794 531 
z
" transform="scale(0.015625)"/>
       </defs>
       <use xlink:href="#DejaVuSans-31"/>
       <use xlink:href="#DejaVuSans-30" x="63.623047"/>
       <use xlink:href="#DejaVuSans-30" x="127.246094"/>
       <use xlink:href="#DejaVuSans-30" x="190.869141"/>
      </g>
     </g>
    </g>
    <g id="text_7">
     <!-- Block Size (KB) -->
     <g transform="translate(125.603717 346.316563) scale(0.1 -0.1)">
      <defs>
       <path id="DejaVuSans-42" d="M 1259 2228 
L 1259 519 
L 2272 519 
Q 2781 519 3026 730 
Q 3272 941 3272 1375 
Q 3272 1813 3026 2020 
Q 2781 2228 2272 2228 
L 1259 2228 
z
M 1259 4147 
L 1259 2741 
L 2194 2741 
Q 2656 2741 2882 2914 
Q 3109 3088 3109 3444 
Q 3109 3797 2882 3972 
Q 2656 4147 2194 4147 
L 1259 4147 
z
M 628 4666 
L 2241 4666 
Q 2963 4666 3353 4366 
Q 3744 4066 3744 3513 
Q 3744 3084 3544 2831 
Q 3344 2578 2956 2516 
Q 3422 2416 3680 2098 
Q 3938 1781 3938 1306 
Q 3938 681 3513 340 
Q 3088 0 2303 0 
L 628 0 
L 628 4666 
z
" transform="scale(0.015625)"/>
       <path id="DejaVuSans-6c" d="M 603 4863 
L 1178 4863 
L 1178 0 
L 603 0 
L 603 4863 
z
" transform="scale(0.015625)"/>
       <path id="DejaVuSans-6f" d="M 1959 3097 
Q 1497 3097 1228 2736 
Q 959 2375 959 1747 
Q 959 1119 1226 758 
Q 1494 397 1959 397 
Q 2419 397 2687 759 
Q 2956 1122 2956 1747 
Q 2956 2369 2687 2733 
Q 2419 3097 1959 3097 
z
M 1959 3584 
Q 2709 3584 3137 3096 
Q 3566 2609 3566 1747 
Q 3566 888 3137 398 
Q 2709 -91 1959 -91 
Q 1206 -91 779 398 
Q 353 888 353 1747 
Q 353 2609 779 3096 
Q 1206 3584 1959 3584 
z
" transform="scale(0.015625)"/>
       <path id="DejaVuSans-63" d="M 3122 3366 
L 3122 2828 
Q 2878 2963 2633 3030 
Q 2388 3097 2138 3097 
Q 1578 3097 1268 2742 
Q 959 2388 959 1747 
Q 959 1106 1268 751 
Q 1578 397 2138 397 
Q 2388 397 2633 464 
Q 2878 531 3122 666 
L 3122 134 
Q 2881 22 2623 -34 
Q 2366 -91 2075 -91 
Q 1284 -91 818 406 
Q 353 903 353 1747 
Q 353 2603 823 3093 
Q 1294 3584 2113 3584 
Q 2378 3584 2631 3529 
Q 2884 3475 3122 3366 
z
" transform="scale(0.015625)"/>
       <path id="DejaVuSans-6b" d="M 581 4863 
L 1159 4863 
L 1159 1991 
L 2875 3500 
L 3609 3500 
L 1753 1863 
L 3688 0 
L 2938 0 
L 1159 1709 
L 1159 0 
L 581 0 
L 581 4863 
z
" transform="scale(0.015625)"/>
       <path id="DejaVuSans-20" transform="scale(0.015625)"/>
       <path id="DejaVuSans-53" d="M 3425 4513 
L 3425 3897 
Q 3066 4069 2747 4153 
Q 2428 4238 2131 4238 
Q 1616 4238 1336 4038 
Q 1056 3838 1056 3469 
Q 1056 3159 1242 3001 
Q 1428 2844 1947 2747 
L 2328 2669 
Q 3034 2534 3370 2195 
Q 3706 1856 3706 1288 
Q 3706 609 3251 259 
Q 2797 -91 1919 -91 
Q 1588 -91 1214 -16 
Q 841 59 441 206 
L 441 856 
Q 825 641 1194 531 
Q 1563 422 1919 422 
Q 2459 422 2753 634 
Q 3047 847 3047 1241 
Q 3047 1584 2836 1778 
Q 2625 1972 2144 2069 
L 1759 2144 
Q 1053 2284 737 2584 
Q 422 2884 422 3419 
Q 422 4038 858 4394 
Q 1294 4750 2059 4750 
Q 2388 4750 2728 4690 
Q 3069 4631 3425 4513 
z
" transform="scale(0.015625)"/>
       <path id="DejaVuSans-69" d="M 603 3500 
L 1178 3500 
L 1178 0 
L 603 0 
L 603 3500 
z
M 603 4863 
L 1178 4863 
L 1178 4134 
L 603 4134 
L 603 4863 
z
" transform="scale(0.015625)"/>
       <path id="DejaVuSans-7a" d="M 353 3500 
L 3084 3500 
L 3084 2975 
L 922 459 
L 3084 459 
L 3084 0 
L 275 0 
L 275 525 
L 2438 3041 
L 353 3041 
L 353 3500 
z
" transform="scale(0.015625)"/>
       <path id="DejaVuSans-65" d="M 3597 1894 
L 3597 1613 
L 953 1613 
Q 991 1019 1311 708 
Q 1631 397 2203 397 
Q 2534 397 2845 478 
Q 3156 559 3463 722 
L 3463 178 
Q 3153 47 2828 -22 
Q 2503 -91 2169 -91 
Q 1331 -91 842 396 
Q 353 884 353 1716 
Q 353 2575 817 3079 
Q 1281 3584 2069 3584 
Q 2775 3584 3186 3129 
Q 3597 2675 3597 1894 
z
M 3022 2063 
Q 3016 2534 2758 2815 
Q 2500 3097 2075 3097 
Q 1594 3097 1305 2825 
Q 1016 2553 972 2059 
L 3022 2063 
z
" transform="scale(0.015625)"/>
       <path id="DejaVuSans-28" d="M 1984 4856 
Q 1566 4138 1362 3434 
Q 1159 2731 1159 2009 
Q 1159 1288 1364 580 
Q 1569 -128 1984 -844 
L 1484 -844 
Q 1016 -109 783 600 
Q 550 1309 550 2009 
Q 550 2706 781 3412 
Q 1013 4119 1484 4856 
L 1984 4856 
z
" transform="scale(0.015625)"/>
       <path id="DejaVuSans-4b" d="M 628 4666 
L 1259 4666 
L 1259 2694 
L 3353 4666 
L 4166 4666 
L 1850 2491 
L 4331 0 
L 3500 0 
L 1259 2247 
L 1259 0 
L 628 0 
L 628 4666 
z
" transform="scale(0.015625)"/>
       <path id="DejaVuSans-29" d="M 513 4856 
L 1013 4856 
Q 1481 4119 1714 3412 
Q 1947 2706 1947 2009 
Q 1947 1309 1714 600 
Q 1481 -109 1013 -844 
L 513 -844 
Q 928 -128 1133 580 
Q 1338 1288 1338 2009 
Q 1338 2731 1133 3434 
Q 928 4138 513 4856 
z
" transform="scale(0.015625)"/>
      </defs>
      <use xlink:href="#DejaVuSans-42"/>
      <use xlink:href="#DejaVuSans-6c" x="68.603516"/>
      <use xlink:href="#DejaVuSans-6f" x="96.386719"/>
      <use xlink:href="#DejaVuSans-63" x="157.568359"/>
      <use xlink:href="#DejaVuSans-6b" x="212.548828"/>
      <use xlink:href="#DejaVuSans-20" x="270.458984"/>
      <use xlink:href="#DejaVuSans-53" x="302.246094"/>
      <use xlink:href="#DejaVuSans-69" x="365.722656"/>
      <use xlink:href="#DejaVuSans-7a" x="393.505859"/>
      <use xlink:href="#DejaVuSans-65" x="445.996094"/>
      <use xlink:href="#DejaVuSans-20" x="507.519531"/>
      <use xlink:href="#DejaVuSans-28" x="539.306641"/>
      <use xlink:href="#DejaVuSans-4b" x="578.320312"/>
      <use xlink:href="#DejaVuSans-42" x="643.896484"/>
      <use xlink:href="#DejaVuSans-29" x="712.5"/>
     </g>
    </g>
   </g>
   <g id="matplotlib.axis_2">
    <g id="ytick_1">
     <g id="line2d_7">
      <defs>
       <path id="m64e8c85c6f" d="M 0 0 
L -3.5 0 
" style="stroke: #000000; stroke-width: 0.8"/>
      </defs>
      <g>
       <use xlink:href="#m64e8c85c6f" x="54.11" y="318.04" style="stroke: #000000; stroke-width: 0.8"/>
      </g>
     </g>
     <g id="text_8">
      <!-- 0% -->
      <g transform="translate(31.245937 321.839219) scale(0.1 -0.1)">
       <defs>
        <path id="DejaVuSans-25" d="M 4653 2053 
Q 4381 2053 4226 1822 
Q 4072 1591 4072 1178 
Q 4072 772 4226 539 
Q 4381 306 4653 306 
Q 4919 306 5073 539 
Q 5228 772 5228 1178 
Q 5228 1588 5073 1820 
Q 4919 2053 4653 2053 
z
M 4653 2450 
Q 5147 2450 5437 2106 
Q 5728 1763 5728 1178 
Q 5728 594 5436 251 
Q 5144 -91 4653 -91 
Q 4153 -91 3862 251 
Q 3572 594 3572 1178 
Q 3572 1766 3864 2108 
Q 4156 2450 4653 2450 
z
M 1428 4353 
Q 1159 4353 1004 4120 
Q 850 3888 850 3481 
Q 850 3069 1003 2837 
Q 1156 2606 1428 2606 
Q 1700 2606 1854 2837 
Q 2009 3069 2009 3481 
Q 2009 3884 1853 4118 
Q 1697 4353 1428 4353 
z
M 4250 4750 
L 4750 4750 
L 1831 -91 
L 1331 -91 
L 4250 4750 
z
M 1428 4750 
Q 1922 4750 2215 4408 
Q 2509 4066 2509 3481 
Q 2509 2891 2217 2550 
Q 1925 2209 1428 2209 
Q 931 2209 642 2551 
Q 353 2894 353 3481 
Q 353 4063 643 4406 
Q 934 4750 1428 4750 
z
" transform="scale(0.015625)"/>
       </defs>
       <use xlink:href="#DejaVuSans-30"/>
       <use xlink:href="#DejaVuSans-25" x="63.623047"/>
      </g>
     </g>
    </g>
    <g id="ytick_2">
     <g id="line2d_8">
      <g>
       <use xlink:href="#m64e8c85c6f" x="54.11" y="275.483725" style="stroke: #000000; stroke-width: 0.8"/>
      </g>
     </g>
     <g id="text_9">
      <!-- 2% -->
      <g transform="translate(31.245937 279.282944) scale(0.1 -0.1)">
       <use xlink:href="#DejaVuSans-32"/>
       <use xlink:href="#DejaVuSans-25" x="63.623047"/>
      </g>
     </g>
    </g>
    <g id="ytick_3">
     <g id="line2d_9">
      <g>
       <use xlink:href="#m64e8c85c6f" x="54.11" y="232.927451" style="stroke: #000000; stroke-width: 0.8"/>
      </g>
     </g>
     <g id="text_10">
      <!-- 5% -->
      <g transform="translate(31.245937 236.726669) scale(0.1 -0.1)">
       <defs>
        <path id="DejaVuSans-35" d="M 691 4666 
L 3169 4666 
L 3169 4134 
L 1269 4134 
L 1269 2991 
Q 1406 3038 1543 3061 
Q 1681 3084 1819 3084 
Q 2600 3084 3056 2656 
Q 3513 2228 3513 1497 
Q 3513 744 3044 326 
Q 2575 -91 1722 -91 
Q 1428 -91 1123 -41 
Q 819 9 494 109 
L 494 744 
Q 775 591 1075 516 
Q 1375 441 1709 441 
Q 2250 441 2565 725 
Q 2881 1009 2881 1497 
Q 2881 1984 2565 2268 
Q 2250 2553 1709 2553 
Q 1456 2553 1204 2497 
Q 953 2441 691 2322 
L 691 4666 
z
" transform="scale(0.015625)"/>
       </defs>
       <use xlink:href="#DejaVuSans-35"/>
       <use xlink:href="#DejaVuSans-25" x="63.623047"/>
      </g>
     </g>
    </g>
    <g id="ytick_4">
     <g id="line2d_10">
      <g>
       <use xlink:href="#m64e8c85c6f" x="54.11" y="190.371176" style="stroke: #000000; stroke-width: 0.8"/>
      </g>
     </g>
     <g id="text_11">
      <!-- 8% -->
      <g transform="translate(31.245937 194.170395) scale(0.1 -0.1)">
       <use xlink:href="#DejaVuSans-38"/>
       <use xlink:href="#DejaVuSans-25" x="63.623047"/>
      </g>
     </g>
    </g>
    <g id="ytick_5">
     <g id="line2d_11">
      <g>
       <use xlink:href="#m64e8c85c6f" x="54.11" y="147.814901" style="stroke: #000000; stroke-width: 0.8"/>
      </g>
     </g>
     <g id="text_12">
      <!-- 10% -->
      <g transform="translate(24.883437 151.61412) scale(0.1 -0.1)">
       <use xlink:href="#DejaVuSans-31"/>
       <use xlink:href="#DejaVuSans-30" x="63.623047"/>
       <use xlink:href="#DejaVuSans-25" x="127.246094"/>
      </g>
     </g>
    </g>
    <g id="ytick_6">
     <g id="line2d_12">
      <g>
       <use xlink:href="#m64e8c85c6f" x="54.11" y="105.258627" style="stroke: #000000; stroke-width: 0.8"/>
      </g>
     </g>
     <g id="text_13">
      <!-- 12% -->
      <g transform="translate(24.883437 109.057846) scale(0.1 -0.1)">
       <use xlink:href="#DejaVuSans-31"/>
       <use xlink:href="#DejaVuSans-32" x="63.623047"/>
       <use xlink:href="#DejaVuSans-25" x="127.246094"/>
      </g>
     </g>
    </g>
    <g id="ytick_7">
     <g id="line2d_13">
      <g>
       <use xlink:href="#m64e8c85c6f" x="54.11" y="62.702352" style="stroke: #000000; stroke-width: 0.8"/>
      </g>
     </g>
     <g id="text_14">
      <!-- 15% -->
      <g transform="translate(24.883437 66.501571) scale(0.1 -0.1)">
       <use xlink:href="#DejaVuSans-31"/>
       <use xlink:href="#DejaVuSans-35" x="63.623047"/>
       <use xlink:href="#DejaVuSans-25" x="127.246094"/>
      </g>
     </g>
    </g>
    <g id="ytick_8">
     <g id="line2d_14">
      <g>
       <use xlink:href="#m64e8c85c6f" x="54.11" y="20.146077" style="stroke: #000000; stroke-width: 0.8"/>
      </g>
     </g>
     <g id="text_15">
      <!-- 18% -->
      <g transform="translate(24.883437 23.945296) scale(0.1 -0.1)">
       <use xlink:href="#DejaVuSans-31"/>
       <use xlink:href="#DejaVuSans-38" x="63.623047"/>
       <use xlink:href="#DejaVuSans-25" x="127.246094"/>
      </g>
     </g>
    </g>
    <g id="text_16">
     <!-- Percentage -->
     <g transform="translate(18.80375 192.542656) rotate(-90) scale(0.1 -0.1)">
      <defs>
       <path id="DejaVuSans-50" d="M 1259 4147 
L 1259 2394 
L 2053 2394 
Q 2494 2394 2734 2622 
Q 2975 2850 2975 3272 
Q 2975 3691 2734 3919 
Q 2494 4147 2053 4147 
L 1259 4147 
z
M 628 4666 
L 2053 4666 
Q 2838 4666 3239 4311 
Q 3641 3956 3641 3272 
Q 3641 2581 3239 2228 
Q 2838 1875 2053 1875 
L 1259 1875 
L 1259 0 
L 628 0 
L 628 4666 
z
" transform="scale(0.015625)"/>
       <path id="DejaVuSans-72" d="M 2631 2963 
Q 2534 3019 2420 3045 
Q 2306 3072 2169 3072 
Q 1681 3072 1420 2755 
Q 1159 2438 1159 1844 
L 1159 0 
L 581 0 
L 581 3500 
L 1159 3500 
L 1159 2956 
Q 1341 3275 1631 3429 
Q 1922 3584 2338 3584 
Q 2397 3584 2469 3576 
Q 2541 3569 2628 3553 
L 2631 2963 
z
" transform="scale(0.015625)"/>
       <path id="DejaVuSans-6e" d="M 3513 2113 
L 3513 0 
L 2938 0 
L 2938 2094 
Q 2938 2591 2744 2837 
Q 2550 3084 2163 3084 
Q 1697 3084 1428 2787 
Q 1159 2491 1159 1978 
L 1159 0 
L 581 0 
L 581 3500 
L 1159 3500 
L 1159 2956 
Q 1366 3272 1645 3428 
Q 1925 3584 2291 3584 
Q 2894 3584 3203 3211 
Q 3513 2838 3513 2113 
z
" transform="scale(0.015625)"/>
       <path id="DejaVuSans-74" d="M 1172 4494 
L 1172 3500 
L 2356 3500 
L 2356 3053 
L 1172 3053 
L 1172 1153 
Q 1172 725 1289 603 
Q 1406 481 1766 481 
L 2356 481 
L 2356 0 
L 1766 0 
Q 1100 0 847 248 
Q 594 497 594 1153 
L 594 3053 
L 172 3053 
L 172 3500 
L 594 3500 
L 594 4494 
L 1172 4494 
z
" transform="scale(0.015625)"/>
       <path id="DejaVuSans-61" d="M 2194 1759 
Q 1497 1759 1228 1600 
Q 959 1441 959 1056 
Q 959 750 1161 570 
Q 1363 391 1709 391 
Q 2188 391 2477 730 
Q 2766 1069 2766 1631 
L 2766 1759 
L 2194 1759 
z
M 3341 1997 
L 3341 0 
L 2766 0 
L 2766 531 
Q 2569 213 2275 61 
Q 1981 -91 1556 -91 
Q 1019 -91 701 211 
Q 384 513 384 1019 
Q 384 1609 779 1909 
Q 1175 2209 1959 2209 
L 2766 2209 
L 2766 2266 
Q 2766 2663 2505 2880 
Q 2244 3097 1772 3097 
Q 1472 3097 1187 3025 
Q 903 2953 641 2809 
L 641 3341 
Q 956 3463 1253 3523 
Q 1550 3584 1831 3584 
Q 2591 3584 2966 3190 
Q 3341 2797 3341 1997 
z
" transform="scale(0.015625)"/>
       <path id="DejaVuSans-67" d="M 2906 1791 
Q 2906 2416 2648 2759 
Q 2391 3103 1925 3103 
Q 1463 3103 1205 2759 
Q 947 2416 947 1791 
Q 947 1169 1205 825 
Q 1463 481 1925 481 
Q 2391 481 2648 825 
Q 2906 1169 2906 1791 
z
M 3481 434 
Q 3481 -459 3084 -895 
Q 2688 -1331 1869 -1331 
Q 1566 -1331 1297 -1286 
Q 1028 -1241 775 -1147 
L 775 -588 
Q 1028 -725 1275 -790 
Q 1522 -856 1778 -856 
Q 2344 -856 2625 -561 
Q 2906 -266 2906 331 
L 2906 616 
Q 2728 306 2450 153 
Q 2172 0 1784 0 
Q 1141 0 747 490 
Q 353 981 353 1791 
Q 353 2603 747 3093 
Q 1141 3584 1784 3584 
Q 2172 3584 2450 3431 
Q 2728 3278 2906 2969 
L 2906 3500 
L 3481 3500 
L 3481 434 
z
" transform="scale(0.015625)"/>
      </defs>
      <use xlink:href="#DejaVuSans-50"/>
      <use xlink:href="#DejaVuSans-65" x="56.677734"/>
      <use xlink:href="#DejaVuSans-72" x="118.201172"/>
      <use xlink:href="#DejaVuSans-63" x="157.064453"/>
      <use xlink:href="#DejaVuSans-65" x="212.044922"/>
      <use xlink:href="#DejaVuSans-6e" x="273.568359"/>
      <use xlink:href="#DejaVuSans-74" x="336.947266"/>
      <use xlink:href="#DejaVuSans-61" x="376.15625"/>
      <use xlink:href="#DejaVuSans-67" x="437.435547"/>
      <use xlink:href="#DejaVuSans-65" x="500.912109"/>
     </g>
    </g>
   </g>
   <g id="line2d_15">
    <path d="M 104.856921 318.04 
L 104.856921 10.8 
" clip-path="url(#p102a8f906c)" style="fill: none; stroke-dasharray: 5.55,2.4; stroke-dashoffset: 0; stroke: #008000; stroke-width: 1.5"/>
   </g>
   <g id="patch_33">
    <path d="M 54.11 318.04 
L 54.11 10.8 
" style="fill: none; stroke: #000000; stroke-width: 0.8; stroke-linejoin: miter; stroke-linecap: square"/>
   </g>
   <g id="patch_34">
    <path d="M 272.250559 318.04 
L 272.250559 10.8 
" style="fill: none; stroke: #000000; stroke-width: 0.8; stroke-linejoin: miter; stroke-linecap: square"/>
   </g>
   <g id="patch_35">
    <path d="M 54.11 318.04 
L 272.250559 318.04 
" style="fill: none; stroke: #000000; stroke-width: 0.8; stroke-linejoin: miter; stroke-linecap: square"/>
   </g>
   <g id="patch_36">
    <path d="M 54.11 10.8 
L 272.250559 10.8 
" style="fill: none; stroke: #000000; stroke-width: 0.8; stroke-linejoin: miter; stroke-linecap: square"/>
   </g>
   <g id="legend_1">
    <g id="patch_37">
     <path d="M 206.003684 33.478125 
L 265.250559 33.478125 
Q 267.250559 33.478125 267.250559 31.478125 
L 267.250559 17.8 
Q 267.250559 15.8 265.250559 15.8 
L 206.003684 15.8 
Q 204.003684 15.8 204.003684 17.8 
L 204.003684 31.478125 
Q 204.003684 33.478125 206.003684 33.478125 
z
" style="fill: #ffffff; opacity: 0.8; stroke: #cccccc; stroke-linejoin: miter"/>
    </g>
    <g id="line2d_16">
     <path d="M 208.003684 23.898438 
L 218.003684 23.898438 
L 228.003684 23.898438 
" style="fill: none; stroke-dasharray: 5.55,2.4; stroke-dashoffset: 0; stroke: #008000; stroke-width: 1.5"/>
    </g>
    <g id="text_17">
     <!-- Mean -->
     <g transform="translate(236.003684 27.398438) scale(0.1 -0.1)">
      <defs>
       <path id="DejaVuSans-4d" d="M 628 4666 
L 1569 4666 
L 2759 1491 
L 3956 4666 
L 4897 4666 
L 4897 0 
L 4281 0 
L 4281 4097 
L 3078 897 
L 2444 897 
L 1241 4097 
L 1241 0 
L 628 0 
L 628 4666 
z
" transform="scale(0.015625)"/>
      </defs>
      <use xlink:href="#DejaVuSans-4d"/>
      <use xlink:href="#DejaVuSans-65" x="86.279297"/>
      <use xlink:href="#DejaVuSans-61" x="147.802734"/>
      <use xlink:href="#DejaVuSans-6e" x="209.082031"/>
     </g>
    </g>
   </g>
  </g>
  <g id="axes_2">
   <g id="patch_38">
    <path d="M 319.759814 318.04 
L 537.900373 318.04 
L 537.900373 10.8 
L 319.759814 10.8 
z
" style="fill: #ffffff"/>
   </g>
   <g id="patch_39">
    <path d="M 329.675294 318.04 
L 336.285614 318.04 
L 336.285614 317.223795 
L 329.675294 317.223795 
z
" clip-path="url(#pb1d292657b)" style="fill: #ff0000; opacity: 0.7"/>
   </g>
   <g id="patch_40">
    <path d="M 336.285614 318.04 
L 342.895934 318.04 
L 342.895934 316.611641 
L 336.285614 316.611641 
z
" clip-path="url(#pb1d292657b)" style="fill: #ff0000; opacity: 0.7"/>
   </g>
   <g id="patch_41">
    <path d="M 342.895934 318.04 
L 349.506254 318.04 
L 349.506254 312.326564 
L 342.895934 312.326564 
z
" clip-path="url(#pb1d292657b)" style="fill: #ff0000; opacity: 0.7"/>
   </g>
   <g id="patch_42">
    <path d="M 349.506254 318.04 
L 356.116574 318.04 
L 356.116574 304.572616 
L 349.506254 304.572616 
z
" clip-path="url(#pb1d292657b)" style="fill: #ff0000; opacity: 0.7"/>
   </g>
   <g id="patch_43">
    <path d="M 356.116574 318.04 
L 362.726893 318.04 
L 362.726893 258.048926 
L 356.116574 258.048926 
z
" clip-path="url(#pb1d292657b)" style="fill: #ff0000; opacity: 0.7"/>
   </g>
   <g id="patch_44">
    <path d="M 362.726893 318.04 
L 369.337213 318.04 
L 369.337213 112.152267 
L 362.726893 112.152267 
z
" clip-path="url(#pb1d292657b)" style="fill: #ff0000; opacity: 0.7"/>
   </g>
   <g id="patch_45">
    <path d="M 369.337213 318.04 
L 375.947533 318.04 
L 375.947533 25.430476 
L 369.337213 25.430476 
z
" clip-path="url(#pb1d292657b)" style="fill: #ff0000; opacity: 0.7"/>
   </g>
   <g id="patch_46">
    <path d="M 375.947533 318.04 
L 382.557853 318.04 
L 382.557853 81.544576 
L 375.947533 81.544576 
z
" clip-path="url(#pb1d292657b)" style="fill: #ff0000; opacity: 0.7"/>
   </g>
   <g id="patch_47">
    <path d="M 382.557853 318.04 
L 389.168173 318.04 
L 389.168173 229.481748 
L 382.557853 229.481748 
z
" clip-path="url(#pb1d292657b)" style="fill: #ff0000; opacity: 0.7"/>
   </g>
   <g id="patch_48">
    <path d="M 389.168173 318.04 
L 395.778493 318.04 
L 395.778493 239.684312 
L 389.168173 239.684312 
z
" clip-path="url(#pb1d292657b)" style="fill: #ff0000; opacity: 0.7"/>
   </g>
   <g id="patch_49">
    <path d="M 395.778493 318.04 
L 402.388813 318.04 
L 402.388813 254.376003 
L 395.778493 254.376003 
z
" clip-path="url(#pb1d292657b)" style="fill: #ff0000; opacity: 0.7"/>
   </g>
   <g id="patch_50">
    <path d="M 402.388813 318.04 
L 408.999133 318.04 
L 408.999133 247.234209 
L 402.388813 247.234209 
z
" clip-path="url(#pb1d292657b)" style="fill: #ff0000; opacity: 0.7"/>
   </g>
   <g id="patch_51">
    <path d="M 408.999133 318.04 
L 415.609453 318.04 
L 415.609453 268.25149 
L 408.999133 268.25149 
z
" clip-path="url(#pb1d292657b)" style="fill: #ff0000; opacity: 0.7"/>
   </g>
   <g id="patch_52">
    <path d="M 415.609453 318.04 
L 422.219773 318.04 
L 422.219773 280.494566 
L 415.609453 280.494566 
z
" clip-path="url(#pb1d292657b)" style="fill: #ff0000; opacity: 0.7"/>
   </g>
   <g id="patch_53">
    <path d="M 422.219773 318.04 
L 428.830093 318.04 
L 428.830093 309.673898 
L 422.219773 309.673898 
z
" clip-path="url(#pb1d292657b)" style="fill: #ff0000; opacity: 0.7"/>
   </g>
   <g id="patch_54">
    <path d="M 428.830093 318.04 
L 435.440413 318.04 
L 435.440413 309.469847 
L 428.830093 309.469847 
z
" clip-path="url(#pb1d292657b)" style="fill: #ff0000; opacity: 0.7"/>
   </g>
   <g id="patch_55">
    <path d="M 435.440413 318.04 
L 442.050733 318.04 
L 442.050733 312.326564 
L 435.440413 312.326564 
z
" clip-path="url(#pb1d292657b)" style="fill: #ff0000; opacity: 0.7"/>
   </g>
   <g id="patch_56">
    <path d="M 442.050733 318.04 
L 448.661053 318.04 
L 448.661053 314.163026 
L 442.050733 314.163026 
z
" clip-path="url(#pb1d292657b)" style="fill: #ff0000; opacity: 0.7"/>
   </g>
   <g id="patch_57">
    <path d="M 448.661053 318.04 
L 455.271373 318.04 
L 455.271373 318.04 
L 448.661053 318.04 
z
" clip-path="url(#pb1d292657b)" style="fill: #ff0000; opacity: 0.7"/>
   </g>
   <g id="patch_58">
    <path d="M 455.271373 318.04 
L 461.881693 318.04 
L 461.881693 318.04 
L 455.271373 318.04 
z
" clip-path="url(#pb1d292657b)" style="fill: #ff0000; opacity: 0.7"/>
   </g>
   <g id="patch_59">
    <path d="M 461.881693 318.04 
L 468.492013 318.04 
L 468.492013 318.04 
L 461.881693 318.04 
z
" clip-path="url(#pb1d292657b)" style="fill: #ff0000; opacity: 0.7"/>
   </g>
   <g id="patch_60">
    <path d="M 468.492013 318.04 
L 475.102333 318.04 
L 475.102333 318.04 
L 468.492013 318.04 
z
" clip-path="url(#pb1d292657b)" style="fill: #ff0000; opacity: 0.7"/>
   </g>
   <g id="patch_61">
    <path d="M 475.102333 318.04 
L 481.712653 318.04 
L 481.712653 314.571128 
L 475.102333 314.571128 
z
" clip-path="url(#pb1d292657b)" style="fill: #ff0000; opacity: 0.7"/>
   </g>
   <g id="patch_62">
    <path d="M 481.712653 318.04 
L 488.322973 318.04 
L 488.322973 318.04 
L 481.712653 318.04 
z
" clip-path="url(#pb1d292657b)" style="fill: #ff0000; opacity: 0.7"/>
   </g>
   <g id="patch_63">
    <path d="M 488.322973 318.04 
L 494.933293 318.04 
L 494.933293 318.04 
L 488.322973 318.04 
z
" clip-path="url(#pb1d292657b)" style="fill: #ff0000; opacity: 0.7"/>
   </g>
   <g id="patch_64">
    <path d="M 494.933293 318.04 
L 501.543613 318.04 
L 501.543613 318.04 
L 494.933293 318.04 
z
" clip-path="url(#pb1d292657b)" style="fill: #ff0000; opacity: 0.7"/>
   </g>
   <g id="patch_65">
    <path d="M 501.543613 318.04 
L 508.153933 318.04 
L 508.153933 318.04 
L 501.543613 318.04 
z
" clip-path="url(#pb1d292657b)" style="fill: #ff0000; opacity: 0.7"/>
   </g>
   <g id="patch_66">
    <path d="M 508.153933 318.04 
L 514.764253 318.04 
L 514.764253 318.04 
L 508.153933 318.04 
z
" clip-path="url(#pb1d292657b)" style="fill: #ff0000; opacity: 0.7"/>
   </g>
   <g id="patch_67">
    <path d="M 514.764253 318.04 
L 521.374573 318.04 
L 521.374573 318.04 
L 514.764253 318.04 
z
" clip-path="url(#pb1d292657b)" style="fill: #ff0000; opacity: 0.7"/>
   </g>
   <g id="patch_68">
    <path d="M 521.374573 318.04 
L 527.984893 318.04 
L 527.984893 317.427846 
L 521.374573 317.427846 
z
" clip-path="url(#pb1d292657b)" style="fill: #ff0000; opacity: 0.7"/>
   </g>
   <g id="matplotlib.axis_3">
    <g id="xtick_7">
     <g id="line2d_17">
      <g>
       <use xlink:href="#mfd7af516f2" x="322.575905" y="318.04" style="stroke: #000000; stroke-width: 0.8"/>
      </g>
     </g>
     <g id="text_18">
      <!-- 0 -->
      <g transform="translate(319.394655 332.638438) scale(0.1 -0.1)">
       <use xlink:href="#DejaVuSans-30"/>
      </g>
     </g>
    </g>
    <g id="xtick_8">
     <g id="line2d_18">
      <g>
       <use xlink:href="#mfd7af516f2" x="369.905165" y="318.04" style="stroke: #000000; stroke-width: 0.8"/>
      </g>
     </g>
     <g id="text_19">
      <!-- 100 -->
      <g transform="translate(360.361415 332.638438) scale(0.1 -0.1)">
       <use xlink:href="#DejaVuSans-31"/>
       <use xlink:href="#DejaVuSans-30" x="63.623047"/>
       <use xlink:href="#DejaVuSans-30" x="127.246094"/>
      </g>
     </g>
    </g>
    <g id="xtick_9">
     <g id="line2d_19">
      <g>
       <use xlink:href="#mfd7af516f2" x="417.234424" y="318.04" style="stroke: #000000; stroke-width: 0.8"/>
      </g>
     </g>
     <g id="text_20">
      <!-- 200 -->
      <g transform="translate(407.690674 332.638438) scale(0.1 -0.1)">
       <use xlink:href="#DejaVuSans-32"/>
       <use xlink:href="#DejaVuSans-30" x="63.623047"/>
       <use xlink:href="#DejaVuSans-30" x="127.246094"/>
      </g>
     </g>
    </g>
    <g id="xtick_10">
     <g id="line2d_20">
      <g>
       <use xlink:href="#mfd7af516f2" x="464.563684" y="318.04" style="stroke: #000000; stroke-width: 0.8"/>
      </g>
     </g>
     <g id="text_21">
      <!-- 300 -->
      <g transform="translate(455.019934 332.638438) scale(0.1 -0.1)">
       <defs>
        <path id="DejaVuSans-33" d="M 2597 2516 
Q 3050 2419 3304 2112 
Q 3559 1806 3559 1356 
Q 3559 666 3084 287 
Q 2609 -91 1734 -91 
Q 1441 -91 1130 -33 
Q 819 25 488 141 
L 488 750 
Q 750 597 1062 519 
Q 1375 441 1716 441 
Q 2309 441 2620 675 
Q 2931 909 2931 1356 
Q 2931 1769 2642 2001 
Q 2353 2234 1838 2234 
L 1294 2234 
L 1294 2753 
L 1863 2753 
Q 2328 2753 2575 2939 
Q 2822 3125 2822 3475 
Q 2822 3834 2567 4026 
Q 2313 4219 1838 4219 
Q 1578 4219 1281 4162 
Q 984 4106 628 3988 
L 628 4550 
Q 988 4650 1302 4700 
Q 1616 4750 1894 4750 
Q 2613 4750 3031 4423 
Q 3450 4097 3450 3541 
Q 3450 3153 3228 2886 
Q 3006 2619 2597 2516 
z
" transform="scale(0.015625)"/>
       </defs>
       <use xlink:href="#DejaVuSans-33"/>
       <use xlink:href="#DejaVuSans-30" x="63.623047"/>
       <use xlink:href="#DejaVuSans-30" x="127.246094"/>
      </g>
     </g>
    </g>
    <g id="xtick_11">
     <g id="line2d_21">
      <g>
       <use xlink:href="#mfd7af516f2" x="511.892944" y="318.04" style="stroke: #000000; stroke-width: 0.8"/>
      </g>
     </g>
     <g id="text_22">
      <!-- 400 -->
      <g transform="translate(502.349194 332.638438) scale(0.1 -0.1)">
       <use xlink:href="#DejaVuSans-34"/>
       <use xlink:href="#DejaVuSans-30" x="63.623047"/>
       <use xlink:href="#DejaVuSans-30" x="127.246094"/>
      </g>
     </g>
    </g>
    <g id="text_23">
     <!-- Transaction Count -->
     <g transform="translate(383.792593 346.316563) scale(0.1 -0.1)">
      <defs>
       <path id="DejaVuSans-54" d="M -19 4666 
L 3928 4666 
L 3928 4134 
L 2272 4134 
L 2272 0 
L 1638 0 
L 1638 4134 
L -19 4134 
L -19 4666 
z
" transform="scale(0.015625)"/>
       <path id="DejaVuSans-73" d="M 2834 3397 
L 2834 2853 
Q 2591 2978 2328 3040 
Q 2066 3103 1784 3103 
Q 1356 3103 1142 2972 
Q 928 2841 928 2578 
Q 928 2378 1081 2264 
Q 1234 2150 1697 2047 
L 1894 2003 
Q 2506 1872 2764 1633 
Q 3022 1394 3022 966 
Q 3022 478 2636 193 
Q 2250 -91 1575 -91 
Q 1294 -91 989 -36 
Q 684 19 347 128 
L 347 722 
Q 666 556 975 473 
Q 1284 391 1588 391 
Q 1994 391 2212 530 
Q 2431 669 2431 922 
Q 2431 1156 2273 1281 
Q 2116 1406 1581 1522 
L 1381 1569 
Q 847 1681 609 1914 
Q 372 2147 372 2553 
Q 372 3047 722 3315 
Q 1072 3584 1716 3584 
Q 2034 3584 2315 3537 
Q 2597 3491 2834 3397 
z
" transform="scale(0.015625)"/>
       <path id="DejaVuSans-43" d="M 4122 4306 
L 4122 3641 
Q 3803 3938 3442 4084 
Q 3081 4231 2675 4231 
Q 1875 4231 1450 3742 
Q 1025 3253 1025 2328 
Q 1025 1406 1450 917 
Q 1875 428 2675 428 
Q 3081 428 3442 575 
Q 3803 722 4122 1019 
L 4122 359 
Q 3791 134 3420 21 
Q 3050 -91 2638 -91 
Q 1578 -91 968 557 
Q 359 1206 359 2328 
Q 359 3453 968 4101 
Q 1578 4750 2638 4750 
Q 3056 4750 3426 4639 
Q 3797 4528 4122 4306 
z
" transform="scale(0.015625)"/>
       <path id="DejaVuSans-75" d="M 544 1381 
L 544 3500 
L 1119 3500 
L 1119 1403 
Q 1119 906 1312 657 
Q 1506 409 1894 409 
Q 2359 409 2629 706 
Q 2900 1003 2900 1516 
L 2900 3500 
L 3475 3500 
L 3475 0 
L 2900 0 
L 2900 538 
Q 2691 219 2414 64 
Q 2138 -91 1772 -91 
Q 1169 -91 856 284 
Q 544 659 544 1381 
z
M 1991 3584 
L 1991 3584 
z
" transform="scale(0.015625)"/>
      </defs>
      <use xlink:href="#DejaVuSans-54"/>
      <use xlink:href="#DejaVuSans-72" x="46.333984"/>
      <use xlink:href="#DejaVuSans-61" x="87.447266"/>
      <use xlink:href="#DejaVuSans-6e" x="148.726562"/>
      <use xlink:href="#DejaVuSans-73" x="212.105469"/>
      <use xlink:href="#DejaVuSans-61" x="264.205078"/>
      <use xlink:href="#DejaVuSans-63" x="325.484375"/>
      <use xlink:href="#DejaVuSans-74" x="380.464844"/>
      <use xlink:href="#DejaVuSans-69" x="419.673828"/>
      <use xlink:href="#DejaVuSans-6f" x="447.457031"/>
      <use xlink:href="#DejaVuSans-6e" x="508.638672"/>
      <use xlink:href="#DejaVuSans-20" x="572.017578"/>
      <use xlink:href="#DejaVuSans-43" x="603.804688"/>
      <use xlink:href="#DejaVuSans-6f" x="673.628906"/>
      <use xlink:href="#DejaVuSans-75" x="734.810547"/>
      <use xlink:href="#DejaVuSans-6e" x="798.189453"/>
      <use xlink:href="#DejaVuSans-74" x="861.568359"/>
     </g>
    </g>
   </g>
   <g id="matplotlib.axis_4">
    <g id="ytick_9">
     <g id="line2d_22">
      <g>
       <use xlink:href="#m64e8c85c6f" x="319.759814" y="318.04" style="stroke: #000000; stroke-width: 0.8"/>
      </g>
     </g>
     <g id="text_24">
      <!-- 0% -->
      <g transform="translate(296.895751 321.839219) scale(0.1 -0.1)">
       <use xlink:href="#DejaVuSans-30"/>
       <use xlink:href="#DejaVuSans-25" x="63.623047"/>
      </g>
     </g>
    </g>
    <g id="ytick_10">
     <g id="line2d_23">
      <g>
       <use xlink:href="#m64e8c85c6f" x="319.759814" y="256.253275" style="stroke: #000000; stroke-width: 0.8"/>
      </g>
     </g>
     <g id="text_25">
      <!-- 5% -->
      <g transform="translate(296.895751 260.052494) scale(0.1 -0.1)">
       <use xlink:href="#DejaVuSans-35"/>
       <use xlink:href="#DejaVuSans-25" x="63.623047"/>
      </g>
     </g>
    </g>
    <g id="ytick_11">
     <g id="line2d_24">
      <g>
       <use xlink:href="#m64e8c85c6f" x="319.759814" y="194.46655" style="stroke: #000000; stroke-width: 0.8"/>
      </g>
     </g>
     <g id="text_26">
      <!-- 10% -->
      <g transform="translate(290.533251 198.265769) scale(0.1 -0.1)">
       <use xlink:href="#DejaVuSans-31"/>
       <use xlink:href="#DejaVuSans-30" x="63.623047"/>
       <use xlink:href="#DejaVuSans-25" x="127.246094"/>
      </g>
     </g>
    </g>
    <g id="ytick_12">
     <g id="line2d_25">
      <g>
       <use xlink:href="#m64e8c85c6f" x="319.759814" y="132.679825" style="stroke: #000000; stroke-width: 0.8"/>
      </g>
     </g>
     <g id="text_27">
      <!-- 15% -->
      <g transform="translate(290.533251 136.479043) scale(0.1 -0.1)">
       <use xlink:href="#DejaVuSans-31"/>
       <use xlink:href="#DejaVuSans-35" x="63.623047"/>
       <use xlink:href="#DejaVuSans-25" x="127.246094"/>
      </g>
     </g>
    </g>
    <g id="ytick_13">
     <g id="line2d_26">
      <g>
       <use xlink:href="#m64e8c85c6f" x="319.759814" y="70.8931" style="stroke: #000000; stroke-width: 0.8"/>
      </g>
     </g>
     <g id="text_28">
      <!-- 20% -->
      <g transform="translate(290.533251 74.692318) scale(0.1 -0.1)">
       <use xlink:href="#DejaVuSans-32"/>
       <use xlink:href="#DejaVuSans-30" x="63.623047"/>
       <use xlink:href="#DejaVuSans-25" x="127.246094"/>
      </g>
     </g>
    </g>
   </g>
   <g id="line2d_27">
    <path d="M 381.770694 318.04 
L 381.770694 10.8 
" clip-path="url(#pb1d292657b)" style="fill: none; stroke-dasharray: 5.55,2.4; stroke-dashoffset: 0; stroke: #800080; stroke-width: 1.5"/>
   </g>
   <g id="patch_69">
    <path d="M 319.759814 318.04 
L 319.759814 10.8 
" style="fill: none; stroke: #000000; stroke-width: 0.8; stroke-linejoin: miter; stroke-linecap: square"/>
   </g>
   <g id="patch_70">
    <path d="M 537.900373 318.04 
L 537.900373 10.8 
" style="fill: none; stroke: #000000; stroke-width: 0.8; stroke-linejoin: miter; stroke-linecap: square"/>
   </g>
   <g id="patch_71">
    <path d="M 319.759814 318.04 
L 537.900373 318.04 
" style="fill: none; stroke: #000000; stroke-width: 0.8; stroke-linejoin: miter; stroke-linecap: square"/>
   </g>
   <g id="patch_72">
    <path d="M 319.759814 10.8 
L 537.900373 10.8 
" style="fill: none; stroke: #000000; stroke-width: 0.8; stroke-linejoin: miter; stroke-linecap: square"/>
   </g>
   <g id="legend_2">
    <g id="patch_73">
     <path d="M 471.653498 33.478125 
L 530.900373 33.478125 
Q 532.900373 33.478125 532.900373 31.478125 
L 532.900373 17.8 
Q 532.900373 15.8 530.900373 15.8 
L 471.653498 15.8 
Q 469.653498 15.8 469.653498 17.8 
L 469.653498 31.478125 
Q 469.653498 33.478125 471.653498 33.478125 
z
" style="fill: #ffffff; opacity: 0.8; stroke: #cccccc; stroke-linejoin: miter"/>
    </g>
    <g id="line2d_28">
     <path d="M 473.653498 23.898438 
L 483.653498 23.898438 
L 493.653498 23.898438 
" style="fill: none; stroke-dasharray: 5.55,2.4; stroke-dashoffset: 0; stroke: #800080; stroke-width: 1.5"/>
    </g>
    <g id="text_29">
     <!-- Mean -->
     <g transform="translate(501.653498 27.398438) scale(0.1 -0.1)">
      <use xlink:href="#DejaVuSans-4d"/>
      <use xlink:href="#DejaVuSans-65" x="86.279297"/>
      <use xlink:href="#DejaVuSans-61" x="147.802734"/>
      <use xlink:href="#DejaVuSans-6e" x="209.082031"/>
     </g>
    </g>
   </g>
  </g>
  <g id="axes_3">
   <g id="patch_74">
    <path d="M 585.409627 318.04 
L 803.550186 318.04 
L 803.550186 10.8 
L 585.409627 10.8 
z
" style="fill: #ffffff"/>
   </g>
   <g id="patch_75">
    <path d="M 595.325107 318.04 
L 601.935427 318.04 
L 601.935427 315.586251 
L 595.325107 315.586251 
z
" clip-path="url(#pcc458e9824)" style="fill: #ffa500; opacity: 0.7"/>
   </g>
   <g id="patch_76">
    <path d="M 601.935427 318.04 
L 608.545747 318.04 
L 608.545747 318.04 
L 601.935427 318.04 
z
" clip-path="url(#pcc458e9824)" style="fill: #ffa500; opacity: 0.7"/>
   </g>
   <g id="patch_77">
    <path d="M 608.545747 318.04 
L 615.156067 318.04 
L 615.156067 318.04 
L 608.545747 318.04 
z
" clip-path="url(#pcc458e9824)" style="fill: #ffa500; opacity: 0.7"/>
   </g>
   <g id="patch_78">
    <path d="M 615.156067 318.04 
L 621.766387 318.04 
L 621.766387 297.183137 
L 615.156067 297.183137 
z
" clip-path="url(#pcc458e9824)" style="fill: #ffa500; opacity: 0.7"/>
   </g>
   <g id="patch_79">
    <path d="M 621.766387 318.04 
L 628.376707 318.04 
L 628.376707 313.132503 
L 621.766387 313.132503 
z
" clip-path="url(#pcc458e9824)" style="fill: #ffa500; opacity: 0.7"/>
   </g>
   <g id="patch_80">
    <path d="M 628.376707 318.04 
L 634.987027 318.04 
L 634.987027 265.897842 
L 628.376707 265.897842 
z
" clip-path="url(#pcc458e9824)" style="fill: #ffa500; opacity: 0.7"/>
   </g>
   <g id="patch_81">
    <path d="M 634.987027 318.04 
L 641.597347 318.04 
L 641.597347 276.93971 
L 634.987027 276.93971 
z
" clip-path="url(#pcc458e9824)" style="fill: #ffa500; opacity: 0.7"/>
   </g>
   <g id="patch_82">
    <path d="M 641.597347 318.04 
L 648.207667 318.04 
L 648.207667 172.041957 
L 641.597347 172.041957 
z
" clip-path="url(#pcc458e9824)" style="fill: #ffa500; opacity: 0.7"/>
   </g>
   <g id="patch_83">
    <path d="M 648.207667 318.04 
L 654.817987 318.04 
L 654.817987 91.681689 
L 648.207667 91.681689 
z
" clip-path="url(#pcc458e9824)" style="fill: #ffa500; opacity: 0.7"/>
   </g>
   <g id="patch_84">
    <path d="M 654.817987 318.04 
L 661.428307 318.04 
L 661.428307 135.849164 
L 654.817987 135.849164 
z
" clip-path="url(#pcc458e9824)" style="fill: #ffa500; opacity: 0.7"/>
   </g>
   <g id="patch_85">
    <path d="M 661.428307 318.04 
L 668.038627 318.04 
L 668.038627 81.866695 
L 661.428307 81.866695 
z
" clip-path="url(#pcc458e9824)" style="fill: #ffa500; opacity: 0.7"/>
   </g>
   <g id="patch_86">
    <path d="M 668.038627 318.04 
L 674.648947 318.04 
L 674.648947 62.236706 
L 668.038627 62.236706 
z
" clip-path="url(#pcc458e9824)" style="fill: #ffa500; opacity: 0.7"/>
   </g>
   <g id="patch_87">
    <path d="M 674.648947 318.04 
L 681.259267 318.04 
L 681.259267 25.430476 
L 674.648947 25.430476 
z
" clip-path="url(#pcc458e9824)" style="fill: #ffa500; opacity: 0.7"/>
   </g>
   <g id="patch_88">
    <path d="M 681.259267 318.04 
L 687.869587 318.04 
L 687.869587 68.371077 
L 681.259267 68.371077 
z
" clip-path="url(#pcc458e9824)" style="fill: #ffa500; opacity: 0.7"/>
   </g>
   <g id="patch_89">
    <path d="M 687.869587 318.04 
L 694.479907 318.04 
L 694.479907 64.077017 
L 687.869587 64.077017 
z
" clip-path="url(#pcc458e9824)" style="fill: #ffa500; opacity: 0.7"/>
   </g>
   <g id="patch_90">
    <path d="M 694.479907 318.04 
L 701.090227 318.04 
L 701.090227 113.765427 
L 694.479907 113.765427 
z
" clip-path="url(#pcc458e9824)" style="fill: #ffa500; opacity: 0.7"/>
   </g>
   <g id="patch_91">
    <path d="M 701.090227 318.04 
L 707.700547 318.04 
L 707.700547 78.186072 
L 701.090227 78.186072 
z
" clip-path="url(#pcc458e9824)" style="fill: #ffa500; opacity: 0.7"/>
   </g>
   <g id="patch_92">
    <path d="M 707.700547 318.04 
L 714.310867 318.04 
L 714.310867 167.134459 
L 707.700547 167.134459 
z
" clip-path="url(#pcc458e9824)" style="fill: #ffa500; opacity: 0.7"/>
   </g>
   <g id="patch_93">
    <path d="M 714.310867 318.04 
L 720.921187 318.04 
L 720.921187 164.067274 
L 714.310867 164.067274 
z
" clip-path="url(#pcc458e9824)" style="fill: #ffa500; opacity: 0.7"/>
   </g>
   <g id="patch_94">
    <path d="M 720.921187 318.04 
L 727.531507 318.04 
L 727.531507 218.049743 
L 720.921187 218.049743 
z
" clip-path="url(#pcc458e9824)" style="fill: #ffa500; opacity: 0.7"/>
   </g>
   <g id="patch_95">
    <path d="M 727.531507 318.04 
L 734.141827 318.04 
L 734.141827 213.755683 
L 727.531507 213.755683 
z
" clip-path="url(#pcc458e9824)" style="fill: #ffa500; opacity: 0.7"/>
   </g>
   <g id="patch_96">
    <path d="M 734.141827 318.04 
L 740.752147 318.04 
L 740.752147 208.848186 
L 734.141827 208.848186 
z
" clip-path="url(#pcc458e9824)" style="fill: #ffa500; opacity: 0.7"/>
   </g>
   <g id="patch_97">
    <path d="M 740.752147 318.04 
L 747.362467 318.04 
L 747.362467 224.184115 
L 740.752147 224.184115 
z
" clip-path="url(#pcc458e9824)" style="fill: #ffa500; opacity: 0.7"/>
   </g>
   <g id="patch_98">
    <path d="M 747.362467 318.04 
L 753.972787 318.04 
L 753.972787 259.76347 
L 747.362467 259.76347 
z
" clip-path="url(#pcc458e9824)" style="fill: #ffa500; opacity: 0.7"/>
   </g>
   <g id="patch_99">
    <path d="M 753.972787 318.04 
L 760.583107 318.04 
L 760.583107 257.309721 
L 753.972787 257.309721 
z
" clip-path="url(#pcc458e9824)" style="fill: #ffa500; opacity: 0.7"/>
   </g>
   <g id="patch_100">
    <path d="M 760.583107 318.04 
L 767.193426 318.04 
L 767.193426 245.654415 
L 760.583107 245.654415 
z
" clip-path="url(#pcc458e9824)" style="fill: #ffa500; opacity: 0.7"/>
   </g>
   <g id="patch_101">
    <path d="M 767.193426 318.04 
L 773.803746 318.04 
L 773.803746 239.520044 
L 767.193426 239.520044 
z
" clip-path="url(#pcc458e9824)" style="fill: #ffa500; opacity: 0.7"/>
   </g>
   <g id="patch_102">
    <path d="M 773.803746 318.04 
L 780.414066 318.04 
L 780.414066 295.342825 
L 773.803746 295.342825 
z
" clip-path="url(#pcc458e9824)" style="fill: #ffa500; opacity: 0.7"/>
   </g>
   <g id="patch_103">
    <path d="M 780.414066 318.04 
L 787.024386 318.04 
L 787.024386 238.906607 
L 780.414066 238.906607 
z
" clip-path="url(#pcc458e9824)" style="fill: #ffa500; opacity: 0.7"/>
   </g>
   <g id="patch_104">
    <path d="M 787.024386 318.04 
L 793.634706 318.04 
L 793.634706 95.362312 
L 787.024386 95.362312 
z
" clip-path="url(#pcc458e9824)" style="fill: #ffa500; opacity: 0.7"/>
   </g>
   <g id="matplotlib.axis_5">
    <g id="xtick_12">
     <g id="line2d_29">
      <g>
       <use xlink:href="#mfd7af516f2" x="586.515275" y="318.04" style="stroke: #000000; stroke-width: 0.8"/>
      </g>
     </g>
     <g id="text_30">
      <!-- 0 -->
      <g transform="translate(583.334025 332.638438) scale(0.1 -0.1)">
       <use xlink:href="#DejaVuSans-30"/>
      </g>
     </g>
    </g>
    <g id="xtick_13">
     <g id="line2d_30">
      <g>
       <use xlink:href="#mfd7af516f2" x="621.035181" y="318.04" style="stroke: #000000; stroke-width: 0.8"/>
      </g>
     </g>
     <g id="text_31">
      <!-- 5000 -->
      <g transform="translate(608.310181 332.638438) scale(0.1 -0.1)">
       <use xlink:href="#DejaVuSans-35"/>
       <use xlink:href="#DejaVuSans-30" x="63.623047"/>
       <use xlink:href="#DejaVuSans-30" x="127.246094"/>
       <use xlink:href="#DejaVuSans-30" x="190.869141"/>
      </g>
     </g>
    </g>
    <g id="xtick_14">
     <g id="line2d_31">
      <g>
       <use xlink:href="#mfd7af516f2" x="655.555088" y="318.04" style="stroke: #000000; stroke-width: 0.8"/>
      </g>
     </g>
     <g id="text_32">
      <!-- 10000 -->
      <g transform="translate(639.648838 332.638438) scale(0.1 -0.1)">
       <use xlink:href="#DejaVuSans-31"/>
       <use xlink:href="#DejaVuSans-30" x="63.623047"/>
       <use xlink:href="#DejaVuSans-30" x="127.246094"/>
       <use xlink:href="#DejaVuSans-30" x="190.869141"/>
       <use xlink:href="#DejaVuSans-30" x="254.492188"/>
      </g>
     </g>
    </g>
    <g id="xtick_15">
     <g id="line2d_32">
      <g>
       <use xlink:href="#mfd7af516f2" x="690.074994" y="318.04" style="stroke: #000000; stroke-width: 0.8"/>
      </g>
     </g>
     <g id="text_33">
      <!-- 15000 -->
      <g transform="translate(674.168744 332.638438) scale(0.1 -0.1)">
       <use xlink:href="#DejaVuSans-31"/>
       <use xlink:href="#DejaVuSans-35" x="63.623047"/>
       <use xlink:href="#DejaVuSans-30" x="127.246094"/>
       <use xlink:href="#DejaVuSans-30" x="190.869141"/>
       <use xlink:href="#DejaVuSans-30" x="254.492188"/>
      </g>
     </g>
    </g>
    <g id="xtick_16">
     <g id="line2d_33">
      <g>
       <use xlink:href="#mfd7af516f2" x="724.594901" y="318.04" style="stroke: #000000; stroke-width: 0.8"/>
      </g>
     </g>
     <g id="text_34">
      <!-- 20000 -->
      <g transform="translate(708.688651 332.638438) scale(0.1 -0.1)">
       <use xlink:href="#DejaVuSans-32"/>
       <use xlink:href="#DejaVuSans-30" x="63.623047"/>
       <use xlink:href="#DejaVuSans-30" x="127.246094"/>
       <use xlink:href="#DejaVuSans-30" x="190.869141"/>
       <use xlink:href="#DejaVuSans-30" x="254.492188"/>
      </g>
     </g>
    </g>
    <g id="xtick_17">
     <g id="line2d_34">
      <g>
       <use xlink:href="#mfd7af516f2" x="759.114807" y="318.04" style="stroke: #000000; stroke-width: 0.8"/>
      </g>
     </g>
     <g id="text_35">
      <!-- 25000 -->
      <g transform="translate(743.208557 332.638438) scale(0.1 -0.1)">
       <use xlink:href="#DejaVuSans-32"/>
       <use xlink:href="#DejaVuSans-35" x="63.623047"/>
       <use xlink:href="#DejaVuSans-30" x="127.246094"/>
       <use xlink:href="#DejaVuSans-30" x="190.869141"/>
       <use xlink:href="#DejaVuSans-30" x="254.492188"/>
      </g>
     </g>
    </g>
    <g id="xtick_18">
     <g id="line2d_35">
      <g>
       <use xlink:href="#mfd7af516f2" x="793.634713" y="318.04" style="stroke: #000000; stroke-width: 0.8"/>
      </g>
     </g>
     <g id="text_36">
      <!-- 30000 -->
      <g transform="translate(777.728463 332.638438) scale(0.1 -0.1)">
       <use xlink:href="#DejaVuSans-33"/>
       <use xlink:href="#DejaVuSans-30" x="63.623047"/>
       <use xlink:href="#DejaVuSans-30" x="127.246094"/>
       <use xlink:href="#DejaVuSans-30" x="190.869141"/>
       <use xlink:href="#DejaVuSans-30" x="254.492188"/>
      </g>
     </g>
    </g>
    <g id="text_37">
     <!-- Gas Used per Block (K) -->
     <g transform="translate(637.055688 346.316563) scale(0.1 -0.1)">
      <defs>
       <path id="DejaVuSans-47" d="M 3809 666 
L 3809 1919 
L 2778 1919 
L 2778 2438 
L 4434 2438 
L 4434 434 
Q 4069 175 3628 42 
Q 3188 -91 2688 -91 
Q 1594 -91 976 548 
Q 359 1188 359 2328 
Q 359 3472 976 4111 
Q 1594 4750 2688 4750 
Q 3144 4750 3555 4637 
Q 3966 4525 4313 4306 
L 4313 3634 
Q 3963 3931 3569 4081 
Q 3175 4231 2741 4231 
Q 1884 4231 1454 3753 
Q 1025 3275 1025 2328 
Q 1025 1384 1454 906 
Q 1884 428 2741 428 
Q 3075 428 3337 486 
Q 3600 544 3809 666 
z
" transform="scale(0.015625)"/>
       <path id="DejaVuSans-55" d="M 556 4666 
L 1191 4666 
L 1191 1831 
Q 1191 1081 1462 751 
Q 1734 422 2344 422 
Q 2950 422 3222 751 
Q 3494 1081 3494 1831 
L 3494 4666 
L 4128 4666 
L 4128 1753 
Q 4128 841 3676 375 
Q 3225 -91 2344 -91 
Q 1459 -91 1007 375 
Q 556 841 556 1753 
L 556 4666 
z
" transform="scale(0.015625)"/>
       <path id="DejaVuSans-64" d="M 2906 2969 
L 2906 4863 
L 3481 4863 
L 3481 0 
L 2906 0 
L 2906 525 
Q 2725 213 2448 61 
Q 2172 -91 1784 -91 
Q 1150 -91 751 415 
Q 353 922 353 1747 
Q 353 2572 751 3078 
Q 1150 3584 1784 3584 
Q 2172 3584 2448 3432 
Q 2725 3281 2906 2969 
z
M 947 1747 
Q 947 1113 1208 752 
Q 1469 391 1925 391 
Q 2381 391 2643 752 
Q 2906 1113 2906 1747 
Q 2906 2381 2643 2742 
Q 2381 3103 1925 3103 
Q 1469 3103 1208 2742 
Q 947 2381 947 1747 
z
" transform="scale(0.015625)"/>
       <path id="DejaVuSans-70" d="M 1159 525 
L 1159 -1331 
L 581 -1331 
L 581 3500 
L 1159 3500 
L 1159 2969 
Q 1341 3281 1617 3432 
Q 1894 3584 2278 3584 
Q 2916 3584 3314 3078 
Q 3713 2572 3713 1747 
Q 3713 922 3314 415 
Q 2916 -91 2278 -91 
Q 1894 -91 1617 61 
Q 1341 213 1159 525 
z
M 3116 1747 
Q 3116 2381 2855 2742 
Q 2594 3103 2138 3103 
Q 1681 3103 1420 2742 
Q 1159 2381 1159 1747 
Q 1159 1113 1420 752 
Q 1681 391 2138 391 
Q 2594 391 2855 752 
Q 3116 1113 3116 1747 
z
" transform="scale(0.015625)"/>
      </defs>
      <use xlink:href="#DejaVuSans-47"/>
      <use xlink:href="#DejaVuSans-61" x="77.490234"/>
      <use xlink:href="#DejaVuSans-73" x="138.769531"/>
      <use xlink:href="#DejaVuSans-20" x="190.869141"/>
      <use xlink:href="#DejaVuSans-55" x="222.65625"/>
      <use xlink:href="#DejaVuSans-73" x="295.849609"/>
      <use xlink:href="#DejaVuSans-65" x="347.949219"/>
      <use xlink:href="#DejaVuSans-64" x="409.472656"/>
      <use xlink:href="#DejaVuSans-20" x="472.949219"/>
      <use xlink:href="#DejaVuSans-70" x="504.736328"/>
      <use xlink:href="#DejaVuSans-65" x="568.212891"/>
      <use xlink:href="#DejaVuSans-72" x="629.736328"/>
      <use xlink:href="#DejaVuSans-20" x="670.849609"/>
      <use xlink:href="#DejaVuSans-42" x="702.636719"/>
      <use xlink:href="#DejaVuSans-6c" x="771.240234"/>
      <use xlink:href="#DejaVuSans-6f" x="799.023438"/>
      <use xlink:href="#DejaVuSans-63" x="860.205078"/>
      <use xlink:href="#DejaVuSans-6b" x="915.185547"/>
      <use xlink:href="#DejaVuSans-20" x="973.095703"/>
      <use xlink:href="#DejaVuSans-28" x="1004.882812"/>
      <use xlink:href="#DejaVuSans-4b" x="1043.896484"/>
      <use xlink:href="#DejaVuSans-29" x="1109.472656"/>
     </g>
    </g>
   </g>
   <g id="matplotlib.axis_6">
    <g id="ytick_14">
     <g id="line2d_36">
      <g>
       <use xlink:href="#m64e8c85c6f" x="585.409627" y="318.04" style="stroke: #000000; stroke-width: 0.8"/>
      </g>
     </g>
     <g id="text_38">
      <!-- 0% -->
      <g transform="translate(562.545565 321.839219) scale(0.1 -0.1)">
       <use xlink:href="#DejaVuSans-30"/>
       <use xlink:href="#DejaVuSans-25" x="63.623047"/>
      </g>
     </g>
    </g>
    <g id="ytick_15">
     <g id="line2d_37">
      <g>
       <use xlink:href="#m64e8c85c6f" x="585.409627" y="280.890246" style="stroke: #000000; stroke-width: 0.8"/>
      </g>
     </g>
     <g id="text_39">
      <!-- 1% -->
      <g transform="translate(562.545565 284.689465) scale(0.1 -0.1)">
       <use xlink:href="#DejaVuSans-31"/>
       <use xlink:href="#DejaVuSans-25" x="63.623047"/>
      </g>
     </g>
    </g>
    <g id="ytick_16">
     <g id="line2d_38">
      <g>
       <use xlink:href="#m64e8c85c6f" x="585.409627" y="243.740492" style="stroke: #000000; stroke-width: 0.8"/>
      </g>
     </g>
     <g id="text_40">
      <!-- 2% -->
      <g transform="translate(562.545565 247.53971) scale(0.1 -0.1)">
       <use xlink:href="#DejaVuSans-32"/>
       <use xlink:href="#DejaVuSans-25" x="63.623047"/>
      </g>
     </g>
    </g>
    <g id="ytick_17">
     <g id="line2d_39">
      <g>
       <use xlink:href="#m64e8c85c6f" x="585.409627" y="206.590737" style="stroke: #000000; stroke-width: 0.8"/>
      </g>
     </g>
     <g id="text_41">
      <!-- 3% -->
      <g transform="translate(562.545565 210.389956) scale(0.1 -0.1)">
       <use xlink:href="#DejaVuSans-33"/>
       <use xlink:href="#DejaVuSans-25" x="63.623047"/>
      </g>
     </g>
    </g>
    <g id="ytick_18">
     <g id="line2d_40">
      <g>
       <use xlink:href="#m64e8c85c6f" x="585.409627" y="169.440983" style="stroke: #000000; stroke-width: 0.8"/>
      </g>
     </g>
     <g id="text_42">
      <!-- 4% -->
      <g transform="translate(562.545565 173.240202) scale(0.1 -0.1)">
       <use xlink:href="#DejaVuSans-34"/>
       <use xlink:href="#DejaVuSans-25" x="63.623047"/>
      </g>
     </g>
    </g>
    <g id="ytick_19">
     <g id="line2d_41">
      <g>
       <use xlink:href="#m64e8c85c6f" x="585.409627" y="132.291229" style="stroke: #000000; stroke-width: 0.8"/>
      </g>
     </g>
     <g id="text_43">
      <!-- 5% -->
      <g transform="translate(562.545565 136.090448) scale(0.1 -0.1)">
       <use xlink:href="#DejaVuSans-35"/>
       <use xlink:href="#DejaVuSans-25" x="63.623047"/>
      </g>
     </g>
    </g>
    <g id="ytick_20">
     <g id="line2d_42">
      <g>
       <use xlink:href="#m64e8c85c6f" x="585.409627" y="95.141475" style="stroke: #000000; stroke-width: 0.8"/>
      </g>
     </g>
     <g id="text_44">
      <!-- 6% -->
      <g transform="translate(562.545565 98.940693) scale(0.1 -0.1)">
       <use xlink:href="#DejaVuSans-36"/>
       <use xlink:href="#DejaVuSans-25" x="63.623047"/>
      </g>
     </g>
    </g>
    <g id="ytick_21">
     <g id="line2d_43">
      <g>
       <use xlink:href="#m64e8c85c6f" x="585.409627" y="57.99172" style="stroke: #000000; stroke-width: 0.8"/>
      </g>
     </g>
     <g id="text_45">
      <!-- 7% -->
      <g transform="translate(562.545565 61.790939) scale(0.1 -0.1)">
       <defs>
        <path id="DejaVuSans-37" d="M 525 4666 
L 3525 4666 
L 3525 4397 
L 1831 0 
L 1172 0 
L 2766 4134 
L 525 4134 
L 525 4666 
z
" transform="scale(0.015625)"/>
       </defs>
       <use xlink:href="#DejaVuSans-37"/>
       <use xlink:href="#DejaVuSans-25" x="63.623047"/>
      </g>
     </g>
    </g>
    <g id="ytick_22">
     <g id="line2d_44">
      <g>
       <use xlink:href="#m64e8c85c6f" x="585.409627" y="20.841966" style="stroke: #000000; stroke-width: 0.8"/>
      </g>
     </g>
     <g id="text_46">
      <!-- 8% -->
      <g transform="translate(562.545565 24.641185) scale(0.1 -0.1)">
       <use xlink:href="#DejaVuSans-38"/>
       <use xlink:href="#DejaVuSans-25" x="63.623047"/>
      </g>
     </g>
    </g>
   </g>
   <g id="line2d_45">
    <path d="M 700.440999 318.04 
L 700.440999 10.8 
" clip-path="url(#pcc458e9824)" style="fill: none; stroke-dasharray: 5.55,2.4; stroke-dashoffset: 0; stroke: #a52a2a; stroke-width: 1.5"/>
   </g>
   <g id="patch_105">
    <path d="M 585.409627 318.04 
L 585.409627 10.8 
" style="fill: none; stroke: #000000; stroke-width: 0.8; stroke-linejoin: miter; stroke-linecap: square"/>
   </g>
   <g id="patch_106">
    <path d="M 803.550186 318.04 
L 803.550186 10.8 
" style="fill: none; stroke: #000000; stroke-width: 0.8; stroke-linejoin: miter; stroke-linecap: square"/>
   </g>
   <g id="patch_107">
    <path d="M 585.409627 318.04 
L 803.550186 318.04 
" style="fill: none; stroke: #000000; stroke-width: 0.8; stroke-linejoin: miter; stroke-linecap: square"/>
   </g>
   <g id="patch_108">
    <path d="M 585.409627 10.8 
L 803.550186 10.8 
" style="fill: none; stroke: #000000; stroke-width: 0.8; stroke-linejoin: miter; stroke-linecap: square"/>
   </g>
   <g id="legend_3">
    <g id="patch_109">
     <path d="M 737.303311 33.478125 
L 796.550186 33.478125 
Q 798.550186 33.478125 798.550186 31.478125 
L 798.550186 17.8 
Q 798.550186 15.8 796.550186 15.8 
L 737.303311 15.8 
Q 735.303311 15.8 735.303311 17.8 
L 735.303311 31.478125 
Q 735.303311 33.478125 737.303311 33.478125 
z
" style="fill: #ffffff; opacity: 0.8; stroke: #cccccc; stroke-linejoin: miter"/>
    </g>
    <g id="line2d_46">
     <path d="M 739.303311 23.898438 
L 749.303311 23.898438 
L 759.303311 23.898438 
" style="fill: none; stroke-dasharray: 5.55,2.4; stroke-dashoffset: 0; stroke: #a52a2a; stroke-width: 1.5"/>
    </g>
    <g id="text_47">
     <!-- Mean -->
     <g transform="translate(767.303311 27.398438) scale(0.1 -0.1)">
      <use xlink:href="#DejaVuSans-4d"/>
      <use xlink:href="#DejaVuSans-65" x="86.279297"/>
      <use xlink:href="#DejaVuSans-61" x="147.802734"/>
      <use xlink:href="#DejaVuSans-6e" x="209.082031"/>
     </g>
    </g>
   </g>
  </g>
  <g id="axes_4">
   <g id="patch_110">
    <path d="M 851.059441 318.04 
L 1069.2 318.04 
L 1069.2 10.8 
L 851.059441 10.8 
z
" style="fill: #ffffff"/>
   </g>
   <g id="patch_111">
    <path d="M 860.974921 318.04 
L 867.585241 318.04 
L 867.585241 25.430476 
L 860.974921 25.430476 
z
" clip-path="url(#p9e82031b35)" style="fill: #800080; opacity: 0.7"/>
   </g>
   <g id="patch_112">
    <path d="M 867.585241 318.04 
L 874.195561 318.04 
L 874.195561 230.288041 
L 867.585241 230.288041 
z
" clip-path="url(#p9e82031b35)" style="fill: #800080; opacity: 0.7"/>
   </g>
   <g id="patch_113">
    <path d="M 874.195561 318.04 
L 880.805881 318.04 
L 880.805881 243.57443 
L 874.195561 243.57443 
z
" clip-path="url(#p9e82031b35)" style="fill: #800080; opacity: 0.7"/>
   </g>
   <g id="patch_114">
    <path d="M 880.805881 318.04 
L 887.416201 318.04 
L 887.416201 153.968556 
L 880.805881 153.968556 
z
" clip-path="url(#p9e82031b35)" style="fill: #800080; opacity: 0.7"/>
   </g>
   <g id="patch_115">
    <path d="M 887.416201 318.04 
L 894.026521 318.04 
L 894.026521 80.429943 
L 887.416201 80.429943 
z
" clip-path="url(#p9e82031b35)" style="fill: #800080; opacity: 0.7"/>
   </g>
   <g id="patch_116">
    <path d="M 894.026521 318.04 
L 900.636841 318.04 
L 900.636841 102.367933 
L 894.026521 102.367933 
z
" clip-path="url(#p9e82031b35)" style="fill: #800080; opacity: 0.7"/>
   </g>
   <g id="patch_117">
    <path d="M 900.636841 318.04 
L 907.247161 318.04 
L 907.247161 157.676386 
L 900.636841 157.676386 
z
" clip-path="url(#p9e82031b35)" style="fill: #800080; opacity: 0.7"/>
   </g>
   <g id="patch_118">
    <path d="M 907.247161 318.04 
L 913.857481 318.04 
L 913.857481 235.849785 
L 907.247161 235.849785 
z
" clip-path="url(#p9e82031b35)" style="fill: #800080; opacity: 0.7"/>
   </g>
   <g id="patch_119">
    <path d="M 913.857481 318.04 
L 920.467801 318.04 
L 920.467801 213.293824 
L 913.857481 213.293824 
z
" clip-path="url(#p9e82031b35)" style="fill: #800080; opacity: 0.7"/>
   </g>
   <g id="patch_120">
    <path d="M 920.467801 318.04 
L 927.078121 318.04 
L 927.078121 279.725765 
L 920.467801 279.725765 
z
" clip-path="url(#p9e82031b35)" style="fill: #800080; opacity: 0.7"/>
   </g>
   <g id="patch_121">
    <path d="M 927.078121 318.04 
L 933.688441 318.04 
L 933.688441 257.787775 
L 927.078121 257.787775 
z
" clip-path="url(#p9e82031b35)" style="fill: #800080; opacity: 0.7"/>
   </g>
   <g id="patch_122">
    <path d="M 933.688441 318.04 
L 940.298761 318.04 
L 940.298761 250.681102 
L 933.688441 250.681102 
z
" clip-path="url(#p9e82031b35)" style="fill: #800080; opacity: 0.7"/>
   </g>
   <g id="patch_123">
    <path d="M 940.298761 318.04 
L 946.909081 318.04 
L 946.909081 283.124608 
L 940.298761 283.124608 
z
" clip-path="url(#p9e82031b35)" style="fill: #800080; opacity: 0.7"/>
   </g>
   <g id="patch_124">
    <path d="M 946.909081 318.04 
L 953.519401 318.04 
L 953.519401 282.197651 
L 946.909081 282.197651 
z
" clip-path="url(#p9e82031b35)" style="fill: #800080; opacity: 0.7"/>
   </g>
   <g id="patch_125">
    <path d="M 953.519401 318.04 
L 960.129721 318.04 
L 960.129721 288.377366 
L 953.519401 288.377366 
z
" clip-path="url(#p9e82031b35)" style="fill: #800080; opacity: 0.7"/>
   </g>
   <g id="patch_126">
    <path d="M 960.129721 318.04 
L 966.740041 318.04 
L 966.740041 291.77621 
L 960.129721 291.77621 
z
" clip-path="url(#p9e82031b35)" style="fill: #800080; opacity: 0.7"/>
   </g>
   <g id="patch_127">
    <path d="M 966.740041 318.04 
L 973.35036 318.04 
L 973.35036 282.506636 
L 966.740041 282.506636 
z
" clip-path="url(#p9e82031b35)" style="fill: #800080; opacity: 0.7"/>
   </g>
   <g id="patch_128">
    <path d="M 973.35036 318.04 
L 979.96068 318.04 
L 979.96068 295.484039 
L 973.35036 295.484039 
z
" clip-path="url(#p9e82031b35)" style="fill: #800080; opacity: 0.7"/>
   </g>
   <g id="patch_129">
    <path d="M 979.96068 318.04 
L 986.571 318.04 
L 986.571 297.955925 
L 979.96068 297.955925 
z
" clip-path="url(#p9e82031b35)" style="fill: #800080; opacity: 0.7"/>
   </g>
   <g id="patch_130">
    <path d="M 986.571 318.04 
L 993.18132 318.04 
L 993.18132 309.697384 
L 986.571 309.697384 
z
" clip-path="url(#p9e82031b35)" style="fill: #800080; opacity: 0.7"/>
   </g>
   <g id="patch_131">
    <path d="M 993.18132 318.04 
L 999.79164 318.04 
L 999.79164 312.478256 
L 993.18132 312.478256 
z
" clip-path="url(#p9e82031b35)" style="fill: #800080; opacity: 0.7"/>
   </g>
   <g id="patch_132">
    <path d="M 999.79164 318.04 
L 1006.40196 318.04 
L 1006.40196 302.281726 
L 999.79164 302.281726 
z
" clip-path="url(#p9e82031b35)" style="fill: #800080; opacity: 0.7"/>
   </g>
   <g id="patch_133">
    <path d="M 1006.40196 318.04 
L 1013.01228 318.04 
L 1013.01228 293.630124 
L 1006.40196 293.630124 
z
" clip-path="url(#p9e82031b35)" style="fill: #800080; opacity: 0.7"/>
   </g>
   <g id="patch_134">
    <path d="M 1013.01228 318.04 
L 1019.6226 318.04 
L 1019.6226 307.534484 
L 1013.01228 307.534484 
z
" clip-path="url(#p9e82031b35)" style="fill: #800080; opacity: 0.7"/>
   </g>
   <g id="patch_135">
    <path d="M 1019.6226 318.04 
L 1026.23292 318.04 
L 1026.23292 315.8771 
L 1019.6226 315.8771 
z
" clip-path="url(#p9e82031b35)" style="fill: #800080; opacity: 0.7"/>
   </g>
   <g id="patch_136">
    <path d="M 1026.23292 318.04 
L 1032.84324 318.04 
L 1032.84324 318.04 
L 1026.23292 318.04 
z
" clip-path="url(#p9e82031b35)" style="fill: #800080; opacity: 0.7"/>
   </g>
   <g id="patch_137">
    <path d="M 1032.84324 318.04 
L 1039.45356 318.04 
L 1039.45356 318.04 
L 1032.84324 318.04 
z
" clip-path="url(#p9e82031b35)" style="fill: #800080; opacity: 0.7"/>
   </g>
   <g id="patch_138">
    <path d="M 1039.45356 318.04 
L 1046.06388 318.04 
L 1046.06388 318.04 
L 1039.45356 318.04 
z
" clip-path="url(#p9e82031b35)" style="fill: #800080; opacity: 0.7"/>
   </g>
   <g id="patch_139">
    <path d="M 1046.06388 318.04 
L 1052.6742 318.04 
L 1052.6742 305.680569 
L 1046.06388 305.680569 
z
" clip-path="url(#p9e82031b35)" style="fill: #800080; opacity: 0.7"/>
   </g>
   <g id="patch_140">
    <path d="M 1052.6742 318.04 
L 1059.28452 318.04 
L 1059.28452 316.186085 
L 1052.6742 316.186085 
z
" clip-path="url(#p9e82031b35)" style="fill: #800080; opacity: 0.7"/>
   </g>
   <g id="matplotlib.axis_7">
    <g id="xtick_19">
     <g id="line2d_47">
      <g>
       <use xlink:href="#mfd7af516f2" x="858.685378" y="318.04" style="stroke: #000000; stroke-width: 0.8"/>
      </g>
     </g>
     <g id="text_48">
      <!-- 0 -->
      <g transform="translate(855.504128 332.638438) scale(0.1 -0.1)">
       <use xlink:href="#DejaVuSans-30"/>
      </g>
     </g>
    </g>
    <g id="xtick_20">
     <g id="line2d_48">
      <g>
       <use xlink:href="#mfd7af516f2" x="896.829606" y="318.04" style="stroke: #000000; stroke-width: 0.8"/>
      </g>
     </g>
     <g id="text_49">
      <!-- 25 -->
      <g transform="translate(890.467106 332.638438) scale(0.1 -0.1)">
       <use xlink:href="#DejaVuSans-32"/>
       <use xlink:href="#DejaVuSans-35" x="63.623047"/>
      </g>
     </g>
    </g>
    <g id="xtick_21">
     <g id="line2d_49">
      <g>
       <use xlink:href="#mfd7af516f2" x="934.973833" y="318.04" style="stroke: #000000; stroke-width: 0.8"/>
      </g>
     </g>
     <g id="text_50">
      <!-- 50 -->
      <g transform="translate(928.611333 332.638438) scale(0.1 -0.1)">
       <use xlink:href="#DejaVuSans-35"/>
       <use xlink:href="#DejaVuSans-30" x="63.623047"/>
      </g>
     </g>
    </g>
    <g id="xtick_22">
     <g id="line2d_50">
      <g>
       <use xlink:href="#mfd7af516f2" x="973.118061" y="318.04" style="stroke: #000000; stroke-width: 0.8"/>
      </g>
     </g>
     <g id="text_51">
      <!-- 75 -->
      <g transform="translate(966.755561 332.638438) scale(0.1 -0.1)">
       <use xlink:href="#DejaVuSans-37"/>
       <use xlink:href="#DejaVuSans-35" x="63.623047"/>
      </g>
     </g>
    </g>
    <g id="xtick_23">
     <g id="line2d_51">
      <g>
       <use xlink:href="#mfd7af516f2" x="1011.262289" y="318.04" style="stroke: #000000; stroke-width: 0.8"/>
      </g>
     </g>
     <g id="text_52">
      <!-- 100 -->
      <g transform="translate(1001.718539 332.638438) scale(0.1 -0.1)">
       <use xlink:href="#DejaVuSans-31"/>
       <use xlink:href="#DejaVuSans-30" x="63.623047"/>
       <use xlink:href="#DejaVuSans-30" x="127.246094"/>
      </g>
     </g>
    </g>
    <g id="xtick_24">
     <g id="line2d_52">
      <g>
       <use xlink:href="#mfd7af516f2" x="1049.406517" y="318.04" style="stroke: #000000; stroke-width: 0.8"/>
      </g>
     </g>
     <g id="text_53">
      <!-- 125 -->
      <g transform="translate(1039.862767 332.638438) scale(0.1 -0.1)">
       <use xlink:href="#DejaVuSans-31"/>
       <use xlink:href="#DejaVuSans-32" x="63.623047"/>
       <use xlink:href="#DejaVuSans-35" x="127.246094"/>
      </g>
     </g>
    </g>
    <g id="text_54">
     <!-- Gas Price (Gwei) -->
     <g transform="translate(918.880502 346.316563) scale(0.1 -0.1)">
      <defs>
       <path id="DejaVuSans-77" d="M 269 3500 
L 844 3500 
L 1563 769 
L 2278 3500 
L 2956 3500 
L 3675 769 
L 4391 3500 
L 4966 3500 
L 4050 0 
L 3372 0 
L 2619 2869 
L 1863 0 
L 1184 0 
L 269 3500 
z
" transform="scale(0.015625)"/>
      </defs>
      <use xlink:href="#DejaVuSans-47"/>
      <use xlink:href="#DejaVuSans-61" x="77.490234"/>
      <use xlink:href="#DejaVuSans-73" x="138.769531"/>
      <use xlink:href="#DejaVuSans-20" x="190.869141"/>
      <use xlink:href="#DejaVuSans-50" x="222.65625"/>
      <use xlink:href="#DejaVuSans-72" x="281.208984"/>
      <use xlink:href="#DejaVuSans-69" x="322.322266"/>
      <use xlink:href="#DejaVuSans-63" x="350.105469"/>
      <use xlink:href="#DejaVuSans-65" x="405.085938"/>
      <use xlink:href="#DejaVuSans-20" x="466.609375"/>
      <use xlink:href="#DejaVuSans-28" x="498.396484"/>
      <use xlink:href="#DejaVuSans-47" x="537.410156"/>
      <use xlink:href="#DejaVuSans-77" x="614.900391"/>
      <use xlink:href="#DejaVuSans-65" x="696.6875"/>
      <use xlink:href="#DejaVuSans-69" x="758.210938"/>
      <use xlink:href="#DejaVuSans-29" x="785.994141"/>
     </g>
    </g>
   </g>
   <g id="matplotlib.axis_8">
    <g id="ytick_23">
     <g id="line2d_53">
      <g>
       <use xlink:href="#m64e8c85c6f" x="851.059441" y="318.04" style="stroke: #000000; stroke-width: 0.8"/>
      </g>
     </g>
     <g id="text_55">
      <!-- 0% -->
      <g transform="translate(828.195379 321.839219) scale(0.1 -0.1)">
       <use xlink:href="#DejaVuSans-30"/>
       <use xlink:href="#DejaVuSans-25" x="63.623047"/>
      </g>
     </g>
    </g>
    <g id="ytick_24">
     <g id="line2d_54">
      <g>
       <use xlink:href="#m64e8c85c6f" x="851.059441" y="280.615644" style="stroke: #000000; stroke-width: 0.8"/>
      </g>
     </g>
     <g id="text_56">
      <!-- 2% -->
      <g transform="translate(828.195379 284.414862) scale(0.1 -0.1)">
       <use xlink:href="#DejaVuSans-32"/>
       <use xlink:href="#DejaVuSans-25" x="63.623047"/>
      </g>
     </g>
    </g>
    <g id="ytick_25">
     <g id="line2d_55">
      <g>
       <use xlink:href="#m64e8c85c6f" x="851.059441" y="243.191287" style="stroke: #000000; stroke-width: 0.8"/>
      </g>
     </g>
     <g id="text_57">
      <!-- 4% -->
      <g transform="translate(828.195379 246.990506) scale(0.1 -0.1)">
       <use xlink:href="#DejaVuSans-34"/>
       <use xlink:href="#DejaVuSans-25" x="63.623047"/>
      </g>
     </g>
    </g>
    <g id="ytick_26">
     <g id="line2d_56">
      <g>
       <use xlink:href="#m64e8c85c6f" x="851.059441" y="205.766931" style="stroke: #000000; stroke-width: 0.8"/>
      </g>
     </g>
     <g id="text_58">
      <!-- 6% -->
      <g transform="translate(828.195379 209.56615) scale(0.1 -0.1)">
       <use xlink:href="#DejaVuSans-36"/>
       <use xlink:href="#DejaVuSans-25" x="63.623047"/>
      </g>
     </g>
    </g>
    <g id="ytick_27">
     <g id="line2d_57">
      <g>
       <use xlink:href="#m64e8c85c6f" x="851.059441" y="168.342574" style="stroke: #000000; stroke-width: 0.8"/>
      </g>
     </g>
     <g id="text_59">
      <!-- 8% -->
      <g transform="translate(828.195379 172.141793) scale(0.1 -0.1)">
       <use xlink:href="#DejaVuSans-38"/>
       <use xlink:href="#DejaVuSans-25" x="63.623047"/>
      </g>
     </g>
    </g>
    <g id="ytick_28">
     <g id="line2d_58">
      <g>
       <use xlink:href="#m64e8c85c6f" x="851.059441" y="130.918218" style="stroke: #000000; stroke-width: 0.8"/>
      </g>
     </g>
     <g id="text_60">
      <!-- 10% -->
      <g transform="translate(821.832879 134.717437) scale(0.1 -0.1)">
       <use xlink:href="#DejaVuSans-31"/>
       <use xlink:href="#DejaVuSans-30" x="63.623047"/>
       <use xlink:href="#DejaVuSans-25" x="127.246094"/>
      </g>
     </g>
    </g>
    <g id="ytick_29">
     <g id="line2d_59">
      <g>
       <use xlink:href="#m64e8c85c6f" x="851.059441" y="93.493862" style="stroke: #000000; stroke-width: 0.8"/>
      </g>
     </g>
     <g id="text_61">
      <!-- 12% -->
      <g transform="translate(821.832879 97.29308) scale(0.1 -0.1)">
       <use xlink:href="#DejaVuSans-31"/>
       <use xlink:href="#DejaVuSans-32" x="63.623047"/>
       <use xlink:href="#DejaVuSans-25" x="127.246094"/>
      </g>
     </g>
    </g>
    <g id="ytick_30">
     <g id="line2d_60">
      <g>
       <use xlink:href="#m64e8c85c6f" x="851.059441" y="56.069505" style="stroke: #000000; stroke-width: 0.8"/>
      </g>
     </g>
     <g id="text_62">
      <!-- 14% -->
      <g transform="translate(821.832879 59.868724) scale(0.1 -0.1)">
       <use xlink:href="#DejaVuSans-31"/>
       <use xlink:href="#DejaVuSans-34" x="63.623047"/>
       <use xlink:href="#DejaVuSans-25" x="127.246094"/>
      </g>
     </g>
    </g>
    <g id="ytick_31">
     <g id="line2d_61">
      <g>
       <use xlink:href="#m64e8c85c6f" x="851.059441" y="18.645149" style="stroke: #000000; stroke-width: 0.8"/>
      </g>
     </g>
     <g id="text_63">
      <!-- 16% -->
      <g transform="translate(821.832879 22.444367) scale(0.1 -0.1)">
       <use xlink:href="#DejaVuSans-31"/>
       <use xlink:href="#DejaVuSans-36" x="63.623047"/>
       <use xlink:href="#DejaVuSans-25" x="127.246094"/>
      </g>
     </g>
    </g>
   </g>
   <g id="line2d_62">
    <path d="M 905.269574 318.04 
L 905.269574 10.8 
" clip-path="url(#p9e82031b35)" style="fill: none; stroke-dasharray: 5.55,2.4; stroke-dashoffset: 0; stroke: #000000; stroke-width: 1.5"/>
   </g>
   <g id="patch_141">
    <path d="M 851.059441 318.04 
L 851.059441 10.8 
" style="fill: none; stroke: #000000; stroke-width: 0.8; stroke-linejoin: miter; stroke-linecap: square"/>
   </g>
   <g id="patch_142">
    <path d="M 1069.2 318.04 
L 1069.2 10.8 
" style="fill: none; stroke: #000000; stroke-width: 0.8; stroke-linejoin: miter; stroke-linecap: square"/>
   </g>
   <g id="patch_143">
    <path d="M 851.059441 318.04 
L 1069.2 318.04 
" style="fill: none; stroke: #000000; stroke-width: 0.8; stroke-linejoin: miter; stroke-linecap: square"/>
   </g>
   <g id="patch_144">
    <path d="M 851.059441 10.8 
L 1069.2 10.8 
" style="fill: none; stroke: #000000; stroke-width: 0.8; stroke-linejoin: miter; stroke-linecap: square"/>
   </g>
   <g id="legend_4">
    <g id="patch_145">
     <path d="M 1002.953125 33.478125 
L 1062.2 33.478125 
Q 1064.2 33.478125 1064.2 31.478125 
L 1064.2 17.8 
Q 1064.2 15.8 1062.2 15.8 
L 1002.953125 15.8 
Q 1000.953125 15.8 1000.953125 17.8 
L 1000.953125 31.478125 
Q 1000.953125 33.478125 1002.953125 33.478125 
z
" style="fill: #ffffff; opacity: 0.8; stroke: #cccccc; stroke-linejoin: miter"/>
    </g>
    <g id="line2d_63">
     <path d="M 1004.953125 23.898438 
L 1014.953125 23.898438 
L 1024.953125 23.898438 
" style="fill: none; stroke-dasharray: 5.55,2.4; stroke-dashoffset: 0; stroke: #000000; stroke-width: 1.5"/>
    </g>
    <g id="text_64">
     <!-- Mean -->
     <g transform="translate(1032.953125 27.398438) scale(0.1 -0.1)">
      <use xlink:href="#DejaVuSans-4d"/>
      <use xlink:href="#DejaVuSans-65" x="86.279297"/>
      <use xlink:href="#DejaVuSans-61" x="147.802734"/>
      <use xlink:href="#DejaVuSans-6e" x="209.082031"/>
     </g>
    </g>
   </g>
  </g>
 </g>
 <defs>
  <clipPath id="p102a8f906c">
   <rect x="54.11" y="10.8" width="218.140559" height="307.24"/>
  </clipPath>
  <clipPath id="pb1d292657b">
   <rect x="319.759814" y="10.8" width="218.140559" height="307.24"/>
  </clipPath>
  <clipPath id="pcc458e9824">
   <rect x="585.409627" y="10.8" width="218.140559" height="307.24"/>
  </clipPath>
  <clipPath id="p9e82031b35">
   <rect x="851.059441" y="10.8" width="218.140559" height="307.24"/>
  </clipPath>
 </defs>
</svg>
