<?xml version="1.0" encoding="utf-8" standalone="no"?>
<!DOCTYPE svg PUBLIC "-//W3C//DTD SVG 1.1//EN"
  "http://www.w3.org/Graphics/SVG/1.1/DTD/svg11.dtd">
<svg xmlns:xlink="http://www.w3.org/1999/xlink" width="288pt" height="360pt" viewBox="0 0 288 360" xmlns="http://www.w3.org/2000/svg" version="1.1">
 <metadata>
  <rdf:RDF xmlns:dc="http://purl.org/dc/elements/1.1/" xmlns:cc="http://creativecommons.org/ns#" xmlns:rdf="http://www.w3.org/1999/02/22-rdf-syntax-ns#">
   <cc:Work>
    <dc:type rdf:resource="http://purl.org/dc/dcmitype/StillImage"/>
    <dc:date>2024-10-13T12:46:29.154454</dc:date>
    <dc:format>image/svg+xml</dc:format>
    <dc:creator>
     <cc:Agent>
      <dc:title>Matplotlib v3.8.0, https://matplotlib.org/</dc:title>
     </cc:Agent>
    </dc:creator>
   </cc:Work>
  </rdf:RDF>
 </metadata>
 <defs>
  <style type="text/css">*{stroke-linejoin: round; stroke-linecap: butt}</style>
 </defs>
 <g id="figure_1">
  <g id="patch_1">
   <path d="M 0 360 
L 288 360 
L 288 0 
L 0 0 
z
" style="fill: #ffffff"/>
  </g>
  <g id="axes_1">
   <g id="patch_2">
    <path d="M 54.02 101.933333 
L 277.2 101.933333 
L 277.2 14.76 
L 54.02 14.76 
z
" style="fill: #ffffff"/>
   </g>
   <g id="matplotlib.axis_1">
    <g id="xtick_1">
     <g id="line2d_1">
      <defs>
       <path id="m754ae33a92" d="M 0 0 
L 0 3.5 
" style="stroke: #000000; stroke-width: 0.8"/>
      </defs>
      <g>
       <use xlink:href="#m754ae33a92" x="80.701803" y="101.933333" style="stroke: #000000; stroke-width: 0.8"/>
      </g>
     </g>
    </g>
    <g id="xtick_2">
     <g id="line2d_2">
      <g>
       <use xlink:href="#m754ae33a92" x="124.140883" y="101.933333" style="stroke: #000000; stroke-width: 0.8"/>
      </g>
     </g>
    </g>
    <g id="xtick_3">
     <g id="line2d_3">
      <g>
       <use xlink:href="#m754ae33a92" x="167.579962" y="101.933333" style="stroke: #000000; stroke-width: 0.8"/>
      </g>
     </g>
    </g>
    <g id="xtick_4">
     <g id="line2d_4">
      <g>
       <use xlink:href="#m754ae33a92" x="211.019042" y="101.933333" style="stroke: #000000; stroke-width: 0.8"/>
      </g>
     </g>
    </g>
    <g id="xtick_5">
     <g id="line2d_5">
      <g>
       <use xlink:href="#m754ae33a92" x="254.458121" y="101.933333" style="stroke: #000000; stroke-width: 0.8"/>
      </g>
     </g>
    </g>
   </g>
   <g id="matplotlib.axis_2">
    <g id="ytick_1">
     <g id="line2d_6">
      <defs>
       <path id="md38b0cbe29" d="M 0 0 
L -3.5 0 
" style="stroke: #000000; stroke-width: 0.8"/>
      </defs>
      <g>
       <use xlink:href="#md38b0cbe29" x="54.02" y="101.933333" style="stroke: #000000; stroke-width: 0.8"/>
      </g>
     </g>
     <g id="text_1">
      <!-- 0.00 -->
      <g transform="translate(24.754375 105.732552) scale(0.1 -0.1)">
       <defs>
        <path id="DejaVuSans-30" d="M 2034 4250 
Q 1547 4250 1301 3770 
Q 1056 3291 1056 2328 
Q 1056 1369 1301 889 
Q 1547 409 2034 409 
Q 2525 409 2770 889 
Q 3016 1369 3016 2328 
Q 3016 3291 2770 3770 
Q 2525 4250 2034 4250 
z
M 2034 4750 
Q 2819 4750 3233 4129 
Q 3647 3509 3647 2328 
Q 3647 1150 3233 529 
Q 2819 -91 2034 -91 
Q 1250 -91 836 529 
Q 422 1150 422 2328 
Q 422 3509 836 4129 
Q 1250 4750 2034 4750 
z
" transform="scale(0.015625)"/>
        <path id="DejaVuSans-2e" d="M 684 794 
L 1344 794 
L 1344 0 
L 684 0 
L 684 794 
z
" transform="scale(0.015625)"/>
       </defs>
       <use xlink:href="#DejaVuSans-30"/>
       <use xlink:href="#DejaVuSans-2e" x="63.623047"/>
       <use xlink:href="#DejaVuSans-30" x="95.410156"/>
       <use xlink:href="#DejaVuSans-30" x="159.033203"/>
      </g>
     </g>
    </g>
    <g id="ytick_2">
     <g id="line2d_7">
      <g>
       <use xlink:href="#md38b0cbe29" x="54.02" y="80.14" style="stroke: #000000; stroke-width: 0.8"/>
      </g>
     </g>
     <g id="text_2">
      <!-- 0.25 -->
      <g transform="translate(24.754375 83.939219) scale(0.1 -0.1)">
       <defs>
        <path id="DejaVuSans-32" d="M 1228 531 
L 3431 531 
L 3431 0 
L 469 0 
L 469 531 
Q 828 903 1448 1529 
Q 2069 2156 2228 2338 
Q 2531 2678 2651 2914 
Q 2772 3150 2772 3378 
Q 2772 3750 2511 3984 
Q 2250 4219 1831 4219 
Q 1534 4219 1204 4116 
Q 875 4013 500 3803 
L 500 4441 
Q 881 4594 1212 4672 
Q 1544 4750 1819 4750 
Q 2544 4750 2975 4387 
Q 3406 4025 3406 3419 
Q 3406 3131 3298 2873 
Q 3191 2616 2906 2266 
Q 2828 2175 2409 1742 
Q 1991 1309 1228 531 
z
" transform="scale(0.015625)"/>
        <path id="DejaVuSans-35" d="M 691 4666 
L 3169 4666 
L 3169 4134 
L 1269 4134 
L 1269 2991 
Q 1406 3038 1543 3061 
Q 1681 3084 1819 3084 
Q 2600 3084 3056 2656 
Q 3513 2228 3513 1497 
Q 3513 744 3044 326 
Q 2575 -91 1722 -91 
Q 1428 -91 1123 -41 
Q 819 9 494 109 
L 494 744 
Q 775 591 1075 516 
Q 1375 441 1709 441 
Q 2250 441 2565 725 
Q 2881 1009 2881 1497 
Q 2881 1984 2565 2268 
Q 2250 2553 1709 2553 
Q 1456 2553 1204 2497 
Q 953 2441 691 2322 
L 691 4666 
z
" transform="scale(0.015625)"/>
       </defs>
       <use xlink:href="#DejaVuSans-30"/>
       <use xlink:href="#DejaVuSans-2e" x="63.623047"/>
       <use xlink:href="#DejaVuSans-32" x="95.410156"/>
       <use xlink:href="#DejaVuSans-35" x="159.033203"/>
      </g>
     </g>
    </g>
    <g id="ytick_3">
     <g id="line2d_8">
      <g>
       <use xlink:href="#md38b0cbe29" x="54.02" y="58.346667" style="stroke: #000000; stroke-width: 0.8"/>
      </g>
     </g>
     <g id="text_3">
      <!-- 0.50 -->
      <g transform="translate(24.754375 62.145885) scale(0.1 -0.1)">
       <use xlink:href="#DejaVuSans-30"/>
       <use xlink:href="#DejaVuSans-2e" x="63.623047"/>
       <use xlink:href="#DejaVuSans-35" x="95.410156"/>
       <use xlink:href="#DejaVuSans-30" x="159.033203"/>
      </g>
     </g>
    </g>
    <g id="ytick_4">
     <g id="line2d_9">
      <g>
       <use xlink:href="#md38b0cbe29" x="54.02" y="36.553333" style="stroke: #000000; stroke-width: 0.8"/>
      </g>
     </g>
     <g id="text_4">
      <!-- 0.75 -->
      <g transform="translate(24.754375 40.352552) scale(0.1 -0.1)">
       <defs>
        <path id="DejaVuSans-37" d="M 525 4666 
L 3525 4666 
L 3525 4397 
L 1831 0 
L 1172 0 
L 2766 4134 
L 525 4134 
L 525 4666 
z
" transform="scale(0.015625)"/>
       </defs>
       <use xlink:href="#DejaVuSans-30"/>
       <use xlink:href="#DejaVuSans-2e" x="63.623047"/>
       <use xlink:href="#DejaVuSans-37" x="95.410156"/>
       <use xlink:href="#DejaVuSans-35" x="159.033203"/>
      </g>
     </g>
    </g>
    <g id="ytick_5">
     <g id="line2d_10">
      <g>
       <use xlink:href="#md38b0cbe29" x="54.02" y="14.76" style="stroke: #000000; stroke-width: 0.8"/>
      </g>
     </g>
     <g id="text_5">
      <!-- 1.00 -->
      <g transform="translate(24.754375 18.559219) scale(0.1 -0.1)">
       <defs>
        <path id="DejaVuSans-31" d="M 794 531 
L 1825 531 
L 1825 4091 
L 703 3866 
L 703 4441 
L 1819 4666 
L 2450 4666 
L 2450 531 
L 3481 531 
L 3481 0 
L 794 0 
L 794 531 
z
" transform="scale(0.015625)"/>
       </defs>
       <use xlink:href="#DejaVuSans-31"/>
       <use xlink:href="#DejaVuSans-2e" x="63.623047"/>
       <use xlink:href="#DejaVuSans-30" x="95.410156"/>
       <use xlink:href="#DejaVuSans-30" x="159.033203"/>
      </g>
     </g>
    </g>
    <g id="text_6">
     <!-- CDF -->
     <g transform="translate(18.674688 68.563854) rotate(-90) scale(0.1 -0.1)">
      <defs>
       <path id="DejaVuSans-43" d="M 4122 4306 
L 4122 3641 
Q 3803 3938 3442 4084 
Q 3081 4231 2675 4231 
Q 1875 4231 1450 3742 
Q 1025 3253 1025 2328 
Q 1025 1406 1450 917 
Q 1875 428 2675 428 
Q 3081 428 3442 575 
Q 3803 722 4122 1019 
L 4122 359 
Q 3791 134 3420 21 
Q 3050 -91 2638 -91 
Q 1578 -91 968 557 
Q 359 1206 359 2328 
Q 359 3453 968 4101 
Q 1578 4750 2638 4750 
Q 3056 4750 3426 4639 
Q 3797 4528 4122 4306 
z
" transform="scale(0.015625)"/>
       <path id="DejaVuSans-44" d="M 1259 4147 
L 1259 519 
L 2022 519 
Q 2988 519 3436 956 
Q 3884 1394 3884 2338 
Q 3884 3275 3436 3711 
Q 2988 4147 2022 4147 
L 1259 4147 
z
M 628 4666 
L 1925 4666 
Q 3281 4666 3915 4102 
Q 4550 3538 4550 2338 
Q 4550 1131 3912 565 
Q 3275 0 1925 0 
L 628 0 
L 628 4666 
z
" transform="scale(0.015625)"/>
       <path id="DejaVuSans-46" d="M 628 4666 
L 3309 4666 
L 3309 4134 
L 1259 4134 
L 1259 2759 
L 3109 2759 
L 3109 2228 
L 1259 2228 
L 1259 0 
L 628 0 
L 628 4666 
z
" transform="scale(0.015625)"/>
      </defs>
      <use xlink:href="#DejaVuSans-43"/>
      <use xlink:href="#DejaVuSans-44" x="69.824219"/>
      <use xlink:href="#DejaVuSans-46" x="146.826172"/>
     </g>
    </g>
   </g>
   <g id="line2d_11">
    <path d="M 64.164545 101.933333 
L 64.164545 97.574667 
L 64.368709 97.574667 
L 64.368709 93.216 
L 65.780479 93.216 
L 65.780479 88.857333 
L 65.889077 88.857333 
L 65.889077 84.498667 
L 66.436409 84.498667 
L 66.436409 80.14 
L 66.549351 80.14 
L 66.549351 75.781333 
L 99.002687 75.781333 
L 99.002687 71.422667 
L 99.354544 71.422667 
L 99.354544 67.064 
L 99.371919 67.064 
L 99.371919 62.705333 
L 99.571739 62.705333 
L 99.571739 58.346667 
L 99.858437 58.346667 
L 99.858437 53.988 
L 99.98441 53.988 
L 99.98441 49.629333 
L 100.501336 49.629333 
L 100.501336 45.270667 
L 100.510023 45.270667 
L 100.510023 40.912 
L 100.727219 40.912 
L 100.727219 36.553333 
L 100.731563 36.553333 
L 100.731563 32.194667 
L 101.226768 32.194667 
L 101.226768 27.836 
L 101.304959 27.836 
L 101.304959 23.477333 
L 117.994253 23.477333 
L 117.994253 19.118667 
L 118.367829 19.118667 
L 118.367829 14.76 
" clip-path="url(#pfb4bfb5894)" style="fill: none; stroke: #d99ac5; stroke-width: 1.5; stroke-linecap: square"/>
   </g>
   <g id="line2d_12">
    <path d="M 91.584813 101.933333 
L 91.584813 14.76 
" clip-path="url(#pfb4bfb5894)" style="fill: none; stroke-dasharray: 5.55,2.4; stroke-dashoffset: 0; stroke: #ff0000; stroke-width: 1.5"/>
   </g>
   <g id="line2d_13">
    <path d="M 99.715088 101.933333 
L 99.715088 14.76 
" clip-path="url(#pfb4bfb5894)" style="fill: none; stroke-dasharray: 9.6,2.4,1.5,2.4; stroke-dashoffset: 0; stroke: #008000; stroke-width: 1.5"/>
   </g>
   <g id="line2d_14">
    <path d="M 118.012932 101.933333 
L 118.012932 14.76 
" clip-path="url(#pfb4bfb5894)" style="fill: none; stroke-dasharray: 1.5,2.475; stroke-dashoffset: 0; stroke: #0000ff; stroke-width: 1.5"/>
   </g>
   <g id="patch_3">
    <path d="M 54.02 101.933333 
L 54.02 14.76 
" style="fill: none; stroke: #000000; stroke-width: 0.8; stroke-linejoin: miter; stroke-linecap: square"/>
   </g>
   <g id="patch_4">
    <path d="M 277.2 101.933333 
L 277.2 14.76 
" style="fill: none; stroke: #000000; stroke-width: 0.8; stroke-linejoin: miter; stroke-linecap: square"/>
   </g>
   <g id="patch_5">
    <path d="M 54.02 101.933333 
L 277.2 101.933333 
" style="fill: none; stroke: #000000; stroke-width: 0.8; stroke-linejoin: miter; stroke-linecap: square"/>
   </g>
   <g id="patch_6">
    <path d="M 54.02 14.76 
L 277.2 14.76 
" style="fill: none; stroke: #000000; stroke-width: 0.8; stroke-linejoin: miter; stroke-linecap: square"/>
   </g>
   <g id="text_7">
    <g id="patch_7">
     <path d="M 183.928 101.08725 
L 215.448 101.08725 
L 215.448 85.34475 
L 183.928 85.34475 
z
" style="fill: #ffffff; opacity: 0.5; stroke: #000000; stroke-linejoin: miter"/>
    </g>
    <!-- $P_n = 2$ -->
    <g transform="translate(187.928 95.4235) scale(0.08 -0.08)">
     <defs>
      <path id="DejaVuSans-Oblique-50" d="M 1081 4666 
L 2541 4666 
Q 3178 4666 3512 4369 
Q 3847 4072 3847 3500 
Q 3847 2731 3353 2303 
Q 2859 1875 1966 1875 
L 1172 1875 
L 806 0 
L 172 0 
L 1081 4666 
z
M 1613 4147 
L 1275 2394 
L 2069 2394 
Q 2606 2394 2893 2669 
Q 3181 2944 3181 3456 
Q 3181 3784 2986 3965 
Q 2791 4147 2438 4147 
L 1613 4147 
z
" transform="scale(0.015625)"/>
      <path id="DejaVuSans-Oblique-6e" d="M 3566 2113 
L 3156 0 
L 2578 0 
L 2988 2091 
Q 3016 2238 3031 2350 
Q 3047 2463 3047 2528 
Q 3047 2791 2881 2937 
Q 2716 3084 2419 3084 
Q 1956 3084 1622 2776 
Q 1288 2469 1184 1941 
L 800 0 
L 225 0 
L 903 3500 
L 1478 3500 
L 1363 2950 
Q 1603 3253 1940 3418 
Q 2278 3584 2650 3584 
Q 3113 3584 3367 3334 
Q 3622 3084 3622 2631 
Q 3622 2519 3608 2391 
Q 3594 2263 3566 2113 
z
" transform="scale(0.015625)"/>
      <path id="DejaVuSans-3d" d="M 678 2906 
L 4684 2906 
L 4684 2381 
L 678 2381 
L 678 2906 
z
M 678 1631 
L 4684 1631 
L 4684 1100 
L 678 1100 
L 678 1631 
z
" transform="scale(0.015625)"/>
     </defs>
     <use xlink:href="#DejaVuSans-Oblique-50" transform="translate(0 0.78125)"/>
     <use xlink:href="#DejaVuSans-Oblique-6e" transform="translate(60.302734 -15.625) scale(0.7)"/>
     <use xlink:href="#DejaVuSans-3d" transform="translate(126.884766 0.78125)"/>
     <use xlink:href="#DejaVuSans-32" transform="translate(230.15625 0.78125)"/>
    </g>
   </g>
   <g id="legend_1">
    <g id="patch_8">
     <path d="M 162.714062 66.794375 
L 270.2 66.794375 
Q 272.2 66.794375 272.2 64.794375 
L 272.2 21.76 
Q 272.2 19.76 270.2 19.76 
L 162.714062 19.76 
Q 160.714062 19.76 160.714062 21.76 
L 160.714062 64.794375 
Q 160.714062 66.794375 162.714062 66.794375 
z
" style="fill: #ffffff; opacity: 0.8; stroke: #cccccc; stroke-linejoin: miter"/>
    </g>
    <g id="line2d_15">
     <path d="M 164.714062 27.858437 
L 174.714062 27.858437 
L 184.714062 27.858437 
" style="fill: none; stroke-dasharray: 7.4,3.2; stroke-dashoffset: 0; stroke: #ff0000; stroke-width: 2"/>
    </g>
    <g id="text_8">
     <!-- Mean -->
     <g transform="translate(192.714062 31.358437) scale(0.1 -0.1)">
      <defs>
       <path id="DejaVuSans-4d" d="M 628 4666 
L 1569 4666 
L 2759 1491 
L 3956 4666 
L 4897 4666 
L 4897 0 
L 4281 0 
L 4281 4097 
L 3078 897 
L 2444 897 
L 1241 4097 
L 1241 0 
L 628 0 
L 628 4666 
z
" transform="scale(0.015625)"/>
       <path id="DejaVuSans-65" d="M 3597 1894 
L 3597 1613 
L 953 1613 
Q 991 1019 1311 708 
Q 1631 397 2203 397 
Q 2534 397 2845 478 
Q 3156 559 3463 722 
L 3463 178 
Q 3153 47 2828 -22 
Q 2503 -91 2169 -91 
Q 1331 -91 842 396 
Q 353 884 353 1716 
Q 353 2575 817 3079 
Q 1281 3584 2069 3584 
Q 2775 3584 3186 3129 
Q 3597 2675 3597 1894 
z
M 3022 2063 
Q 3016 2534 2758 2815 
Q 2500 3097 2075 3097 
Q 1594 3097 1305 2825 
Q 1016 2553 972 2059 
L 3022 2063 
z
" transform="scale(0.015625)"/>
       <path id="DejaVuSans-61" d="M 2194 1759 
Q 1497 1759 1228 1600 
Q 959 1441 959 1056 
Q 959 750 1161 570 
Q 1363 391 1709 391 
Q 2188 391 2477 730 
Q 2766 1069 2766 1631 
L 2766 1759 
L 2194 1759 
z
M 3341 1997 
L 3341 0 
L 2766 0 
L 2766 531 
Q 2569 213 2275 61 
Q 1981 -91 1556 -91 
Q 1019 -91 701 211 
Q 384 513 384 1019 
Q 384 1609 779 1909 
Q 1175 2209 1959 2209 
L 2766 2209 
L 2766 2266 
Q 2766 2663 2505 2880 
Q 2244 3097 1772 3097 
Q 1472 3097 1187 3025 
Q 903 2953 641 2809 
L 641 3341 
Q 956 3463 1253 3523 
Q 1550 3584 1831 3584 
Q 2591 3584 2966 3190 
Q 3341 2797 3341 1997 
z
" transform="scale(0.015625)"/>
       <path id="DejaVuSans-6e" d="M 3513 2113 
L 3513 0 
L 2938 0 
L 2938 2094 
Q 2938 2591 2744 2837 
Q 2550 3084 2163 3084 
Q 1697 3084 1428 2787 
Q 1159 2491 1159 1978 
L 1159 0 
L 581 0 
L 581 3500 
L 1159 3500 
L 1159 2956 
Q 1366 3272 1645 3428 
Q 1925 3584 2291 3584 
Q 2894 3584 3203 3211 
Q 3513 2838 3513 2113 
z
" transform="scale(0.015625)"/>
      </defs>
      <use xlink:href="#DejaVuSans-4d"/>
      <use xlink:href="#DejaVuSans-65" x="86.279297"/>
      <use xlink:href="#DejaVuSans-61" x="147.802734"/>
      <use xlink:href="#DejaVuSans-6e" x="209.082031"/>
     </g>
    </g>
    <g id="line2d_16">
     <path d="M 164.714062 42.536563 
L 174.714062 42.536563 
L 184.714062 42.536563 
" style="fill: none; stroke-dasharray: 12.8,3.2,2,3.2; stroke-dashoffset: 0; stroke: #008000; stroke-width: 2"/>
    </g>
    <g id="text_9">
     <!-- Median -->
     <g transform="translate(192.714062 46.036563) scale(0.1 -0.1)">
      <defs>
       <path id="DejaVuSans-64" d="M 2906 2969 
L 2906 4863 
L 3481 4863 
L 3481 0 
L 2906 0 
L 2906 525 
Q 2725 213 2448 61 
Q 2172 -91 1784 -91 
Q 1150 -91 751 415 
Q 353 922 353 1747 
Q 353 2572 751 3078 
Q 1150 3584 1784 3584 
Q 2172 3584 2448 3432 
Q 2725 3281 2906 2969 
z
M 947 1747 
Q 947 1113 1208 752 
Q 1469 391 1925 391 
Q 2381 391 2643 752 
Q 2906 1113 2906 1747 
Q 2906 2381 2643 2742 
Q 2381 3103 1925 3103 
Q 1469 3103 1208 2742 
Q 947 2381 947 1747 
z
" transform="scale(0.015625)"/>
       <path id="DejaVuSans-69" d="M 603 3500 
L 1178 3500 
L 1178 0 
L 603 0 
L 603 3500 
z
M 603 4863 
L 1178 4863 
L 1178 4134 
L 603 4134 
L 603 4863 
z
" transform="scale(0.015625)"/>
      </defs>
      <use xlink:href="#DejaVuSans-4d"/>
      <use xlink:href="#DejaVuSans-65" x="86.279297"/>
      <use xlink:href="#DejaVuSans-64" x="147.802734"/>
      <use xlink:href="#DejaVuSans-69" x="211.279297"/>
      <use xlink:href="#DejaVuSans-61" x="239.0625"/>
      <use xlink:href="#DejaVuSans-6e" x="300.341797"/>
     </g>
    </g>
    <g id="line2d_17">
     <path d="M 164.714062 57.214687 
L 174.714062 57.214687 
L 184.714062 57.214687 
" style="fill: none; stroke-dasharray: 2,3.3; stroke-dashoffset: 0; stroke: #0000ff; stroke-width: 2"/>
    </g>
    <g id="text_10">
     <!-- 95th Percentile -->
     <g transform="translate(192.714062 60.714687) scale(0.1 -0.1)">
      <defs>
       <path id="DejaVuSans-39" d="M 703 97 
L 703 672 
Q 941 559 1184 500 
Q 1428 441 1663 441 
Q 2288 441 2617 861 
Q 2947 1281 2994 2138 
Q 2813 1869 2534 1725 
Q 2256 1581 1919 1581 
Q 1219 1581 811 2004 
Q 403 2428 403 3163 
Q 403 3881 828 4315 
Q 1253 4750 1959 4750 
Q 2769 4750 3195 4129 
Q 3622 3509 3622 2328 
Q 3622 1225 3098 567 
Q 2575 -91 1691 -91 
Q 1453 -91 1209 -44 
Q 966 3 703 97 
z
M 1959 2075 
Q 2384 2075 2632 2365 
Q 2881 2656 2881 3163 
Q 2881 3666 2632 3958 
Q 2384 4250 1959 4250 
Q 1534 4250 1286 3958 
Q 1038 3666 1038 3163 
Q 1038 2656 1286 2365 
Q 1534 2075 1959 2075 
z
" transform="scale(0.015625)"/>
       <path id="DejaVuSans-74" d="M 1172 4494 
L 1172 3500 
L 2356 3500 
L 2356 3053 
L 1172 3053 
L 1172 1153 
Q 1172 725 1289 603 
Q 1406 481 1766 481 
L 2356 481 
L 2356 0 
L 1766 0 
Q 1100 0 847 248 
Q 594 497 594 1153 
L 594 3053 
L 172 3053 
L 172 3500 
L 594 3500 
L 594 4494 
L 1172 4494 
z
" transform="scale(0.015625)"/>
       <path id="DejaVuSans-68" d="M 3513 2113 
L 3513 0 
L 2938 0 
L 2938 2094 
Q 2938 2591 2744 2837 
Q 2550 3084 2163 3084 
Q 1697 3084 1428 2787 
Q 1159 2491 1159 1978 
L 1159 0 
L 581 0 
L 581 4863 
L 1159 4863 
L 1159 2956 
Q 1366 3272 1645 3428 
Q 1925 3584 2291 3584 
Q 2894 3584 3203 3211 
Q 3513 2838 3513 2113 
z
" transform="scale(0.015625)"/>
       <path id="DejaVuSans-20" transform="scale(0.015625)"/>
       <path id="DejaVuSans-50" d="M 1259 4147 
L 1259 2394 
L 2053 2394 
Q 2494 2394 2734 2622 
Q 2975 2850 2975 3272 
Q 2975 3691 2734 3919 
Q 2494 4147 2053 4147 
L 1259 4147 
z
M 628 4666 
L 2053 4666 
Q 2838 4666 3239 4311 
Q 3641 3956 3641 3272 
Q 3641 2581 3239 2228 
Q 2838 1875 2053 1875 
L 1259 1875 
L 1259 0 
L 628 0 
L 628 4666 
z
" transform="scale(0.015625)"/>
       <path id="DejaVuSans-72" d="M 2631 2963 
Q 2534 3019 2420 3045 
Q 2306 3072 2169 3072 
Q 1681 3072 1420 2755 
Q 1159 2438 1159 1844 
L 1159 0 
L 581 0 
L 581 3500 
L 1159 3500 
L 1159 2956 
Q 1341 3275 1631 3429 
Q 1922 3584 2338 3584 
Q 2397 3584 2469 3576 
Q 2541 3569 2628 3553 
L 2631 2963 
z
" transform="scale(0.015625)"/>
       <path id="DejaVuSans-63" d="M 3122 3366 
L 3122 2828 
Q 2878 2963 2633 3030 
Q 2388 3097 2138 3097 
Q 1578 3097 1268 2742 
Q 959 2388 959 1747 
Q 959 1106 1268 751 
Q 1578 397 2138 397 
Q 2388 397 2633 464 
Q 2878 531 3122 666 
L 3122 134 
Q 2881 22 2623 -34 
Q 2366 -91 2075 -91 
Q 1284 -91 818 406 
Q 353 903 353 1747 
Q 353 2603 823 3093 
Q 1294 3584 2113 3584 
Q 2378 3584 2631 3529 
Q 2884 3475 3122 3366 
z
" transform="scale(0.015625)"/>
       <path id="DejaVuSans-6c" d="M 603 4863 
L 1178 4863 
L 1178 0 
L 603 0 
L 603 4863 
z
" transform="scale(0.015625)"/>
      </defs>
      <use xlink:href="#DejaVuSans-39"/>
      <use xlink:href="#DejaVuSans-35" x="63.623047"/>
      <use xlink:href="#DejaVuSans-74" x="127.246094"/>
      <use xlink:href="#DejaVuSans-68" x="166.455078"/>
      <use xlink:href="#DejaVuSans-20" x="229.833984"/>
      <use xlink:href="#DejaVuSans-50" x="261.621094"/>
      <use xlink:href="#DejaVuSans-65" x="318.298828"/>
      <use xlink:href="#DejaVuSans-72" x="379.822266"/>
      <use xlink:href="#DejaVuSans-63" x="418.685547"/>
      <use xlink:href="#DejaVuSans-65" x="473.666016"/>
      <use xlink:href="#DejaVuSans-6e" x="535.189453"/>
      <use xlink:href="#DejaVuSans-74" x="598.568359"/>
      <use xlink:href="#DejaVuSans-69" x="637.777344"/>
      <use xlink:href="#DejaVuSans-6c" x="665.560547"/>
      <use xlink:href="#DejaVuSans-65" x="693.34375"/>
     </g>
    </g>
   </g>
  </g>
  <g id="axes_2">
   <g id="patch_9">
    <path d="M 54.02 209.986667 
L 277.2 209.986667 
L 277.2 122.813333 
L 54.02 122.813333 
z
" style="fill: #ffffff"/>
   </g>
   <g id="matplotlib.axis_3">
    <g id="xtick_6">
     <g id="line2d_18">
      <g>
       <use xlink:href="#m754ae33a92" x="80.701803" y="209.986667" style="stroke: #000000; stroke-width: 0.8"/>
      </g>
     </g>
    </g>
    <g id="xtick_7">
     <g id="line2d_19">
      <g>
       <use xlink:href="#m754ae33a92" x="124.140883" y="209.986667" style="stroke: #000000; stroke-width: 0.8"/>
      </g>
     </g>
    </g>
    <g id="xtick_8">
     <g id="line2d_20">
      <g>
       <use xlink:href="#m754ae33a92" x="167.579962" y="209.986667" style="stroke: #000000; stroke-width: 0.8"/>
      </g>
     </g>
    </g>
    <g id="xtick_9">
     <g id="line2d_21">
      <g>
       <use xlink:href="#m754ae33a92" x="211.019042" y="209.986667" style="stroke: #000000; stroke-width: 0.8"/>
      </g>
     </g>
    </g>
    <g id="xtick_10">
     <g id="line2d_22">
      <g>
       <use xlink:href="#m754ae33a92" x="254.458121" y="209.986667" style="stroke: #000000; stroke-width: 0.8"/>
      </g>
     </g>
    </g>
   </g>
   <g id="matplotlib.axis_4">
    <g id="ytick_6">
     <g id="line2d_23">
      <g>
       <use xlink:href="#md38b0cbe29" x="54.02" y="209.986667" style="stroke: #000000; stroke-width: 0.8"/>
      </g>
     </g>
     <g id="text_11">
      <!-- 0.00 -->
      <g transform="translate(24.754375 213.785885) scale(0.1 -0.1)">
       <use xlink:href="#DejaVuSans-30"/>
       <use xlink:href="#DejaVuSans-2e" x="63.623047"/>
       <use xlink:href="#DejaVuSans-30" x="95.410156"/>
       <use xlink:href="#DejaVuSans-30" x="159.033203"/>
      </g>
     </g>
    </g>
    <g id="ytick_7">
     <g id="line2d_24">
      <g>
       <use xlink:href="#md38b0cbe29" x="54.02" y="188.193333" style="stroke: #000000; stroke-width: 0.8"/>
      </g>
     </g>
     <g id="text_12">
      <!-- 0.25 -->
      <g transform="translate(24.754375 191.992552) scale(0.1 -0.1)">
       <use xlink:href="#DejaVuSans-30"/>
       <use xlink:href="#DejaVuSans-2e" x="63.623047"/>
       <use xlink:href="#DejaVuSans-32" x="95.410156"/>
       <use xlink:href="#DejaVuSans-35" x="159.033203"/>
      </g>
     </g>
    </g>
    <g id="ytick_8">
     <g id="line2d_25">
      <g>
       <use xlink:href="#md38b0cbe29" x="54.02" y="166.4" style="stroke: #000000; stroke-width: 0.8"/>
      </g>
     </g>
     <g id="text_13">
      <!-- 0.50 -->
      <g transform="translate(24.754375 170.199219) scale(0.1 -0.1)">
       <use xlink:href="#DejaVuSans-30"/>
       <use xlink:href="#DejaVuSans-2e" x="63.623047"/>
       <use xlink:href="#DejaVuSans-35" x="95.410156"/>
       <use xlink:href="#DejaVuSans-30" x="159.033203"/>
      </g>
     </g>
    </g>
    <g id="ytick_9">
     <g id="line2d_26">
      <g>
       <use xlink:href="#md38b0cbe29" x="54.02" y="144.606667" style="stroke: #000000; stroke-width: 0.8"/>
      </g>
     </g>
     <g id="text_14">
      <!-- 0.75 -->
      <g transform="translate(24.754375 148.405885) scale(0.1 -0.1)">
       <use xlink:href="#DejaVuSans-30"/>
       <use xlink:href="#DejaVuSans-2e" x="63.623047"/>
       <use xlink:href="#DejaVuSans-37" x="95.410156"/>
       <use xlink:href="#DejaVuSans-35" x="159.033203"/>
      </g>
     </g>
    </g>
    <g id="ytick_10">
     <g id="line2d_27">
      <g>
       <use xlink:href="#md38b0cbe29" x="54.02" y="122.813333" style="stroke: #000000; stroke-width: 0.8"/>
      </g>
     </g>
     <g id="text_15">
      <!-- 1.00 -->
      <g transform="translate(24.754375 126.612552) scale(0.1 -0.1)">
       <use xlink:href="#DejaVuSans-31"/>
       <use xlink:href="#DejaVuSans-2e" x="63.623047"/>
       <use xlink:href="#DejaVuSans-30" x="95.410156"/>
       <use xlink:href="#DejaVuSans-30" x="159.033203"/>
      </g>
     </g>
    </g>
    <g id="text_16">
     <!-- CDF -->
     <g transform="translate(18.674688 176.617188) rotate(-90) scale(0.1 -0.1)">
      <use xlink:href="#DejaVuSans-43"/>
      <use xlink:href="#DejaVuSans-44" x="69.824219"/>
      <use xlink:href="#DejaVuSans-46" x="146.826172"/>
     </g>
    </g>
   </g>
   <g id="line2d_28">
    <path d="M 98.033996 209.986667 
L 98.099154 209.316103 
L 98.246847 209.316103 
L 98.255535 208.645538 
L 98.424948 208.645538 
L 98.524857 207.639692 
L 99.028751 207.639692 
L 99.028751 207.30441 
L 99.224227 207.30441 
L 99.228571 206.633846 
L 99.523956 206.633846 
L 99.563051 205.963282 
L 99.675993 205.963282 
L 99.745496 205.292718 
L 99.854093 205.292718 
L 99.854093 204.957436 
L 100.119072 204.957436 
L 100.162511 204.286872 
L 100.470928 204.286872 
L 100.470928 203.95159 
L 100.657716 203.95159 
L 100.670748 203.281026 
L 100.775002 203.281026 
L 100.853192 202.275179 
L 101.122514 202.275179 
L 101.122514 201.939897 
L 103.064241 201.939897 
L 103.064241 201.604615 
L 103.363971 201.604615 
L 103.363971 201.269333 
L 103.50732 201.269333 
L 103.550759 200.598769 
L 104.045964 200.598769 
L 104.089404 199.928205 
L 104.176282 199.928205 
L 104.176282 199.592923 
L 104.410853 199.592923 
L 104.410853 199.257641 
L 104.54117 199.257641 
L 104.54117 198.922359 
L 104.762709 198.922359 
L 104.862619 198.251795 
L 104.940809 198.251795 
L 105.019 197.245949 
L 105.1971 197.245949 
L 105.301354 195.904821 
L 105.331761 195.904821 
L 105.440359 194.563692 
L 105.518549 194.563692 
L 105.601083 193.557846 
L 105.692306 193.557846 
L 105.692306 193.222564 
L 105.813935 193.222564 
L 105.913845 191.881436 
L 106.013755 191.881436 
L 106.113665 190.540308 
L 106.213575 190.540308 
L 106.270045 189.534462 
L 106.335204 189.534462 
L 106.443802 188.528615 
L 106.656653 188.528615 
L 106.7305 187.858051 
L 106.956383 187.858051 
L 106.982446 186.852205 
L 107.212673 186.852205 
L 107.212673 186.516923 
L 107.429869 186.516923 
L 107.538466 185.846359 
L 107.560186 185.846359 
L 107.568874 185.175795 
L 107.703535 185.175795 
L 107.703535 184.840513 
L 117.894343 184.840513 
L 117.972533 184.169949 
L 118.215792 184.169949 
L 118.276607 183.499385 
L 118.337422 183.499385 
L 118.376517 182.493538 
L 118.52421 182.493538 
L 118.62412 181.822974 
L 118.645839 181.822974 
L 118.70231 180.481846 
L 118.867378 180.481846 
L 118.897786 179.476 
L 119.010727 179.476 
L 119.05851 178.805436 
L 119.423399 178.805436 
L 119.423399 178.470154 
L 119.649282 178.470154 
L 119.718784 177.79959 
L 120.166207 177.79959 
L 120.166207 177.464308 
L 122.524949 177.464308 
L 122.524949 177.129026 
L 122.729113 177.129026 
L 122.772552 176.123179 
L 122.868118 176.123179 
L 122.868118 175.787897 
L 123.05925 175.787897 
L 123.05925 175.452615 
L 123.172191 175.452615 
L 123.185223 174.446769 
L 123.319884 174.446769 
L 123.402418 173.776205 
L 123.61527 173.776205 
L 123.719524 171.764513 
L 123.728211 171.764513 
L 123.780338 171.093949 
L 123.884592 171.093949 
L 123.89328 170.423385 
L 124.045317 170.423385 
L 124.106131 169.417538 
L 124.179978 169.417538 
L 124.284232 167.070564 
L 124.314639 167.070564 
L 124.384142 165.729436 
L 124.431924 165.729436 
L 124.536178 163.047179 
L 124.557898 163.047179 
L 124.636088 161.370769 
L 124.683871 161.370769 
L 124.792469 159.023795 
L 124.857627 159.023795 
L 124.922786 157.347385 
L 125.00532 157.347385 
L 125.014008 156.676821 
L 125.174733 156.676821 
L 125.270299 154.665128 
L 125.309394 154.665128 
L 125.40496 153.324 
L 125.426679 153.324 
L 125.526589 151.982872 
L 125.600436 151.982872 
L 125.70469 150.306462 
L 125.752473 150.306462 
L 125.86107 148.630051 
L 125.895821 148.630051 
L 125.917541 147.624205 
L 126.052202 147.624205 
L 126.095641 146.618359 
L 126.165144 146.618359 
L 126.252022 144.941949 
L 126.3389 144.941949 
L 126.412747 143.600821 
L 126.547408 143.600821 
L 126.547408 143.265538 
L 126.682069 143.265538 
L 126.781979 142.259692 
L 126.920984 142.259692 
L 127.020894 140.583282 
L 127.290216 140.583282 
L 127.351031 139.577436 
L 127.511755 139.577436 
L 127.511755 139.242154 
L 129.983439 139.242154 
L 129.983439 138.906872 
L 150.673472 138.906872 
L 150.673472 138.57159 
L 150.838541 138.57159 
L 150.912387 137.901026 
L 151.424969 137.901026 
L 151.424969 137.565744 
L 151.71601 137.565744 
L 151.71601 137.230462 
L 152.267687 137.230462 
L 152.267687 136.895179 
L 156.924356 136.895179 
L 156.924356 136.559897 
L 157.054673 136.559897 
L 157.054673 136.224615 
L 157.241461 136.224615 
L 157.350059 135.554051 
L 157.597662 135.554051 
L 157.597662 135.218769 
L 157.888704 135.218769 
L 157.888704 134.883487 
L 158.027709 134.883487 
L 158.027709 134.548205 
L 158.627168 134.548205 
L 158.627168 134.212923 
L 159.29613 134.212923 
L 159.29613 133.877641 
L 159.487262 133.877641 
L 159.487262 133.542359 
L 162.623563 133.542359 
L 162.623563 133.207077 
L 162.979764 133.207077 
L 162.992795 132.536513 
L 163.366372 132.536513 
L 163.405467 131.865949 
L 164.08746 131.865949 
L 164.08746 131.530667 
L 165.260315 131.530667 
L 165.260315 131.195385 
L 166.168192 131.195385 
L 166.168192 130.860103 
L 168.935262 130.860103 
L 168.935262 130.524821 
L 169.287118 130.524821 
L 169.287118 130.189538 
L 169.621599 130.189538 
L 169.621599 129.854256 
L 169.734541 129.854256 
L 169.734541 129.518974 
L 169.890921 129.518974 
L 169.890921 129.183692 
L 171.08984 129.183692 
L 171.141967 128.513128 
L 171.906495 128.513128 
L 171.906495 128.177846 
L 174.017634 128.177846 
L 174.017634 127.842564 
L 174.404242 127.842564 
L 174.404242 127.507282 
L 175.359901 127.507282 
L 175.359901 127.172 
L 176.085334 127.172 
L 176.10271 126.166154 
L 176.241715 126.166154 
L 176.241715 125.830872 
L 176.728232 125.830872 
L 176.784703 125.160308 
L 178.035749 125.160308 
L 178.035749 124.825026 
L 204.246889 124.825026 
L 204.246889 124.489744 
L 204.516212 124.489744 
L 204.516212 124.154462 
L 209.628991 124.154462 
L 209.628991 123.819179 
L 210.028631 123.819179 
L 210.093789 123.148615 
L 210.141572 123.148615 
L 210.141572 122.813333 
L 210.141572 122.813333 
" clip-path="url(#pe08121f042)" style="fill: none; stroke: #d99ac5; stroke-width: 1.5; stroke-linecap: square"/>
   </g>
   <g id="line2d_29">
    <path d="M 126.698592 209.986667 
L 126.698592 122.813333 
" clip-path="url(#pe08121f042)" style="fill: none; stroke-dasharray: 5.55,2.4; stroke-dashoffset: 0; stroke: #ff0000; stroke-width: 1.5"/>
   </g>
   <g id="line2d_30">
    <path d="M 124.353734 209.986667 
L 124.353734 122.813333 
" clip-path="url(#pe08121f042)" style="fill: none; stroke-dasharray: 9.6,2.4,1.5,2.4; stroke-dashoffset: 0; stroke: #008000; stroke-width: 1.5"/>
   </g>
   <g id="line2d_31">
    <path d="M 175.396173 209.986667 
L 175.396173 122.813333 
" clip-path="url(#pe08121f042)" style="fill: none; stroke-dasharray: 1.5,2.475; stroke-dashoffset: 0; stroke: #0000ff; stroke-width: 1.5"/>
   </g>
   <g id="patch_10">
    <path d="M 54.02 209.986667 
L 54.02 122.813333 
" style="fill: none; stroke: #000000; stroke-width: 0.8; stroke-linejoin: miter; stroke-linecap: square"/>
   </g>
   <g id="patch_11">
    <path d="M 277.2 209.986667 
L 277.2 122.813333 
" style="fill: none; stroke: #000000; stroke-width: 0.8; stroke-linejoin: miter; stroke-linecap: square"/>
   </g>
   <g id="patch_12">
    <path d="M 54.02 209.986667 
L 277.2 209.986667 
" style="fill: none; stroke: #000000; stroke-width: 0.8; stroke-linejoin: miter; stroke-linecap: square"/>
   </g>
   <g id="patch_13">
    <path d="M 54.02 122.813333 
L 277.2 122.813333 
" style="fill: none; stroke: #000000; stroke-width: 0.8; stroke-linejoin: miter; stroke-linecap: square"/>
   </g>
   <g id="text_17">
    <g id="patch_14">
     <path d="M 183.928 209.140583 
L 220.568 209.140583 
L 220.568 193.398083 
L 183.928 193.398083 
z
" style="fill: #ffffff; opacity: 0.5; stroke: #000000; stroke-linejoin: miter"/>
    </g>
    <!-- $P_n = 26$ -->
    <g transform="translate(187.928 203.476833) scale(0.08 -0.08)">
     <defs>
      <path id="DejaVuSans-36" d="M 2113 2584 
Q 1688 2584 1439 2293 
Q 1191 2003 1191 1497 
Q 1191 994 1439 701 
Q 1688 409 2113 409 
Q 2538 409 2786 701 
Q 3034 994 3034 1497 
Q 3034 2003 2786 2293 
Q 2538 2584 2113 2584 
z
M 3366 4563 
L 3366 3988 
Q 3128 4100 2886 4159 
Q 2644 4219 2406 4219 
Q 1781 4219 1451 3797 
Q 1122 3375 1075 2522 
Q 1259 2794 1537 2939 
Q 1816 3084 2150 3084 
Q 2853 3084 3261 2657 
Q 3669 2231 3669 1497 
Q 3669 778 3244 343 
Q 2819 -91 2113 -91 
Q 1303 -91 875 529 
Q 447 1150 447 2328 
Q 447 3434 972 4092 
Q 1497 4750 2381 4750 
Q 2619 4750 2861 4703 
Q 3103 4656 3366 4563 
z
" transform="scale(0.015625)"/>
     </defs>
     <use xlink:href="#DejaVuSans-Oblique-50" transform="translate(0 0.78125)"/>
     <use xlink:href="#DejaVuSans-Oblique-6e" transform="translate(60.302734 -15.625) scale(0.7)"/>
     <use xlink:href="#DejaVuSans-3d" transform="translate(126.884766 0.78125)"/>
     <use xlink:href="#DejaVuSans-32" transform="translate(230.15625 0.78125)"/>
     <use xlink:href="#DejaVuSans-36" transform="translate(293.779297 0.78125)"/>
    </g>
   </g>
  </g>
  <g id="axes_3">
   <g id="patch_15">
    <path d="M 54.02 318.04 
L 277.2 318.04 
L 277.2 230.866667 
L 54.02 230.866667 
z
" style="fill: #ffffff"/>
   </g>
   <g id="matplotlib.axis_5">
    <g id="xtick_11">
     <g id="line2d_32">
      <g>
       <use xlink:href="#m754ae33a92" x="80.701803" y="318.04" style="stroke: #000000; stroke-width: 0.8"/>
      </g>
     </g>
     <g id="text_18">
      <!-- 10 -->
      <g transform="translate(74.339303 332.638438) scale(0.1 -0.1)">
       <use xlink:href="#DejaVuSans-31"/>
       <use xlink:href="#DejaVuSans-30" x="63.623047"/>
      </g>
     </g>
    </g>
    <g id="xtick_12">
     <g id="line2d_33">
      <g>
       <use xlink:href="#m754ae33a92" x="124.140883" y="318.04" style="stroke: #000000; stroke-width: 0.8"/>
      </g>
     </g>
     <g id="text_19">
      <!-- 20 -->
      <g transform="translate(117.778383 332.638438) scale(0.1 -0.1)">
       <use xlink:href="#DejaVuSans-32"/>
       <use xlink:href="#DejaVuSans-30" x="63.623047"/>
      </g>
     </g>
    </g>
    <g id="xtick_13">
     <g id="line2d_34">
      <g>
       <use xlink:href="#m754ae33a92" x="167.579962" y="318.04" style="stroke: #000000; stroke-width: 0.8"/>
      </g>
     </g>
     <g id="text_20">
      <!-- 30 -->
      <g transform="translate(161.217462 332.638438) scale(0.1 -0.1)">
       <defs>
        <path id="DejaVuSans-33" d="M 2597 2516 
Q 3050 2419 3304 2112 
Q 3559 1806 3559 1356 
Q 3559 666 3084 287 
Q 2609 -91 1734 -91 
Q 1441 -91 1130 -33 
Q 819 25 488 141 
L 488 750 
Q 750 597 1062 519 
Q 1375 441 1716 441 
Q 2309 441 2620 675 
Q 2931 909 2931 1356 
Q 2931 1769 2642 2001 
Q 2353 2234 1838 2234 
L 1294 2234 
L 1294 2753 
L 1863 2753 
Q 2328 2753 2575 2939 
Q 2822 3125 2822 3475 
Q 2822 3834 2567 4026 
Q 2313 4219 1838 4219 
Q 1578 4219 1281 4162 
Q 984 4106 628 3988 
L 628 4550 
Q 988 4650 1302 4700 
Q 1616 4750 1894 4750 
Q 2613 4750 3031 4423 
Q 3450 4097 3450 3541 
Q 3450 3153 3228 2886 
Q 3006 2619 2597 2516 
z
" transform="scale(0.015625)"/>
       </defs>
       <use xlink:href="#DejaVuSans-33"/>
       <use xlink:href="#DejaVuSans-30" x="63.623047"/>
      </g>
     </g>
    </g>
    <g id="xtick_14">
     <g id="line2d_35">
      <g>
       <use xlink:href="#m754ae33a92" x="211.019042" y="318.04" style="stroke: #000000; stroke-width: 0.8"/>
      </g>
     </g>
     <g id="text_21">
      <!-- 40 -->
      <g transform="translate(204.656542 332.638438) scale(0.1 -0.1)">
       <defs>
        <path id="DejaVuSans-34" d="M 2419 4116 
L 825 1625 
L 2419 1625 
L 2419 4116 
z
M 2253 4666 
L 3047 4666 
L 3047 1625 
L 3713 1625 
L 3713 1100 
L 3047 1100 
L 3047 0 
L 2419 0 
L 2419 1100 
L 313 1100 
L 313 1709 
L 2253 4666 
z
" transform="scale(0.015625)"/>
       </defs>
       <use xlink:href="#DejaVuSans-34"/>
       <use xlink:href="#DejaVuSans-30" x="63.623047"/>
      </g>
     </g>
    </g>
    <g id="xtick_15">
     <g id="line2d_36">
      <g>
       <use xlink:href="#m754ae33a92" x="254.458121" y="318.04" style="stroke: #000000; stroke-width: 0.8"/>
      </g>
     </g>
     <g id="text_22">
      <!-- 50 -->
      <g transform="translate(248.095621 332.638438) scale(0.1 -0.1)">
       <use xlink:href="#DejaVuSans-35"/>
       <use xlink:href="#DejaVuSans-30" x="63.623047"/>
      </g>
     </g>
    </g>
    <g id="text_23">
     <!-- Latency (s) -->
     <g transform="translate(137.750625 346.316563) scale(0.1 -0.1)">
      <defs>
       <path id="DejaVuSans-4c" d="M 628 4666 
L 1259 4666 
L 1259 531 
L 3531 531 
L 3531 0 
L 628 0 
L 628 4666 
z
" transform="scale(0.015625)"/>
       <path id="DejaVuSans-79" d="M 2059 -325 
Q 1816 -950 1584 -1140 
Q 1353 -1331 966 -1331 
L 506 -1331 
L 506 -850 
L 844 -850 
Q 1081 -850 1212 -737 
Q 1344 -625 1503 -206 
L 1606 56 
L 191 3500 
L 800 3500 
L 1894 763 
L 2988 3500 
L 3597 3500 
L 2059 -325 
z
" transform="scale(0.015625)"/>
       <path id="DejaVuSans-28" d="M 1984 4856 
Q 1566 4138 1362 3434 
Q 1159 2731 1159 2009 
Q 1159 1288 1364 580 
Q 1569 -128 1984 -844 
L 1484 -844 
Q 1016 -109 783 600 
Q 550 1309 550 2009 
Q 550 2706 781 3412 
Q 1013 4119 1484 4856 
L 1984 4856 
z
" transform="scale(0.015625)"/>
       <path id="DejaVuSans-73" d="M 2834 3397 
L 2834 2853 
Q 2591 2978 2328 3040 
Q 2066 3103 1784 3103 
Q 1356 3103 1142 2972 
Q 928 2841 928 2578 
Q 928 2378 1081 2264 
Q 1234 2150 1697 2047 
L 1894 2003 
Q 2506 1872 2764 1633 
Q 3022 1394 3022 966 
Q 3022 478 2636 193 
Q 2250 -91 1575 -91 
Q 1294 -91 989 -36 
Q 684 19 347 128 
L 347 722 
Q 666 556 975 473 
Q 1284 391 1588 391 
Q 1994 391 2212 530 
Q 2431 669 2431 922 
Q 2431 1156 2273 1281 
Q 2116 1406 1581 1522 
L 1381 1569 
Q 847 1681 609 1914 
Q 372 2147 372 2553 
Q 372 3047 722 3315 
Q 1072 3584 1716 3584 
Q 2034 3584 2315 3537 
Q 2597 3491 2834 3397 
z
" transform="scale(0.015625)"/>
       <path id="DejaVuSans-29" d="M 513 4856 
L 1013 4856 
Q 1481 4119 1714 3412 
Q 1947 2706 1947 2009 
Q 1947 1309 1714 600 
Q 1481 -109 1013 -844 
L 513 -844 
Q 928 -128 1133 580 
Q 1338 1288 1338 2009 
Q 1338 2731 1133 3434 
Q 928 4138 513 4856 
z
" transform="scale(0.015625)"/>
      </defs>
      <use xlink:href="#DejaVuSans-4c"/>
      <use xlink:href="#DejaVuSans-61" x="55.712891"/>
      <use xlink:href="#DejaVuSans-74" x="116.992188"/>
      <use xlink:href="#DejaVuSans-65" x="156.201172"/>
      <use xlink:href="#DejaVuSans-6e" x="217.724609"/>
      <use xlink:href="#DejaVuSans-63" x="281.103516"/>
      <use xlink:href="#DejaVuSans-79" x="336.083984"/>
      <use xlink:href="#DejaVuSans-20" x="395.263672"/>
      <use xlink:href="#DejaVuSans-28" x="427.050781"/>
      <use xlink:href="#DejaVuSans-73" x="466.064453"/>
      <use xlink:href="#DejaVuSans-29" x="518.164062"/>
     </g>
    </g>
   </g>
   <g id="matplotlib.axis_6">
    <g id="ytick_11">
     <g id="line2d_37">
      <g>
       <use xlink:href="#md38b0cbe29" x="54.02" y="318.04" style="stroke: #000000; stroke-width: 0.8"/>
      </g>
     </g>
     <g id="text_24">
      <!-- 0.00 -->
      <g transform="translate(24.754375 321.839219) scale(0.1 -0.1)">
       <use xlink:href="#DejaVuSans-30"/>
       <use xlink:href="#DejaVuSans-2e" x="63.623047"/>
       <use xlink:href="#DejaVuSans-30" x="95.410156"/>
       <use xlink:href="#DejaVuSans-30" x="159.033203"/>
      </g>
     </g>
    </g>
    <g id="ytick_12">
     <g id="line2d_38">
      <g>
       <use xlink:href="#md38b0cbe29" x="54.02" y="296.246667" style="stroke: #000000; stroke-width: 0.8"/>
      </g>
     </g>
     <g id="text_25">
      <!-- 0.25 -->
      <g transform="translate(24.754375 300.045885) scale(0.1 -0.1)">
       <use xlink:href="#DejaVuSans-30"/>
       <use xlink:href="#DejaVuSans-2e" x="63.623047"/>
       <use xlink:href="#DejaVuSans-32" x="95.410156"/>
       <use xlink:href="#DejaVuSans-35" x="159.033203"/>
      </g>
     </g>
    </g>
    <g id="ytick_13">
     <g id="line2d_39">
      <g>
       <use xlink:href="#md38b0cbe29" x="54.02" y="274.453333" style="stroke: #000000; stroke-width: 0.8"/>
      </g>
     </g>
     <g id="text_26">
      <!-- 0.50 -->
      <g transform="translate(24.754375 278.252552) scale(0.1 -0.1)">
       <use xlink:href="#DejaVuSans-30"/>
       <use xlink:href="#DejaVuSans-2e" x="63.623047"/>
       <use xlink:href="#DejaVuSans-35" x="95.410156"/>
       <use xlink:href="#DejaVuSans-30" x="159.033203"/>
      </g>
     </g>
    </g>
    <g id="ytick_14">
     <g id="line2d_40">
      <g>
       <use xlink:href="#md38b0cbe29" x="54.02" y="252.66" style="stroke: #000000; stroke-width: 0.8"/>
      </g>
     </g>
     <g id="text_27">
      <!-- 0.75 -->
      <g transform="translate(24.754375 256.459219) scale(0.1 -0.1)">
       <use xlink:href="#DejaVuSans-30"/>
       <use xlink:href="#DejaVuSans-2e" x="63.623047"/>
       <use xlink:href="#DejaVuSans-37" x="95.410156"/>
       <use xlink:href="#DejaVuSans-35" x="159.033203"/>
      </g>
     </g>
    </g>
    <g id="ytick_15">
     <g id="line2d_41">
      <g>
       <use xlink:href="#md38b0cbe29" x="54.02" y="230.866667" style="stroke: #000000; stroke-width: 0.8"/>
      </g>
     </g>
     <g id="text_28">
      <!-- 1.00 -->
      <g transform="translate(24.754375 234.665885) scale(0.1 -0.1)">
       <use xlink:href="#DejaVuSans-31"/>
       <use xlink:href="#DejaVuSans-2e" x="63.623047"/>
       <use xlink:href="#DejaVuSans-30" x="95.410156"/>
       <use xlink:href="#DejaVuSans-30" x="159.033203"/>
      </g>
     </g>
    </g>
    <g id="text_29">
     <!-- CDF -->
     <g transform="translate(18.674688 284.670521) rotate(-90) scale(0.1 -0.1)">
      <use xlink:href="#DejaVuSans-43"/>
      <use xlink:href="#DejaVuSans-44" x="69.824219"/>
      <use xlink:href="#DejaVuSans-46" x="146.826172"/>
     </g>
    </g>
   </g>
   <g id="line2d_42">
    <path d="M 64.959481 318.04 
L 64.959481 317.826862 
L 65.124549 317.826862 
L 65.124549 317.613725 
L 65.346088 317.613725 
L 65.346088 317.400587 
L 69.472801 317.400587 
L 69.472801 317.187449 
L 73.808021 317.187449 
L 73.808021 316.974311 
L 78.66451 316.974311 
L 78.66451 316.761174 
L 79.237906 316.761174 
L 79.307409 316.12176 
L 79.550667 316.12176 
L 79.650577 315.695485 
L 79.985058 315.695485 
L 79.985058 315.482347 
L 80.706147 315.482347 
L 80.793025 314.842934 
L 81.531489 314.842934 
L 81.531489 314.629796 
L 83.312492 314.629796 
L 83.312492 314.416659 
L 83.573126 314.416659 
L 83.573126 314.203521 
L 85.519197 314.203521 
L 85.519197 313.990383 
L 87.191602 313.990383 
L 87.191602 313.777245 
L 87.652056 313.777245 
L 87.652056 313.564108 
L 88.03432 313.564108 
L 88.03432 313.35097 
L 88.208076 313.35097 
L 88.307986 312.924694 
L 88.386176 312.924694 
L 88.394864 312.498419 
L 88.533869 312.498419 
L 88.533869 312.285281 
L 88.729345 312.285281 
L 88.729345 312.072143 
L 89.237582 312.072143 
L 89.237582 311.859006 
L 89.750163 311.859006 
L 89.750163 311.645868 
L 89.993422 311.645868 
L 90.006454 311.219593 
L 90.206274 311.219593 
L 90.236681 310.580179 
L 90.388718 310.580179 
L 90.388718 310.367042 
L 90.55813 310.367042 
L 90.614601 309.940766 
L 91.13587 309.940766 
L 91.13587 309.727628 
L 91.874334 309.727628 
L 91.874334 309.514491 
L 92.24791 309.514491 
L 92.26963 309.088215 
L 92.426011 309.088215 
L 92.426011 308.875077 
L 92.64755 308.875077 
L 92.738772 308.448802 
L 92.786555 308.448802 
L 92.856058 307.809389 
L 92.908184 307.809389 
L 92.908184 307.596251 
L 93.134068 307.596251 
L 93.134068 307.383113 
L 93.333887 307.383113 
L 93.442485 306.956838 
L 93.459861 306.956838 
L 93.551083 306.530562 
L 93.646649 306.530562 
L 93.646649 306.317425 
L 93.78131 306.317425 
L 93.850812 305.891149 
L 93.998505 305.891149 
L 93.998505 305.678011 
L 94.146198 305.678011 
L 94.146198 305.464874 
L 94.645748 305.464874 
L 94.663123 305.038598 
L 94.758689 305.038598 
L 94.758689 304.82546 
L 95.010636 304.82546 
L 95.010636 304.612323 
L 95.701317 304.612323 
L 95.792539 304.186047 
L 96.565755 304.186047 
L 96.622226 303.759772 
L 96.791638 303.759772 
L 96.791638 303.546634 
L 97.069648 303.546634 
L 97.069648 303.333496 
L 97.38241 303.333496 
L 97.38241 303.120359 
L 97.76033 303.120359 
L 97.76033 302.907221 
L 97.877615 302.907221 
L 97.877615 302.694083 
L 98.107842 302.694083 
L 98.190377 302.267808 
L 98.325038 302.267808 
L 98.325038 302.05467 
L 98.503138 302.05467 
L 98.520514 301.628394 
L 98.616079 301.628394 
L 98.711645 301.202119 
L 98.824587 301.202119 
L 98.881058 300.775844 
L 99.093909 300.775844 
L 99.093909 300.562706 
L 99.237258 300.562706 
L 99.237258 300.349568 
L 99.397983 300.349568 
L 99.441422 299.710155 
L 99.754183 299.710155 
L 99.754183 299.497017 
L 99.923596 299.497017 
L 99.923596 299.283879 
L 101.348398 299.283879 
L 101.348398 299.070742 
L 102.525597 299.070742 
L 102.525597 298.857604 
L 102.860078 298.857604 
L 102.860078 298.644466 
L 102.999083 298.644466 
L 102.999083 298.431328 
L 103.355283 298.431328 
L 103.355283 298.218191 
L 104.145874 298.218191 
L 104.211033 297.791915 
L 104.684519 297.791915 
L 104.749678 297.152502 
L 104.923434 297.152502 
L 104.923434 296.939364 
L 105.066783 296.939364 
L 105.066783 296.726227 
L 105.283978 296.726227 
L 105.283978 296.513089 
L 105.427327 296.513089 
L 105.509861 296.086813 
L 105.766152 296.086813 
L 105.818279 295.660538 
L 106.639277 295.660538 
L 106.639277 295.234262 
L 107.043261 295.234262 
L 107.147515 294.807987 
L 107.18661 294.807987 
L 107.18661 294.594849 
L 107.690503 294.594849 
L 107.690503 294.381711 
L 107.816477 294.381711 
L 107.816477 294.168574 
L 109.245622 294.168574 
L 109.245622 293.955436 
L 109.83205 293.955436 
L 109.83205 293.742298 
L 109.953679 293.742298 
L 109.979743 293.316023 
L 110.379382 293.316023 
L 110.422821 292.889747 
L 110.66608 292.889747 
L 110.66608 292.67661 
L 110.800741 292.67661 
L 110.800741 292.463472 
L 111.235132 292.463472 
L 111.235132 292.250334 
L 111.517486 292.250334 
L 111.517486 292.037196 
L 112.290702 292.037196 
L 112.290702 291.824059 
L 113.155139 291.824059 
L 113.155139 291.610921 
L 113.771974 291.610921 
L 113.819757 291.184645 
L 115.870082 291.184645 
L 115.870082 290.971508 
L 116.069902 290.971508 
L 116.069902 290.75837 
L 116.5347 290.75837 
L 116.5347 290.545232 
L 116.695424 290.545232 
L 116.751895 290.118957 
L 116.956059 290.118957 
L 116.995154 289.692681 
L 117.39045 289.692681 
L 117.39045 289.479544 
L 118.176697 289.479544 
L 118.176697 289.266406 
L 118.298326 289.266406 
L 118.298326 289.053268 
L 118.632807 289.053268 
L 118.654527 288.626993 
L 119.119325 288.626993 
L 119.119325 288.413855 
L 119.267018 288.413855 
L 119.267018 288.200717 
L 121.026301 288.200717 
L 121.026301 287.987579 
L 122.099246 287.987579 
L 122.099246 287.774442 
L 122.268658 287.774442 
L 122.268658 287.561304 
L 122.820335 287.561304 
L 122.820335 287.348166 
L 123.185223 287.348166 
L 123.228662 286.708753 
L 123.350291 286.708753 
L 123.350291 286.495615 
L 123.654365 286.495615 
L 123.754275 286.06934 
L 126.642974 286.06934 
L 126.656005 285.643064 
L 126.873201 285.643064 
L 126.873201 285.429927 
L 127.059989 285.429927 
L 127.059989 285.216789 
L 127.503067 285.216789 
L 127.503067 285.003651 
L 127.646416 285.003651 
L 127.741982 284.364238 
L 127.759358 284.364238 
L 127.759358 284.1511 
L 128.011305 284.1511 
L 128.054744 283.724825 
L 128.402256 283.724825 
L 128.467415 282.872274 
L 128.545605 282.872274 
L 128.545605 282.659136 
L 128.693298 282.659136 
L 128.797552 282.232861 
L 128.819272 282.232861 
L 128.823615 281.806585 
L 128.932213 281.806585 
L 128.966964 281.167172 
L 129.110313 281.167172 
L 129.110313 280.954034 
L 129.349228 280.954034 
L 129.418731 280.527759 
L 131.508151 280.527759 
L 131.508151 280.314621 
L 131.794848 280.314621 
L 131.794848 280.101483 
L 131.951229 280.101483 
L 132.046795 279.675208 
L 132.337837 279.675208 
L 132.394308 279.248932 
L 132.594128 279.248932 
L 132.620191 278.822657 
L 132.776572 278.822657 
L 132.776572 278.609519 
L 132.915577 278.609519 
L 132.915577 278.396381 
L 133.089333 278.396381 
L 133.197931 277.970106 
L 133.280465 277.970106 
L 133.280465 277.756968 
L 134.044993 277.756968 
L 134.044993 277.54383 
L 134.262188 277.54383 
L 134.262188 277.330693 
L 134.422913 277.330693 
L 134.527167 276.904417 
L 134.792145 276.904417 
L 134.792145 276.69128 
L 134.957213 276.69128 
L 134.957213 276.478142 
L 135.283007 276.478142 
L 135.283007 276.265004 
L 135.526265 276.265004 
L 135.526265 276.051866 
L 135.891154 276.051866 
L 135.960656 275.625591 
L 137.385458 275.625591 
L 137.385458 275.412453 
L 137.515775 275.412453 
L 137.515775 275.199315 
L 138.171705 275.199315 
L 138.25424 274.77304 
L 138.436684 274.77304 
L 138.436684 274.559902 
L 139.179492 274.559902 
L 139.196868 274.133627 
L 139.414063 274.133627 
L 139.513973 273.707351 
L 139.535692 273.707351 
L 139.535692 273.494214 
L 139.652978 273.494214 
L 139.752888 272.641663 
L 139.835422 272.641663 
L 139.852798 272.215387 
L 139.948364 272.215387 
L 140.052618 271.789112 
L 140.113432 271.789112 
L 140.152527 271.362836 
L 140.547823 271.362836 
L 140.569543 270.936561 
L 140.838865 270.936561 
L 140.869272 270.510285 
L 141.294975 270.510285 
L 141.373166 270.08401 
L 141.425292 270.08401 
L 141.520858 269.657734 
L 141.768461 269.657734 
L 141.768461 269.444597 
L 142.146381 269.444597 
L 142.146381 269.231459 
L 142.593804 269.231459 
L 142.593804 269.018321 
L 143.540776 269.018321 
L 143.614622 268.592046 
L 143.749283 268.592046 
L 143.749283 268.378908 
L 143.931727 268.378908 
L 144.031637 267.952632 
L 144.196706 267.952632 
L 144.227113 267.526357 
L 144.461684 267.526357 
L 144.539874 267.100081 
L 144.605033 267.100081 
L 144.605033 266.886944 
L 144.870011 266.886944 
L 144.978609 266.247531 
L 145.030736 266.247531 
L 145.082863 265.608117 
L 145.256619 265.608117 
L 145.321778 265.181842 
L 145.434719 265.181842 
L 145.538973 264.542429 
L 145.578068 264.542429 
L 145.604132 264.116153 
L 145.825671 264.116153 
L 145.825671 263.903015 
L 145.977708 263.903015 
L 146.086306 263.263602 
L 146.194903 263.263602 
L 146.194903 263.050465 
L 146.459882 263.050465 
L 146.498977 262.411051 
L 146.577167 262.411051 
L 146.659702 261.771638 
L 146.911648 261.771638 
L 146.911648 261.5585 
L 147.372102 261.5585 
L 147.372102 261.345363 
L 147.802149 261.345363 
L 147.854276 260.919087 
L 147.923779 260.919087 
L 147.941154 260.492812 
L 148.075816 260.492812 
L 148.075816 260.279674 
L 148.73609 260.279674 
L 148.81428 259.853399 
L 148.931565 259.853399 
L 148.931565 259.640261 
L 149.140073 259.640261 
L 149.196544 259.213985 
L 149.29211 259.213985 
L 149.29211 259.000848 
L 149.426771 259.000848 
L 149.509305 258.574572 
L 149.57012 258.574572 
L 149.609215 258.148297 
L 149.687405 258.148297 
L 149.796003 257.722021 
L 149.943696 257.722021 
L 150.052294 257.295746 
L 150.630033 257.295746 
L 150.630033 257.082608 
L 150.864604 257.082608 
L 150.96017 256.656333 
L 151.455376 256.656333 
L 151.520535 256.230057 
L 151.65954 256.230057 
L 151.65954 256.016919 
L 151.954925 256.016919 
L 151.954925 255.803782 
L 152.276375 255.803782 
L 152.276375 255.590644 
L 152.67167 255.590644 
L 152.754204 254.951231 
L 153.271129 254.951231 
L 153.271129 254.738093 
L 154.192038 254.738093 
L 154.192038 254.524955 
L 154.313667 254.524955 
L 154.318011 254.09868 
L 154.491768 254.09868 
L 154.491768 253.885542 
L 154.856656 253.885542 
L 154.856656 253.672404 
L 155.030412 253.672404 
L 155.030412 253.459267 
L 155.551681 253.459267 
L 155.551681 253.246129 
L 156.542092 253.246129 
L 156.542092 253.032991 
L 156.702817 253.032991 
L 156.702817 252.819853 
L 157.1068 252.819853 
L 157.1068 252.606716 
L 158.218841 252.606716 
L 158.218841 252.393578 
L 158.644544 252.393578 
L 158.722734 251.967302 
L 158.983368 251.967302 
L 158.983368 251.754165 
L 159.29613 251.754165 
L 159.29613 251.541027 
L 159.539389 251.541027 
L 159.539389 251.327889 
L 159.83043 251.327889 
L 159.912965 250.901614 
L 160.364731 250.901614 
L 160.364731 250.688476 
L 160.681836 250.688476 
L 160.681836 250.475338 
L 162.184829 250.475338 
L 162.184829 250.2622 
L 162.484558 250.2622 
L 162.488902 249.835925 
L 163.079674 249.835925 
L 163.079674 249.622787 
L 163.348996 249.622787 
L 163.427186 249.196512 
L 163.518408 249.196512 
L 163.53144 248.770236 
L 164.204746 248.770236 
L 164.282936 248.343961 
L 164.352439 248.343961 
L 164.352439 248.130823 
L 164.474068 248.130823 
L 164.474068 247.917685 
L 164.712983 247.917685 
L 164.712983 247.704548 
L 164.912803 247.704548 
L 164.912803 247.49141 
L 165.303754 247.49141 
L 165.303754 247.278272 
L 165.655611 247.278272 
L 165.655611 247.065134 
L 165.825023 247.065134 
L 165.825023 246.851997 
L 165.972716 246.851997 
L 165.972716 246.638859 
L 166.120409 246.638859 
L 166.133441 246.212584 
L 166.802403 246.212584 
L 166.802403 245.999446 
L 166.989191 245.999446 
L 166.989191 245.786308 
L 167.723311 245.786308 
L 167.723311 245.57317 
L 168.42268 245.57317 
L 168.42268 245.360033 
L 168.826664 245.360033 
L 168.826664 245.146895 
L 168.987388 245.146895 
L 169.052547 244.507482 
L 169.486938 244.507482 
L 169.486938 244.294344 
L 169.821419 244.294344 
L 169.821419 244.081206 
L 172.032468 244.081206 
L 172.032468 243.868068 
L 173.105413 243.868068 
L 173.105413 243.654931 
L 173.81347 243.654931 
L 173.869941 243.228655 
L 174.269581 243.228655 
L 174.304332 242.589242 
L 175.320806 242.589242 
L 175.320806 242.376104 
L 175.50325 242.376104 
L 175.50325 242.162967 
L 175.711758 242.162967 
L 175.711758 241.949829 
L 175.976736 241.949829 
L 175.976736 241.736691 
L 179.056567 241.736691 
L 179.056567 241.523553 
L 179.721185 241.523553 
L 179.721185 241.310416 
L 180.251142 241.310416 
L 180.251142 241.097278 
L 180.411866 241.097278 
L 180.411866 240.88414 
L 181.641192 240.88414 
L 181.641192 240.671002 
L 184.178035 240.671002 
L 184.178035 240.457865 
L 185.876503 240.457865 
L 185.876503 240.244727 
L 187.283929 240.244727 
L 187.283929 240.031589 
L 188.647916 240.031589 
L 188.647916 239.818452 
L 189.312534 239.818452 
L 189.312534 239.605314 
L 191.015346 239.605314 
L 191.015346 239.392176 
L 191.636525 239.392176 
L 191.636525 239.179038 
L 191.766842 239.179038 
L 191.766842 238.965901 
L 192.796348 238.965901 
L 192.891914 238.539625 
L 197.040346 238.539625 
L 197.040346 238.326487 
L 197.796186 238.326487 
L 197.796186 238.11335 
L 198.052477 238.11335 
L 198.052477 237.900212 
L 201.749142 237.900212 
L 201.749142 237.687074 
L 205.541374 237.687074 
L 205.541374 237.473936 
L 205.758569 237.473936 
L 205.758569 237.260799 
L 206.762012 237.260799 
L 206.762012 237.047661 
L 210.82791 237.047661 
L 210.82791 236.834523 
L 215.806028 236.834523 
L 215.806028 236.621385 
L 220.584327 236.621385 
L 220.584327 236.408248 
L 221.001342 236.408248 
L 221.001342 236.19511 
L 226.474666 236.19511 
L 226.474666 235.981972 
L 231.600478 235.981972 
L 231.600478 235.768835 
L 243.693918 235.768835 
L 243.693918 235.555697 
L 245.361978 235.555697 
L 245.361978 235.342559 
L 245.527047 235.342559 
L 245.622613 234.916284 
L 245.705147 234.916284 
L 245.705147 234.703146 
L 246.287231 234.703146 
L 246.287231 234.490008 
L 247.229859 234.490008 
L 247.229859 234.27687 
L 248.133391 234.27687 
L 248.133391 234.063733 
L 248.77629 234.063733 
L 248.8762 233.637457 
L 249.440908 233.637457 
L 249.440908 233.424319 
L 249.901362 233.424319 
L 249.901362 233.211182 
L 250.28797 233.211182 
L 250.28797 232.998044 
L 250.435663 232.998044 
L 250.435663 232.784906 
L 250.66589 232.784906 
L 250.66589 232.571769 
L 250.956932 232.571769 
L 250.956932 232.358631 
L 251.256661 232.358631 
L 251.256661 232.145493 
L 258.8585 232.145493 
L 258.8585 231.932355 
L 262.954805 231.932355 
L 262.954805 231.719218 
L 263.319694 231.719218 
L 263.319694 231.50608 
L 266.608032 231.50608 
L 266.712286 231.079804 
L 267.055455 231.079804 
L 267.055455 230.866667 
L 267.055455 230.866667 
" clip-path="url(#p2a6b0fd3c1)" style="fill: none; stroke: #d99ac5; stroke-width: 1.5; stroke-linecap: square"/>
   </g>
   <g id="line2d_43">
    <path d="M 139.157273 318.04 
L 139.157273 230.866667 
" clip-path="url(#p2a6b0fd3c1)" style="fill: none; stroke-dasharray: 5.55,2.4; stroke-dashoffset: 0; stroke: #ff0000; stroke-width: 1.5"/>
   </g>
   <g id="line2d_44">
    <path d="M 139.179492 318.04 
L 139.179492 230.866667 
" clip-path="url(#p2a6b0fd3c1)" style="fill: none; stroke-dasharray: 9.6,2.4,1.5,2.4; stroke-dashoffset: 0; stroke: #008000; stroke-width: 1.5"/>
   </g>
   <g id="line2d_45">
    <path d="M 245.461019 318.04 
L 245.461019 230.866667 
" clip-path="url(#p2a6b0fd3c1)" style="fill: none; stroke-dasharray: 1.5,2.475; stroke-dashoffset: 0; stroke: #0000ff; stroke-width: 1.5"/>
   </g>
   <g id="patch_16">
    <path d="M 54.02 318.04 
L 54.02 230.866667 
" style="fill: none; stroke: #000000; stroke-width: 0.8; stroke-linejoin: miter; stroke-linecap: square"/>
   </g>
   <g id="patch_17">
    <path d="M 277.2 318.04 
L 277.2 230.866667 
" style="fill: none; stroke: #000000; stroke-width: 0.8; stroke-linejoin: miter; stroke-linecap: square"/>
   </g>
   <g id="patch_18">
    <path d="M 54.02 318.04 
L 277.2 318.04 
" style="fill: none; stroke: #000000; stroke-width: 0.8; stroke-linejoin: miter; stroke-linecap: square"/>
   </g>
   <g id="patch_19">
    <path d="M 54.02 230.866667 
L 277.2 230.866667 
" style="fill: none; stroke: #000000; stroke-width: 0.8; stroke-linejoin: miter; stroke-linecap: square"/>
   </g>
   <g id="text_30">
    <g id="patch_20">
     <path d="M 183.928 317.193917 
L 220.568 317.193917 
L 220.568 301.451417 
L 183.928 301.451417 
z
" style="fill: #ffffff; opacity: 0.5; stroke: #000000; stroke-linejoin: miter"/>
    </g>
    <!-- $P_n = 50$ -->
    <g transform="translate(187.928 311.530167) scale(0.08 -0.08)">
     <use xlink:href="#DejaVuSans-Oblique-50" transform="translate(0 0.78125)"/>
     <use xlink:href="#DejaVuSans-Oblique-6e" transform="translate(60.302734 -15.625) scale(0.7)"/>
     <use xlink:href="#DejaVuSans-3d" transform="translate(126.884766 0.78125)"/>
     <use xlink:href="#DejaVuSans-35" transform="translate(230.15625 0.78125)"/>
     <use xlink:href="#DejaVuSans-30" transform="translate(293.779297 0.78125)"/>
    </g>
   </g>
  </g>
 </g>
 <defs>
  <clipPath id="pfb4bfb5894">
   <rect x="54.02" y="14.76" width="223.18" height="87.173333"/>
  </clipPath>
  <clipPath id="pe08121f042">
   <rect x="54.02" y="122.813333" width="223.18" height="87.173333"/>
  </clipPath>
  <clipPath id="p2a6b0fd3c1">
   <rect x="54.02" y="230.866667" width="223.18" height="87.173333"/>
  </clipPath>
 </defs>
</svg>
