<?xml version="1.0" encoding="utf-8" standalone="no"?>
<!DOCTYPE svg PUBLIC "-//W3C//DTD SVG 1.1//EN"
  "http://www.w3.org/Graphics/SVG/1.1/DTD/svg11.dtd">
<svg xmlns:xlink="http://www.w3.org/1999/xlink" width="432pt" height="288pt" viewBox="0 0 432 288" xmlns="http://www.w3.org/2000/svg" version="1.1">
 <metadata>
  <rdf:RDF xmlns:dc="http://purl.org/dc/elements/1.1/" xmlns:cc="http://creativecommons.org/ns#" xmlns:rdf="http://www.w3.org/1999/02/22-rdf-syntax-ns#">
   <cc:Work>
    <dc:type rdf:resource="http://purl.org/dc/dcmitype/StillImage"/>
    <dc:date>2024-09-03T18:06:17.445277</dc:date>
    <dc:format>image/svg+xml</dc:format>
    <dc:creator>
     <cc:Agent>
      <dc:title>Matplotlib v3.7.2, https://matplotlib.org/</dc:title>
     </cc:Agent>
    </dc:creator>
   </cc:Work>
  </rdf:RDF>
 </metadata>
 <defs>
  <style type="text/css">*{stroke-linejoin: round; stroke-linecap: butt}</style>
 </defs>
 <g id="figure_1">
  <g id="patch_1">
   <path d="M 0 288 
L 432 288 
L 432 0 
L 0 0 
z
" style="fill: #ffffff"/>
  </g>
  <g id="axes_1">
   <g id="patch_2">
    <path d="M 44.57 265.06 
L 160.58 265.06 
L 160.58 25.2 
L 44.57 25.2 
z
" style="fill: #ffffff"/>
   </g>
   <g id="patch_3">
    <path d="M 102.575 259.994975 
L 102.575 259.994975 
L 102.575 259.994975 
L 102.575 259.994975 
z
" clip-path="url(#p9dd442df8b)" style="fill: #d1a2c2; stroke: #606060; stroke-width: 0.75; stroke-linejoin: miter"/>
   </g>
   <g id="PolyCollection_1">
    <defs>
     <path id="m8eec864cdd" d="M 94.144199 -40.663716 
L 93.604301 -40.663716 
L 93.469931 -41.113716 
L 93.288741 -41.563716 
L 93.054407 -42.013716 
L 92.764218 -42.463715 
L 92.420926 -42.913715 
L 92.034231 -43.363715 
L 91.621459 -43.813714 
L 91.207027 -44.263714 
L 90.820494 -44.713714 
L 90.493304 -45.163713 
L 90.254666 -45.613713 
L 90.127289 -46.063713 
L 90.123831 -46.513713 
L 90.244834 -46.963712 
L 90.478597 -47.413712 
L 90.803037 -47.863712 
L 91.189121 -48.313711 
L 91.60514 -48.763711 
L 92.020946 -49.213711 
L 92.411391 -49.66371 
L 92.758449 -50.11371 
L 93.051886 -50.56371 
L 93.288655 -51.013709 
L 93.471392 -51.463709 
L 93.606523 -51.913709 
L 93.702386 -52.363709 
L 93.767689 -52.813708 
L 93.810439 -53.263708 
L 93.837348 -53.713708 
L 93.853642 -54.163707 
L 93.863137 -54.613707 
L 93.868463 -55.063707 
L 93.871339 -55.513706 
L 93.872831 -55.963706 
L 93.87357 -56.413706 
L 93.873905 -56.863705 
L 93.874006 -57.313705 
L 93.873926 -57.763705 
L 93.873613 -58.213705 
L 93.872882 -58.663704 
L 93.871346 -59.113704 
L 93.868271 -59.563704 
L 93.862355 -60.013703 
L 93.851395 -60.463703 
L 93.831843 -60.913703 
L 93.798261 -61.363702 
L 93.742751 -61.813702 
L 93.654483 -62.263702 
L 93.519531 -62.713702 
L 93.321284 -63.163701 
L 93.041687 -63.613701 
L 92.663512 -64.063701 
L 92.173628 -64.5137 
L 91.566975 -64.9637 
L 90.850586 -65.4137 
L 90.046727 -65.863699 
L 89.194105 -66.313699 
L 88.346304 -66.763699 
L 87.567052 -67.213698 
L 86.922707 -67.663698 
L 86.473066 -68.113698 
L 86.262257 -68.563698 
L 86.311603 -69.013697 
L 86.616069 -69.463697 
L 87.145099 -69.913697 
L 87.847657 -70.363696 
L 88.660303 -70.813696 
L 89.516533 -71.263696 
L 90.355485 -71.713695 
L 91.128435 -72.163695 
L 91.802266 -72.613695 
L 92.359814 -73.063694 
L 92.797707 -73.513694 
L 93.122681 -73.963694 
L 93.347436 -74.413694 
L 93.486922 -74.863693 
L 93.55564 -75.313693 
L 93.56616 -75.763693 
L 93.52882 -76.213692 
L 93.452291 -76.663692 
L 93.344636 -77.113692 
L 93.214439 -77.563691 
L 93.07161 -78.013691 
L 92.927614 -78.463691 
L 92.794982 -78.913691 
L 92.68619 -79.36369 
L 92.612138 -79.81369 
L 92.580582 -80.26369 
L 92.594934 -80.713689 
L 92.653718 -81.163689 
L 92.750858 -81.613689 
L 92.876731 -82.063688 
L 93.019737 -82.513688 
L 93.168058 -82.963688 
L 93.311217 -83.413687 
L 93.441187 -83.863687 
L 93.552903 -84.313687 
L 93.644209 -84.763687 
L 93.71538 -85.213686 
L 94.03312 -85.213686 
L 94.03312 -85.213686 
L 94.104291 -84.763687 
L 94.195597 -84.313687 
L 94.307313 -83.863687 
L 94.437283 -83.413687 
L 94.580442 -82.963688 
L 94.728763 -82.513688 
L 94.871769 -82.063688 
L 94.997642 -81.613689 
L 95.094782 -81.163689 
L 95.153566 -80.713689 
L 95.167918 -80.26369 
L 95.136362 -79.81369 
L 95.06231 -79.36369 
L 94.953518 -78.913691 
L 94.820886 -78.463691 
L 94.67689 -78.013691 
L 94.534061 -77.563691 
L 94.403864 -77.113692 
L 94.296209 -76.663692 
L 94.21968 -76.213692 
L 94.18234 -75.763693 
L 94.19286 -75.313693 
L 94.261578 -74.863693 
L 94.401064 -74.413694 
L 94.625819 -73.963694 
L 94.950793 -73.513694 
L 95.388686 -73.063694 
L 95.946234 -72.613695 
L 96.620065 -72.163695 
L 97.393015 -71.713695 
L 98.231967 -71.263696 
L 99.088197 -70.813696 
L 99.900843 -70.363696 
L 100.603401 -69.913697 
L 101.132431 -69.463697 
L 101.436897 -69.013697 
L 101.486243 -68.563698 
L 101.275434 -68.113698 
L 100.825793 -67.663698 
L 100.181448 -67.213698 
L 99.402196 -66.763699 
L 98.554395 -66.313699 
L 97.701773 -65.863699 
L 96.897914 -65.4137 
L 96.181525 -64.9637 
L 95.574872 -64.5137 
L 95.084988 -64.063701 
L 94.706813 -63.613701 
L 94.427216 -63.163701 
L 94.228969 -62.713702 
L 94.094017 -62.263702 
L 94.005749 -61.813702 
L 93.950239 -61.363702 
L 93.916657 -60.913703 
L 93.897105 -60.463703 
L 93.886145 -60.013703 
L 93.880229 -59.563704 
L 93.877154 -59.113704 
L 93.875618 -58.663704 
L 93.874887 -58.213705 
L 93.874574 -57.763705 
L 93.874494 -57.313705 
L 93.874595 -56.863705 
L 93.87493 -56.413706 
L 93.875669 -55.963706 
L 93.877161 -55.513706 
L 93.880037 -55.063707 
L 93.885363 -54.613707 
L 93.894858 -54.163707 
L 93.911152 -53.713708 
L 93.938061 -53.263708 
L 93.980811 -52.813708 
L 94.046114 -52.363709 
L 94.141977 -51.913709 
L 94.277108 -51.463709 
L 94.459845 -51.013709 
L 94.696614 -50.56371 
L 94.990051 -50.11371 
L 95.337109 -49.66371 
L 95.727554 -49.213711 
L 96.14336 -48.763711 
L 96.559379 -48.313711 
L 96.945463 -47.863712 
L 97.269903 -47.413712 
L 97.503666 -46.963712 
L 97.624669 -46.513713 
L 97.621211 -46.063713 
L 97.493834 -45.613713 
L 97.255196 -45.163713 
L 96.928006 -44.713714 
L 96.541473 -44.263714 
L 96.127041 -43.813714 
L 95.714269 -43.363715 
L 95.327574 -42.913715 
L 94.984282 -42.463715 
L 94.694093 -42.013716 
L 94.459759 -41.563716 
L 94.278569 -41.113716 
L 94.144199 -40.663716 
z
" style="stroke: #606060; stroke-width: 1.5"/>
    </defs>
    <g clip-path="url(#p9dd442df8b)">
     <use xlink:href="#m8eec864cdd" x="0" y="288" style="fill: #d1a2c2; stroke: #606060; stroke-width: 1.5"/>
    </g>
   </g>
   <g id="patch_4">
    <path d="M 102.575 259.994975 
L 102.575 259.994975 
L 102.575 259.994975 
L 102.575 259.994975 
z
" clip-path="url(#p9dd442df8b)" style="fill: #c98978; stroke: #606060; stroke-width: 0.75; stroke-linejoin: miter"/>
   </g>
   <g id="PolyCollection_2">
    <defs>
     <path id="mf5c5aa892e" d="M 111.835576 -51.927713 
L 110.715924 -51.927713 
L 110.2823 -52.47603 
L 109.627598 -53.024347 
L 108.719302 -53.572664 
L 107.568133 -54.120981 
L 106.247712 -54.669297 
L 104.899371 -55.217614 
L 103.713601 -55.765931 
L 102.888236 -56.314248 
L 102.575 -56.862564 
L 102.834021 -57.410881 
L 103.615009 -57.959198 
L 104.773131 -58.507515 
L 106.112676 -59.055832 
L 107.440379 -59.604148 
L 108.608414 -60.152465 
L 109.534498 -60.700782 
L 110.197916 -61.249099 
L 110.619377 -61.797415 
L 110.836031 -62.345732 
L 110.881074 -62.894049 
L 110.773092 -63.442366 
L 110.516195 -63.990683 
L 110.109171 -64.538999 
L 109.559917 -65.087316 
L 108.899803 -65.635633 
L 108.191776 -66.18395 
L 107.527032 -66.732267 
L 107.008758 -67.280583 
L 106.726965 -67.8289 
L 106.733245 -68.377217 
L 107.025468 -68.925534 
L 107.54878 -69.47385 
L 108.212393 -70.022167 
L 108.915146 -70.570484 
L 109.57005 -71.118801 
L 110.119918 -71.667118 
L 110.54116 -72.215434 
L 110.837842 -72.763751 
L 111.030886 -73.312068 
L 111.147319 -73.860385 
L 111.212567 -74.408701 
L 111.246597 -74.957018 
L 111.263135 -75.505335 
L 111.270632 -76.053652 
L 111.273803 -76.601969 
L 111.275056 -77.150285 
L 111.275518 -77.698602 
L 111.275677 -78.246919 
L 111.275729 -78.795236 
L 111.275743 -79.343552 
L 111.275745 -79.891869 
L 111.275738 -80.440186 
L 111.275711 -80.988503 
L 111.275628 -81.53682 
L 111.275393 -82.085136 
L 111.274772 -82.633453 
L 111.273252 -83.18177 
L 111.269796 -83.730087 
L 111.262513 -84.278404 
L 111.248295 -84.82672 
L 111.222624 -85.375037 
L 111.179848 -85.923354 
L 111.114245 -86.471671 
L 111.022014 -87.019987 
L 110.903862 -87.568304 
L 110.767273 -88.116621 
L 110.627182 -88.664938 
L 110.504027 -89.213255 
L 110.419139 -89.761571 
L 110.388766 -90.309888 
L 110.419001 -90.858205 
L 110.503799 -91.406522 
L 110.626936 -91.954838 
L 110.767075 -92.503155 
L 110.903736 -93.051472 
L 111.021923 -93.599789 
L 111.114067 -94.148106 
L 111.179313 -94.696422 
L 111.221185 -95.244739 
L 111.244878 -95.793056 
L 111.255144 -96.341373 
L 111.255122 -96.889689 
L 111.246099 -97.438006 
L 111.227979 -97.986323 
L 111.200236 -98.53464 
L 111.163094 -99.082957 
L 111.118615 -99.631273 
L 111.071276 -100.17959 
L 111.027641 -100.727907 
L 110.995056 -101.276224 
L 110.979675 -101.824541 
L 110.984581 -102.372857 
L 111.00878 -102.921174 
L 111.04753 -103.469491 
L 111.093856 -104.017808 
L 111.140587 -104.566124 
L 111.182108 -105.114441 
L 111.215264 -105.662758 
L 111.239324 -106.211075 
L 111.312176 -106.211075 
L 111.312176 -106.211075 
L 111.336236 -105.662758 
L 111.369392 -105.114441 
L 111.410913 -104.566124 
L 111.457644 -104.017808 
L 111.50397 -103.469491 
L 111.54272 -102.921174 
L 111.566919 -102.372857 
L 111.571825 -101.824541 
L 111.556444 -101.276224 
L 111.523859 -100.727907 
L 111.480224 -100.17959 
L 111.432885 -99.631273 
L 111.388406 -99.082957 
L 111.351264 -98.53464 
L 111.323521 -97.986323 
L 111.305401 -97.438006 
L 111.296378 -96.889689 
L 111.296356 -96.341373 
L 111.306622 -95.793056 
L 111.330315 -95.244739 
L 111.372187 -94.696422 
L 111.437433 -94.148106 
L 111.529577 -93.599789 
L 111.647764 -93.051472 
L 111.784425 -92.503155 
L 111.924564 -91.954838 
L 112.047701 -91.406522 
L 112.132499 -90.858205 
L 112.162734 -90.309888 
L 112.132361 -89.761571 
L 112.047473 -89.213255 
L 111.924318 -88.664938 
L 111.784227 -88.116621 
L 111.647638 -87.568304 
L 111.529486 -87.019987 
L 111.437255 -86.471671 
L 111.371652 -85.923354 
L 111.328876 -85.375037 
L 111.303205 -84.82672 
L 111.288987 -84.278404 
L 111.281704 -83.730087 
L 111.278248 -83.18177 
L 111.276728 -82.633453 
L 111.276107 -82.085136 
L 111.275872 -81.53682 
L 111.275789 -80.988503 
L 111.275762 -80.440186 
L 111.275755 -79.891869 
L 111.275757 -79.343552 
L 111.275771 -78.795236 
L 111.275823 -78.246919 
L 111.275982 -77.698602 
L 111.276444 -77.150285 
L 111.277697 -76.601969 
L 111.280868 -76.053652 
L 111.288365 -75.505335 
L 111.304903 -74.957018 
L 111.338933 -74.408701 
L 111.404181 -73.860385 
L 111.520614 -73.312068 
L 111.713658 -72.763751 
L 112.01034 -72.215434 
L 112.431582 -71.667118 
L 112.98145 -71.118801 
L 113.636354 -70.570484 
L 114.339107 -70.022167 
L 115.00272 -69.47385 
L 115.526032 -68.925534 
L 115.818255 -68.377217 
L 115.824535 -67.8289 
L 115.542742 -67.280583 
L 115.024468 -66.732267 
L 114.359724 -66.18395 
L 113.651697 -65.635633 
L 112.991583 -65.087316 
L 112.442329 -64.538999 
L 112.035305 -63.990683 
L 111.778408 -63.442366 
L 111.670426 -62.894049 
L 111.715469 -62.345732 
L 111.932123 -61.797415 
L 112.353584 -61.249099 
L 113.017002 -60.700782 
L 113.943086 -60.152465 
L 115.111121 -59.604148 
L 116.438824 -59.055832 
L 117.778369 -58.507515 
L 118.936491 -57.959198 
L 119.717479 -57.410881 
L 119.9765 -56.862564 
L 119.663264 -56.314248 
L 118.837899 -55.765931 
L 117.652129 -55.217614 
L 116.303788 -54.669297 
L 114.983367 -54.120981 
L 113.832198 -53.572664 
L 112.923902 -53.024347 
L 112.2692 -52.47603 
L 111.835576 -51.927713 
z
" style="stroke: #606060; stroke-width: 1.5"/>
    </defs>
    <g clip-path="url(#p9dd442df8b)">
     <use xlink:href="#mf5c5aa892e" x="0" y="288" style="fill: #c98978; stroke: #606060; stroke-width: 1.5"/>
    </g>
   </g>
   <g id="matplotlib.axis_1">
    <g id="xtick_1">
     <g id="line2d_1">
      <defs>
       <path id="mc33de9aacc" d="M 0 0 
L 0 3.5 
" style="stroke: #000000; stroke-width: 0.8"/>
      </defs>
      <g>
       <use xlink:href="#mc33de9aacc" x="102.575" y="265.06" style="stroke: #000000; stroke-width: 0.8"/>
      </g>
     </g>
    </g>
   </g>
   <g id="matplotlib.axis_2">
    <g id="ytick_1">
     <g id="line2d_2">
      <defs>
       <path id="mecd4383bee" d="M 0 0 
L -3.5 0 
" style="stroke: #000000; stroke-width: 0.8"/>
      </defs>
      <g>
       <use xlink:href="#mecd4383bee" x="44.57" y="259.994975" style="stroke: #000000; stroke-width: 0.8"/>
      </g>
     </g>
     <g id="text_1">
      <!-- 0 -->
      <g transform="translate(31.2075 263.794194) scale(0.1 -0.1)">
       <defs>
        <path id="DejaVuSans-30" d="M 2034 4250 
Q 1547 4250 1301 3770 
Q 1056 3291 1056 2328 
Q 1056 1369 1301 889 
Q 1547 409 2034 409 
Q 2525 409 2770 889 
Q 3016 1369 3016 2328 
Q 3016 3291 2770 3770 
Q 2525 4250 2034 4250 
z
M 2034 4750 
Q 2819 4750 3233 4129 
Q 3647 3509 3647 2328 
Q 3647 1150 3233 529 
Q 2819 -91 2034 -91 
Q 1250 -91 836 529 
Q 422 1150 422 2328 
Q 422 3509 836 4129 
Q 1250 4750 2034 4750 
z
" transform="scale(0.015625)"/>
       </defs>
       <use xlink:href="#DejaVuSans-30"/>
      </g>
     </g>
    </g>
    <g id="ytick_2">
     <g id="line2d_3">
      <g>
       <use xlink:href="#mecd4383bee" x="44.57" y="231.895171" style="stroke: #000000; stroke-width: 0.8"/>
      </g>
     </g>
     <g id="text_2">
      <!-- 10 -->
      <g transform="translate(24.845 235.69439) scale(0.1 -0.1)">
       <defs>
        <path id="DejaVuSans-31" d="M 794 531 
L 1825 531 
L 1825 4091 
L 703 3866 
L 703 4441 
L 1819 4666 
L 2450 4666 
L 2450 531 
L 3481 531 
L 3481 0 
L 794 0 
L 794 531 
z
" transform="scale(0.015625)"/>
       </defs>
       <use xlink:href="#DejaVuSans-31"/>
       <use xlink:href="#DejaVuSans-30" x="63.623047"/>
      </g>
     </g>
    </g>
    <g id="ytick_3">
     <g id="line2d_4">
      <g>
       <use xlink:href="#mecd4383bee" x="44.57" y="203.795367" style="stroke: #000000; stroke-width: 0.8"/>
      </g>
     </g>
     <g id="text_3">
      <!-- 20 -->
      <g transform="translate(24.845 207.594585) scale(0.1 -0.1)">
       <defs>
        <path id="DejaVuSans-32" d="M 1228 531 
L 3431 531 
L 3431 0 
L 469 0 
L 469 531 
Q 828 903 1448 1529 
Q 2069 2156 2228 2338 
Q 2531 2678 2651 2914 
Q 2772 3150 2772 3378 
Q 2772 3750 2511 3984 
Q 2250 4219 1831 4219 
Q 1534 4219 1204 4116 
Q 875 4013 500 3803 
L 500 4441 
Q 881 4594 1212 4672 
Q 1544 4750 1819 4750 
Q 2544 4750 2975 4387 
Q 3406 4025 3406 3419 
Q 3406 3131 3298 2873 
Q 3191 2616 2906 2266 
Q 2828 2175 2409 1742 
Q 1991 1309 1228 531 
z
" transform="scale(0.015625)"/>
       </defs>
       <use xlink:href="#DejaVuSans-32"/>
       <use xlink:href="#DejaVuSans-30" x="63.623047"/>
      </g>
     </g>
    </g>
    <g id="ytick_4">
     <g id="line2d_5">
      <g>
       <use xlink:href="#mecd4383bee" x="44.57" y="175.695562" style="stroke: #000000; stroke-width: 0.8"/>
      </g>
     </g>
     <g id="text_4">
      <!-- 30 -->
      <g transform="translate(24.845 179.494781) scale(0.1 -0.1)">
       <defs>
        <path id="DejaVuSans-33" d="M 2597 2516 
Q 3050 2419 3304 2112 
Q 3559 1806 3559 1356 
Q 3559 666 3084 287 
Q 2609 -91 1734 -91 
Q 1441 -91 1130 -33 
Q 819 25 488 141 
L 488 750 
Q 750 597 1062 519 
Q 1375 441 1716 441 
Q 2309 441 2620 675 
Q 2931 909 2931 1356 
Q 2931 1769 2642 2001 
Q 2353 2234 1838 2234 
L 1294 2234 
L 1294 2753 
L 1863 2753 
Q 2328 2753 2575 2939 
Q 2822 3125 2822 3475 
Q 2822 3834 2567 4026 
Q 2313 4219 1838 4219 
Q 1578 4219 1281 4162 
Q 984 4106 628 3988 
L 628 4550 
Q 988 4650 1302 4700 
Q 1616 4750 1894 4750 
Q 2613 4750 3031 4423 
Q 3450 4097 3450 3541 
Q 3450 3153 3228 2886 
Q 3006 2619 2597 2516 
z
" transform="scale(0.015625)"/>
       </defs>
       <use xlink:href="#DejaVuSans-33"/>
       <use xlink:href="#DejaVuSans-30" x="63.623047"/>
      </g>
     </g>
    </g>
    <g id="ytick_5">
     <g id="line2d_6">
      <g>
       <use xlink:href="#mecd4383bee" x="44.57" y="147.595758" style="stroke: #000000; stroke-width: 0.8"/>
      </g>
     </g>
     <g id="text_5">
      <!-- 40 -->
      <g transform="translate(24.845 151.394977) scale(0.1 -0.1)">
       <defs>
        <path id="DejaVuSans-34" d="M 2419 4116 
L 825 1625 
L 2419 1625 
L 2419 4116 
z
M 2253 4666 
L 3047 4666 
L 3047 1625 
L 3713 1625 
L 3713 1100 
L 3047 1100 
L 3047 0 
L 2419 0 
L 2419 1100 
L 313 1100 
L 313 1709 
L 2253 4666 
z
" transform="scale(0.015625)"/>
       </defs>
       <use xlink:href="#DejaVuSans-34"/>
       <use xlink:href="#DejaVuSans-30" x="63.623047"/>
      </g>
     </g>
    </g>
    <g id="ytick_6">
     <g id="line2d_7">
      <g>
       <use xlink:href="#mecd4383bee" x="44.57" y="119.495953" style="stroke: #000000; stroke-width: 0.8"/>
      </g>
     </g>
     <g id="text_6">
      <!-- 50 -->
      <g transform="translate(24.845 123.295172) scale(0.1 -0.1)">
       <defs>
        <path id="DejaVuSans-35" d="M 691 4666 
L 3169 4666 
L 3169 4134 
L 1269 4134 
L 1269 2991 
Q 1406 3038 1543 3061 
Q 1681 3084 1819 3084 
Q 2600 3084 3056 2656 
Q 3513 2228 3513 1497 
Q 3513 744 3044 326 
Q 2575 -91 1722 -91 
Q 1428 -91 1123 -41 
Q 819 9 494 109 
L 494 744 
Q 775 591 1075 516 
Q 1375 441 1709 441 
Q 2250 441 2565 725 
Q 2881 1009 2881 1497 
Q 2881 1984 2565 2268 
Q 2250 2553 1709 2553 
Q 1456 2553 1204 2497 
Q 953 2441 691 2322 
L 691 4666 
z
" transform="scale(0.015625)"/>
       </defs>
       <use xlink:href="#DejaVuSans-35"/>
       <use xlink:href="#DejaVuSans-30" x="63.623047"/>
      </g>
     </g>
    </g>
    <g id="ytick_7">
     <g id="line2d_8">
      <g>
       <use xlink:href="#mecd4383bee" x="44.57" y="91.396149" style="stroke: #000000; stroke-width: 0.8"/>
      </g>
     </g>
     <g id="text_7">
      <!-- 60 -->
      <g transform="translate(24.845 95.195368) scale(0.1 -0.1)">
       <defs>
        <path id="DejaVuSans-36" d="M 2113 2584 
Q 1688 2584 1439 2293 
Q 1191 2003 1191 1497 
Q 1191 994 1439 701 
Q 1688 409 2113 409 
Q 2538 409 2786 701 
Q 3034 994 3034 1497 
Q 3034 2003 2786 2293 
Q 2538 2584 2113 2584 
z
M 3366 4563 
L 3366 3988 
Q 3128 4100 2886 4159 
Q 2644 4219 2406 4219 
Q 1781 4219 1451 3797 
Q 1122 3375 1075 2522 
Q 1259 2794 1537 2939 
Q 1816 3084 2150 3084 
Q 2853 3084 3261 2657 
Q 3669 2231 3669 1497 
Q 3669 778 3244 343 
Q 2819 -91 2113 -91 
Q 1303 -91 875 529 
Q 447 1150 447 2328 
Q 447 3434 972 4092 
Q 1497 4750 2381 4750 
Q 2619 4750 2861 4703 
Q 3103 4656 3366 4563 
z
" transform="scale(0.015625)"/>
       </defs>
       <use xlink:href="#DejaVuSans-36"/>
       <use xlink:href="#DejaVuSans-30" x="63.623047"/>
      </g>
     </g>
    </g>
    <g id="ytick_8">
     <g id="line2d_9">
      <g>
       <use xlink:href="#mecd4383bee" x="44.57" y="63.296345" style="stroke: #000000; stroke-width: 0.8"/>
      </g>
     </g>
     <g id="text_8">
      <!-- 70 -->
      <g transform="translate(24.845 67.095563) scale(0.1 -0.1)">
       <defs>
        <path id="DejaVuSans-37" d="M 525 4666 
L 3525 4666 
L 3525 4397 
L 1831 0 
L 1172 0 
L 2766 4134 
L 525 4134 
L 525 4666 
z
" transform="scale(0.015625)"/>
       </defs>
       <use xlink:href="#DejaVuSans-37"/>
       <use xlink:href="#DejaVuSans-30" x="63.623047"/>
      </g>
     </g>
    </g>
    <g id="ytick_9">
     <g id="line2d_10">
      <g>
       <use xlink:href="#mecd4383bee" x="44.57" y="35.19654" style="stroke: #000000; stroke-width: 0.8"/>
      </g>
     </g>
     <g id="text_9">
      <!-- 80 -->
      <g transform="translate(24.845 38.995759) scale(0.1 -0.1)">
       <defs>
        <path id="DejaVuSans-38" d="M 2034 2216 
Q 1584 2216 1326 1975 
Q 1069 1734 1069 1313 
Q 1069 891 1326 650 
Q 1584 409 2034 409 
Q 2484 409 2743 651 
Q 3003 894 3003 1313 
Q 3003 1734 2745 1975 
Q 2488 2216 2034 2216 
z
M 1403 2484 
Q 997 2584 770 2862 
Q 544 3141 544 3541 
Q 544 4100 942 4425 
Q 1341 4750 2034 4750 
Q 2731 4750 3128 4425 
Q 3525 4100 3525 3541 
Q 3525 3141 3298 2862 
Q 3072 2584 2669 2484 
Q 3125 2378 3379 2068 
Q 3634 1759 3634 1313 
Q 3634 634 3220 271 
Q 2806 -91 2034 -91 
Q 1263 -91 848 271 
Q 434 634 434 1313 
Q 434 1759 690 2068 
Q 947 2378 1403 2484 
z
M 1172 3481 
Q 1172 3119 1398 2916 
Q 1625 2713 2034 2713 
Q 2441 2713 2670 2916 
Q 2900 3119 2900 3481 
Q 2900 3844 2670 4047 
Q 2441 4250 2034 4250 
Q 1625 4250 1398 4047 
Q 1172 3844 1172 3481 
z
" transform="scale(0.015625)"/>
       </defs>
       <use xlink:href="#DejaVuSans-38"/>
       <use xlink:href="#DejaVuSans-30" x="63.623047"/>
      </g>
     </g>
    </g>
    <g id="text_10">
     <!-- Latency (s) -->
     <g transform="translate(18.765313 172.989375) rotate(-90) scale(0.1 -0.1)">
      <defs>
       <path id="DejaVuSans-4c" d="M 628 4666 
L 1259 4666 
L 1259 531 
L 3531 531 
L 3531 0 
L 628 0 
L 628 4666 
z
" transform="scale(0.015625)"/>
       <path id="DejaVuSans-61" d="M 2194 1759 
Q 1497 1759 1228 1600 
Q 959 1441 959 1056 
Q 959 750 1161 570 
Q 1363 391 1709 391 
Q 2188 391 2477 730 
Q 2766 1069 2766 1631 
L 2766 1759 
L 2194 1759 
z
M 3341 1997 
L 3341 0 
L 2766 0 
L 2766 531 
Q 2569 213 2275 61 
Q 1981 -91 1556 -91 
Q 1019 -91 701 211 
Q 384 513 384 1019 
Q 384 1609 779 1909 
Q 1175 2209 1959 2209 
L 2766 2209 
L 2766 2266 
Q 2766 2663 2505 2880 
Q 2244 3097 1772 3097 
Q 1472 3097 1187 3025 
Q 903 2953 641 2809 
L 641 3341 
Q 956 3463 1253 3523 
Q 1550 3584 1831 3584 
Q 2591 3584 2966 3190 
Q 3341 2797 3341 1997 
z
" transform="scale(0.015625)"/>
       <path id="DejaVuSans-74" d="M 1172 4494 
L 1172 3500 
L 2356 3500 
L 2356 3053 
L 1172 3053 
L 1172 1153 
Q 1172 725 1289 603 
Q 1406 481 1766 481 
L 2356 481 
L 2356 0 
L 1766 0 
Q 1100 0 847 248 
Q 594 497 594 1153 
L 594 3053 
L 172 3053 
L 172 3500 
L 594 3500 
L 594 4494 
L 1172 4494 
z
" transform="scale(0.015625)"/>
       <path id="DejaVuSans-65" d="M 3597 1894 
L 3597 1613 
L 953 1613 
Q 991 1019 1311 708 
Q 1631 397 2203 397 
Q 2534 397 2845 478 
Q 3156 559 3463 722 
L 3463 178 
Q 3153 47 2828 -22 
Q 2503 -91 2169 -91 
Q 1331 -91 842 396 
Q 353 884 353 1716 
Q 353 2575 817 3079 
Q 1281 3584 2069 3584 
Q 2775 3584 3186 3129 
Q 3597 2675 3597 1894 
z
M 3022 2063 
Q 3016 2534 2758 2815 
Q 2500 3097 2075 3097 
Q 1594 3097 1305 2825 
Q 1016 2553 972 2059 
L 3022 2063 
z
" transform="scale(0.015625)"/>
       <path id="DejaVuSans-6e" d="M 3513 2113 
L 3513 0 
L 2938 0 
L 2938 2094 
Q 2938 2591 2744 2837 
Q 2550 3084 2163 3084 
Q 1697 3084 1428 2787 
Q 1159 2491 1159 1978 
L 1159 0 
L 581 0 
L 581 3500 
L 1159 3500 
L 1159 2956 
Q 1366 3272 1645 3428 
Q 1925 3584 2291 3584 
Q 2894 3584 3203 3211 
Q 3513 2838 3513 2113 
z
" transform="scale(0.015625)"/>
       <path id="DejaVuSans-63" d="M 3122 3366 
L 3122 2828 
Q 2878 2963 2633 3030 
Q 2388 3097 2138 3097 
Q 1578 3097 1268 2742 
Q 959 2388 959 1747 
Q 959 1106 1268 751 
Q 1578 397 2138 397 
Q 2388 397 2633 464 
Q 2878 531 3122 666 
L 3122 134 
Q 2881 22 2623 -34 
Q 2366 -91 2075 -91 
Q 1284 -91 818 406 
Q 353 903 353 1747 
Q 353 2603 823 3093 
Q 1294 3584 2113 3584 
Q 2378 3584 2631 3529 
Q 2884 3475 3122 3366 
z
" transform="scale(0.015625)"/>
       <path id="DejaVuSans-79" d="M 2059 -325 
Q 1816 -950 1584 -1140 
Q 1353 -1331 966 -1331 
L 506 -1331 
L 506 -850 
L 844 -850 
Q 1081 -850 1212 -737 
Q 1344 -625 1503 -206 
L 1606 56 
L 191 3500 
L 800 3500 
L 1894 763 
L 2988 3500 
L 3597 3500 
L 2059 -325 
z
" transform="scale(0.015625)"/>
       <path id="DejaVuSans-20" transform="scale(0.015625)"/>
       <path id="DejaVuSans-28" d="M 1984 4856 
Q 1566 4138 1362 3434 
Q 1159 2731 1159 2009 
Q 1159 1288 1364 580 
Q 1569 -128 1984 -844 
L 1484 -844 
Q 1016 -109 783 600 
Q 550 1309 550 2009 
Q 550 2706 781 3412 
Q 1013 4119 1484 4856 
L 1984 4856 
z
" transform="scale(0.015625)"/>
       <path id="DejaVuSans-73" d="M 2834 3397 
L 2834 2853 
Q 2591 2978 2328 3040 
Q 2066 3103 1784 3103 
Q 1356 3103 1142 2972 
Q 928 2841 928 2578 
Q 928 2378 1081 2264 
Q 1234 2150 1697 2047 
L 1894 2003 
Q 2506 1872 2764 1633 
Q 3022 1394 3022 966 
Q 3022 478 2636 193 
Q 2250 -91 1575 -91 
Q 1294 -91 989 -36 
Q 684 19 347 128 
L 347 722 
Q 666 556 975 473 
Q 1284 391 1588 391 
Q 1994 391 2212 530 
Q 2431 669 2431 922 
Q 2431 1156 2273 1281 
Q 2116 1406 1581 1522 
L 1381 1569 
Q 847 1681 609 1914 
Q 372 2147 372 2553 
Q 372 3047 722 3315 
Q 1072 3584 1716 3584 
Q 2034 3584 2315 3537 
Q 2597 3491 2834 3397 
z
" transform="scale(0.015625)"/>
       <path id="DejaVuSans-29" d="M 513 4856 
L 1013 4856 
Q 1481 4119 1714 3412 
Q 1947 2706 1947 2009 
Q 1947 1309 1714 600 
Q 1481 -109 1013 -844 
L 513 -844 
Q 928 -128 1133 580 
Q 1338 1288 1338 2009 
Q 1338 2731 1133 3434 
Q 928 4138 513 4856 
z
" transform="scale(0.015625)"/>
      </defs>
      <use xlink:href="#DejaVuSans-4c"/>
      <use xlink:href="#DejaVuSans-61" x="55.712891"/>
      <use xlink:href="#DejaVuSans-74" x="116.992188"/>
      <use xlink:href="#DejaVuSans-65" x="156.201172"/>
      <use xlink:href="#DejaVuSans-6e" x="217.724609"/>
      <use xlink:href="#DejaVuSans-63" x="281.103516"/>
      <use xlink:href="#DejaVuSans-79" x="336.083984"/>
      <use xlink:href="#DejaVuSans-20" x="395.263672"/>
      <use xlink:href="#DejaVuSans-28" x="427.050781"/>
      <use xlink:href="#DejaVuSans-73" x="466.064453"/>
      <use xlink:href="#DejaVuSans-29" x="518.164062"/>
     </g>
    </g>
   </g>
   <g id="line2d_11">
    <path d="M 93.87425 242.592767 
L 93.87425 207.529831 
" clip-path="url(#p9dd442df8b)" style="fill: none; stroke: #606060; stroke-width: 1.5; stroke-linecap: square"/>
   </g>
   <g id="line2d_12">
    <path d="M 93.87425 241.068352 
L 93.87425 218.940459 
" clip-path="url(#p9dd442df8b)" style="fill: none; stroke: #606060; stroke-width: 4.5; stroke-linecap: square"/>
   </g>
   <g id="line2d_13">
    <path d="M 111.27575 231.934511 
L 111.27575 218.480324 
" clip-path="url(#p9dd442df8b)" style="fill: none; stroke: #606060; stroke-width: 1.5; stroke-linecap: square"/>
   </g>
   <g id="line2d_14">
    <path d="M 111.27575 231.250281 
L 111.27575 220.005441 
" clip-path="url(#p9dd442df8b)" style="fill: none; stroke: #606060; stroke-width: 4.5; stroke-linecap: square"/>
   </g>
   <g id="patch_5">
    <path d="M 44.57 265.06 
L 44.57 25.2 
" style="fill: none; stroke: #000000; stroke-width: 0.8; stroke-linejoin: miter; stroke-linecap: square"/>
   </g>
   <g id="patch_6">
    <path d="M 160.58 265.06 
L 160.58 25.2 
" style="fill: none; stroke: #000000; stroke-width: 0.8; stroke-linejoin: miter; stroke-linecap: square"/>
   </g>
   <g id="patch_7">
    <path d="M 44.57 265.06 
L 160.58 265.06 
" style="fill: none; stroke: #000000; stroke-width: 0.8; stroke-linejoin: miter; stroke-linecap: square"/>
   </g>
   <g id="patch_8">
    <path d="M 44.57 25.2 
L 160.58 25.2 
" style="fill: none; stroke: #000000; stroke-width: 0.8; stroke-linejoin: miter; stroke-linecap: square"/>
   </g>
   <g id="PathCollection_1">
    <defs>
     <path id="m7b5ce3f8ab" d="M 0 1.5 
C 0.397805 1.5 0.77937 1.341951 1.06066 1.06066 
C 1.341951 0.77937 1.5 0.397805 1.5 0 
C 1.5 -0.397805 1.341951 -0.77937 1.06066 -1.06066 
C 0.77937 -1.341951 0.397805 -1.5 0 -1.5 
C -0.397805 -1.5 -0.77937 -1.341951 -1.06066 -1.06066 
C -1.341951 -0.77937 -1.5 -0.397805 -1.5 0 
C -1.5 0.397805 -1.341951 0.77937 -1.06066 1.06066 
C -0.77937 1.341951 -0.397805 1.5 0 1.5 
z
" style="stroke: #606060"/>
    </defs>
    <g clip-path="url(#p9dd442df8b)">
     <use xlink:href="#m7b5ce3f8ab" x="93.87425" y="219.595887" style="fill: #ffffff; stroke: #606060"/>
    </g>
   </g>
   <g id="PathCollection_2">
    <g clip-path="url(#p9dd442df8b)">
     <use xlink:href="#m7b5ce3f8ab" x="111.27575" y="230.556215" style="fill: #ffffff; stroke: #606060"/>
    </g>
   </g>
   <g id="text_11">
    <g id="patch_9">
     <path d="M 48.6518 81.04325 
L 82.2518 81.04325 
L 82.2518 65.30075 
L 48.6518 65.30075 
z
" style="fill: #ffffff; opacity: 0.2; stroke: #000000; stroke-linejoin: miter"/>
    </g>
    <!-- P$_n$ = 2 -->
    <g transform="translate(52.6518 75.3795) scale(0.08 -0.08)">
     <defs>
      <path id="DejaVuSans-50" d="M 1259 4147 
L 1259 2394 
L 2053 2394 
Q 2494 2394 2734 2622 
Q 2975 2850 2975 3272 
Q 2975 3691 2734 3919 
Q 2494 4147 2053 4147 
L 1259 4147 
z
M 628 4666 
L 2053 4666 
Q 2838 4666 3239 4311 
Q 3641 3956 3641 3272 
Q 3641 2581 3239 2228 
Q 2838 1875 2053 1875 
L 1259 1875 
L 1259 0 
L 628 0 
L 628 4666 
z
" transform="scale(0.015625)"/>
      <path id="DejaVuSans-Oblique-6e" d="M 3566 2113 
L 3156 0 
L 2578 0 
L 2988 2091 
Q 3016 2238 3031 2350 
Q 3047 2463 3047 2528 
Q 3047 2791 2881 2937 
Q 2716 3084 2419 3084 
Q 1956 3084 1622 2776 
Q 1288 2469 1184 1941 
L 800 0 
L 225 0 
L 903 3500 
L 1478 3500 
L 1363 2950 
Q 1603 3253 1940 3418 
Q 2278 3584 2650 3584 
Q 3113 3584 3367 3334 
Q 3622 3084 3622 2631 
Q 3622 2519 3608 2391 
Q 3594 2263 3566 2113 
z
" transform="scale(0.015625)"/>
      <path id="DejaVuSans-3d" d="M 678 2906 
L 4684 2906 
L 4684 2381 
L 678 2381 
L 678 2906 
z
M 678 1631 
L 4684 1631 
L 4684 1100 
L 678 1100 
L 678 1631 
z
" transform="scale(0.015625)"/>
     </defs>
     <use xlink:href="#DejaVuSans-50" transform="translate(0 0.78125)"/>
     <use xlink:href="#DejaVuSans-Oblique-6e" transform="translate(61.259766 -15.625) scale(0.7)"/>
     <use xlink:href="#DejaVuSans-20" transform="translate(108.359375 0.78125)"/>
     <use xlink:href="#DejaVuSans-3d" transform="translate(140.146484 0.78125)"/>
     <use xlink:href="#DejaVuSans-20" transform="translate(223.935547 0.78125)"/>
     <use xlink:href="#DejaVuSans-32" transform="translate(255.722656 0.78125)"/>
    </g>
   </g>
   <g id="legend_1">
    <g id="patch_10">
     <path d="M 50.17 55.085 
L 101.61 55.085 
Q 103.21 55.085 103.21 53.485 
L 103.21 30.8 
Q 103.21 29.2 101.61 29.2 
L 50.17 29.2 
Q 48.57 29.2 48.57 30.8 
L 48.57 53.485 
Q 48.57 55.085 50.17 55.085 
z
" style="fill: #ffffff; opacity: 0.8; stroke: #cccccc; stroke-linejoin: miter"/>
    </g>
    <g id="patch_11">
     <path d="M 51.77 38.47875 
L 67.77 38.47875 
L 67.77 32.87875 
L 51.77 32.87875 
z
" style="fill: #d1a2c2; stroke: #606060; stroke-width: 0.75; stroke-linejoin: miter"/>
    </g>
    <g id="text_12">
     <!-- S$_n$ = 1 -->
     <g transform="translate(74.17 38.47875) scale(0.08 -0.08)">
      <defs>
       <path id="DejaVuSans-53" d="M 3425 4513 
L 3425 3897 
Q 3066 4069 2747 4153 
Q 2428 4238 2131 4238 
Q 1616 4238 1336 4038 
Q 1056 3838 1056 3469 
Q 1056 3159 1242 3001 
Q 1428 2844 1947 2747 
L 2328 2669 
Q 3034 2534 3370 2195 
Q 3706 1856 3706 1288 
Q 3706 609 3251 259 
Q 2797 -91 1919 -91 
Q 1588 -91 1214 -16 
Q 841 59 441 206 
L 441 856 
Q 825 641 1194 531 
Q 1563 422 1919 422 
Q 2459 422 2753 634 
Q 3047 847 3047 1241 
Q 3047 1584 2836 1778 
Q 2625 1972 2144 2069 
L 1759 2144 
Q 1053 2284 737 2584 
Q 422 2884 422 3419 
Q 422 4038 858 4394 
Q 1294 4750 2059 4750 
Q 2388 4750 2728 4690 
Q 3069 4631 3425 4513 
z
" transform="scale(0.015625)"/>
      </defs>
      <use xlink:href="#DejaVuSans-53" transform="translate(0 0.78125)"/>
      <use xlink:href="#DejaVuSans-Oblique-6e" transform="translate(64.433594 -15.625) scale(0.7)"/>
      <use xlink:href="#DejaVuSans-20" transform="translate(111.533203 0.78125)"/>
      <use xlink:href="#DejaVuSans-3d" transform="translate(143.320312 0.78125)"/>
      <use xlink:href="#DejaVuSans-20" transform="translate(227.109375 0.78125)"/>
      <use xlink:href="#DejaVuSans-31" transform="translate(258.896484 0.78125)"/>
     </g>
    </g>
    <g id="patch_12">
     <path d="M 51.77 50.22125 
L 67.77 50.22125 
L 67.77 44.62125 
L 51.77 44.62125 
z
" style="fill: #c98978; stroke: #606060; stroke-width: 0.75; stroke-linejoin: miter"/>
    </g>
    <g id="text_13">
     <!-- S$_n$ = 5 -->
     <g transform="translate(74.17 50.22125) scale(0.08 -0.08)">
      <use xlink:href="#DejaVuSans-53" transform="translate(0 0.78125)"/>
      <use xlink:href="#DejaVuSans-Oblique-6e" transform="translate(64.433594 -15.625) scale(0.7)"/>
      <use xlink:href="#DejaVuSans-20" transform="translate(111.533203 0.78125)"/>
      <use xlink:href="#DejaVuSans-3d" transform="translate(143.320312 0.78125)"/>
      <use xlink:href="#DejaVuSans-20" transform="translate(227.109375 0.78125)"/>
      <use xlink:href="#DejaVuSans-35" transform="translate(258.896484 0.78125)"/>
     </g>
    </g>
   </g>
  </g>
  <g id="axes_2">
   <g id="patch_13">
    <path d="M 174.88 265.06 
L 290.89 265.06 
L 290.89 25.2 
L 174.88 25.2 
z
" style="fill: #ffffff"/>
   </g>
   <g id="patch_14">
    <path d="M 232.885 259.994975 
L 232.885 259.994975 
L 232.885 259.994975 
L 232.885 259.994975 
z
" clip-path="url(#p0400123129)" style="fill: #d1a2c2; stroke: #606060; stroke-width: 0.75; stroke-linejoin: miter"/>
   </g>
   <g id="PolyCollection_3">
    <defs>
     <path id="m9a297324ee" d="M 224.319152 -61.174978 
L 224.049348 -61.174978 
L 223.937068 -62.031578 
L 223.76065 -62.888177 
L 223.503542 -63.744776 
L 223.155315 -64.601375 
L 222.71605 -65.457974 
L 222.199072 -66.314574 
L 221.631517 -67.171173 
L 221.053232 -68.027772 
L 220.51469 -68.884371 
L 220.073429 -69.74097 
L 219.78716 -70.59757 
L 219.702028 -71.454169 
L 219.837498 -72.310768 
L 220.173219 -73.167367 
L 220.644809 -74.023966 
L 221.152616 -74.880566 
L 221.581485 -75.737165 
L 221.824239 -76.593764 
L 221.80071 -77.450363 
L 221.468038 -78.306962 
L 220.823834 -79.163561 
L 219.90727 -80.020161 
L 218.801585 -80.87676 
L 217.635683 -81.733359 
L 216.576961 -82.589958 
L 215.80748 -83.446557 
L 215.4835 -84.303157 
L 215.690281 -85.159756 
L 216.411745 -86.016355 
L 217.531129 -86.872954 
L 218.864863 -87.729553 
L 220.215775 -88.586153 
L 221.42347 -89.442752 
L 222.393765 -90.299351 
L 223.101327 -91.15595 
L 223.572037 -92.012549 
L 223.85753 -92.869149 
L 224.012943 -93.725748 
L 224.083386 -94.582347 
L 224.099316 -95.438946 
L 224.078034 -96.295545 
L 224.028038 -97.152145 
L 223.953744 -98.008744 
L 223.859071 -98.865343 
L 223.749196 -99.721942 
L 223.630539 -100.578541 
L 223.509697 -101.435141 
L 223.392367 -102.29174 
L 223.283067 -103.148339 
L 223.185667 -104.004938 
L 223.10401 -104.861537 
L 223.041793 -105.718136 
L 223.00151 -106.574736 
L 222.983061 -107.431335 
L 222.982975 -108.287934 
L 222.994822 -109.144533 
L 223.010733 -110.001132 
L 223.023454 -110.857732 
L 223.028251 -111.714331 
L 223.024189 -112.57093 
L 223.014568 -113.427529 
L 223.006501 -114.284128 
L 223.009703 -115.140728 
L 223.034551 -115.997327 
L 223.089608 -116.853926 
L 223.17901 -117.710525 
L 223.30056 -118.567124 
L 223.445437 -119.423724 
L 223.599984 -120.280323 
L 223.74913 -121.136922 
L 223.880154 -121.993521 
L 223.985345 -122.85012 
L 224.062718 -123.70672 
L 224.114928 -124.563319 
L 224.147201 -125.419918 
L 224.165257 -126.276517 
L 224.173862 -127.133116 
L 224.176147 -127.989716 
L 224.173536 -128.846315 
L 224.16603 -129.702914 
L 224.152676 -130.559513 
L 224.132142 -131.416112 
L 224.103339 -132.272711 
L 224.066012 -133.129311 
L 224.021185 -133.98591 
L 223.971374 -134.842509 
L 223.920549 -135.699108 
L 223.873865 -136.555707 
L 223.83712 -137.412307 
L 223.815876 -138.268906 
L 223.814231 -139.125505 
L 223.833548 -139.982104 
L 223.871659 -140.838703 
L 223.923066 -141.695303 
L 223.980259 -142.551902 
L 224.03568 -143.408501 
L 224.08354 -144.2651 
L 224.120808 -145.121699 
L 224.147152 -145.978299 
L 224.221348 -145.978299 
L 224.221348 -145.978299 
L 224.247692 -145.121699 
L 224.28496 -144.2651 
L 224.33282 -143.408501 
L 224.388241 -142.551902 
L 224.445434 -141.695303 
L 224.496841 -140.838703 
L 224.534952 -139.982104 
L 224.554269 -139.125505 
L 224.552624 -138.268906 
L 224.53138 -137.412307 
L 224.494635 -136.555707 
L 224.447951 -135.699108 
L 224.397126 -134.842509 
L 224.347315 -133.98591 
L 224.302488 -133.129311 
L 224.265161 -132.272711 
L 224.236358 -131.416112 
L 224.215824 -130.559513 
L 224.20247 -129.702914 
L 224.194964 -128.846315 
L 224.192353 -127.989716 
L 224.194638 -127.133116 
L 224.203243 -126.276517 
L 224.221299 -125.419918 
L 224.253572 -124.563319 
L 224.305782 -123.70672 
L 224.383155 -122.85012 
L 224.488346 -121.993521 
L 224.61937 -121.136922 
L 224.768516 -120.280323 
L 224.923063 -119.423724 
L 225.06794 -118.567124 
L 225.18949 -117.710525 
L 225.278892 -116.853926 
L 225.333949 -115.997327 
L 225.358797 -115.140728 
L 225.361999 -114.284128 
L 225.353932 -113.427529 
L 225.344311 -112.57093 
L 225.340249 -111.714331 
L 225.345046 -110.857732 
L 225.357767 -110.001132 
L 225.373678 -109.144533 
L 225.385525 -108.287934 
L 225.385439 -107.431335 
L 225.36699 -106.574736 
L 225.326707 -105.718136 
L 225.26449 -104.861537 
L 225.182833 -104.004938 
L 225.085433 -103.148339 
L 224.976133 -102.29174 
L 224.858803 -101.435141 
L 224.737961 -100.578541 
L 224.619304 -99.721942 
L 224.509429 -98.865343 
L 224.414756 -98.008744 
L 224.340462 -97.152145 
L 224.290466 -96.295545 
L 224.269184 -95.438946 
L 224.285114 -94.582347 
L 224.355557 -93.725748 
L 224.51097 -92.869149 
L 224.796463 -92.012549 
L 225.267173 -91.15595 
L 225.974735 -90.299351 
L 226.94503 -89.442752 
L 228.152725 -88.586153 
L 229.503637 -87.729553 
L 230.837371 -86.872954 
L 231.956755 -86.016355 
L 232.678219 -85.159756 
L 232.885 -84.303157 
L 232.56102 -83.446557 
L 231.791539 -82.589958 
L 230.732817 -81.733359 
L 229.566915 -80.87676 
L 228.46123 -80.020161 
L 227.544666 -79.163561 
L 226.900462 -78.306962 
L 226.56779 -77.450363 
L 226.544261 -76.593764 
L 226.787015 -75.737165 
L 227.215884 -74.880566 
L 227.723691 -74.023966 
L 228.195281 -73.167367 
L 228.531002 -72.310768 
L 228.666472 -71.454169 
L 228.58134 -70.59757 
L 228.295071 -69.74097 
L 227.85381 -68.884371 
L 227.315268 -68.027772 
L 226.736983 -67.171173 
L 226.169428 -66.314574 
L 225.65245 -65.457974 
L 225.213185 -64.601375 
L 224.864958 -63.744776 
L 224.60785 -62.888177 
L 224.431432 -62.031578 
L 224.319152 -61.174978 
z
" style="stroke: #606060; stroke-width: 1.5"/>
    </defs>
    <g clip-path="url(#p0400123129)">
     <use xlink:href="#m9a297324ee" x="0" y="288" style="fill: #d1a2c2; stroke: #606060; stroke-width: 1.5"/>
    </g>
   </g>
   <g id="patch_15">
    <path d="M 232.885 259.994975 
L 232.885 259.994975 
L 232.885 259.994975 
L 232.885 259.994975 
z
" clip-path="url(#p0400123129)" style="fill: #c98978; stroke: #606060; stroke-width: 0.75; stroke-linejoin: miter"/>
   </g>
   <g id="PolyCollection_4">
    <defs>
     <path id="md1f9d20f6a" d="M 241.590147 -36.548955 
L 241.581353 -36.548955 
L 241.574953 -38.2518 
L 241.561188 -39.954644 
L 241.533629 -41.657489 
L 241.482233 -43.360333 
L 241.392896 -45.063177 
L 241.247519 -46.766022 
L 241.024028 -48.468866 
L 240.696794 -50.171711 
L 240.241393 -51.874555 
L 239.649963 -53.577399 
L 238.957047 -55.280244 
L 238.260083 -56.983088 
L 237.708541 -58.685933 
L 237.450087 -60.388777 
L 237.558061 -62.091621 
L 237.989361 -63.794466 
L 238.605428 -65.49731 
L 239.241818 -67.200155 
L 239.77775 -68.902999 
L 240.165207 -70.605843 
L 240.413485 -72.308688 
L 240.553946 -74.011532 
L 240.61192 -75.714377 
L 240.596781 -77.417221 
L 240.505641 -79.120065 
L 240.331058 -80.82291 
L 240.067234 -82.525754 
L 239.71547 -84.228599 
L 239.292161 -85.931443 
L 238.838517 -87.634287 
L 238.424122 -89.337132 
L 238.134703 -91.039976 
L 238.043784 -92.742821 
L 238.181847 -94.445665 
L 238.522091 -96.148509 
L 238.992178 -97.851354 
L 239.504343 -99.554198 
L 239.985782 -101.257043 
L 240.394402 -102.959887 
L 240.717199 -104.662732 
L 240.959021 -106.365576 
L 241.13144 -108.06842 
L 241.246415 -109.771265 
L 241.313998 -111.474109 
L 241.341802 -113.176954 
L 241.335212 -114.879798 
L 241.298462 -116.582642 
L 241.236601 -118.285487 
L 241.157787 -119.988331 
L 241.074845 -121.691176 
L 241.004767 -123.39402 
L 240.965242 -125.096864 
L 240.968771 -126.799709 
L 241.017041 -128.502553 
L 241.0993 -130.205398 
L 241.196728 -131.908242 
L 241.290625 -133.611086 
L 241.369266 -135.313931 
L 241.42961 -137.016775 
L 241.47434 -138.71962 
L 241.507695 -140.422464 
L 241.532913 -142.125308 
L 241.551791 -143.828153 
L 241.56528 -145.530997 
L 241.574077 -147.233842 
L 241.578775 -148.936686 
L 241.579656 -150.63953 
L 241.576489 -152.342375 
L 241.568732 -154.045219 
L 241.556379 -155.748064 
L 241.541102 -157.450908 
L 241.526704 -159.153752 
L 241.517966 -160.856597 
L 241.51823 -162.559441 
L 241.527395 -164.262286 
L 241.541992 -165.96513 
L 241.557281 -167.667974 
L 241.56968 -169.370819 
L 241.577878 -171.073663 
L 241.582397 -172.776508 
L 241.584483 -174.479352 
L 241.585234 -176.182196 
L 241.585254 -177.885041 
L 241.584649 -179.587885 
L 241.583122 -181.29073 
L 241.580104 -182.993574 
L 241.574986 -184.696418 
L 241.567464 -186.399263 
L 241.557931 -188.102107 
L 241.547702 -189.804952 
L 241.53888 -191.507796 
L 241.533791 -193.210641 
L 241.534078 -194.913485 
L 241.539871 -196.616329 
L 241.549573 -198.319174 
L 241.560543 -200.022018 
L 241.570299 -201.724863 
L 241.577446 -203.427707 
L 241.581848 -205.130551 
L 241.589652 -205.130551 
L 241.589652 -205.130551 
L 241.594054 -203.427707 
L 241.601201 -201.724863 
L 241.610957 -200.022018 
L 241.621927 -198.319174 
L 241.631629 -196.616329 
L 241.637422 -194.913485 
L 241.637709 -193.210641 
L 241.63262 -191.507796 
L 241.623798 -189.804952 
L 241.613569 -188.102107 
L 241.604036 -186.399263 
L 241.596514 -184.696418 
L 241.591396 -182.993574 
L 241.588378 -181.29073 
L 241.586851 -179.587885 
L 241.586246 -177.885041 
L 241.586266 -176.182196 
L 241.587017 -174.479352 
L 241.589103 -172.776508 
L 241.593622 -171.073663 
L 241.60182 -169.370819 
L 241.614219 -167.667974 
L 241.629508 -165.96513 
L 241.644105 -164.262286 
L 241.65327 -162.559441 
L 241.653534 -160.856597 
L 241.644796 -159.153752 
L 241.630398 -157.450908 
L 241.615121 -155.748064 
L 241.602768 -154.045219 
L 241.595011 -152.342375 
L 241.591844 -150.63953 
L 241.592725 -148.936686 
L 241.597423 -147.233842 
L 241.60622 -145.530997 
L 241.619709 -143.828153 
L 241.638587 -142.125308 
L 241.663805 -140.422464 
L 241.69716 -138.71962 
L 241.74189 -137.016775 
L 241.802234 -135.313931 
L 241.880875 -133.611086 
L 241.974772 -131.908242 
L 242.0722 -130.205398 
L 242.154459 -128.502553 
L 242.202729 -126.799709 
L 242.206258 -125.096864 
L 242.166733 -123.39402 
L 242.096655 -121.691176 
L 242.013713 -119.988331 
L 241.934899 -118.285487 
L 241.873038 -116.582642 
L 241.836288 -114.879798 
L 241.829698 -113.176954 
L 241.857502 -111.474109 
L 241.925085 -109.771265 
L 242.04006 -108.06842 
L 242.212479 -106.365576 
L 242.454301 -104.662732 
L 242.777098 -102.959887 
L 243.185718 -101.257043 
L 243.667157 -99.554198 
L 244.179322 -97.851354 
L 244.649409 -96.148509 
L 244.989653 -94.445665 
L 245.127716 -92.742821 
L 245.036797 -91.039976 
L 244.747378 -89.337132 
L 244.332983 -87.634287 
L 243.879339 -85.931443 
L 243.45603 -84.228599 
L 243.104266 -82.525754 
L 242.840442 -80.82291 
L 242.665859 -79.120065 
L 242.574719 -77.417221 
L 242.55958 -75.714377 
L 242.617554 -74.011532 
L 242.758015 -72.308688 
L 243.006293 -70.605843 
L 243.39375 -68.902999 
L 243.929682 -67.200155 
L 244.566072 -65.49731 
L 245.182139 -63.794466 
L 245.613439 -62.091621 
L 245.721413 -60.388777 
L 245.462959 -58.685933 
L 244.911417 -56.983088 
L 244.214453 -55.280244 
L 243.521537 -53.577399 
L 242.930107 -51.874555 
L 242.474706 -50.171711 
L 242.147472 -48.468866 
L 241.923981 -46.766022 
L 241.778604 -45.063177 
L 241.689267 -43.360333 
L 241.637871 -41.657489 
L 241.610312 -39.954644 
L 241.596547 -38.2518 
L 241.590147 -36.548955 
z
" style="stroke: #606060; stroke-width: 1.5"/>
    </defs>
    <g clip-path="url(#p0400123129)">
     <use xlink:href="#md1f9d20f6a" x="0" y="288" style="fill: #c98978; stroke: #606060; stroke-width: 1.5"/>
    </g>
   </g>
   <g id="matplotlib.axis_3">
    <g id="xtick_2">
     <g id="line2d_15">
      <g>
       <use xlink:href="#mc33de9aacc" x="232.885" y="265.06" style="stroke: #000000; stroke-width: 0.8"/>
      </g>
     </g>
    </g>
   </g>
   <g id="matplotlib.axis_4">
    <g id="ytick_10">
     <g id="line2d_16">
      <g>
       <use xlink:href="#mecd4383bee" x="174.88" y="259.994975" style="stroke: #000000; stroke-width: 0.8"/>
      </g>
     </g>
    </g>
    <g id="ytick_11">
     <g id="line2d_17">
      <g>
       <use xlink:href="#mecd4383bee" x="174.88" y="231.895171" style="stroke: #000000; stroke-width: 0.8"/>
      </g>
     </g>
    </g>
    <g id="ytick_12">
     <g id="line2d_18">
      <g>
       <use xlink:href="#mecd4383bee" x="174.88" y="203.795367" style="stroke: #000000; stroke-width: 0.8"/>
      </g>
     </g>
    </g>
    <g id="ytick_13">
     <g id="line2d_19">
      <g>
       <use xlink:href="#mecd4383bee" x="174.88" y="175.695562" style="stroke: #000000; stroke-width: 0.8"/>
      </g>
     </g>
    </g>
    <g id="ytick_14">
     <g id="line2d_20">
      <g>
       <use xlink:href="#mecd4383bee" x="174.88" y="147.595758" style="stroke: #000000; stroke-width: 0.8"/>
      </g>
     </g>
    </g>
    <g id="ytick_15">
     <g id="line2d_21">
      <g>
       <use xlink:href="#mecd4383bee" x="174.88" y="119.495953" style="stroke: #000000; stroke-width: 0.8"/>
      </g>
     </g>
    </g>
    <g id="ytick_16">
     <g id="line2d_22">
      <g>
       <use xlink:href="#mecd4383bee" x="174.88" y="91.396149" style="stroke: #000000; stroke-width: 0.8"/>
      </g>
     </g>
    </g>
    <g id="ytick_17">
     <g id="line2d_23">
      <g>
       <use xlink:href="#mecd4383bee" x="174.88" y="63.296345" style="stroke: #000000; stroke-width: 0.8"/>
      </g>
     </g>
    </g>
    <g id="ytick_18">
     <g id="line2d_24">
      <g>
       <use xlink:href="#mecd4383bee" x="174.88" y="35.19654" style="stroke: #000000; stroke-width: 0.8"/>
      </g>
     </g>
    </g>
   </g>
   <g id="line2d_25">
    <path d="M 224.18425 220.683349 
L 224.18425 185.600743 
" clip-path="url(#p0400123129)" style="fill: none; stroke: #606060; stroke-width: 1.5; stroke-linecap: square"/>
   </g>
   <g id="line2d_26">
    <path d="M 224.18425 215.069711 
L 224.18425 202.372112 
" clip-path="url(#p0400123129)" style="fill: none; stroke: #606060; stroke-width: 4.5; stroke-linecap: square"/>
   </g>
   <g id="line2d_27">
    <path d="M 241.58575 242.429788 
L 241.58575 145.951919 
" clip-path="url(#p0400123129)" style="fill: none; stroke: #606060; stroke-width: 1.5; stroke-linecap: square"/>
   </g>
   <g id="line2d_28">
    <path d="M 241.58575 226.938366 
L 241.58575 193.541748 
" clip-path="url(#p0400123129)" style="fill: none; stroke: #606060; stroke-width: 4.5; stroke-linecap: square"/>
   </g>
   <g id="patch_16">
    <path d="M 174.88 265.06 
L 174.88 25.2 
" style="fill: none; stroke: #000000; stroke-width: 0.8; stroke-linejoin: miter; stroke-linecap: square"/>
   </g>
   <g id="patch_17">
    <path d="M 290.89 265.06 
L 290.89 25.2 
" style="fill: none; stroke: #000000; stroke-width: 0.8; stroke-linejoin: miter; stroke-linecap: square"/>
   </g>
   <g id="patch_18">
    <path d="M 174.88 265.06 
L 290.89 265.06 
" style="fill: none; stroke: #000000; stroke-width: 0.8; stroke-linejoin: miter; stroke-linecap: square"/>
   </g>
   <g id="patch_19">
    <path d="M 174.88 25.2 
L 290.89 25.2 
" style="fill: none; stroke: #000000; stroke-width: 0.8; stroke-linejoin: miter; stroke-linecap: square"/>
   </g>
   <g id="PathCollection_3">
    <g clip-path="url(#p0400123129)">
     <use xlink:href="#m7b5ce3f8ab" x="224.18425" y="203.657678" style="fill: #ffffff; stroke: #606060"/>
    </g>
   </g>
   <g id="PathCollection_4">
    <g clip-path="url(#p0400123129)">
     <use xlink:href="#m7b5ce3f8ab" x="241.58575" y="204.877209" style="fill: #ffffff; stroke: #606060"/>
    </g>
   </g>
   <g id="text_14">
    <g id="patch_20">
     <path d="M 178.762 45.06425 
L 217.402 45.06425 
L 217.402 29.32175 
L 178.762 29.32175 
z
" style="fill: #ffffff; opacity: 0.2; stroke: #000000; stroke-linejoin: miter"/>
    </g>
    <!-- P$_n$ = 26 -->
    <g transform="translate(182.762 39.4005) scale(0.08 -0.08)">
     <use xlink:href="#DejaVuSans-50" transform="translate(0 0.78125)"/>
     <use xlink:href="#DejaVuSans-Oblique-6e" transform="translate(61.259766 -15.625) scale(0.7)"/>
     <use xlink:href="#DejaVuSans-20" transform="translate(108.359375 0.78125)"/>
     <use xlink:href="#DejaVuSans-3d" transform="translate(140.146484 0.78125)"/>
     <use xlink:href="#DejaVuSans-20" transform="translate(223.935547 0.78125)"/>
     <use xlink:href="#DejaVuSans-32" transform="translate(255.722656 0.78125)"/>
     <use xlink:href="#DejaVuSans-36" transform="translate(319.345703 0.78125)"/>
    </g>
   </g>
  </g>
  <g id="axes_3">
   <g id="patch_21">
    <path d="M 305.19 265.06 
L 421.2 265.06 
L 421.2 25.2 
L 305.19 25.2 
z
" style="fill: #ffffff"/>
   </g>
   <g id="patch_22">
    <path d="M 363.195 259.994975 
L 363.195 259.994975 
L 363.195 259.994975 
L 363.195 259.994975 
z
" clip-path="url(#pb395269823)" style="fill: #d1a2c2; stroke: #606060; stroke-width: 0.75; stroke-linejoin: miter"/>
   </g>
   <g id="PolyCollection_5">
    <defs>
     <path id="m80a854794a" d="M 354.524745 -35.11152 
L 354.463755 -35.11152 
L 354.440363 -36.650423 
L 354.405396 -38.189326 
L 354.356849 -39.728229 
L 354.293565 -41.267132 
L 354.214747 -42.806035 
L 354.118644 -44.344938 
L 354.000878 -45.883842 
L 353.853267 -47.422745 
L 353.663953 -48.961648 
L 353.419026 -50.500551 
L 353.105216 -52.039454 
L 352.713077 -53.578357 
L 352.240439 -55.11726 
L 351.696159 -56.656164 
L 351.103526 -58.195067 
L 350.501485 -59.73397 
L 349.941279 -61.272873 
L 349.477475 -62.811776 
L 349.155362 -64.350679 
L 348.999388 -65.889582 
L 349.007467 -67.428486 
L 349.153246 -68.967389 
L 349.394469 -70.506292 
L 349.683077 -72.045195 
L 349.973043 -73.584098 
L 350.22441 -75.123001 
L 350.404639 -76.661904 
L 350.489402 -78.200807 
L 350.464202 -79.739711 
L 350.326426 -81.278614 
L 350.086112 -82.817517 
L 349.763716 -84.35642 
L 349.384801 -85.895323 
L 348.97382 -87.434226 
L 348.550633 -88.973129 
L 348.132294 -90.512033 
L 347.739371 -92.050936 
L 347.402291 -93.589839 
L 347.161974 -95.128742 
L 347.061671 -96.667645 
L 347.132284 -98.206548 
L 347.378201 -99.745451 
L 347.771495 -101.284354 
L 348.258598 -102.823258 
L 348.777082 -104.362161 
L 349.275035 -105.901064 
L 349.724414 -107.439967 
L 350.123301 -108.97887 
L 350.487786 -110.517773 
L 350.838871 -112.056676 
L 351.19099 -113.59558 
L 351.546448 -115.134483 
L 351.896339 -116.673386 
L 352.225646 -118.212289 
L 352.519387 -119.751192 
L 352.767479 -121.290095 
L 352.967245 -122.828998 
L 353.12342 -124.367901 
L 353.246054 -125.906805 
L 353.347165 -127.445708 
L 353.437343 -128.984611 
L 353.523477 -130.523514 
L 353.608255 -132.062417 
L 353.691178 -133.60132 
L 353.77021 -135.140223 
L 353.843153 -136.679127 
L 353.908324 -138.21803 
L 353.964731 -139.756933 
L 354.012115 -141.295836 
L 354.051058 -142.834739 
L 354.082966 -144.373642 
L 354.109608 -145.912545 
L 354.132091 -147.451448 
L 354.149511 -148.990352 
L 354.157804 -150.529255 
L 354.149492 -152.068158 
L 354.114874 -153.607061 
L 354.044949 -155.145964 
L 353.935618 -156.684867 
L 353.791838 -158.22377 
L 353.629665 -159.762674 
L 353.47432 -161.301577 
L 353.353931 -162.84048 
L 353.290873 -164.379383 
L 353.294387 -165.918286 
L 353.358048 -167.457189 
L 353.463361 -168.996092 
L 353.587636 -170.534995 
L 353.712142 -172.073899 
L 353.826814 -173.612802 
L 353.930032 -175.151705 
L 354.024826 -176.690608 
L 354.114322 -178.229511 
L 354.198961 -179.768414 
L 354.276336 -181.307317 
L 354.342873 -182.846221 
L 354.395867 -184.385124 
L 354.434673 -185.924027 
L 354.460726 -187.46293 
L 354.527774 -187.46293 
L 354.527774 -187.46293 
L 354.553827 -185.924027 
L 354.592633 -184.385124 
L 354.645627 -182.846221 
L 354.712164 -181.307317 
L 354.789539 -179.768414 
L 354.874178 -178.229511 
L 354.963674 -176.690608 
L 355.058468 -175.151705 
L 355.161686 -173.612802 
L 355.276358 -172.073899 
L 355.400864 -170.534995 
L 355.525139 -168.996092 
L 355.630452 -167.457189 
L 355.694113 -165.918286 
L 355.697627 -164.379383 
L 355.634569 -162.84048 
L 355.51418 -161.301577 
L 355.358835 -159.762674 
L 355.196662 -158.22377 
L 355.052882 -156.684867 
L 354.943551 -155.145964 
L 354.873626 -153.607061 
L 354.839008 -152.068158 
L 354.830696 -150.529255 
L 354.838989 -148.990352 
L 354.856409 -147.451448 
L 354.878892 -145.912545 
L 354.905534 -144.373642 
L 354.937442 -142.834739 
L 354.976385 -141.295836 
L 355.023769 -139.756933 
L 355.080176 -138.21803 
L 355.145347 -136.679127 
L 355.21829 -135.140223 
L 355.297322 -133.60132 
L 355.380245 -132.062417 
L 355.465023 -130.523514 
L 355.551157 -128.984611 
L 355.641335 -127.445708 
L 355.742446 -125.906805 
L 355.86508 -124.367901 
L 356.021255 -122.828998 
L 356.221021 -121.290095 
L 356.469113 -119.751192 
L 356.762854 -118.212289 
L 357.092161 -116.673386 
L 357.442052 -115.134483 
L 357.79751 -113.59558 
L 358.149629 -112.056676 
L 358.500714 -110.517773 
L 358.865199 -108.97887 
L 359.264086 -107.439967 
L 359.713465 -105.901064 
L 360.211418 -104.362161 
L 360.729902 -102.823258 
L 361.217005 -101.284354 
L 361.610299 -99.745451 
L 361.856216 -98.206548 
L 361.926829 -96.667645 
L 361.826526 -95.128742 
L 361.586209 -93.589839 
L 361.249129 -92.050936 
L 360.856206 -90.512033 
L 360.437867 -88.973129 
L 360.01468 -87.434226 
L 359.603699 -85.895323 
L 359.224784 -84.35642 
L 358.902388 -82.817517 
L 358.662074 -81.278614 
L 358.524298 -79.739711 
L 358.499098 -78.200807 
L 358.583861 -76.661904 
L 358.76409 -75.123001 
L 359.015457 -73.584098 
L 359.305423 -72.045195 
L 359.594031 -70.506292 
L 359.835254 -68.967389 
L 359.981033 -67.428486 
L 359.989112 -65.889582 
L 359.833138 -64.350679 
L 359.511025 -62.811776 
L 359.047221 -61.272873 
L 358.487015 -59.73397 
L 357.884974 -58.195067 
L 357.292341 -56.656164 
L 356.748061 -55.11726 
L 356.275423 -53.578357 
L 355.883284 -52.039454 
L 355.569474 -50.500551 
L 355.324547 -48.961648 
L 355.135233 -47.422745 
L 354.987622 -45.883842 
L 354.869856 -44.344938 
L 354.773753 -42.806035 
L 354.694935 -41.267132 
L 354.631651 -39.728229 
L 354.583104 -38.189326 
L 354.548137 -36.650423 
L 354.524745 -35.11152 
z
" style="stroke: #606060; stroke-width: 1.5"/>
    </defs>
    <g clip-path="url(#pb395269823)">
     <use xlink:href="#m80a854794a" x="0" y="288" style="fill: #d1a2c2; stroke: #606060; stroke-width: 1.5"/>
    </g>
   </g>
   <g id="patch_23">
    <path d="M 363.195 259.994975 
L 363.195 259.994975 
L 363.195 259.994975 
L 363.195 259.994975 
z
" clip-path="url(#pb395269823)" style="fill: #c98978; stroke: #606060; stroke-width: 0.75; stroke-linejoin: miter"/>
   </g>
   <g id="PolyCollection_6">
    <defs>
     <path id="m550a1113ff" d="M 371.89852 -33.842727 
L 371.89298 -33.842727 
L 371.888244 -36.045298 
L 371.876518 -38.24787 
L 371.849349 -40.450441 
L 371.791454 -42.653012 
L 371.679903 -44.855583 
L 371.488167 -47.058154 
L 371.197077 -49.260725 
L 370.809914 -51.463297 
L 370.362873 -53.665868 
L 369.921116 -55.868439 
L 369.558102 -58.07101 
L 369.3274 -60.273581 
L 369.24205 -62.476152 
L 369.271436 -64.678724 
L 369.353785 -66.881295 
L 369.413498 -69.083866 
L 369.373101 -71.286437 
L 369.158944 -73.489008 
L 368.709508 -75.691579 
L 367.994734 -77.894151 
L 367.041424 -80.096722 
L 365.945905 -82.299293 
L 364.858717 -84.501864 
L 363.947397 -86.704435 
L 363.358951 -88.907006 
L 363.195 -91.109578 
L 363.49395 -93.312149 
L 364.214089 -95.51472 
L 365.229089 -97.717291 
L 366.354309 -99.919862 
L 367.402659 -102.122433 
L 368.242202 -104.325005 
L 368.823438 -106.527576 
L 369.166405 -108.730147 
L 369.324597 -110.932718 
L 369.352071 -113.135289 
L 369.289332 -115.33786 
L 369.166587 -117.540432 
L 369.013946 -119.743003 
L 368.869436 -121.945574 
L 368.779979 -124.148145 
L 368.793128 -126.350716 
L 368.940935 -128.553287 
L 369.223819 -130.755859 
L 369.605661 -132.95843 
L 370.025171 -135.161001 
L 370.416929 -137.363572 
L 370.729706 -139.566143 
L 370.934983 -141.768714 
L 371.027315 -143.971286 
L 371.021048 -146.173857 
L 370.944618 -148.376428 
L 370.832301 -150.578999 
L 370.716439 -152.78157 
L 370.624503 -154.984141 
L 370.580145 -157.186713 
L 370.601791 -159.389284 
L 370.695455 -161.591855 
L 370.847835 -163.794426 
L 371.028942 -165.996997 
L 371.205302 -168.199568 
L 371.354188 -170.40214 
L 371.46864 -172.604711 
L 371.552099 -174.807282 
L 371.60997 -177.009853 
L 371.645662 -179.212424 
L 371.662363 -181.414995 
L 371.666243 -183.617567 
L 371.666559 -185.820138 
L 371.672237 -188.022709 
L 371.688156 -190.22528 
L 371.714183 -192.427851 
L 371.74683 -194.630422 
L 371.781403 -196.832994 
L 371.813295 -199.035565 
L 371.838793 -201.238136 
L 371.855923 -203.440707 
L 371.864953 -205.643278 
L 371.867993 -207.845849 
L 371.867797 -210.048421 
L 371.866589 -212.250992 
L 371.865552 -214.453563 
L 371.864967 -216.656134 
L 371.864592 -218.858705 
L 371.863949 -221.061276 
L 371.862595 -223.263848 
L 371.860484 -225.466419 
L 371.85828 -227.66899 
L 371.85719 -229.871561 
L 371.858258 -232.074132 
L 371.861663 -234.276703 
L 371.866675 -236.479275 
L 371.872255 -238.681846 
L 371.877659 -240.884417 
L 371.88256 -243.086988 
L 371.8868 -245.289559 
L 371.890218 -247.49213 
L 371.892692 -249.694702 
L 371.894258 -251.897273 
L 371.897242 -251.897273 
L 371.897242 -251.897273 
L 371.898808 -249.694702 
L 371.901282 -247.49213 
L 371.9047 -245.289559 
L 371.90894 -243.086988 
L 371.913841 -240.884417 
L 371.919245 -238.681846 
L 371.924825 -236.479275 
L 371.929837 -234.276703 
L 371.933242 -232.074132 
L 371.93431 -229.871561 
L 371.93322 -227.66899 
L 371.931016 -225.466419 
L 371.928905 -223.263848 
L 371.927551 -221.061276 
L 371.926908 -218.858705 
L 371.926533 -216.656134 
L 371.925948 -214.453563 
L 371.924911 -212.250992 
L 371.923703 -210.048421 
L 371.923507 -207.845849 
L 371.926547 -205.643278 
L 371.935577 -203.440707 
L 371.952707 -201.238136 
L 371.978205 -199.035565 
L 372.010097 -196.832994 
L 372.04467 -194.630422 
L 372.077317 -192.427851 
L 372.103344 -190.22528 
L 372.119263 -188.022709 
L 372.124941 -185.820138 
L 372.125257 -183.617567 
L 372.129137 -181.414995 
L 372.145838 -179.212424 
L 372.18153 -177.009853 
L 372.239401 -174.807282 
L 372.32286 -172.604711 
L 372.437312 -170.40214 
L 372.586198 -168.199568 
L 372.762558 -165.996997 
L 372.943665 -163.794426 
L 373.096045 -161.591855 
L 373.189709 -159.389284 
L 373.211355 -157.186713 
L 373.166997 -154.984141 
L 373.075061 -152.78157 
L 372.959199 -150.578999 
L 372.846882 -148.376428 
L 372.770452 -146.173857 
L 372.764185 -143.971286 
L 372.856517 -141.768714 
L 373.061794 -139.566143 
L 373.374571 -137.363572 
L 373.766329 -135.161001 
L 374.185839 -132.95843 
L 374.567681 -130.755859 
L 374.850565 -128.553287 
L 374.998372 -126.350716 
L 375.011521 -124.148145 
L 374.922064 -121.945574 
L 374.777554 -119.743003 
L 374.624913 -117.540432 
L 374.502168 -115.33786 
L 374.439429 -113.135289 
L 374.466903 -110.932718 
L 374.625095 -108.730147 
L 374.968062 -106.527576 
L 375.549298 -104.325005 
L 376.388841 -102.122433 
L 377.437191 -99.919862 
L 378.562411 -97.717291 
L 379.577411 -95.51472 
L 380.29755 -93.312149 
L 380.5965 -91.109578 
L 380.432549 -88.907006 
L 379.844103 -86.704435 
L 378.932783 -84.501864 
L 377.845595 -82.299293 
L 376.750076 -80.096722 
L 375.796766 -77.894151 
L 375.081992 -75.691579 
L 374.632556 -73.489008 
L 374.418399 -71.286437 
L 374.378002 -69.083866 
L 374.437715 -66.881295 
L 374.520064 -64.678724 
L 374.54945 -62.476152 
L 374.4641 -60.273581 
L 374.233398 -58.07101 
L 373.870384 -55.868439 
L 373.428627 -53.665868 
L 372.981586 -51.463297 
L 372.594423 -49.260725 
L 372.303333 -47.058154 
L 372.111597 -44.855583 
L 372.000046 -42.653012 
L 371.942151 -40.450441 
L 371.914982 -38.24787 
L 371.903256 -36.045298 
L 371.89852 -33.842727 
z
" style="stroke: #606060; stroke-width: 1.5"/>
    </defs>
    <g clip-path="url(#pb395269823)">
     <use xlink:href="#m550a1113ff" x="0" y="288" style="fill: #c98978; stroke: #606060; stroke-width: 1.5"/>
    </g>
   </g>
   <g id="matplotlib.axis_5">
    <g id="xtick_3">
     <g id="line2d_29">
      <g>
       <use xlink:href="#mc33de9aacc" x="363.195" y="265.06" style="stroke: #000000; stroke-width: 0.8"/>
      </g>
     </g>
    </g>
   </g>
   <g id="matplotlib.axis_6">
    <g id="ytick_19">
     <g id="line2d_30">
      <g>
       <use xlink:href="#mecd4383bee" x="305.19" y="259.994975" style="stroke: #000000; stroke-width: 0.8"/>
      </g>
     </g>
    </g>
    <g id="ytick_20">
     <g id="line2d_31">
      <g>
       <use xlink:href="#mecd4383bee" x="305.19" y="231.895171" style="stroke: #000000; stroke-width: 0.8"/>
      </g>
     </g>
    </g>
    <g id="ytick_21">
     <g id="line2d_32">
      <g>
       <use xlink:href="#mecd4383bee" x="305.19" y="203.795367" style="stroke: #000000; stroke-width: 0.8"/>
      </g>
     </g>
    </g>
    <g id="ytick_22">
     <g id="line2d_33">
      <g>
       <use xlink:href="#mecd4383bee" x="305.19" y="175.695562" style="stroke: #000000; stroke-width: 0.8"/>
      </g>
     </g>
    </g>
    <g id="ytick_23">
     <g id="line2d_34">
      <g>
       <use xlink:href="#mecd4383bee" x="305.19" y="147.595758" style="stroke: #000000; stroke-width: 0.8"/>
      </g>
     </g>
    </g>
    <g id="ytick_24">
     <g id="line2d_35">
      <g>
       <use xlink:href="#mecd4383bee" x="305.19" y="119.495953" style="stroke: #000000; stroke-width: 0.8"/>
      </g>
     </g>
    </g>
    <g id="ytick_25">
     <g id="line2d_36">
      <g>
       <use xlink:href="#mecd4383bee" x="305.19" y="91.396149" style="stroke: #000000; stroke-width: 0.8"/>
      </g>
     </g>
    </g>
    <g id="ytick_26">
     <g id="line2d_37">
      <g>
       <use xlink:href="#mecd4383bee" x="305.19" y="63.296345" style="stroke: #000000; stroke-width: 0.8"/>
      </g>
     </g>
    </g>
    <g id="ytick_27">
     <g id="line2d_38">
      <g>
       <use xlink:href="#mecd4383bee" x="305.19" y="35.19654" style="stroke: #000000; stroke-width: 0.8"/>
      </g>
     </g>
    </g>
   </g>
   <g id="line2d_39">
    <path d="M 354.49425 242.07854 
L 354.49425 134.282071 
" clip-path="url(#pb395269823)" style="fill: none; stroke: #606060; stroke-width: 1.5; stroke-linecap: square"/>
   </g>
   <g id="line2d_40">
    <path d="M 354.49425 215.847373 
L 354.49425 182.470425 
" clip-path="url(#pb395269823)" style="fill: none; stroke: #606060; stroke-width: 4.5; stroke-linecap: square"/>
   </g>
   <g id="line2d_41">
    <path d="M 371.89575 242.609626 
L 371.89575 118.102203 
" clip-path="url(#pb395269823)" style="fill: none; stroke: #606060; stroke-width: 1.5; stroke-linecap: square"/>
   </g>
   <g id="line2d_42">
    <path d="M 371.89575 203.393539 
L 371.89575 169.189053 
" clip-path="url(#pb395269823)" style="fill: none; stroke: #606060; stroke-width: 4.5; stroke-linecap: square"/>
   </g>
   <g id="patch_24">
    <path d="M 305.19 265.06 
L 305.19 25.2 
" style="fill: none; stroke: #000000; stroke-width: 0.8; stroke-linejoin: miter; stroke-linecap: square"/>
   </g>
   <g id="patch_25">
    <path d="M 421.2 265.06 
L 421.2 25.2 
" style="fill: none; stroke: #000000; stroke-width: 0.8; stroke-linejoin: miter; stroke-linecap: square"/>
   </g>
   <g id="patch_26">
    <path d="M 305.19 265.06 
L 421.2 265.06 
" style="fill: none; stroke: #000000; stroke-width: 0.8; stroke-linejoin: miter; stroke-linecap: square"/>
   </g>
   <g id="patch_27">
    <path d="M 305.19 25.2 
L 421.2 25.2 
" style="fill: none; stroke: #000000; stroke-width: 0.8; stroke-linejoin: miter; stroke-linecap: square"/>
   </g>
   <g id="PathCollection_5">
    <g clip-path="url(#pb395269823)">
     <use xlink:href="#m7b5ce3f8ab" x="354.49425" y="194.067214" style="fill: #ffffff; stroke: #606060"/>
    </g>
   </g>
   <g id="PathCollection_6">
    <g clip-path="url(#pb395269823)">
     <use xlink:href="#m7b5ce3f8ab" x="371.89575" y="193.94498" style="fill: #ffffff; stroke: #606060"/>
    </g>
   </g>
   <g id="text_15">
    <g id="patch_28">
     <path d="M 309.072 45.06425 
L 347.712 45.06425 
L 347.712 29.32175 
L 309.072 29.32175 
z
" style="fill: #ffffff; opacity: 0.2; stroke: #000000; stroke-linejoin: miter"/>
    </g>
    <!-- P$_n$ = 50 -->
    <g transform="translate(313.072 39.4005) scale(0.08 -0.08)">
     <use xlink:href="#DejaVuSans-50" transform="translate(0 0.78125)"/>
     <use xlink:href="#DejaVuSans-Oblique-6e" transform="translate(61.259766 -15.625) scale(0.7)"/>
     <use xlink:href="#DejaVuSans-20" transform="translate(108.359375 0.78125)"/>
     <use xlink:href="#DejaVuSans-3d" transform="translate(140.146484 0.78125)"/>
     <use xlink:href="#DejaVuSans-20" transform="translate(223.935547 0.78125)"/>
     <use xlink:href="#DejaVuSans-35" transform="translate(255.722656 0.78125)"/>
     <use xlink:href="#DejaVuSans-30" transform="translate(319.345703 0.78125)"/>
    </g>
   </g>
  </g>
 </g>
 <defs>
  <clipPath id="p9dd442df8b">
   <rect x="44.57" y="25.2" width="116.01" height="239.86"/>
  </clipPath>
  <clipPath id="p0400123129">
   <rect x="174.88" y="25.2" width="116.01" height="239.86"/>
  </clipPath>
  <clipPath id="pb395269823">
   <rect x="305.19" y="25.2" width="116.01" height="239.86"/>
  </clipPath>
 </defs>
</svg>
