<?xml version="1.0" encoding="utf-8" standalone="no"?>
<!DOCTYPE svg PUBLIC "-//W3C//DTD SVG 1.1//EN"
  "http://www.w3.org/Graphics/SVG/1.1/DTD/svg11.dtd">
<svg xmlns:xlink="http://www.w3.org/1999/xlink" width="1080pt" height="360pt" viewBox="0 0 1080 360" xmlns="http://www.w3.org/2000/svg" version="1.1">
 <metadata>
  <rdf:RDF xmlns:dc="http://purl.org/dc/elements/1.1/" xmlns:cc="http://creativecommons.org/ns#" xmlns:rdf="http://www.w3.org/1999/02/22-rdf-syntax-ns#">
   <cc:Work>
    <dc:type rdf:resource="http://purl.org/dc/dcmitype/StillImage"/>
    <dc:date>2024-06-30T19:25:38.844921</dc:date>
    <dc:format>image/svg+xml</dc:format>
    <dc:creator>
     <cc:Agent>
      <dc:title>Matplotlib v3.7.2, https://matplotlib.org/</dc:title>
     </cc:Agent>
    </dc:creator>
   </cc:Work>
  </rdf:RDF>
 </metadata>
 <defs>
  <style type="text/css">*{stroke-linejoin: round; stroke-linecap: butt}</style>
 </defs>
 <g id="figure_1">
  <g id="patch_1">
   <path d="M 0 360 
L 1080 360 
L 1080 0 
L 0 0 
z
" style="fill: #ffffff"/>
  </g>
  <g id="axes_1">
   <g id="patch_2">
    <path d="M 50.87 318.04 
L 291.668696 318.04 
L 291.668696 46.32 
L 50.87 46.32 
z
" style="fill: #ffffff"/>
   </g>
   <g id="patch_3">
    <path d="M 50.87 318.04 
L 77.625411 318.04 
L 77.625411 318.04 
L 50.87 318.04 
z
" clip-path="url(#pf341ccb6b7)" style="fill: #a1869e; fill-opacity: 0.75; stroke: #000000; stroke-linejoin: miter"/>
   </g>
   <g id="patch_4">
    <path d="M 77.625411 318.04 
L 104.380821 318.04 
L 104.380821 318.04 
L 77.625411 318.04 
z
" clip-path="url(#pf341ccb6b7)" style="fill: #a1869e; fill-opacity: 0.75; stroke: #000000; stroke-linejoin: miter"/>
   </g>
   <g id="patch_5">
    <path d="M 104.380821 318.04 
L 131.136232 318.04 
L 131.136232 318.04 
L 104.380821 318.04 
z
" clip-path="url(#pf341ccb6b7)" style="fill: #a1869e; fill-opacity: 0.75; stroke: #000000; stroke-linejoin: miter"/>
   </g>
   <g id="patch_6">
    <path d="M 131.136232 318.04 
L 157.891643 318.04 
L 157.891643 318.04 
L 131.136232 318.04 
z
" clip-path="url(#pf341ccb6b7)" style="fill: #a1869e; fill-opacity: 0.75; stroke: #000000; stroke-linejoin: miter"/>
   </g>
   <g id="patch_7">
    <path d="M 157.891643 318.04 
L 184.647053 318.04 
L 184.647053 318.04 
L 157.891643 318.04 
z
" clip-path="url(#pf341ccb6b7)" style="fill: #a1869e; fill-opacity: 0.75; stroke: #000000; stroke-linejoin: miter"/>
   </g>
   <g id="patch_8">
    <path d="M 184.647053 318.04 
L 211.402464 318.04 
L 211.402464 318.04 
L 184.647053 318.04 
z
" clip-path="url(#pf341ccb6b7)" style="fill: #a1869e; fill-opacity: 0.75; stroke: #000000; stroke-linejoin: miter"/>
   </g>
   <g id="patch_9">
    <path d="M 211.402464 318.04 
L 238.157874 318.04 
L 238.157874 318.04 
L 211.402464 318.04 
z
" clip-path="url(#pf341ccb6b7)" style="fill: #a1869e; fill-opacity: 0.75; stroke: #000000; stroke-linejoin: miter"/>
   </g>
   <g id="patch_10">
    <path d="M 238.157874 318.04 
L 264.913285 318.04 
L 264.913285 59.259048 
L 238.157874 59.259048 
z
" clip-path="url(#pf341ccb6b7)" style="fill: #a1869e; fill-opacity: 0.75; stroke: #000000; stroke-linejoin: miter"/>
   </g>
   <g id="patch_11">
    <path d="M 264.913285 318.04 
L 291.668696 318.04 
L 291.668696 318.04 
L 264.913285 318.04 
z
" clip-path="url(#pf341ccb6b7)" style="fill: #a1869e; fill-opacity: 0.75; stroke: #000000; stroke-linejoin: miter"/>
   </g>
   <g id="matplotlib.axis_1">
    <g id="xtick_1">
     <g id="line2d_1">
      <defs>
       <path id="m178d859733" d="M 0 0 
L 0 3.5 
" style="stroke: #000000; stroke-width: 0.8"/>
      </defs>
      <g>
       <use xlink:href="#m178d859733" x="67.115538" y="318.04" style="stroke: #000000; stroke-width: 0.8"/>
      </g>
     </g>
     <g id="text_1">
      <!-- 30000 -->
      <g transform="translate(51.209288 332.638438) scale(0.1 -0.1)">
       <defs>
        <path id="DejaVuSans-33" d="M 2597 2516 
Q 3050 2419 3304 2112 
Q 3559 1806 3559 1356 
Q 3559 666 3084 287 
Q 2609 -91 1734 -91 
Q 1441 -91 1130 -33 
Q 819 25 488 141 
L 488 750 
Q 750 597 1062 519 
Q 1375 441 1716 441 
Q 2309 441 2620 675 
Q 2931 909 2931 1356 
Q 2931 1769 2642 2001 
Q 2353 2234 1838 2234 
L 1294 2234 
L 1294 2753 
L 1863 2753 
Q 2328 2753 2575 2939 
Q 2822 3125 2822 3475 
Q 2822 3834 2567 4026 
Q 2313 4219 1838 4219 
Q 1578 4219 1281 4162 
Q 984 4106 628 3988 
L 628 4550 
Q 988 4650 1302 4700 
Q 1616 4750 1894 4750 
Q 2613 4750 3031 4423 
Q 3450 4097 3450 3541 
Q 3450 3153 3228 2886 
Q 3006 2619 2597 2516 
z
" transform="scale(0.015625)"/>
        <path id="DejaVuSans-30" d="M 2034 4250 
Q 1547 4250 1301 3770 
Q 1056 3291 1056 2328 
Q 1056 1369 1301 889 
Q 1547 409 2034 409 
Q 2525 409 2770 889 
Q 3016 1369 3016 2328 
Q 3016 3291 2770 3770 
Q 2525 4250 2034 4250 
z
M 2034 4750 
Q 2819 4750 3233 4129 
Q 3647 3509 3647 2328 
Q 3647 1150 3233 529 
Q 2819 -91 2034 -91 
Q 1250 -91 836 529 
Q 422 1150 422 2328 
Q 422 3509 836 4129 
Q 1250 4750 2034 4750 
z
" transform="scale(0.015625)"/>
       </defs>
       <use xlink:href="#DejaVuSans-33"/>
       <use xlink:href="#DejaVuSans-30" x="63.623047"/>
       <use xlink:href="#DejaVuSans-30" x="127.246094"/>
       <use xlink:href="#DejaVuSans-30" x="190.869141"/>
       <use xlink:href="#DejaVuSans-30" x="254.492188"/>
      </g>
     </g>
    </g>
    <g id="xtick_2">
     <g id="line2d_2">
      <g>
       <use xlink:href="#m178d859733" x="113.637697" y="318.04" style="stroke: #000000; stroke-width: 0.8"/>
      </g>
     </g>
     <g id="text_2">
      <!-- 35000 -->
      <g transform="translate(97.731447 332.638438) scale(0.1 -0.1)">
       <defs>
        <path id="DejaVuSans-35" d="M 691 4666 
L 3169 4666 
L 3169 4134 
L 1269 4134 
L 1269 2991 
Q 1406 3038 1543 3061 
Q 1681 3084 1819 3084 
Q 2600 3084 3056 2656 
Q 3513 2228 3513 1497 
Q 3513 744 3044 326 
Q 2575 -91 1722 -91 
Q 1428 -91 1123 -41 
Q 819 9 494 109 
L 494 744 
Q 775 591 1075 516 
Q 1375 441 1709 441 
Q 2250 441 2565 725 
Q 2881 1009 2881 1497 
Q 2881 1984 2565 2268 
Q 2250 2553 1709 2553 
Q 1456 2553 1204 2497 
Q 953 2441 691 2322 
L 691 4666 
z
" transform="scale(0.015625)"/>
       </defs>
       <use xlink:href="#DejaVuSans-33"/>
       <use xlink:href="#DejaVuSans-35" x="63.623047"/>
       <use xlink:href="#DejaVuSans-30" x="127.246094"/>
       <use xlink:href="#DejaVuSans-30" x="190.869141"/>
       <use xlink:href="#DejaVuSans-30" x="254.492188"/>
      </g>
     </g>
    </g>
    <g id="xtick_3">
     <g id="line2d_3">
      <g>
       <use xlink:href="#m178d859733" x="160.159856" y="318.04" style="stroke: #000000; stroke-width: 0.8"/>
      </g>
     </g>
     <g id="text_3">
      <!-- 40000 -->
      <g transform="translate(144.253606 332.638438) scale(0.1 -0.1)">
       <defs>
        <path id="DejaVuSans-34" d="M 2419 4116 
L 825 1625 
L 2419 1625 
L 2419 4116 
z
M 2253 4666 
L 3047 4666 
L 3047 1625 
L 3713 1625 
L 3713 1100 
L 3047 1100 
L 3047 0 
L 2419 0 
L 2419 1100 
L 313 1100 
L 313 1709 
L 2253 4666 
z
" transform="scale(0.015625)"/>
       </defs>
       <use xlink:href="#DejaVuSans-34"/>
       <use xlink:href="#DejaVuSans-30" x="63.623047"/>
       <use xlink:href="#DejaVuSans-30" x="127.246094"/>
       <use xlink:href="#DejaVuSans-30" x="190.869141"/>
       <use xlink:href="#DejaVuSans-30" x="254.492188"/>
      </g>
     </g>
    </g>
    <g id="xtick_4">
     <g id="line2d_4">
      <g>
       <use xlink:href="#m178d859733" x="206.682015" y="318.04" style="stroke: #000000; stroke-width: 0.8"/>
      </g>
     </g>
     <g id="text_4">
      <!-- 45000 -->
      <g transform="translate(190.775765 332.638438) scale(0.1 -0.1)">
       <use xlink:href="#DejaVuSans-34"/>
       <use xlink:href="#DejaVuSans-35" x="63.623047"/>
       <use xlink:href="#DejaVuSans-30" x="127.246094"/>
       <use xlink:href="#DejaVuSans-30" x="190.869141"/>
       <use xlink:href="#DejaVuSans-30" x="254.492188"/>
      </g>
     </g>
    </g>
    <g id="xtick_5">
     <g id="line2d_5">
      <g>
       <use xlink:href="#m178d859733" x="253.204174" y="318.04" style="stroke: #000000; stroke-width: 0.8"/>
      </g>
     </g>
     <g id="text_5">
      <!-- 50000 -->
      <g transform="translate(237.297924 332.638438) scale(0.1 -0.1)">
       <use xlink:href="#DejaVuSans-35"/>
       <use xlink:href="#DejaVuSans-30" x="63.623047"/>
       <use xlink:href="#DejaVuSans-30" x="127.246094"/>
       <use xlink:href="#DejaVuSans-30" x="190.869141"/>
       <use xlink:href="#DejaVuSans-30" x="254.492188"/>
      </g>
     </g>
    </g>
    <g id="text_6">
     <!-- Gas Used -->
     <g transform="translate(147.622473 346.316563) scale(0.1 -0.1)">
      <defs>
       <path id="DejaVuSans-47" d="M 3809 666 
L 3809 1919 
L 2778 1919 
L 2778 2438 
L 4434 2438 
L 4434 434 
Q 4069 175 3628 42 
Q 3188 -91 2688 -91 
Q 1594 -91 976 548 
Q 359 1188 359 2328 
Q 359 3472 976 4111 
Q 1594 4750 2688 4750 
Q 3144 4750 3555 4637 
Q 3966 4525 4313 4306 
L 4313 3634 
Q 3963 3931 3569 4081 
Q 3175 4231 2741 4231 
Q 1884 4231 1454 3753 
Q 1025 3275 1025 2328 
Q 1025 1384 1454 906 
Q 1884 428 2741 428 
Q 3075 428 3337 486 
Q 3600 544 3809 666 
z
" transform="scale(0.015625)"/>
       <path id="DejaVuSans-61" d="M 2194 1759 
Q 1497 1759 1228 1600 
Q 959 1441 959 1056 
Q 959 750 1161 570 
Q 1363 391 1709 391 
Q 2188 391 2477 730 
Q 2766 1069 2766 1631 
L 2766 1759 
L 2194 1759 
z
M 3341 1997 
L 3341 0 
L 2766 0 
L 2766 531 
Q 2569 213 2275 61 
Q 1981 -91 1556 -91 
Q 1019 -91 701 211 
Q 384 513 384 1019 
Q 384 1609 779 1909 
Q 1175 2209 1959 2209 
L 2766 2209 
L 2766 2266 
Q 2766 2663 2505 2880 
Q 2244 3097 1772 3097 
Q 1472 3097 1187 3025 
Q 903 2953 641 2809 
L 641 3341 
Q 956 3463 1253 3523 
Q 1550 3584 1831 3584 
Q 2591 3584 2966 3190 
Q 3341 2797 3341 1997 
z
" transform="scale(0.015625)"/>
       <path id="DejaVuSans-73" d="M 2834 3397 
L 2834 2853 
Q 2591 2978 2328 3040 
Q 2066 3103 1784 3103 
Q 1356 3103 1142 2972 
Q 928 2841 928 2578 
Q 928 2378 1081 2264 
Q 1234 2150 1697 2047 
L 1894 2003 
Q 2506 1872 2764 1633 
Q 3022 1394 3022 966 
Q 3022 478 2636 193 
Q 2250 -91 1575 -91 
Q 1294 -91 989 -36 
Q 684 19 347 128 
L 347 722 
Q 666 556 975 473 
Q 1284 391 1588 391 
Q 1994 391 2212 530 
Q 2431 669 2431 922 
Q 2431 1156 2273 1281 
Q 2116 1406 1581 1522 
L 1381 1569 
Q 847 1681 609 1914 
Q 372 2147 372 2553 
Q 372 3047 722 3315 
Q 1072 3584 1716 3584 
Q 2034 3584 2315 3537 
Q 2597 3491 2834 3397 
z
" transform="scale(0.015625)"/>
       <path id="DejaVuSans-20" transform="scale(0.015625)"/>
       <path id="DejaVuSans-55" d="M 556 4666 
L 1191 4666 
L 1191 1831 
Q 1191 1081 1462 751 
Q 1734 422 2344 422 
Q 2950 422 3222 751 
Q 3494 1081 3494 1831 
L 3494 4666 
L 4128 4666 
L 4128 1753 
Q 4128 841 3676 375 
Q 3225 -91 2344 -91 
Q 1459 -91 1007 375 
Q 556 841 556 1753 
L 556 4666 
z
" transform="scale(0.015625)"/>
       <path id="DejaVuSans-65" d="M 3597 1894 
L 3597 1613 
L 953 1613 
Q 991 1019 1311 708 
Q 1631 397 2203 397 
Q 2534 397 2845 478 
Q 3156 559 3463 722 
L 3463 178 
Q 3153 47 2828 -22 
Q 2503 -91 2169 -91 
Q 1331 -91 842 396 
Q 353 884 353 1716 
Q 353 2575 817 3079 
Q 1281 3584 2069 3584 
Q 2775 3584 3186 3129 
Q 3597 2675 3597 1894 
z
M 3022 2063 
Q 3016 2534 2758 2815 
Q 2500 3097 2075 3097 
Q 1594 3097 1305 2825 
Q 1016 2553 972 2059 
L 3022 2063 
z
" transform="scale(0.015625)"/>
       <path id="DejaVuSans-64" d="M 2906 2969 
L 2906 4863 
L 3481 4863 
L 3481 0 
L 2906 0 
L 2906 525 
Q 2725 213 2448 61 
Q 2172 -91 1784 -91 
Q 1150 -91 751 415 
Q 353 922 353 1747 
Q 353 2572 751 3078 
Q 1150 3584 1784 3584 
Q 2172 3584 2448 3432 
Q 2725 3281 2906 2969 
z
M 947 1747 
Q 947 1113 1208 752 
Q 1469 391 1925 391 
Q 2381 391 2643 752 
Q 2906 1113 2906 1747 
Q 2906 2381 2643 2742 
Q 2381 3103 1925 3103 
Q 1469 3103 1208 2742 
Q 947 2381 947 1747 
z
" transform="scale(0.015625)"/>
      </defs>
      <use xlink:href="#DejaVuSans-47"/>
      <use xlink:href="#DejaVuSans-61" x="77.490234"/>
      <use xlink:href="#DejaVuSans-73" x="138.769531"/>
      <use xlink:href="#DejaVuSans-20" x="190.869141"/>
      <use xlink:href="#DejaVuSans-55" x="222.65625"/>
      <use xlink:href="#DejaVuSans-73" x="295.849609"/>
      <use xlink:href="#DejaVuSans-65" x="347.949219"/>
      <use xlink:href="#DejaVuSans-64" x="409.472656"/>
     </g>
    </g>
   </g>
   <g id="matplotlib.axis_2">
    <g id="ytick_1">
     <g id="line2d_6">
      <defs>
       <path id="mba078fc00a" d="M 0 0 
L -3.5 0 
" style="stroke: #000000; stroke-width: 0.8"/>
      </defs>
      <g>
       <use xlink:href="#mba078fc00a" x="50.87" y="318.04" style="stroke: #000000; stroke-width: 0.8"/>
      </g>
     </g>
     <g id="text_7">
      <!-- 0 -->
      <g transform="translate(37.5075 321.839219) scale(0.1 -0.1)">
       <use xlink:href="#DejaVuSans-30"/>
      </g>
     </g>
    </g>
    <g id="ytick_2">
     <g id="line2d_7">
      <g>
       <use xlink:href="#mba078fc00a" x="50.87" y="266.28381" style="stroke: #000000; stroke-width: 0.8"/>
      </g>
     </g>
     <g id="text_8">
      <!-- 20 -->
      <g transform="translate(31.145 270.083028) scale(0.1 -0.1)">
       <defs>
        <path id="DejaVuSans-32" d="M 1228 531 
L 3431 531 
L 3431 0 
L 469 0 
L 469 531 
Q 828 903 1448 1529 
Q 2069 2156 2228 2338 
Q 2531 2678 2651 2914 
Q 2772 3150 2772 3378 
Q 2772 3750 2511 3984 
Q 2250 4219 1831 4219 
Q 1534 4219 1204 4116 
Q 875 4013 500 3803 
L 500 4441 
Q 881 4594 1212 4672 
Q 1544 4750 1819 4750 
Q 2544 4750 2975 4387 
Q 3406 4025 3406 3419 
Q 3406 3131 3298 2873 
Q 3191 2616 2906 2266 
Q 2828 2175 2409 1742 
Q 1991 1309 1228 531 
z
" transform="scale(0.015625)"/>
       </defs>
       <use xlink:href="#DejaVuSans-32"/>
       <use xlink:href="#DejaVuSans-30" x="63.623047"/>
      </g>
     </g>
    </g>
    <g id="ytick_3">
     <g id="line2d_8">
      <g>
       <use xlink:href="#mba078fc00a" x="50.87" y="214.527619" style="stroke: #000000; stroke-width: 0.8"/>
      </g>
     </g>
     <g id="text_9">
      <!-- 40 -->
      <g transform="translate(31.145 218.326838) scale(0.1 -0.1)">
       <use xlink:href="#DejaVuSans-34"/>
       <use xlink:href="#DejaVuSans-30" x="63.623047"/>
      </g>
     </g>
    </g>
    <g id="ytick_4">
     <g id="line2d_9">
      <g>
       <use xlink:href="#mba078fc00a" x="50.87" y="162.771429" style="stroke: #000000; stroke-width: 0.8"/>
      </g>
     </g>
     <g id="text_10">
      <!-- 60 -->
      <g transform="translate(31.145 166.570647) scale(0.1 -0.1)">
       <defs>
        <path id="DejaVuSans-36" d="M 2113 2584 
Q 1688 2584 1439 2293 
Q 1191 2003 1191 1497 
Q 1191 994 1439 701 
Q 1688 409 2113 409 
Q 2538 409 2786 701 
Q 3034 994 3034 1497 
Q 3034 2003 2786 2293 
Q 2538 2584 2113 2584 
z
M 3366 4563 
L 3366 3988 
Q 3128 4100 2886 4159 
Q 2644 4219 2406 4219 
Q 1781 4219 1451 3797 
Q 1122 3375 1075 2522 
Q 1259 2794 1537 2939 
Q 1816 3084 2150 3084 
Q 2853 3084 3261 2657 
Q 3669 2231 3669 1497 
Q 3669 778 3244 343 
Q 2819 -91 2113 -91 
Q 1303 -91 875 529 
Q 447 1150 447 2328 
Q 447 3434 972 4092 
Q 1497 4750 2381 4750 
Q 2619 4750 2861 4703 
Q 3103 4656 3366 4563 
z
" transform="scale(0.015625)"/>
       </defs>
       <use xlink:href="#DejaVuSans-36"/>
       <use xlink:href="#DejaVuSans-30" x="63.623047"/>
      </g>
     </g>
    </g>
    <g id="ytick_5">
     <g id="line2d_10">
      <g>
       <use xlink:href="#mba078fc00a" x="50.87" y="111.015238" style="stroke: #000000; stroke-width: 0.8"/>
      </g>
     </g>
     <g id="text_11">
      <!-- 80 -->
      <g transform="translate(31.145 114.814457) scale(0.1 -0.1)">
       <defs>
        <path id="DejaVuSans-38" d="M 2034 2216 
Q 1584 2216 1326 1975 
Q 1069 1734 1069 1313 
Q 1069 891 1326 650 
Q 1584 409 2034 409 
Q 2484 409 2743 651 
Q 3003 894 3003 1313 
Q 3003 1734 2745 1975 
Q 2488 2216 2034 2216 
z
M 1403 2484 
Q 997 2584 770 2862 
Q 544 3141 544 3541 
Q 544 4100 942 4425 
Q 1341 4750 2034 4750 
Q 2731 4750 3128 4425 
Q 3525 4100 3525 3541 
Q 3525 3141 3298 2862 
Q 3072 2584 2669 2484 
Q 3125 2378 3379 2068 
Q 3634 1759 3634 1313 
Q 3634 634 3220 271 
Q 2806 -91 2034 -91 
Q 1263 -91 848 271 
Q 434 634 434 1313 
Q 434 1759 690 2068 
Q 947 2378 1403 2484 
z
M 1172 3481 
Q 1172 3119 1398 2916 
Q 1625 2713 2034 2713 
Q 2441 2713 2670 2916 
Q 2900 3119 2900 3481 
Q 2900 3844 2670 4047 
Q 2441 4250 2034 4250 
Q 1625 4250 1398 4047 
Q 1172 3844 1172 3481 
z
" transform="scale(0.015625)"/>
       </defs>
       <use xlink:href="#DejaVuSans-38"/>
       <use xlink:href="#DejaVuSans-30" x="63.623047"/>
      </g>
     </g>
    </g>
    <g id="ytick_6">
     <g id="line2d_11">
      <g>
       <use xlink:href="#mba078fc00a" x="50.87" y="59.259048" style="stroke: #000000; stroke-width: 0.8"/>
      </g>
     </g>
     <g id="text_12">
      <!-- 100 -->
      <g transform="translate(24.7825 63.058266) scale(0.1 -0.1)">
       <defs>
        <path id="DejaVuSans-31" d="M 794 531 
L 1825 531 
L 1825 4091 
L 703 3866 
L 703 4441 
L 1819 4666 
L 2450 4666 
L 2450 531 
L 3481 531 
L 3481 0 
L 794 0 
L 794 531 
z
" transform="scale(0.015625)"/>
       </defs>
       <use xlink:href="#DejaVuSans-31"/>
       <use xlink:href="#DejaVuSans-30" x="63.623047"/>
       <use xlink:href="#DejaVuSans-30" x="127.246094"/>
      </g>
     </g>
    </g>
    <g id="text_13">
     <!-- Percentage -->
     <g transform="translate(18.702812 210.302656) rotate(-90) scale(0.1 -0.1)">
      <defs>
       <path id="DejaVuSans-50" d="M 1259 4147 
L 1259 2394 
L 2053 2394 
Q 2494 2394 2734 2622 
Q 2975 2850 2975 3272 
Q 2975 3691 2734 3919 
Q 2494 4147 2053 4147 
L 1259 4147 
z
M 628 4666 
L 2053 4666 
Q 2838 4666 3239 4311 
Q 3641 3956 3641 3272 
Q 3641 2581 3239 2228 
Q 2838 1875 2053 1875 
L 1259 1875 
L 1259 0 
L 628 0 
L 628 4666 
z
" transform="scale(0.015625)"/>
       <path id="DejaVuSans-72" d="M 2631 2963 
Q 2534 3019 2420 3045 
Q 2306 3072 2169 3072 
Q 1681 3072 1420 2755 
Q 1159 2438 1159 1844 
L 1159 0 
L 581 0 
L 581 3500 
L 1159 3500 
L 1159 2956 
Q 1341 3275 1631 3429 
Q 1922 3584 2338 3584 
Q 2397 3584 2469 3576 
Q 2541 3569 2628 3553 
L 2631 2963 
z
" transform="scale(0.015625)"/>
       <path id="DejaVuSans-63" d="M 3122 3366 
L 3122 2828 
Q 2878 2963 2633 3030 
Q 2388 3097 2138 3097 
Q 1578 3097 1268 2742 
Q 959 2388 959 1747 
Q 959 1106 1268 751 
Q 1578 397 2138 397 
Q 2388 397 2633 464 
Q 2878 531 3122 666 
L 3122 134 
Q 2881 22 2623 -34 
Q 2366 -91 2075 -91 
Q 1284 -91 818 406 
Q 353 903 353 1747 
Q 353 2603 823 3093 
Q 1294 3584 2113 3584 
Q 2378 3584 2631 3529 
Q 2884 3475 3122 3366 
z
" transform="scale(0.015625)"/>
       <path id="DejaVuSans-6e" d="M 3513 2113 
L 3513 0 
L 2938 0 
L 2938 2094 
Q 2938 2591 2744 2837 
Q 2550 3084 2163 3084 
Q 1697 3084 1428 2787 
Q 1159 2491 1159 1978 
L 1159 0 
L 581 0 
L 581 3500 
L 1159 3500 
L 1159 2956 
Q 1366 3272 1645 3428 
Q 1925 3584 2291 3584 
Q 2894 3584 3203 3211 
Q 3513 2838 3513 2113 
z
" transform="scale(0.015625)"/>
       <path id="DejaVuSans-74" d="M 1172 4494 
L 1172 3500 
L 2356 3500 
L 2356 3053 
L 1172 3053 
L 1172 1153 
Q 1172 725 1289 603 
Q 1406 481 1766 481 
L 2356 481 
L 2356 0 
L 1766 0 
Q 1100 0 847 248 
Q 594 497 594 1153 
L 594 3053 
L 172 3053 
L 172 3500 
L 594 3500 
L 594 4494 
L 1172 4494 
z
" transform="scale(0.015625)"/>
       <path id="DejaVuSans-67" d="M 2906 1791 
Q 2906 2416 2648 2759 
Q 2391 3103 1925 3103 
Q 1463 3103 1205 2759 
Q 947 2416 947 1791 
Q 947 1169 1205 825 
Q 1463 481 1925 481 
Q 2391 481 2648 825 
Q 2906 1169 2906 1791 
z
M 3481 434 
Q 3481 -459 3084 -895 
Q 2688 -1331 1869 -1331 
Q 1566 -1331 1297 -1286 
Q 1028 -1241 775 -1147 
L 775 -588 
Q 1028 -725 1275 -790 
Q 1522 -856 1778 -856 
Q 2344 -856 2625 -561 
Q 2906 -266 2906 331 
L 2906 616 
Q 2728 306 2450 153 
Q 2172 0 1784 0 
Q 1141 0 747 490 
Q 353 981 353 1791 
Q 353 2603 747 3093 
Q 1141 3584 1784 3584 
Q 2172 3584 2450 3431 
Q 2728 3278 2906 2969 
L 2906 3500 
L 3481 3500 
L 3481 434 
z
" transform="scale(0.015625)"/>
      </defs>
      <use xlink:href="#DejaVuSans-50"/>
      <use xlink:href="#DejaVuSans-65" x="56.677734"/>
      <use xlink:href="#DejaVuSans-72" x="118.201172"/>
      <use xlink:href="#DejaVuSans-63" x="157.064453"/>
      <use xlink:href="#DejaVuSans-65" x="212.044922"/>
      <use xlink:href="#DejaVuSans-6e" x="273.568359"/>
      <use xlink:href="#DejaVuSans-74" x="336.947266"/>
      <use xlink:href="#DejaVuSans-61" x="376.15625"/>
      <use xlink:href="#DejaVuSans-67" x="437.435547"/>
      <use xlink:href="#DejaVuSans-65" x="500.912109"/>
     </g>
    </g>
   </g>
   <g id="patch_12">
    <path d="M 50.87 318.04 
L 50.87 46.32 
" style="fill: none; stroke: #000000; stroke-width: 0.8; stroke-linejoin: miter; stroke-linecap: square"/>
   </g>
   <g id="patch_13">
    <path d="M 291.668696 318.04 
L 291.668696 46.32 
" style="fill: none; stroke: #000000; stroke-width: 0.8; stroke-linejoin: miter; stroke-linecap: square"/>
   </g>
   <g id="patch_14">
    <path d="M 50.87 318.04 
L 291.668696 318.04 
" style="fill: none; stroke: #000000; stroke-width: 0.8; stroke-linejoin: miter; stroke-linecap: square"/>
   </g>
   <g id="patch_15">
    <path d="M 50.87 46.32 
L 291.668696 46.32 
" style="fill: none; stroke: #000000; stroke-width: 0.8; stroke-linejoin: miter; stroke-linecap: square"/>
   </g>
   <g id="text_14">
    <g id="patch_16">
     <path d="M 63.85383 92.74175 
L 100.49383 92.74175 
L 100.49383 76.99925 
L 63.85383 76.99925 
z
" style="fill: #ffffff; opacity: 0.2; stroke: #000000; stroke-linejoin: miter"/>
    </g>
    <!-- $P_n = 50$ -->
    <g transform="translate(67.85383 87.078) scale(0.08 -0.08)">
     <defs>
      <path id="DejaVuSans-Oblique-50" d="M 1081 4666 
L 2541 4666 
Q 3178 4666 3512 4369 
Q 3847 4072 3847 3500 
Q 3847 2731 3353 2303 
Q 2859 1875 1966 1875 
L 1172 1875 
L 806 0 
L 172 0 
L 1081 4666 
z
M 1613 4147 
L 1275 2394 
L 2069 2394 
Q 2606 2394 2893 2669 
Q 3181 2944 3181 3456 
Q 3181 3784 2986 3965 
Q 2791 4147 2438 4147 
L 1613 4147 
z
" transform="scale(0.015625)"/>
      <path id="DejaVuSans-Oblique-6e" d="M 3566 2113 
L 3156 0 
L 2578 0 
L 2988 2091 
Q 3016 2238 3031 2350 
Q 3047 2463 3047 2528 
Q 3047 2791 2881 2937 
Q 2716 3084 2419 3084 
Q 1956 3084 1622 2776 
Q 1288 2469 1184 1941 
L 800 0 
L 225 0 
L 903 3500 
L 1478 3500 
L 1363 2950 
Q 1603 3253 1940 3418 
Q 2278 3584 2650 3584 
Q 3113 3584 3367 3334 
Q 3622 3084 3622 2631 
Q 3622 2519 3608 2391 
Q 3594 2263 3566 2113 
z
" transform="scale(0.015625)"/>
      <path id="DejaVuSans-3d" d="M 678 2906 
L 4684 2906 
L 4684 2381 
L 678 2381 
L 678 2906 
z
M 678 1631 
L 4684 1631 
L 4684 1100 
L 678 1100 
L 678 1631 
z
" transform="scale(0.015625)"/>
     </defs>
     <use xlink:href="#DejaVuSans-Oblique-50" transform="translate(0 0.78125)"/>
     <use xlink:href="#DejaVuSans-Oblique-6e" transform="translate(60.302734 -15.625) scale(0.7)"/>
     <use xlink:href="#DejaVuSans-3d" transform="translate(126.884766 0.78125)"/>
     <use xlink:href="#DejaVuSans-35" transform="translate(230.15625 0.78125)"/>
     <use xlink:href="#DejaVuSans-30" transform="translate(293.779297 0.78125)"/>
    </g>
   </g>
   <g id="text_15">
    <g id="patch_17">
     <path d="M 62.381752 114.47935 
L 130.861752 114.47935 
L 130.861752 98.73685 
L 62.381752 98.73685 
z
" style="fill: #ffffff; opacity: 0.2; stroke: #000000; stroke-linejoin: miter"/>
    </g>
    <!-- $maxBreach = 3$ -->
    <g transform="translate(66.381752 108.8156) scale(0.08 -0.08)">
     <defs>
      <path id="DejaVuSans-Oblique-6d" d="M 5747 2113 
L 5338 0 
L 4763 0 
L 5166 2094 
Q 5191 2228 5203 2325 
Q 5216 2422 5216 2491 
Q 5216 2772 5059 2928 
Q 4903 3084 4622 3084 
Q 4203 3084 3875 2770 
Q 3547 2456 3450 1953 
L 3066 0 
L 2491 0 
L 2900 2094 
Q 2925 2209 2937 2307 
Q 2950 2406 2950 2484 
Q 2950 2769 2794 2926 
Q 2638 3084 2363 3084 
Q 1938 3084 1609 2770 
Q 1281 2456 1184 1953 
L 800 0 
L 225 0 
L 909 3500 
L 1484 3500 
L 1375 2956 
Q 1609 3263 1923 3423 
Q 2238 3584 2597 3584 
Q 2978 3584 3223 3384 
Q 3469 3184 3519 2828 
Q 3781 3197 4126 3390 
Q 4472 3584 4856 3584 
Q 5306 3584 5551 3325 
Q 5797 3066 5797 2591 
Q 5797 2488 5784 2364 
Q 5772 2241 5747 2113 
z
" transform="scale(0.015625)"/>
      <path id="DejaVuSans-Oblique-61" d="M 3438 1997 
L 3047 0 
L 2472 0 
L 2578 531 
Q 2325 219 2001 64 
Q 1678 -91 1281 -91 
Q 834 -91 548 182 
Q 263 456 263 884 
Q 263 1497 752 1853 
Q 1241 2209 2100 2209 
L 2900 2209 
L 2931 2363 
Q 2938 2388 2941 2417 
Q 2944 2447 2944 2509 
Q 2944 2788 2717 2942 
Q 2491 3097 2081 3097 
Q 1800 3097 1504 3025 
Q 1209 2953 897 2809 
L 997 3341 
Q 1322 3463 1633 3523 
Q 1944 3584 2234 3584 
Q 2853 3584 3176 3315 
Q 3500 3047 3500 2534 
Q 3500 2431 3484 2292 
Q 3469 2153 3438 1997 
z
M 2816 1759 
L 2241 1759 
Q 1534 1759 1195 1570 
Q 856 1381 856 984 
Q 856 709 1029 553 
Q 1203 397 1509 397 
Q 1978 397 2328 733 
Q 2678 1069 2791 1631 
L 2816 1759 
z
" transform="scale(0.015625)"/>
      <path id="DejaVuSans-Oblique-78" d="M 3841 3500 
L 2234 1784 
L 3219 0 
L 2559 0 
L 1819 1388 
L 531 0 
L -166 0 
L 1556 1844 
L 641 3500 
L 1300 3500 
L 1972 2234 
L 3144 3500 
L 3841 3500 
z
" transform="scale(0.015625)"/>
      <path id="DejaVuSans-Oblique-42" d="M 1081 4666 
L 2694 4666 
Q 3350 4666 3675 4422 
Q 4000 4178 4000 3688 
Q 4000 3238 3720 2911 
Q 3441 2584 2988 2516 
Q 3375 2428 3569 2181 
Q 3763 1934 3763 1522 
Q 3763 819 3242 409 
Q 2722 0 1819 0 
L 172 0 
L 1081 4666 
z
M 1234 2228 
L 903 519 
L 1919 519 
Q 2491 519 2800 781 
Q 3109 1044 3109 1522 
Q 3109 1891 2904 2059 
Q 2700 2228 2247 2228 
L 1234 2228 
z
M 1606 4147 
L 1331 2741 
L 2272 2741 
Q 2775 2741 3058 2959 
Q 3341 3178 3341 3566 
Q 3341 3869 3150 4008 
Q 2959 4147 2541 4147 
L 1606 4147 
z
" transform="scale(0.015625)"/>
      <path id="DejaVuSans-Oblique-72" d="M 2853 2969 
Q 2766 3016 2653 3041 
Q 2541 3066 2413 3066 
Q 1953 3066 1609 2717 
Q 1266 2369 1153 1784 
L 800 0 
L 225 0 
L 909 3500 
L 1484 3500 
L 1375 2956 
Q 1603 3259 1920 3421 
Q 2238 3584 2597 3584 
Q 2691 3584 2781 3573 
Q 2872 3563 2963 3538 
L 2853 2969 
z
" transform="scale(0.015625)"/>
      <path id="DejaVuSans-Oblique-65" d="M 3078 2063 
Q 3088 2113 3092 2166 
Q 3097 2219 3097 2272 
Q 3097 2653 2873 2875 
Q 2650 3097 2266 3097 
Q 1838 3097 1509 2826 
Q 1181 2556 1013 2059 
L 3078 2063 
z
M 3578 1613 
L 903 1613 
Q 884 1494 878 1425 
Q 872 1356 872 1306 
Q 872 872 1139 634 
Q 1406 397 1894 397 
Q 2269 397 2603 481 
Q 2938 566 3225 728 
L 3116 159 
Q 2806 34 2476 -28 
Q 2147 -91 1806 -91 
Q 1078 -91 686 257 
Q 294 606 294 1247 
Q 294 1794 489 2264 
Q 684 2734 1063 3103 
Q 1306 3334 1642 3459 
Q 1978 3584 2356 3584 
Q 2950 3584 3301 3228 
Q 3653 2872 3653 2272 
Q 3653 2128 3634 1964 
Q 3616 1800 3578 1613 
z
" transform="scale(0.015625)"/>
      <path id="DejaVuSans-Oblique-63" d="M 3431 3366 
L 3316 2797 
Q 3109 2947 2876 3022 
Q 2644 3097 2394 3097 
Q 2119 3097 1870 3000 
Q 1622 2903 1453 2725 
Q 1184 2453 1037 2087 
Q 891 1722 891 1331 
Q 891 859 1127 628 
Q 1363 397 1844 397 
Q 2081 397 2348 469 
Q 2616 541 2906 684 
L 2797 116 
Q 2547 13 2283 -39 
Q 2019 -91 1741 -91 
Q 1044 -91 669 257 
Q 294 606 294 1253 
Q 294 1797 489 2255 
Q 684 2713 1069 3078 
Q 1331 3328 1684 3456 
Q 2038 3584 2456 3584 
Q 2700 3584 2940 3529 
Q 3181 3475 3431 3366 
z
" transform="scale(0.015625)"/>
      <path id="DejaVuSans-Oblique-68" d="M 3566 2113 
L 3156 0 
L 2578 0 
L 2988 2091 
Q 3016 2238 3031 2350 
Q 3047 2463 3047 2528 
Q 3047 2791 2881 2937 
Q 2716 3084 2419 3084 
Q 1956 3084 1617 2771 
Q 1278 2459 1178 1941 
L 800 0 
L 225 0 
L 1172 4863 
L 1747 4863 
L 1375 2950 
Q 1594 3244 1934 3414 
Q 2275 3584 2650 3584 
Q 3113 3584 3367 3334 
Q 3622 3084 3622 2631 
Q 3622 2519 3608 2391 
Q 3594 2263 3566 2113 
z
" transform="scale(0.015625)"/>
     </defs>
     <use xlink:href="#DejaVuSans-Oblique-6d" transform="translate(0 0.015625)"/>
     <use xlink:href="#DejaVuSans-Oblique-61" transform="translate(97.412109 0.015625)"/>
     <use xlink:href="#DejaVuSans-Oblique-78" transform="translate(158.691406 0.015625)"/>
     <use xlink:href="#DejaVuSans-Oblique-42" transform="translate(217.871094 0.015625)"/>
     <use xlink:href="#DejaVuSans-Oblique-72" transform="translate(286.474609 0.015625)"/>
     <use xlink:href="#DejaVuSans-Oblique-65" transform="translate(327.587891 0.015625)"/>
     <use xlink:href="#DejaVuSans-Oblique-61" transform="translate(389.111328 0.015625)"/>
     <use xlink:href="#DejaVuSans-Oblique-63" transform="translate(450.390625 0.015625)"/>
     <use xlink:href="#DejaVuSans-Oblique-68" transform="translate(505.371094 0.015625)"/>
     <use xlink:href="#DejaVuSans-3d" transform="translate(588.232422 0.015625)"/>
     <use xlink:href="#DejaVuSans-33" transform="translate(691.503906 0.015625)"/>
    </g>
   </g>
   <g id="text_16">
    <!-- $calculatePenalty$ -->
    <g transform="translate(121.769348 40.32) scale(0.12 -0.12)">
     <defs>
      <path id="DejaVuSans-Oblique-6c" d="M 1172 4863 
L 1747 4863 
L 800 0 
L 225 0 
L 1172 4863 
z
" transform="scale(0.015625)"/>
      <path id="DejaVuSans-Oblique-75" d="M 428 1388 
L 838 3500 
L 1416 3500 
L 1006 1409 
Q 975 1256 961 1147 
Q 947 1038 947 966 
Q 947 700 1109 554 
Q 1272 409 1569 409 
Q 2031 409 2368 721 
Q 2706 1034 2809 1563 
L 3194 3500 
L 3769 3500 
L 3091 0 
L 2516 0 
L 2631 550 
Q 2388 244 2052 76 
Q 1716 -91 1338 -91 
Q 878 -91 622 161 
Q 366 413 366 863 
Q 366 956 381 1097 
Q 397 1238 428 1388 
z
" transform="scale(0.015625)"/>
      <path id="DejaVuSans-Oblique-74" d="M 2706 3500 
L 2619 3053 
L 1472 3053 
L 1100 1153 
Q 1081 1047 1072 975 
Q 1063 903 1063 863 
Q 1063 663 1183 572 
Q 1303 481 1569 481 
L 2150 481 
L 2053 0 
L 1503 0 
Q 991 0 739 200 
Q 488 400 488 806 
Q 488 878 497 964 
Q 506 1050 525 1153 
L 897 3053 
L 409 3053 
L 500 3500 
L 978 3500 
L 1172 4494 
L 1747 4494 
L 1556 3500 
L 2706 3500 
z
" transform="scale(0.015625)"/>
      <path id="DejaVuSans-Oblique-79" d="M 1588 -325 
Q 1188 -997 936 -1164 
Q 684 -1331 294 -1331 
L -159 -1331 
L -63 -850 
L 269 -850 
Q 509 -850 678 -719 
Q 847 -588 1056 -206 
L 1234 128 
L 459 3500 
L 1069 3500 
L 1650 819 
L 3256 3500 
L 3859 3500 
L 1588 -325 
z
" transform="scale(0.015625)"/>
     </defs>
     <use xlink:href="#DejaVuSans-Oblique-63" transform="translate(0 0.015625)"/>
     <use xlink:href="#DejaVuSans-Oblique-61" transform="translate(54.980469 0.015625)"/>
     <use xlink:href="#DejaVuSans-Oblique-6c" transform="translate(116.259766 0.015625)"/>
     <use xlink:href="#DejaVuSans-Oblique-63" transform="translate(144.042969 0.015625)"/>
     <use xlink:href="#DejaVuSans-Oblique-75" transform="translate(199.023438 0.015625)"/>
     <use xlink:href="#DejaVuSans-Oblique-6c" transform="translate(262.402344 0.015625)"/>
     <use xlink:href="#DejaVuSans-Oblique-61" transform="translate(290.185547 0.015625)"/>
     <use xlink:href="#DejaVuSans-Oblique-74" transform="translate(351.464844 0.015625)"/>
     <use xlink:href="#DejaVuSans-Oblique-65" transform="translate(390.673828 0.015625)"/>
     <use xlink:href="#DejaVuSans-Oblique-50" transform="translate(452.197266 0.015625)"/>
     <use xlink:href="#DejaVuSans-Oblique-65" transform="translate(512.5 0.015625)"/>
     <use xlink:href="#DejaVuSans-Oblique-6e" transform="translate(574.023438 0.015625)"/>
     <use xlink:href="#DejaVuSans-Oblique-61" transform="translate(637.402344 0.015625)"/>
     <use xlink:href="#DejaVuSans-Oblique-6c" transform="translate(698.681641 0.015625)"/>
     <use xlink:href="#DejaVuSans-Oblique-74" transform="translate(726.464844 0.015625)"/>
     <use xlink:href="#DejaVuSans-Oblique-79" transform="translate(765.673828 0.015625)"/>
    </g>
   </g>
   <g id="legend_1">
    <g id="patch_18">
     <path d="M 62.685974 71.715325 
L 126.498474 71.715325 
Q 128.498474 71.715325 128.498474 69.715325 
L 128.498474 56.0372 
Q 128.498474 54.0372 126.498474 54.0372 
L 62.685974 54.0372 
Q 60.685974 54.0372 60.685974 56.0372 
L 60.685974 69.715325 
Q 60.685974 71.715325 62.685974 71.715325 
z
" style="fill: #ffffff; opacity: 0.8; stroke: #cccccc; stroke-linejoin: miter"/>
    </g>
    <g id="line2d_12">
     <path d="M 64.685974 62.135638 
L 74.685974 62.135638 
L 84.685974 62.135638 
" style="fill: none; stroke: #a1869e; stroke-width: 4; stroke-linecap: square"/>
    </g>
    <g id="text_17">
     <!-- 49134 -->
     <g transform="translate(92.685974 65.635638) scale(0.1 -0.1)">
      <defs>
       <path id="DejaVuSans-39" d="M 703 97 
L 703 672 
Q 941 559 1184 500 
Q 1428 441 1663 441 
Q 2288 441 2617 861 
Q 2947 1281 2994 2138 
Q 2813 1869 2534 1725 
Q 2256 1581 1919 1581 
Q 1219 1581 811 2004 
Q 403 2428 403 3163 
Q 403 3881 828 4315 
Q 1253 4750 1959 4750 
Q 2769 4750 3195 4129 
Q 3622 3509 3622 2328 
Q 3622 1225 3098 567 
Q 2575 -91 1691 -91 
Q 1453 -91 1209 -44 
Q 966 3 703 97 
z
M 1959 2075 
Q 2384 2075 2632 2365 
Q 2881 2656 2881 3163 
Q 2881 3666 2632 3958 
Q 2384 4250 1959 4250 
Q 1534 4250 1286 3958 
Q 1038 3666 1038 3163 
Q 1038 2656 1286 2365 
Q 1534 2075 1959 2075 
z
" transform="scale(0.015625)"/>
      </defs>
      <use xlink:href="#DejaVuSans-34"/>
      <use xlink:href="#DejaVuSans-39" x="63.623047"/>
      <use xlink:href="#DejaVuSans-31" x="127.246094"/>
      <use xlink:href="#DejaVuSans-33" x="190.869141"/>
      <use xlink:href="#DejaVuSans-34" x="254.492188"/>
     </g>
    </g>
   </g>
  </g>
  <g id="axes_2">
   <g id="patch_19">
    <path d="M 305.968696 318.04 
L 546.767391 318.04 
L 546.767391 46.32 
L 305.968696 46.32 
z
" style="fill: #ffffff"/>
   </g>
   <g id="patch_20">
    <path d="M 292.59099 318.04 
L 319.346401 318.04 
L 319.346401 318.04 
L 292.59099 318.04 
z
" clip-path="url(#p3429827403)" style="fill: #a53860; opacity: 0.7; stroke: #000000; stroke-linejoin: miter"/>
   </g>
   <g id="patch_21">
    <path d="M 319.346401 318.04 
L 346.101812 318.04 
L 346.101812 318.04 
L 319.346401 318.04 
z
" clip-path="url(#p3429827403)" style="fill: #a53860; opacity: 0.7; stroke: #000000; stroke-linejoin: miter"/>
   </g>
   <g id="patch_22">
    <path d="M 346.101812 318.04 
L 372.857222 318.04 
L 372.857222 318.04 
L 346.101812 318.04 
z
" clip-path="url(#p3429827403)" style="fill: #a53860; opacity: 0.7; stroke: #000000; stroke-linejoin: miter"/>
   </g>
   <g id="patch_23">
    <path d="M 372.857222 318.04 
L 399.612633 318.04 
L 399.612633 318.04 
L 372.857222 318.04 
z
" clip-path="url(#p3429827403)" style="fill: #a53860; opacity: 0.7; stroke: #000000; stroke-linejoin: miter"/>
   </g>
   <g id="patch_24">
    <path d="M 399.612633 318.04 
L 426.368043 318.04 
L 426.368043 318.04 
L 399.612633 318.04 
z
" clip-path="url(#p3429827403)" style="fill: #a53860; opacity: 0.7; stroke: #000000; stroke-linejoin: miter"/>
   </g>
   <g id="patch_25">
    <path d="M 426.368043 318.04 
L 453.123454 318.04 
L 453.123454 292.161905 
L 426.368043 292.161905 
z
" clip-path="url(#p3429827403)" style="fill: #a53860; opacity: 0.7; stroke: #000000; stroke-linejoin: miter"/>
   </g>
   <g id="patch_26">
    <path d="M 453.123454 318.04 
L 479.878865 318.04 
L 479.878865 318.04 
L 453.123454 318.04 
z
" clip-path="url(#p3429827403)" style="fill: #a53860; opacity: 0.7; stroke: #000000; stroke-linejoin: miter"/>
   </g>
   <g id="patch_27">
    <path d="M 479.878865 318.04 
L 506.634275 318.04 
L 506.634275 318.04 
L 479.878865 318.04 
z
" clip-path="url(#p3429827403)" style="fill: #a53860; opacity: 0.7; stroke: #000000; stroke-linejoin: miter"/>
   </g>
   <g id="patch_28">
    <path d="M 506.634275 318.04 
L 533.389686 318.04 
L 533.389686 318.04 
L 506.634275 318.04 
z
" clip-path="url(#p3429827403)" style="fill: #a53860; opacity: 0.7; stroke: #000000; stroke-linejoin: miter"/>
   </g>
   <g id="patch_29">
    <path d="M 292.59099 318.04 
L 319.346401 318.04 
L 319.346401 318.04 
L 292.59099 318.04 
z
" clip-path="url(#p3429827403)" style="fill: #4c3b4d; opacity: 0.7; stroke: #000000; stroke-linejoin: miter"/>
   </g>
   <g id="patch_30">
    <path d="M 319.346401 318.04 
L 346.101812 318.04 
L 346.101812 318.04 
L 319.346401 318.04 
z
" clip-path="url(#p3429827403)" style="fill: #4c3b4d; opacity: 0.7; stroke: #000000; stroke-linejoin: miter"/>
   </g>
   <g id="patch_31">
    <path d="M 346.101812 318.04 
L 372.857222 318.04 
L 372.857222 318.04 
L 346.101812 318.04 
z
" clip-path="url(#p3429827403)" style="fill: #4c3b4d; opacity: 0.7; stroke: #000000; stroke-linejoin: miter"/>
   </g>
   <g id="patch_32">
    <path d="M 372.857222 318.04 
L 399.612633 318.04 
L 399.612633 318.04 
L 372.857222 318.04 
z
" clip-path="url(#p3429827403)" style="fill: #4c3b4d; opacity: 0.7; stroke: #000000; stroke-linejoin: miter"/>
   </g>
   <g id="patch_33">
    <path d="M 399.612633 318.04 
L 426.368043 318.04 
L 426.368043 318.04 
L 399.612633 318.04 
z
" clip-path="url(#p3429827403)" style="fill: #4c3b4d; opacity: 0.7; stroke: #000000; stroke-linejoin: miter"/>
   </g>
   <g id="patch_34">
    <path d="M 426.368043 292.161905 
L 453.123454 292.161905 
L 453.123454 59.259048 
L 426.368043 59.259048 
z
" clip-path="url(#p3429827403)" style="fill: #4c3b4d; opacity: 0.7; stroke: #000000; stroke-linejoin: miter"/>
   </g>
   <g id="patch_35">
    <path d="M 453.123454 318.04 
L 479.878865 318.04 
L 479.878865 318.04 
L 453.123454 318.04 
z
" clip-path="url(#p3429827403)" style="fill: #4c3b4d; opacity: 0.7; stroke: #000000; stroke-linejoin: miter"/>
   </g>
   <g id="patch_36">
    <path d="M 479.878865 318.04 
L 506.634275 318.04 
L 506.634275 318.04 
L 479.878865 318.04 
z
" clip-path="url(#p3429827403)" style="fill: #4c3b4d; opacity: 0.7; stroke: #000000; stroke-linejoin: miter"/>
   </g>
   <g id="patch_37">
    <path d="M 506.634275 318.04 
L 533.389686 318.04 
L 533.389686 318.04 
L 506.634275 318.04 
z
" clip-path="url(#p3429827403)" style="fill: #4c3b4d; opacity: 0.7; stroke: #000000; stroke-linejoin: miter"/>
   </g>
   <g id="matplotlib.axis_3">
    <g id="xtick_6">
     <g id="line2d_13">
      <g>
       <use xlink:href="#m178d859733" x="322.214234" y="318.04" style="stroke: #000000; stroke-width: 0.8"/>
      </g>
     </g>
     <g id="text_18">
      <!-- 30000 -->
      <g transform="translate(306.307984 332.638438) scale(0.1 -0.1)">
       <use xlink:href="#DejaVuSans-33"/>
       <use xlink:href="#DejaVuSans-30" x="63.623047"/>
       <use xlink:href="#DejaVuSans-30" x="127.246094"/>
       <use xlink:href="#DejaVuSans-30" x="190.869141"/>
       <use xlink:href="#DejaVuSans-30" x="254.492188"/>
      </g>
     </g>
    </g>
    <g id="xtick_7">
     <g id="line2d_14">
      <g>
       <use xlink:href="#m178d859733" x="368.736393" y="318.04" style="stroke: #000000; stroke-width: 0.8"/>
      </g>
     </g>
     <g id="text_19">
      <!-- 35000 -->
      <g transform="translate(352.830143 332.638438) scale(0.1 -0.1)">
       <use xlink:href="#DejaVuSans-33"/>
       <use xlink:href="#DejaVuSans-35" x="63.623047"/>
       <use xlink:href="#DejaVuSans-30" x="127.246094"/>
       <use xlink:href="#DejaVuSans-30" x="190.869141"/>
       <use xlink:href="#DejaVuSans-30" x="254.492188"/>
      </g>
     </g>
    </g>
    <g id="xtick_8">
     <g id="line2d_15">
      <g>
       <use xlink:href="#m178d859733" x="415.258552" y="318.04" style="stroke: #000000; stroke-width: 0.8"/>
      </g>
     </g>
     <g id="text_20">
      <!-- 40000 -->
      <g transform="translate(399.352302 332.638438) scale(0.1 -0.1)">
       <use xlink:href="#DejaVuSans-34"/>
       <use xlink:href="#DejaVuSans-30" x="63.623047"/>
       <use xlink:href="#DejaVuSans-30" x="127.246094"/>
       <use xlink:href="#DejaVuSans-30" x="190.869141"/>
       <use xlink:href="#DejaVuSans-30" x="254.492188"/>
      </g>
     </g>
    </g>
    <g id="xtick_9">
     <g id="line2d_16">
      <g>
       <use xlink:href="#m178d859733" x="461.780711" y="318.04" style="stroke: #000000; stroke-width: 0.8"/>
      </g>
     </g>
     <g id="text_21">
      <!-- 45000 -->
      <g transform="translate(445.874461 332.638438) scale(0.1 -0.1)">
       <use xlink:href="#DejaVuSans-34"/>
       <use xlink:href="#DejaVuSans-35" x="63.623047"/>
       <use xlink:href="#DejaVuSans-30" x="127.246094"/>
       <use xlink:href="#DejaVuSans-30" x="190.869141"/>
       <use xlink:href="#DejaVuSans-30" x="254.492188"/>
      </g>
     </g>
    </g>
    <g id="xtick_10">
     <g id="line2d_17">
      <g>
       <use xlink:href="#m178d859733" x="508.30287" y="318.04" style="stroke: #000000; stroke-width: 0.8"/>
      </g>
     </g>
     <g id="text_22">
      <!-- 50000 -->
      <g transform="translate(492.39662 332.638438) scale(0.1 -0.1)">
       <use xlink:href="#DejaVuSans-35"/>
       <use xlink:href="#DejaVuSans-30" x="63.623047"/>
       <use xlink:href="#DejaVuSans-30" x="127.246094"/>
       <use xlink:href="#DejaVuSans-30" x="190.869141"/>
       <use xlink:href="#DejaVuSans-30" x="254.492188"/>
      </g>
     </g>
    </g>
    <g id="text_23">
     <!-- Gas Used -->
     <g transform="translate(402.721168 346.316563) scale(0.1 -0.1)">
      <use xlink:href="#DejaVuSans-47"/>
      <use xlink:href="#DejaVuSans-61" x="77.490234"/>
      <use xlink:href="#DejaVuSans-73" x="138.769531"/>
      <use xlink:href="#DejaVuSans-20" x="190.869141"/>
      <use xlink:href="#DejaVuSans-55" x="222.65625"/>
      <use xlink:href="#DejaVuSans-73" x="295.849609"/>
      <use xlink:href="#DejaVuSans-65" x="347.949219"/>
      <use xlink:href="#DejaVuSans-64" x="409.472656"/>
     </g>
    </g>
   </g>
   <g id="matplotlib.axis_4">
    <g id="ytick_7">
     <g id="line2d_18">
      <g>
       <use xlink:href="#mba078fc00a" x="305.968696" y="318.04" style="stroke: #000000; stroke-width: 0.8"/>
      </g>
     </g>
    </g>
    <g id="ytick_8">
     <g id="line2d_19">
      <g>
       <use xlink:href="#mba078fc00a" x="305.968696" y="266.28381" style="stroke: #000000; stroke-width: 0.8"/>
      </g>
     </g>
    </g>
    <g id="ytick_9">
     <g id="line2d_20">
      <g>
       <use xlink:href="#mba078fc00a" x="305.968696" y="214.527619" style="stroke: #000000; stroke-width: 0.8"/>
      </g>
     </g>
    </g>
    <g id="ytick_10">
     <g id="line2d_21">
      <g>
       <use xlink:href="#mba078fc00a" x="305.968696" y="162.771429" style="stroke: #000000; stroke-width: 0.8"/>
      </g>
     </g>
    </g>
    <g id="ytick_11">
     <g id="line2d_22">
      <g>
       <use xlink:href="#mba078fc00a" x="305.968696" y="111.015238" style="stroke: #000000; stroke-width: 0.8"/>
      </g>
     </g>
    </g>
    <g id="ytick_12">
     <g id="line2d_23">
      <g>
       <use xlink:href="#mba078fc00a" x="305.968696" y="59.259048" style="stroke: #000000; stroke-width: 0.8"/>
      </g>
     </g>
    </g>
   </g>
   <g id="patch_38">
    <path d="M 305.968696 318.04 
L 305.968696 46.32 
" style="fill: none; stroke: #000000; stroke-width: 0.8; stroke-linejoin: miter; stroke-linecap: square"/>
   </g>
   <g id="patch_39">
    <path d="M 546.767391 318.04 
L 546.767391 46.32 
" style="fill: none; stroke: #000000; stroke-width: 0.8; stroke-linejoin: miter; stroke-linecap: square"/>
   </g>
   <g id="patch_40">
    <path d="M 305.968696 318.04 
L 546.767391 318.04 
" style="fill: none; stroke: #000000; stroke-width: 0.8; stroke-linejoin: miter; stroke-linecap: square"/>
   </g>
   <g id="patch_41">
    <path d="M 305.968696 46.32 
L 546.767391 46.32 
" style="fill: none; stroke: #000000; stroke-width: 0.8; stroke-linejoin: miter; stroke-linecap: square"/>
   </g>
   <g id="text_24">
    <g id="patch_42">
     <path d="M 316.544539 109.04495 
L 353.184539 109.04495 
L 353.184539 93.30245 
L 316.544539 93.30245 
z
" style="fill: #ffffff; opacity: 0.2; stroke: #000000; stroke-linejoin: miter"/>
    </g>
    <!-- $P_n = 50$ -->
    <g transform="translate(320.544539 103.3812) scale(0.08 -0.08)">
     <use xlink:href="#DejaVuSans-Oblique-50" transform="translate(0 0.78125)"/>
     <use xlink:href="#DejaVuSans-Oblique-6e" transform="translate(60.302734 -15.625) scale(0.7)"/>
     <use xlink:href="#DejaVuSans-3d" transform="translate(126.884766 0.78125)"/>
     <use xlink:href="#DejaVuSans-35" transform="translate(230.15625 0.78125)"/>
     <use xlink:href="#DejaVuSans-30" transform="translate(293.779297 0.78125)"/>
    </g>
   </g>
   <g id="text_25">
    <g id="patch_43">
     <path d="M 315.072461 130.78255 
L 383.552461 130.78255 
L 383.552461 115.04005 
L 315.072461 115.04005 
z
" style="fill: #ffffff; opacity: 0.2; stroke: #000000; stroke-linejoin: miter"/>
    </g>
    <!-- $maxBreach = 3$ -->
    <g transform="translate(319.072461 125.1188) scale(0.08 -0.08)">
     <use xlink:href="#DejaVuSans-Oblique-6d" transform="translate(0 0.015625)"/>
     <use xlink:href="#DejaVuSans-Oblique-61" transform="translate(97.412109 0.015625)"/>
     <use xlink:href="#DejaVuSans-Oblique-78" transform="translate(158.691406 0.015625)"/>
     <use xlink:href="#DejaVuSans-Oblique-42" transform="translate(217.871094 0.015625)"/>
     <use xlink:href="#DejaVuSans-Oblique-72" transform="translate(286.474609 0.015625)"/>
     <use xlink:href="#DejaVuSans-Oblique-65" transform="translate(327.587891 0.015625)"/>
     <use xlink:href="#DejaVuSans-Oblique-61" transform="translate(389.111328 0.015625)"/>
     <use xlink:href="#DejaVuSans-Oblique-63" transform="translate(450.390625 0.015625)"/>
     <use xlink:href="#DejaVuSans-Oblique-68" transform="translate(505.371094 0.015625)"/>
     <use xlink:href="#DejaVuSans-3d" transform="translate(588.232422 0.015625)"/>
     <use xlink:href="#DejaVuSans-33" transform="translate(691.503906 0.015625)"/>
    </g>
   </g>
   <g id="text_26">
    <!-- $penaltyAmount$ -->
    <g transform="translate(380.228043 40.32) scale(0.12 -0.12)">
     <defs>
      <path id="DejaVuSans-Oblique-70" d="M 3175 2156 
Q 3175 2616 2975 2859 
Q 2775 3103 2400 3103 
Q 2144 3103 1911 2972 
Q 1678 2841 1497 2591 
Q 1319 2344 1212 1994 
Q 1106 1644 1106 1300 
Q 1106 863 1306 627 
Q 1506 391 1875 391 
Q 2147 391 2380 519 
Q 2613 647 2778 891 
Q 2956 1147 3065 1494 
Q 3175 1841 3175 2156 
z
M 1394 2969 
Q 1625 3272 1939 3428 
Q 2253 3584 2638 3584 
Q 3175 3584 3472 3232 
Q 3769 2881 3769 2247 
Q 3769 1728 3584 1258 
Q 3400 788 3053 416 
Q 2822 169 2531 39 
Q 2241 -91 1919 -91 
Q 1547 -91 1294 64 
Q 1041 219 916 525 
L 556 -1331 
L -19 -1331 
L 922 3500 
L 1497 3500 
L 1394 2969 
z
" transform="scale(0.015625)"/>
      <path id="DejaVuSans-Oblique-41" d="M 2356 4666 
L 3072 4666 
L 3938 0 
L 3278 0 
L 3084 1197 
L 984 1197 
L 325 0 
L -341 0 
L 2356 4666 
z
M 2584 4044 
L 1275 1722 
L 2988 1722 
L 2584 4044 
z
" transform="scale(0.015625)"/>
      <path id="DejaVuSans-Oblique-6f" d="M 1625 -91 
Q 1009 -91 651 289 
Q 294 669 294 1325 
Q 294 1706 417 2101 
Q 541 2497 738 2766 
Q 1047 3184 1428 3384 
Q 1809 3584 2291 3584 
Q 2888 3584 3255 3212 
Q 3622 2841 3622 2241 
Q 3622 1825 3500 1412 
Q 3378 1000 3181 728 
Q 2875 309 2494 109 
Q 2113 -91 1625 -91 
z
M 891 1344 
Q 891 869 1089 633 
Q 1288 397 1691 397 
Q 2269 397 2648 901 
Q 3028 1406 3028 2181 
Q 3028 2634 2825 2865 
Q 2622 3097 2228 3097 
Q 1903 3097 1650 2945 
Q 1397 2794 1197 2484 
Q 1050 2253 970 1956 
Q 891 1659 891 1344 
z
" transform="scale(0.015625)"/>
     </defs>
     <use xlink:href="#DejaVuSans-Oblique-70" transform="translate(0 0.015625)"/>
     <use xlink:href="#DejaVuSans-Oblique-65" transform="translate(63.476562 0.015625)"/>
     <use xlink:href="#DejaVuSans-Oblique-6e" transform="translate(125 0.015625)"/>
     <use xlink:href="#DejaVuSans-Oblique-61" transform="translate(188.378906 0.015625)"/>
     <use xlink:href="#DejaVuSans-Oblique-6c" transform="translate(249.658203 0.015625)"/>
     <use xlink:href="#DejaVuSans-Oblique-74" transform="translate(277.441406 0.015625)"/>
     <use xlink:href="#DejaVuSans-Oblique-79" transform="translate(316.650391 0.015625)"/>
     <use xlink:href="#DejaVuSans-Oblique-41" transform="translate(375.830078 0.015625)"/>
     <use xlink:href="#DejaVuSans-Oblique-6d" transform="translate(444.238281 0.015625)"/>
     <use xlink:href="#DejaVuSans-Oblique-6f" transform="translate(541.650391 0.015625)"/>
     <use xlink:href="#DejaVuSans-Oblique-75" transform="translate(602.832031 0.015625)"/>
     <use xlink:href="#DejaVuSans-Oblique-6e" transform="translate(666.210938 0.015625)"/>
     <use xlink:href="#DejaVuSans-Oblique-74" transform="translate(729.589844 0.015625)"/>
    </g>
   </g>
   <g id="legend_2">
    <g id="patch_44">
     <path d="M 317.78467 86.39345 
L 384.775295 86.39345 
Q 386.775295 86.39345 386.775295 84.39345 
L 386.775295 56.0372 
Q 386.775295 54.0372 384.775295 54.0372 
L 317.78467 54.0372 
Q 315.78467 54.0372 315.78467 56.0372 
L 315.78467 84.39345 
Q 315.78467 86.39345 317.78467 86.39345 
z
" style="fill: #ffffff; opacity: 0.8; stroke: #cccccc; stroke-linejoin: miter"/>
    </g>
    <g id="line2d_24">
     <path d="M 319.78467 62.135637 
L 329.78467 62.135637 
L 339.78467 62.135637 
" style="fill: none; stroke: #a53860; stroke-width: 4; stroke-linecap: square"/>
    </g>
    <g id="text_27">
     <!--  44640 -->
     <g transform="translate(347.78467 65.635637) scale(0.1 -0.1)">
      <use xlink:href="#DejaVuSans-20"/>
      <use xlink:href="#DejaVuSans-34" x="31.787109"/>
      <use xlink:href="#DejaVuSans-34" x="95.410156"/>
      <use xlink:href="#DejaVuSans-36" x="159.033203"/>
      <use xlink:href="#DejaVuSans-34" x="222.65625"/>
      <use xlink:href="#DejaVuSans-30" x="286.279297"/>
     </g>
    </g>
    <g id="line2d_25">
     <path d="M 319.78467 76.813762 
L 329.78467 76.813762 
L 339.78467 76.813762 
" style="fill: none; stroke: #4c3b4d; stroke-width: 4; stroke-linecap: square"/>
    </g>
    <g id="text_28">
     <!--  44652 -->
     <g transform="translate(347.78467 80.313762) scale(0.1 -0.1)">
      <use xlink:href="#DejaVuSans-20"/>
      <use xlink:href="#DejaVuSans-34" x="31.787109"/>
      <use xlink:href="#DejaVuSans-34" x="95.410156"/>
      <use xlink:href="#DejaVuSans-36" x="159.033203"/>
      <use xlink:href="#DejaVuSans-35" x="222.65625"/>
      <use xlink:href="#DejaVuSans-32" x="286.279297"/>
     </g>
    </g>
   </g>
  </g>
  <g id="axes_3">
   <g id="patch_45">
    <path d="M 561.067391 318.04 
L 801.866087 318.04 
L 801.866087 46.32 
L 561.067391 46.32 
z
" style="fill: #ffffff"/>
   </g>
   <g id="patch_46">
    <path d="M 547.689686 318.04 
L 574.445097 318.04 
L 574.445097 318.04 
L 547.689686 318.04 
z
" clip-path="url(#p0c1e3a670a)" style="fill: #cef9f2; opacity: 0.7; stroke: #000000; stroke-linejoin: miter"/>
   </g>
   <g id="patch_47">
    <path d="M 574.445097 318.04 
L 601.200507 318.04 
L 601.200507 318.04 
L 574.445097 318.04 
z
" clip-path="url(#p0c1e3a670a)" style="fill: #cef9f2; opacity: 0.7; stroke: #000000; stroke-linejoin: miter"/>
   </g>
   <g id="patch_48">
    <path d="M 601.200507 318.04 
L 627.955918 318.04 
L 627.955918 318.04 
L 601.200507 318.04 
z
" clip-path="url(#p0c1e3a670a)" style="fill: #cef9f2; opacity: 0.7; stroke: #000000; stroke-linejoin: miter"/>
   </g>
   <g id="patch_49">
    <path d="M 627.955918 318.04 
L 654.711329 318.04 
L 654.711329 318.04 
L 627.955918 318.04 
z
" clip-path="url(#p0c1e3a670a)" style="fill: #cef9f2; opacity: 0.7; stroke: #000000; stroke-linejoin: miter"/>
   </g>
   <g id="patch_50">
    <path d="M 654.711329 318.04 
L 681.466739 318.04 
L 681.466739 318.04 
L 654.711329 318.04 
z
" clip-path="url(#p0c1e3a670a)" style="fill: #cef9f2; opacity: 0.7; stroke: #000000; stroke-linejoin: miter"/>
   </g>
   <g id="patch_51">
    <path d="M 681.466739 318.04 
L 708.22215 318.04 
L 708.22215 318.04 
L 681.466739 318.04 
z
" clip-path="url(#p0c1e3a670a)" style="fill: #cef9f2; opacity: 0.7; stroke: #000000; stroke-linejoin: miter"/>
   </g>
   <g id="patch_52">
    <path d="M 708.22215 318.04 
L 734.97756 318.04 
L 734.97756 292.161905 
L 708.22215 292.161905 
z
" clip-path="url(#p0c1e3a670a)" style="fill: #cef9f2; opacity: 0.7; stroke: #000000; stroke-linejoin: miter"/>
   </g>
   <g id="patch_53">
    <path d="M 734.97756 318.04 
L 761.732971 318.04 
L 761.732971 318.04 
L 734.97756 318.04 
z
" clip-path="url(#p0c1e3a670a)" style="fill: #cef9f2; opacity: 0.7; stroke: #000000; stroke-linejoin: miter"/>
   </g>
   <g id="patch_54">
    <path d="M 761.732971 318.04 
L 788.488382 318.04 
L 788.488382 318.04 
L 761.732971 318.04 
z
" clip-path="url(#p0c1e3a670a)" style="fill: #cef9f2; opacity: 0.7; stroke: #000000; stroke-linejoin: miter"/>
   </g>
   <g id="patch_55">
    <path d="M 547.689686 318.04 
L 574.445097 318.04 
L 574.445097 318.04 
L 547.689686 318.04 
z
" clip-path="url(#p0c1e3a670a)" style="fill: #afc1d6; opacity: 0.7; stroke: #000000; stroke-linejoin: miter"/>
   </g>
   <g id="patch_56">
    <path d="M 574.445097 318.04 
L 601.200507 318.04 
L 601.200507 318.04 
L 574.445097 318.04 
z
" clip-path="url(#p0c1e3a670a)" style="fill: #afc1d6; opacity: 0.7; stroke: #000000; stroke-linejoin: miter"/>
   </g>
   <g id="patch_57">
    <path d="M 601.200507 318.04 
L 627.955918 318.04 
L 627.955918 318.04 
L 601.200507 318.04 
z
" clip-path="url(#p0c1e3a670a)" style="fill: #afc1d6; opacity: 0.7; stroke: #000000; stroke-linejoin: miter"/>
   </g>
   <g id="patch_58">
    <path d="M 627.955918 318.04 
L 654.711329 318.04 
L 654.711329 318.04 
L 627.955918 318.04 
z
" clip-path="url(#p0c1e3a670a)" style="fill: #afc1d6; opacity: 0.7; stroke: #000000; stroke-linejoin: miter"/>
   </g>
   <g id="patch_59">
    <path d="M 654.711329 318.04 
L 681.466739 318.04 
L 681.466739 318.04 
L 654.711329 318.04 
z
" clip-path="url(#p0c1e3a670a)" style="fill: #afc1d6; opacity: 0.7; stroke: #000000; stroke-linejoin: miter"/>
   </g>
   <g id="patch_60">
    <path d="M 681.466739 318.04 
L 708.22215 318.04 
L 708.22215 318.04 
L 681.466739 318.04 
z
" clip-path="url(#p0c1e3a670a)" style="fill: #afc1d6; opacity: 0.7; stroke: #000000; stroke-linejoin: miter"/>
   </g>
   <g id="patch_61">
    <path d="M 708.22215 292.161905 
L 734.97756 292.161905 
L 734.97756 59.259048 
L 708.22215 59.259048 
z
" clip-path="url(#p0c1e3a670a)" style="fill: #afc1d6; opacity: 0.7; stroke: #000000; stroke-linejoin: miter"/>
   </g>
   <g id="patch_62">
    <path d="M 734.97756 318.04 
L 761.732971 318.04 
L 761.732971 318.04 
L 734.97756 318.04 
z
" clip-path="url(#p0c1e3a670a)" style="fill: #afc1d6; opacity: 0.7; stroke: #000000; stroke-linejoin: miter"/>
   </g>
   <g id="patch_63">
    <path d="M 761.732971 318.04 
L 788.488382 318.04 
L 788.488382 318.04 
L 761.732971 318.04 
z
" clip-path="url(#p0c1e3a670a)" style="fill: #afc1d6; opacity: 0.7; stroke: #000000; stroke-linejoin: miter"/>
   </g>
   <g id="matplotlib.axis_5">
    <g id="xtick_11">
     <g id="line2d_26">
      <g>
       <use xlink:href="#m178d859733" x="577.312929" y="318.04" style="stroke: #000000; stroke-width: 0.8"/>
      </g>
     </g>
     <g id="text_29">
      <!-- 30000 -->
      <g transform="translate(561.406679 332.638438) scale(0.1 -0.1)">
       <use xlink:href="#DejaVuSans-33"/>
       <use xlink:href="#DejaVuSans-30" x="63.623047"/>
       <use xlink:href="#DejaVuSans-30" x="127.246094"/>
       <use xlink:href="#DejaVuSans-30" x="190.869141"/>
       <use xlink:href="#DejaVuSans-30" x="254.492188"/>
      </g>
     </g>
    </g>
    <g id="xtick_12">
     <g id="line2d_27">
      <g>
       <use xlink:href="#m178d859733" x="623.835088" y="318.04" style="stroke: #000000; stroke-width: 0.8"/>
      </g>
     </g>
     <g id="text_30">
      <!-- 35000 -->
      <g transform="translate(607.928838 332.638438) scale(0.1 -0.1)">
       <use xlink:href="#DejaVuSans-33"/>
       <use xlink:href="#DejaVuSans-35" x="63.623047"/>
       <use xlink:href="#DejaVuSans-30" x="127.246094"/>
       <use xlink:href="#DejaVuSans-30" x="190.869141"/>
       <use xlink:href="#DejaVuSans-30" x="254.492188"/>
      </g>
     </g>
    </g>
    <g id="xtick_13">
     <g id="line2d_28">
      <g>
       <use xlink:href="#m178d859733" x="670.357248" y="318.04" style="stroke: #000000; stroke-width: 0.8"/>
      </g>
     </g>
     <g id="text_31">
      <!-- 40000 -->
      <g transform="translate(654.450998 332.638438) scale(0.1 -0.1)">
       <use xlink:href="#DejaVuSans-34"/>
       <use xlink:href="#DejaVuSans-30" x="63.623047"/>
       <use xlink:href="#DejaVuSans-30" x="127.246094"/>
       <use xlink:href="#DejaVuSans-30" x="190.869141"/>
       <use xlink:href="#DejaVuSans-30" x="254.492188"/>
      </g>
     </g>
    </g>
    <g id="xtick_14">
     <g id="line2d_29">
      <g>
       <use xlink:href="#m178d859733" x="716.879407" y="318.04" style="stroke: #000000; stroke-width: 0.8"/>
      </g>
     </g>
     <g id="text_32">
      <!-- 45000 -->
      <g transform="translate(700.973157 332.638438) scale(0.1 -0.1)">
       <use xlink:href="#DejaVuSans-34"/>
       <use xlink:href="#DejaVuSans-35" x="63.623047"/>
       <use xlink:href="#DejaVuSans-30" x="127.246094"/>
       <use xlink:href="#DejaVuSans-30" x="190.869141"/>
       <use xlink:href="#DejaVuSans-30" x="254.492188"/>
      </g>
     </g>
    </g>
    <g id="xtick_15">
     <g id="line2d_30">
      <g>
       <use xlink:href="#m178d859733" x="763.401566" y="318.04" style="stroke: #000000; stroke-width: 0.8"/>
      </g>
     </g>
     <g id="text_33">
      <!-- 50000 -->
      <g transform="translate(747.495316 332.638438) scale(0.1 -0.1)">
       <use xlink:href="#DejaVuSans-35"/>
       <use xlink:href="#DejaVuSans-30" x="63.623047"/>
       <use xlink:href="#DejaVuSans-30" x="127.246094"/>
       <use xlink:href="#DejaVuSans-30" x="190.869141"/>
       <use xlink:href="#DejaVuSans-30" x="254.492188"/>
      </g>
     </g>
    </g>
    <g id="text_34">
     <!-- Gas Used -->
     <g transform="translate(657.819864 346.316563) scale(0.1 -0.1)">
      <use xlink:href="#DejaVuSans-47"/>
      <use xlink:href="#DejaVuSans-61" x="77.490234"/>
      <use xlink:href="#DejaVuSans-73" x="138.769531"/>
      <use xlink:href="#DejaVuSans-20" x="190.869141"/>
      <use xlink:href="#DejaVuSans-55" x="222.65625"/>
      <use xlink:href="#DejaVuSans-73" x="295.849609"/>
      <use xlink:href="#DejaVuSans-65" x="347.949219"/>
      <use xlink:href="#DejaVuSans-64" x="409.472656"/>
     </g>
    </g>
   </g>
   <g id="matplotlib.axis_6">
    <g id="ytick_13">
     <g id="line2d_31">
      <g>
       <use xlink:href="#mba078fc00a" x="561.067391" y="318.04" style="stroke: #000000; stroke-width: 0.8"/>
      </g>
     </g>
    </g>
    <g id="ytick_14">
     <g id="line2d_32">
      <g>
       <use xlink:href="#mba078fc00a" x="561.067391" y="266.28381" style="stroke: #000000; stroke-width: 0.8"/>
      </g>
     </g>
    </g>
    <g id="ytick_15">
     <g id="line2d_33">
      <g>
       <use xlink:href="#mba078fc00a" x="561.067391" y="214.527619" style="stroke: #000000; stroke-width: 0.8"/>
      </g>
     </g>
    </g>
    <g id="ytick_16">
     <g id="line2d_34">
      <g>
       <use xlink:href="#mba078fc00a" x="561.067391" y="162.771429" style="stroke: #000000; stroke-width: 0.8"/>
      </g>
     </g>
    </g>
    <g id="ytick_17">
     <g id="line2d_35">
      <g>
       <use xlink:href="#mba078fc00a" x="561.067391" y="111.015238" style="stroke: #000000; stroke-width: 0.8"/>
      </g>
     </g>
    </g>
    <g id="ytick_18">
     <g id="line2d_36">
      <g>
       <use xlink:href="#mba078fc00a" x="561.067391" y="59.259048" style="stroke: #000000; stroke-width: 0.8"/>
      </g>
     </g>
    </g>
   </g>
   <g id="patch_64">
    <path d="M 561.067391 318.04 
L 561.067391 46.32 
" style="fill: none; stroke: #000000; stroke-width: 0.8; stroke-linejoin: miter; stroke-linecap: square"/>
   </g>
   <g id="patch_65">
    <path d="M 801.866087 318.04 
L 801.866087 46.32 
" style="fill: none; stroke: #000000; stroke-width: 0.8; stroke-linejoin: miter; stroke-linecap: square"/>
   </g>
   <g id="patch_66">
    <path d="M 561.067391 318.04 
L 801.866087 318.04 
" style="fill: none; stroke: #000000; stroke-width: 0.8; stroke-linejoin: miter; stroke-linecap: square"/>
   </g>
   <g id="patch_67">
    <path d="M 561.067391 46.32 
L 801.866087 46.32 
" style="fill: none; stroke: #000000; stroke-width: 0.8; stroke-linejoin: miter; stroke-linecap: square"/>
   </g>
   <g id="text_35">
    <g id="patch_68">
     <path d="M 571.643235 109.04495 
L 608.283235 109.04495 
L 608.283235 93.30245 
L 571.643235 93.30245 
z
" style="fill: #ffffff; opacity: 0.2; stroke: #000000; stroke-linejoin: miter"/>
    </g>
    <!-- $P_n = 50$ -->
    <g transform="translate(575.643235 103.3812) scale(0.08 -0.08)">
     <use xlink:href="#DejaVuSans-Oblique-50" transform="translate(0 0.78125)"/>
     <use xlink:href="#DejaVuSans-Oblique-6e" transform="translate(60.302734 -15.625) scale(0.7)"/>
     <use xlink:href="#DejaVuSans-3d" transform="translate(126.884766 0.78125)"/>
     <use xlink:href="#DejaVuSans-35" transform="translate(230.15625 0.78125)"/>
     <use xlink:href="#DejaVuSans-30" transform="translate(293.779297 0.78125)"/>
    </g>
   </g>
   <g id="text_36">
    <g id="patch_69">
     <path d="M 570.171157 130.78255 
L 638.651157 130.78255 
L 638.651157 115.04005 
L 570.171157 115.04005 
z
" style="fill: #ffffff; opacity: 0.2; stroke: #000000; stroke-linejoin: miter"/>
    </g>
    <!-- $maxBreach = 3$ -->
    <g transform="translate(574.171157 125.1188) scale(0.08 -0.08)">
     <use xlink:href="#DejaVuSans-Oblique-6d" transform="translate(0 0.015625)"/>
     <use xlink:href="#DejaVuSans-Oblique-61" transform="translate(97.412109 0.015625)"/>
     <use xlink:href="#DejaVuSans-Oblique-78" transform="translate(158.691406 0.015625)"/>
     <use xlink:href="#DejaVuSans-Oblique-42" transform="translate(217.871094 0.015625)"/>
     <use xlink:href="#DejaVuSans-Oblique-72" transform="translate(286.474609 0.015625)"/>
     <use xlink:href="#DejaVuSans-Oblique-65" transform="translate(327.587891 0.015625)"/>
     <use xlink:href="#DejaVuSans-Oblique-61" transform="translate(389.111328 0.015625)"/>
     <use xlink:href="#DejaVuSans-Oblique-63" transform="translate(450.390625 0.015625)"/>
     <use xlink:href="#DejaVuSans-Oblique-68" transform="translate(505.371094 0.015625)"/>
     <use xlink:href="#DejaVuSans-3d" transform="translate(588.232422 0.015625)"/>
     <use xlink:href="#DejaVuSans-33" transform="translate(691.503906 0.015625)"/>
    </g>
   </g>
   <g id="text_37">
    <!-- $calculateFinalBill$ -->
    <g transform="translate(630.946739 40.32) scale(0.12 -0.12)">
     <defs>
      <path id="DejaVuSans-Oblique-46" d="M 1081 4666 
L 3756 4666 
L 3653 4134 
L 1606 4134 
L 1338 2759 
L 3188 2759 
L 3084 2228 
L 1234 2228 
L 800 0 
L 172 0 
L 1081 4666 
z
" transform="scale(0.015625)"/>
      <path id="DejaVuSans-Oblique-69" d="M 1172 4863 
L 1747 4863 
L 1606 4134 
L 1031 4134 
L 1172 4863 
z
M 909 3500 
L 1484 3500 
L 800 0 
L 225 0 
L 909 3500 
z
" transform="scale(0.015625)"/>
     </defs>
     <use xlink:href="#DejaVuSans-Oblique-63" transform="translate(0 0.015625)"/>
     <use xlink:href="#DejaVuSans-Oblique-61" transform="translate(54.980469 0.015625)"/>
     <use xlink:href="#DejaVuSans-Oblique-6c" transform="translate(116.259766 0.015625)"/>
     <use xlink:href="#DejaVuSans-Oblique-63" transform="translate(144.042969 0.015625)"/>
     <use xlink:href="#DejaVuSans-Oblique-75" transform="translate(199.023438 0.015625)"/>
     <use xlink:href="#DejaVuSans-Oblique-6c" transform="translate(262.402344 0.015625)"/>
     <use xlink:href="#DejaVuSans-Oblique-61" transform="translate(290.185547 0.015625)"/>
     <use xlink:href="#DejaVuSans-Oblique-74" transform="translate(351.464844 0.015625)"/>
     <use xlink:href="#DejaVuSans-Oblique-65" transform="translate(390.673828 0.015625)"/>
     <use xlink:href="#DejaVuSans-Oblique-46" transform="translate(452.197266 0.015625)"/>
     <use xlink:href="#DejaVuSans-Oblique-69" transform="translate(509.716797 0.015625)"/>
     <use xlink:href="#DejaVuSans-Oblique-6e" transform="translate(537.5 0.015625)"/>
     <use xlink:href="#DejaVuSans-Oblique-61" transform="translate(600.878906 0.015625)"/>
     <use xlink:href="#DejaVuSans-Oblique-6c" transform="translate(662.158203 0.015625)"/>
     <use xlink:href="#DejaVuSans-Oblique-42" transform="translate(689.941406 0.015625)"/>
     <use xlink:href="#DejaVuSans-Oblique-69" transform="translate(758.544922 0.015625)"/>
     <use xlink:href="#DejaVuSans-Oblique-6c" transform="translate(786.328125 0.015625)"/>
     <use xlink:href="#DejaVuSans-Oblique-6c" transform="translate(814.111328 0.015625)"/>
    </g>
   </g>
   <g id="legend_3">
    <g id="patch_70">
     <path d="M 572.883365 86.39345 
L 639.87399 86.39345 
Q 641.87399 86.39345 641.87399 84.39345 
L 641.87399 56.0372 
Q 641.87399 54.0372 639.87399 54.0372 
L 572.883365 54.0372 
Q 570.883365 54.0372 570.883365 56.0372 
L 570.883365 84.39345 
Q 570.883365 86.39345 572.883365 86.39345 
z
" style="fill: #ffffff; opacity: 0.8; stroke: #cccccc; stroke-linejoin: miter"/>
    </g>
    <g id="line2d_37">
     <path d="M 574.883365 62.135637 
L 584.883365 62.135637 
L 594.883365 62.135637 
" style="fill: none; stroke: #cef9f2; stroke-width: 4; stroke-linecap: square"/>
    </g>
    <g id="text_38">
     <!--  46515 -->
     <g transform="translate(602.883365 65.635637) scale(0.1 -0.1)">
      <use xlink:href="#DejaVuSans-20"/>
      <use xlink:href="#DejaVuSans-34" x="31.787109"/>
      <use xlink:href="#DejaVuSans-36" x="95.410156"/>
      <use xlink:href="#DejaVuSans-35" x="159.033203"/>
      <use xlink:href="#DejaVuSans-31" x="222.65625"/>
      <use xlink:href="#DejaVuSans-35" x="286.279297"/>
     </g>
    </g>
    <g id="line2d_38">
     <path d="M 574.883365 76.813762 
L 584.883365 76.813762 
L 594.883365 76.813762 
" style="fill: none; stroke: #afc1d6; stroke-width: 4; stroke-linecap: square"/>
    </g>
    <g id="text_39">
     <!--  46527 -->
     <g transform="translate(602.883365 80.313762) scale(0.1 -0.1)">
      <defs>
       <path id="DejaVuSans-37" d="M 525 4666 
L 3525 4666 
L 3525 4397 
L 1831 0 
L 1172 0 
L 2766 4134 
L 525 4134 
L 525 4666 
z
" transform="scale(0.015625)"/>
      </defs>
      <use xlink:href="#DejaVuSans-20"/>
      <use xlink:href="#DejaVuSans-34" x="31.787109"/>
      <use xlink:href="#DejaVuSans-36" x="95.410156"/>
      <use xlink:href="#DejaVuSans-35" x="159.033203"/>
      <use xlink:href="#DejaVuSans-32" x="222.65625"/>
      <use xlink:href="#DejaVuSans-37" x="286.279297"/>
     </g>
    </g>
   </g>
  </g>
  <g id="axes_4">
   <g id="patch_71">
    <path d="M 816.166087 318.04 
L 1056.964783 318.04 
L 1056.964783 46.32 
L 816.166087 46.32 
z
" style="fill: #ffffff"/>
   </g>
   <g id="patch_72">
    <path d="M 802.788382 318.04 
L 829.543792 318.04 
L 829.543792 318.04 
L 802.788382 318.04 
z
" clip-path="url(#pdcdf583775)" style="fill: #dbb68f; opacity: 0.7; stroke: #000000; stroke-linejoin: miter"/>
   </g>
   <g id="patch_73">
    <path d="M 829.543792 318.04 
L 856.299203 318.04 
L 856.299203 292.161905 
L 829.543792 292.161905 
z
" clip-path="url(#pdcdf583775)" style="fill: #dbb68f; opacity: 0.7; stroke: #000000; stroke-linejoin: miter"/>
   </g>
   <g id="patch_74">
    <path d="M 856.299203 318.04 
L 883.054614 318.04 
L 883.054614 318.04 
L 856.299203 318.04 
z
" clip-path="url(#pdcdf583775)" style="fill: #dbb68f; opacity: 0.7; stroke: #000000; stroke-linejoin: miter"/>
   </g>
   <g id="patch_75">
    <path d="M 883.054614 318.04 
L 909.810024 318.04 
L 909.810024 318.04 
L 883.054614 318.04 
z
" clip-path="url(#pdcdf583775)" style="fill: #dbb68f; opacity: 0.7; stroke: #000000; stroke-linejoin: miter"/>
   </g>
   <g id="patch_76">
    <path d="M 909.810024 318.04 
L 936.565435 318.04 
L 936.565435 318.04 
L 909.810024 318.04 
z
" clip-path="url(#pdcdf583775)" style="fill: #dbb68f; opacity: 0.7; stroke: #000000; stroke-linejoin: miter"/>
   </g>
   <g id="patch_77">
    <path d="M 936.565435 318.04 
L 963.320845 318.04 
L 963.320845 318.04 
L 936.565435 318.04 
z
" clip-path="url(#pdcdf583775)" style="fill: #dbb68f; opacity: 0.7; stroke: #000000; stroke-linejoin: miter"/>
   </g>
   <g id="patch_78">
    <path d="M 963.320845 318.04 
L 990.076256 318.04 
L 990.076256 318.04 
L 963.320845 318.04 
z
" clip-path="url(#pdcdf583775)" style="fill: #dbb68f; opacity: 0.7; stroke: #000000; stroke-linejoin: miter"/>
   </g>
   <g id="patch_79">
    <path d="M 990.076256 318.04 
L 1016.831667 318.04 
L 1016.831667 318.04 
L 990.076256 318.04 
z
" clip-path="url(#pdcdf583775)" style="fill: #dbb68f; opacity: 0.7; stroke: #000000; stroke-linejoin: miter"/>
   </g>
   <g id="patch_80">
    <path d="M 1016.831667 318.04 
L 1043.587077 318.04 
L 1043.587077 318.04 
L 1016.831667 318.04 
z
" clip-path="url(#pdcdf583775)" style="fill: #dbb68f; opacity: 0.7; stroke: #000000; stroke-linejoin: miter"/>
   </g>
   <g id="patch_81">
    <path d="M 802.788382 318.04 
L 829.543792 318.04 
L 829.543792 318.04 
L 802.788382 318.04 
z
" clip-path="url(#pdcdf583775)" style="fill: #0ca4a5; opacity: 0.7; stroke: #000000; stroke-linejoin: miter"/>
   </g>
   <g id="patch_82">
    <path d="M 829.543792 292.161905 
L 856.299203 292.161905 
L 856.299203 59.259048 
L 829.543792 59.259048 
z
" clip-path="url(#pdcdf583775)" style="fill: #0ca4a5; opacity: 0.7; stroke: #000000; stroke-linejoin: miter"/>
   </g>
   <g id="patch_83">
    <path d="M 856.299203 318.04 
L 883.054614 318.04 
L 883.054614 318.04 
L 856.299203 318.04 
z
" clip-path="url(#pdcdf583775)" style="fill: #0ca4a5; opacity: 0.7; stroke: #000000; stroke-linejoin: miter"/>
   </g>
   <g id="patch_84">
    <path d="M 883.054614 318.04 
L 909.810024 318.04 
L 909.810024 318.04 
L 883.054614 318.04 
z
" clip-path="url(#pdcdf583775)" style="fill: #0ca4a5; opacity: 0.7; stroke: #000000; stroke-linejoin: miter"/>
   </g>
   <g id="patch_85">
    <path d="M 909.810024 318.04 
L 936.565435 318.04 
L 936.565435 318.04 
L 909.810024 318.04 
z
" clip-path="url(#pdcdf583775)" style="fill: #0ca4a5; opacity: 0.7; stroke: #000000; stroke-linejoin: miter"/>
   </g>
   <g id="patch_86">
    <path d="M 936.565435 318.04 
L 963.320845 318.04 
L 963.320845 318.04 
L 936.565435 318.04 
z
" clip-path="url(#pdcdf583775)" style="fill: #0ca4a5; opacity: 0.7; stroke: #000000; stroke-linejoin: miter"/>
   </g>
   <g id="patch_87">
    <path d="M 963.320845 318.04 
L 990.076256 318.04 
L 990.076256 318.04 
L 963.320845 318.04 
z
" clip-path="url(#pdcdf583775)" style="fill: #0ca4a5; opacity: 0.7; stroke: #000000; stroke-linejoin: miter"/>
   </g>
   <g id="patch_88">
    <path d="M 990.076256 318.04 
L 1016.831667 318.04 
L 1016.831667 318.04 
L 990.076256 318.04 
z
" clip-path="url(#pdcdf583775)" style="fill: #0ca4a5; opacity: 0.7; stroke: #000000; stroke-linejoin: miter"/>
   </g>
   <g id="patch_89">
    <path d="M 1016.831667 318.04 
L 1043.587077 318.04 
L 1043.587077 318.04 
L 1016.831667 318.04 
z
" clip-path="url(#pdcdf583775)" style="fill: #0ca4a5; opacity: 0.7; stroke: #000000; stroke-linejoin: miter"/>
   </g>
   <g id="matplotlib.axis_7">
    <g id="xtick_16">
     <g id="line2d_39">
      <g>
       <use xlink:href="#m178d859733" x="832.411625" y="318.04" style="stroke: #000000; stroke-width: 0.8"/>
      </g>
     </g>
     <g id="text_40">
      <!-- 30000 -->
      <g transform="translate(816.505375 332.638438) scale(0.1 -0.1)">
       <use xlink:href="#DejaVuSans-33"/>
       <use xlink:href="#DejaVuSans-30" x="63.623047"/>
       <use xlink:href="#DejaVuSans-30" x="127.246094"/>
       <use xlink:href="#DejaVuSans-30" x="190.869141"/>
       <use xlink:href="#DejaVuSans-30" x="254.492188"/>
      </g>
     </g>
    </g>
    <g id="xtick_17">
     <g id="line2d_40">
      <g>
       <use xlink:href="#m178d859733" x="878.933784" y="318.04" style="stroke: #000000; stroke-width: 0.8"/>
      </g>
     </g>
     <g id="text_41">
      <!-- 35000 -->
      <g transform="translate(863.027534 332.638438) scale(0.1 -0.1)">
       <use xlink:href="#DejaVuSans-33"/>
       <use xlink:href="#DejaVuSans-35" x="63.623047"/>
       <use xlink:href="#DejaVuSans-30" x="127.246094"/>
       <use xlink:href="#DejaVuSans-30" x="190.869141"/>
       <use xlink:href="#DejaVuSans-30" x="254.492188"/>
      </g>
     </g>
    </g>
    <g id="xtick_18">
     <g id="line2d_41">
      <g>
       <use xlink:href="#m178d859733" x="925.455943" y="318.04" style="stroke: #000000; stroke-width: 0.8"/>
      </g>
     </g>
     <g id="text_42">
      <!-- 40000 -->
      <g transform="translate(909.549693 332.638438) scale(0.1 -0.1)">
       <use xlink:href="#DejaVuSans-34"/>
       <use xlink:href="#DejaVuSans-30" x="63.623047"/>
       <use xlink:href="#DejaVuSans-30" x="127.246094"/>
       <use xlink:href="#DejaVuSans-30" x="190.869141"/>
       <use xlink:href="#DejaVuSans-30" x="254.492188"/>
      </g>
     </g>
    </g>
    <g id="xtick_19">
     <g id="line2d_42">
      <g>
       <use xlink:href="#m178d859733" x="971.978102" y="318.04" style="stroke: #000000; stroke-width: 0.8"/>
      </g>
     </g>
     <g id="text_43">
      <!-- 45000 -->
      <g transform="translate(956.071852 332.638438) scale(0.1 -0.1)">
       <use xlink:href="#DejaVuSans-34"/>
       <use xlink:href="#DejaVuSans-35" x="63.623047"/>
       <use xlink:href="#DejaVuSans-30" x="127.246094"/>
       <use xlink:href="#DejaVuSans-30" x="190.869141"/>
       <use xlink:href="#DejaVuSans-30" x="254.492188"/>
      </g>
     </g>
    </g>
    <g id="xtick_20">
     <g id="line2d_43">
      <g>
       <use xlink:href="#m178d859733" x="1018.500261" y="318.04" style="stroke: #000000; stroke-width: 0.8"/>
      </g>
     </g>
     <g id="text_44">
      <!-- 50000 -->
      <g transform="translate(1002.594011 332.638438) scale(0.1 -0.1)">
       <use xlink:href="#DejaVuSans-35"/>
       <use xlink:href="#DejaVuSans-30" x="63.623047"/>
       <use xlink:href="#DejaVuSans-30" x="127.246094"/>
       <use xlink:href="#DejaVuSans-30" x="190.869141"/>
       <use xlink:href="#DejaVuSans-30" x="254.492188"/>
      </g>
     </g>
    </g>
    <g id="text_45">
     <!-- Gas Used -->
     <g transform="translate(912.91856 346.316563) scale(0.1 -0.1)">
      <use xlink:href="#DejaVuSans-47"/>
      <use xlink:href="#DejaVuSans-61" x="77.490234"/>
      <use xlink:href="#DejaVuSans-73" x="138.769531"/>
      <use xlink:href="#DejaVuSans-20" x="190.869141"/>
      <use xlink:href="#DejaVuSans-55" x="222.65625"/>
      <use xlink:href="#DejaVuSans-73" x="295.849609"/>
      <use xlink:href="#DejaVuSans-65" x="347.949219"/>
      <use xlink:href="#DejaVuSans-64" x="409.472656"/>
     </g>
    </g>
   </g>
   <g id="matplotlib.axis_8">
    <g id="ytick_19">
     <g id="line2d_44">
      <g>
       <use xlink:href="#mba078fc00a" x="816.166087" y="318.04" style="stroke: #000000; stroke-width: 0.8"/>
      </g>
     </g>
    </g>
    <g id="ytick_20">
     <g id="line2d_45">
      <g>
       <use xlink:href="#mba078fc00a" x="816.166087" y="266.28381" style="stroke: #000000; stroke-width: 0.8"/>
      </g>
     </g>
    </g>
    <g id="ytick_21">
     <g id="line2d_46">
      <g>
       <use xlink:href="#mba078fc00a" x="816.166087" y="214.527619" style="stroke: #000000; stroke-width: 0.8"/>
      </g>
     </g>
    </g>
    <g id="ytick_22">
     <g id="line2d_47">
      <g>
       <use xlink:href="#mba078fc00a" x="816.166087" y="162.771429" style="stroke: #000000; stroke-width: 0.8"/>
      </g>
     </g>
    </g>
    <g id="ytick_23">
     <g id="line2d_48">
      <g>
       <use xlink:href="#mba078fc00a" x="816.166087" y="111.015238" style="stroke: #000000; stroke-width: 0.8"/>
      </g>
     </g>
    </g>
    <g id="ytick_24">
     <g id="line2d_49">
      <g>
       <use xlink:href="#mba078fc00a" x="816.166087" y="59.259048" style="stroke: #000000; stroke-width: 0.8"/>
      </g>
     </g>
    </g>
   </g>
   <g id="patch_90">
    <path d="M 816.166087 318.04 
L 816.166087 46.32 
" style="fill: none; stroke: #000000; stroke-width: 0.8; stroke-linejoin: miter; stroke-linecap: square"/>
   </g>
   <g id="patch_91">
    <path d="M 1056.964783 318.04 
L 1056.964783 46.32 
" style="fill: none; stroke: #000000; stroke-width: 0.8; stroke-linejoin: miter; stroke-linecap: square"/>
   </g>
   <g id="patch_92">
    <path d="M 816.166087 318.04 
L 1056.964783 318.04 
" style="fill: none; stroke: #000000; stroke-width: 0.8; stroke-linejoin: miter; stroke-linecap: square"/>
   </g>
   <g id="patch_93">
    <path d="M 816.166087 46.32 
L 1056.964783 46.32 
" style="fill: none; stroke: #000000; stroke-width: 0.8; stroke-linejoin: miter; stroke-linecap: square"/>
   </g>
   <g id="text_46">
    <g id="patch_94">
     <path d="M 1009.388939 109.04495 
L 1046.748939 109.04495 
L 1046.748939 93.30245 
L 1009.388939 93.30245 
z
" style="fill: #ffffff; opacity: 0.2; stroke: #000000; stroke-linejoin: miter"/>
    </g>
    <!-- $C_n = 50$ -->
    <g transform="translate(1013.388939 103.3812) scale(0.08 -0.08)">
     <defs>
      <path id="DejaVuSans-Oblique-43" d="M 4447 4306 
L 4319 3641 
Q 4019 3944 3683 4091 
Q 3347 4238 2956 4238 
Q 2422 4238 2017 3981 
Q 1613 3725 1319 3200 
Q 1131 2863 1032 2486 
Q 934 2109 934 1728 
Q 934 1091 1264 756 
Q 1594 422 2222 422 
Q 2656 422 3056 561 
Q 3456 700 3834 978 
L 3688 231 
Q 3316 72 2936 -9 
Q 2556 -91 2175 -91 
Q 1278 -91 773 396 
Q 269 884 269 1753 
Q 269 2309 461 2846 
Q 653 3384 1013 3828 
Q 1394 4300 1883 4525 
Q 2372 4750 3022 4750 
Q 3422 4750 3780 4639 
Q 4138 4528 4447 4306 
z
" transform="scale(0.015625)"/>
     </defs>
     <use xlink:href="#DejaVuSans-Oblique-43" transform="translate(0 0.78125)"/>
     <use xlink:href="#DejaVuSans-Oblique-6e" transform="translate(69.824219 -15.625) scale(0.7)"/>
     <use xlink:href="#DejaVuSans-3d" transform="translate(136.40625 0.78125)"/>
     <use xlink:href="#DejaVuSans-35" transform="translate(239.677734 0.78125)"/>
     <use xlink:href="#DejaVuSans-30" transform="translate(303.300781 0.78125)"/>
    </g>
   </g>
   <g id="text_47">
    <g id="patch_95">
     <path d="M 979.381017 130.78255 
L 1047.861017 130.78255 
L 1047.861017 115.04005 
L 979.381017 115.04005 
z
" style="fill: #ffffff; opacity: 0.2; stroke: #000000; stroke-linejoin: miter"/>
    </g>
    <!-- $maxBreach = 3$ -->
    <g transform="translate(983.381017 125.1188) scale(0.08 -0.08)">
     <use xlink:href="#DejaVuSans-Oblique-6d" transform="translate(0 0.015625)"/>
     <use xlink:href="#DejaVuSans-Oblique-61" transform="translate(97.412109 0.015625)"/>
     <use xlink:href="#DejaVuSans-Oblique-78" transform="translate(158.691406 0.015625)"/>
     <use xlink:href="#DejaVuSans-Oblique-42" transform="translate(217.871094 0.015625)"/>
     <use xlink:href="#DejaVuSans-Oblique-72" transform="translate(286.474609 0.015625)"/>
     <use xlink:href="#DejaVuSans-Oblique-65" transform="translate(327.587891 0.015625)"/>
     <use xlink:href="#DejaVuSans-Oblique-61" transform="translate(389.111328 0.015625)"/>
     <use xlink:href="#DejaVuSans-Oblique-63" transform="translate(450.390625 0.015625)"/>
     <use xlink:href="#DejaVuSans-Oblique-68" transform="translate(505.371094 0.015625)"/>
     <use xlink:href="#DejaVuSans-3d" transform="translate(588.232422 0.015625)"/>
     <use xlink:href="#DejaVuSans-33" transform="translate(691.503906 0.015625)"/>
    </g>
   </g>
   <g id="text_48">
    <!-- $transferFunds$ -->
    <g transform="translate(894.865435 40.32) scale(0.12 -0.12)">
     <defs>
      <path id="DejaVuSans-Oblique-73" d="M 3200 3397 
L 3091 2853 
Q 2863 2978 2609 3040 
Q 2356 3103 2088 3103 
Q 1634 3103 1373 2948 
Q 1113 2794 1113 2528 
Q 1113 2219 1719 2053 
Q 1766 2041 1788 2034 
L 1972 1978 
Q 2547 1819 2739 1644 
Q 2931 1469 2931 1166 
Q 2931 609 2489 259 
Q 2047 -91 1331 -91 
Q 1053 -91 747 -37 
Q 441 16 72 128 
L 184 722 
Q 500 559 806 475 
Q 1113 391 1394 391 
Q 1816 391 2080 572 
Q 2344 753 2344 1031 
Q 2344 1331 1650 1516 
L 1591 1531 
L 1394 1581 
Q 956 1697 753 1886 
Q 550 2075 550 2369 
Q 550 2928 970 3256 
Q 1391 3584 2113 3584 
Q 2397 3584 2667 3537 
Q 2938 3491 3200 3397 
z
" transform="scale(0.015625)"/>
      <path id="DejaVuSans-Oblique-66" d="M 3059 4863 
L 2969 4384 
L 2419 4384 
Q 2106 4384 1964 4261 
Q 1822 4138 1753 3809 
L 1691 3500 
L 2638 3500 
L 2553 3053 
L 1606 3053 
L 1013 0 
L 434 0 
L 1031 3053 
L 481 3053 
L 563 3500 
L 1113 3500 
L 1159 3744 
Q 1278 4363 1576 4613 
Q 1875 4863 2516 4863 
L 3059 4863 
z
" transform="scale(0.015625)"/>
      <path id="DejaVuSans-Oblique-64" d="M 2675 525 
Q 2444 222 2128 65 
Q 1813 -91 1428 -91 
Q 903 -91 598 267 
Q 294 625 294 1247 
Q 294 1766 478 2236 
Q 663 2706 1013 3078 
Q 1244 3325 1534 3454 
Q 1825 3584 2144 3584 
Q 2481 3584 2739 3421 
Q 2997 3259 3138 2956 
L 3513 4863 
L 4091 4863 
L 3144 0 
L 2566 0 
L 2675 525 
z
M 891 1350 
Q 891 897 1095 644 
Q 1300 391 1663 391 
Q 1931 391 2161 520 
Q 2391 650 2566 903 
Q 2750 1166 2856 1509 
Q 2963 1853 2963 2188 
Q 2963 2622 2758 2865 
Q 2553 3109 2194 3109 
Q 1922 3109 1687 2981 
Q 1453 2853 1288 2613 
Q 1106 2353 998 2009 
Q 891 1666 891 1350 
z
" transform="scale(0.015625)"/>
     </defs>
     <use xlink:href="#DejaVuSans-Oblique-74" transform="translate(0 0.015625)"/>
     <use xlink:href="#DejaVuSans-Oblique-72" transform="translate(39.208984 0.015625)"/>
     <use xlink:href="#DejaVuSans-Oblique-61" transform="translate(80.322266 0.015625)"/>
     <use xlink:href="#DejaVuSans-Oblique-6e" transform="translate(141.601562 0.015625)"/>
     <use xlink:href="#DejaVuSans-Oblique-73" transform="translate(204.980469 0.015625)"/>
     <use xlink:href="#DejaVuSans-Oblique-66" transform="translate(257.080078 0.015625)"/>
     <use xlink:href="#DejaVuSans-Oblique-65" transform="translate(292.285156 0.015625)"/>
     <use xlink:href="#DejaVuSans-Oblique-72" transform="translate(353.808594 0.015625)"/>
     <use xlink:href="#DejaVuSans-Oblique-46" transform="translate(394.921875 0.015625)"/>
     <use xlink:href="#DejaVuSans-Oblique-75" transform="translate(452.441406 0.015625)"/>
     <use xlink:href="#DejaVuSans-Oblique-6e" transform="translate(515.820312 0.015625)"/>
     <use xlink:href="#DejaVuSans-Oblique-64" transform="translate(579.199219 0.015625)"/>
     <use xlink:href="#DejaVuSans-Oblique-73" transform="translate(642.675781 0.015625)"/>
    </g>
   </g>
   <g id="legend_4">
    <g id="patch_96">
     <path d="M 979.685239 86.39345 
L 1046.675864 86.39345 
Q 1048.675864 86.39345 1048.675864 84.39345 
L 1048.675864 56.0372 
Q 1048.675864 54.0372 1046.675864 54.0372 
L 979.685239 54.0372 
Q 977.685239 54.0372 977.685239 56.0372 
L 977.685239 84.39345 
Q 977.685239 86.39345 979.685239 86.39345 
z
" style="fill: #ffffff; opacity: 0.8; stroke: #cccccc; stroke-linejoin: miter"/>
    </g>
    <g id="line2d_50">
     <path d="M 981.685239 62.135637 
L 991.685239 62.135637 
L 1001.685239 62.135637 
" style="fill: none; stroke: #dbb68f; stroke-width: 4; stroke-linecap: square"/>
    </g>
    <g id="text_49">
     <!--  31254 -->
     <g transform="translate(1009.685239 65.635637) scale(0.1 -0.1)">
      <use xlink:href="#DejaVuSans-20"/>
      <use xlink:href="#DejaVuSans-33" x="31.787109"/>
      <use xlink:href="#DejaVuSans-31" x="95.410156"/>
      <use xlink:href="#DejaVuSans-32" x="159.033203"/>
      <use xlink:href="#DejaVuSans-35" x="222.65625"/>
      <use xlink:href="#DejaVuSans-34" x="286.279297"/>
     </g>
    </g>
    <g id="line2d_51">
     <path d="M 981.685239 76.813762 
L 991.685239 76.813762 
L 1001.685239 76.813762 
" style="fill: none; stroke: #0ca4a5; stroke-width: 4; stroke-linecap: square"/>
    </g>
    <g id="text_50">
     <!--  31266 -->
     <g transform="translate(1009.685239 80.313762) scale(0.1 -0.1)">
      <use xlink:href="#DejaVuSans-20"/>
      <use xlink:href="#DejaVuSans-33" x="31.787109"/>
      <use xlink:href="#DejaVuSans-31" x="95.410156"/>
      <use xlink:href="#DejaVuSans-32" x="159.033203"/>
      <use xlink:href="#DejaVuSans-36" x="222.65625"/>
      <use xlink:href="#DejaVuSans-36" x="286.279297"/>
     </g>
    </g>
   </g>
  </g>
 </g>
 <defs>
  <clipPath id="pf341ccb6b7">
   <rect x="50.87" y="46.32" width="240.798696" height="271.72"/>
  </clipPath>
  <clipPath id="p3429827403">
   <rect x="305.968696" y="46.32" width="240.798696" height="271.72"/>
  </clipPath>
  <clipPath id="p0c1e3a670a">
   <rect x="561.067391" y="46.32" width="240.798696" height="271.72"/>
  </clipPath>
  <clipPath id="pdcdf583775">
   <rect x="816.166087" y="46.32" width="240.798696" height="271.72"/>
  </clipPath>
 </defs>
</svg>
