<?xml version="1.0" encoding="utf-8" standalone="no"?>
<!DOCTYPE svg PUBLIC "-//W3C//DTD SVG 1.1//EN"
  "http://www.w3.org/Graphics/SVG/1.1/DTD/svg11.dtd">
<svg xmlns:xlink="http://www.w3.org/1999/xlink" width="432pt" height="360pt" viewBox="0 0 432 360" xmlns="http://www.w3.org/2000/svg" version="1.1">
 <metadata>
  <rdf:RDF xmlns:dc="http://purl.org/dc/elements/1.1/" xmlns:cc="http://creativecommons.org/ns#" xmlns:rdf="http://www.w3.org/1999/02/22-rdf-syntax-ns#">
   <cc:Work>
    <dc:type rdf:resource="http://purl.org/dc/dcmitype/StillImage"/>
    <dc:date>2024-07-22T19:35:04.044300</dc:date>
    <dc:format>image/svg+xml</dc:format>
    <dc:creator>
     <cc:Agent>
      <dc:title>Matplotlib v3.7.2, https://matplotlib.org/</dc:title>
     </cc:Agent>
    </dc:creator>
   </cc:Work>
  </rdf:RDF>
 </metadata>
 <defs>
  <style type="text/css">*{stroke-linejoin: round; stroke-linecap: butt}</style>
 </defs>
 <g id="figure_1">
  <g id="patch_1">
   <path d="M 0 360 
L 432 360 
L 432 0 
L 0 0 
z
" style="fill: #ffffff"/>
  </g>
  <g id="axes_1">
   <g id="patch_2">
    <path d="M 44.57 316.312 
L 421.2 316.312 
L 421.2 10.8 
L 44.57 10.8 
z
" style="fill: #ffffff"/>
   </g>
   <g id="PolyCollection_1">
    <defs>
     <path id="mbcc73dbcac" d="M 109.391597 -57.574909 
L 105.291736 -57.574909 
L 104.995275 -59.802233 
L 104.668095 -62.029556 
L 104.309046 -64.25688 
L 103.917266 -66.484203 
L 103.492232 -68.711527 
L 103.033806 -70.93885 
L 102.542281 -73.166174 
L 102.018418 -75.393498 
L 101.463481 -77.620821 
L 100.879254 -79.848145 
L 100.268058 -82.075468 
L 99.632746 -84.302792 
L 98.976693 -86.530115 
L 98.303768 -88.757439 
L 97.618292 -90.984763 
L 96.924985 -93.212086 
L 96.228898 -95.43941 
L 95.535337 -97.666733 
L 94.84977 -99.894057 
L 94.17773 -102.12138 
L 93.524717 -104.348704 
L 92.896092 -106.576027 
L 92.296969 -108.803351 
L 91.732119 -111.030675 
L 91.205874 -113.257998 
L 90.722044 -115.485322 
L 90.28384 -117.712645 
L 89.893822 -119.939969 
L 89.553854 -122.167292 
L 89.26508 -124.394616 
L 89.027917 -126.62194 
L 88.842066 -128.849263 
L 88.706542 -131.076587 
L 88.619718 -133.30391 
L 88.579386 -135.531234 
L 88.582823 -137.758557 
L 88.626882 -139.985881 
L 88.70807 -142.213204 
L 88.82265 -144.440528 
L 88.966728 -146.667852 
L 89.136351 -148.895175 
L 89.327591 -151.122499 
L 89.536636 -153.349822 
L 89.759856 -155.577146 
L 89.993877 -157.804469 
L 90.23563 -160.031793 
L 90.482403 -162.259117 
L 90.731865 -164.48644 
L 90.982095 -166.713764 
L 91.231589 -168.941087 
L 91.479264 -171.168411 
L 91.724442 -173.395734 
L 91.96684 -175.623058 
L 92.206538 -177.850381 
L 92.443953 -180.077705 
L 92.679793 -182.305029 
L 92.915024 -184.532352 
L 93.150815 -186.759676 
L 93.388498 -188.986999 
L 93.629512 -191.214323 
L 93.875354 -193.441646 
L 94.12753 -195.66897 
L 94.387505 -197.896294 
L 94.656657 -200.123617 
L 94.936229 -202.350941 
L 95.227294 -204.578264 
L 95.530717 -206.805588 
L 95.847122 -209.032911 
L 96.176874 -211.260235 
L 96.520054 -213.487558 
L 96.876455 -215.714882 
L 97.245575 -217.942206 
L 97.626622 -220.169529 
L 98.018529 -222.396853 
L 98.419967 -224.624176 
L 98.829374 -226.8515 
L 99.244985 -229.078823 
L 99.664869 -231.306147 
L 100.086966 -233.53347 
L 100.50913 -235.760794 
L 100.929176 -237.988118 
L 101.344918 -240.215441 
L 101.754215 -242.442765 
L 102.155011 -244.670088 
L 102.54537 -246.897412 
L 102.923512 -249.124735 
L 103.287836 -251.352059 
L 103.636946 -253.579383 
L 103.969665 -255.806706 
L 104.285047 -258.03403 
L 104.582379 -260.261353 
L 104.861182 -262.488677 
L 105.121205 -264.716 
L 105.362409 -266.943324 
L 105.584959 -269.170647 
L 105.789202 -271.397971 
L 105.975647 -273.625295 
L 106.14494 -275.852618 
L 106.297848 -278.079942 
L 108.385485 -278.079942 
L 108.385485 -278.079942 
L 108.538393 -275.852618 
L 108.707687 -273.625295 
L 108.894131 -271.397971 
L 109.098374 -269.170647 
L 109.320924 -266.943324 
L 109.562129 -264.716 
L 109.822151 -262.488677 
L 110.100954 -260.261353 
L 110.398287 -258.03403 
L 110.713668 -255.806706 
L 111.046388 -253.579383 
L 111.395497 -251.352059 
L 111.759821 -249.124735 
L 112.137963 -246.897412 
L 112.528322 -244.670088 
L 112.929118 -242.442765 
L 113.338415 -240.215441 
L 113.754157 -237.988118 
L 114.174203 -235.760794 
L 114.596368 -233.53347 
L 115.018464 -231.306147 
L 115.438348 -229.078823 
L 115.853959 -226.8515 
L 116.263366 -224.624176 
L 116.664804 -222.396853 
L 117.056711 -220.169529 
L 117.437759 -217.942206 
L 117.806879 -215.714882 
L 118.163279 -213.487558 
L 118.506459 -211.260235 
L 118.836211 -209.032911 
L 119.152616 -206.805588 
L 119.456039 -204.578264 
L 119.747104 -202.350941 
L 120.026677 -200.123617 
L 120.295828 -197.896294 
L 120.555803 -195.66897 
L 120.80798 -193.441646 
L 121.053821 -191.214323 
L 121.294835 -188.986999 
L 121.532518 -186.759676 
L 121.768309 -184.532352 
L 122.00354 -182.305029 
L 122.239381 -180.077705 
L 122.476795 -177.850381 
L 122.716494 -175.623058 
L 122.958892 -173.395734 
L 123.20407 -171.168411 
L 123.451744 -168.941087 
L 123.701238 -166.713764 
L 123.951468 -164.48644 
L 124.20093 -162.259117 
L 124.447703 -160.031793 
L 124.689457 -157.804469 
L 124.923477 -155.577146 
L 125.146698 -153.349822 
L 125.355742 -151.122499 
L 125.546983 -148.895175 
L 125.716605 -146.667852 
L 125.860683 -144.440528 
L 125.975263 -142.213204 
L 126.056452 -139.985881 
L 126.10051 -137.758557 
L 126.103948 -135.531234 
L 126.063615 -133.30391 
L 125.976791 -131.076587 
L 125.841267 -128.849263 
L 125.655416 -126.62194 
L 125.418253 -124.394616 
L 125.129479 -122.167292 
L 124.789511 -119.939969 
L 124.399494 -117.712645 
L 123.96129 -115.485322 
L 123.477459 -113.257998 
L 122.951214 -111.030675 
L 122.386364 -108.803351 
L 121.787241 -106.576027 
L 121.158616 -104.348704 
L 120.505603 -102.12138 
L 119.833564 -99.894057 
L 119.147996 -97.666733 
L 118.454435 -95.43941 
L 117.758349 -93.212086 
L 117.065042 -90.984763 
L 116.379565 -88.757439 
L 115.70664 -86.530115 
L 115.050587 -84.302792 
L 114.415275 -82.075468 
L 113.804079 -79.848145 
L 113.219853 -77.620821 
L 112.664915 -75.393498 
L 112.141053 -73.166174 
L 111.649527 -70.93885 
L 111.191101 -68.711527 
L 110.766067 -66.484203 
L 110.374288 -64.25688 
L 110.015238 -62.029556 
L 109.688058 -59.802233 
L 109.391597 -57.574909 
z
" style="stroke: #6a6a6a; stroke-width: 1.5"/>
    </defs>
    <g clip-path="url(#p72b7a6ebba)">
     <use xlink:href="#mbcc73dbcac" x="0" y="360" style="fill: #86c0dc; stroke: #6a6a6a; stroke-width: 1.5"/>
    </g>
   </g>
   <g id="PolyCollection_2">
    <defs>
     <path id="m16352c16c0" d="M 233.216798 -86.315243 
L 232.553202 -86.315243 
L 232.382493 -88.167822 
L 232.144886 -90.020402 
L 231.824144 -91.872982 
L 231.403922 -93.725562 
L 230.869048 -95.578142 
L 230.206886 -97.430721 
L 229.408588 -99.283301 
L 228.470131 -101.135881 
L 227.393136 -102.988461 
L 226.185585 -104.841041 
L 224.862665 -106.693621 
L 223.447874 -108.5462 
L 221.974411 -110.39878 
L 220.486491 -112.25136 
L 219.039967 -114.10394 
L 217.70139 -115.95652 
L 216.544726 -117.8091 
L 215.645381 -119.661679 
L 215.071821 -121.514259 
L 214.875914 -123.366839 
L 215.08375 -125.219419 
L 215.688926 -127.071999 
L 216.65001 -128.924579 
L 217.893114 -130.777158 
L 219.319378 -132.629738 
L 220.816107 -134.482318 
L 222.269432 -136.334898 
L 223.576093 -138.187478 
L 224.65217 -140.040058 
L 225.437338 -141.892637 
L 225.894245 -143.745217 
L 226.003667 -145.597797 
L 225.757028 -147.450377 
L 225.14841 -149.302957 
L 224.16827 -151.155536 
L 222.800729 -153.008116 
L 221.025474 -154.860696 
L 218.824208 -156.713276 
L 216.19044 -158.565856 
L 213.140375 -160.418436 
L 209.722191 -162.271015 
L 206.021036 -164.123595 
L 202.157921 -165.976175 
L 198.281969 -167.828755 
L 194.55709 -169.681335 
L 191.145528 -171.533915 
L 188.19159 -173.386494 
L 185.80888 -175.239074 
L 184.073485 -177.091654 
L 183.024032 -178.944234 
L 182.667667 -180.796814 
L 182.989483 -182.649394 
L 183.962092 -184.501973 
L 185.552233 -186.354553 
L 187.72252 -188.207133 
L 190.428255 -190.059713 
L 193.611011 -191.912293 
L 197.191979 -193.764872 
L 201.068241 -195.617452 
L 205.114274 -197.470032 
L 209.18935 -199.322612 
L 213.149665 -201.175192 
L 216.862616 -203.027772 
L 220.220071 -204.880351 
L 223.147859 -206.732931 
L 225.609814 -208.585511 
L 227.606146 -210.438091 
L 229.167164 -212.290671 
L 230.344215 -214.143251 
L 231.199869 -215.99583 
L 231.799093 -217.84841 
L 232.202512 -219.70099 
L 232.462191 -221.55357 
L 232.619763 -223.40615 
L 232.706422 -225.25873 
L 232.744139 -227.111309 
L 232.747513 -228.963889 
L 232.72581 -230.816469 
L 232.684894 -232.669049 
L 232.628861 -234.521629 
L 232.561311 -236.374209 
L 232.486192 -238.226788 
L 232.408225 -240.079368 
L 232.332906 -241.931948 
L 232.266155 -243.784528 
L 232.213698 -245.637108 
L 232.180333 -247.489687 
L 232.169242 -249.342267 
L 232.181507 -251.194847 
L 232.215943 -253.047427 
L 232.269291 -254.900007 
L 232.336728 -256.752587 
L 232.412583 -258.605166 
L 232.491121 -260.457746 
L 232.567233 -262.310326 
L 232.636936 -264.162906 
L 232.697618 -266.015486 
L 232.748038 -267.868066 
L 232.788132 -269.720645 
L 232.981868 -269.720645 
L 232.981868 -269.720645 
L 233.021962 -267.868066 
L 233.072382 -266.015486 
L 233.133064 -264.162906 
L 233.202767 -262.310326 
L 233.278879 -260.457746 
L 233.357417 -258.605166 
L 233.433272 -256.752587 
L 233.500709 -254.900007 
L 233.554057 -253.047427 
L 233.588493 -251.194847 
L 233.600758 -249.342267 
L 233.589667 -247.489687 
L 233.556302 -245.637108 
L 233.503845 -243.784528 
L 233.437094 -241.931948 
L 233.361775 -240.079368 
L 233.283808 -238.226788 
L 233.208689 -236.374209 
L 233.141139 -234.521629 
L 233.085106 -232.669049 
L 233.04419 -230.816469 
L 233.022487 -228.963889 
L 233.025861 -227.111309 
L 233.063578 -225.25873 
L 233.150237 -223.40615 
L 233.307809 -221.55357 
L 233.567488 -219.70099 
L 233.970907 -217.84841 
L 234.570131 -215.99583 
L 235.425785 -214.143251 
L 236.602836 -212.290671 
L 238.163854 -210.438091 
L 240.160186 -208.585511 
L 242.622141 -206.732931 
L 245.549929 -204.880351 
L 248.907384 -203.027772 
L 252.620335 -201.175192 
L 256.58065 -199.322612 
L 260.655726 -197.470032 
L 264.701759 -195.617452 
L 268.578021 -193.764872 
L 272.158989 -191.912293 
L 275.341745 -190.059713 
L 278.04748 -188.207133 
L 280.217767 -186.354553 
L 281.807908 -184.501973 
L 282.780517 -182.649394 
L 283.102333 -180.796814 
L 282.745968 -178.944234 
L 281.696515 -177.091654 
L 279.96112 -175.239074 
L 277.57841 -173.386494 
L 274.624472 -171.533915 
L 271.21291 -169.681335 
L 267.488031 -167.828755 
L 263.612079 -165.976175 
L 259.748964 -164.123595 
L 256.047809 -162.271015 
L 252.629625 -160.418436 
L 249.57956 -158.565856 
L 246.945792 -156.713276 
L 244.744526 -154.860696 
L 242.969271 -153.008116 
L 241.60173 -151.155536 
L 240.62159 -149.302957 
L 240.012972 -147.450377 
L 239.766333 -145.597797 
L 239.875755 -143.745217 
L 240.332662 -141.892637 
L 241.11783 -140.040058 
L 242.193907 -138.187478 
L 243.500568 -136.334898 
L 244.953893 -134.482318 
L 246.450622 -132.629738 
L 247.876886 -130.777158 
L 249.11999 -128.924579 
L 250.081074 -127.071999 
L 250.68625 -125.219419 
L 250.894086 -123.366839 
L 250.698179 -121.514259 
L 250.124619 -119.661679 
L 249.225274 -117.8091 
L 248.06861 -115.95652 
L 246.730033 -114.10394 
L 245.283509 -112.25136 
L 243.795589 -110.39878 
L 242.322126 -108.5462 
L 240.907335 -106.693621 
L 239.584415 -104.841041 
L 238.376864 -102.988461 
L 237.299869 -101.135881 
L 236.361412 -99.283301 
L 235.563114 -97.430721 
L 234.900952 -95.578142 
L 234.366078 -93.725562 
L 233.945856 -91.872982 
L 233.625114 -90.020402 
L 233.387507 -88.167822 
L 233.216798 -86.315243 
z
" style="stroke: #6a6a6a; stroke-width: 1.5"/>
    </defs>
    <g clip-path="url(#p72b7a6ebba)">
     <use xlink:href="#m16352c16c0" x="0" y="360" style="fill: #86c0dc; stroke: #6a6a6a; stroke-width: 1.5"/>
    </g>
   </g>
   <g id="PolyCollection_3">
    <defs>
     <path id="me4f85de38e" d="M 358.722297 -88.119816 
L 358.13437 -88.119816 
L 357.952163 -90.616717 
L 357.688267 -93.113619 
L 357.324556 -95.610521 
L 356.848255 -98.107423 
L 356.256767 -100.604324 
L 355.562108 -103.101226 
L 354.793518 -105.598128 
L 353.996894 -108.09503 
L 353.230287 -110.591932 
L 352.555698 -113.088833 
L 352.028625 -115.585735 
L 351.687669 -118.082637 
L 351.546769 -120.579539 
L 351.592039 -123.07644 
L 351.783902 -125.573342 
L 352.063721 -128.070244 
L 352.362843 -130.567146 
L 352.611461 -133.064047 
L 352.745001 -135.560949 
L 352.706796 -138.057851 
L 352.447213 -140.554753 
L 351.920725 -143.051655 
L 351.083178 -145.548556 
L 349.891555 -148.045458 
L 348.307785 -150.54236 
L 346.306838 -153.039262 
L 343.887809 -155.536163 
L 341.085432 -158.033065 
L 337.978794 -160.529967 
L 334.694188 -163.026869 
L 331.400102 -165.52377 
L 328.294055 -168.020672 
L 325.582841 -170.517574 
L 323.459387 -173.014476 
L 322.080195 -175.511378 
L 321.547169 -178.008279 
L 321.896508 -180.505181 
L 323.095757 -183.002083 
L 325.048597 -185.498985 
L 327.605928 -187.995886 
L 330.581401 -190.492788 
L 333.769601 -192.98969 
L 336.96518 -195.486592 
L 339.981169 -197.983494 
L 342.6645 -200.480395 
L 344.906656 -202.977297 
L 346.647854 -205.474199 
L 347.874206 -207.971101 
L 348.608893 -210.468002 
L 348.899924 -212.964904 
L 348.8079 -215.461806 
L 348.397037 -217.958708 
L 347.731374 -220.455609 
L 346.876128 -222.952511 
L 345.902143 -225.449413 
L 344.890173 -227.946315 
L 343.931732 -230.443217 
L 343.124557 -232.940118 
L 342.562758 -235.43702 
L 342.323881 -237.933922 
L 342.456441 -240.430824 
L 342.971561 -242.927725 
L 343.841207 -245.424627 
L 345.003515 -247.921529 
L 346.373692 -250.418431 
L 347.857623 -252.915332 
L 349.364927 -255.412234 
L 350.818928 -257.909136 
L 352.162271 -260.406038 
L 353.358249 -262.90294 
L 354.388912 -265.399841 
L 355.251387 -267.896743 
L 355.953686 -270.393645 
L 356.510835 -272.890547 
L 356.941652 -275.387448 
L 357.266223 -277.88435 
L 357.503946 -280.381252 
L 357.672102 -282.878154 
L 357.784971 -285.375055 
L 357.853571 -287.871957 
L 357.886051 -290.368859 
L 357.888653 -292.865761 
L 357.86698 -295.362663 
L 357.82722 -297.859564 
L 357.776931 -300.356466 
L 357.725097 -302.853368 
L 357.6814 -305.35027 
L 357.654874 -307.847171 
L 357.652361 -310.344073 
L 357.677234 -312.840975 
L 357.728795 -315.337877 
L 357.802547 -317.834779 
L 357.891235 -320.33168 
L 357.986374 -322.828582 
L 358.079825 -325.325484 
L 358.165053 -327.822386 
L 358.237823 -330.319287 
L 358.296308 -332.816189 
L 358.340713 -335.313091 
L 358.515954 -335.313091 
L 358.515954 -335.313091 
L 358.560359 -332.816189 
L 358.618843 -330.319287 
L 358.691614 -327.822386 
L 358.776842 -325.325484 
L 358.870293 -322.828582 
L 358.965432 -320.33168 
L 359.05412 -317.834779 
L 359.127871 -315.337877 
L 359.179433 -312.840975 
L 359.204305 -310.344073 
L 359.201792 -307.847171 
L 359.175266 -305.35027 
L 359.131569 -302.853368 
L 359.079736 -300.356466 
L 359.029447 -297.859564 
L 358.989687 -295.362663 
L 358.968014 -292.865761 
L 358.970615 -290.368859 
L 359.003096 -287.871957 
L 359.071696 -285.375055 
L 359.184565 -282.878154 
L 359.352721 -280.381252 
L 359.590444 -277.88435 
L 359.915015 -275.387448 
L 360.345832 -272.890547 
L 360.90298 -270.393645 
L 361.60528 -267.896743 
L 362.467755 -265.399841 
L 363.498418 -262.90294 
L 364.694396 -260.406038 
L 366.037739 -257.909136 
L 367.49174 -255.412234 
L 368.999043 -252.915332 
L 370.482974 -250.418431 
L 371.853152 -247.921529 
L 373.015459 -245.424627 
L 373.885106 -242.927725 
L 374.400226 -240.430824 
L 374.532786 -237.933922 
L 374.293909 -235.43702 
L 373.73211 -232.940118 
L 372.924935 -230.443217 
L 371.966494 -227.946315 
L 370.954523 -225.449413 
L 369.980539 -222.952511 
L 369.125293 -220.455609 
L 368.45963 -217.958708 
L 368.048766 -215.461806 
L 367.956743 -212.964904 
L 368.247774 -210.468002 
L 368.982461 -207.971101 
L 370.208812 -205.474199 
L 371.950011 -202.977297 
L 374.192167 -200.480395 
L 376.875497 -197.983494 
L 379.891487 -195.486592 
L 383.087065 -192.98969 
L 386.275266 -190.492788 
L 389.250739 -187.995886 
L 391.80807 -185.498985 
L 393.76091 -183.002083 
L 394.960158 -180.505181 
L 395.309498 -178.008279 
L 394.776472 -175.511378 
L 393.39728 -173.014476 
L 391.273825 -170.517574 
L 388.562612 -168.020672 
L 385.456564 -165.52377 
L 382.162479 -163.026869 
L 378.877872 -160.529967 
L 375.771235 -158.033065 
L 372.968858 -155.536163 
L 370.549829 -153.039262 
L 368.548882 -150.54236 
L 366.965112 -148.045458 
L 365.773488 -145.548556 
L 364.935941 -143.051655 
L 364.409454 -140.554753 
L 364.149871 -138.057851 
L 364.111666 -135.560949 
L 364.245206 -133.064047 
L 364.493824 -130.567146 
L 364.792946 -128.070244 
L 365.072765 -125.573342 
L 365.264628 -123.07644 
L 365.309897 -120.579539 
L 365.168997 -118.082637 
L 364.828041 -115.585735 
L 364.300969 -113.088833 
L 363.62638 -110.591932 
L 362.859772 -108.09503 
L 362.063149 -105.598128 
L 361.294559 -103.101226 
L 360.5999 -100.604324 
L 360.008412 -98.107423 
L 359.53211 -95.610521 
L 359.168399 -93.113619 
L 358.904503 -90.616717 
L 358.722297 -88.119816 
z
" style="stroke: #6a6a6a; stroke-width: 1.5"/>
    </defs>
    <g clip-path="url(#p72b7a6ebba)">
     <use xlink:href="#me4f85de38e" x="0" y="360" style="fill: #86c0dc; stroke: #6a6a6a; stroke-width: 1.5"/>
    </g>
   </g>
   <g id="matplotlib.axis_1">
    <g id="xtick_1">
     <g id="line2d_1">
      <defs>
       <path id="md7c6a0ff71" d="M 0 0 
L 0 3.5 
" style="stroke: #000000; stroke-width: 0.8"/>
      </defs>
      <g>
       <use xlink:href="#md7c6a0ff71" x="107.341667" y="316.312" style="stroke: #000000; stroke-width: 0.8"/>
      </g>
     </g>
     <g id="text_1">
      <!-- 2 -->
      <g transform="translate(104.160417 330.910438) scale(0.1 -0.1)">
       <defs>
        <path id="DejaVuSans-32" d="M 1228 531 
L 3431 531 
L 3431 0 
L 469 0 
L 469 531 
Q 828 903 1448 1529 
Q 2069 2156 2228 2338 
Q 2531 2678 2651 2914 
Q 2772 3150 2772 3378 
Q 2772 3750 2511 3984 
Q 2250 4219 1831 4219 
Q 1534 4219 1204 4116 
Q 875 4013 500 3803 
L 500 4441 
Q 881 4594 1212 4672 
Q 1544 4750 1819 4750 
Q 2544 4750 2975 4387 
Q 3406 4025 3406 3419 
Q 3406 3131 3298 2873 
Q 3191 2616 2906 2266 
Q 2828 2175 2409 1742 
Q 1991 1309 1228 531 
z
" transform="scale(0.015625)"/>
       </defs>
       <use xlink:href="#DejaVuSans-32"/>
      </g>
     </g>
    </g>
    <g id="xtick_2">
     <g id="line2d_2">
      <g>
       <use xlink:href="#md7c6a0ff71" x="232.885" y="316.312" style="stroke: #000000; stroke-width: 0.8"/>
      </g>
     </g>
     <g id="text_2">
      <!-- 26 -->
      <g transform="translate(226.5225 330.910438) scale(0.1 -0.1)">
       <defs>
        <path id="DejaVuSans-36" d="M 2113 2584 
Q 1688 2584 1439 2293 
Q 1191 2003 1191 1497 
Q 1191 994 1439 701 
Q 1688 409 2113 409 
Q 2538 409 2786 701 
Q 3034 994 3034 1497 
Q 3034 2003 2786 2293 
Q 2538 2584 2113 2584 
z
M 3366 4563 
L 3366 3988 
Q 3128 4100 2886 4159 
Q 2644 4219 2406 4219 
Q 1781 4219 1451 3797 
Q 1122 3375 1075 2522 
Q 1259 2794 1537 2939 
Q 1816 3084 2150 3084 
Q 2853 3084 3261 2657 
Q 3669 2231 3669 1497 
Q 3669 778 3244 343 
Q 2819 -91 2113 -91 
Q 1303 -91 875 529 
Q 447 1150 447 2328 
Q 447 3434 972 4092 
Q 1497 4750 2381 4750 
Q 2619 4750 2861 4703 
Q 3103 4656 3366 4563 
z
" transform="scale(0.015625)"/>
       </defs>
       <use xlink:href="#DejaVuSans-32"/>
       <use xlink:href="#DejaVuSans-36" x="63.623047"/>
      </g>
     </g>
    </g>
    <g id="xtick_3">
     <g id="line2d_3">
      <g>
       <use xlink:href="#md7c6a0ff71" x="358.428333" y="316.312" style="stroke: #000000; stroke-width: 0.8"/>
      </g>
     </g>
     <g id="text_3">
      <!-- 50 -->
      <g transform="translate(352.065833 330.910438) scale(0.1 -0.1)">
       <defs>
        <path id="DejaVuSans-35" d="M 691 4666 
L 3169 4666 
L 3169 4134 
L 1269 4134 
L 1269 2991 
Q 1406 3038 1543 3061 
Q 1681 3084 1819 3084 
Q 2600 3084 3056 2656 
Q 3513 2228 3513 1497 
Q 3513 744 3044 326 
Q 2575 -91 1722 -91 
Q 1428 -91 1123 -41 
Q 819 9 494 109 
L 494 744 
Q 775 591 1075 516 
Q 1375 441 1709 441 
Q 2250 441 2565 725 
Q 2881 1009 2881 1497 
Q 2881 1984 2565 2268 
Q 2250 2553 1709 2553 
Q 1456 2553 1204 2497 
Q 953 2441 691 2322 
L 691 4666 
z
" transform="scale(0.015625)"/>
        <path id="DejaVuSans-30" d="M 2034 4250 
Q 1547 4250 1301 3770 
Q 1056 3291 1056 2328 
Q 1056 1369 1301 889 
Q 1547 409 2034 409 
Q 2525 409 2770 889 
Q 3016 1369 3016 2328 
Q 3016 3291 2770 3770 
Q 2525 4250 2034 4250 
z
M 2034 4750 
Q 2819 4750 3233 4129 
Q 3647 3509 3647 2328 
Q 3647 1150 3233 529 
Q 2819 -91 2034 -91 
Q 1250 -91 836 529 
Q 422 1150 422 2328 
Q 422 3509 836 4129 
Q 1250 4750 2034 4750 
z
" transform="scale(0.015625)"/>
       </defs>
       <use xlink:href="#DejaVuSans-35"/>
       <use xlink:href="#DejaVuSans-30" x="63.623047"/>
      </g>
     </g>
    </g>
    <g id="text_4">
     <!-- $C_n$ -->
     <g transform="translate(227.035 344.588563) scale(0.1 -0.1)">
      <defs>
       <path id="DejaVuSans-Oblique-43" d="M 4447 4306 
L 4319 3641 
Q 4019 3944 3683 4091 
Q 3347 4238 2956 4238 
Q 2422 4238 2017 3981 
Q 1613 3725 1319 3200 
Q 1131 2863 1032 2486 
Q 934 2109 934 1728 
Q 934 1091 1264 756 
Q 1594 422 2222 422 
Q 2656 422 3056 561 
Q 3456 700 3834 978 
L 3688 231 
Q 3316 72 2936 -9 
Q 2556 -91 2175 -91 
Q 1278 -91 773 396 
Q 269 884 269 1753 
Q 269 2309 461 2846 
Q 653 3384 1013 3828 
Q 1394 4300 1883 4525 
Q 2372 4750 3022 4750 
Q 3422 4750 3780 4639 
Q 4138 4528 4447 4306 
z
" transform="scale(0.015625)"/>
       <path id="DejaVuSans-Oblique-6e" d="M 3566 2113 
L 3156 0 
L 2578 0 
L 2988 2091 
Q 3016 2238 3031 2350 
Q 3047 2463 3047 2528 
Q 3047 2791 2881 2937 
Q 2716 3084 2419 3084 
Q 1956 3084 1622 2776 
Q 1288 2469 1184 1941 
L 800 0 
L 225 0 
L 903 3500 
L 1478 3500 
L 1363 2950 
Q 1603 3253 1940 3418 
Q 2278 3584 2650 3584 
Q 3113 3584 3367 3334 
Q 3622 3084 3622 2631 
Q 3622 2519 3608 2391 
Q 3594 2263 3566 2113 
z
" transform="scale(0.015625)"/>
      </defs>
      <use xlink:href="#DejaVuSans-Oblique-43" transform="translate(0 0.78125)"/>
      <use xlink:href="#DejaVuSans-Oblique-6e" transform="translate(69.824219 -15.625) scale(0.7)"/>
     </g>
    </g>
   </g>
   <g id="matplotlib.axis_2">
    <g id="ytick_1">
     <g id="line2d_4">
      <defs>
       <path id="m31f2b74a80" d="M 0 0 
L -3.5 0 
" style="stroke: #000000; stroke-width: 0.8"/>
      </defs>
      <g>
       <use xlink:href="#m31f2b74a80" x="44.57" y="300.164152" style="stroke: #000000; stroke-width: 0.8"/>
      </g>
     </g>
     <g id="text_5">
      <!-- 0 -->
      <g transform="translate(31.2075 303.963371) scale(0.1 -0.1)">
       <use xlink:href="#DejaVuSans-30"/>
      </g>
     </g>
    </g>
    <g id="ytick_2">
     <g id="line2d_5">
      <g>
       <use xlink:href="#m31f2b74a80" x="44.57" y="244.325694" style="stroke: #000000; stroke-width: 0.8"/>
      </g>
     </g>
     <g id="text_6">
      <!-- 10 -->
      <g transform="translate(24.845 248.124913) scale(0.1 -0.1)">
       <defs>
        <path id="DejaVuSans-31" d="M 794 531 
L 1825 531 
L 1825 4091 
L 703 3866 
L 703 4441 
L 1819 4666 
L 2450 4666 
L 2450 531 
L 3481 531 
L 3481 0 
L 794 0 
L 794 531 
z
" transform="scale(0.015625)"/>
       </defs>
       <use xlink:href="#DejaVuSans-31"/>
       <use xlink:href="#DejaVuSans-30" x="63.623047"/>
      </g>
     </g>
    </g>
    <g id="ytick_3">
     <g id="line2d_6">
      <g>
       <use xlink:href="#m31f2b74a80" x="44.57" y="188.487236" style="stroke: #000000; stroke-width: 0.8"/>
      </g>
     </g>
     <g id="text_7">
      <!-- 20 -->
      <g transform="translate(24.845 192.286455) scale(0.1 -0.1)">
       <use xlink:href="#DejaVuSans-32"/>
       <use xlink:href="#DejaVuSans-30" x="63.623047"/>
      </g>
     </g>
    </g>
    <g id="ytick_4">
     <g id="line2d_7">
      <g>
       <use xlink:href="#m31f2b74a80" x="44.57" y="132.648779" style="stroke: #000000; stroke-width: 0.8"/>
      </g>
     </g>
     <g id="text_8">
      <!-- 30 -->
      <g transform="translate(24.845 136.447997) scale(0.1 -0.1)">
       <defs>
        <path id="DejaVuSans-33" d="M 2597 2516 
Q 3050 2419 3304 2112 
Q 3559 1806 3559 1356 
Q 3559 666 3084 287 
Q 2609 -91 1734 -91 
Q 1441 -91 1130 -33 
Q 819 25 488 141 
L 488 750 
Q 750 597 1062 519 
Q 1375 441 1716 441 
Q 2309 441 2620 675 
Q 2931 909 2931 1356 
Q 2931 1769 2642 2001 
Q 2353 2234 1838 2234 
L 1294 2234 
L 1294 2753 
L 1863 2753 
Q 2328 2753 2575 2939 
Q 2822 3125 2822 3475 
Q 2822 3834 2567 4026 
Q 2313 4219 1838 4219 
Q 1578 4219 1281 4162 
Q 984 4106 628 3988 
L 628 4550 
Q 988 4650 1302 4700 
Q 1616 4750 1894 4750 
Q 2613 4750 3031 4423 
Q 3450 4097 3450 3541 
Q 3450 3153 3228 2886 
Q 3006 2619 2597 2516 
z
" transform="scale(0.015625)"/>
       </defs>
       <use xlink:href="#DejaVuSans-33"/>
       <use xlink:href="#DejaVuSans-30" x="63.623047"/>
      </g>
     </g>
    </g>
    <g id="ytick_5">
     <g id="line2d_8">
      <g>
       <use xlink:href="#m31f2b74a80" x="44.57" y="76.810321" style="stroke: #000000; stroke-width: 0.8"/>
      </g>
     </g>
     <g id="text_9">
      <!-- 40 -->
      <g transform="translate(24.845 80.60954) scale(0.1 -0.1)">
       <defs>
        <path id="DejaVuSans-34" d="M 2419 4116 
L 825 1625 
L 2419 1625 
L 2419 4116 
z
M 2253 4666 
L 3047 4666 
L 3047 1625 
L 3713 1625 
L 3713 1100 
L 3047 1100 
L 3047 0 
L 2419 0 
L 2419 1100 
L 313 1100 
L 313 1709 
L 2253 4666 
z
" transform="scale(0.015625)"/>
       </defs>
       <use xlink:href="#DejaVuSans-34"/>
       <use xlink:href="#DejaVuSans-30" x="63.623047"/>
      </g>
     </g>
    </g>
    <g id="ytick_6">
     <g id="line2d_9">
      <g>
       <use xlink:href="#m31f2b74a80" x="44.57" y="20.971863" style="stroke: #000000; stroke-width: 0.8"/>
      </g>
     </g>
     <g id="text_10">
      <!-- 50 -->
      <g transform="translate(24.845 24.771082) scale(0.1 -0.1)">
       <use xlink:href="#DejaVuSans-35"/>
       <use xlink:href="#DejaVuSans-30" x="63.623047"/>
      </g>
     </g>
    </g>
    <g id="text_11">
     <!-- Latency (s) -->
     <g transform="translate(18.765313 191.415375) rotate(-90) scale(0.1 -0.1)">
      <defs>
       <path id="DejaVuSans-4c" d="M 628 4666 
L 1259 4666 
L 1259 531 
L 3531 531 
L 3531 0 
L 628 0 
L 628 4666 
z
" transform="scale(0.015625)"/>
       <path id="DejaVuSans-61" d="M 2194 1759 
Q 1497 1759 1228 1600 
Q 959 1441 959 1056 
Q 959 750 1161 570 
Q 1363 391 1709 391 
Q 2188 391 2477 730 
Q 2766 1069 2766 1631 
L 2766 1759 
L 2194 1759 
z
M 3341 1997 
L 3341 0 
L 2766 0 
L 2766 531 
Q 2569 213 2275 61 
Q 1981 -91 1556 -91 
Q 1019 -91 701 211 
Q 384 513 384 1019 
Q 384 1609 779 1909 
Q 1175 2209 1959 2209 
L 2766 2209 
L 2766 2266 
Q 2766 2663 2505 2880 
Q 2244 3097 1772 3097 
Q 1472 3097 1187 3025 
Q 903 2953 641 2809 
L 641 3341 
Q 956 3463 1253 3523 
Q 1550 3584 1831 3584 
Q 2591 3584 2966 3190 
Q 3341 2797 3341 1997 
z
" transform="scale(0.015625)"/>
       <path id="DejaVuSans-74" d="M 1172 4494 
L 1172 3500 
L 2356 3500 
L 2356 3053 
L 1172 3053 
L 1172 1153 
Q 1172 725 1289 603 
Q 1406 481 1766 481 
L 2356 481 
L 2356 0 
L 1766 0 
Q 1100 0 847 248 
Q 594 497 594 1153 
L 594 3053 
L 172 3053 
L 172 3500 
L 594 3500 
L 594 4494 
L 1172 4494 
z
" transform="scale(0.015625)"/>
       <path id="DejaVuSans-65" d="M 3597 1894 
L 3597 1613 
L 953 1613 
Q 991 1019 1311 708 
Q 1631 397 2203 397 
Q 2534 397 2845 478 
Q 3156 559 3463 722 
L 3463 178 
Q 3153 47 2828 -22 
Q 2503 -91 2169 -91 
Q 1331 -91 842 396 
Q 353 884 353 1716 
Q 353 2575 817 3079 
Q 1281 3584 2069 3584 
Q 2775 3584 3186 3129 
Q 3597 2675 3597 1894 
z
M 3022 2063 
Q 3016 2534 2758 2815 
Q 2500 3097 2075 3097 
Q 1594 3097 1305 2825 
Q 1016 2553 972 2059 
L 3022 2063 
z
" transform="scale(0.015625)"/>
       <path id="DejaVuSans-6e" d="M 3513 2113 
L 3513 0 
L 2938 0 
L 2938 2094 
Q 2938 2591 2744 2837 
Q 2550 3084 2163 3084 
Q 1697 3084 1428 2787 
Q 1159 2491 1159 1978 
L 1159 0 
L 581 0 
L 581 3500 
L 1159 3500 
L 1159 2956 
Q 1366 3272 1645 3428 
Q 1925 3584 2291 3584 
Q 2894 3584 3203 3211 
Q 3513 2838 3513 2113 
z
" transform="scale(0.015625)"/>
       <path id="DejaVuSans-63" d="M 3122 3366 
L 3122 2828 
Q 2878 2963 2633 3030 
Q 2388 3097 2138 3097 
Q 1578 3097 1268 2742 
Q 959 2388 959 1747 
Q 959 1106 1268 751 
Q 1578 397 2138 397 
Q 2388 397 2633 464 
Q 2878 531 3122 666 
L 3122 134 
Q 2881 22 2623 -34 
Q 2366 -91 2075 -91 
Q 1284 -91 818 406 
Q 353 903 353 1747 
Q 353 2603 823 3093 
Q 1294 3584 2113 3584 
Q 2378 3584 2631 3529 
Q 2884 3475 3122 3366 
z
" transform="scale(0.015625)"/>
       <path id="DejaVuSans-79" d="M 2059 -325 
Q 1816 -950 1584 -1140 
Q 1353 -1331 966 -1331 
L 506 -1331 
L 506 -850 
L 844 -850 
Q 1081 -850 1212 -737 
Q 1344 -625 1503 -206 
L 1606 56 
L 191 3500 
L 800 3500 
L 1894 763 
L 2988 3500 
L 3597 3500 
L 2059 -325 
z
" transform="scale(0.015625)"/>
       <path id="DejaVuSans-20" transform="scale(0.015625)"/>
       <path id="DejaVuSans-28" d="M 1984 4856 
Q 1566 4138 1362 3434 
Q 1159 2731 1159 2009 
Q 1159 1288 1364 580 
Q 1569 -128 1984 -844 
L 1484 -844 
Q 1016 -109 783 600 
Q 550 1309 550 2009 
Q 550 2706 781 3412 
Q 1013 4119 1484 4856 
L 1984 4856 
z
" transform="scale(0.015625)"/>
       <path id="DejaVuSans-73" d="M 2834 3397 
L 2834 2853 
Q 2591 2978 2328 3040 
Q 2066 3103 1784 3103 
Q 1356 3103 1142 2972 
Q 928 2841 928 2578 
Q 928 2378 1081 2264 
Q 1234 2150 1697 2047 
L 1894 2003 
Q 2506 1872 2764 1633 
Q 3022 1394 3022 966 
Q 3022 478 2636 193 
Q 2250 -91 1575 -91 
Q 1294 -91 989 -36 
Q 684 19 347 128 
L 347 722 
Q 666 556 975 473 
Q 1284 391 1588 391 
Q 1994 391 2212 530 
Q 2431 669 2431 922 
Q 2431 1156 2273 1281 
Q 2116 1406 1581 1522 
L 1381 1569 
Q 847 1681 609 1914 
Q 372 2147 372 2553 
Q 372 3047 722 3315 
Q 1072 3584 1716 3584 
Q 2034 3584 2315 3537 
Q 2597 3491 2834 3397 
z
" transform="scale(0.015625)"/>
       <path id="DejaVuSans-29" d="M 513 4856 
L 1013 4856 
Q 1481 4119 1714 3412 
Q 1947 2706 1947 2009 
Q 1947 1309 1714 600 
Q 1481 -109 1013 -844 
L 513 -844 
Q 928 -128 1133 580 
Q 1338 1288 1338 2009 
Q 1338 2731 1133 3434 
Q 928 4138 513 4856 
z
" transform="scale(0.015625)"/>
      </defs>
      <use xlink:href="#DejaVuSans-4c"/>
      <use xlink:href="#DejaVuSans-61" x="55.712891"/>
      <use xlink:href="#DejaVuSans-74" x="116.992188"/>
      <use xlink:href="#DejaVuSans-65" x="156.201172"/>
      <use xlink:href="#DejaVuSans-6e" x="217.724609"/>
      <use xlink:href="#DejaVuSans-63" x="281.103516"/>
      <use xlink:href="#DejaVuSans-79" x="336.083984"/>
      <use xlink:href="#DejaVuSans-20" x="395.263672"/>
      <use xlink:href="#DejaVuSans-28" x="427.050781"/>
      <use xlink:href="#DejaVuSans-73" x="466.064453"/>
      <use xlink:href="#DejaVuSans-29" x="518.164062"/>
     </g>
    </g>
   </g>
   <g id="line2d_10">
    <path d="M 107.341667 237.066695 
L 107.341667 147.278455 
" clip-path="url(#p72b7a6ebba)" style="fill: none; stroke: #6a6a6a; stroke-width: 1.5; stroke-linecap: square"/>
   </g>
   <g id="line2d_11">
    <path d="M 107.341667 237.066695 
L 107.341667 179.818316 
" clip-path="url(#p72b7a6ebba)" style="fill: none; stroke: #6a6a6a; stroke-width: 4.5; stroke-linecap: square"/>
   </g>
   <g id="line2d_12">
    <path d="M 232.885 253.259847 
L 232.885 166.375207 
" clip-path="url(#p72b7a6ebba)" style="fill: none; stroke: #6a6a6a; stroke-width: 1.5; stroke-linecap: square"/>
   </g>
   <g id="line2d_13">
    <path d="M 232.885 205.517966 
L 232.885 172.950185 
" clip-path="url(#p72b7a6ebba)" style="fill: none; stroke: #6a6a6a; stroke-width: 4.5; stroke-linecap: square"/>
   </g>
   <g id="line2d_14">
    <path d="M 358.428333 247.955194 
L 358.428333 74.855975 
" clip-path="url(#p72b7a6ebba)" style="fill: none; stroke: #6a6a6a; stroke-width: 1.5; stroke-linecap: square"/>
   </g>
   <g id="line2d_15">
    <path d="M 358.428333 188.584954 
L 358.428333 141.359578 
" clip-path="url(#p72b7a6ebba)" style="fill: none; stroke: #6a6a6a; stroke-width: 4.5; stroke-linecap: square"/>
   </g>
   <g id="patch_3">
    <path d="M 44.57 316.312 
L 44.57 10.8 
" style="fill: none; stroke: #000000; stroke-width: 0.8; stroke-linejoin: miter; stroke-linecap: square"/>
   </g>
   <g id="patch_4">
    <path d="M 421.2 316.312 
L 421.2 10.8 
" style="fill: none; stroke: #000000; stroke-width: 0.8; stroke-linejoin: miter; stroke-linecap: square"/>
   </g>
   <g id="patch_5">
    <path d="M 44.57 316.312 
L 421.2 316.312 
" style="fill: none; stroke: #000000; stroke-width: 0.8; stroke-linejoin: miter; stroke-linecap: square"/>
   </g>
   <g id="patch_6">
    <path d="M 44.57 10.8 
L 421.2 10.8 
" style="fill: none; stroke: #000000; stroke-width: 0.8; stroke-linejoin: miter; stroke-linecap: square"/>
   </g>
   <g id="PathCollection_1">
    <defs>
     <path id="m7e8cb550a0" d="M 0 1.5 
C 0.397805 1.5 0.77937 1.341951 1.06066 1.06066 
C 1.341951 0.77937 1.5 0.397805 1.5 0 
C 1.5 -0.397805 1.341951 -0.77937 1.06066 -1.06066 
C 0.77937 -1.341951 0.397805 -1.5 0 -1.5 
C -0.397805 -1.5 -0.77937 -1.341951 -1.06066 -1.06066 
C -1.341951 -0.77937 -1.5 -0.397805 -1.5 0 
C -1.5 0.397805 -1.341951 0.77937 -1.06066 1.06066 
C -0.77937 1.341951 -0.397805 1.5 0 1.5 
z
" style="stroke: #6a6a6a"/>
    </defs>
    <g clip-path="url(#p72b7a6ebba)">
     <use xlink:href="#m7e8cb550a0" x="107.341667" y="213.865815" style="fill: #ffffff; stroke: #6a6a6a"/>
    </g>
   </g>
   <g id="PathCollection_2">
    <g clip-path="url(#p72b7a6ebba)">
     <use xlink:href="#m7e8cb550a0" x="232.885" y="183.713048" style="fill: #ffffff; stroke: #6a6a6a"/>
    </g>
   </g>
   <g id="PathCollection_3">
    <g clip-path="url(#p72b7a6ebba)">
     <use xlink:href="#m7e8cb550a0" x="358.428333" y="177.710414" style="fill: #ffffff; stroke: #6a6a6a"/>
    </g>
   </g>
   <g id="legend_1">
    <g id="patch_7">
     <path d="M 51.57 33.478125 
L 165.57 33.478125 
Q 167.57 33.478125 167.57 31.478125 
L 167.57 17.8 
Q 167.57 15.8 165.57 15.8 
L 51.57 15.8 
Q 49.57 15.8 49.57 17.8 
L 49.57 31.478125 
Q 49.57 33.478125 51.57 33.478125 
z
" style="fill: #ffffff; opacity: 0.8; stroke: #cccccc; stroke-linejoin: miter"/>
    </g>
    <g id="line2d_16">
     <path d="M 53.57 23.898438 
L 63.57 23.898438 
L 73.57 23.898438 
" style="fill: none; stroke: #78c5ea; stroke-width: 4; stroke-linecap: square"/>
    </g>
    <g id="text_12">
     <!-- $serviceSelection$ -->
     <g transform="translate(81.57 27.398438) scale(0.1 -0.1)">
      <defs>
       <path id="DejaVuSans-Oblique-73" d="M 3200 3397 
L 3091 2853 
Q 2863 2978 2609 3040 
Q 2356 3103 2088 3103 
Q 1634 3103 1373 2948 
Q 1113 2794 1113 2528 
Q 1113 2219 1719 2053 
Q 1766 2041 1788 2034 
L 1972 1978 
Q 2547 1819 2739 1644 
Q 2931 1469 2931 1166 
Q 2931 609 2489 259 
Q 2047 -91 1331 -91 
Q 1053 -91 747 -37 
Q 441 16 72 128 
L 184 722 
Q 500 559 806 475 
Q 1113 391 1394 391 
Q 1816 391 2080 572 
Q 2344 753 2344 1031 
Q 2344 1331 1650 1516 
L 1591 1531 
L 1394 1581 
Q 956 1697 753 1886 
Q 550 2075 550 2369 
Q 550 2928 970 3256 
Q 1391 3584 2113 3584 
Q 2397 3584 2667 3537 
Q 2938 3491 3200 3397 
z
" transform="scale(0.015625)"/>
       <path id="DejaVuSans-Oblique-65" d="M 3078 2063 
Q 3088 2113 3092 2166 
Q 3097 2219 3097 2272 
Q 3097 2653 2873 2875 
Q 2650 3097 2266 3097 
Q 1838 3097 1509 2826 
Q 1181 2556 1013 2059 
L 3078 2063 
z
M 3578 1613 
L 903 1613 
Q 884 1494 878 1425 
Q 872 1356 872 1306 
Q 872 872 1139 634 
Q 1406 397 1894 397 
Q 2269 397 2603 481 
Q 2938 566 3225 728 
L 3116 159 
Q 2806 34 2476 -28 
Q 2147 -91 1806 -91 
Q 1078 -91 686 257 
Q 294 606 294 1247 
Q 294 1794 489 2264 
Q 684 2734 1063 3103 
Q 1306 3334 1642 3459 
Q 1978 3584 2356 3584 
Q 2950 3584 3301 3228 
Q 3653 2872 3653 2272 
Q 3653 2128 3634 1964 
Q 3616 1800 3578 1613 
z
" transform="scale(0.015625)"/>
       <path id="DejaVuSans-Oblique-72" d="M 2853 2969 
Q 2766 3016 2653 3041 
Q 2541 3066 2413 3066 
Q 1953 3066 1609 2717 
Q 1266 2369 1153 1784 
L 800 0 
L 225 0 
L 909 3500 
L 1484 3500 
L 1375 2956 
Q 1603 3259 1920 3421 
Q 2238 3584 2597 3584 
Q 2691 3584 2781 3573 
Q 2872 3563 2963 3538 
L 2853 2969 
z
" transform="scale(0.015625)"/>
       <path id="DejaVuSans-Oblique-76" d="M 459 3500 
L 1069 3500 
L 1581 525 
L 3256 3500 
L 3866 3500 
L 1875 0 
L 1100 0 
L 459 3500 
z
" transform="scale(0.015625)"/>
       <path id="DejaVuSans-Oblique-69" d="M 1172 4863 
L 1747 4863 
L 1606 4134 
L 1031 4134 
L 1172 4863 
z
M 909 3500 
L 1484 3500 
L 800 0 
L 225 0 
L 909 3500 
z
" transform="scale(0.015625)"/>
       <path id="DejaVuSans-Oblique-63" d="M 3431 3366 
L 3316 2797 
Q 3109 2947 2876 3022 
Q 2644 3097 2394 3097 
Q 2119 3097 1870 3000 
Q 1622 2903 1453 2725 
Q 1184 2453 1037 2087 
Q 891 1722 891 1331 
Q 891 859 1127 628 
Q 1363 397 1844 397 
Q 2081 397 2348 469 
Q 2616 541 2906 684 
L 2797 116 
Q 2547 13 2283 -39 
Q 2019 -91 1741 -91 
Q 1044 -91 669 257 
Q 294 606 294 1253 
Q 294 1797 489 2255 
Q 684 2713 1069 3078 
Q 1331 3328 1684 3456 
Q 2038 3584 2456 3584 
Q 2700 3584 2940 3529 
Q 3181 3475 3431 3366 
z
" transform="scale(0.015625)"/>
       <path id="DejaVuSans-Oblique-53" d="M 3859 4513 
L 3738 3897 
Q 3422 4066 3111 4152 
Q 2800 4238 2509 4238 
Q 1944 4238 1609 3991 
Q 1275 3744 1275 3334 
Q 1275 3109 1398 2989 
Q 1522 2869 2034 2731 
L 2413 2638 
Q 3053 2472 3303 2217 
Q 3553 1963 3553 1503 
Q 3553 797 2998 353 
Q 2444 -91 1538 -91 
Q 1166 -91 791 -17 
Q 416 56 38 206 
L 166 856 
Q 513 641 861 531 
Q 1209 422 1556 422 
Q 2147 422 2503 684 
Q 2859 947 2859 1369 
Q 2859 1650 2717 1795 
Q 2575 1941 2106 2059 
L 1728 2156 
Q 1081 2325 845 2545 
Q 609 2766 609 3163 
Q 609 3859 1145 4304 
Q 1681 4750 2541 4750 
Q 2875 4750 3203 4690 
Q 3531 4631 3859 4513 
z
" transform="scale(0.015625)"/>
       <path id="DejaVuSans-Oblique-6c" d="M 1172 4863 
L 1747 4863 
L 800 0 
L 225 0 
L 1172 4863 
z
" transform="scale(0.015625)"/>
       <path id="DejaVuSans-Oblique-74" d="M 2706 3500 
L 2619 3053 
L 1472 3053 
L 1100 1153 
Q 1081 1047 1072 975 
Q 1063 903 1063 863 
Q 1063 663 1183 572 
Q 1303 481 1569 481 
L 2150 481 
L 2053 0 
L 1503 0 
Q 991 0 739 200 
Q 488 400 488 806 
Q 488 878 497 964 
Q 506 1050 525 1153 
L 897 3053 
L 409 3053 
L 500 3500 
L 978 3500 
L 1172 4494 
L 1747 4494 
L 1556 3500 
L 2706 3500 
z
" transform="scale(0.015625)"/>
       <path id="DejaVuSans-Oblique-6f" d="M 1625 -91 
Q 1009 -91 651 289 
Q 294 669 294 1325 
Q 294 1706 417 2101 
Q 541 2497 738 2766 
Q 1047 3184 1428 3384 
Q 1809 3584 2291 3584 
Q 2888 3584 3255 3212 
Q 3622 2841 3622 2241 
Q 3622 1825 3500 1412 
Q 3378 1000 3181 728 
Q 2875 309 2494 109 
Q 2113 -91 1625 -91 
z
M 891 1344 
Q 891 869 1089 633 
Q 1288 397 1691 397 
Q 2269 397 2648 901 
Q 3028 1406 3028 2181 
Q 3028 2634 2825 2865 
Q 2622 3097 2228 3097 
Q 1903 3097 1650 2945 
Q 1397 2794 1197 2484 
Q 1050 2253 970 1956 
Q 891 1659 891 1344 
z
" transform="scale(0.015625)"/>
      </defs>
      <use xlink:href="#DejaVuSans-Oblique-73" transform="translate(0 0.015625)"/>
      <use xlink:href="#DejaVuSans-Oblique-65" transform="translate(52.099609 0.015625)"/>
      <use xlink:href="#DejaVuSans-Oblique-72" transform="translate(113.623047 0.015625)"/>
      <use xlink:href="#DejaVuSans-Oblique-76" transform="translate(154.736328 0.015625)"/>
      <use xlink:href="#DejaVuSans-Oblique-69" transform="translate(213.916016 0.015625)"/>
      <use xlink:href="#DejaVuSans-Oblique-63" transform="translate(241.699219 0.015625)"/>
      <use xlink:href="#DejaVuSans-Oblique-65" transform="translate(296.679688 0.015625)"/>
      <use xlink:href="#DejaVuSans-Oblique-53" transform="translate(358.203125 0.015625)"/>
      <use xlink:href="#DejaVuSans-Oblique-65" transform="translate(421.679688 0.015625)"/>
      <use xlink:href="#DejaVuSans-Oblique-6c" transform="translate(483.203125 0.015625)"/>
      <use xlink:href="#DejaVuSans-Oblique-65" transform="translate(510.986328 0.015625)"/>
      <use xlink:href="#DejaVuSans-Oblique-63" transform="translate(572.509766 0.015625)"/>
      <use xlink:href="#DejaVuSans-Oblique-74" transform="translate(627.490234 0.015625)"/>
      <use xlink:href="#DejaVuSans-Oblique-69" transform="translate(666.699219 0.015625)"/>
      <use xlink:href="#DejaVuSans-Oblique-6f" transform="translate(694.482422 0.015625)"/>
      <use xlink:href="#DejaVuSans-Oblique-6e" transform="translate(755.664062 0.015625)"/>
     </g>
    </g>
   </g>
  </g>
 </g>
 <defs>
  <clipPath id="p72b7a6ebba">
   <rect x="44.57" y="10.8" width="376.63" height="305.512"/>
  </clipPath>
 </defs>
</svg>
