<?xml version="1.0" encoding="utf-8" standalone="no"?>
<!DOCTYPE svg PUBLIC "-//W3C//DTD SVG 1.1//EN"
  "http://www.w3.org/Graphics/SVG/1.1/DTD/svg11.dtd">
<svg xmlns:xlink="http://www.w3.org/1999/xlink" width="720pt" height="216pt" viewBox="0 0 720 216" xmlns="http://www.w3.org/2000/svg" version="1.1">
 <metadata>
  <rdf:RDF xmlns:dc="http://purl.org/dc/elements/1.1/" xmlns:cc="http://creativecommons.org/ns#" xmlns:rdf="http://www.w3.org/1999/02/22-rdf-syntax-ns#">
   <cc:Work>
    <dc:type rdf:resource="http://purl.org/dc/dcmitype/StillImage"/>
    <dc:date>2024-07-22T19:25:54.874273</dc:date>
    <dc:format>image/svg+xml</dc:format>
    <dc:creator>
     <cc:Agent>
      <dc:title>Matplotlib v3.7.2, https://matplotlib.org/</dc:title>
     </cc:Agent>
    </dc:creator>
   </cc:Work>
  </rdf:RDF>
 </metadata>
 <defs>
  <style type="text/css">*{stroke-linejoin: round; stroke-linecap: butt}</style>
 </defs>
 <g id="figure_1">
  <g id="patch_1">
   <path d="M 0 216 
L 720 216 
L 720 0 
L 0 0 
z
" style="fill: #ffffff"/>
  </g>
  <g id="axes_1">
   <g id="patch_2">
    <path d="M 47.72 174.04 
L 258.68 174.04 
L 258.68 14.76 
L 47.72 14.76 
z
" style="fill: #ffffff"/>
   </g>
   <g id="matplotlib.axis_1">
    <g id="xtick_1">
     <g id="line2d_1">
      <defs>
       <path id="mab333340f6" d="M 0 0 
L 0 3.5 
" style="stroke: #000000; stroke-width: 0.8"/>
      </defs>
      <g>
       <use xlink:href="#mab333340f6" x="65.681558" y="174.04" style="stroke: #000000; stroke-width: 0.8"/>
      </g>
     </g>
     <g id="text_1">
      <!-- 10 -->
      <g transform="translate(59.319058 188.638438) scale(0.1 -0.1)">
       <defs>
        <path id="DejaVuSans-31" d="M 794 531 
L 1825 531 
L 1825 4091 
L 703 3866 
L 703 4441 
L 1819 4666 
L 2450 4666 
L 2450 531 
L 3481 531 
L 3481 0 
L 794 0 
L 794 531 
z
" transform="scale(0.015625)"/>
        <path id="DejaVuSans-30" d="M 2034 4250 
Q 1547 4250 1301 3770 
Q 1056 3291 1056 2328 
Q 1056 1369 1301 889 
Q 1547 409 2034 409 
Q 2525 409 2770 889 
Q 3016 1369 3016 2328 
Q 3016 3291 2770 3770 
Q 2525 4250 2034 4250 
z
M 2034 4750 
Q 2819 4750 3233 4129 
Q 3647 3509 3647 2328 
Q 3647 1150 3233 529 
Q 2819 -91 2034 -91 
Q 1250 -91 836 529 
Q 422 1150 422 2328 
Q 422 3509 836 4129 
Q 1250 4750 2034 4750 
z
" transform="scale(0.015625)"/>
       </defs>
       <use xlink:href="#DejaVuSans-31"/>
       <use xlink:href="#DejaVuSans-30" x="63.623047"/>
      </g>
     </g>
    </g>
    <g id="xtick_2">
     <g id="line2d_2">
      <g>
       <use xlink:href="#mab333340f6" x="118.009475" y="174.04" style="stroke: #000000; stroke-width: 0.8"/>
      </g>
     </g>
     <g id="text_2">
      <!-- 20 -->
      <g transform="translate(111.646975 188.638438) scale(0.1 -0.1)">
       <defs>
        <path id="DejaVuSans-32" d="M 1228 531 
L 3431 531 
L 3431 0 
L 469 0 
L 469 531 
Q 828 903 1448 1529 
Q 2069 2156 2228 2338 
Q 2531 2678 2651 2914 
Q 2772 3150 2772 3378 
Q 2772 3750 2511 3984 
Q 2250 4219 1831 4219 
Q 1534 4219 1204 4116 
Q 875 4013 500 3803 
L 500 4441 
Q 881 4594 1212 4672 
Q 1544 4750 1819 4750 
Q 2544 4750 2975 4387 
Q 3406 4025 3406 3419 
Q 3406 3131 3298 2873 
Q 3191 2616 2906 2266 
Q 2828 2175 2409 1742 
Q 1991 1309 1228 531 
z
" transform="scale(0.015625)"/>
       </defs>
       <use xlink:href="#DejaVuSans-32"/>
       <use xlink:href="#DejaVuSans-30" x="63.623047"/>
      </g>
     </g>
    </g>
    <g id="xtick_3">
     <g id="line2d_3">
      <g>
       <use xlink:href="#mab333340f6" x="170.337393" y="174.04" style="stroke: #000000; stroke-width: 0.8"/>
      </g>
     </g>
     <g id="text_3">
      <!-- 30 -->
      <g transform="translate(163.974893 188.638438) scale(0.1 -0.1)">
       <defs>
        <path id="DejaVuSans-33" d="M 2597 2516 
Q 3050 2419 3304 2112 
Q 3559 1806 3559 1356 
Q 3559 666 3084 287 
Q 2609 -91 1734 -91 
Q 1441 -91 1130 -33 
Q 819 25 488 141 
L 488 750 
Q 750 597 1062 519 
Q 1375 441 1716 441 
Q 2309 441 2620 675 
Q 2931 909 2931 1356 
Q 2931 1769 2642 2001 
Q 2353 2234 1838 2234 
L 1294 2234 
L 1294 2753 
L 1863 2753 
Q 2328 2753 2575 2939 
Q 2822 3125 2822 3475 
Q 2822 3834 2567 4026 
Q 2313 4219 1838 4219 
Q 1578 4219 1281 4162 
Q 984 4106 628 3988 
L 628 4550 
Q 988 4650 1302 4700 
Q 1616 4750 1894 4750 
Q 2613 4750 3031 4423 
Q 3450 4097 3450 3541 
Q 3450 3153 3228 2886 
Q 3006 2619 2597 2516 
z
" transform="scale(0.015625)"/>
       </defs>
       <use xlink:href="#DejaVuSans-33"/>
       <use xlink:href="#DejaVuSans-30" x="63.623047"/>
      </g>
     </g>
    </g>
    <g id="xtick_4">
     <g id="line2d_4">
      <g>
       <use xlink:href="#mab333340f6" x="222.665311" y="174.04" style="stroke: #000000; stroke-width: 0.8"/>
      </g>
     </g>
     <g id="text_4">
      <!-- 40 -->
      <g transform="translate(216.302811 188.638438) scale(0.1 -0.1)">
       <defs>
        <path id="DejaVuSans-34" d="M 2419 4116 
L 825 1625 
L 2419 1625 
L 2419 4116 
z
M 2253 4666 
L 3047 4666 
L 3047 1625 
L 3713 1625 
L 3713 1100 
L 3047 1100 
L 3047 0 
L 2419 0 
L 2419 1100 
L 313 1100 
L 313 1709 
L 2253 4666 
z
" transform="scale(0.015625)"/>
       </defs>
       <use xlink:href="#DejaVuSans-34"/>
       <use xlink:href="#DejaVuSans-30" x="63.623047"/>
      </g>
     </g>
    </g>
    <g id="text_5">
     <!-- Latency (s) -->
     <g transform="translate(125.340625 202.316563) scale(0.1 -0.1)">
      <defs>
       <path id="DejaVuSans-4c" d="M 628 4666 
L 1259 4666 
L 1259 531 
L 3531 531 
L 3531 0 
L 628 0 
L 628 4666 
z
" transform="scale(0.015625)"/>
       <path id="DejaVuSans-61" d="M 2194 1759 
Q 1497 1759 1228 1600 
Q 959 1441 959 1056 
Q 959 750 1161 570 
Q 1363 391 1709 391 
Q 2188 391 2477 730 
Q 2766 1069 2766 1631 
L 2766 1759 
L 2194 1759 
z
M 3341 1997 
L 3341 0 
L 2766 0 
L 2766 531 
Q 2569 213 2275 61 
Q 1981 -91 1556 -91 
Q 1019 -91 701 211 
Q 384 513 384 1019 
Q 384 1609 779 1909 
Q 1175 2209 1959 2209 
L 2766 2209 
L 2766 2266 
Q 2766 2663 2505 2880 
Q 2244 3097 1772 3097 
Q 1472 3097 1187 3025 
Q 903 2953 641 2809 
L 641 3341 
Q 956 3463 1253 3523 
Q 1550 3584 1831 3584 
Q 2591 3584 2966 3190 
Q 3341 2797 3341 1997 
z
" transform="scale(0.015625)"/>
       <path id="DejaVuSans-74" d="M 1172 4494 
L 1172 3500 
L 2356 3500 
L 2356 3053 
L 1172 3053 
L 1172 1153 
Q 1172 725 1289 603 
Q 1406 481 1766 481 
L 2356 481 
L 2356 0 
L 1766 0 
Q 1100 0 847 248 
Q 594 497 594 1153 
L 594 3053 
L 172 3053 
L 172 3500 
L 594 3500 
L 594 4494 
L 1172 4494 
z
" transform="scale(0.015625)"/>
       <path id="DejaVuSans-65" d="M 3597 1894 
L 3597 1613 
L 953 1613 
Q 991 1019 1311 708 
Q 1631 397 2203 397 
Q 2534 397 2845 478 
Q 3156 559 3463 722 
L 3463 178 
Q 3153 47 2828 -22 
Q 2503 -91 2169 -91 
Q 1331 -91 842 396 
Q 353 884 353 1716 
Q 353 2575 817 3079 
Q 1281 3584 2069 3584 
Q 2775 3584 3186 3129 
Q 3597 2675 3597 1894 
z
M 3022 2063 
Q 3016 2534 2758 2815 
Q 2500 3097 2075 3097 
Q 1594 3097 1305 2825 
Q 1016 2553 972 2059 
L 3022 2063 
z
" transform="scale(0.015625)"/>
       <path id="DejaVuSans-6e" d="M 3513 2113 
L 3513 0 
L 2938 0 
L 2938 2094 
Q 2938 2591 2744 2837 
Q 2550 3084 2163 3084 
Q 1697 3084 1428 2787 
Q 1159 2491 1159 1978 
L 1159 0 
L 581 0 
L 581 3500 
L 1159 3500 
L 1159 2956 
Q 1366 3272 1645 3428 
Q 1925 3584 2291 3584 
Q 2894 3584 3203 3211 
Q 3513 2838 3513 2113 
z
" transform="scale(0.015625)"/>
       <path id="DejaVuSans-63" d="M 3122 3366 
L 3122 2828 
Q 2878 2963 2633 3030 
Q 2388 3097 2138 3097 
Q 1578 3097 1268 2742 
Q 959 2388 959 1747 
Q 959 1106 1268 751 
Q 1578 397 2138 397 
Q 2388 397 2633 464 
Q 2878 531 3122 666 
L 3122 134 
Q 2881 22 2623 -34 
Q 2366 -91 2075 -91 
Q 1284 -91 818 406 
Q 353 903 353 1747 
Q 353 2603 823 3093 
Q 1294 3584 2113 3584 
Q 2378 3584 2631 3529 
Q 2884 3475 3122 3366 
z
" transform="scale(0.015625)"/>
       <path id="DejaVuSans-79" d="M 2059 -325 
Q 1816 -950 1584 -1140 
Q 1353 -1331 966 -1331 
L 506 -1331 
L 506 -850 
L 844 -850 
Q 1081 -850 1212 -737 
Q 1344 -625 1503 -206 
L 1606 56 
L 191 3500 
L 800 3500 
L 1894 763 
L 2988 3500 
L 3597 3500 
L 2059 -325 
z
" transform="scale(0.015625)"/>
       <path id="DejaVuSans-20" transform="scale(0.015625)"/>
       <path id="DejaVuSans-28" d="M 1984 4856 
Q 1566 4138 1362 3434 
Q 1159 2731 1159 2009 
Q 1159 1288 1364 580 
Q 1569 -128 1984 -844 
L 1484 -844 
Q 1016 -109 783 600 
Q 550 1309 550 2009 
Q 550 2706 781 3412 
Q 1013 4119 1484 4856 
L 1984 4856 
z
" transform="scale(0.015625)"/>
       <path id="DejaVuSans-73" d="M 2834 3397 
L 2834 2853 
Q 2591 2978 2328 3040 
Q 2066 3103 1784 3103 
Q 1356 3103 1142 2972 
Q 928 2841 928 2578 
Q 928 2378 1081 2264 
Q 1234 2150 1697 2047 
L 1894 2003 
Q 2506 1872 2764 1633 
Q 3022 1394 3022 966 
Q 3022 478 2636 193 
Q 2250 -91 1575 -91 
Q 1294 -91 989 -36 
Q 684 19 347 128 
L 347 722 
Q 666 556 975 473 
Q 1284 391 1588 391 
Q 1994 391 2212 530 
Q 2431 669 2431 922 
Q 2431 1156 2273 1281 
Q 2116 1406 1581 1522 
L 1381 1569 
Q 847 1681 609 1914 
Q 372 2147 372 2553 
Q 372 3047 722 3315 
Q 1072 3584 1716 3584 
Q 2034 3584 2315 3537 
Q 2597 3491 2834 3397 
z
" transform="scale(0.015625)"/>
       <path id="DejaVuSans-29" d="M 513 4856 
L 1013 4856 
Q 1481 4119 1714 3412 
Q 1947 2706 1947 2009 
Q 1947 1309 1714 600 
Q 1481 -109 1013 -844 
L 513 -844 
Q 928 -128 1133 580 
Q 1338 1288 1338 2009 
Q 1338 2731 1133 3434 
Q 928 4138 513 4856 
z
" transform="scale(0.015625)"/>
      </defs>
      <use xlink:href="#DejaVuSans-4c"/>
      <use xlink:href="#DejaVuSans-61" x="55.712891"/>
      <use xlink:href="#DejaVuSans-74" x="116.992188"/>
      <use xlink:href="#DejaVuSans-65" x="156.201172"/>
      <use xlink:href="#DejaVuSans-6e" x="217.724609"/>
      <use xlink:href="#DejaVuSans-63" x="281.103516"/>
      <use xlink:href="#DejaVuSans-79" x="336.083984"/>
      <use xlink:href="#DejaVuSans-20" x="395.263672"/>
      <use xlink:href="#DejaVuSans-28" x="427.050781"/>
      <use xlink:href="#DejaVuSans-73" x="466.064453"/>
      <use xlink:href="#DejaVuSans-29" x="518.164062"/>
     </g>
    </g>
   </g>
   <g id="matplotlib.axis_2">
    <g id="ytick_1">
     <g id="line2d_5">
      <defs>
       <path id="m8474ebceb1" d="M 0 0 
L -3.5 0 
" style="stroke: #000000; stroke-width: 0.8"/>
      </defs>
      <g>
       <use xlink:href="#m8474ebceb1" x="47.72" y="174.04" style="stroke: #000000; stroke-width: 0.8"/>
      </g>
     </g>
     <g id="text_6">
      <!-- 0.0 -->
      <g transform="translate(24.816875 177.839219) scale(0.1 -0.1)">
       <defs>
        <path id="DejaVuSans-2e" d="M 684 794 
L 1344 794 
L 1344 0 
L 684 0 
L 684 794 
z
" transform="scale(0.015625)"/>
       </defs>
       <use xlink:href="#DejaVuSans-30"/>
       <use xlink:href="#DejaVuSans-2e" x="63.623047"/>
       <use xlink:href="#DejaVuSans-30" x="95.410156"/>
      </g>
     </g>
    </g>
    <g id="ytick_2">
     <g id="line2d_6">
      <g>
       <use xlink:href="#m8474ebceb1" x="47.72" y="142.184" style="stroke: #000000; stroke-width: 0.8"/>
      </g>
     </g>
     <g id="text_7">
      <!-- 0.2 -->
      <g transform="translate(24.816875 145.983219) scale(0.1 -0.1)">
       <use xlink:href="#DejaVuSans-30"/>
       <use xlink:href="#DejaVuSans-2e" x="63.623047"/>
       <use xlink:href="#DejaVuSans-32" x="95.410156"/>
      </g>
     </g>
    </g>
    <g id="ytick_3">
     <g id="line2d_7">
      <g>
       <use xlink:href="#m8474ebceb1" x="47.72" y="110.328" style="stroke: #000000; stroke-width: 0.8"/>
      </g>
     </g>
     <g id="text_8">
      <!-- 0.4 -->
      <g transform="translate(24.816875 114.127219) scale(0.1 -0.1)">
       <use xlink:href="#DejaVuSans-30"/>
       <use xlink:href="#DejaVuSans-2e" x="63.623047"/>
       <use xlink:href="#DejaVuSans-34" x="95.410156"/>
      </g>
     </g>
    </g>
    <g id="ytick_4">
     <g id="line2d_8">
      <g>
       <use xlink:href="#m8474ebceb1" x="47.72" y="78.472" style="stroke: #000000; stroke-width: 0.8"/>
      </g>
     </g>
     <g id="text_9">
      <!-- 0.6 -->
      <g transform="translate(24.816875 82.271219) scale(0.1 -0.1)">
       <defs>
        <path id="DejaVuSans-36" d="M 2113 2584 
Q 1688 2584 1439 2293 
Q 1191 2003 1191 1497 
Q 1191 994 1439 701 
Q 1688 409 2113 409 
Q 2538 409 2786 701 
Q 3034 994 3034 1497 
Q 3034 2003 2786 2293 
Q 2538 2584 2113 2584 
z
M 3366 4563 
L 3366 3988 
Q 3128 4100 2886 4159 
Q 2644 4219 2406 4219 
Q 1781 4219 1451 3797 
Q 1122 3375 1075 2522 
Q 1259 2794 1537 2939 
Q 1816 3084 2150 3084 
Q 2853 3084 3261 2657 
Q 3669 2231 3669 1497 
Q 3669 778 3244 343 
Q 2819 -91 2113 -91 
Q 1303 -91 875 529 
Q 447 1150 447 2328 
Q 447 3434 972 4092 
Q 1497 4750 2381 4750 
Q 2619 4750 2861 4703 
Q 3103 4656 3366 4563 
z
" transform="scale(0.015625)"/>
       </defs>
       <use xlink:href="#DejaVuSans-30"/>
       <use xlink:href="#DejaVuSans-2e" x="63.623047"/>
       <use xlink:href="#DejaVuSans-36" x="95.410156"/>
      </g>
     </g>
    </g>
    <g id="ytick_5">
     <g id="line2d_9">
      <g>
       <use xlink:href="#m8474ebceb1" x="47.72" y="46.616" style="stroke: #000000; stroke-width: 0.8"/>
      </g>
     </g>
     <g id="text_10">
      <!-- 0.8 -->
      <g transform="translate(24.816875 50.415219) scale(0.1 -0.1)">
       <defs>
        <path id="DejaVuSans-38" d="M 2034 2216 
Q 1584 2216 1326 1975 
Q 1069 1734 1069 1313 
Q 1069 891 1326 650 
Q 1584 409 2034 409 
Q 2484 409 2743 651 
Q 3003 894 3003 1313 
Q 3003 1734 2745 1975 
Q 2488 2216 2034 2216 
z
M 1403 2484 
Q 997 2584 770 2862 
Q 544 3141 544 3541 
Q 544 4100 942 4425 
Q 1341 4750 2034 4750 
Q 2731 4750 3128 4425 
Q 3525 4100 3525 3541 
Q 3525 3141 3298 2862 
Q 3072 2584 2669 2484 
Q 3125 2378 3379 2068 
Q 3634 1759 3634 1313 
Q 3634 634 3220 271 
Q 2806 -91 2034 -91 
Q 1263 -91 848 271 
Q 434 634 434 1313 
Q 434 1759 690 2068 
Q 947 2378 1403 2484 
z
M 1172 3481 
Q 1172 3119 1398 2916 
Q 1625 2713 2034 2713 
Q 2441 2713 2670 2916 
Q 2900 3119 2900 3481 
Q 2900 3844 2670 4047 
Q 2441 4250 2034 4250 
Q 1625 4250 1398 4047 
Q 1172 3844 1172 3481 
z
" transform="scale(0.015625)"/>
       </defs>
       <use xlink:href="#DejaVuSans-30"/>
       <use xlink:href="#DejaVuSans-2e" x="63.623047"/>
       <use xlink:href="#DejaVuSans-38" x="95.410156"/>
      </g>
     </g>
    </g>
    <g id="ytick_6">
     <g id="line2d_10">
      <g>
       <use xlink:href="#m8474ebceb1" x="47.72" y="14.76" style="stroke: #000000; stroke-width: 0.8"/>
      </g>
     </g>
     <g id="text_11">
      <!-- 1.0 -->
      <g transform="translate(24.816875 18.559219) scale(0.1 -0.1)">
       <use xlink:href="#DejaVuSans-31"/>
       <use xlink:href="#DejaVuSans-2e" x="63.623047"/>
       <use xlink:href="#DejaVuSans-30" x="95.410156"/>
      </g>
     </g>
    </g>
    <g id="text_12">
     <!-- CDF -->
     <g transform="translate(18.737188 104.617188) rotate(-90) scale(0.1 -0.1)">
      <defs>
       <path id="DejaVuSans-43" d="M 4122 4306 
L 4122 3641 
Q 3803 3938 3442 4084 
Q 3081 4231 2675 4231 
Q 1875 4231 1450 3742 
Q 1025 3253 1025 2328 
Q 1025 1406 1450 917 
Q 1875 428 2675 428 
Q 3081 428 3442 575 
Q 3803 722 4122 1019 
L 4122 359 
Q 3791 134 3420 21 
Q 3050 -91 2638 -91 
Q 1578 -91 968 557 
Q 359 1206 359 2328 
Q 359 3453 968 4101 
Q 1578 4750 2638 4750 
Q 3056 4750 3426 4639 
Q 3797 4528 4122 4306 
z
" transform="scale(0.015625)"/>
       <path id="DejaVuSans-44" d="M 1259 4147 
L 1259 519 
L 2022 519 
Q 2988 519 3436 956 
Q 3884 1394 3884 2338 
Q 3884 3275 3436 3711 
Q 2988 4147 2022 4147 
L 1259 4147 
z
M 628 4666 
L 1925 4666 
Q 3281 4666 3915 4102 
Q 4550 3538 4550 2338 
Q 4550 1131 3912 565 
Q 3275 0 1925 0 
L 628 0 
L 628 4666 
z
" transform="scale(0.015625)"/>
       <path id="DejaVuSans-46" d="M 628 4666 
L 3309 4666 
L 3309 4134 
L 1259 4134 
L 1259 2759 
L 3109 2759 
L 3109 2228 
L 1259 2228 
L 1259 0 
L 628 0 
L 628 4666 
z
" transform="scale(0.015625)"/>
      </defs>
      <use xlink:href="#DejaVuSans-43"/>
      <use xlink:href="#DejaVuSans-44" x="69.824219"/>
      <use xlink:href="#DejaVuSans-46" x="146.826172"/>
     </g>
    </g>
   </g>
   <g id="line2d_11">
    <path d="M 72.484187 174.04 
L 72.484187 134.22 
L 72.484187 134.22 
L 72.484187 94.4 
L 115.968687 94.4 
L 115.968687 54.58 
L 156.627479 54.58 
L 156.627479 14.76 
" clip-path="url(#p82496d3f62)" style="fill: none; stroke: #78c5ea; stroke-width: 1.5; stroke-linecap: square"/>
   </g>
   <g id="line2d_12">
    <path d="M 104.391135 174.04 
L 104.391135 14.76 
" clip-path="url(#p82496d3f62)" style="fill: none; stroke-dasharray: 5.55,2.4; stroke-dashoffset: 0; stroke: #ff0000; stroke-width: 1.5"/>
   </g>
   <g id="line2d_13">
    <path d="M 94.226437 174.04 
L 94.226437 14.76 
" clip-path="url(#p82496d3f62)" style="fill: none; stroke-dasharray: 9.6,2.4,1.5,2.4; stroke-dashoffset: 0; stroke: #008000; stroke-width: 1.5"/>
   </g>
   <g id="line2d_14">
    <path d="M 150.52866 174.04 
L 150.52866 14.76 
" clip-path="url(#p82496d3f62)" style="fill: none; stroke-dasharray: 1.5,2.475; stroke-dashoffset: 0; stroke: #0000ff; stroke-width: 1.5"/>
   </g>
   <g id="patch_3">
    <path d="M 47.72 174.04 
L 47.72 14.76 
" style="fill: none; stroke: #000000; stroke-width: 0.8; stroke-linejoin: miter; stroke-linecap: square"/>
   </g>
   <g id="patch_4">
    <path d="M 258.68 174.04 
L 258.68 14.76 
" style="fill: none; stroke: #000000; stroke-width: 0.8; stroke-linejoin: miter; stroke-linecap: square"/>
   </g>
   <g id="patch_5">
    <path d="M 47.72 174.04 
L 258.68 174.04 
" style="fill: none; stroke: #000000; stroke-width: 0.8; stroke-linejoin: miter; stroke-linecap: square"/>
   </g>
   <g id="patch_6">
    <path d="M 47.72 14.76 
L 258.68 14.76 
" style="fill: none; stroke: #000000; stroke-width: 0.8; stroke-linejoin: miter; stroke-linecap: square"/>
   </g>
   <g id="text_13">
    <g id="patch_7">
     <path d="M 201.94 165.98325 
L 236.18 165.98325 
L 236.18 150.24075 
L 201.94 150.24075 
z
" style="fill: #ffffff; opacity: 0.2; stroke: #000000; stroke-linejoin: miter"/>
    </g>
    <!-- $C_n$ = 2 -->
    <g transform="translate(205.94 160.3195) scale(0.08 -0.08)">
     <defs>
      <path id="DejaVuSans-Oblique-43" d="M 4447 4306 
L 4319 3641 
Q 4019 3944 3683 4091 
Q 3347 4238 2956 4238 
Q 2422 4238 2017 3981 
Q 1613 3725 1319 3200 
Q 1131 2863 1032 2486 
Q 934 2109 934 1728 
Q 934 1091 1264 756 
Q 1594 422 2222 422 
Q 2656 422 3056 561 
Q 3456 700 3834 978 
L 3688 231 
Q 3316 72 2936 -9 
Q 2556 -91 2175 -91 
Q 1278 -91 773 396 
Q 269 884 269 1753 
Q 269 2309 461 2846 
Q 653 3384 1013 3828 
Q 1394 4300 1883 4525 
Q 2372 4750 3022 4750 
Q 3422 4750 3780 4639 
Q 4138 4528 4447 4306 
z
" transform="scale(0.015625)"/>
      <path id="DejaVuSans-Oblique-6e" d="M 3566 2113 
L 3156 0 
L 2578 0 
L 2988 2091 
Q 3016 2238 3031 2350 
Q 3047 2463 3047 2528 
Q 3047 2791 2881 2937 
Q 2716 3084 2419 3084 
Q 1956 3084 1622 2776 
Q 1288 2469 1184 1941 
L 800 0 
L 225 0 
L 903 3500 
L 1478 3500 
L 1363 2950 
Q 1603 3253 1940 3418 
Q 2278 3584 2650 3584 
Q 3113 3584 3367 3334 
Q 3622 3084 3622 2631 
Q 3622 2519 3608 2391 
Q 3594 2263 3566 2113 
z
" transform="scale(0.015625)"/>
      <path id="DejaVuSans-3d" d="M 678 2906 
L 4684 2906 
L 4684 2381 
L 678 2381 
L 678 2906 
z
M 678 1631 
L 4684 1631 
L 4684 1100 
L 678 1100 
L 678 1631 
z
" transform="scale(0.015625)"/>
     </defs>
     <use xlink:href="#DejaVuSans-Oblique-43" transform="translate(0 0.78125)"/>
     <use xlink:href="#DejaVuSans-Oblique-6e" transform="translate(69.824219 -15.625) scale(0.7)"/>
     <use xlink:href="#DejaVuSans-20" transform="translate(116.923828 0.78125)"/>
     <use xlink:href="#DejaVuSans-3d" transform="translate(148.710938 0.78125)"/>
     <use xlink:href="#DejaVuSans-20" transform="translate(232.5 0.78125)"/>
     <use xlink:href="#DejaVuSans-32" transform="translate(264.287109 0.78125)"/>
    </g>
   </g>
   <g id="legend_1">
    <g id="patch_8">
     <path d="M 161.88 68.13 
L 253.08 68.13 
Q 254.68 68.13 254.68 66.53 
L 254.68 20.36 
Q 254.68 18.76 253.08 18.76 
L 161.88 18.76 
Q 160.28 18.76 160.28 20.36 
L 160.28 66.53 
Q 160.28 68.13 161.88 68.13 
z
" style="fill: #ffffff; opacity: 0.8; stroke: #cccccc; stroke-linejoin: miter"/>
    </g>
    <g id="line2d_15">
     <path d="M 163.48 25.23875 
L 171.48 25.23875 
L 179.48 25.23875 
" style="fill: none; stroke: #78c5ea; stroke-width: 4; stroke-linecap: square"/>
    </g>
    <g id="text_14">
     <!-- $serviceSelection$ -->
     <g transform="translate(185.88 28.03875) scale(0.08 -0.08)">
      <defs>
       <path id="DejaVuSans-Oblique-73" d="M 3200 3397 
L 3091 2853 
Q 2863 2978 2609 3040 
Q 2356 3103 2088 3103 
Q 1634 3103 1373 2948 
Q 1113 2794 1113 2528 
Q 1113 2219 1719 2053 
Q 1766 2041 1788 2034 
L 1972 1978 
Q 2547 1819 2739 1644 
Q 2931 1469 2931 1166 
Q 2931 609 2489 259 
Q 2047 -91 1331 -91 
Q 1053 -91 747 -37 
Q 441 16 72 128 
L 184 722 
Q 500 559 806 475 
Q 1113 391 1394 391 
Q 1816 391 2080 572 
Q 2344 753 2344 1031 
Q 2344 1331 1650 1516 
L 1591 1531 
L 1394 1581 
Q 956 1697 753 1886 
Q 550 2075 550 2369 
Q 550 2928 970 3256 
Q 1391 3584 2113 3584 
Q 2397 3584 2667 3537 
Q 2938 3491 3200 3397 
z
" transform="scale(0.015625)"/>
       <path id="DejaVuSans-Oblique-65" d="M 3078 2063 
Q 3088 2113 3092 2166 
Q 3097 2219 3097 2272 
Q 3097 2653 2873 2875 
Q 2650 3097 2266 3097 
Q 1838 3097 1509 2826 
Q 1181 2556 1013 2059 
L 3078 2063 
z
M 3578 1613 
L 903 1613 
Q 884 1494 878 1425 
Q 872 1356 872 1306 
Q 872 872 1139 634 
Q 1406 397 1894 397 
Q 2269 397 2603 481 
Q 2938 566 3225 728 
L 3116 159 
Q 2806 34 2476 -28 
Q 2147 -91 1806 -91 
Q 1078 -91 686 257 
Q 294 606 294 1247 
Q 294 1794 489 2264 
Q 684 2734 1063 3103 
Q 1306 3334 1642 3459 
Q 1978 3584 2356 3584 
Q 2950 3584 3301 3228 
Q 3653 2872 3653 2272 
Q 3653 2128 3634 1964 
Q 3616 1800 3578 1613 
z
" transform="scale(0.015625)"/>
       <path id="DejaVuSans-Oblique-72" d="M 2853 2969 
Q 2766 3016 2653 3041 
Q 2541 3066 2413 3066 
Q 1953 3066 1609 2717 
Q 1266 2369 1153 1784 
L 800 0 
L 225 0 
L 909 3500 
L 1484 3500 
L 1375 2956 
Q 1603 3259 1920 3421 
Q 2238 3584 2597 3584 
Q 2691 3584 2781 3573 
Q 2872 3563 2963 3538 
L 2853 2969 
z
" transform="scale(0.015625)"/>
       <path id="DejaVuSans-Oblique-76" d="M 459 3500 
L 1069 3500 
L 1581 525 
L 3256 3500 
L 3866 3500 
L 1875 0 
L 1100 0 
L 459 3500 
z
" transform="scale(0.015625)"/>
       <path id="DejaVuSans-Oblique-69" d="M 1172 4863 
L 1747 4863 
L 1606 4134 
L 1031 4134 
L 1172 4863 
z
M 909 3500 
L 1484 3500 
L 800 0 
L 225 0 
L 909 3500 
z
" transform="scale(0.015625)"/>
       <path id="DejaVuSans-Oblique-63" d="M 3431 3366 
L 3316 2797 
Q 3109 2947 2876 3022 
Q 2644 3097 2394 3097 
Q 2119 3097 1870 3000 
Q 1622 2903 1453 2725 
Q 1184 2453 1037 2087 
Q 891 1722 891 1331 
Q 891 859 1127 628 
Q 1363 397 1844 397 
Q 2081 397 2348 469 
Q 2616 541 2906 684 
L 2797 116 
Q 2547 13 2283 -39 
Q 2019 -91 1741 -91 
Q 1044 -91 669 257 
Q 294 606 294 1253 
Q 294 1797 489 2255 
Q 684 2713 1069 3078 
Q 1331 3328 1684 3456 
Q 2038 3584 2456 3584 
Q 2700 3584 2940 3529 
Q 3181 3475 3431 3366 
z
" transform="scale(0.015625)"/>
       <path id="DejaVuSans-Oblique-53" d="M 3859 4513 
L 3738 3897 
Q 3422 4066 3111 4152 
Q 2800 4238 2509 4238 
Q 1944 4238 1609 3991 
Q 1275 3744 1275 3334 
Q 1275 3109 1398 2989 
Q 1522 2869 2034 2731 
L 2413 2638 
Q 3053 2472 3303 2217 
Q 3553 1963 3553 1503 
Q 3553 797 2998 353 
Q 2444 -91 1538 -91 
Q 1166 -91 791 -17 
Q 416 56 38 206 
L 166 856 
Q 513 641 861 531 
Q 1209 422 1556 422 
Q 2147 422 2503 684 
Q 2859 947 2859 1369 
Q 2859 1650 2717 1795 
Q 2575 1941 2106 2059 
L 1728 2156 
Q 1081 2325 845 2545 
Q 609 2766 609 3163 
Q 609 3859 1145 4304 
Q 1681 4750 2541 4750 
Q 2875 4750 3203 4690 
Q 3531 4631 3859 4513 
z
" transform="scale(0.015625)"/>
       <path id="DejaVuSans-Oblique-6c" d="M 1172 4863 
L 1747 4863 
L 800 0 
L 225 0 
L 1172 4863 
z
" transform="scale(0.015625)"/>
       <path id="DejaVuSans-Oblique-74" d="M 2706 3500 
L 2619 3053 
L 1472 3053 
L 1100 1153 
Q 1081 1047 1072 975 
Q 1063 903 1063 863 
Q 1063 663 1183 572 
Q 1303 481 1569 481 
L 2150 481 
L 2053 0 
L 1503 0 
Q 991 0 739 200 
Q 488 400 488 806 
Q 488 878 497 964 
Q 506 1050 525 1153 
L 897 3053 
L 409 3053 
L 500 3500 
L 978 3500 
L 1172 4494 
L 1747 4494 
L 1556 3500 
L 2706 3500 
z
" transform="scale(0.015625)"/>
       <path id="DejaVuSans-Oblique-6f" d="M 1625 -91 
Q 1009 -91 651 289 
Q 294 669 294 1325 
Q 294 1706 417 2101 
Q 541 2497 738 2766 
Q 1047 3184 1428 3384 
Q 1809 3584 2291 3584 
Q 2888 3584 3255 3212 
Q 3622 2841 3622 2241 
Q 3622 1825 3500 1412 
Q 3378 1000 3181 728 
Q 2875 309 2494 109 
Q 2113 -91 1625 -91 
z
M 891 1344 
Q 891 869 1089 633 
Q 1288 397 1691 397 
Q 2269 397 2648 901 
Q 3028 1406 3028 2181 
Q 3028 2634 2825 2865 
Q 2622 3097 2228 3097 
Q 1903 3097 1650 2945 
Q 1397 2794 1197 2484 
Q 1050 2253 970 1956 
Q 891 1659 891 1344 
z
" transform="scale(0.015625)"/>
      </defs>
      <use xlink:href="#DejaVuSans-Oblique-73" transform="translate(0 0.015625)"/>
      <use xlink:href="#DejaVuSans-Oblique-65" transform="translate(52.099609 0.015625)"/>
      <use xlink:href="#DejaVuSans-Oblique-72" transform="translate(113.623047 0.015625)"/>
      <use xlink:href="#DejaVuSans-Oblique-76" transform="translate(154.736328 0.015625)"/>
      <use xlink:href="#DejaVuSans-Oblique-69" transform="translate(213.916016 0.015625)"/>
      <use xlink:href="#DejaVuSans-Oblique-63" transform="translate(241.699219 0.015625)"/>
      <use xlink:href="#DejaVuSans-Oblique-65" transform="translate(296.679688 0.015625)"/>
      <use xlink:href="#DejaVuSans-Oblique-53" transform="translate(358.203125 0.015625)"/>
      <use xlink:href="#DejaVuSans-Oblique-65" transform="translate(421.679688 0.015625)"/>
      <use xlink:href="#DejaVuSans-Oblique-6c" transform="translate(483.203125 0.015625)"/>
      <use xlink:href="#DejaVuSans-Oblique-65" transform="translate(510.986328 0.015625)"/>
      <use xlink:href="#DejaVuSans-Oblique-63" transform="translate(572.509766 0.015625)"/>
      <use xlink:href="#DejaVuSans-Oblique-74" transform="translate(627.490234 0.015625)"/>
      <use xlink:href="#DejaVuSans-Oblique-69" transform="translate(666.699219 0.015625)"/>
      <use xlink:href="#DejaVuSans-Oblique-6f" transform="translate(694.482422 0.015625)"/>
      <use xlink:href="#DejaVuSans-Oblique-6e" transform="translate(755.664062 0.015625)"/>
     </g>
    </g>
    <g id="line2d_16">
     <path d="M 163.48 36.98125 
L 171.48 36.98125 
L 179.48 36.98125 
" style="fill: none; stroke-dasharray: 7.4,3.2; stroke-dashoffset: 0; stroke: #ff0000; stroke-width: 2"/>
    </g>
    <g id="text_15">
     <!-- Mean -->
     <g transform="translate(185.88 39.78125) scale(0.08 -0.08)">
      <defs>
       <path id="DejaVuSans-4d" d="M 628 4666 
L 1569 4666 
L 2759 1491 
L 3956 4666 
L 4897 4666 
L 4897 0 
L 4281 0 
L 4281 4097 
L 3078 897 
L 2444 897 
L 1241 4097 
L 1241 0 
L 628 0 
L 628 4666 
z
" transform="scale(0.015625)"/>
      </defs>
      <use xlink:href="#DejaVuSans-4d"/>
      <use xlink:href="#DejaVuSans-65" x="86.279297"/>
      <use xlink:href="#DejaVuSans-61" x="147.802734"/>
      <use xlink:href="#DejaVuSans-6e" x="209.082031"/>
     </g>
    </g>
    <g id="line2d_17">
     <path d="M 163.48 48.72375 
L 171.48 48.72375 
L 179.48 48.72375 
" style="fill: none; stroke-dasharray: 12.8,3.2,2,3.2; stroke-dashoffset: 0; stroke: #008000; stroke-width: 2"/>
    </g>
    <g id="text_16">
     <!-- Median -->
     <g transform="translate(185.88 51.52375) scale(0.08 -0.08)">
      <defs>
       <path id="DejaVuSans-64" d="M 2906 2969 
L 2906 4863 
L 3481 4863 
L 3481 0 
L 2906 0 
L 2906 525 
Q 2725 213 2448 61 
Q 2172 -91 1784 -91 
Q 1150 -91 751 415 
Q 353 922 353 1747 
Q 353 2572 751 3078 
Q 1150 3584 1784 3584 
Q 2172 3584 2448 3432 
Q 2725 3281 2906 2969 
z
M 947 1747 
Q 947 1113 1208 752 
Q 1469 391 1925 391 
Q 2381 391 2643 752 
Q 2906 1113 2906 1747 
Q 2906 2381 2643 2742 
Q 2381 3103 1925 3103 
Q 1469 3103 1208 2742 
Q 947 2381 947 1747 
z
" transform="scale(0.015625)"/>
       <path id="DejaVuSans-69" d="M 603 3500 
L 1178 3500 
L 1178 0 
L 603 0 
L 603 3500 
z
M 603 4863 
L 1178 4863 
L 1178 4134 
L 603 4134 
L 603 4863 
z
" transform="scale(0.015625)"/>
      </defs>
      <use xlink:href="#DejaVuSans-4d"/>
      <use xlink:href="#DejaVuSans-65" x="86.279297"/>
      <use xlink:href="#DejaVuSans-64" x="147.802734"/>
      <use xlink:href="#DejaVuSans-69" x="211.279297"/>
      <use xlink:href="#DejaVuSans-61" x="239.0625"/>
      <use xlink:href="#DejaVuSans-6e" x="300.341797"/>
     </g>
    </g>
    <g id="line2d_18">
     <path d="M 163.48 60.46625 
L 171.48 60.46625 
L 179.48 60.46625 
" style="fill: none; stroke-dasharray: 2,3.3; stroke-dashoffset: 0; stroke: #0000ff; stroke-width: 2"/>
    </g>
    <g id="text_17">
     <!-- 95th Percentile -->
     <g transform="translate(185.88 63.26625) scale(0.08 -0.08)">
      <defs>
       <path id="DejaVuSans-39" d="M 703 97 
L 703 672 
Q 941 559 1184 500 
Q 1428 441 1663 441 
Q 2288 441 2617 861 
Q 2947 1281 2994 2138 
Q 2813 1869 2534 1725 
Q 2256 1581 1919 1581 
Q 1219 1581 811 2004 
Q 403 2428 403 3163 
Q 403 3881 828 4315 
Q 1253 4750 1959 4750 
Q 2769 4750 3195 4129 
Q 3622 3509 3622 2328 
Q 3622 1225 3098 567 
Q 2575 -91 1691 -91 
Q 1453 -91 1209 -44 
Q 966 3 703 97 
z
M 1959 2075 
Q 2384 2075 2632 2365 
Q 2881 2656 2881 3163 
Q 2881 3666 2632 3958 
Q 2384 4250 1959 4250 
Q 1534 4250 1286 3958 
Q 1038 3666 1038 3163 
Q 1038 2656 1286 2365 
Q 1534 2075 1959 2075 
z
" transform="scale(0.015625)"/>
       <path id="DejaVuSans-35" d="M 691 4666 
L 3169 4666 
L 3169 4134 
L 1269 4134 
L 1269 2991 
Q 1406 3038 1543 3061 
Q 1681 3084 1819 3084 
Q 2600 3084 3056 2656 
Q 3513 2228 3513 1497 
Q 3513 744 3044 326 
Q 2575 -91 1722 -91 
Q 1428 -91 1123 -41 
Q 819 9 494 109 
L 494 744 
Q 775 591 1075 516 
Q 1375 441 1709 441 
Q 2250 441 2565 725 
Q 2881 1009 2881 1497 
Q 2881 1984 2565 2268 
Q 2250 2553 1709 2553 
Q 1456 2553 1204 2497 
Q 953 2441 691 2322 
L 691 4666 
z
" transform="scale(0.015625)"/>
       <path id="DejaVuSans-68" d="M 3513 2113 
L 3513 0 
L 2938 0 
L 2938 2094 
Q 2938 2591 2744 2837 
Q 2550 3084 2163 3084 
Q 1697 3084 1428 2787 
Q 1159 2491 1159 1978 
L 1159 0 
L 581 0 
L 581 4863 
L 1159 4863 
L 1159 2956 
Q 1366 3272 1645 3428 
Q 1925 3584 2291 3584 
Q 2894 3584 3203 3211 
Q 3513 2838 3513 2113 
z
" transform="scale(0.015625)"/>
       <path id="DejaVuSans-50" d="M 1259 4147 
L 1259 2394 
L 2053 2394 
Q 2494 2394 2734 2622 
Q 2975 2850 2975 3272 
Q 2975 3691 2734 3919 
Q 2494 4147 2053 4147 
L 1259 4147 
z
M 628 4666 
L 2053 4666 
Q 2838 4666 3239 4311 
Q 3641 3956 3641 3272 
Q 3641 2581 3239 2228 
Q 2838 1875 2053 1875 
L 1259 1875 
L 1259 0 
L 628 0 
L 628 4666 
z
" transform="scale(0.015625)"/>
       <path id="DejaVuSans-72" d="M 2631 2963 
Q 2534 3019 2420 3045 
Q 2306 3072 2169 3072 
Q 1681 3072 1420 2755 
Q 1159 2438 1159 1844 
L 1159 0 
L 581 0 
L 581 3500 
L 1159 3500 
L 1159 2956 
Q 1341 3275 1631 3429 
Q 1922 3584 2338 3584 
Q 2397 3584 2469 3576 
Q 2541 3569 2628 3553 
L 2631 2963 
z
" transform="scale(0.015625)"/>
       <path id="DejaVuSans-6c" d="M 603 4863 
L 1178 4863 
L 1178 0 
L 603 0 
L 603 4863 
z
" transform="scale(0.015625)"/>
      </defs>
      <use xlink:href="#DejaVuSans-39"/>
      <use xlink:href="#DejaVuSans-35" x="63.623047"/>
      <use xlink:href="#DejaVuSans-74" x="127.246094"/>
      <use xlink:href="#DejaVuSans-68" x="166.455078"/>
      <use xlink:href="#DejaVuSans-20" x="229.833984"/>
      <use xlink:href="#DejaVuSans-50" x="261.621094"/>
      <use xlink:href="#DejaVuSans-65" x="318.298828"/>
      <use xlink:href="#DejaVuSans-72" x="379.822266"/>
      <use xlink:href="#DejaVuSans-63" x="418.685547"/>
      <use xlink:href="#DejaVuSans-65" x="473.666016"/>
      <use xlink:href="#DejaVuSans-6e" x="535.189453"/>
      <use xlink:href="#DejaVuSans-74" x="598.568359"/>
      <use xlink:href="#DejaVuSans-69" x="637.777344"/>
      <use xlink:href="#DejaVuSans-6c" x="665.560547"/>
      <use xlink:href="#DejaVuSans-65" x="693.34375"/>
     </g>
    </g>
   </g>
  </g>
  <g id="axes_2">
   <g id="patch_9">
    <path d="M 272.98 174.04 
L 483.94 174.04 
L 483.94 14.76 
L 272.98 14.76 
z
" style="fill: #ffffff"/>
   </g>
   <g id="matplotlib.axis_3">
    <g id="xtick_5">
     <g id="line2d_19">
      <g>
       <use xlink:href="#mab333340f6" x="290.941558" y="174.04" style="stroke: #000000; stroke-width: 0.8"/>
      </g>
     </g>
     <g id="text_18">
      <!-- 10 -->
      <g transform="translate(284.579058 188.638438) scale(0.1 -0.1)">
       <use xlink:href="#DejaVuSans-31"/>
       <use xlink:href="#DejaVuSans-30" x="63.623047"/>
      </g>
     </g>
    </g>
    <g id="xtick_6">
     <g id="line2d_20">
      <g>
       <use xlink:href="#mab333340f6" x="343.269475" y="174.04" style="stroke: #000000; stroke-width: 0.8"/>
      </g>
     </g>
     <g id="text_19">
      <!-- 20 -->
      <g transform="translate(336.906975 188.638438) scale(0.1 -0.1)">
       <use xlink:href="#DejaVuSans-32"/>
       <use xlink:href="#DejaVuSans-30" x="63.623047"/>
      </g>
     </g>
    </g>
    <g id="xtick_7">
     <g id="line2d_21">
      <g>
       <use xlink:href="#mab333340f6" x="395.597393" y="174.04" style="stroke: #000000; stroke-width: 0.8"/>
      </g>
     </g>
     <g id="text_20">
      <!-- 30 -->
      <g transform="translate(389.234893 188.638438) scale(0.1 -0.1)">
       <use xlink:href="#DejaVuSans-33"/>
       <use xlink:href="#DejaVuSans-30" x="63.623047"/>
      </g>
     </g>
    </g>
    <g id="xtick_8">
     <g id="line2d_22">
      <g>
       <use xlink:href="#mab333340f6" x="447.925311" y="174.04" style="stroke: #000000; stroke-width: 0.8"/>
      </g>
     </g>
     <g id="text_21">
      <!-- 40 -->
      <g transform="translate(441.562811 188.638438) scale(0.1 -0.1)">
       <use xlink:href="#DejaVuSans-34"/>
       <use xlink:href="#DejaVuSans-30" x="63.623047"/>
      </g>
     </g>
    </g>
    <g id="text_22">
     <!-- Latency (s) -->
     <g transform="translate(350.600625 202.316563) scale(0.1 -0.1)">
      <use xlink:href="#DejaVuSans-4c"/>
      <use xlink:href="#DejaVuSans-61" x="55.712891"/>
      <use xlink:href="#DejaVuSans-74" x="116.992188"/>
      <use xlink:href="#DejaVuSans-65" x="156.201172"/>
      <use xlink:href="#DejaVuSans-6e" x="217.724609"/>
      <use xlink:href="#DejaVuSans-63" x="281.103516"/>
      <use xlink:href="#DejaVuSans-79" x="336.083984"/>
      <use xlink:href="#DejaVuSans-20" x="395.263672"/>
      <use xlink:href="#DejaVuSans-28" x="427.050781"/>
      <use xlink:href="#DejaVuSans-73" x="466.064453"/>
      <use xlink:href="#DejaVuSans-29" x="518.164062"/>
     </g>
    </g>
   </g>
   <g id="matplotlib.axis_4">
    <g id="ytick_7">
     <g id="line2d_23">
      <g>
       <use xlink:href="#m8474ebceb1" x="272.98" y="174.04" style="stroke: #000000; stroke-width: 0.8"/>
      </g>
     </g>
    </g>
    <g id="ytick_8">
     <g id="line2d_24">
      <g>
       <use xlink:href="#m8474ebceb1" x="272.98" y="142.184" style="stroke: #000000; stroke-width: 0.8"/>
      </g>
     </g>
    </g>
    <g id="ytick_9">
     <g id="line2d_25">
      <g>
       <use xlink:href="#m8474ebceb1" x="272.98" y="110.328" style="stroke: #000000; stroke-width: 0.8"/>
      </g>
     </g>
    </g>
    <g id="ytick_10">
     <g id="line2d_26">
      <g>
       <use xlink:href="#m8474ebceb1" x="272.98" y="78.472" style="stroke: #000000; stroke-width: 0.8"/>
      </g>
     </g>
    </g>
    <g id="ytick_11">
     <g id="line2d_27">
      <g>
       <use xlink:href="#m8474ebceb1" x="272.98" y="46.616" style="stroke: #000000; stroke-width: 0.8"/>
      </g>
     </g>
    </g>
    <g id="ytick_12">
     <g id="line2d_28">
      <g>
       <use xlink:href="#m8474ebceb1" x="272.98" y="14.76" style="stroke: #000000; stroke-width: 0.8"/>
      </g>
     </g>
    </g>
   </g>
   <g id="line2d_29">
    <path d="M 282.569091 174.04 
L 282.569091 172.851343 
L 285.080831 172.851343 
L 285.080831 171.662687 
L 286.284373 171.662687 
L 286.284373 170.47403 
L 286.964636 170.47403 
L 286.964636 169.285373 
L 287.226276 169.285373 
L 287.278603 166.90806 
L 289.319392 166.90806 
L 289.319392 165.719403 
L 292.982347 165.719403 
L 292.982347 164.530746 
L 296.854612 164.530746 
L 296.854612 163.34209 
L 297.011596 163.34209 
L 297.011596 162.153433 
L 297.16858 162.153433 
L 297.220908 158.587463 
L 298.42445 158.587463 
L 298.42445 157.398806 
L 298.790745 157.398806 
L 298.790745 155.021493 
L 299.000057 155.021493 
L 299.000057 152.644179 
L 299.575664 152.644179 
L 299.575664 151.455522 
L 299.94196 151.455522 
L 299.94196 150.266866 
L 300.203599 150.266866 
L 300.203599 149.078209 
L 301.302485 149.078209 
L 301.302485 146.700896 
L 301.668781 146.700896 
L 301.668781 144.323582 
L 302.976979 144.323582 
L 302.976979 143.134925 
L 303.238618 143.134925 
L 303.238618 141.946269 
L 303.395602 141.946269 
L 303.395602 140.757612 
L 303.604914 140.757612 
L 303.604914 139.568955 
L 305.593375 139.568955 
L 305.593375 138.380299 
L 322.28598 138.380299 
L 322.28598 137.191642 
L 324.745393 137.191642 
L 324.745393 136.002985 
L 327.30946 136.002985 
L 327.361788 131.248358 
L 340.077472 131.248358 
L 340.1298 128.871045 
L 340.234456 128.871045 
L 340.234456 127.682388 
L 340.39144 127.682388 
L 340.39144 126.493731 
L 340.705407 126.493731 
L 340.705407 124.116418 
L 341.38567 124.116418 
L 341.437998 121.739104 
L 341.594982 121.739104 
L 341.699638 118.173134 
L 341.804294 118.173134 
L 341.804294 116.984478 
L 342.170589 116.984478 
L 342.170589 115.795821 
L 342.432229 115.795821 
L 342.536885 113.418507 
L 342.798524 113.418507 
L 342.90318 111.041194 
L 343.16482 111.041194 
L 343.16482 109.852537 
L 343.531115 109.852537 
L 343.531115 108.663881 
L 344.106722 108.663881 
L 344.106722 107.475224 
L 344.682329 107.475224 
L 344.786985 103.909254 
L 344.996297 103.909254 
L 344.996297 102.720597 
L 345.519576 102.720597 
L 345.519576 100.343284 
L 346.723118 100.343284 
L 346.723118 99.154627 
L 347.298725 99.154627 
L 347.351053 95.588657 
L 347.455709 95.588657 
L 347.455709 94.4 
L 348.031316 94.4 
L 348.031316 93.211343 
L 349.130202 93.211343 
L 349.234858 89.645373 
L 349.44417 89.645373 
L 349.496498 87.26806 
L 349.653481 87.26806 
L 349.705809 84.890746 
L 349.862793 84.890746 
L 349.915121 80.136119 
L 350.019777 80.136119 
L 350.019777 78.947463 
L 350.281416 78.947463 
L 350.281416 77.758806 
L 350.543056 77.758806 
L 350.543056 76.570149 
L 350.857023 76.570149 
L 350.857023 74.192836 
L 351.014007 74.192836 
L 351.118663 71.815522 
L 351.484958 71.815522 
L 351.589614 69.438209 
L 351.69427 69.438209 
L 351.746598 67.060896 
L 352.008238 67.060896 
L 352.060566 63.494925 
L 353.368763 63.494925 
L 353.368763 62.306269 
L 354.153682 62.306269 
L 354.258338 59.928955 
L 357.293357 59.928955 
L 357.293357 58.740299 
L 357.554997 58.740299 
L 357.554997 56.362985 
L 357.711981 56.362985 
L 357.711981 55.174328 
L 357.868964 55.174328 
L 357.868964 53.985672 
L 361.165623 53.985672 
L 361.165623 52.797015 
L 361.74123 52.797015 
L 361.845886 46.853731 
L 361.898214 46.853731 
L 361.950542 44.476418 
L 362.159854 44.476418 
L 362.159854 43.287761 
L 362.316837 43.287761 
L 362.421493 39.721791 
L 362.473821 39.721791 
L 362.473821 38.533134 
L 362.630805 38.533134 
L 362.683133 36.155821 
L 362.892444 36.155821 
L 362.9971 32.589851 
L 363.049428 32.589851 
L 363.049428 31.401194 
L 363.206412 31.401194 
L 363.311068 26.646567 
L 363.363396 26.646567 
L 363.468052 21.89194 
L 363.572707 21.89194 
L 363.572707 19.514627 
L 363.834347 19.514627 
L 363.886675 17.137313 
L 363.991331 17.137313 
L 363.991331 15.948657 
L 416.162265 15.948657 
L 416.162265 14.76 
L 416.162265 14.76 
" clip-path="url(#p00d59cf800)" style="fill: none; stroke: #78c5ea; stroke-width: 1.5; stroke-linecap: square"/>
   </g>
   <g id="line2d_30">
    <path d="M 339.440946 174.04 
L 339.440946 14.76 
" clip-path="url(#p00d59cf800)" style="fill: none; stroke-dasharray: 5.55,2.4; stroke-dashoffset: 0; stroke: #ff0000; stroke-width: 1.5"/>
   </g>
   <g id="line2d_31">
    <path d="M 347.743512 174.04 
L 347.743512 14.76 
" clip-path="url(#p00d59cf800)" style="fill: none; stroke-dasharray: 9.6,2.4,1.5,2.4; stroke-dashoffset: 0; stroke: #008000; stroke-width: 1.5"/>
   </g>
   <g id="line2d_32">
    <path d="M 363.468052 174.04 
L 363.468052 14.76 
" clip-path="url(#p00d59cf800)" style="fill: none; stroke-dasharray: 1.5,2.475; stroke-dashoffset: 0; stroke: #0000ff; stroke-width: 1.5"/>
   </g>
   <g id="patch_10">
    <path d="M 272.98 174.04 
L 272.98 14.76 
" style="fill: none; stroke: #000000; stroke-width: 0.8; stroke-linejoin: miter; stroke-linecap: square"/>
   </g>
   <g id="patch_11">
    <path d="M 483.94 174.04 
L 483.94 14.76 
" style="fill: none; stroke: #000000; stroke-width: 0.8; stroke-linejoin: miter; stroke-linecap: square"/>
   </g>
   <g id="patch_12">
    <path d="M 272.98 174.04 
L 483.94 174.04 
" style="fill: none; stroke: #000000; stroke-width: 0.8; stroke-linejoin: miter; stroke-linecap: square"/>
   </g>
   <g id="patch_13">
    <path d="M 272.98 14.76 
L 483.94 14.76 
" style="fill: none; stroke: #000000; stroke-width: 0.8; stroke-linejoin: miter; stroke-linecap: square"/>
   </g>
   <g id="text_23">
    <g id="patch_14">
     <path d="M 427.2 165.98325 
L 466.56 165.98325 
L 466.56 150.24075 
L 427.2 150.24075 
z
" style="fill: #ffffff; opacity: 0.2; stroke: #000000; stroke-linejoin: miter"/>
    </g>
    <!-- $C_n$ = 26 -->
    <g transform="translate(431.2 160.3195) scale(0.08 -0.08)">
     <use xlink:href="#DejaVuSans-Oblique-43" transform="translate(0 0.78125)"/>
     <use xlink:href="#DejaVuSans-Oblique-6e" transform="translate(69.824219 -15.625) scale(0.7)"/>
     <use xlink:href="#DejaVuSans-20" transform="translate(116.923828 0.78125)"/>
     <use xlink:href="#DejaVuSans-3d" transform="translate(148.710938 0.78125)"/>
     <use xlink:href="#DejaVuSans-20" transform="translate(232.5 0.78125)"/>
     <use xlink:href="#DejaVuSans-32" transform="translate(264.287109 0.78125)"/>
     <use xlink:href="#DejaVuSans-36" transform="translate(327.910156 0.78125)"/>
    </g>
   </g>
  </g>
  <g id="axes_3">
   <g id="patch_15">
    <path d="M 498.24 174.04 
L 709.2 174.04 
L 709.2 14.76 
L 498.24 14.76 
z
" style="fill: #ffffff"/>
   </g>
   <g id="matplotlib.axis_5">
    <g id="xtick_9">
     <g id="line2d_33">
      <g>
       <use xlink:href="#mab333340f6" x="516.201558" y="174.04" style="stroke: #000000; stroke-width: 0.8"/>
      </g>
     </g>
     <g id="text_24">
      <!-- 10 -->
      <g transform="translate(509.839058 188.638438) scale(0.1 -0.1)">
       <use xlink:href="#DejaVuSans-31"/>
       <use xlink:href="#DejaVuSans-30" x="63.623047"/>
      </g>
     </g>
    </g>
    <g id="xtick_10">
     <g id="line2d_34">
      <g>
       <use xlink:href="#mab333340f6" x="568.529475" y="174.04" style="stroke: #000000; stroke-width: 0.8"/>
      </g>
     </g>
     <g id="text_25">
      <!-- 20 -->
      <g transform="translate(562.166975 188.638438) scale(0.1 -0.1)">
       <use xlink:href="#DejaVuSans-32"/>
       <use xlink:href="#DejaVuSans-30" x="63.623047"/>
      </g>
     </g>
    </g>
    <g id="xtick_11">
     <g id="line2d_35">
      <g>
       <use xlink:href="#mab333340f6" x="620.857393" y="174.04" style="stroke: #000000; stroke-width: 0.8"/>
      </g>
     </g>
     <g id="text_26">
      <!-- 30 -->
      <g transform="translate(614.494893 188.638438) scale(0.1 -0.1)">
       <use xlink:href="#DejaVuSans-33"/>
       <use xlink:href="#DejaVuSans-30" x="63.623047"/>
      </g>
     </g>
    </g>
    <g id="xtick_12">
     <g id="line2d_36">
      <g>
       <use xlink:href="#mab333340f6" x="673.185311" y="174.04" style="stroke: #000000; stroke-width: 0.8"/>
      </g>
     </g>
     <g id="text_27">
      <!-- 40 -->
      <g transform="translate(666.822811 188.638438) scale(0.1 -0.1)">
       <use xlink:href="#DejaVuSans-34"/>
       <use xlink:href="#DejaVuSans-30" x="63.623047"/>
      </g>
     </g>
    </g>
    <g id="text_28">
     <!-- Latency (s) -->
     <g transform="translate(575.860625 202.316563) scale(0.1 -0.1)">
      <use xlink:href="#DejaVuSans-4c"/>
      <use xlink:href="#DejaVuSans-61" x="55.712891"/>
      <use xlink:href="#DejaVuSans-74" x="116.992188"/>
      <use xlink:href="#DejaVuSans-65" x="156.201172"/>
      <use xlink:href="#DejaVuSans-6e" x="217.724609"/>
      <use xlink:href="#DejaVuSans-63" x="281.103516"/>
      <use xlink:href="#DejaVuSans-79" x="336.083984"/>
      <use xlink:href="#DejaVuSans-20" x="395.263672"/>
      <use xlink:href="#DejaVuSans-28" x="427.050781"/>
      <use xlink:href="#DejaVuSans-73" x="466.064453"/>
      <use xlink:href="#DejaVuSans-29" x="518.164062"/>
     </g>
    </g>
   </g>
   <g id="matplotlib.axis_6">
    <g id="ytick_13">
     <g id="line2d_37">
      <g>
       <use xlink:href="#m8474ebceb1" x="498.24" y="174.04" style="stroke: #000000; stroke-width: 0.8"/>
      </g>
     </g>
    </g>
    <g id="ytick_14">
     <g id="line2d_38">
      <g>
       <use xlink:href="#m8474ebceb1" x="498.24" y="142.184" style="stroke: #000000; stroke-width: 0.8"/>
      </g>
     </g>
    </g>
    <g id="ytick_15">
     <g id="line2d_39">
      <g>
       <use xlink:href="#m8474ebceb1" x="498.24" y="110.328" style="stroke: #000000; stroke-width: 0.8"/>
      </g>
     </g>
    </g>
    <g id="ytick_16">
     <g id="line2d_40">
      <g>
       <use xlink:href="#m8474ebceb1" x="498.24" y="78.472" style="stroke: #000000; stroke-width: 0.8"/>
      </g>
     </g>
    </g>
    <g id="ytick_17">
     <g id="line2d_41">
      <g>
       <use xlink:href="#m8474ebceb1" x="498.24" y="46.616" style="stroke: #000000; stroke-width: 0.8"/>
      </g>
     </g>
    </g>
    <g id="ytick_18">
     <g id="line2d_42">
      <g>
       <use xlink:href="#m8474ebceb1" x="498.24" y="14.76" style="stroke: #000000; stroke-width: 0.8"/>
      </g>
     </g>
    </g>
   </g>
   <g id="line2d_43">
    <path d="M 512.800243 174.04 
L 512.800243 173.55439 
L 515.730606 173.55439 
L 515.835262 172.583171 
L 516.096902 172.583171 
L 516.096902 172.097561 
L 516.986476 172.097561 
L 517.038804 171.126341 
L 517.562084 171.126341 
L 517.666739 170.155122 
L 517.771395 170.155122 
L 517.876051 168.698293 
L 518.66097 168.698293 
L 518.765626 167.241463 
L 518.817954 167.241463 
L 518.922609 166.270244 
L 519.131921 166.270244 
L 519.236577 164.327805 
L 519.288905 164.327805 
L 519.393561 163.356585 
L 526.667141 163.356585 
L 526.771797 162.385366 
L 527.399732 162.385366 
L 527.399732 161.899756 
L 527.975339 161.899756 
L 527.975339 161.414146 
L 528.812586 161.414146 
L 528.812586 160.928537 
L 530.539407 160.928537 
L 530.539407 160.442927 
L 535.301248 160.442927 
L 535.301248 159.957317 
L 541.371286 159.957317 
L 541.371286 159.471707 
L 541.894565 159.471707 
L 541.894565 158.986098 
L 543.202763 158.986098 
L 543.202763 158.500488 
L 543.621387 158.500488 
L 543.621387 158.014878 
L 544.196994 158.014878 
L 544.196994 157.529268 
L 545.871487 157.529268 
L 545.976143 156.558049 
L 546.080799 156.558049 
L 546.185455 155.10122 
L 553.982314 155.10122 
L 553.982314 154.61561 
L 554.976545 154.61561 
L 555.081201 153.64439 
L 556.808022 153.64439 
L 556.912678 152.187561 
L 558.325531 152.187561 
L 558.325531 151.701951 
L 559.529074 151.701951 
L 559.529074 151.216341 
L 559.738385 151.216341 
L 559.738385 150.730732 
L 560.157009 150.730732 
L 560.157009 150.245122 
L 560.62796 150.245122 
L 560.732616 149.273902 
L 560.784944 149.273902 
L 560.784944 148.788293 
L 561.255895 148.788293 
L 561.255895 148.302683 
L 561.465206 148.302683 
L 561.465206 147.817073 
L 561.88383 147.817073 
L 561.88383 147.331463 
L 562.302453 147.331463 
L 562.302453 146.845854 
L 562.564093 146.845854 
L 562.564093 146.360244 
L 563.453667 146.360244 
L 563.453667 145.874634 
L 563.610651 145.874634 
L 563.715307 143.932195 
L 563.872291 143.932195 
L 563.976947 141.989756 
L 565.232817 141.989756 
L 565.232817 141.504146 
L 565.3898 141.504146 
L 565.3898 141.018537 
L 565.65144 141.018537 
L 565.65144 140.532927 
L 565.860752 140.532927 
L 565.913079 139.076098 
L 566.017735 139.076098 
L 566.070063 138.104878 
L 566.174719 138.104878 
L 566.174719 137.619268 
L 566.331703 137.619268 
L 566.331703 137.133659 
L 566.488687 137.133659 
L 566.488687 136.648049 
L 566.697998 136.648049 
L 566.697998 136.162439 
L 567.273605 136.162439 
L 567.273605 135.676829 
L 567.482917 135.676829 
L 567.535245 134.70561 
L 568.16318 134.70561 
L 568.16318 134.22 
L 568.529475 134.22 
L 568.529475 133.73439 
L 569.105082 133.73439 
L 569.105082 133.24878 
L 569.68069 133.24878 
L 569.733017 131.306341 
L 570.203969 131.306341 
L 570.308625 130.335122 
L 570.67492 130.335122 
L 570.779576 128.392683 
L 570.884232 128.392683 
L 570.93656 126.935854 
L 571.041215 126.935854 
L 571.145871 124.507805 
L 571.250527 124.507805 
L 571.355183 123.050976 
L 571.407511 123.050976 
L 571.512167 122.079756 
L 571.564495 122.079756 
L 571.66915 119.651707 
L 571.721478 119.651707 
L 571.721478 118.680488 
L 571.878462 118.680488 
L 571.983118 117.223659 
L 572.087774 117.223659 
L 572.19243 115.766829 
L 572.297085 115.766829 
L 572.401741 114.79561 
L 572.506397 114.79561 
L 572.611053 112.853171 
L 572.715709 112.853171 
L 572.715709 111.881951 
L 573.029676 111.881951 
L 573.029676 110.910732 
L 573.343644 110.910732 
L 573.395972 109.939512 
L 573.866923 109.939512 
L 573.919251 108.968293 
L 574.023907 108.968293 
L 574.128563 107.997073 
L 574.18089 107.997073 
L 574.18089 107.025854 
L 574.337874 107.025854 
L 574.44253 106.054634 
L 574.70417 106.054634 
L 574.70417 105.083415 
L 574.861153 105.083415 
L 574.965809 104.112195 
L 575.436761 104.112195 
L 575.541416 103.140976 
L 575.646072 103.140976 
L 575.750728 101.684146 
L 575.907712 101.684146 
L 575.907712 101.198537 
L 576.117023 101.198537 
L 576.117023 100.712927 
L 576.483319 100.712927 
L 576.483319 100.227317 
L 577.163582 100.227317 
L 577.163582 99.741707 
L 577.320566 99.741707 
L 577.372893 98.284878 
L 577.686861 98.284878 
L 577.791517 97.313659 
L 577.843845 97.313659 
L 577.843845 96.828049 
L 578.419452 96.828049 
L 578.47178 95.856829 
L 578.576436 95.856829 
L 578.681091 93.91439 
L 578.733419 93.91439 
L 578.785747 92.943171 
L 578.942731 92.943171 
L 579.047387 91.971951 
L 579.361354 91.971951 
L 579.361354 91.486341 
L 579.622994 91.486341 
L 579.622994 91.000732 
L 579.884634 91.000732 
L 579.884634 90.515122 
L 580.041617 90.515122 
L 580.146273 89.058293 
L 580.512569 89.058293 
L 580.512569 88.572683 
L 580.669552 88.572683 
L 580.669552 88.087073 
L 580.931192 88.087073 
L 580.931192 87.601463 
L 581.245159 87.601463 
L 581.245159 87.115854 
L 581.663783 87.115854 
L 581.663783 86.630244 
L 581.820766 86.630244 
L 581.873094 85.659024 
L 582.762669 85.659024 
L 582.762669 85.173415 
L 583.390604 85.173415 
L 583.49526 84.202195 
L 583.756899 84.202195 
L 583.861555 82.745366 
L 584.227851 82.745366 
L 584.280179 81.288537 
L 584.384834 81.288537 
L 584.384834 80.317317 
L 584.541818 80.317317 
L 584.646474 77.889268 
L 584.698802 77.889268 
L 584.698802 76.918049 
L 584.855786 76.918049 
L 584.855786 75.946829 
L 585.117425 75.946829 
L 585.169753 74.49 
L 585.326737 74.49 
L 585.431393 73.033171 
L 586.634935 73.033171 
L 586.634935 72.547561 
L 587.472182 72.547561 
L 587.472182 72.061951 
L 587.838477 72.061951 
L 587.943133 70.605122 
L 587.995461 70.605122 
L 588.100117 68.662683 
L 588.2571 68.662683 
L 588.309428 67.691463 
L 588.466412 67.691463 
L 588.51874 66.720244 
L 588.78038 66.720244 
L 588.78038 66.234634 
L 589.251331 66.234634 
L 589.303659 65.263415 
L 589.408315 65.263415 
L 589.408315 64.777805 
L 589.826938 64.777805 
L 589.826938 64.292195 
L 590.559529 64.292195 
L 590.559529 63.806585 
L 591.239792 63.806585 
L 591.239792 63.320976 
L 593.908515 63.320976 
L 593.908515 62.835366 
L 600.972784 62.835366 
L 600.972784 62.349756 
L 605.682297 62.349756 
L 605.786953 59.921707 
L 605.943937 59.921707 
L 605.996264 58.950488 
L 611.856991 58.950488 
L 611.856991 58.464878 
L 612.066303 58.464878 
L 612.170959 57.493659 
L 612.223287 57.493659 
L 612.275615 56.522439 
L 612.38027 56.522439 
L 612.432598 55.55122 
L 612.537254 55.55122 
L 612.64191 54.58 
L 612.851222 54.58 
L 612.851222 54.09439 
L 613.112861 54.09439 
L 613.112861 53.60878 
L 613.950108 53.60878 
L 613.950108 53.123171 
L 619.392211 53.123171 
L 619.392211 52.637561 
L 619.863163 52.637561 
L 619.863163 52.151951 
L 620.334114 52.151951 
L 620.334114 51.666341 
L 620.962049 51.666341 
L 620.962049 51.180732 
L 622.113263 51.180732 
L 622.113263 50.695122 
L 622.270247 50.695122 
L 622.270247 50.209512 
L 623.892412 50.209512 
L 623.892412 49.723902 
L 627.450711 49.723902 
L 627.503039 48.752683 
L 627.71235 48.752683 
L 627.817006 47.781463 
L 628.235629 47.781463 
L 628.340285 46.324634 
L 628.392613 46.324634 
L 628.497269 43.410976 
L 628.549597 43.410976 
L 628.654253 41.954146 
L 628.706581 41.954146 
L 628.811237 40.011707 
L 629.125204 40.011707 
L 629.125204 39.040488 
L 629.386844 39.040488 
L 629.386844 38.554878 
L 629.700811 38.554878 
L 629.700811 38.069268 
L 629.857795 38.069268 
L 629.857795 37.583659 
L 630.119434 37.583659 
L 630.22409 36.126829 
L 634.724291 36.126829 
L 634.776619 35.15561 
L 634.881275 35.15561 
L 634.933603 33.69878 
L 635.038259 33.69878 
L 635.142915 32.241951 
L 635.24757 32.241951 
L 635.352226 31.270732 
L 635.613866 31.270732 
L 635.666194 29.813902 
L 635.875505 29.813902 
L 635.875505 29.328293 
L 636.032489 29.328293 
L 636.084817 27.871463 
L 636.241801 27.871463 
L 636.346457 26.414634 
L 636.398785 26.414634 
L 636.50344 25.443415 
L 636.76508 25.443415 
L 636.76508 24.472195 
L 637.654655 24.472195 
L 637.654655 23.986585 
L 637.811638 23.986585 
L 637.811638 23.500976 
L 640.166395 23.500976 
L 640.166395 23.015366 
L 640.585018 23.015366 
L 640.585018 22.529756 
L 645.189875 22.529756 
L 645.189875 22.044146 
L 645.399186 22.044146 
L 645.399186 21.558537 
L 645.660826 21.558537 
L 645.660826 20.587317 
L 645.81781 20.587317 
L 645.81781 19.616098 
L 650.631978 19.616098 
L 650.631978 19.130488 
L 651.102929 19.130488 
L 651.207585 17.188049 
L 661.987136 17.188049 
L 661.987136 16.702439 
L 675.016788 16.702439 
L 675.016788 16.216829 
L 697.936416 16.216829 
L 697.936416 15.73122 
L 698.773662 15.73122 
L 698.773662 15.24561 
L 699.610909 15.24561 
L 699.610909 14.76 
L 699.610909 14.76 
" clip-path="url(#pb5625c14d5)" style="fill: none; stroke: #78c5ea; stroke-width: 1.5; stroke-linecap: square"/>
   </g>
   <g id="line2d_44">
    <path d="M 586.190945 174.04 
L 586.190945 14.76 
" clip-path="url(#pb5625c14d5)" style="fill: none; stroke-dasharray: 5.55,2.4; stroke-dashoffset: 0; stroke: #ff0000; stroke-width: 1.5"/>
   </g>
   <g id="line2d_45">
    <path d="M 578.628763 174.04 
L 578.628763 14.76 
" clip-path="url(#pb5625c14d5)" style="fill: none; stroke-dasharray: 9.6,2.4,1.5,2.4; stroke-dashoffset: 0; stroke: #008000; stroke-width: 1.5"/>
   </g>
   <g id="line2d_46">
    <path d="M 640.4385 174.04 
L 640.4385 14.76 
" clip-path="url(#pb5625c14d5)" style="fill: none; stroke-dasharray: 1.5,2.475; stroke-dashoffset: 0; stroke: #0000ff; stroke-width: 1.5"/>
   </g>
   <g id="patch_16">
    <path d="M 498.24 174.04 
L 498.24 14.76 
" style="fill: none; stroke: #000000; stroke-width: 0.8; stroke-linejoin: miter; stroke-linecap: square"/>
   </g>
   <g id="patch_17">
    <path d="M 709.2 174.04 
L 709.2 14.76 
" style="fill: none; stroke: #000000; stroke-width: 0.8; stroke-linejoin: miter; stroke-linecap: square"/>
   </g>
   <g id="patch_18">
    <path d="M 498.24 174.04 
L 709.2 174.04 
" style="fill: none; stroke: #000000; stroke-width: 0.8; stroke-linejoin: miter; stroke-linecap: square"/>
   </g>
   <g id="patch_19">
    <path d="M 498.24 14.76 
L 709.2 14.76 
" style="fill: none; stroke: #000000; stroke-width: 0.8; stroke-linejoin: miter; stroke-linecap: square"/>
   </g>
   <g id="text_29">
    <g id="patch_20">
     <path d="M 652.46 165.98325 
L 691.82 165.98325 
L 691.82 150.24075 
L 652.46 150.24075 
z
" style="fill: #ffffff; opacity: 0.2; stroke: #000000; stroke-linejoin: miter"/>
    </g>
    <!-- $C_n$ = 50 -->
    <g transform="translate(656.46 160.3195) scale(0.08 -0.08)">
     <use xlink:href="#DejaVuSans-Oblique-43" transform="translate(0 0.78125)"/>
     <use xlink:href="#DejaVuSans-Oblique-6e" transform="translate(69.824219 -15.625) scale(0.7)"/>
     <use xlink:href="#DejaVuSans-20" transform="translate(116.923828 0.78125)"/>
     <use xlink:href="#DejaVuSans-3d" transform="translate(148.710938 0.78125)"/>
     <use xlink:href="#DejaVuSans-20" transform="translate(232.5 0.78125)"/>
     <use xlink:href="#DejaVuSans-35" transform="translate(264.287109 0.78125)"/>
     <use xlink:href="#DejaVuSans-30" transform="translate(327.910156 0.78125)"/>
    </g>
   </g>
  </g>
 </g>
 <defs>
  <clipPath id="p82496d3f62">
   <rect x="47.72" y="14.76" width="210.96" height="159.28"/>
  </clipPath>
  <clipPath id="p00d59cf800">
   <rect x="272.98" y="14.76" width="210.96" height="159.28"/>
  </clipPath>
  <clipPath id="pb5625c14d5">
   <rect x="498.24" y="14.76" width="210.96" height="159.28"/>
  </clipPath>
 </defs>
</svg>
