<?xml version="1.0" encoding="utf-8" standalone="no"?>
<!DOCTYPE svg PUBLIC "-//W3C//DTD SVG 1.1//EN"
  "http://www.w3.org/Graphics/SVG/1.1/DTD/svg11.dtd">
<svg xmlns:xlink="http://www.w3.org/1999/xlink" width="576pt" height="288pt" viewBox="0 0 576 288" xmlns="http://www.w3.org/2000/svg" version="1.1">
 <metadata>
  <rdf:RDF xmlns:dc="http://purl.org/dc/elements/1.1/" xmlns:cc="http://creativecommons.org/ns#" xmlns:rdf="http://www.w3.org/1999/02/22-rdf-syntax-ns#">
   <cc:Work>
    <dc:type rdf:resource="http://purl.org/dc/dcmitype/StillImage"/>
    <dc:date>2024-10-02T17:06:06.609134</dc:date>
    <dc:format>image/svg+xml</dc:format>
    <dc:creator>
     <cc:Agent>
      <dc:title>Matplotlib v3.7.2, https://matplotlib.org/</dc:title>
     </cc:Agent>
    </dc:creator>
   </cc:Work>
  </rdf:RDF>
 </metadata>
 <defs>
  <style type="text/css">*{stroke-linejoin: round; stroke-linecap: butt}</style>
 </defs>
 <g id="figure_1">
  <g id="patch_1">
   <path d="M 0 288 
L 576 288 
L 576 0 
L 0 0 
z
" style="fill: #ffffff"/>
  </g>
  <g id="axes_1">
   <g id="patch_2">
    <path d="M 44.57 244.312 
L 297.735 244.312 
L 297.735 11.541115 
L 44.57 11.541115 
z
" style="fill: #ffffff"/>
   </g>
   <g id="patch_3">
    <path d="M 57.22825 212.585839 
L 68.078179 212.585839 
L 68.078179 160.219668 
L 57.22825 160.219668 
L 57.22825 212.585839 
z
" clip-path="url(#p9de3097c21)" style="fill: #86c0dc; stroke: #6a6a6a; stroke-width: 1.5; stroke-linejoin: miter"/>
   </g>
   <g id="patch_4">
    <path d="M 93.394679 211.308926 
L 104.244607 211.308926 
L 104.244607 144.922259 
L 93.394679 144.922259 
L 93.394679 211.308926 
z
" clip-path="url(#p9de3097c21)" style="fill: #86c0dc; stroke: #6a6a6a; stroke-width: 1.5; stroke-linejoin: miter"/>
   </g>
   <g id="patch_5">
    <path d="M 129.561107 211.628154 
L 140.411036 211.628154 
L 140.411036 148.727458 
L 129.561107 148.727458 
L 129.561107 211.628154 
z
" clip-path="url(#p9de3097c21)" style="fill: #86c0dc; stroke: #6a6a6a; stroke-width: 1.5; stroke-linejoin: miter"/>
   </g>
   <g id="patch_6">
    <path d="M 165.727536 183.727622 
L 176.577464 183.727622 
L 176.577464 153.93726 
L 165.727536 153.93726 
L 165.727536 183.727622 
z
" clip-path="url(#p9de3097c21)" style="fill: #86c0dc; stroke: #6a6a6a; stroke-width: 1.5; stroke-linejoin: miter"/>
   </g>
   <g id="patch_7">
    <path d="M 201.893964 170.741425 
L 212.743893 170.741425 
L 212.743893 113.842216 
L 201.893964 113.842216 
L 201.893964 170.741425 
z
" clip-path="url(#p9de3097c21)" style="fill: #86c0dc; stroke: #6a6a6a; stroke-width: 1.5; stroke-linejoin: miter"/>
   </g>
   <g id="patch_8">
    <path d="M 238.060393 184.20008 
L 248.910321 184.20008 
L 248.910321 107.419347 
L 238.060393 107.419347 
L 238.060393 184.20008 
z
" clip-path="url(#p9de3097c21)" style="fill: #86c0dc; stroke: #6a6a6a; stroke-width: 1.5; stroke-linejoin: miter"/>
   </g>
   <g id="patch_9">
    <path d="M 274.226821 168.238677 
L 285.07675 168.238677 
L 285.07675 125.040736 
L 274.226821 125.040736 
L 274.226821 168.238677 
z
" clip-path="url(#p9de3097c21)" style="fill: #86c0dc; stroke: #6a6a6a; stroke-width: 1.5; stroke-linejoin: miter"/>
   </g>
   <g id="matplotlib.axis_1">
    <g id="xtick_1">
     <g id="line2d_1">
      <defs>
       <path id="m8a6a8442dd" d="M 0 0 
L 0 3.5 
" style="stroke: #000000; stroke-width: 0.8"/>
      </defs>
      <g>
       <use xlink:href="#m8a6a8442dd" x="62.653214" y="244.312" style="stroke: #000000; stroke-width: 0.8"/>
      </g>
     </g>
     <g id="text_1">
      <!-- 2 -->
      <g transform="translate(59.471964 258.910438) scale(0.1 -0.1)">
       <defs>
        <path id="DejaVuSans-32" d="M 1228 531 
L 3431 531 
L 3431 0 
L 469 0 
L 469 531 
Q 828 903 1448 1529 
Q 2069 2156 2228 2338 
Q 2531 2678 2651 2914 
Q 2772 3150 2772 3378 
Q 2772 3750 2511 3984 
Q 2250 4219 1831 4219 
Q 1534 4219 1204 4116 
Q 875 4013 500 3803 
L 500 4441 
Q 881 4594 1212 4672 
Q 1544 4750 1819 4750 
Q 2544 4750 2975 4387 
Q 3406 4025 3406 3419 
Q 3406 3131 3298 2873 
Q 3191 2616 2906 2266 
Q 2828 2175 2409 1742 
Q 1991 1309 1228 531 
z
" transform="scale(0.015625)"/>
       </defs>
       <use xlink:href="#DejaVuSans-32"/>
      </g>
     </g>
    </g>
    <g id="xtick_2">
     <g id="line2d_2">
      <g>
       <use xlink:href="#m8a6a8442dd" x="98.819643" y="244.312" style="stroke: #000000; stroke-width: 0.8"/>
      </g>
     </g>
     <g id="text_2">
      <!-- 10 -->
      <g transform="translate(92.457143 258.910438) scale(0.1 -0.1)">
       <defs>
        <path id="DejaVuSans-31" d="M 794 531 
L 1825 531 
L 1825 4091 
L 703 3866 
L 703 4441 
L 1819 4666 
L 2450 4666 
L 2450 531 
L 3481 531 
L 3481 0 
L 794 0 
L 794 531 
z
" transform="scale(0.015625)"/>
        <path id="DejaVuSans-30" d="M 2034 4250 
Q 1547 4250 1301 3770 
Q 1056 3291 1056 2328 
Q 1056 1369 1301 889 
Q 1547 409 2034 409 
Q 2525 409 2770 889 
Q 3016 1369 3016 2328 
Q 3016 3291 2770 3770 
Q 2525 4250 2034 4250 
z
M 2034 4750 
Q 2819 4750 3233 4129 
Q 3647 3509 3647 2328 
Q 3647 1150 3233 529 
Q 2819 -91 2034 -91 
Q 1250 -91 836 529 
Q 422 1150 422 2328 
Q 422 3509 836 4129 
Q 1250 4750 2034 4750 
z
" transform="scale(0.015625)"/>
       </defs>
       <use xlink:href="#DejaVuSans-31"/>
       <use xlink:href="#DejaVuSans-30" x="63.623047"/>
      </g>
     </g>
    </g>
    <g id="xtick_3">
     <g id="line2d_3">
      <g>
       <use xlink:href="#m8a6a8442dd" x="134.986071" y="244.312" style="stroke: #000000; stroke-width: 0.8"/>
      </g>
     </g>
     <g id="text_3">
      <!-- 18 -->
      <g transform="translate(128.623571 258.910438) scale(0.1 -0.1)">
       <defs>
        <path id="DejaVuSans-38" d="M 2034 2216 
Q 1584 2216 1326 1975 
Q 1069 1734 1069 1313 
Q 1069 891 1326 650 
Q 1584 409 2034 409 
Q 2484 409 2743 651 
Q 3003 894 3003 1313 
Q 3003 1734 2745 1975 
Q 2488 2216 2034 2216 
z
M 1403 2484 
Q 997 2584 770 2862 
Q 544 3141 544 3541 
Q 544 4100 942 4425 
Q 1341 4750 2034 4750 
Q 2731 4750 3128 4425 
Q 3525 4100 3525 3541 
Q 3525 3141 3298 2862 
Q 3072 2584 2669 2484 
Q 3125 2378 3379 2068 
Q 3634 1759 3634 1313 
Q 3634 634 3220 271 
Q 2806 -91 2034 -91 
Q 1263 -91 848 271 
Q 434 634 434 1313 
Q 434 1759 690 2068 
Q 947 2378 1403 2484 
z
M 1172 3481 
Q 1172 3119 1398 2916 
Q 1625 2713 2034 2713 
Q 2441 2713 2670 2916 
Q 2900 3119 2900 3481 
Q 2900 3844 2670 4047 
Q 2441 4250 2034 4250 
Q 1625 4250 1398 4047 
Q 1172 3844 1172 3481 
z
" transform="scale(0.015625)"/>
       </defs>
       <use xlink:href="#DejaVuSans-31"/>
       <use xlink:href="#DejaVuSans-38" x="63.623047"/>
      </g>
     </g>
    </g>
    <g id="xtick_4">
     <g id="line2d_4">
      <g>
       <use xlink:href="#m8a6a8442dd" x="171.1525" y="244.312" style="stroke: #000000; stroke-width: 0.8"/>
      </g>
     </g>
     <g id="text_4">
      <!-- 26 -->
      <g transform="translate(164.79 258.910438) scale(0.1 -0.1)">
       <defs>
        <path id="DejaVuSans-36" d="M 2113 2584 
Q 1688 2584 1439 2293 
Q 1191 2003 1191 1497 
Q 1191 994 1439 701 
Q 1688 409 2113 409 
Q 2538 409 2786 701 
Q 3034 994 3034 1497 
Q 3034 2003 2786 2293 
Q 2538 2584 2113 2584 
z
M 3366 4563 
L 3366 3988 
Q 3128 4100 2886 4159 
Q 2644 4219 2406 4219 
Q 1781 4219 1451 3797 
Q 1122 3375 1075 2522 
Q 1259 2794 1537 2939 
Q 1816 3084 2150 3084 
Q 2853 3084 3261 2657 
Q 3669 2231 3669 1497 
Q 3669 778 3244 343 
Q 2819 -91 2113 -91 
Q 1303 -91 875 529 
Q 447 1150 447 2328 
Q 447 3434 972 4092 
Q 1497 4750 2381 4750 
Q 2619 4750 2861 4703 
Q 3103 4656 3366 4563 
z
" transform="scale(0.015625)"/>
       </defs>
       <use xlink:href="#DejaVuSans-32"/>
       <use xlink:href="#DejaVuSans-36" x="63.623047"/>
      </g>
     </g>
    </g>
    <g id="xtick_5">
     <g id="line2d_5">
      <g>
       <use xlink:href="#m8a6a8442dd" x="207.318929" y="244.312" style="stroke: #000000; stroke-width: 0.8"/>
      </g>
     </g>
     <g id="text_5">
      <!-- 34 -->
      <g transform="translate(200.956429 258.910438) scale(0.1 -0.1)">
       <defs>
        <path id="DejaVuSans-33" d="M 2597 2516 
Q 3050 2419 3304 2112 
Q 3559 1806 3559 1356 
Q 3559 666 3084 287 
Q 2609 -91 1734 -91 
Q 1441 -91 1130 -33 
Q 819 25 488 141 
L 488 750 
Q 750 597 1062 519 
Q 1375 441 1716 441 
Q 2309 441 2620 675 
Q 2931 909 2931 1356 
Q 2931 1769 2642 2001 
Q 2353 2234 1838 2234 
L 1294 2234 
L 1294 2753 
L 1863 2753 
Q 2328 2753 2575 2939 
Q 2822 3125 2822 3475 
Q 2822 3834 2567 4026 
Q 2313 4219 1838 4219 
Q 1578 4219 1281 4162 
Q 984 4106 628 3988 
L 628 4550 
Q 988 4650 1302 4700 
Q 1616 4750 1894 4750 
Q 2613 4750 3031 4423 
Q 3450 4097 3450 3541 
Q 3450 3153 3228 2886 
Q 3006 2619 2597 2516 
z
" transform="scale(0.015625)"/>
        <path id="DejaVuSans-34" d="M 2419 4116 
L 825 1625 
L 2419 1625 
L 2419 4116 
z
M 2253 4666 
L 3047 4666 
L 3047 1625 
L 3713 1625 
L 3713 1100 
L 3047 1100 
L 3047 0 
L 2419 0 
L 2419 1100 
L 313 1100 
L 313 1709 
L 2253 4666 
z
" transform="scale(0.015625)"/>
       </defs>
       <use xlink:href="#DejaVuSans-33"/>
       <use xlink:href="#DejaVuSans-34" x="63.623047"/>
      </g>
     </g>
    </g>
    <g id="xtick_6">
     <g id="line2d_6">
      <g>
       <use xlink:href="#m8a6a8442dd" x="243.485357" y="244.312" style="stroke: #000000; stroke-width: 0.8"/>
      </g>
     </g>
     <g id="text_6">
      <!-- 42 -->
      <g transform="translate(237.122857 258.910438) scale(0.1 -0.1)">
       <use xlink:href="#DejaVuSans-34"/>
       <use xlink:href="#DejaVuSans-32" x="63.623047"/>
      </g>
     </g>
    </g>
    <g id="xtick_7">
     <g id="line2d_7">
      <g>
       <use xlink:href="#m8a6a8442dd" x="279.651786" y="244.312" style="stroke: #000000; stroke-width: 0.8"/>
      </g>
     </g>
     <g id="text_7">
      <!-- 50 -->
      <g transform="translate(273.289286 258.910438) scale(0.1 -0.1)">
       <defs>
        <path id="DejaVuSans-35" d="M 691 4666 
L 3169 4666 
L 3169 4134 
L 1269 4134 
L 1269 2991 
Q 1406 3038 1543 3061 
Q 1681 3084 1819 3084 
Q 2600 3084 3056 2656 
Q 3513 2228 3513 1497 
Q 3513 744 3044 326 
Q 2575 -91 1722 -91 
Q 1428 -91 1123 -41 
Q 819 9 494 109 
L 494 744 
Q 775 591 1075 516 
Q 1375 441 1709 441 
Q 2250 441 2565 725 
Q 2881 1009 2881 1497 
Q 2881 1984 2565 2268 
Q 2250 2553 1709 2553 
Q 1456 2553 1204 2497 
Q 953 2441 691 2322 
L 691 4666 
z
" transform="scale(0.015625)"/>
       </defs>
       <use xlink:href="#DejaVuSans-35"/>
       <use xlink:href="#DejaVuSans-30" x="63.623047"/>
      </g>
     </g>
    </g>
    <g id="text_8">
     <!-- Batch Size -->
     <g transform="translate(144.926719 272.588563) scale(0.1 -0.1)">
      <defs>
       <path id="DejaVuSans-42" d="M 1259 2228 
L 1259 519 
L 2272 519 
Q 2781 519 3026 730 
Q 3272 941 3272 1375 
Q 3272 1813 3026 2020 
Q 2781 2228 2272 2228 
L 1259 2228 
z
M 1259 4147 
L 1259 2741 
L 2194 2741 
Q 2656 2741 2882 2914 
Q 3109 3088 3109 3444 
Q 3109 3797 2882 3972 
Q 2656 4147 2194 4147 
L 1259 4147 
z
M 628 4666 
L 2241 4666 
Q 2963 4666 3353 4366 
Q 3744 4066 3744 3513 
Q 3744 3084 3544 2831 
Q 3344 2578 2956 2516 
Q 3422 2416 3680 2098 
Q 3938 1781 3938 1306 
Q 3938 681 3513 340 
Q 3088 0 2303 0 
L 628 0 
L 628 4666 
z
" transform="scale(0.015625)"/>
       <path id="DejaVuSans-61" d="M 2194 1759 
Q 1497 1759 1228 1600 
Q 959 1441 959 1056 
Q 959 750 1161 570 
Q 1363 391 1709 391 
Q 2188 391 2477 730 
Q 2766 1069 2766 1631 
L 2766 1759 
L 2194 1759 
z
M 3341 1997 
L 3341 0 
L 2766 0 
L 2766 531 
Q 2569 213 2275 61 
Q 1981 -91 1556 -91 
Q 1019 -91 701 211 
Q 384 513 384 1019 
Q 384 1609 779 1909 
Q 1175 2209 1959 2209 
L 2766 2209 
L 2766 2266 
Q 2766 2663 2505 2880 
Q 2244 3097 1772 3097 
Q 1472 3097 1187 3025 
Q 903 2953 641 2809 
L 641 3341 
Q 956 3463 1253 3523 
Q 1550 3584 1831 3584 
Q 2591 3584 2966 3190 
Q 3341 2797 3341 1997 
z
" transform="scale(0.015625)"/>
       <path id="DejaVuSans-74" d="M 1172 4494 
L 1172 3500 
L 2356 3500 
L 2356 3053 
L 1172 3053 
L 1172 1153 
Q 1172 725 1289 603 
Q 1406 481 1766 481 
L 2356 481 
L 2356 0 
L 1766 0 
Q 1100 0 847 248 
Q 594 497 594 1153 
L 594 3053 
L 172 3053 
L 172 3500 
L 594 3500 
L 594 4494 
L 1172 4494 
z
" transform="scale(0.015625)"/>
       <path id="DejaVuSans-63" d="M 3122 3366 
L 3122 2828 
Q 2878 2963 2633 3030 
Q 2388 3097 2138 3097 
Q 1578 3097 1268 2742 
Q 959 2388 959 1747 
Q 959 1106 1268 751 
Q 1578 397 2138 397 
Q 2388 397 2633 464 
Q 2878 531 3122 666 
L 3122 134 
Q 2881 22 2623 -34 
Q 2366 -91 2075 -91 
Q 1284 -91 818 406 
Q 353 903 353 1747 
Q 353 2603 823 3093 
Q 1294 3584 2113 3584 
Q 2378 3584 2631 3529 
Q 2884 3475 3122 3366 
z
" transform="scale(0.015625)"/>
       <path id="DejaVuSans-68" d="M 3513 2113 
L 3513 0 
L 2938 0 
L 2938 2094 
Q 2938 2591 2744 2837 
Q 2550 3084 2163 3084 
Q 1697 3084 1428 2787 
Q 1159 2491 1159 1978 
L 1159 0 
L 581 0 
L 581 4863 
L 1159 4863 
L 1159 2956 
Q 1366 3272 1645 3428 
Q 1925 3584 2291 3584 
Q 2894 3584 3203 3211 
Q 3513 2838 3513 2113 
z
" transform="scale(0.015625)"/>
       <path id="DejaVuSans-20" transform="scale(0.015625)"/>
       <path id="DejaVuSans-53" d="M 3425 4513 
L 3425 3897 
Q 3066 4069 2747 4153 
Q 2428 4238 2131 4238 
Q 1616 4238 1336 4038 
Q 1056 3838 1056 3469 
Q 1056 3159 1242 3001 
Q 1428 2844 1947 2747 
L 2328 2669 
Q 3034 2534 3370 2195 
Q 3706 1856 3706 1288 
Q 3706 609 3251 259 
Q 2797 -91 1919 -91 
Q 1588 -91 1214 -16 
Q 841 59 441 206 
L 441 856 
Q 825 641 1194 531 
Q 1563 422 1919 422 
Q 2459 422 2753 634 
Q 3047 847 3047 1241 
Q 3047 1584 2836 1778 
Q 2625 1972 2144 2069 
L 1759 2144 
Q 1053 2284 737 2584 
Q 422 2884 422 3419 
Q 422 4038 858 4394 
Q 1294 4750 2059 4750 
Q 2388 4750 2728 4690 
Q 3069 4631 3425 4513 
z
" transform="scale(0.015625)"/>
       <path id="DejaVuSans-69" d="M 603 3500 
L 1178 3500 
L 1178 0 
L 603 0 
L 603 3500 
z
M 603 4863 
L 1178 4863 
L 1178 4134 
L 603 4134 
L 603 4863 
z
" transform="scale(0.015625)"/>
       <path id="DejaVuSans-7a" d="M 353 3500 
L 3084 3500 
L 3084 2975 
L 922 459 
L 3084 459 
L 3084 0 
L 275 0 
L 275 525 
L 2438 3041 
L 353 3041 
L 353 3500 
z
" transform="scale(0.015625)"/>
       <path id="DejaVuSans-65" d="M 3597 1894 
L 3597 1613 
L 953 1613 
Q 991 1019 1311 708 
Q 1631 397 2203 397 
Q 2534 397 2845 478 
Q 3156 559 3463 722 
L 3463 178 
Q 3153 47 2828 -22 
Q 2503 -91 2169 -91 
Q 1331 -91 842 396 
Q 353 884 353 1716 
Q 353 2575 817 3079 
Q 1281 3584 2069 3584 
Q 2775 3584 3186 3129 
Q 3597 2675 3597 1894 
z
M 3022 2063 
Q 3016 2534 2758 2815 
Q 2500 3097 2075 3097 
Q 1594 3097 1305 2825 
Q 1016 2553 972 2059 
L 3022 2063 
z
" transform="scale(0.015625)"/>
      </defs>
      <use xlink:href="#DejaVuSans-42"/>
      <use xlink:href="#DejaVuSans-61" x="68.603516"/>
      <use xlink:href="#DejaVuSans-74" x="129.882812"/>
      <use xlink:href="#DejaVuSans-63" x="169.091797"/>
      <use xlink:href="#DejaVuSans-68" x="224.072266"/>
      <use xlink:href="#DejaVuSans-20" x="287.451172"/>
      <use xlink:href="#DejaVuSans-53" x="319.238281"/>
      <use xlink:href="#DejaVuSans-69" x="382.714844"/>
      <use xlink:href="#DejaVuSans-7a" x="410.498047"/>
      <use xlink:href="#DejaVuSans-65" x="462.988281"/>
     </g>
    </g>
   </g>
   <g id="matplotlib.axis_2">
    <g id="ytick_1">
     <g id="line2d_8">
      <defs>
       <path id="me60d3c8475" d="M 0 0 
L -3.5 0 
" style="stroke: #000000; stroke-width: 0.8"/>
      </defs>
      <g>
       <use xlink:href="#me60d3c8475" x="44.57" y="219.225782" style="stroke: #000000; stroke-width: 0.8"/>
      </g>
     </g>
     <g id="text_9">
      <!-- 10 -->
      <g transform="translate(24.845 223.025001) scale(0.1 -0.1)">
       <use xlink:href="#DejaVuSans-31"/>
       <use xlink:href="#DejaVuSans-30" x="63.623047"/>
      </g>
     </g>
    </g>
    <g id="ytick_2">
     <g id="line2d_9">
      <g>
       <use xlink:href="#me60d3c8475" x="44.57" y="168.149293" style="stroke: #000000; stroke-width: 0.8"/>
      </g>
     </g>
     <g id="text_10">
      <!-- 20 -->
      <g transform="translate(24.845 171.948512) scale(0.1 -0.1)">
       <use xlink:href="#DejaVuSans-32"/>
       <use xlink:href="#DejaVuSans-30" x="63.623047"/>
      </g>
     </g>
    </g>
    <g id="ytick_3">
     <g id="line2d_10">
      <g>
       <use xlink:href="#me60d3c8475" x="44.57" y="117.072804" style="stroke: #000000; stroke-width: 0.8"/>
      </g>
     </g>
     <g id="text_11">
      <!-- 30 -->
      <g transform="translate(24.845 120.872022) scale(0.1 -0.1)">
       <use xlink:href="#DejaVuSans-33"/>
       <use xlink:href="#DejaVuSans-30" x="63.623047"/>
      </g>
     </g>
    </g>
    <g id="ytick_4">
     <g id="line2d_11">
      <g>
       <use xlink:href="#me60d3c8475" x="44.57" y="65.996314" style="stroke: #000000; stroke-width: 0.8"/>
      </g>
     </g>
     <g id="text_12">
      <!-- 40 -->
      <g transform="translate(24.845 69.795533) scale(0.1 -0.1)">
       <use xlink:href="#DejaVuSans-34"/>
       <use xlink:href="#DejaVuSans-30" x="63.623047"/>
      </g>
     </g>
    </g>
    <g id="ytick_5">
     <g id="line2d_12">
      <g>
       <use xlink:href="#me60d3c8475" x="44.57" y="14.919825" style="stroke: #000000; stroke-width: 0.8"/>
      </g>
     </g>
     <g id="text_13">
      <!-- 50 -->
      <g transform="translate(24.845 18.719044) scale(0.1 -0.1)">
       <use xlink:href="#DejaVuSans-35"/>
       <use xlink:href="#DejaVuSans-30" x="63.623047"/>
      </g>
     </g>
    </g>
    <g id="text_14">
     <!-- Latency (s) -->
     <g transform="translate(18.765313 155.785933) rotate(-90) scale(0.1 -0.1)">
      <defs>
       <path id="DejaVuSans-4c" d="M 628 4666 
L 1259 4666 
L 1259 531 
L 3531 531 
L 3531 0 
L 628 0 
L 628 4666 
z
" transform="scale(0.015625)"/>
       <path id="DejaVuSans-6e" d="M 3513 2113 
L 3513 0 
L 2938 0 
L 2938 2094 
Q 2938 2591 2744 2837 
Q 2550 3084 2163 3084 
Q 1697 3084 1428 2787 
Q 1159 2491 1159 1978 
L 1159 0 
L 581 0 
L 581 3500 
L 1159 3500 
L 1159 2956 
Q 1366 3272 1645 3428 
Q 1925 3584 2291 3584 
Q 2894 3584 3203 3211 
Q 3513 2838 3513 2113 
z
" transform="scale(0.015625)"/>
       <path id="DejaVuSans-79" d="M 2059 -325 
Q 1816 -950 1584 -1140 
Q 1353 -1331 966 -1331 
L 506 -1331 
L 506 -850 
L 844 -850 
Q 1081 -850 1212 -737 
Q 1344 -625 1503 -206 
L 1606 56 
L 191 3500 
L 800 3500 
L 1894 763 
L 2988 3500 
L 3597 3500 
L 2059 -325 
z
" transform="scale(0.015625)"/>
       <path id="DejaVuSans-28" d="M 1984 4856 
Q 1566 4138 1362 3434 
Q 1159 2731 1159 2009 
Q 1159 1288 1364 580 
Q 1569 -128 1984 -844 
L 1484 -844 
Q 1016 -109 783 600 
Q 550 1309 550 2009 
Q 550 2706 781 3412 
Q 1013 4119 1484 4856 
L 1984 4856 
z
" transform="scale(0.015625)"/>
       <path id="DejaVuSans-73" d="M 2834 3397 
L 2834 2853 
Q 2591 2978 2328 3040 
Q 2066 3103 1784 3103 
Q 1356 3103 1142 2972 
Q 928 2841 928 2578 
Q 928 2378 1081 2264 
Q 1234 2150 1697 2047 
L 1894 2003 
Q 2506 1872 2764 1633 
Q 3022 1394 3022 966 
Q 3022 478 2636 193 
Q 2250 -91 1575 -91 
Q 1294 -91 989 -36 
Q 684 19 347 128 
L 347 722 
Q 666 556 975 473 
Q 1284 391 1588 391 
Q 1994 391 2212 530 
Q 2431 669 2431 922 
Q 2431 1156 2273 1281 
Q 2116 1406 1581 1522 
L 1381 1569 
Q 847 1681 609 1914 
Q 372 2147 372 2553 
Q 372 3047 722 3315 
Q 1072 3584 1716 3584 
Q 2034 3584 2315 3537 
Q 2597 3491 2834 3397 
z
" transform="scale(0.015625)"/>
       <path id="DejaVuSans-29" d="M 513 4856 
L 1013 4856 
Q 1481 4119 1714 3412 
Q 1947 2706 1947 2009 
Q 1947 1309 1714 600 
Q 1481 -109 1013 -844 
L 513 -844 
Q 928 -128 1133 580 
Q 1338 1288 1338 2009 
Q 1338 2731 1133 3434 
Q 928 4138 513 4856 
z
" transform="scale(0.015625)"/>
      </defs>
      <use xlink:href="#DejaVuSans-4c"/>
      <use xlink:href="#DejaVuSans-61" x="55.712891"/>
      <use xlink:href="#DejaVuSans-74" x="116.992188"/>
      <use xlink:href="#DejaVuSans-65" x="156.201172"/>
      <use xlink:href="#DejaVuSans-6e" x="217.724609"/>
      <use xlink:href="#DejaVuSans-63" x="281.103516"/>
      <use xlink:href="#DejaVuSans-79" x="336.083984"/>
      <use xlink:href="#DejaVuSans-20" x="395.263672"/>
      <use xlink:href="#DejaVuSans-28" x="427.050781"/>
      <use xlink:href="#DejaVuSans-73" x="466.064453"/>
      <use xlink:href="#DejaVuSans-29" x="518.164062"/>
     </g>
    </g>
   </g>
   <g id="line2d_13">
    <path d="M 62.653214 212.585839 
L 62.653214 212.585839 
" clip-path="url(#p9de3097c21)" style="fill: none; stroke: #6a6a6a; stroke-width: 1.5; stroke-linecap: square"/>
   </g>
   <g id="line2d_14">
    <path d="M 62.653214 160.219668 
L 62.653214 130.454844 
" clip-path="url(#p9de3097c21)" style="fill: none; stroke: #6a6a6a; stroke-width: 1.5; stroke-linecap: square"/>
   </g>
   <g id="line2d_15">
    <path d="M 59.940732 212.585839 
L 65.365696 212.585839 
" clip-path="url(#p9de3097c21)" style="fill: none; stroke: #6a6a6a; stroke-width: 1.5; stroke-linecap: square"/>
   </g>
   <g id="line2d_16">
    <path d="M 59.940732 130.454844 
L 65.365696 130.454844 
" clip-path="url(#p9de3097c21)" style="fill: none; stroke: #6a6a6a; stroke-width: 1.5; stroke-linecap: square"/>
   </g>
   <g id="line2d_17"/>
   <g id="line2d_18">
    <path d="M 98.819643 211.308926 
L 98.819643 227.704479 
" clip-path="url(#p9de3097c21)" style="fill: none; stroke: #6a6a6a; stroke-width: 1.5; stroke-linecap: square"/>
   </g>
   <g id="line2d_19">
    <path d="M 98.819643 144.922259 
L 98.819643 92.760395 
" clip-path="url(#p9de3097c21)" style="fill: none; stroke: #6a6a6a; stroke-width: 1.5; stroke-linecap: square"/>
   </g>
   <g id="line2d_20">
    <path d="M 96.107161 227.704479 
L 101.532125 227.704479 
" clip-path="url(#p9de3097c21)" style="fill: none; stroke: #6a6a6a; stroke-width: 1.5; stroke-linecap: square"/>
   </g>
   <g id="line2d_21">
    <path d="M 96.107161 92.760395 
L 101.532125 92.760395 
" clip-path="url(#p9de3097c21)" style="fill: none; stroke: #6a6a6a; stroke-width: 1.5; stroke-linecap: square"/>
   </g>
   <g id="line2d_22"/>
   <g id="line2d_23">
    <path d="M 134.986071 211.628154 
L 134.986071 227.346944 
" clip-path="url(#p9de3097c21)" style="fill: none; stroke: #6a6a6a; stroke-width: 1.5; stroke-linecap: square"/>
   </g>
   <g id="line2d_24">
    <path d="M 134.986071 148.727458 
L 134.986071 138.678159 
" clip-path="url(#p9de3097c21)" style="fill: none; stroke: #6a6a6a; stroke-width: 1.5; stroke-linecap: square"/>
   </g>
   <g id="line2d_25">
    <path d="M 132.273589 227.346944 
L 137.698554 227.346944 
" clip-path="url(#p9de3097c21)" style="fill: none; stroke: #6a6a6a; stroke-width: 1.5; stroke-linecap: square"/>
   </g>
   <g id="line2d_26">
    <path d="M 132.273589 138.678159 
L 137.698554 138.678159 
" clip-path="url(#p9de3097c21)" style="fill: none; stroke: #6a6a6a; stroke-width: 1.5; stroke-linecap: square"/>
   </g>
   <g id="line2d_27"/>
   <g id="line2d_28">
    <path d="M 171.1525 183.727622 
L 171.1525 227.398021 
" clip-path="url(#p9de3097c21)" style="fill: none; stroke: #6a6a6a; stroke-width: 1.5; stroke-linecap: square"/>
   </g>
   <g id="line2d_29">
    <path d="M 171.1525 153.93726 
L 171.1525 147.923003 
" clip-path="url(#p9de3097c21)" style="fill: none; stroke: #6a6a6a; stroke-width: 1.5; stroke-linecap: square"/>
   </g>
   <g id="line2d_30">
    <path d="M 168.440018 227.398021 
L 173.864982 227.398021 
" clip-path="url(#p9de3097c21)" style="fill: none; stroke: #6a6a6a; stroke-width: 1.5; stroke-linecap: square"/>
   </g>
   <g id="line2d_31">
    <path d="M 168.440018 147.923003 
L 173.864982 147.923003 
" clip-path="url(#p9de3097c21)" style="fill: none; stroke: #6a6a6a; stroke-width: 1.5; stroke-linecap: square"/>
   </g>
   <g id="line2d_32">
    <defs>
     <path id="m495bc6dd01" d="M -0 3.535534 
L 2.12132 0 
L -0 -3.535534 
L -2.12132 -0 
z
" style="stroke: #6a6a6a; stroke-linejoin: miter"/>
    </defs>
    <g clip-path="url(#p9de3097c21)">
     <use xlink:href="#m495bc6dd01" x="171.1525" y="96.999743" style="fill: #6a6a6a; stroke: #6a6a6a; stroke-linejoin: miter"/>
    </g>
   </g>
   <g id="line2d_33">
    <path d="M 207.318929 170.741425 
L 207.318929 230.207227 
" clip-path="url(#p9de3097c21)" style="fill: none; stroke: #6a6a6a; stroke-width: 1.5; stroke-linecap: square"/>
   </g>
   <g id="line2d_34">
    <path d="M 207.318929 113.842216 
L 207.318929 28.506171 
" clip-path="url(#p9de3097c21)" style="fill: none; stroke: #6a6a6a; stroke-width: 1.5; stroke-linecap: square"/>
   </g>
   <g id="line2d_35">
    <path d="M 204.606446 230.207227 
L 210.031411 230.207227 
" clip-path="url(#p9de3097c21)" style="fill: none; stroke: #6a6a6a; stroke-width: 1.5; stroke-linecap: square"/>
   </g>
   <g id="line2d_36">
    <path d="M 204.606446 28.506171 
L 210.031411 28.506171 
" clip-path="url(#p9de3097c21)" style="fill: none; stroke: #6a6a6a; stroke-width: 1.5; stroke-linecap: square"/>
   </g>
   <g id="line2d_37">
    <g clip-path="url(#p9de3097c21)">
     <use xlink:href="#m495bc6dd01" x="207.318929" y="22.12161" style="fill: #6a6a6a; stroke: #6a6a6a; stroke-linejoin: miter"/>
     <use xlink:href="#m495bc6dd01" x="207.318929" y="27.535718" style="fill: #6a6a6a; stroke: #6a6a6a; stroke-linejoin: miter"/>
    </g>
   </g>
   <g id="line2d_38">
    <path d="M 243.485357 184.20008 
L 243.485357 233.731505 
" clip-path="url(#p9de3097c21)" style="fill: none; stroke: #6a6a6a; stroke-width: 1.5; stroke-linecap: square"/>
   </g>
   <g id="line2d_39">
    <path d="M 243.485357 107.419347 
L 243.485357 39.181157 
" clip-path="url(#p9de3097c21)" style="fill: none; stroke: #6a6a6a; stroke-width: 1.5; stroke-linecap: square"/>
   </g>
   <g id="line2d_40">
    <path d="M 240.772875 233.731505 
L 246.197839 233.731505 
" clip-path="url(#p9de3097c21)" style="fill: none; stroke: #6a6a6a; stroke-width: 1.5; stroke-linecap: square"/>
   </g>
   <g id="line2d_41">
    <path d="M 240.772875 39.181157 
L 246.197839 39.181157 
" clip-path="url(#p9de3097c21)" style="fill: none; stroke: #6a6a6a; stroke-width: 1.5; stroke-linecap: square"/>
   </g>
   <g id="line2d_42"/>
   <g id="line2d_43">
    <path d="M 279.651786 168.238677 
L 279.651786 222.545754 
" clip-path="url(#p9de3097c21)" style="fill: none; stroke: #6a6a6a; stroke-width: 1.5; stroke-linecap: square"/>
   </g>
   <g id="line2d_44">
    <path d="M 279.651786 125.040736 
L 279.651786 64.208637 
" clip-path="url(#p9de3097c21)" style="fill: none; stroke: #6a6a6a; stroke-width: 1.5; stroke-linecap: square"/>
   </g>
   <g id="line2d_45">
    <path d="M 276.939304 222.545754 
L 282.364268 222.545754 
" clip-path="url(#p9de3097c21)" style="fill: none; stroke: #6a6a6a; stroke-width: 1.5; stroke-linecap: square"/>
   </g>
   <g id="line2d_46">
    <path d="M 276.939304 64.208637 
L 282.364268 64.208637 
" clip-path="url(#p9de3097c21)" style="fill: none; stroke: #6a6a6a; stroke-width: 1.5; stroke-linecap: square"/>
   </g>
   <g id="line2d_47">
    <g clip-path="url(#p9de3097c21)">
     <use xlink:href="#m495bc6dd01" x="279.651786" y="41.837135" style="fill: #6a6a6a; stroke: #6a6a6a; stroke-linejoin: miter"/>
     <use xlink:href="#m495bc6dd01" x="279.651786" y="41.019911" style="fill: #6a6a6a; stroke: #6a6a6a; stroke-linejoin: miter"/>
     <use xlink:href="#m495bc6dd01" x="279.651786" y="40.202687" style="fill: #6a6a6a; stroke: #6a6a6a; stroke-linejoin: miter"/>
    </g>
   </g>
   <g id="line2d_48">
    <path d="M 57.22825 191.363557 
L 68.078179 191.363557 
" clip-path="url(#p9de3097c21)" style="fill: none; stroke: #6a6a6a; stroke-width: 1.5; stroke-linecap: square"/>
   </g>
   <g id="line2d_49">
    <path d="M 93.394679 195.321985 
L 104.244607 195.321985 
" clip-path="url(#p9de3097c21)" style="fill: none; stroke: #6a6a6a; stroke-width: 1.5; stroke-linecap: square"/>
   </g>
   <g id="line2d_50">
    <path d="M 129.561107 162.326573 
L 140.411036 162.326573 
" clip-path="url(#p9de3097c21)" style="fill: none; stroke: #6a6a6a; stroke-width: 1.5; stroke-linecap: square"/>
   </g>
   <g id="line2d_51">
    <path d="M 165.727536 163.782253 
L 176.577464 163.782253 
" clip-path="url(#p9de3097c21)" style="fill: none; stroke: #6a6a6a; stroke-width: 1.5; stroke-linecap: square"/>
   </g>
   <g id="line2d_52">
    <path d="M 201.893964 164.344094 
L 212.743893 164.344094 
" clip-path="url(#p9de3097c21)" style="fill: none; stroke: #6a6a6a; stroke-width: 1.5; stroke-linecap: square"/>
   </g>
   <g id="line2d_53">
    <path d="M 238.060393 163.067182 
L 248.910321 163.067182 
" clip-path="url(#p9de3097c21)" style="fill: none; stroke: #6a6a6a; stroke-width: 1.5; stroke-linecap: square"/>
   </g>
   <g id="line2d_54">
    <path d="M 274.226821 158.29153 
L 285.07675 158.29153 
" clip-path="url(#p9de3097c21)" style="fill: none; stroke: #6a6a6a; stroke-width: 1.5; stroke-linecap: square"/>
   </g>
   <g id="patch_10">
    <path d="M 44.57 244.312 
L 44.57 11.541115 
" style="fill: none; stroke: #000000; stroke-width: 0.8; stroke-linejoin: miter; stroke-linecap: square"/>
   </g>
   <g id="patch_11">
    <path d="M 297.735 244.312 
L 297.735 11.541115 
" style="fill: none; stroke: #000000; stroke-width: 0.8; stroke-linejoin: miter; stroke-linecap: square"/>
   </g>
   <g id="patch_12">
    <path d="M 44.57 244.312 
L 297.735 244.312 
" style="fill: none; stroke: #000000; stroke-width: 0.8; stroke-linejoin: miter; stroke-linecap: square"/>
   </g>
   <g id="patch_13">
    <path d="M 44.57 11.541115 
L 297.735 11.541115 
" style="fill: none; stroke: #000000; stroke-width: 0.8; stroke-linejoin: miter; stroke-linecap: square"/>
   </g>
  </g>
  <g id="axes_2">
   <g id="patch_14">
    <path d="M 312.035 244.312 
L 565.2 244.312 
L 565.2 11.541115 
L 312.035 11.541115 
z
" style="fill: #ffffff"/>
   </g>
   <g id="patch_15">
    <path d="M 329.75655 175.861843 
L 344.94645 175.861843 
L 344.94645 138.473853 
L 329.75655 138.473853 
L 329.75655 175.861843 
z
" clip-path="url(#p127f2b88ca)" style="fill: #4a3d4b; stroke: #292929; stroke-width: 1.5; stroke-linejoin: miter"/>
   </g>
   <g id="patch_16">
    <path d="M 380.38955 172.873868 
L 395.57945 172.873868 
L 395.57945 125.245042 
L 380.38955 125.245042 
L 380.38955 172.873868 
z
" clip-path="url(#p127f2b88ca)" style="fill: #974664; stroke: #292929; stroke-width: 1.5; stroke-linejoin: miter"/>
   </g>
   <g id="patch_17">
    <path d="M 431.02255 184.085158 
L 446.21245 184.085158 
L 446.21245 146.620553 
L 431.02255 146.620553 
L 431.02255 184.085158 
z
" clip-path="url(#p127f2b88ca)" style="fill: #b4c1d1; stroke: #292929; stroke-width: 1.5; stroke-linejoin: miter"/>
   </g>
   <g id="patch_18">
    <path d="M 481.65555 176.423684 
L 496.84545 176.423684 
L 496.84545 148.280539 
L 481.65555 148.280539 
L 481.65555 176.423684 
z
" clip-path="url(#p127f2b88ca)" style="fill: #d3f4ee; stroke: #292929; stroke-width: 1.5; stroke-linejoin: miter"/>
   </g>
   <g id="patch_19">
    <path d="M 532.28855 180.484265 
L 547.47845 180.484265 
L 547.47845 142.700432 
L 532.28855 142.700432 
L 532.28855 180.484265 
z
" clip-path="url(#p127f2b88ca)" style="fill: #1f9192; stroke: #292929; stroke-width: 1.5; stroke-linejoin: miter"/>
   </g>
   <g id="matplotlib.axis_3">
    <g id="xtick_8">
     <g id="line2d_55">
      <g>
       <use xlink:href="#m8a6a8442dd" x="337.3515" y="244.312" style="stroke: #000000; stroke-width: 0.8"/>
      </g>
     </g>
     <g id="text_15">
      <!-- 1 -->
      <g transform="translate(334.17025 258.910438) scale(0.1 -0.1)">
       <use xlink:href="#DejaVuSans-31"/>
      </g>
     </g>
    </g>
    <g id="xtick_9">
     <g id="line2d_56">
      <g>
       <use xlink:href="#m8a6a8442dd" x="387.9845" y="244.312" style="stroke: #000000; stroke-width: 0.8"/>
      </g>
     </g>
     <g id="text_16">
      <!-- 2 -->
      <g transform="translate(384.80325 258.910438) scale(0.1 -0.1)">
       <use xlink:href="#DejaVuSans-32"/>
      </g>
     </g>
    </g>
    <g id="xtick_10">
     <g id="line2d_57">
      <g>
       <use xlink:href="#m8a6a8442dd" x="438.6175" y="244.312" style="stroke: #000000; stroke-width: 0.8"/>
      </g>
     </g>
     <g id="text_17">
      <!-- 3 -->
      <g transform="translate(435.43625 258.910438) scale(0.1 -0.1)">
       <use xlink:href="#DejaVuSans-33"/>
      </g>
     </g>
    </g>
    <g id="xtick_11">
     <g id="line2d_58">
      <g>
       <use xlink:href="#m8a6a8442dd" x="489.2505" y="244.312" style="stroke: #000000; stroke-width: 0.8"/>
      </g>
     </g>
     <g id="text_18">
      <!-- 4 -->
      <g transform="translate(486.06925 258.910438) scale(0.1 -0.1)">
       <use xlink:href="#DejaVuSans-34"/>
      </g>
     </g>
    </g>
    <g id="xtick_12">
     <g id="line2d_59">
      <g>
       <use xlink:href="#m8a6a8442dd" x="539.8835" y="244.312" style="stroke: #000000; stroke-width: 0.8"/>
      </g>
     </g>
     <g id="text_19">
      <!-- 5 -->
      <g transform="translate(536.70225 258.910438) scale(0.1 -0.1)">
       <use xlink:href="#DejaVuSans-35"/>
      </g>
     </g>
    </g>
    <g id="text_20">
     <!-- $S_{ID}$ -->
     <g transform="translate(431.5675 272.588563) scale(0.1 -0.1)">
      <defs>
       <path id="DejaVuSans-Oblique-53" d="M 3859 4513 
L 3738 3897 
Q 3422 4066 3111 4152 
Q 2800 4238 2509 4238 
Q 1944 4238 1609 3991 
Q 1275 3744 1275 3334 
Q 1275 3109 1398 2989 
Q 1522 2869 2034 2731 
L 2413 2638 
Q 3053 2472 3303 2217 
Q 3553 1963 3553 1503 
Q 3553 797 2998 353 
Q 2444 -91 1538 -91 
Q 1166 -91 791 -17 
Q 416 56 38 206 
L 166 856 
Q 513 641 861 531 
Q 1209 422 1556 422 
Q 2147 422 2503 684 
Q 2859 947 2859 1369 
Q 2859 1650 2717 1795 
Q 2575 1941 2106 2059 
L 1728 2156 
Q 1081 2325 845 2545 
Q 609 2766 609 3163 
Q 609 3859 1145 4304 
Q 1681 4750 2541 4750 
Q 2875 4750 3203 4690 
Q 3531 4631 3859 4513 
z
" transform="scale(0.015625)"/>
       <path id="DejaVuSans-Oblique-49" d="M 1081 4666 
L 1716 4666 
L 806 0 
L 172 0 
L 1081 4666 
z
" transform="scale(0.015625)"/>
       <path id="DejaVuSans-Oblique-44" d="M 1081 4666 
L 2438 4666 
Q 3519 4666 4070 4208 
Q 4622 3750 4622 2847 
Q 4622 2250 4412 1698 
Q 4203 1147 3834 769 
Q 3463 381 2891 190 
Q 2319 0 1538 0 
L 172 0 
L 1081 4666 
z
M 1613 4147 
L 909 519 
L 1734 519 
Q 2794 519 3375 1128 
Q 3956 1738 3956 2847 
Q 3956 3519 3581 3833 
Q 3206 4147 2406 4147 
L 1613 4147 
z
" transform="scale(0.015625)"/>
      </defs>
      <use xlink:href="#DejaVuSans-Oblique-53" transform="translate(0 0.78125)"/>
      <use xlink:href="#DejaVuSans-Oblique-49" transform="translate(63.476562 -15.625) scale(0.7)"/>
      <use xlink:href="#DejaVuSans-Oblique-44" transform="translate(84.121094 -15.625) scale(0.7)"/>
     </g>
    </g>
   </g>
   <g id="matplotlib.axis_4">
    <g id="ytick_6">
     <g id="line2d_60">
      <g>
       <use xlink:href="#me60d3c8475" x="312.035" y="219.225782" style="stroke: #000000; stroke-width: 0.8"/>
      </g>
     </g>
    </g>
    <g id="ytick_7">
     <g id="line2d_61">
      <g>
       <use xlink:href="#me60d3c8475" x="312.035" y="168.149293" style="stroke: #000000; stroke-width: 0.8"/>
      </g>
     </g>
    </g>
    <g id="ytick_8">
     <g id="line2d_62">
      <g>
       <use xlink:href="#me60d3c8475" x="312.035" y="117.072804" style="stroke: #000000; stroke-width: 0.8"/>
      </g>
     </g>
    </g>
    <g id="ytick_9">
     <g id="line2d_63">
      <g>
       <use xlink:href="#me60d3c8475" x="312.035" y="65.996314" style="stroke: #000000; stroke-width: 0.8"/>
      </g>
     </g>
    </g>
    <g id="ytick_10">
     <g id="line2d_64">
      <g>
       <use xlink:href="#me60d3c8475" x="312.035" y="14.919825" style="stroke: #000000; stroke-width: 0.8"/>
      </g>
     </g>
    </g>
   </g>
   <g id="line2d_65">
    <path d="M 337.3515 175.861843 
L 337.3515 227.398021 
" clip-path="url(#p127f2b88ca)" style="fill: none; stroke: #292929; stroke-width: 1.5; stroke-linecap: square"/>
   </g>
   <g id="line2d_66">
    <path d="M 337.3515 138.473853 
L 337.3515 85.507533 
" clip-path="url(#p127f2b88ca)" style="fill: none; stroke: #292929; stroke-width: 1.5; stroke-linecap: square"/>
   </g>
   <g id="line2d_67">
    <path d="M 333.554025 227.398021 
L 341.148975 227.398021 
" clip-path="url(#p127f2b88ca)" style="fill: none; stroke: #292929; stroke-width: 1.5; stroke-linecap: square"/>
   </g>
   <g id="line2d_68">
    <path d="M 333.554025 85.507533 
L 341.148975 85.507533 
" clip-path="url(#p127f2b88ca)" style="fill: none; stroke: #292929; stroke-width: 1.5; stroke-linecap: square"/>
   </g>
   <g id="line2d_69">
    <defs>
     <path id="m5908377a48" d="M -0 3.535534 
L 2.12132 0 
L -0 -3.535534 
L -2.12132 -0 
z
" style="stroke: #292929; stroke-linejoin: miter"/>
    </defs>
    <g clip-path="url(#p127f2b88ca)">
     <use xlink:href="#m5908377a48" x="337.3515" y="41.019911" style="fill: #292929; stroke: #292929; stroke-linejoin: miter"/>
     <use xlink:href="#m5908377a48" x="337.3515" y="64.208637" style="fill: #292929; stroke: #292929; stroke-linejoin: miter"/>
     <use xlink:href="#m5908377a48" x="337.3515" y="28.506171" style="fill: #292929; stroke: #292929; stroke-linejoin: miter"/>
     <use xlink:href="#m5908377a48" x="337.3515" y="39.181157" style="fill: #292929; stroke: #292929; stroke-linejoin: miter"/>
     <use xlink:href="#m5908377a48" x="337.3515" y="45.054954" style="fill: #292929; stroke: #292929; stroke-linejoin: miter"/>
     <use xlink:href="#m5908377a48" x="337.3515" y="49.651838" style="fill: #292929; stroke: #292929; stroke-linejoin: miter"/>
     <use xlink:href="#m5908377a48" x="337.3515" y="43.2162" style="fill: #292929; stroke: #292929; stroke-linejoin: miter"/>
    </g>
   </g>
   <g id="line2d_70">
    <path d="M 387.9845 172.873868 
L 387.9845 227.806632 
" clip-path="url(#p127f2b88ca)" style="fill: none; stroke: #292929; stroke-width: 1.5; stroke-linecap: square"/>
   </g>
   <g id="line2d_71">
    <path d="M 387.9845 125.245042 
L 387.9845 76.926683 
" clip-path="url(#p127f2b88ca)" style="fill: none; stroke: #292929; stroke-width: 1.5; stroke-linecap: square"/>
   </g>
   <g id="line2d_72">
    <path d="M 384.187025 227.806632 
L 391.781975 227.806632 
" clip-path="url(#p127f2b88ca)" style="fill: none; stroke: #292929; stroke-width: 1.5; stroke-linecap: square"/>
   </g>
   <g id="line2d_73">
    <path d="M 384.187025 76.926683 
L 391.781975 76.926683 
" clip-path="url(#p127f2b88ca)" style="fill: none; stroke: #292929; stroke-width: 1.5; stroke-linecap: square"/>
   </g>
   <g id="line2d_74">
    <g clip-path="url(#p127f2b88ca)">
     <use xlink:href="#m5908377a48" x="387.9845" y="29.119089" style="fill: #292929; stroke: #292929; stroke-linejoin: miter"/>
    </g>
   </g>
   <g id="line2d_75">
    <path d="M 438.6175 184.085158 
L 438.6175 233.731505 
" clip-path="url(#p127f2b88ca)" style="fill: none; stroke: #292929; stroke-width: 1.5; stroke-linecap: square"/>
   </g>
   <g id="line2d_76">
    <path d="M 438.6175 146.620553 
L 438.6175 93.11793 
" clip-path="url(#p127f2b88ca)" style="fill: none; stroke: #292929; stroke-width: 1.5; stroke-linecap: square"/>
   </g>
   <g id="line2d_77">
    <path d="M 434.820025 233.731505 
L 442.414975 233.731505 
" clip-path="url(#p127f2b88ca)" style="fill: none; stroke: #292929; stroke-width: 1.5; stroke-linecap: square"/>
   </g>
   <g id="line2d_78">
    <path d="M 434.820025 93.11793 
L 442.414975 93.11793 
" clip-path="url(#p127f2b88ca)" style="fill: none; stroke: #292929; stroke-width: 1.5; stroke-linecap: square"/>
   </g>
   <g id="line2d_79">
    <g clip-path="url(#p127f2b88ca)">
     <use xlink:href="#m5908377a48" x="438.6175" y="41.837135" style="fill: #292929; stroke: #292929; stroke-linejoin: miter"/>
     <use xlink:href="#m5908377a48" x="438.6175" y="34.686426" style="fill: #292929; stroke: #292929; stroke-linejoin: miter"/>
     <use xlink:href="#m5908377a48" x="438.6175" y="27.535718" style="fill: #292929; stroke: #292929; stroke-linejoin: miter"/>
     <use xlink:href="#m5908377a48" x="438.6175" y="42.552206" style="fill: #292929; stroke: #292929; stroke-linejoin: miter"/>
     <use xlink:href="#m5908377a48" x="438.6175" y="41.786058" style="fill: #292929; stroke: #292929; stroke-linejoin: miter"/>
     <use xlink:href="#m5908377a48" x="438.6175" y="89.849035" style="fill: #292929; stroke: #292929; stroke-linejoin: miter"/>
     <use xlink:href="#m5908377a48" x="438.6175" y="89.849035" style="fill: #292929; stroke: #292929; stroke-linejoin: miter"/>
     <use xlink:href="#m5908377a48" x="438.6175" y="89.440423" style="fill: #292929; stroke: #292929; stroke-linejoin: miter"/>
     <use xlink:href="#m5908377a48" x="438.6175" y="89.491499" style="fill: #292929; stroke: #292929; stroke-linejoin: miter"/>
     <use xlink:href="#m5908377a48" x="438.6175" y="40.202687" style="fill: #292929; stroke: #292929; stroke-linejoin: miter"/>
     <use xlink:href="#m5908377a48" x="438.6175" y="87.601669" style="fill: #292929; stroke: #292929; stroke-linejoin: miter"/>
     <use xlink:href="#m5908377a48" x="438.6175" y="86.580139" style="fill: #292929; stroke: #292929; stroke-linejoin: miter"/>
    </g>
   </g>
   <g id="line2d_80">
    <path d="M 489.2505 176.423684 
L 489.2505 218.051023 
" clip-path="url(#p127f2b88ca)" style="fill: none; stroke: #292929; stroke-width: 1.5; stroke-linecap: square"/>
   </g>
   <g id="line2d_81">
    <path d="M 489.2505 148.280539 
L 489.2505 107.061812 
" clip-path="url(#p127f2b88ca)" style="fill: none; stroke: #292929; stroke-width: 1.5; stroke-linecap: square"/>
   </g>
   <g id="line2d_82">
    <path d="M 485.453025 218.051023 
L 493.047975 218.051023 
" clip-path="url(#p127f2b88ca)" style="fill: none; stroke: #292929; stroke-width: 1.5; stroke-linecap: square"/>
   </g>
   <g id="line2d_83">
    <path d="M 485.453025 107.061812 
L 493.047975 107.061812 
" clip-path="url(#p127f2b88ca)" style="fill: none; stroke: #292929; stroke-width: 1.5; stroke-linecap: square"/>
   </g>
   <g id="line2d_84">
    <g clip-path="url(#p127f2b88ca)">
     <use xlink:href="#m5908377a48" x="489.2505" y="220.809153" style="fill: #292929; stroke: #292929; stroke-linejoin: miter"/>
     <use xlink:href="#m5908377a48" x="489.2505" y="226.376491" style="fill: #292929; stroke: #292929; stroke-linejoin: miter"/>
     <use xlink:href="#m5908377a48" x="489.2505" y="222.852213" style="fill: #292929; stroke: #292929; stroke-linejoin: miter"/>
     <use xlink:href="#m5908377a48" x="489.2505" y="224.282355" style="fill: #292929; stroke: #292929; stroke-linejoin: miter"/>
     <use xlink:href="#m5908377a48" x="489.2505" y="231.892752" style="fill: #292929; stroke: #292929; stroke-linejoin: miter"/>
     <use xlink:href="#m5908377a48" x="489.2505" y="219.685471" style="fill: #292929; stroke: #292929; stroke-linejoin: miter"/>
     <use xlink:href="#m5908377a48" x="489.2505" y="224.333431" style="fill: #292929; stroke: #292929; stroke-linejoin: miter"/>
     <use xlink:href="#m5908377a48" x="489.2505" y="227.704479" style="fill: #292929; stroke: #292929; stroke-linejoin: miter"/>
     <use xlink:href="#m5908377a48" x="489.2505" y="102.260622" style="fill: #292929; stroke: #292929; stroke-linejoin: miter"/>
     <use xlink:href="#m5908377a48" x="489.2505" y="96.999743" style="fill: #292929; stroke: #292929; stroke-linejoin: miter"/>
     <use xlink:href="#m5908377a48" x="489.2505" y="100.677251" style="fill: #292929; stroke: #292929; stroke-linejoin: miter"/>
     <use xlink:href="#m5908377a48" x="489.2505" y="97.816967" style="fill: #292929; stroke: #292929; stroke-linejoin: miter"/>
     <use xlink:href="#m5908377a48" x="489.2505" y="46.178636" style="fill: #292929; stroke: #292929; stroke-linejoin: miter"/>
     <use xlink:href="#m5908377a48" x="489.2505" y="102.516004" style="fill: #292929; stroke: #292929; stroke-linejoin: miter"/>
     <use xlink:href="#m5908377a48" x="489.2505" y="102.464928" style="fill: #292929; stroke: #292929; stroke-linejoin: miter"/>
     <use xlink:href="#m5908377a48" x="489.2505" y="93.169007" style="fill: #292929; stroke: #292929; stroke-linejoin: miter"/>
     <use xlink:href="#m5908377a48" x="489.2505" y="95.569602" style="fill: #292929; stroke: #292929; stroke-linejoin: miter"/>
     <use xlink:href="#m5908377a48" x="489.2505" y="97.05082" style="fill: #292929; stroke: #292929; stroke-linejoin: miter"/>
     <use xlink:href="#m5908377a48" x="489.2505" y="102.618157" style="fill: #292929; stroke: #292929; stroke-linejoin: miter"/>
     <use xlink:href="#m5908377a48" x="489.2505" y="95.620678" style="fill: #292929; stroke: #292929; stroke-linejoin: miter"/>
     <use xlink:href="#m5908377a48" x="489.2505" y="89.031811" style="fill: #292929; stroke: #292929; stroke-linejoin: miter"/>
     <use xlink:href="#m5908377a48" x="489.2505" y="89.33827" style="fill: #292929; stroke: #292929; stroke-linejoin: miter"/>
     <use xlink:href="#m5908377a48" x="489.2505" y="103.128922" style="fill: #292929; stroke: #292929; stroke-linejoin: miter"/>
     <use xlink:href="#m5908377a48" x="489.2505" y="105.682746" style="fill: #292929; stroke: #292929; stroke-linejoin: miter"/>
     <use xlink:href="#m5908377a48" x="489.2505" y="103.333228" style="fill: #292929; stroke: #292929; stroke-linejoin: miter"/>
     <use xlink:href="#m5908377a48" x="489.2505" y="87.550593" style="fill: #292929; stroke: #292929; stroke-linejoin: miter"/>
     <use xlink:href="#m5908377a48" x="489.2505" y="88.214587" style="fill: #292929; stroke: #292929; stroke-linejoin: miter"/>
     <use xlink:href="#m5908377a48" x="489.2505" y="92.862548" style="fill: #292929; stroke: #292929; stroke-linejoin: miter"/>
     <use xlink:href="#m5908377a48" x="489.2505" y="92.709318" style="fill: #292929; stroke: #292929; stroke-linejoin: miter"/>
    </g>
   </g>
   <g id="line2d_85">
    <path d="M 539.8835 180.484265 
L 539.8835 233.425046 
" clip-path="url(#p127f2b88ca)" style="fill: none; stroke: #292929; stroke-width: 1.5; stroke-linecap: square"/>
   </g>
   <g id="line2d_86">
    <path d="M 539.8835 142.700432 
L 539.8835 87.141981 
" clip-path="url(#p127f2b88ca)" style="fill: none; stroke: #292929; stroke-width: 1.5; stroke-linecap: square"/>
   </g>
   <g id="line2d_87">
    <path d="M 536.086025 233.425046 
L 543.680975 233.425046 
" clip-path="url(#p127f2b88ca)" style="fill: none; stroke: #292929; stroke-width: 1.5; stroke-linecap: square"/>
   </g>
   <g id="line2d_88">
    <path d="M 536.086025 87.141981 
L 543.680975 87.141981 
" clip-path="url(#p127f2b88ca)" style="fill: none; stroke: #292929; stroke-width: 1.5; stroke-linecap: square"/>
   </g>
   <g id="line2d_89">
    <g clip-path="url(#p127f2b88ca)">
     <use xlink:href="#m5908377a48" x="539.8835" y="22.12161" style="fill: #292929; stroke: #292929; stroke-linejoin: miter"/>
     <use xlink:href="#m5908377a48" x="539.8835" y="28.965859" style="fill: #292929; stroke: #292929; stroke-linejoin: miter"/>
     <use xlink:href="#m5908377a48" x="539.8835" y="28.863706" style="fill: #292929; stroke: #292929; stroke-linejoin: miter"/>
     <use xlink:href="#m5908377a48" x="539.8835" y="76.466995" style="fill: #292929; stroke: #292929; stroke-linejoin: miter"/>
     <use xlink:href="#m5908377a48" x="539.8835" y="38.006398" style="fill: #292929; stroke: #292929; stroke-linejoin: miter"/>
     <use xlink:href="#m5908377a48" x="539.8835" y="49.651838" style="fill: #292929; stroke: #292929; stroke-linejoin: miter"/>
    </g>
   </g>
   <g id="line2d_90">
    <path d="M 329.75655 162.045652 
L 344.94645 162.045652 
" clip-path="url(#p127f2b88ca)" style="fill: none; stroke: #292929; stroke-width: 1.5; stroke-linecap: square"/>
   </g>
   <g id="line2d_91">
    <path d="M 380.38955 157.448768 
L 395.57945 157.448768 
" clip-path="url(#p127f2b88ca)" style="fill: none; stroke: #292929; stroke-width: 1.5; stroke-linecap: square"/>
   </g>
   <g id="line2d_92">
    <path d="M 431.02255 163.041644 
L 446.21245 163.041644 
" clip-path="url(#p127f2b88ca)" style="fill: none; stroke: #292929; stroke-width: 1.5; stroke-linecap: square"/>
   </g>
   <g id="line2d_93">
    <path d="M 481.65555 163.24595 
L 496.84545 163.24595 
" clip-path="url(#p127f2b88ca)" style="fill: none; stroke: #292929; stroke-width: 1.5; stroke-linecap: square"/>
   </g>
   <g id="line2d_94">
    <path d="M 532.28855 163.220412 
L 547.47845 163.220412 
" clip-path="url(#p127f2b88ca)" style="fill: none; stroke: #292929; stroke-width: 1.5; stroke-linecap: square"/>
   </g>
   <g id="patch_20">
    <path d="M 312.035 244.312 
L 312.035 11.541115 
" style="fill: none; stroke: #000000; stroke-width: 0.8; stroke-linejoin: miter; stroke-linecap: square"/>
   </g>
   <g id="patch_21">
    <path d="M 565.2 244.312 
L 565.2 11.541115 
" style="fill: none; stroke: #000000; stroke-width: 0.8; stroke-linejoin: miter; stroke-linecap: square"/>
   </g>
   <g id="patch_22">
    <path d="M 312.035 244.312 
L 565.2 244.312 
" style="fill: none; stroke: #000000; stroke-width: 0.8; stroke-linejoin: miter; stroke-linecap: square"/>
   </g>
   <g id="patch_23">
    <path d="M 312.035 11.541115 
L 565.2 11.541115 
" style="fill: none; stroke: #000000; stroke-width: 0.8; stroke-linejoin: miter; stroke-linecap: square"/>
   </g>
  </g>
 </g>
 <defs>
  <clipPath id="p9de3097c21">
   <rect x="44.57" y="11.541115" width="253.165" height="232.770885"/>
  </clipPath>
  <clipPath id="p127f2b88ca">
   <rect x="312.035" y="11.541115" width="253.165" height="232.770885"/>
  </clipPath>
 </defs>
</svg>
