<?xml version="1.0" encoding="utf-8" standalone="no"?>
<!DOCTYPE svg PUBLIC "-//W3C//DTD SVG 1.1//EN"
  "http://www.w3.org/Graphics/SVG/1.1/DTD/svg11.dtd">
<svg xmlns:xlink="http://www.w3.org/1999/xlink" width="360pt" height="288pt" viewBox="0 0 360 288" xmlns="http://www.w3.org/2000/svg" version="1.1">
 <metadata>
  <rdf:RDF xmlns:dc="http://purl.org/dc/elements/1.1/" xmlns:cc="http://creativecommons.org/ns#" xmlns:rdf="http://www.w3.org/1999/02/22-rdf-syntax-ns#">
   <cc:Work>
    <dc:type rdf:resource="http://purl.org/dc/dcmitype/StillImage"/>
    <dc:date>2024-10-13T11:43:11.394201</dc:date>
    <dc:format>image/svg+xml</dc:format>
    <dc:creator>
     <cc:Agent>
      <dc:title>Matplotlib v3.8.0, https://matplotlib.org/</dc:title>
     </cc:Agent>
    </dc:creator>
   </cc:Work>
  </rdf:RDF>
 </metadata>
 <defs>
  <style type="text/css">*{stroke-linejoin: round; stroke-linecap: butt}</style>
 </defs>
 <g id="figure_1">
  <g id="patch_1">
   <path d="M 0 288 
L 360 288 
L 360 0 
L 0 0 
z
" style="fill: #ffffff"/>
  </g>
  <g id="axes_1">
   <g id="patch_2">
    <path d="M 44.57 244.312 
L 349.2 244.312 
L 349.2 11.541115 
L 44.57 11.541115 
z
" style="fill: #ffffff"/>
   </g>
   <g id="matplotlib.axis_1">
    <g id="xtick_1">
     <g id="line2d_1">
      <defs>
       <path id="mf3fc3a4fa9" d="M 0 0 
L 0 3.5 
" style="stroke: #000000; stroke-width: 0.8"/>
      </defs>
      <g>
       <use xlink:href="#mf3fc3a4fa9" x="75.033" y="244.312" style="stroke: #000000; stroke-width: 0.8"/>
      </g>
     </g>
     <g id="text_1">
      <!-- 1 -->
      <g transform="translate(71.85175 258.910438) scale(0.1 -0.1)">
       <defs>
        <path id="DejaVuSans-31" d="M 794 531 
L 1825 531 
L 1825 4091 
L 703 3866 
L 703 4441 
L 1819 4666 
L 2450 4666 
L 2450 531 
L 3481 531 
L 3481 0 
L 794 0 
L 794 531 
z
" transform="scale(0.015625)"/>
       </defs>
       <use xlink:href="#DejaVuSans-31"/>
      </g>
     </g>
    </g>
    <g id="xtick_2">
     <g id="line2d_2">
      <g>
       <use xlink:href="#mf3fc3a4fa9" x="135.959" y="244.312" style="stroke: #000000; stroke-width: 0.8"/>
      </g>
     </g>
     <g id="text_2">
      <!-- 2 -->
      <g transform="translate(132.77775 258.910438) scale(0.1 -0.1)">
       <defs>
        <path id="DejaVuSans-32" d="M 1228 531 
L 3431 531 
L 3431 0 
L 469 0 
L 469 531 
Q 828 903 1448 1529 
Q 2069 2156 2228 2338 
Q 2531 2678 2651 2914 
Q 2772 3150 2772 3378 
Q 2772 3750 2511 3984 
Q 2250 4219 1831 4219 
Q 1534 4219 1204 4116 
Q 875 4013 500 3803 
L 500 4441 
Q 881 4594 1212 4672 
Q 1544 4750 1819 4750 
Q 2544 4750 2975 4387 
Q 3406 4025 3406 3419 
Q 3406 3131 3298 2873 
Q 3191 2616 2906 2266 
Q 2828 2175 2409 1742 
Q 1991 1309 1228 531 
z
" transform="scale(0.015625)"/>
       </defs>
       <use xlink:href="#DejaVuSans-32"/>
      </g>
     </g>
    </g>
    <g id="xtick_3">
     <g id="line2d_3">
      <g>
       <use xlink:href="#mf3fc3a4fa9" x="196.885" y="244.312" style="stroke: #000000; stroke-width: 0.8"/>
      </g>
     </g>
     <g id="text_3">
      <!-- 3 -->
      <g transform="translate(193.70375 258.910438) scale(0.1 -0.1)">
       <defs>
        <path id="DejaVuSans-33" d="M 2597 2516 
Q 3050 2419 3304 2112 
Q 3559 1806 3559 1356 
Q 3559 666 3084 287 
Q 2609 -91 1734 -91 
Q 1441 -91 1130 -33 
Q 819 25 488 141 
L 488 750 
Q 750 597 1062 519 
Q 1375 441 1716 441 
Q 2309 441 2620 675 
Q 2931 909 2931 1356 
Q 2931 1769 2642 2001 
Q 2353 2234 1838 2234 
L 1294 2234 
L 1294 2753 
L 1863 2753 
Q 2328 2753 2575 2939 
Q 2822 3125 2822 3475 
Q 2822 3834 2567 4026 
Q 2313 4219 1838 4219 
Q 1578 4219 1281 4162 
Q 984 4106 628 3988 
L 628 4550 
Q 988 4650 1302 4700 
Q 1616 4750 1894 4750 
Q 2613 4750 3031 4423 
Q 3450 4097 3450 3541 
Q 3450 3153 3228 2886 
Q 3006 2619 2597 2516 
z
" transform="scale(0.015625)"/>
       </defs>
       <use xlink:href="#DejaVuSans-33"/>
      </g>
     </g>
    </g>
    <g id="xtick_4">
     <g id="line2d_4">
      <g>
       <use xlink:href="#mf3fc3a4fa9" x="257.811" y="244.312" style="stroke: #000000; stroke-width: 0.8"/>
      </g>
     </g>
     <g id="text_4">
      <!-- 4 -->
      <g transform="translate(254.62975 258.910438) scale(0.1 -0.1)">
       <defs>
        <path id="DejaVuSans-34" d="M 2419 4116 
L 825 1625 
L 2419 1625 
L 2419 4116 
z
M 2253 4666 
L 3047 4666 
L 3047 1625 
L 3713 1625 
L 3713 1100 
L 3047 1100 
L 3047 0 
L 2419 0 
L 2419 1100 
L 313 1100 
L 313 1709 
L 2253 4666 
z
" transform="scale(0.015625)"/>
       </defs>
       <use xlink:href="#DejaVuSans-34"/>
      </g>
     </g>
    </g>
    <g id="xtick_5">
     <g id="line2d_5">
      <g>
       <use xlink:href="#mf3fc3a4fa9" x="318.737" y="244.312" style="stroke: #000000; stroke-width: 0.8"/>
      </g>
     </g>
     <g id="text_5">
      <!-- 5 -->
      <g transform="translate(315.55575 258.910438) scale(0.1 -0.1)">
       <defs>
        <path id="DejaVuSans-35" d="M 691 4666 
L 3169 4666 
L 3169 4134 
L 1269 4134 
L 1269 2991 
Q 1406 3038 1543 3061 
Q 1681 3084 1819 3084 
Q 2600 3084 3056 2656 
Q 3513 2228 3513 1497 
Q 3513 744 3044 326 
Q 2575 -91 1722 -91 
Q 1428 -91 1123 -41 
Q 819 9 494 109 
L 494 744 
Q 775 591 1075 516 
Q 1375 441 1709 441 
Q 2250 441 2565 725 
Q 2881 1009 2881 1497 
Q 2881 1984 2565 2268 
Q 2250 2553 1709 2553 
Q 1456 2553 1204 2497 
Q 953 2441 691 2322 
L 691 4666 
z
" transform="scale(0.015625)"/>
       </defs>
       <use xlink:href="#DejaVuSans-35"/>
      </g>
     </g>
    </g>
    <g id="text_6">
     <!-- $S_{ID}$ -->
     <g transform="translate(189.835 272.588563) scale(0.1 -0.1)">
      <defs>
       <path id="DejaVuSans-Oblique-53" d="M 3859 4513 
L 3738 3897 
Q 3422 4066 3111 4152 
Q 2800 4238 2509 4238 
Q 1944 4238 1609 3991 
Q 1275 3744 1275 3334 
Q 1275 3109 1398 2989 
Q 1522 2869 2034 2731 
L 2413 2638 
Q 3053 2472 3303 2217 
Q 3553 1963 3553 1503 
Q 3553 797 2998 353 
Q 2444 -91 1538 -91 
Q 1166 -91 791 -17 
Q 416 56 38 206 
L 166 856 
Q 513 641 861 531 
Q 1209 422 1556 422 
Q 2147 422 2503 684 
Q 2859 947 2859 1369 
Q 2859 1650 2717 1795 
Q 2575 1941 2106 2059 
L 1728 2156 
Q 1081 2325 845 2545 
Q 609 2766 609 3163 
Q 609 3859 1145 4304 
Q 1681 4750 2541 4750 
Q 2875 4750 3203 4690 
Q 3531 4631 3859 4513 
z
" transform="scale(0.015625)"/>
       <path id="DejaVuSans-Oblique-49" d="M 1081 4666 
L 1716 4666 
L 806 0 
L 172 0 
L 1081 4666 
z
" transform="scale(0.015625)"/>
       <path id="DejaVuSans-Oblique-44" d="M 1081 4666 
L 2438 4666 
Q 3519 4666 4070 4208 
Q 4622 3750 4622 2847 
Q 4622 2250 4412 1698 
Q 4203 1147 3834 769 
Q 3463 381 2891 190 
Q 2319 0 1538 0 
L 172 0 
L 1081 4666 
z
M 1613 4147 
L 909 519 
L 1734 519 
Q 2794 519 3375 1128 
Q 3956 1738 3956 2847 
Q 3956 3519 3581 3833 
Q 3206 4147 2406 4147 
L 1613 4147 
z
" transform="scale(0.015625)"/>
      </defs>
      <use xlink:href="#DejaVuSans-Oblique-53" transform="translate(0 0.78125)"/>
      <use xlink:href="#DejaVuSans-Oblique-49" transform="translate(63.476562 -15.625) scale(0.7)"/>
      <use xlink:href="#DejaVuSans-Oblique-44" transform="translate(84.121094 -15.625) scale(0.7)"/>
     </g>
    </g>
   </g>
   <g id="matplotlib.axis_2">
    <g id="ytick_1">
     <g id="line2d_6">
      <defs>
       <path id="m44a033b14c" d="M 0 0 
L -3.5 0 
" style="stroke: #000000; stroke-width: 0.8"/>
      </defs>
      <g>
       <use xlink:href="#m44a033b14c" x="44.57" y="219.225782" style="stroke: #000000; stroke-width: 0.8"/>
      </g>
     </g>
     <g id="text_7">
      <!-- 10 -->
      <g transform="translate(24.845 223.025001) scale(0.1 -0.1)">
       <defs>
        <path id="DejaVuSans-30" d="M 2034 4250 
Q 1547 4250 1301 3770 
Q 1056 3291 1056 2328 
Q 1056 1369 1301 889 
Q 1547 409 2034 409 
Q 2525 409 2770 889 
Q 3016 1369 3016 2328 
Q 3016 3291 2770 3770 
Q 2525 4250 2034 4250 
z
M 2034 4750 
Q 2819 4750 3233 4129 
Q 3647 3509 3647 2328 
Q 3647 1150 3233 529 
Q 2819 -91 2034 -91 
Q 1250 -91 836 529 
Q 422 1150 422 2328 
Q 422 3509 836 4129 
Q 1250 4750 2034 4750 
z
" transform="scale(0.015625)"/>
       </defs>
       <use xlink:href="#DejaVuSans-31"/>
       <use xlink:href="#DejaVuSans-30" x="63.623047"/>
      </g>
     </g>
    </g>
    <g id="ytick_2">
     <g id="line2d_7">
      <g>
       <use xlink:href="#m44a033b14c" x="44.57" y="168.149293" style="stroke: #000000; stroke-width: 0.8"/>
      </g>
     </g>
     <g id="text_8">
      <!-- 20 -->
      <g transform="translate(24.845 171.948512) scale(0.1 -0.1)">
       <use xlink:href="#DejaVuSans-32"/>
       <use xlink:href="#DejaVuSans-30" x="63.623047"/>
      </g>
     </g>
    </g>
    <g id="ytick_3">
     <g id="line2d_8">
      <g>
       <use xlink:href="#m44a033b14c" x="44.57" y="117.072804" style="stroke: #000000; stroke-width: 0.8"/>
      </g>
     </g>
     <g id="text_9">
      <!-- 30 -->
      <g transform="translate(24.845 120.872022) scale(0.1 -0.1)">
       <use xlink:href="#DejaVuSans-33"/>
       <use xlink:href="#DejaVuSans-30" x="63.623047"/>
      </g>
     </g>
    </g>
    <g id="ytick_4">
     <g id="line2d_9">
      <g>
       <use xlink:href="#m44a033b14c" x="44.57" y="65.996314" style="stroke: #000000; stroke-width: 0.8"/>
      </g>
     </g>
     <g id="text_10">
      <!-- 40 -->
      <g transform="translate(24.845 69.795533) scale(0.1 -0.1)">
       <use xlink:href="#DejaVuSans-34"/>
       <use xlink:href="#DejaVuSans-30" x="63.623047"/>
      </g>
     </g>
    </g>
    <g id="ytick_5">
     <g id="line2d_10">
      <g>
       <use xlink:href="#m44a033b14c" x="44.57" y="14.919825" style="stroke: #000000; stroke-width: 0.8"/>
      </g>
     </g>
     <g id="text_11">
      <!-- 50 -->
      <g transform="translate(24.845 18.719044) scale(0.1 -0.1)">
       <use xlink:href="#DejaVuSans-35"/>
       <use xlink:href="#DejaVuSans-30" x="63.623047"/>
      </g>
     </g>
    </g>
    <g id="text_12">
     <!-- Latency (s) -->
     <g transform="translate(18.765312 155.785933) rotate(-90) scale(0.1 -0.1)">
      <defs>
       <path id="DejaVuSans-4c" d="M 628 4666 
L 1259 4666 
L 1259 531 
L 3531 531 
L 3531 0 
L 628 0 
L 628 4666 
z
" transform="scale(0.015625)"/>
       <path id="DejaVuSans-61" d="M 2194 1759 
Q 1497 1759 1228 1600 
Q 959 1441 959 1056 
Q 959 750 1161 570 
Q 1363 391 1709 391 
Q 2188 391 2477 730 
Q 2766 1069 2766 1631 
L 2766 1759 
L 2194 1759 
z
M 3341 1997 
L 3341 0 
L 2766 0 
L 2766 531 
Q 2569 213 2275 61 
Q 1981 -91 1556 -91 
Q 1019 -91 701 211 
Q 384 513 384 1019 
Q 384 1609 779 1909 
Q 1175 2209 1959 2209 
L 2766 2209 
L 2766 2266 
Q 2766 2663 2505 2880 
Q 2244 3097 1772 3097 
Q 1472 3097 1187 3025 
Q 903 2953 641 2809 
L 641 3341 
Q 956 3463 1253 3523 
Q 1550 3584 1831 3584 
Q 2591 3584 2966 3190 
Q 3341 2797 3341 1997 
z
" transform="scale(0.015625)"/>
       <path id="DejaVuSans-74" d="M 1172 4494 
L 1172 3500 
L 2356 3500 
L 2356 3053 
L 1172 3053 
L 1172 1153 
Q 1172 725 1289 603 
Q 1406 481 1766 481 
L 2356 481 
L 2356 0 
L 1766 0 
Q 1100 0 847 248 
Q 594 497 594 1153 
L 594 3053 
L 172 3053 
L 172 3500 
L 594 3500 
L 594 4494 
L 1172 4494 
z
" transform="scale(0.015625)"/>
       <path id="DejaVuSans-65" d="M 3597 1894 
L 3597 1613 
L 953 1613 
Q 991 1019 1311 708 
Q 1631 397 2203 397 
Q 2534 397 2845 478 
Q 3156 559 3463 722 
L 3463 178 
Q 3153 47 2828 -22 
Q 2503 -91 2169 -91 
Q 1331 -91 842 396 
Q 353 884 353 1716 
Q 353 2575 817 3079 
Q 1281 3584 2069 3584 
Q 2775 3584 3186 3129 
Q 3597 2675 3597 1894 
z
M 3022 2063 
Q 3016 2534 2758 2815 
Q 2500 3097 2075 3097 
Q 1594 3097 1305 2825 
Q 1016 2553 972 2059 
L 3022 2063 
z
" transform="scale(0.015625)"/>
       <path id="DejaVuSans-6e" d="M 3513 2113 
L 3513 0 
L 2938 0 
L 2938 2094 
Q 2938 2591 2744 2837 
Q 2550 3084 2163 3084 
Q 1697 3084 1428 2787 
Q 1159 2491 1159 1978 
L 1159 0 
L 581 0 
L 581 3500 
L 1159 3500 
L 1159 2956 
Q 1366 3272 1645 3428 
Q 1925 3584 2291 3584 
Q 2894 3584 3203 3211 
Q 3513 2838 3513 2113 
z
" transform="scale(0.015625)"/>
       <path id="DejaVuSans-63" d="M 3122 3366 
L 3122 2828 
Q 2878 2963 2633 3030 
Q 2388 3097 2138 3097 
Q 1578 3097 1268 2742 
Q 959 2388 959 1747 
Q 959 1106 1268 751 
Q 1578 397 2138 397 
Q 2388 397 2633 464 
Q 2878 531 3122 666 
L 3122 134 
Q 2881 22 2623 -34 
Q 2366 -91 2075 -91 
Q 1284 -91 818 406 
Q 353 903 353 1747 
Q 353 2603 823 3093 
Q 1294 3584 2113 3584 
Q 2378 3584 2631 3529 
Q 2884 3475 3122 3366 
z
" transform="scale(0.015625)"/>
       <path id="DejaVuSans-79" d="M 2059 -325 
Q 1816 -950 1584 -1140 
Q 1353 -1331 966 -1331 
L 506 -1331 
L 506 -850 
L 844 -850 
Q 1081 -850 1212 -737 
Q 1344 -625 1503 -206 
L 1606 56 
L 191 3500 
L 800 3500 
L 1894 763 
L 2988 3500 
L 3597 3500 
L 2059 -325 
z
" transform="scale(0.015625)"/>
       <path id="DejaVuSans-20" transform="scale(0.015625)"/>
       <path id="DejaVuSans-28" d="M 1984 4856 
Q 1566 4138 1362 3434 
Q 1159 2731 1159 2009 
Q 1159 1288 1364 580 
Q 1569 -128 1984 -844 
L 1484 -844 
Q 1016 -109 783 600 
Q 550 1309 550 2009 
Q 550 2706 781 3412 
Q 1013 4119 1484 4856 
L 1984 4856 
z
" transform="scale(0.015625)"/>
       <path id="DejaVuSans-73" d="M 2834 3397 
L 2834 2853 
Q 2591 2978 2328 3040 
Q 2066 3103 1784 3103 
Q 1356 3103 1142 2972 
Q 928 2841 928 2578 
Q 928 2378 1081 2264 
Q 1234 2150 1697 2047 
L 1894 2003 
Q 2506 1872 2764 1633 
Q 3022 1394 3022 966 
Q 3022 478 2636 193 
Q 2250 -91 1575 -91 
Q 1294 -91 989 -36 
Q 684 19 347 128 
L 347 722 
Q 666 556 975 473 
Q 1284 391 1588 391 
Q 1994 391 2212 530 
Q 2431 669 2431 922 
Q 2431 1156 2273 1281 
Q 2116 1406 1581 1522 
L 1381 1569 
Q 847 1681 609 1914 
Q 372 2147 372 2553 
Q 372 3047 722 3315 
Q 1072 3584 1716 3584 
Q 2034 3584 2315 3537 
Q 2597 3491 2834 3397 
z
" transform="scale(0.015625)"/>
       <path id="DejaVuSans-29" d="M 513 4856 
L 1013 4856 
Q 1481 4119 1714 3412 
Q 1947 2706 1947 2009 
Q 1947 1309 1714 600 
Q 1481 -109 1013 -844 
L 513 -844 
Q 928 -128 1133 580 
Q 1338 1288 1338 2009 
Q 1338 2731 1133 3434 
Q 928 4138 513 4856 
z
" transform="scale(0.015625)"/>
      </defs>
      <use xlink:href="#DejaVuSans-4c"/>
      <use xlink:href="#DejaVuSans-61" x="55.712891"/>
      <use xlink:href="#DejaVuSans-74" x="116.992188"/>
      <use xlink:href="#DejaVuSans-65" x="156.201172"/>
      <use xlink:href="#DejaVuSans-6e" x="217.724609"/>
      <use xlink:href="#DejaVuSans-63" x="281.103516"/>
      <use xlink:href="#DejaVuSans-79" x="336.083984"/>
      <use xlink:href="#DejaVuSans-20" x="395.263672"/>
      <use xlink:href="#DejaVuSans-28" x="427.050781"/>
      <use xlink:href="#DejaVuSans-73" x="466.064453"/>
      <use xlink:href="#DejaVuSans-29" x="518.164062"/>
     </g>
    </g>
   </g>
   <g id="patch_3">
    <path d="M 65.8941 175.861843 
L 84.1719 175.861843 
L 84.1719 138.473853 
L 65.8941 138.473853 
L 65.8941 175.861843 
z
" clip-path="url(#p9e077251a0)" style="fill: #4a3d4b; stroke: #292929; stroke-linejoin: miter"/>
   </g>
   <g id="line2d_11">
    <path d="M 75.033 175.861843 
L 75.033 227.398021 
" clip-path="url(#p9e077251a0)" style="fill: none; stroke: #292929"/>
   </g>
   <g id="line2d_12">
    <path d="M 75.033 138.473853 
L 75.033 85.507533 
" clip-path="url(#p9e077251a0)" style="fill: none; stroke: #292929"/>
   </g>
   <g id="line2d_13">
    <path d="M 70.46355 227.398021 
L 79.60245 227.398021 
" clip-path="url(#p9e077251a0)" style="fill: none; stroke: #292929; stroke-linecap: square"/>
   </g>
   <g id="line2d_14">
    <path d="M 70.46355 85.507533 
L 79.60245 85.507533 
" clip-path="url(#p9e077251a0)" style="fill: none; stroke: #292929; stroke-linecap: square"/>
   </g>
   <g id="line2d_15">
    <defs>
     <path id="m62fd0afd6b" d="M -0 3.535534 
L 3.535534 0 
L 0 -3.535534 
L -3.535534 -0 
z
" style="stroke: #292929; stroke-linejoin: miter"/>
    </defs>
    <g clip-path="url(#p9e077251a0)">
     <use xlink:href="#m62fd0afd6b" x="75.033" y="41.019911" style="stroke: #292929; stroke-linejoin: miter"/>
     <use xlink:href="#m62fd0afd6b" x="75.033" y="64.208637" style="stroke: #292929; stroke-linejoin: miter"/>
     <use xlink:href="#m62fd0afd6b" x="75.033" y="28.506171" style="stroke: #292929; stroke-linejoin: miter"/>
     <use xlink:href="#m62fd0afd6b" x="75.033" y="39.181157" style="stroke: #292929; stroke-linejoin: miter"/>
     <use xlink:href="#m62fd0afd6b" x="75.033" y="45.054954" style="stroke: #292929; stroke-linejoin: miter"/>
     <use xlink:href="#m62fd0afd6b" x="75.033" y="49.651838" style="stroke: #292929; stroke-linejoin: miter"/>
     <use xlink:href="#m62fd0afd6b" x="75.033" y="43.2162" style="stroke: #292929; stroke-linejoin: miter"/>
    </g>
   </g>
   <g id="patch_4">
    <path d="M 126.8201 172.873868 
L 145.0979 172.873868 
L 145.0979 125.245042 
L 126.8201 125.245042 
L 126.8201 172.873868 
z
" clip-path="url(#p9e077251a0)" style="fill: #974664; stroke: #292929; stroke-linejoin: miter"/>
   </g>
   <g id="line2d_16">
    <path d="M 135.959 172.873868 
L 135.959 227.806632 
" clip-path="url(#p9e077251a0)" style="fill: none; stroke: #292929"/>
   </g>
   <g id="line2d_17">
    <path d="M 135.959 125.245042 
L 135.959 76.926683 
" clip-path="url(#p9e077251a0)" style="fill: none; stroke: #292929"/>
   </g>
   <g id="line2d_18">
    <path d="M 131.38955 227.806632 
L 140.52845 227.806632 
" clip-path="url(#p9e077251a0)" style="fill: none; stroke: #292929; stroke-linecap: square"/>
   </g>
   <g id="line2d_19">
    <path d="M 131.38955 76.926683 
L 140.52845 76.926683 
" clip-path="url(#p9e077251a0)" style="fill: none; stroke: #292929; stroke-linecap: square"/>
   </g>
   <g id="line2d_20">
    <g clip-path="url(#p9e077251a0)">
     <use xlink:href="#m62fd0afd6b" x="135.959" y="29.119089" style="stroke: #292929; stroke-linejoin: miter"/>
    </g>
   </g>
   <g id="patch_5">
    <path d="M 187.7461 184.085158 
L 206.0239 184.085158 
L 206.0239 146.620553 
L 187.7461 146.620553 
L 187.7461 184.085158 
z
" clip-path="url(#p9e077251a0)" style="fill: #b4c1d1; stroke: #292929; stroke-linejoin: miter"/>
   </g>
   <g id="line2d_21">
    <path d="M 196.885 184.085158 
L 196.885 233.731505 
" clip-path="url(#p9e077251a0)" style="fill: none; stroke: #292929"/>
   </g>
   <g id="line2d_22">
    <path d="M 196.885 146.620553 
L 196.885 93.11793 
" clip-path="url(#p9e077251a0)" style="fill: none; stroke: #292929"/>
   </g>
   <g id="line2d_23">
    <path d="M 192.31555 233.731505 
L 201.45445 233.731505 
" clip-path="url(#p9e077251a0)" style="fill: none; stroke: #292929; stroke-linecap: square"/>
   </g>
   <g id="line2d_24">
    <path d="M 192.31555 93.11793 
L 201.45445 93.11793 
" clip-path="url(#p9e077251a0)" style="fill: none; stroke: #292929; stroke-linecap: square"/>
   </g>
   <g id="line2d_25">
    <g clip-path="url(#p9e077251a0)">
     <use xlink:href="#m62fd0afd6b" x="196.885" y="41.837135" style="stroke: #292929; stroke-linejoin: miter"/>
     <use xlink:href="#m62fd0afd6b" x="196.885" y="34.686426" style="stroke: #292929; stroke-linejoin: miter"/>
     <use xlink:href="#m62fd0afd6b" x="196.885" y="27.535718" style="stroke: #292929; stroke-linejoin: miter"/>
     <use xlink:href="#m62fd0afd6b" x="196.885" y="42.552206" style="stroke: #292929; stroke-linejoin: miter"/>
     <use xlink:href="#m62fd0afd6b" x="196.885" y="41.786058" style="stroke: #292929; stroke-linejoin: miter"/>
     <use xlink:href="#m62fd0afd6b" x="196.885" y="89.849035" style="stroke: #292929; stroke-linejoin: miter"/>
     <use xlink:href="#m62fd0afd6b" x="196.885" y="89.849035" style="stroke: #292929; stroke-linejoin: miter"/>
     <use xlink:href="#m62fd0afd6b" x="196.885" y="89.440423" style="stroke: #292929; stroke-linejoin: miter"/>
     <use xlink:href="#m62fd0afd6b" x="196.885" y="89.491499" style="stroke: #292929; stroke-linejoin: miter"/>
     <use xlink:href="#m62fd0afd6b" x="196.885" y="40.202687" style="stroke: #292929; stroke-linejoin: miter"/>
     <use xlink:href="#m62fd0afd6b" x="196.885" y="87.601669" style="stroke: #292929; stroke-linejoin: miter"/>
     <use xlink:href="#m62fd0afd6b" x="196.885" y="86.580139" style="stroke: #292929; stroke-linejoin: miter"/>
    </g>
   </g>
   <g id="patch_6">
    <path d="M 248.6721 176.423684 
L 266.9499 176.423684 
L 266.9499 148.280539 
L 248.6721 148.280539 
L 248.6721 176.423684 
z
" clip-path="url(#p9e077251a0)" style="fill: #d3f4ee; stroke: #292929; stroke-linejoin: miter"/>
   </g>
   <g id="line2d_26">
    <path d="M 257.811 176.423684 
L 257.811 218.051023 
" clip-path="url(#p9e077251a0)" style="fill: none; stroke: #292929"/>
   </g>
   <g id="line2d_27">
    <path d="M 257.811 148.280539 
L 257.811 107.061812 
" clip-path="url(#p9e077251a0)" style="fill: none; stroke: #292929"/>
   </g>
   <g id="line2d_28">
    <path d="M 253.24155 218.051023 
L 262.38045 218.051023 
" clip-path="url(#p9e077251a0)" style="fill: none; stroke: #292929; stroke-linecap: square"/>
   </g>
   <g id="line2d_29">
    <path d="M 253.24155 107.061812 
L 262.38045 107.061812 
" clip-path="url(#p9e077251a0)" style="fill: none; stroke: #292929; stroke-linecap: square"/>
   </g>
   <g id="line2d_30">
    <g clip-path="url(#p9e077251a0)">
     <use xlink:href="#m62fd0afd6b" x="257.811" y="220.809153" style="stroke: #292929; stroke-linejoin: miter"/>
     <use xlink:href="#m62fd0afd6b" x="257.811" y="226.376491" style="stroke: #292929; stroke-linejoin: miter"/>
     <use xlink:href="#m62fd0afd6b" x="257.811" y="222.852213" style="stroke: #292929; stroke-linejoin: miter"/>
     <use xlink:href="#m62fd0afd6b" x="257.811" y="224.282355" style="stroke: #292929; stroke-linejoin: miter"/>
     <use xlink:href="#m62fd0afd6b" x="257.811" y="231.892752" style="stroke: #292929; stroke-linejoin: miter"/>
     <use xlink:href="#m62fd0afd6b" x="257.811" y="219.685471" style="stroke: #292929; stroke-linejoin: miter"/>
     <use xlink:href="#m62fd0afd6b" x="257.811" y="224.333431" style="stroke: #292929; stroke-linejoin: miter"/>
     <use xlink:href="#m62fd0afd6b" x="257.811" y="227.704479" style="stroke: #292929; stroke-linejoin: miter"/>
     <use xlink:href="#m62fd0afd6b" x="257.811" y="102.260622" style="stroke: #292929; stroke-linejoin: miter"/>
     <use xlink:href="#m62fd0afd6b" x="257.811" y="96.999743" style="stroke: #292929; stroke-linejoin: miter"/>
     <use xlink:href="#m62fd0afd6b" x="257.811" y="100.677251" style="stroke: #292929; stroke-linejoin: miter"/>
     <use xlink:href="#m62fd0afd6b" x="257.811" y="97.816967" style="stroke: #292929; stroke-linejoin: miter"/>
     <use xlink:href="#m62fd0afd6b" x="257.811" y="46.178636" style="stroke: #292929; stroke-linejoin: miter"/>
     <use xlink:href="#m62fd0afd6b" x="257.811" y="102.516004" style="stroke: #292929; stroke-linejoin: miter"/>
     <use xlink:href="#m62fd0afd6b" x="257.811" y="102.464928" style="stroke: #292929; stroke-linejoin: miter"/>
     <use xlink:href="#m62fd0afd6b" x="257.811" y="93.169007" style="stroke: #292929; stroke-linejoin: miter"/>
     <use xlink:href="#m62fd0afd6b" x="257.811" y="95.569602" style="stroke: #292929; stroke-linejoin: miter"/>
     <use xlink:href="#m62fd0afd6b" x="257.811" y="97.05082" style="stroke: #292929; stroke-linejoin: miter"/>
     <use xlink:href="#m62fd0afd6b" x="257.811" y="102.618157" style="stroke: #292929; stroke-linejoin: miter"/>
     <use xlink:href="#m62fd0afd6b" x="257.811" y="95.620678" style="stroke: #292929; stroke-linejoin: miter"/>
     <use xlink:href="#m62fd0afd6b" x="257.811" y="89.031811" style="stroke: #292929; stroke-linejoin: miter"/>
     <use xlink:href="#m62fd0afd6b" x="257.811" y="89.33827" style="stroke: #292929; stroke-linejoin: miter"/>
     <use xlink:href="#m62fd0afd6b" x="257.811" y="103.128922" style="stroke: #292929; stroke-linejoin: miter"/>
     <use xlink:href="#m62fd0afd6b" x="257.811" y="105.682746" style="stroke: #292929; stroke-linejoin: miter"/>
     <use xlink:href="#m62fd0afd6b" x="257.811" y="103.333228" style="stroke: #292929; stroke-linejoin: miter"/>
     <use xlink:href="#m62fd0afd6b" x="257.811" y="87.550593" style="stroke: #292929; stroke-linejoin: miter"/>
     <use xlink:href="#m62fd0afd6b" x="257.811" y="88.214587" style="stroke: #292929; stroke-linejoin: miter"/>
     <use xlink:href="#m62fd0afd6b" x="257.811" y="92.862548" style="stroke: #292929; stroke-linejoin: miter"/>
     <use xlink:href="#m62fd0afd6b" x="257.811" y="92.709318" style="stroke: #292929; stroke-linejoin: miter"/>
    </g>
   </g>
   <g id="patch_7">
    <path d="M 309.5981 180.484265 
L 327.8759 180.484265 
L 327.8759 142.700432 
L 309.5981 142.700432 
L 309.5981 180.484265 
z
" clip-path="url(#p9e077251a0)" style="fill: #1f9192; stroke: #292929; stroke-linejoin: miter"/>
   </g>
   <g id="line2d_31">
    <path d="M 318.737 180.484265 
L 318.737 233.425046 
" clip-path="url(#p9e077251a0)" style="fill: none; stroke: #292929"/>
   </g>
   <g id="line2d_32">
    <path d="M 318.737 142.700432 
L 318.737 87.141981 
" clip-path="url(#p9e077251a0)" style="fill: none; stroke: #292929"/>
   </g>
   <g id="line2d_33">
    <path d="M 314.16755 233.425046 
L 323.30645 233.425046 
" clip-path="url(#p9e077251a0)" style="fill: none; stroke: #292929; stroke-linecap: square"/>
   </g>
   <g id="line2d_34">
    <path d="M 314.16755 87.141981 
L 323.30645 87.141981 
" clip-path="url(#p9e077251a0)" style="fill: none; stroke: #292929; stroke-linecap: square"/>
   </g>
   <g id="line2d_35">
    <g clip-path="url(#p9e077251a0)">
     <use xlink:href="#m62fd0afd6b" x="318.737" y="22.12161" style="stroke: #292929; stroke-linejoin: miter"/>
     <use xlink:href="#m62fd0afd6b" x="318.737" y="28.965859" style="stroke: #292929; stroke-linejoin: miter"/>
     <use xlink:href="#m62fd0afd6b" x="318.737" y="28.863706" style="stroke: #292929; stroke-linejoin: miter"/>
     <use xlink:href="#m62fd0afd6b" x="318.737" y="76.466995" style="stroke: #292929; stroke-linejoin: miter"/>
     <use xlink:href="#m62fd0afd6b" x="318.737" y="38.006398" style="stroke: #292929; stroke-linejoin: miter"/>
     <use xlink:href="#m62fd0afd6b" x="318.737" y="49.651838" style="stroke: #292929; stroke-linejoin: miter"/>
    </g>
   </g>
   <g id="line2d_36">
    <path d="M 65.8941 162.045652 
L 84.1719 162.045652 
" clip-path="url(#p9e077251a0)" style="fill: none; stroke: #292929"/>
   </g>
   <g id="line2d_37">
    <path d="M 126.8201 157.448768 
L 145.0979 157.448768 
" clip-path="url(#p9e077251a0)" style="fill: none; stroke: #292929"/>
   </g>
   <g id="line2d_38">
    <path d="M 187.7461 163.041644 
L 206.0239 163.041644 
" clip-path="url(#p9e077251a0)" style="fill: none; stroke: #292929"/>
   </g>
   <g id="line2d_39">
    <path d="M 248.6721 163.24595 
L 266.9499 163.24595 
" clip-path="url(#p9e077251a0)" style="fill: none; stroke: #292929"/>
   </g>
   <g id="line2d_40">
    <path d="M 309.5981 163.220412 
L 327.8759 163.220412 
" clip-path="url(#p9e077251a0)" style="fill: none; stroke: #292929"/>
   </g>
   <g id="patch_8">
    <path d="M 44.57 244.312 
L 44.57 11.541115 
" style="fill: none; stroke: #000000; stroke-width: 0.8; stroke-linejoin: miter; stroke-linecap: square"/>
   </g>
   <g id="patch_9">
    <path d="M 349.2 244.312 
L 349.2 11.541115 
" style="fill: none; stroke: #000000; stroke-width: 0.8; stroke-linejoin: miter; stroke-linecap: square"/>
   </g>
   <g id="patch_10">
    <path d="M 44.57 244.312 
L 349.2 244.312 
" style="fill: none; stroke: #000000; stroke-width: 0.8; stroke-linejoin: miter; stroke-linecap: square"/>
   </g>
   <g id="patch_11">
    <path d="M 44.57 11.541115 
L 349.2 11.541115 
" style="fill: none; stroke: #000000; stroke-width: 0.8; stroke-linejoin: miter; stroke-linecap: square"/>
   </g>
  </g>
 </g>
 <defs>
  <clipPath id="p9e077251a0">
   <rect x="44.57" y="11.541115" width="304.63" height="232.770885"/>
  </clipPath>
 </defs>
</svg>
