<?xml version="1.0" encoding="utf-8" standalone="no"?>
<!DOCTYPE svg PUBLIC "-//W3C//DTD SVG 1.1//EN"
  "http://www.w3.org/Graphics/SVG/1.1/DTD/svg11.dtd">
<svg xmlns:xlink="http://www.w3.org/1999/xlink" width="360pt" height="288pt" viewBox="0 0 360 288" xmlns="http://www.w3.org/2000/svg" version="1.1">
 <metadata>
  <rdf:RDF xmlns:dc="http://purl.org/dc/elements/1.1/" xmlns:cc="http://creativecommons.org/ns#" xmlns:rdf="http://www.w3.org/1999/02/22-rdf-syntax-ns#">
   <cc:Work>
    <dc:type rdf:resource="http://purl.org/dc/dcmitype/StillImage"/>
    <dc:date>2024-10-13T12:30:06.206381</dc:date>
    <dc:format>image/svg+xml</dc:format>
    <dc:creator>
     <cc:Agent>
      <dc:title>Matplotlib v3.8.0, https://matplotlib.org/</dc:title>
     </cc:Agent>
    </dc:creator>
   </cc:Work>
  </rdf:RDF>
 </metadata>
 <defs>
  <style type="text/css">*{stroke-linejoin: round; stroke-linecap: butt}</style>
 </defs>
 <g id="figure_1">
  <g id="patch_1">
   <path d="M 0 288 
L 360 288 
L 360 0 
L 0 0 
z
" style="fill: #ffffff"/>
  </g>
  <g id="axes_1">
   <g id="patch_2">
    <path d="M 44.57 244.312 
L 349.2 244.312 
L 349.2 10.8 
L 44.57 10.8 
z
" style="fill: #ffffff"/>
   </g>
   <g id="PolyCollection_1">
    <defs>
     <path id="mbca2e6f0d4" d="M 75.089169 -59.895683 
L 74.976831 -59.895683 
L 74.947184 -61.932707 
L 74.905301 -63.969731 
L 74.847796 -66.006755 
L 74.771036 -68.043779 
L 74.6714 -70.080803 
L 74.545646 -72.117826 
L 74.391353 -74.15485 
L 74.207415 -76.191874 
L 73.994518 -78.228898 
L 73.755509 -80.265922 
L 73.495553 -82.302945 
L 73.221969 -84.339969 
L 72.943695 -86.376993 
L 72.670353 -88.414017 
L 72.411031 -90.451041 
L 72.172918 -92.488065 
L 71.960037 -94.525088 
L 71.772305 -96.562112 
L 71.605105 -98.599136 
L 71.449478 -100.63616 
L 71.292922 -102.673184 
L 71.120695 -104.710207 
L 70.917465 -106.747231 
L 70.669131 -108.784255 
L 70.364649 -110.821279 
L 69.997712 -112.858303 
L 69.568144 -114.895327 
L 69.082841 -116.93235 
L 68.556088 -118.969374 
L 68.009111 -121.006398 
L 67.468758 -123.043422 
L 66.965375 -125.080446 
L 66.530078 -127.117469 
L 66.191756 -129.154493 
L 65.974251 -131.191517 
L 65.8941 -133.228541 
L 65.959127 -135.265565 
L 66.167998 -137.302588 
L 66.510652 -139.339612 
L 66.969414 -141.376636 
L 67.520561 -143.41366 
L 68.136105 -145.450684 
L 68.785685 -147.487708 
L 69.438466 -149.524731 
L 70.065015 -151.561755 
L 70.639099 -153.598779 
L 71.139283 -155.635803 
L 71.550226 -157.672827 
L 71.863517 -159.70985 
L 72.077951 -161.746874 
L 72.199215 -163.783898 
L 72.239004 -165.820922 
L 72.213678 -167.857946 
L 72.142628 -169.89497 
L 72.046506 -171.931993 
L 71.945529 -173.969017 
L 71.857992 -176.006041 
L 71.799121 -178.043065 
L 71.780327 -180.080089 
L 71.808853 -182.117112 
L 71.887772 -184.154136 
L 72.016256 -186.19116 
L 72.190026 -188.228184 
L 72.40192 -190.265208 
L 72.642547 -192.302232 
L 72.901012 -194.339255 
L 73.165713 -196.376279 
L 73.425174 -198.413303 
L 73.668881 -200.450327 
L 73.888023 -202.487351 
L 74.076062 -204.524374 
L 74.229068 -206.561398 
L 74.345782 -208.598422 
L 74.427434 -210.635446 
L 74.477374 -212.67247 
L 74.500584 -214.709493 
L 74.503143 -216.746517 
L 74.491689 -218.783541 
L 74.472906 -220.820565 
L 74.453057 -222.857589 
L 74.437555 -224.894613 
L 74.430624 -226.931636 
L 74.435059 -228.96866 
L 74.45212 -231.005684 
L 74.481591 -233.042708 
L 74.521984 -235.079732 
L 74.570868 -237.116755 
L 74.625264 -239.153779 
L 74.682049 -241.190803 
L 74.738305 -243.227827 
L 74.791585 -245.264851 
L 74.840065 -247.301875 
L 74.882591 -249.338898 
L 74.918638 -251.375922 
L 74.948215 -253.412946 
L 74.971732 -255.44997 
L 74.989864 -257.486994 
L 75.003425 -259.524017 
L 75.013265 -261.561041 
L 75.052735 -261.561041 
L 75.052735 -261.561041 
L 75.062575 -259.524017 
L 75.076136 -257.486994 
L 75.094268 -255.44997 
L 75.117785 -253.412946 
L 75.147362 -251.375922 
L 75.183409 -249.338898 
L 75.225935 -247.301875 
L 75.274415 -245.264851 
L 75.327695 -243.227827 
L 75.383951 -241.190803 
L 75.440736 -239.153779 
L 75.495132 -237.116755 
L 75.544016 -235.079732 
L 75.584409 -233.042708 
L 75.61388 -231.005684 
L 75.630941 -228.96866 
L 75.635376 -226.931636 
L 75.628445 -224.894613 
L 75.612943 -222.857589 
L 75.593094 -220.820565 
L 75.574311 -218.783541 
L 75.562857 -216.746517 
L 75.565416 -214.709493 
L 75.588626 -212.67247 
L 75.638566 -210.635446 
L 75.720218 -208.598422 
L 75.836932 -206.561398 
L 75.989938 -204.524374 
L 76.177977 -202.487351 
L 76.397119 -200.450327 
L 76.640826 -198.413303 
L 76.900287 -196.376279 
L 77.164988 -194.339255 
L 77.423453 -192.302232 
L 77.66408 -190.265208 
L 77.875974 -188.228184 
L 78.049744 -186.19116 
L 78.178228 -184.154136 
L 78.257147 -182.117112 
L 78.285673 -180.080089 
L 78.266879 -178.043065 
L 78.208008 -176.006041 
L 78.120471 -173.969017 
L 78.019494 -171.931993 
L 77.923372 -169.89497 
L 77.852322 -167.857946 
L 77.826996 -165.820922 
L 77.866785 -163.783898 
L 77.988049 -161.746874 
L 78.202483 -159.70985 
L 78.515774 -157.672827 
L 78.926717 -155.635803 
L 79.426901 -153.598779 
L 80.000985 -151.561755 
L 80.627534 -149.524731 
L 81.280315 -147.487708 
L 81.929895 -145.450684 
L 82.545439 -143.41366 
L 83.096586 -141.376636 
L 83.555348 -139.339612 
L 83.898002 -137.302588 
L 84.106873 -135.265565 
L 84.1719 -133.228541 
L 84.091749 -131.191517 
L 83.874244 -129.154493 
L 83.535922 -127.117469 
L 83.100625 -125.080446 
L 82.597242 -123.043422 
L 82.056889 -121.006398 
L 81.509912 -118.969374 
L 80.983159 -116.93235 
L 80.497856 -114.895327 
L 80.068288 -112.858303 
L 79.701351 -110.821279 
L 79.396869 -108.784255 
L 79.148535 -106.747231 
L 78.945305 -104.710207 
L 78.773078 -102.673184 
L 78.616522 -100.63616 
L 78.460895 -98.599136 
L 78.293695 -96.562112 
L 78.105963 -94.525088 
L 77.893082 -92.488065 
L 77.654969 -90.451041 
L 77.395647 -88.414017 
L 77.122305 -86.376993 
L 76.844031 -84.339969 
L 76.570447 -82.302945 
L 76.310491 -80.265922 
L 76.071482 -78.228898 
L 75.858585 -76.191874 
L 75.674647 -74.15485 
L 75.520354 -72.117826 
L 75.3946 -70.080803 
L 75.294964 -68.043779 
L 75.218204 -66.006755 
L 75.160699 -63.969731 
L 75.118816 -61.932707 
L 75.089169 -59.895683 
z
" style="stroke: #292929; stroke-width: 1.25"/>
    </defs>
    <g clip-path="url(#pe0413db761)">
     <use xlink:href="#mbca2e6f0d4" x="0" y="288" style="fill: #4a3d4b; stroke: #292929; stroke-width: 1.25"/>
    </g>
   </g>
   <g id="PolyCollection_2">
    <defs>
     <path id="m9516e63f83" d="M 136.012005 -61.970165 
L 135.905995 -61.970165 
L 135.874325 -63.957109 
L 135.827948 -65.944053 
L 135.762374 -67.930997 
L 135.672868 -69.917941 
L 135.554957 -71.904884 
L 135.405135 -73.891828 
L 135.221667 -75.878772 
L 135.005406 -77.865716 
L 134.760424 -79.85266 
L 134.494287 -81.839604 
L 134.217794 -83.826548 
L 133.944093 -85.813492 
L 133.687199 -87.800436 
L 133.460108 -89.78738 
L 133.272791 -91.774324 
L 133.130454 -93.761267 
L 133.032378 -95.748211 
L 132.97157 -97.735155 
L 132.935258 -99.722099 
L 132.906101 -101.709043 
L 132.863874 -103.695987 
L 132.787382 -105.682931 
L 132.656398 -107.669875 
L 132.453547 -109.656819 
L 132.166097 -111.643763 
L 131.787623 -113.630707 
L 131.319424 -115.617651 
L 130.771456 -117.604594 
L 130.162491 -119.591538 
L 129.519249 -121.578482 
L 128.874469 -123.565426 
L 128.264083 -125.55237 
L 127.723951 -127.539314 
L 127.286687 -129.526258 
L 126.979039 -131.513202 
L 126.8201 -133.500146 
L 126.820311 -135.48709 
L 126.981081 -137.474034 
L 127.294768 -139.460977 
L 127.744922 -141.447921 
L 128.306865 -143.434865 
L 128.948833 -145.421809 
L 129.633902 -147.408753 
L 130.322702 -149.395697 
L 130.976692 -151.382641 
L 131.561484 -153.369585 
L 132.049663 -155.356529 
L 132.422662 -157.343473 
L 132.671526 -159.330417 
L 132.796721 -161.31736 
L 132.807297 -163.304304 
L 132.719739 -165.291248 
L 132.556662 -167.278192 
L 132.345334 -169.265136 
L 132.115856 -171.25208 
L 131.898913 -173.239024 
L 131.723144 -175.225968 
L 131.612474 -177.212912 
L 131.583837 -179.199856 
L 131.645778 -181.1868 
L 131.798172 -183.173744 
L 132.033078 -185.160687 
L 132.336457 -187.147631 
L 132.690346 -189.134575 
L 133.075082 -191.121519 
L 133.47126 -193.108463 
L 133.861281 -195.095407 
L 134.230425 -197.082351 
L 134.567496 -199.069295 
L 134.86507 -201.056239 
L 135.11939 -203.043183 
L 135.329975 -205.030127 
L 135.498978 -207.01707 
L 135.63043 -209.004014 
L 135.729437 -210.990958 
L 135.801466 -212.977902 
L 135.851771 -214.964846 
L 135.88502 -216.95179 
L 135.90511 -218.938734 
L 135.915152 -220.925678 
L 135.917578 -222.912622 
L 135.914323 -224.899566 
L 135.90702 -226.88651 
L 135.897165 -228.873453 
L 135.886223 -230.860397 
L 135.875643 -232.847341 
L 135.866786 -234.834285 
L 135.860803 -236.821229 
L 135.858492 -238.808173 
L 135.860185 -240.795117 
L 135.865707 -242.782061 
L 135.874431 -244.769005 
L 135.885397 -246.755949 
L 135.897498 -248.742893 
L 135.909662 -250.729837 
L 135.921 -252.71678 
L 135.930902 -254.703724 
L 135.939053 -256.690668 
L 135.945406 -258.677612 
L 135.972594 -258.677612 
L 135.972594 -258.677612 
L 135.978947 -256.690668 
L 135.987098 -254.703724 
L 135.997 -252.71678 
L 136.008338 -250.729837 
L 136.020502 -248.742893 
L 136.032603 -246.755949 
L 136.043569 -244.769005 
L 136.052293 -242.782061 
L 136.057815 -240.795117 
L 136.059508 -238.808173 
L 136.057197 -236.821229 
L 136.051214 -234.834285 
L 136.042357 -232.847341 
L 136.031777 -230.860397 
L 136.020835 -228.873453 
L 136.01098 -226.88651 
L 136.003677 -224.899566 
L 136.000422 -222.912622 
L 136.002848 -220.925678 
L 136.01289 -218.938734 
L 136.03298 -216.95179 
L 136.066229 -214.964846 
L 136.116534 -212.977902 
L 136.188563 -210.990958 
L 136.28757 -209.004014 
L 136.419022 -207.01707 
L 136.588025 -205.030127 
L 136.79861 -203.043183 
L 137.05293 -201.056239 
L 137.350504 -199.069295 
L 137.687575 -197.082351 
L 138.056719 -195.095407 
L 138.44674 -193.108463 
L 138.842918 -191.121519 
L 139.227654 -189.134575 
L 139.581543 -187.147631 
L 139.884922 -185.160687 
L 140.119828 -183.173744 
L 140.272222 -181.1868 
L 140.334163 -179.199856 
L 140.305526 -177.212912 
L 140.194856 -175.225968 
L 140.019087 -173.239024 
L 139.802144 -171.25208 
L 139.572666 -169.265136 
L 139.361338 -167.278192 
L 139.198261 -165.291248 
L 139.110703 -163.304304 
L 139.121279 -161.31736 
L 139.246474 -159.330417 
L 139.495338 -157.343473 
L 139.868337 -155.356529 
L 140.356516 -153.369585 
L 140.941308 -151.382641 
L 141.595298 -149.395697 
L 142.284098 -147.408753 
L 142.969167 -145.421809 
L 143.611135 -143.434865 
L 144.173078 -141.447921 
L 144.623232 -139.460977 
L 144.936919 -137.474034 
L 145.097689 -135.48709 
L 145.0979 -133.500146 
L 144.938961 -131.513202 
L 144.631313 -129.526258 
L 144.194049 -127.539314 
L 143.653917 -125.55237 
L 143.043531 -123.565426 
L 142.398751 -121.578482 
L 141.755509 -119.591538 
L 141.146544 -117.604594 
L 140.598576 -115.617651 
L 140.130377 -113.630707 
L 139.751903 -111.643763 
L 139.464453 -109.656819 
L 139.261602 -107.669875 
L 139.130618 -105.682931 
L 139.054126 -103.695987 
L 139.011899 -101.709043 
L 138.982742 -99.722099 
L 138.94643 -97.735155 
L 138.885622 -95.748211 
L 138.787546 -93.761267 
L 138.645209 -91.774324 
L 138.457892 -89.78738 
L 138.230801 -87.800436 
L 137.973907 -85.813492 
L 137.700206 -83.826548 
L 137.423713 -81.839604 
L 137.157576 -79.85266 
L 136.912594 -77.865716 
L 136.696333 -75.878772 
L 136.512865 -73.891828 
L 136.363043 -71.904884 
L 136.245132 -69.917941 
L 136.155626 -67.930997 
L 136.090052 -65.944053 
L 136.043675 -63.957109 
L 136.012005 -61.970165 
z
" style="stroke: #292929; stroke-width: 1.25"/>
    </defs>
    <g clip-path="url(#pe0413db761)">
     <use xlink:href="#m9516e63f83" x="0" y="288" style="fill: #974664; stroke: #292929; stroke-width: 1.25"/>
    </g>
   </g>
   <g id="PolyCollection_3">
    <defs>
     <path id="mcdf8c5bc52" d="M 196.942752 -54.302182 
L 196.827248 -54.302182 
L 196.796257 -56.409307 
L 196.752275 -58.516432 
L 196.691658 -60.623557 
L 196.610488 -62.730682 
L 196.50485 -64.837807 
L 196.371203 -66.944932 
L 196.206842 -69.052058 
L 196.010401 -71.159183 
L 195.782353 -73.266308 
L 195.525432 -75.373433 
L 195.244866 -77.480558 
L 194.948357 -79.587683 
L 194.645695 -81.694808 
L 194.348016 -83.801933 
L 194.066707 -85.909058 
L 193.812095 -88.016184 
L 193.592085 -90.123309 
L 193.41097 -92.230434 
L 193.268585 -94.337559 
L 193.159947 -96.444684 
L 193.075403 -98.551809 
L 193.001249 -100.658934 
L 192.920724 -102.766059 
L 192.815292 -104.873184 
L 192.666177 -106.98031 
L 192.456131 -109.087435 
L 192.171457 -111.19456 
L 191.804205 -113.301685 
L 191.354332 -115.40881 
L 190.831478 -117.515935 
L 190.255879 -119.62306 
L 189.657967 -121.730185 
L 189.076376 -123.83731 
L 188.554374 -125.944436 
L 188.135116 -128.051561 
L 187.85644 -130.158686 
L 187.7461 -132.265811 
L 187.818291 -134.372936 
L 188.072055 -136.480061 
L 188.491779 -138.587186 
L 189.049567 -140.694311 
L 189.708922 -142.801436 
L 190.42901 -144.908562 
L 191.168781 -147.015687 
L 191.890412 -149.122812 
L 192.561741 -151.229937 
L 193.157661 -153.337062 
L 193.660607 -155.444187 
L 194.060377 -157.551312 
L 194.353557 -159.658437 
L 194.542777 -161.765562 
L 194.635908 -163.872687 
L 194.645278 -165.979813 
L 194.586874 -168.086938 
L 194.479468 -170.194063 
L 194.343624 -172.301188 
L 194.200524 -174.408313 
L 194.070658 -176.515438 
L 193.972425 -178.622563 
L 193.920794 -180.729688 
L 193.92617 -182.836813 
L 193.993633 -184.943939 
L 194.122667 -187.051064 
L 194.307446 -189.158189 
L 194.537664 -191.265314 
L 194.799788 -193.372439 
L 195.078584 -195.479564 
L 195.358695 -197.586689 
L 195.62606 -199.693814 
L 195.869014 -201.800939 
L 196.078964 -203.908065 
L 196.250631 -206.01519 
L 196.381912 -208.122315 
L 196.47349 -210.22944 
L 196.528305 -212.336565 
L 196.55101 -214.44369 
L 196.547467 -216.550815 
L 196.524311 -218.65794 
L 196.488549 -220.765065 
L 196.44718 -222.872191 
L 196.406779 -224.979316 
L 196.37309 -227.086441 
L 196.350625 -229.193566 
L 196.342359 -231.300691 
L 196.349568 -233.407816 
L 196.371851 -235.514941 
L 196.407351 -237.622066 
L 196.453124 -239.729191 
L 196.505611 -241.836317 
L 196.561121 -243.943442 
L 196.616254 -246.050567 
L 196.668213 -248.157692 
L 196.714979 -250.264817 
L 196.755351 -252.371942 
L 196.788878 -254.479067 
L 196.815718 -256.586192 
L 196.836461 -258.693317 
L 196.851952 -260.800443 
L 196.86314 -262.907568 
L 196.90686 -262.907568 
L 196.90686 -262.907568 
L 196.918048 -260.800443 
L 196.933539 -258.693317 
L 196.954282 -256.586192 
L 196.981122 -254.479067 
L 197.014649 -252.371942 
L 197.055021 -250.264817 
L 197.101787 -248.157692 
L 197.153746 -246.050567 
L 197.208879 -243.943442 
L 197.264389 -241.836317 
L 197.316876 -239.729191 
L 197.362649 -237.622066 
L 197.398149 -235.514941 
L 197.420432 -233.407816 
L 197.427641 -231.300691 
L 197.419375 -229.193566 
L 197.39691 -227.086441 
L 197.363221 -224.979316 
L 197.32282 -222.872191 
L 197.281451 -220.765065 
L 197.245689 -218.65794 
L 197.222533 -216.550815 
L 197.21899 -214.44369 
L 197.241695 -212.336565 
L 197.29651 -210.22944 
L 197.388088 -208.122315 
L 197.519369 -206.01519 
L 197.691036 -203.908065 
L 197.900986 -201.800939 
L 198.14394 -199.693814 
L 198.411305 -197.586689 
L 198.691416 -195.479564 
L 198.970212 -193.372439 
L 199.232336 -191.265314 
L 199.462554 -189.158189 
L 199.647333 -187.051064 
L 199.776367 -184.943939 
L 199.84383 -182.836813 
L 199.849206 -180.729688 
L 199.797575 -178.622563 
L 199.699342 -176.515438 
L 199.569476 -174.408313 
L 199.426376 -172.301188 
L 199.290532 -170.194063 
L 199.183126 -168.086938 
L 199.124722 -165.979813 
L 199.134092 -163.872687 
L 199.227223 -161.765562 
L 199.416443 -159.658437 
L 199.709623 -157.551312 
L 200.109393 -155.444187 
L 200.612339 -153.337062 
L 201.208259 -151.229937 
L 201.879588 -149.122812 
L 202.601219 -147.015687 
L 203.34099 -144.908562 
L 204.061078 -142.801436 
L 204.720433 -140.694311 
L 205.278221 -138.587186 
L 205.697945 -136.480061 
L 205.951709 -134.372936 
L 206.0239 -132.265811 
L 205.91356 -130.158686 
L 205.634884 -128.051561 
L 205.215626 -125.944436 
L 204.693624 -123.83731 
L 204.112033 -121.730185 
L 203.514121 -119.62306 
L 202.938522 -117.515935 
L 202.415668 -115.40881 
L 201.965795 -113.301685 
L 201.598543 -111.19456 
L 201.313869 -109.087435 
L 201.103823 -106.98031 
L 200.954708 -104.873184 
L 200.849276 -102.766059 
L 200.768751 -100.658934 
L 200.694597 -98.551809 
L 200.610053 -96.444684 
L 200.501415 -94.337559 
L 200.35903 -92.230434 
L 200.177915 -90.123309 
L 199.957905 -88.016184 
L 199.703293 -85.909058 
L 199.421984 -83.801933 
L 199.124305 -81.694808 
L 198.821643 -79.587683 
L 198.525134 -77.480558 
L 198.244568 -75.373433 
L 197.987647 -73.266308 
L 197.759599 -71.159183 
L 197.563158 -69.052058 
L 197.398797 -66.944932 
L 197.26515 -64.837807 
L 197.159512 -62.730682 
L 197.078342 -60.623557 
L 197.017725 -58.516432 
L 196.973743 -56.409307 
L 196.942752 -54.302182 
z
" style="stroke: #292929; stroke-width: 1.25"/>
    </defs>
    <g clip-path="url(#pe0413db761)">
     <use xlink:href="#mcdf8c5bc52" x="0" y="288" style="fill: #b4c1d1; stroke: #292929; stroke-width: 1.25"/>
    </g>
   </g>
   <g id="PolyCollection_4">
    <defs>
     <path id="m4c5aeafe30" d="M 257.84799 -59.612312 
L 257.77401 -59.612312 
L 257.751826 -61.477746 
L 257.719261 -63.34318 
L 257.673078 -65.208614 
L 257.609786 -67.074047 
L 257.525948 -68.939481 
L 257.418596 -70.804915 
L 257.285723 -72.670348 
L 257.126788 -74.535782 
L 256.943163 -76.401216 
L 256.738427 -78.266649 
L 256.518421 -80.132083 
L 256.290993 -81.997517 
L 256.065396 -83.86295 
L 255.851357 -85.728384 
L 255.6579 -87.593818 
L 255.492086 -89.459252 
L 255.357871 -91.324685 
L 255.255318 -93.190119 
L 255.180334 -95.055553 
L 255.125013 -96.920986 
L 255.078527 -98.78642 
L 255.028344 -100.651854 
L 254.961477 -102.517287 
L 254.865466 -104.382721 
L 254.728917 -106.248155 
L 254.541632 -108.113588 
L 254.294542 -109.979022 
L 253.97986 -111.844456 
L 253.591788 -113.709889 
L 253.127987 -115.575323 
L 252.591661 -117.440757 
L 251.993781 -119.306191 
L 251.354697 -121.171624 
L 250.704412 -123.037058 
L 250.080999 -124.902492 
L 249.527106 -126.767925 
L 249.085047 -128.633359 
L 248.791386 -130.498793 
L 248.6721 -132.364226 
L 248.739292 -134.22966 
L 248.990011 -136.095094 
L 249.407236 -137.960527 
L 249.962601 -139.825961 
L 250.620154 -141.691395 
L 251.340374 -143.556828 
L 252.083821 -145.422262 
L 252.814025 -147.287696 
L 253.4995 -149.15313 
L 254.11494 -151.018563 
L 254.64175 -152.883997 
L 255.06811 -154.749431 
L 255.388724 -156.614864 
L 255.604356 -158.480298 
L 255.721243 -160.345732 
L 255.750374 -162.211165 
L 255.706655 -164.076599 
L 255.607917 -165.942033 
L 255.473764 -167.807466 
L 255.324286 -169.6729 
L 255.178723 -171.538334 
L 255.054195 -173.403767 
L 254.964661 -175.269201 
L 254.920209 -177.134635 
L 254.926753 -179.000069 
L 254.986128 -180.865502 
L 255.096489 -182.730936 
L 255.252905 -184.59637 
L 255.448048 -186.461803 
L 255.672877 -188.327237 
L 255.917305 -190.192671 
L 256.170846 -192.058104 
L 256.423257 -193.923538 
L 256.66517 -195.788972 
L 256.888666 -197.654405 
L 257.087738 -199.519839 
L 257.258563 -201.385273 
L 257.399538 -203.250706 
L 257.511082 -205.11614 
L 257.595251 -206.981574 
L 257.655251 -208.847008 
L 257.694938 -210.712441 
L 257.718395 -212.577875 
L 257.729614 -214.443309 
L 257.732296 -216.308742 
L 257.729739 -218.174176 
L 257.724766 -220.03961 
L 257.719683 -221.905043 
L 257.716223 -223.770477 
L 257.715519 -225.635911 
L 257.718087 -227.501344 
L 257.723879 -229.366778 
L 257.732376 -231.232212 
L 257.742746 -233.097646 
L 257.754021 -234.963079 
L 257.765263 -236.828513 
L 257.775702 -238.693947 
L 257.784809 -240.55938 
L 257.792316 -242.424814 
L 257.798186 -244.290248 
L 257.823814 -244.290248 
L 257.823814 -244.290248 
L 257.829684 -242.424814 
L 257.837191 -240.55938 
L 257.846298 -238.693947 
L 257.856737 -236.828513 
L 257.867979 -234.963079 
L 257.879254 -233.097646 
L 257.889624 -231.232212 
L 257.898121 -229.366778 
L 257.903913 -227.501344 
L 257.906481 -225.635911 
L 257.905777 -223.770477 
L 257.902317 -221.905043 
L 257.897234 -220.03961 
L 257.892261 -218.174176 
L 257.889704 -216.308742 
L 257.892386 -214.443309 
L 257.903605 -212.577875 
L 257.927062 -210.712441 
L 257.966749 -208.847008 
L 258.026749 -206.981574 
L 258.110918 -205.11614 
L 258.222462 -203.250706 
L 258.363437 -201.385273 
L 258.534262 -199.519839 
L 258.733334 -197.654405 
L 258.95683 -195.788972 
L 259.198743 -193.923538 
L 259.451154 -192.058104 
L 259.704695 -190.192671 
L 259.949123 -188.327237 
L 260.173952 -186.461803 
L 260.369095 -184.59637 
L 260.525511 -182.730936 
L 260.635872 -180.865502 
L 260.695247 -179.000069 
L 260.701791 -177.134635 
L 260.657339 -175.269201 
L 260.567805 -173.403767 
L 260.443277 -171.538334 
L 260.297714 -169.6729 
L 260.148236 -167.807466 
L 260.014083 -165.942033 
L 259.915345 -164.076599 
L 259.871626 -162.211165 
L 259.900757 -160.345732 
L 260.017644 -158.480298 
L 260.233276 -156.614864 
L 260.55389 -154.749431 
L 260.98025 -152.883997 
L 261.50706 -151.018563 
L 262.1225 -149.15313 
L 262.807975 -147.287696 
L 263.538179 -145.422262 
L 264.281626 -143.556828 
L 265.001846 -141.691395 
L 265.659399 -139.825961 
L 266.214764 -137.960527 
L 266.631989 -136.095094 
L 266.882708 -134.22966 
L 266.9499 -132.364226 
L 266.830614 -130.498793 
L 266.536953 -128.633359 
L 266.094894 -126.767925 
L 265.541001 -124.902492 
L 264.917588 -123.037058 
L 264.267303 -121.171624 
L 263.628219 -119.306191 
L 263.030339 -117.440757 
L 262.494013 -115.575323 
L 262.030212 -113.709889 
L 261.64214 -111.844456 
L 261.327458 -109.979022 
L 261.080368 -108.113588 
L 260.893083 -106.248155 
L 260.756534 -104.382721 
L 260.660523 -102.517287 
L 260.593656 -100.651854 
L 260.543473 -98.78642 
L 260.496987 -96.920986 
L 260.441666 -95.055553 
L 260.366682 -93.190119 
L 260.264129 -91.324685 
L 260.129914 -89.459252 
L 259.9641 -87.593818 
L 259.770643 -85.728384 
L 259.556604 -83.86295 
L 259.331007 -81.997517 
L 259.103579 -80.132083 
L 258.883573 -78.266649 
L 258.678837 -76.401216 
L 258.495212 -74.535782 
L 258.336277 -72.670348 
L 258.203404 -70.804915 
L 258.096052 -68.939481 
L 258.012214 -67.074047 
L 257.948922 -65.208614 
L 257.902739 -63.34318 
L 257.870174 -61.477746 
L 257.84799 -59.612312 
z
" style="stroke: #292929; stroke-width: 1.25"/>
    </defs>
    <g clip-path="url(#pe0413db761)">
     <use xlink:href="#m4c5aeafe30" x="0" y="288" style="fill: #d3f4ee; stroke: #292929; stroke-width: 1.25"/>
    </g>
   </g>
   <g id="PolyCollection_5">
    <defs>
     <path id="m199239a6bd" d="M 318.799562 -55.154038 
L 318.674438 -55.154038 
L 318.63963 -57.289713 
L 318.589848 -59.425387 
L 318.520886 -61.561062 
L 318.428301 -63.696736 
L 318.307784 -65.832411 
L 318.15566 -67.968086 
L 317.969467 -70.10376 
L 317.748589 -72.239435 
L 317.494854 -74.375109 
L 317.212993 -76.510784 
L 316.910843 -78.646458 
L 316.599165 -80.782133 
L 316.290978 -82.917807 
L 316.000406 -85.053482 
L 315.741093 -87.189156 
L 315.524384 -89.324831 
L 315.357553 -91.460506 
L 315.242363 -93.59618 
L 315.174231 -95.731855 
L 315.142137 -97.867529 
L 315.129299 -100.003204 
L 315.114491 -102.138878 
L 315.073859 -104.274553 
L 314.983051 -106.410227 
L 314.819569 -108.545902 
L 314.565277 -110.681576 
L 314.208955 -112.817251 
L 313.748751 -114.952926 
L 313.194148 -117.0886 
L 312.567 -119.224275 
L 311.901122 -121.359949 
L 311.24008 -123.495624 
L 310.633159 -125.631298 
L 310.129912 -127.766973 
L 309.774104 -129.902647 
L 309.5981 -132.038322 
L 309.618725 -134.173996 
L 309.835346 -136.309671 
L 310.23044 -138.445345 
L 310.7724 -140.58102 
L 311.419929 -142.716695 
L 312.127135 -144.852369 
L 312.848471 -146.988044 
L 313.542846 -149.123718 
L 314.176516 -151.259393 
L 314.724682 -153.395067 
L 315.171927 -155.530742 
L 315.511795 -157.666416 
L 315.745822 -159.802091 
L 315.882306 -161.937765 
L 315.934991 -164.07344 
L 315.921729 -166.209115 
L 315.863096 -168.344789 
L 315.780924 -170.480464 
L 315.696724 -172.616138 
L 315.630073 -174.751813 
L 315.597125 -176.887487 
L 315.609442 -179.023162 
L 315.673333 -181.158836 
L 315.789804 -183.294511 
L 315.955088 -185.430185 
L 316.161625 -187.56586 
L 316.399286 -189.701535 
L 316.656625 -191.837209 
L 316.922009 -193.972884 
L 317.184524 -196.108558 
L 317.434631 -198.244233 
L 317.664599 -200.379907 
L 317.86873 -202.515582 
L 318.043418 -204.651256 
L 318.187061 -206.786931 
L 318.299846 -208.922605 
L 318.383441 -211.05828 
L 318.440618 -213.193955 
L 318.474873 -215.329629 
L 318.49007 -217.465304 
L 318.490147 -219.600978 
L 318.478926 -221.736653 
L 318.459999 -223.872327 
L 318.436703 -226.008002 
L 318.412121 -228.143676 
L 318.389098 -230.279351 
L 318.370205 -232.415025 
L 318.357658 -234.5507 
L 318.353182 -236.686375 
L 318.357846 -238.822049 
L 318.371933 -240.957724 
L 318.39488 -243.093398 
L 318.425321 -245.229073 
L 318.461256 -247.364747 
L 318.500307 -249.500422 
L 318.540024 -251.636096 
L 318.578179 -253.771771 
L 318.613 -255.907445 
L 318.643297 -258.04312 
L 318.668495 -260.178795 
L 318.688563 -262.314469 
L 318.703889 -264.450144 
L 318.715123 -266.585818 
L 318.758877 -266.585818 
L 318.758877 -266.585818 
L 318.770111 -264.450144 
L 318.785437 -262.314469 
L 318.805505 -260.178795 
L 318.830703 -258.04312 
L 318.861 -255.907445 
L 318.895821 -253.771771 
L 318.933976 -251.636096 
L 318.973693 -249.500422 
L 319.012744 -247.364747 
L 319.048679 -245.229073 
L 319.07912 -243.093398 
L 319.102067 -240.957724 
L 319.116154 -238.822049 
L 319.120818 -236.686375 
L 319.116342 -234.5507 
L 319.103795 -232.415025 
L 319.084902 -230.279351 
L 319.061879 -228.143676 
L 319.037297 -226.008002 
L 319.014001 -223.872327 
L 318.995074 -221.736653 
L 318.983853 -219.600978 
L 318.98393 -217.465304 
L 318.999127 -215.329629 
L 319.033382 -213.193955 
L 319.090559 -211.05828 
L 319.174154 -208.922605 
L 319.286939 -206.786931 
L 319.430582 -204.651256 
L 319.60527 -202.515582 
L 319.809401 -200.379907 
L 320.039369 -198.244233 
L 320.289476 -196.108558 
L 320.551991 -193.972884 
L 320.817375 -191.837209 
L 321.074714 -189.701535 
L 321.312375 -187.56586 
L 321.518912 -185.430185 
L 321.684196 -183.294511 
L 321.800667 -181.158836 
L 321.864558 -179.023162 
L 321.876875 -176.887487 
L 321.843927 -174.751813 
L 321.777276 -172.616138 
L 321.693076 -170.480464 
L 321.610904 -168.344789 
L 321.552271 -166.209115 
L 321.539009 -164.07344 
L 321.591694 -161.937765 
L 321.728178 -159.802091 
L 321.962205 -157.666416 
L 322.302073 -155.530742 
L 322.749318 -153.395067 
L 323.297484 -151.259393 
L 323.931154 -149.123718 
L 324.625529 -146.988044 
L 325.346865 -144.852369 
L 326.054071 -142.716695 
L 326.7016 -140.58102 
L 327.24356 -138.445345 
L 327.638654 -136.309671 
L 327.855275 -134.173996 
L 327.8759 -132.038322 
L 327.699896 -129.902647 
L 327.344088 -127.766973 
L 326.840841 -125.631298 
L 326.23392 -123.495624 
L 325.572878 -121.359949 
L 324.907 -119.224275 
L 324.279852 -117.0886 
L 323.725249 -114.952926 
L 323.265045 -112.817251 
L 322.908723 -110.681576 
L 322.654431 -108.545902 
L 322.490949 -106.410227 
L 322.400141 -104.274553 
L 322.359509 -102.138878 
L 322.344701 -100.003204 
L 322.331863 -97.867529 
L 322.299769 -95.731855 
L 322.231637 -93.59618 
L 322.116447 -91.460506 
L 321.949616 -89.324831 
L 321.732907 -87.189156 
L 321.473594 -85.053482 
L 321.183022 -82.917807 
L 320.874835 -80.782133 
L 320.563157 -78.646458 
L 320.261007 -76.510784 
L 319.979146 -74.375109 
L 319.725411 -72.239435 
L 319.504533 -70.10376 
L 319.31834 -67.968086 
L 319.166216 -65.832411 
L 319.045699 -63.696736 
L 318.953114 -61.561062 
L 318.884152 -59.425387 
L 318.83437 -57.289713 
L 318.799562 -55.154038 
z
" style="stroke: #292929; stroke-width: 1.25"/>
    </defs>
    <g clip-path="url(#pe0413db761)">
     <use xlink:href="#m199239a6bd" x="0" y="288" style="fill: #1f9192; stroke: #292929; stroke-width: 1.25"/>
    </g>
   </g>
   <g id="matplotlib.axis_1">
    <g id="xtick_1">
     <g id="line2d_1">
      <defs>
       <path id="m49b0f1762b" d="M 0 0 
L 0 3.5 
" style="stroke: #000000; stroke-width: 0.8"/>
      </defs>
      <g>
       <use xlink:href="#m49b0f1762b" x="75.033" y="244.312" style="stroke: #000000; stroke-width: 0.8"/>
      </g>
     </g>
     <g id="text_1">
      <!-- 1 -->
      <g transform="translate(71.85175 258.910438) scale(0.1 -0.1)">
       <defs>
        <path id="DejaVuSans-31" d="M 794 531 
L 1825 531 
L 1825 4091 
L 703 3866 
L 703 4441 
L 1819 4666 
L 2450 4666 
L 2450 531 
L 3481 531 
L 3481 0 
L 794 0 
L 794 531 
z
" transform="scale(0.015625)"/>
       </defs>
       <use xlink:href="#DejaVuSans-31"/>
      </g>
     </g>
    </g>
    <g id="xtick_2">
     <g id="line2d_2">
      <g>
       <use xlink:href="#m49b0f1762b" x="135.959" y="244.312" style="stroke: #000000; stroke-width: 0.8"/>
      </g>
     </g>
     <g id="text_2">
      <!-- 2 -->
      <g transform="translate(132.77775 258.910438) scale(0.1 -0.1)">
       <defs>
        <path id="DejaVuSans-32" d="M 1228 531 
L 3431 531 
L 3431 0 
L 469 0 
L 469 531 
Q 828 903 1448 1529 
Q 2069 2156 2228 2338 
Q 2531 2678 2651 2914 
Q 2772 3150 2772 3378 
Q 2772 3750 2511 3984 
Q 2250 4219 1831 4219 
Q 1534 4219 1204 4116 
Q 875 4013 500 3803 
L 500 4441 
Q 881 4594 1212 4672 
Q 1544 4750 1819 4750 
Q 2544 4750 2975 4387 
Q 3406 4025 3406 3419 
Q 3406 3131 3298 2873 
Q 3191 2616 2906 2266 
Q 2828 2175 2409 1742 
Q 1991 1309 1228 531 
z
" transform="scale(0.015625)"/>
       </defs>
       <use xlink:href="#DejaVuSans-32"/>
      </g>
     </g>
    </g>
    <g id="xtick_3">
     <g id="line2d_3">
      <g>
       <use xlink:href="#m49b0f1762b" x="196.885" y="244.312" style="stroke: #000000; stroke-width: 0.8"/>
      </g>
     </g>
     <g id="text_3">
      <!-- 3 -->
      <g transform="translate(193.70375 258.910438) scale(0.1 -0.1)">
       <defs>
        <path id="DejaVuSans-33" d="M 2597 2516 
Q 3050 2419 3304 2112 
Q 3559 1806 3559 1356 
Q 3559 666 3084 287 
Q 2609 -91 1734 -91 
Q 1441 -91 1130 -33 
Q 819 25 488 141 
L 488 750 
Q 750 597 1062 519 
Q 1375 441 1716 441 
Q 2309 441 2620 675 
Q 2931 909 2931 1356 
Q 2931 1769 2642 2001 
Q 2353 2234 1838 2234 
L 1294 2234 
L 1294 2753 
L 1863 2753 
Q 2328 2753 2575 2939 
Q 2822 3125 2822 3475 
Q 2822 3834 2567 4026 
Q 2313 4219 1838 4219 
Q 1578 4219 1281 4162 
Q 984 4106 628 3988 
L 628 4550 
Q 988 4650 1302 4700 
Q 1616 4750 1894 4750 
Q 2613 4750 3031 4423 
Q 3450 4097 3450 3541 
Q 3450 3153 3228 2886 
Q 3006 2619 2597 2516 
z
" transform="scale(0.015625)"/>
       </defs>
       <use xlink:href="#DejaVuSans-33"/>
      </g>
     </g>
    </g>
    <g id="xtick_4">
     <g id="line2d_4">
      <g>
       <use xlink:href="#m49b0f1762b" x="257.811" y="244.312" style="stroke: #000000; stroke-width: 0.8"/>
      </g>
     </g>
     <g id="text_4">
      <!-- 4 -->
      <g transform="translate(254.62975 258.910438) scale(0.1 -0.1)">
       <defs>
        <path id="DejaVuSans-34" d="M 2419 4116 
L 825 1625 
L 2419 1625 
L 2419 4116 
z
M 2253 4666 
L 3047 4666 
L 3047 1625 
L 3713 1625 
L 3713 1100 
L 3047 1100 
L 3047 0 
L 2419 0 
L 2419 1100 
L 313 1100 
L 313 1709 
L 2253 4666 
z
" transform="scale(0.015625)"/>
       </defs>
       <use xlink:href="#DejaVuSans-34"/>
      </g>
     </g>
    </g>
    <g id="xtick_5">
     <g id="line2d_5">
      <g>
       <use xlink:href="#m49b0f1762b" x="318.737" y="244.312" style="stroke: #000000; stroke-width: 0.8"/>
      </g>
     </g>
     <g id="text_5">
      <!-- 5 -->
      <g transform="translate(315.55575 258.910438) scale(0.1 -0.1)">
       <defs>
        <path id="DejaVuSans-35" d="M 691 4666 
L 3169 4666 
L 3169 4134 
L 1269 4134 
L 1269 2991 
Q 1406 3038 1543 3061 
Q 1681 3084 1819 3084 
Q 2600 3084 3056 2656 
Q 3513 2228 3513 1497 
Q 3513 744 3044 326 
Q 2575 -91 1722 -91 
Q 1428 -91 1123 -41 
Q 819 9 494 109 
L 494 744 
Q 775 591 1075 516 
Q 1375 441 1709 441 
Q 2250 441 2565 725 
Q 2881 1009 2881 1497 
Q 2881 1984 2565 2268 
Q 2250 2553 1709 2553 
Q 1456 2553 1204 2497 
Q 953 2441 691 2322 
L 691 4666 
z
" transform="scale(0.015625)"/>
       </defs>
       <use xlink:href="#DejaVuSans-35"/>
      </g>
     </g>
    </g>
    <g id="text_6">
     <!-- $S_{ID}$ -->
     <g transform="translate(189.835 272.588563) scale(0.1 -0.1)">
      <defs>
       <path id="DejaVuSans-Oblique-53" d="M 3859 4513 
L 3738 3897 
Q 3422 4066 3111 4152 
Q 2800 4238 2509 4238 
Q 1944 4238 1609 3991 
Q 1275 3744 1275 3334 
Q 1275 3109 1398 2989 
Q 1522 2869 2034 2731 
L 2413 2638 
Q 3053 2472 3303 2217 
Q 3553 1963 3553 1503 
Q 3553 797 2998 353 
Q 2444 -91 1538 -91 
Q 1166 -91 791 -17 
Q 416 56 38 206 
L 166 856 
Q 513 641 861 531 
Q 1209 422 1556 422 
Q 2147 422 2503 684 
Q 2859 947 2859 1369 
Q 2859 1650 2717 1795 
Q 2575 1941 2106 2059 
L 1728 2156 
Q 1081 2325 845 2545 
Q 609 2766 609 3163 
Q 609 3859 1145 4304 
Q 1681 4750 2541 4750 
Q 2875 4750 3203 4690 
Q 3531 4631 3859 4513 
z
" transform="scale(0.015625)"/>
       <path id="DejaVuSans-Oblique-49" d="M 1081 4666 
L 1716 4666 
L 806 0 
L 172 0 
L 1081 4666 
z
" transform="scale(0.015625)"/>
       <path id="DejaVuSans-Oblique-44" d="M 1081 4666 
L 2438 4666 
Q 3519 4666 4070 4208 
Q 4622 3750 4622 2847 
Q 4622 2250 4412 1698 
Q 4203 1147 3834 769 
Q 3463 381 2891 190 
Q 2319 0 1538 0 
L 172 0 
L 1081 4666 
z
M 1613 4147 
L 909 519 
L 1734 519 
Q 2794 519 3375 1128 
Q 3956 1738 3956 2847 
Q 3956 3519 3581 3833 
Q 3206 4147 2406 4147 
L 1613 4147 
z
" transform="scale(0.015625)"/>
      </defs>
      <use xlink:href="#DejaVuSans-Oblique-53" transform="translate(0 0.78125)"/>
      <use xlink:href="#DejaVuSans-Oblique-49" transform="translate(63.476562 -15.625) scale(0.7)"/>
      <use xlink:href="#DejaVuSans-Oblique-44" transform="translate(84.121094 -15.625) scale(0.7)"/>
     </g>
    </g>
   </g>
   <g id="matplotlib.axis_2">
    <g id="ytick_1">
     <g id="line2d_6">
      <defs>
       <path id="m08952106f5" d="M 0 0 
L -3.5 0 
" style="stroke: #000000; stroke-width: 0.8"/>
      </defs>
      <g>
       <use xlink:href="#m08952106f5" x="44.57" y="239.998497" style="stroke: #000000; stroke-width: 0.8"/>
      </g>
     </g>
     <g id="text_7">
      <!-- 0 -->
      <g transform="translate(31.2075 243.797715) scale(0.1 -0.1)">
       <defs>
        <path id="DejaVuSans-30" d="M 2034 4250 
Q 1547 4250 1301 3770 
Q 1056 3291 1056 2328 
Q 1056 1369 1301 889 
Q 1547 409 2034 409 
Q 2525 409 2770 889 
Q 3016 1369 3016 2328 
Q 3016 3291 2770 3770 
Q 2525 4250 2034 4250 
z
M 2034 4750 
Q 2819 4750 3233 4129 
Q 3647 3509 3647 2328 
Q 3647 1150 3233 529 
Q 2819 -91 2034 -91 
Q 1250 -91 836 529 
Q 422 1150 422 2328 
Q 422 3509 836 4129 
Q 1250 4750 2034 4750 
z
" transform="scale(0.015625)"/>
       </defs>
       <use xlink:href="#DejaVuSans-30"/>
      </g>
     </g>
    </g>
    <g id="ytick_2">
     <g id="line2d_7">
      <g>
       <use xlink:href="#m08952106f5" x="44.57" y="199.551113" style="stroke: #000000; stroke-width: 0.8"/>
      </g>
     </g>
     <g id="text_8">
      <!-- 10 -->
      <g transform="translate(24.845 203.350331) scale(0.1 -0.1)">
       <use xlink:href="#DejaVuSans-31"/>
       <use xlink:href="#DejaVuSans-30" x="63.623047"/>
      </g>
     </g>
    </g>
    <g id="ytick_3">
     <g id="line2d_8">
      <g>
       <use xlink:href="#m08952106f5" x="44.57" y="159.103729" style="stroke: #000000; stroke-width: 0.8"/>
      </g>
     </g>
     <g id="text_9">
      <!-- 20 -->
      <g transform="translate(24.845 162.902948) scale(0.1 -0.1)">
       <use xlink:href="#DejaVuSans-32"/>
       <use xlink:href="#DejaVuSans-30" x="63.623047"/>
      </g>
     </g>
    </g>
    <g id="ytick_4">
     <g id="line2d_9">
      <g>
       <use xlink:href="#m08952106f5" x="44.57" y="118.656345" style="stroke: #000000; stroke-width: 0.8"/>
      </g>
     </g>
     <g id="text_10">
      <!-- 30 -->
      <g transform="translate(24.845 122.455564) scale(0.1 -0.1)">
       <use xlink:href="#DejaVuSans-33"/>
       <use xlink:href="#DejaVuSans-30" x="63.623047"/>
      </g>
     </g>
    </g>
    <g id="ytick_5">
     <g id="line2d_10">
      <g>
       <use xlink:href="#m08952106f5" x="44.57" y="78.208961" style="stroke: #000000; stroke-width: 0.8"/>
      </g>
     </g>
     <g id="text_11">
      <!-- 40 -->
      <g transform="translate(24.845 82.00818) scale(0.1 -0.1)">
       <use xlink:href="#DejaVuSans-34"/>
       <use xlink:href="#DejaVuSans-30" x="63.623047"/>
      </g>
     </g>
    </g>
    <g id="ytick_6">
     <g id="line2d_11">
      <g>
       <use xlink:href="#m08952106f5" x="44.57" y="37.761577" style="stroke: #000000; stroke-width: 0.8"/>
      </g>
     </g>
     <g id="text_12">
      <!-- 50 -->
      <g transform="translate(24.845 41.560796) scale(0.1 -0.1)">
       <use xlink:href="#DejaVuSans-35"/>
       <use xlink:href="#DejaVuSans-30" x="63.623047"/>
      </g>
     </g>
    </g>
    <g id="text_13">
     <!-- Latency (s) -->
     <g transform="translate(18.765312 155.415375) rotate(-90) scale(0.1 -0.1)">
      <defs>
       <path id="DejaVuSans-4c" d="M 628 4666 
L 1259 4666 
L 1259 531 
L 3531 531 
L 3531 0 
L 628 0 
L 628 4666 
z
" transform="scale(0.015625)"/>
       <path id="DejaVuSans-61" d="M 2194 1759 
Q 1497 1759 1228 1600 
Q 959 1441 959 1056 
Q 959 750 1161 570 
Q 1363 391 1709 391 
Q 2188 391 2477 730 
Q 2766 1069 2766 1631 
L 2766 1759 
L 2194 1759 
z
M 3341 1997 
L 3341 0 
L 2766 0 
L 2766 531 
Q 2569 213 2275 61 
Q 1981 -91 1556 -91 
Q 1019 -91 701 211 
Q 384 513 384 1019 
Q 384 1609 779 1909 
Q 1175 2209 1959 2209 
L 2766 2209 
L 2766 2266 
Q 2766 2663 2505 2880 
Q 2244 3097 1772 3097 
Q 1472 3097 1187 3025 
Q 903 2953 641 2809 
L 641 3341 
Q 956 3463 1253 3523 
Q 1550 3584 1831 3584 
Q 2591 3584 2966 3190 
Q 3341 2797 3341 1997 
z
" transform="scale(0.015625)"/>
       <path id="DejaVuSans-74" d="M 1172 4494 
L 1172 3500 
L 2356 3500 
L 2356 3053 
L 1172 3053 
L 1172 1153 
Q 1172 725 1289 603 
Q 1406 481 1766 481 
L 2356 481 
L 2356 0 
L 1766 0 
Q 1100 0 847 248 
Q 594 497 594 1153 
L 594 3053 
L 172 3053 
L 172 3500 
L 594 3500 
L 594 4494 
L 1172 4494 
z
" transform="scale(0.015625)"/>
       <path id="DejaVuSans-65" d="M 3597 1894 
L 3597 1613 
L 953 1613 
Q 991 1019 1311 708 
Q 1631 397 2203 397 
Q 2534 397 2845 478 
Q 3156 559 3463 722 
L 3463 178 
Q 3153 47 2828 -22 
Q 2503 -91 2169 -91 
Q 1331 -91 842 396 
Q 353 884 353 1716 
Q 353 2575 817 3079 
Q 1281 3584 2069 3584 
Q 2775 3584 3186 3129 
Q 3597 2675 3597 1894 
z
M 3022 2063 
Q 3016 2534 2758 2815 
Q 2500 3097 2075 3097 
Q 1594 3097 1305 2825 
Q 1016 2553 972 2059 
L 3022 2063 
z
" transform="scale(0.015625)"/>
       <path id="DejaVuSans-6e" d="M 3513 2113 
L 3513 0 
L 2938 0 
L 2938 2094 
Q 2938 2591 2744 2837 
Q 2550 3084 2163 3084 
Q 1697 3084 1428 2787 
Q 1159 2491 1159 1978 
L 1159 0 
L 581 0 
L 581 3500 
L 1159 3500 
L 1159 2956 
Q 1366 3272 1645 3428 
Q 1925 3584 2291 3584 
Q 2894 3584 3203 3211 
Q 3513 2838 3513 2113 
z
" transform="scale(0.015625)"/>
       <path id="DejaVuSans-63" d="M 3122 3366 
L 3122 2828 
Q 2878 2963 2633 3030 
Q 2388 3097 2138 3097 
Q 1578 3097 1268 2742 
Q 959 2388 959 1747 
Q 959 1106 1268 751 
Q 1578 397 2138 397 
Q 2388 397 2633 464 
Q 2878 531 3122 666 
L 3122 134 
Q 2881 22 2623 -34 
Q 2366 -91 2075 -91 
Q 1284 -91 818 406 
Q 353 903 353 1747 
Q 353 2603 823 3093 
Q 1294 3584 2113 3584 
Q 2378 3584 2631 3529 
Q 2884 3475 3122 3366 
z
" transform="scale(0.015625)"/>
       <path id="DejaVuSans-79" d="M 2059 -325 
Q 1816 -950 1584 -1140 
Q 1353 -1331 966 -1331 
L 506 -1331 
L 506 -850 
L 844 -850 
Q 1081 -850 1212 -737 
Q 1344 -625 1503 -206 
L 1606 56 
L 191 3500 
L 800 3500 
L 1894 763 
L 2988 3500 
L 3597 3500 
L 2059 -325 
z
" transform="scale(0.015625)"/>
       <path id="DejaVuSans-20" transform="scale(0.015625)"/>
       <path id="DejaVuSans-28" d="M 1984 4856 
Q 1566 4138 1362 3434 
Q 1159 2731 1159 2009 
Q 1159 1288 1364 580 
Q 1569 -128 1984 -844 
L 1484 -844 
Q 1016 -109 783 600 
Q 550 1309 550 2009 
Q 550 2706 781 3412 
Q 1013 4119 1484 4856 
L 1984 4856 
z
" transform="scale(0.015625)"/>
       <path id="DejaVuSans-73" d="M 2834 3397 
L 2834 2853 
Q 2591 2978 2328 3040 
Q 2066 3103 1784 3103 
Q 1356 3103 1142 2972 
Q 928 2841 928 2578 
Q 928 2378 1081 2264 
Q 1234 2150 1697 2047 
L 1894 2003 
Q 2506 1872 2764 1633 
Q 3022 1394 3022 966 
Q 3022 478 2636 193 
Q 2250 -91 1575 -91 
Q 1294 -91 989 -36 
Q 684 19 347 128 
L 347 722 
Q 666 556 975 473 
Q 1284 391 1588 391 
Q 1994 391 2212 530 
Q 2431 669 2431 922 
Q 2431 1156 2273 1281 
Q 2116 1406 1581 1522 
L 1381 1569 
Q 847 1681 609 1914 
Q 372 2147 372 2553 
Q 372 3047 722 3315 
Q 1072 3584 1716 3584 
Q 2034 3584 2315 3537 
Q 2597 3491 2834 3397 
z
" transform="scale(0.015625)"/>
       <path id="DejaVuSans-29" d="M 513 4856 
L 1013 4856 
Q 1481 4119 1714 3412 
Q 1947 2706 1947 2009 
Q 1947 1309 1714 600 
Q 1481 -109 1013 -844 
L 513 -844 
Q 928 -128 1133 580 
Q 1338 1288 1338 2009 
Q 1338 2731 1133 3434 
Q 928 4138 513 4856 
z
" transform="scale(0.015625)"/>
      </defs>
      <use xlink:href="#DejaVuSans-4c"/>
      <use xlink:href="#DejaVuSans-61" x="55.712891"/>
      <use xlink:href="#DejaVuSans-74" x="116.992188"/>
      <use xlink:href="#DejaVuSans-65" x="156.201172"/>
      <use xlink:href="#DejaVuSans-6e" x="217.724609"/>
      <use xlink:href="#DejaVuSans-63" x="281.103516"/>
      <use xlink:href="#DejaVuSans-79" x="336.083984"/>
      <use xlink:href="#DejaVuSans-20" x="395.263672"/>
      <use xlink:href="#DejaVuSans-28" x="427.050781"/>
      <use xlink:href="#DejaVuSans-73" x="466.064453"/>
      <use xlink:href="#DejaVuSans-29" x="518.164062"/>
     </g>
    </g>
   </g>
   <g id="line2d_12">
    <path d="M 75.033 206.022694 
L 75.033 93.659862 
" clip-path="url(#pe0413db761)" style="fill: none; stroke: #292929; stroke-width: 1.875; stroke-linecap: square"/>
   </g>
   <g id="line2d_13">
    <path d="M 75.033 165.211284 
L 75.033 135.603799 
" clip-path="url(#pe0413db761)" style="fill: none; stroke: #292929; stroke-width: 5.625; stroke-linecap: square"/>
   </g>
   <g id="line2d_14">
    <path d="M 75.033 154.270266 
" clip-path="url(#pe0413db761)" style="fill: none; stroke: #292929; stroke-width: 1.5; stroke-linecap: square"/>
    <defs>
     <path id="m42e11ca5cc" d="M 2.34375 0 
L -2.34375 -0 
" style="stroke: #ffffff; stroke-width: 1.125"/>
    </defs>
    <g clip-path="url(#pe0413db761)">
     <use xlink:href="#m42e11ca5cc" x="75.033" y="154.270266" style="fill: #ffffff; stroke: #ffffff; stroke-width: 1.125"/>
    </g>
   </g>
   <g id="line2d_15">
    <path d="M 135.959 206.346273 
L 135.959 86.864701 
" clip-path="url(#pe0413db761)" style="fill: none; stroke: #292929; stroke-width: 1.875; stroke-linecap: square"/>
   </g>
   <g id="line2d_16">
    <path d="M 135.959 162.845112 
L 135.959 125.127926 
" clip-path="url(#pe0413db761)" style="fill: none; stroke: #292929; stroke-width: 5.625; stroke-linecap: square"/>
   </g>
   <g id="line2d_17">
    <path d="M 135.959 150.630002 
" clip-path="url(#pe0413db761)" style="fill: none; stroke: #292929; stroke-width: 1.5; stroke-linecap: square"/>
    <g clip-path="url(#pe0413db761)">
     <use xlink:href="#m42e11ca5cc" x="135.959" y="150.630002" style="fill: #ffffff; stroke: #ffffff; stroke-width: 1.125"/>
    </g>
   </g>
   <g id="line2d_18">
    <path d="M 196.885 211.03817 
L 196.885 99.686522 
" clip-path="url(#pe0413db761)" style="fill: none; stroke: #292929; stroke-width: 1.875; stroke-linecap: square"/>
   </g>
   <g id="line2d_19">
    <path d="M 196.885 171.723313 
L 196.885 142.055156 
" clip-path="url(#pe0413db761)" style="fill: none; stroke: #292929; stroke-width: 5.625; stroke-linecap: square"/>
   </g>
   <g id="line2d_20">
    <path d="M 196.885 155.05899 
" clip-path="url(#pe0413db761)" style="fill: none; stroke: #292929; stroke-width: 1.5; stroke-linecap: square"/>
    <g clip-path="url(#pe0413db761)">
     <use xlink:href="#m42e11ca5cc" x="196.885" y="155.05899" style="fill: #ffffff; stroke: #ffffff; stroke-width: 1.125"/>
    </g>
   </g>
   <g id="line2d_21">
    <path d="M 257.811 198.620823 
L 257.811 110.728658 
" clip-path="url(#pe0413db761)" style="fill: none; stroke: #292929; stroke-width: 1.875; stroke-linecap: square"/>
   </g>
   <g id="line2d_22">
    <path d="M 257.811 165.656205 
L 257.811 143.369696 
" clip-path="url(#pe0413db761)" style="fill: none; stroke: #292929; stroke-width: 5.625; stroke-linecap: square"/>
   </g>
   <g id="line2d_23">
    <path d="M 257.811 155.22078 
" clip-path="url(#pe0413db761)" style="fill: none; stroke: #292929; stroke-width: 1.5; stroke-linecap: square"/>
    <g clip-path="url(#pe0413db761)">
     <use xlink:href="#m42e11ca5cc" x="257.811" y="155.22078" style="fill: #ffffff; stroke: #ffffff; stroke-width: 1.125"/>
    </g>
   </g>
   <g id="line2d_24">
    <path d="M 318.737 210.795485 
L 318.737 94.954178 
" clip-path="url(#pe0413db761)" style="fill: none; stroke: #292929; stroke-width: 1.875; stroke-linecap: square"/>
   </g>
   <g id="line2d_25">
    <path d="M 318.737 168.871772 
L 318.737 138.95082 
" clip-path="url(#pe0413db761)" style="fill: none; stroke: #292929; stroke-width: 5.625; stroke-linecap: square"/>
   </g>
   <g id="line2d_26">
    <path d="M 318.737 155.200556 
" clip-path="url(#pe0413db761)" style="fill: none; stroke: #292929; stroke-width: 1.5; stroke-linecap: square"/>
    <g clip-path="url(#pe0413db761)">
     <use xlink:href="#m42e11ca5cc" x="318.737" y="155.200556" style="fill: #ffffff; stroke: #ffffff; stroke-width: 1.125"/>
    </g>
   </g>
   <g id="patch_3">
    <path d="M 44.57 244.312 
L 44.57 10.8 
" style="fill: none; stroke: #000000; stroke-width: 0.8; stroke-linejoin: miter; stroke-linecap: square"/>
   </g>
   <g id="patch_4">
    <path d="M 349.2 244.312 
L 349.2 10.8 
" style="fill: none; stroke: #000000; stroke-width: 0.8; stroke-linejoin: miter; stroke-linecap: square"/>
   </g>
   <g id="patch_5">
    <path d="M 44.57 244.312 
L 349.2 244.312 
" style="fill: none; stroke: #000000; stroke-width: 0.8; stroke-linejoin: miter; stroke-linecap: square"/>
   </g>
   <g id="patch_6">
    <path d="M 44.57 10.8 
L 349.2 10.8 
" style="fill: none; stroke: #000000; stroke-width: 0.8; stroke-linejoin: miter; stroke-linecap: square"/>
   </g>
  </g>
 </g>
 <defs>
  <clipPath id="pe0413db761">
   <rect x="44.57" y="10.8" width="304.63" height="233.512"/>
  </clipPath>
 </defs>
</svg>
