<?xml version="1.0" encoding="utf-8" standalone="no"?>
<!DOCTYPE svg PUBLIC "-//W3C//DTD SVG 1.1//EN"
  "http://www.w3.org/Graphics/SVG/1.1/DTD/svg11.dtd">
<svg xmlns:xlink="http://www.w3.org/1999/xlink" width="504pt" height="360pt" viewBox="0 0 504 360" xmlns="http://www.w3.org/2000/svg" version="1.1">
 <metadata>
  <rdf:RDF xmlns:dc="http://purl.org/dc/elements/1.1/" xmlns:cc="http://creativecommons.org/ns#" xmlns:rdf="http://www.w3.org/1999/02/22-rdf-syntax-ns#">
   <cc:Work>
    <dc:type rdf:resource="http://purl.org/dc/dcmitype/StillImage"/>
    <dc:date>2024-09-03T11:02:29.514409</dc:date>
    <dc:format>image/svg+xml</dc:format>
    <dc:creator>
     <cc:Agent>
      <dc:title>Matplotlib v3.7.2, https://matplotlib.org/</dc:title>
     </cc:Agent>
    </dc:creator>
   </cc:Work>
  </rdf:RDF>
 </metadata>
 <defs>
  <style type="text/css">*{stroke-linejoin: round; stroke-linecap: butt}</style>
 </defs>
 <g id="figure_1">
  <g id="patch_1">
   <path d="M 0 360 
L 504 360 
L 504 0 
L 0 0 
z
" style="fill: #ffffff"/>
  </g>
  <g id="axes_1">
   <g id="patch_2">
    <path d="M 75.8 154.52 
L 205.4 154.52 
L 205.4 32.76 
L 75.8 32.76 
z
" style="fill: #ffffff"/>
   </g>
   <g id="matplotlib.axis_1">
    <g id="xtick_1">
     <g id="line2d_1">
      <defs>
       <path id="m76a2b54bc1" d="M 0 0 
L 0 3.5 
" style="stroke: #000000; stroke-width: 0.8"/>
      </defs>
      <g>
       <use xlink:href="#m76a2b54bc1" x="78.453797" y="154.52" style="stroke: #000000; stroke-width: 0.8"/>
      </g>
     </g>
    </g>
    <g id="xtick_2">
     <g id="line2d_2">
      <g>
       <use xlink:href="#m76a2b54bc1" x="111.145291" y="154.52" style="stroke: #000000; stroke-width: 0.8"/>
      </g>
     </g>
    </g>
    <g id="xtick_3">
     <g id="line2d_3">
      <g>
       <use xlink:href="#m76a2b54bc1" x="143.836785" y="154.52" style="stroke: #000000; stroke-width: 0.8"/>
      </g>
     </g>
    </g>
    <g id="xtick_4">
     <g id="line2d_4">
      <g>
       <use xlink:href="#m76a2b54bc1" x="176.528278" y="154.52" style="stroke: #000000; stroke-width: 0.8"/>
      </g>
     </g>
    </g>
   </g>
   <g id="matplotlib.axis_2">
    <g id="ytick_1">
     <g id="line2d_5">
      <defs>
       <path id="m32acff9841" d="M 0 0 
L -3.5 0 
" style="stroke: #000000; stroke-width: 0.8"/>
      </defs>
      <g>
       <use xlink:href="#m32acff9841" x="75.8" y="154.52" style="stroke: #000000; stroke-width: 0.8"/>
      </g>
     </g>
     <g id="text_1">
      <!-- 0.0 -->
      <g transform="translate(52.896875 158.319219) scale(0.1 -0.1)">
       <defs>
        <path id="DejaVuSans-30" d="M 2034 4250 
Q 1547 4250 1301 3770 
Q 1056 3291 1056 2328 
Q 1056 1369 1301 889 
Q 1547 409 2034 409 
Q 2525 409 2770 889 
Q 3016 1369 3016 2328 
Q 3016 3291 2770 3770 
Q 2525 4250 2034 4250 
z
M 2034 4750 
Q 2819 4750 3233 4129 
Q 3647 3509 3647 2328 
Q 3647 1150 3233 529 
Q 2819 -91 2034 -91 
Q 1250 -91 836 529 
Q 422 1150 422 2328 
Q 422 3509 836 4129 
Q 1250 4750 2034 4750 
z
" transform="scale(0.015625)"/>
        <path id="DejaVuSans-2e" d="M 684 794 
L 1344 794 
L 1344 0 
L 684 0 
L 684 794 
z
" transform="scale(0.015625)"/>
       </defs>
       <use xlink:href="#DejaVuSans-30"/>
       <use xlink:href="#DejaVuSans-2e" x="63.623047"/>
       <use xlink:href="#DejaVuSans-30" x="95.410156"/>
      </g>
     </g>
    </g>
    <g id="ytick_2">
     <g id="line2d_6">
      <g>
       <use xlink:href="#m32acff9841" x="75.8" y="130.168" style="stroke: #000000; stroke-width: 0.8"/>
      </g>
     </g>
     <g id="text_2">
      <!-- 0.2 -->
      <g transform="translate(52.896875 133.967219) scale(0.1 -0.1)">
       <defs>
        <path id="DejaVuSans-32" d="M 1228 531 
L 3431 531 
L 3431 0 
L 469 0 
L 469 531 
Q 828 903 1448 1529 
Q 2069 2156 2228 2338 
Q 2531 2678 2651 2914 
Q 2772 3150 2772 3378 
Q 2772 3750 2511 3984 
Q 2250 4219 1831 4219 
Q 1534 4219 1204 4116 
Q 875 4013 500 3803 
L 500 4441 
Q 881 4594 1212 4672 
Q 1544 4750 1819 4750 
Q 2544 4750 2975 4387 
Q 3406 4025 3406 3419 
Q 3406 3131 3298 2873 
Q 3191 2616 2906 2266 
Q 2828 2175 2409 1742 
Q 1991 1309 1228 531 
z
" transform="scale(0.015625)"/>
       </defs>
       <use xlink:href="#DejaVuSans-30"/>
       <use xlink:href="#DejaVuSans-2e" x="63.623047"/>
       <use xlink:href="#DejaVuSans-32" x="95.410156"/>
      </g>
     </g>
    </g>
    <g id="ytick_3">
     <g id="line2d_7">
      <g>
       <use xlink:href="#m32acff9841" x="75.8" y="105.816" style="stroke: #000000; stroke-width: 0.8"/>
      </g>
     </g>
     <g id="text_3">
      <!-- 0.4 -->
      <g transform="translate(52.896875 109.615219) scale(0.1 -0.1)">
       <defs>
        <path id="DejaVuSans-34" d="M 2419 4116 
L 825 1625 
L 2419 1625 
L 2419 4116 
z
M 2253 4666 
L 3047 4666 
L 3047 1625 
L 3713 1625 
L 3713 1100 
L 3047 1100 
L 3047 0 
L 2419 0 
L 2419 1100 
L 313 1100 
L 313 1709 
L 2253 4666 
z
" transform="scale(0.015625)"/>
       </defs>
       <use xlink:href="#DejaVuSans-30"/>
       <use xlink:href="#DejaVuSans-2e" x="63.623047"/>
       <use xlink:href="#DejaVuSans-34" x="95.410156"/>
      </g>
     </g>
    </g>
    <g id="ytick_4">
     <g id="line2d_8">
      <g>
       <use xlink:href="#m32acff9841" x="75.8" y="81.464" style="stroke: #000000; stroke-width: 0.8"/>
      </g>
     </g>
     <g id="text_4">
      <!-- 0.6 -->
      <g transform="translate(52.896875 85.263219) scale(0.1 -0.1)">
       <defs>
        <path id="DejaVuSans-36" d="M 2113 2584 
Q 1688 2584 1439 2293 
Q 1191 2003 1191 1497 
Q 1191 994 1439 701 
Q 1688 409 2113 409 
Q 2538 409 2786 701 
Q 3034 994 3034 1497 
Q 3034 2003 2786 2293 
Q 2538 2584 2113 2584 
z
M 3366 4563 
L 3366 3988 
Q 3128 4100 2886 4159 
Q 2644 4219 2406 4219 
Q 1781 4219 1451 3797 
Q 1122 3375 1075 2522 
Q 1259 2794 1537 2939 
Q 1816 3084 2150 3084 
Q 2853 3084 3261 2657 
Q 3669 2231 3669 1497 
Q 3669 778 3244 343 
Q 2819 -91 2113 -91 
Q 1303 -91 875 529 
Q 447 1150 447 2328 
Q 447 3434 972 4092 
Q 1497 4750 2381 4750 
Q 2619 4750 2861 4703 
Q 3103 4656 3366 4563 
z
" transform="scale(0.015625)"/>
       </defs>
       <use xlink:href="#DejaVuSans-30"/>
       <use xlink:href="#DejaVuSans-2e" x="63.623047"/>
       <use xlink:href="#DejaVuSans-36" x="95.410156"/>
      </g>
     </g>
    </g>
    <g id="ytick_5">
     <g id="line2d_9">
      <g>
       <use xlink:href="#m32acff9841" x="75.8" y="57.112" style="stroke: #000000; stroke-width: 0.8"/>
      </g>
     </g>
     <g id="text_5">
      <!-- 0.8 -->
      <g transform="translate(52.896875 60.911219) scale(0.1 -0.1)">
       <defs>
        <path id="DejaVuSans-38" d="M 2034 2216 
Q 1584 2216 1326 1975 
Q 1069 1734 1069 1313 
Q 1069 891 1326 650 
Q 1584 409 2034 409 
Q 2484 409 2743 651 
Q 3003 894 3003 1313 
Q 3003 1734 2745 1975 
Q 2488 2216 2034 2216 
z
M 1403 2484 
Q 997 2584 770 2862 
Q 544 3141 544 3541 
Q 544 4100 942 4425 
Q 1341 4750 2034 4750 
Q 2731 4750 3128 4425 
Q 3525 4100 3525 3541 
Q 3525 3141 3298 2862 
Q 3072 2584 2669 2484 
Q 3125 2378 3379 2068 
Q 3634 1759 3634 1313 
Q 3634 634 3220 271 
Q 2806 -91 2034 -91 
Q 1263 -91 848 271 
Q 434 634 434 1313 
Q 434 1759 690 2068 
Q 947 2378 1403 2484 
z
M 1172 3481 
Q 1172 3119 1398 2916 
Q 1625 2713 2034 2713 
Q 2441 2713 2670 2916 
Q 2900 3119 2900 3481 
Q 2900 3844 2670 4047 
Q 2441 4250 2034 4250 
Q 1625 4250 1398 4047 
Q 1172 3844 1172 3481 
z
" transform="scale(0.015625)"/>
       </defs>
       <use xlink:href="#DejaVuSans-30"/>
       <use xlink:href="#DejaVuSans-2e" x="63.623047"/>
       <use xlink:href="#DejaVuSans-38" x="95.410156"/>
      </g>
     </g>
    </g>
    <g id="ytick_6">
     <g id="line2d_10">
      <g>
       <use xlink:href="#m32acff9841" x="75.8" y="32.76" style="stroke: #000000; stroke-width: 0.8"/>
      </g>
     </g>
     <g id="text_6">
      <!-- 1.0 -->
      <g transform="translate(52.896875 36.559219) scale(0.1 -0.1)">
       <defs>
        <path id="DejaVuSans-31" d="M 794 531 
L 1825 531 
L 1825 4091 
L 703 3866 
L 703 4441 
L 1819 4666 
L 2450 4666 
L 2450 531 
L 3481 531 
L 3481 0 
L 794 0 
L 794 531 
z
" transform="scale(0.015625)"/>
       </defs>
       <use xlink:href="#DejaVuSans-31"/>
       <use xlink:href="#DejaVuSans-2e" x="63.623047"/>
       <use xlink:href="#DejaVuSans-30" x="95.410156"/>
      </g>
     </g>
    </g>
    <g id="text_7">
     <!-- CDF -->
     <g transform="translate(46.40125 105.900625) rotate(-90) scale(0.12 -0.12)">
      <defs>
       <path id="DejaVuSans-43" d="M 4122 4306 
L 4122 3641 
Q 3803 3938 3442 4084 
Q 3081 4231 2675 4231 
Q 1875 4231 1450 3742 
Q 1025 3253 1025 2328 
Q 1025 1406 1450 917 
Q 1875 428 2675 428 
Q 3081 428 3442 575 
Q 3803 722 4122 1019 
L 4122 359 
Q 3791 134 3420 21 
Q 3050 -91 2638 -91 
Q 1578 -91 968 557 
Q 359 1206 359 2328 
Q 359 3453 968 4101 
Q 1578 4750 2638 4750 
Q 3056 4750 3426 4639 
Q 3797 4528 4122 4306 
z
" transform="scale(0.015625)"/>
       <path id="DejaVuSans-44" d="M 1259 4147 
L 1259 519 
L 2022 519 
Q 2988 519 3436 956 
Q 3884 1394 3884 2338 
Q 3884 3275 3436 3711 
Q 2988 4147 2022 4147 
L 1259 4147 
z
M 628 4666 
L 1925 4666 
Q 3281 4666 3915 4102 
Q 4550 3538 4550 2338 
Q 4550 1131 3912 565 
Q 3275 0 1925 0 
L 628 0 
L 628 4666 
z
" transform="scale(0.015625)"/>
       <path id="DejaVuSans-46" d="M 628 4666 
L 3309 4666 
L 3309 4134 
L 1259 4134 
L 1259 2759 
L 3109 2759 
L 3109 2228 
L 1259 2228 
L 1259 0 
L 628 0 
L 628 4666 
z
" transform="scale(0.015625)"/>
      </defs>
      <use xlink:href="#DejaVuSans-43"/>
      <use xlink:href="#DejaVuSans-44" x="69.824219"/>
      <use xlink:href="#DejaVuSans-46" x="146.826172"/>
     </g>
    </g>
   </g>
   <g id="line2d_11">
    <path d="M 84.903829 154.52 
L 84.903829 148.432 
L 84.905137 148.432 
L 84.905137 142.344 
L 84.924098 142.344 
L 84.924098 136.256 
L 84.933251 136.256 
L 84.933251 130.168 
L 84.962674 130.168 
L 84.962674 124.08 
L 85.041133 124.08 
L 85.041133 117.992 
L 85.071863 117.992 
L 85.071863 111.904 
L 85.084286 111.904 
L 85.084286 105.816 
L 85.090171 105.816 
L 85.090171 99.728 
L 85.09344 99.728 
L 85.09344 93.64 
L 85.097363 93.64 
L 85.097363 87.552 
L 85.109786 87.552 
L 85.109786 81.464 
L 85.273243 81.464 
L 85.273243 75.376 
L 85.37524 75.376 
L 85.37524 69.288 
L 85.402047 69.288 
L 85.402047 63.2 
L 85.41447 63.2 
L 85.41447 57.112 
L 87.581916 57.112 
L 87.581916 51.024 
L 87.812718 51.024 
L 87.812718 44.936 
L 87.82841 44.936 
L 87.82841 38.848 
L 88.010175 38.848 
L 88.010175 32.76 
" clip-path="url(#p7695ce0b2f)" style="fill: none; stroke: #f4b942; stroke-width: 1.5; stroke-linecap: square"/>
   </g>
   <g id="line2d_12">
    <path d="M 85.645763 154.52 
L 85.645763 32.76 
" clip-path="url(#p7695ce0b2f)" style="fill: none; stroke-dasharray: 5.55,2.4; stroke-dashoffset: 0; stroke: #ff0000; stroke-width: 1.5"/>
   </g>
   <g id="line2d_13">
    <path d="M 85.095401 154.52 
L 85.095401 32.76 
" clip-path="url(#p7695ce0b2f)" style="fill: none; stroke-dasharray: 9.6,2.4,1.5,2.4; stroke-dashoffset: 0; stroke: #008000; stroke-width: 1.5"/>
   </g>
   <g id="line2d_14">
    <path d="M 87.837498 154.52 
L 87.837498 32.76 
" clip-path="url(#p7695ce0b2f)" style="fill: none; stroke-dasharray: 1.5,2.475; stroke-dashoffset: 0; stroke: #0000ff; stroke-width: 1.5"/>
   </g>
   <g id="patch_3">
    <path d="M 75.8 154.52 
L 75.8 32.76 
" style="fill: none; stroke: #000000; stroke-width: 0.8; stroke-linejoin: miter; stroke-linecap: square"/>
   </g>
   <g id="patch_4">
    <path d="M 205.4 154.52 
L 205.4 32.76 
" style="fill: none; stroke: #000000; stroke-width: 0.8; stroke-linejoin: miter; stroke-linecap: square"/>
   </g>
   <g id="patch_5">
    <path d="M 75.8 154.52 
L 205.4 154.52 
" style="fill: none; stroke: #000000; stroke-width: 0.8; stroke-linejoin: miter; stroke-linecap: square"/>
   </g>
   <g id="patch_6">
    <path d="M 75.8 32.76 
L 205.4 32.76 
" style="fill: none; stroke: #000000; stroke-width: 0.8; stroke-linejoin: miter; stroke-linecap: square"/>
   </g>
   <g id="text_8">
    <g id="patch_7">
     <path d="M 169 150.21525 
L 197 150.21525 
L 197 134.47275 
L 169 134.47275 
z
" style="fill: #ffffff; opacity: 0.2; stroke: #000000; stroke-linejoin: miter"/>
    </g>
    <!-- $n = 2$ -->
    <g transform="translate(173 144.5515) scale(0.08 -0.08)">
     <defs>
      <path id="DejaVuSans-Oblique-6e" d="M 3566 2113 
L 3156 0 
L 2578 0 
L 2988 2091 
Q 3016 2238 3031 2350 
Q 3047 2463 3047 2528 
Q 3047 2791 2881 2937 
Q 2716 3084 2419 3084 
Q 1956 3084 1622 2776 
Q 1288 2469 1184 1941 
L 800 0 
L 225 0 
L 903 3500 
L 1478 3500 
L 1363 2950 
Q 1603 3253 1940 3418 
Q 2278 3584 2650 3584 
Q 3113 3584 3367 3334 
Q 3622 3084 3622 2631 
Q 3622 2519 3608 2391 
Q 3594 2263 3566 2113 
z
" transform="scale(0.015625)"/>
      <path id="DejaVuSans-3d" d="M 678 2906 
L 4684 2906 
L 4684 2381 
L 678 2381 
L 678 2906 
z
M 678 1631 
L 4684 1631 
L 4684 1100 
L 678 1100 
L 678 1631 
z
" transform="scale(0.015625)"/>
     </defs>
     <use xlink:href="#DejaVuSans-Oblique-6e" transform="translate(0 0.78125)"/>
     <use xlink:href="#DejaVuSans-3d" transform="translate(82.861328 0.78125)"/>
     <use xlink:href="#DejaVuSans-32" transform="translate(186.132812 0.78125)"/>
    </g>
   </g>
   <g id="legend_1">
    <g id="patch_8">
     <path d="M 108.50125 86.13 
L 199.8 86.13 
Q 201.4 86.13 201.4 84.53 
L 201.4 38.36 
Q 201.4 36.76 199.8 36.76 
L 108.50125 36.76 
Q 106.90125 36.76 106.90125 38.36 
L 106.90125 84.53 
Q 106.90125 86.13 108.50125 86.13 
z
" style="fill: #ffffff; opacity: 0.8; stroke: #cccccc; stroke-linejoin: miter"/>
    </g>
    <g id="line2d_15">
     <path d="M 110.10125 43.23875 
L 118.10125 43.23875 
L 126.10125 43.23875 
" style="fill: none; stroke: #f4b942; stroke-width: 2; stroke-linecap: square"/>
    </g>
    <g id="text_9">
     <!-- calculatePenalty -->
     <g transform="translate(132.50125 46.03875) scale(0.08 -0.08)">
      <defs>
       <path id="DejaVuSans-63" d="M 3122 3366 
L 3122 2828 
Q 2878 2963 2633 3030 
Q 2388 3097 2138 3097 
Q 1578 3097 1268 2742 
Q 959 2388 959 1747 
Q 959 1106 1268 751 
Q 1578 397 2138 397 
Q 2388 397 2633 464 
Q 2878 531 3122 666 
L 3122 134 
Q 2881 22 2623 -34 
Q 2366 -91 2075 -91 
Q 1284 -91 818 406 
Q 353 903 353 1747 
Q 353 2603 823 3093 
Q 1294 3584 2113 3584 
Q 2378 3584 2631 3529 
Q 2884 3475 3122 3366 
z
" transform="scale(0.015625)"/>
       <path id="DejaVuSans-61" d="M 2194 1759 
Q 1497 1759 1228 1600 
Q 959 1441 959 1056 
Q 959 750 1161 570 
Q 1363 391 1709 391 
Q 2188 391 2477 730 
Q 2766 1069 2766 1631 
L 2766 1759 
L 2194 1759 
z
M 3341 1997 
L 3341 0 
L 2766 0 
L 2766 531 
Q 2569 213 2275 61 
Q 1981 -91 1556 -91 
Q 1019 -91 701 211 
Q 384 513 384 1019 
Q 384 1609 779 1909 
Q 1175 2209 1959 2209 
L 2766 2209 
L 2766 2266 
Q 2766 2663 2505 2880 
Q 2244 3097 1772 3097 
Q 1472 3097 1187 3025 
Q 903 2953 641 2809 
L 641 3341 
Q 956 3463 1253 3523 
Q 1550 3584 1831 3584 
Q 2591 3584 2966 3190 
Q 3341 2797 3341 1997 
z
" transform="scale(0.015625)"/>
       <path id="DejaVuSans-6c" d="M 603 4863 
L 1178 4863 
L 1178 0 
L 603 0 
L 603 4863 
z
" transform="scale(0.015625)"/>
       <path id="DejaVuSans-75" d="M 544 1381 
L 544 3500 
L 1119 3500 
L 1119 1403 
Q 1119 906 1312 657 
Q 1506 409 1894 409 
Q 2359 409 2629 706 
Q 2900 1003 2900 1516 
L 2900 3500 
L 3475 3500 
L 3475 0 
L 2900 0 
L 2900 538 
Q 2691 219 2414 64 
Q 2138 -91 1772 -91 
Q 1169 -91 856 284 
Q 544 659 544 1381 
z
M 1991 3584 
L 1991 3584 
z
" transform="scale(0.015625)"/>
       <path id="DejaVuSans-74" d="M 1172 4494 
L 1172 3500 
L 2356 3500 
L 2356 3053 
L 1172 3053 
L 1172 1153 
Q 1172 725 1289 603 
Q 1406 481 1766 481 
L 2356 481 
L 2356 0 
L 1766 0 
Q 1100 0 847 248 
Q 594 497 594 1153 
L 594 3053 
L 172 3053 
L 172 3500 
L 594 3500 
L 594 4494 
L 1172 4494 
z
" transform="scale(0.015625)"/>
       <path id="DejaVuSans-65" d="M 3597 1894 
L 3597 1613 
L 953 1613 
Q 991 1019 1311 708 
Q 1631 397 2203 397 
Q 2534 397 2845 478 
Q 3156 559 3463 722 
L 3463 178 
Q 3153 47 2828 -22 
Q 2503 -91 2169 -91 
Q 1331 -91 842 396 
Q 353 884 353 1716 
Q 353 2575 817 3079 
Q 1281 3584 2069 3584 
Q 2775 3584 3186 3129 
Q 3597 2675 3597 1894 
z
M 3022 2063 
Q 3016 2534 2758 2815 
Q 2500 3097 2075 3097 
Q 1594 3097 1305 2825 
Q 1016 2553 972 2059 
L 3022 2063 
z
" transform="scale(0.015625)"/>
       <path id="DejaVuSans-50" d="M 1259 4147 
L 1259 2394 
L 2053 2394 
Q 2494 2394 2734 2622 
Q 2975 2850 2975 3272 
Q 2975 3691 2734 3919 
Q 2494 4147 2053 4147 
L 1259 4147 
z
M 628 4666 
L 2053 4666 
Q 2838 4666 3239 4311 
Q 3641 3956 3641 3272 
Q 3641 2581 3239 2228 
Q 2838 1875 2053 1875 
L 1259 1875 
L 1259 0 
L 628 0 
L 628 4666 
z
" transform="scale(0.015625)"/>
       <path id="DejaVuSans-6e" d="M 3513 2113 
L 3513 0 
L 2938 0 
L 2938 2094 
Q 2938 2591 2744 2837 
Q 2550 3084 2163 3084 
Q 1697 3084 1428 2787 
Q 1159 2491 1159 1978 
L 1159 0 
L 581 0 
L 581 3500 
L 1159 3500 
L 1159 2956 
Q 1366 3272 1645 3428 
Q 1925 3584 2291 3584 
Q 2894 3584 3203 3211 
Q 3513 2838 3513 2113 
z
" transform="scale(0.015625)"/>
       <path id="DejaVuSans-79" d="M 2059 -325 
Q 1816 -950 1584 -1140 
Q 1353 -1331 966 -1331 
L 506 -1331 
L 506 -850 
L 844 -850 
Q 1081 -850 1212 -737 
Q 1344 -625 1503 -206 
L 1606 56 
L 191 3500 
L 800 3500 
L 1894 763 
L 2988 3500 
L 3597 3500 
L 2059 -325 
z
" transform="scale(0.015625)"/>
      </defs>
      <use xlink:href="#DejaVuSans-63"/>
      <use xlink:href="#DejaVuSans-61" x="54.980469"/>
      <use xlink:href="#DejaVuSans-6c" x="116.259766"/>
      <use xlink:href="#DejaVuSans-63" x="144.042969"/>
      <use xlink:href="#DejaVuSans-75" x="199.023438"/>
      <use xlink:href="#DejaVuSans-6c" x="262.402344"/>
      <use xlink:href="#DejaVuSans-61" x="290.185547"/>
      <use xlink:href="#DejaVuSans-74" x="351.464844"/>
      <use xlink:href="#DejaVuSans-65" x="390.673828"/>
      <use xlink:href="#DejaVuSans-50" x="452.197266"/>
      <use xlink:href="#DejaVuSans-65" x="508.875"/>
      <use xlink:href="#DejaVuSans-6e" x="570.398438"/>
      <use xlink:href="#DejaVuSans-61" x="633.777344"/>
      <use xlink:href="#DejaVuSans-6c" x="695.056641"/>
      <use xlink:href="#DejaVuSans-74" x="722.839844"/>
      <use xlink:href="#DejaVuSans-79" x="762.048828"/>
     </g>
    </g>
    <g id="line2d_16">
     <path d="M 110.10125 54.98125 
L 118.10125 54.98125 
L 126.10125 54.98125 
" style="fill: none; stroke-dasharray: 7.4,3.2; stroke-dashoffset: 0; stroke: #ff0000; stroke-width: 2"/>
    </g>
    <g id="text_10">
     <!-- Mean -->
     <g transform="translate(132.50125 57.78125) scale(0.08 -0.08)">
      <defs>
       <path id="DejaVuSans-4d" d="M 628 4666 
L 1569 4666 
L 2759 1491 
L 3956 4666 
L 4897 4666 
L 4897 0 
L 4281 0 
L 4281 4097 
L 3078 897 
L 2444 897 
L 1241 4097 
L 1241 0 
L 628 0 
L 628 4666 
z
" transform="scale(0.015625)"/>
      </defs>
      <use xlink:href="#DejaVuSans-4d"/>
      <use xlink:href="#DejaVuSans-65" x="86.279297"/>
      <use xlink:href="#DejaVuSans-61" x="147.802734"/>
      <use xlink:href="#DejaVuSans-6e" x="209.082031"/>
     </g>
    </g>
    <g id="line2d_17">
     <path d="M 110.10125 66.72375 
L 118.10125 66.72375 
L 126.10125 66.72375 
" style="fill: none; stroke-dasharray: 12.8,3.2,2,3.2; stroke-dashoffset: 0; stroke: #008000; stroke-width: 2"/>
    </g>
    <g id="text_11">
     <!-- Median -->
     <g transform="translate(132.50125 69.52375) scale(0.08 -0.08)">
      <defs>
       <path id="DejaVuSans-64" d="M 2906 2969 
L 2906 4863 
L 3481 4863 
L 3481 0 
L 2906 0 
L 2906 525 
Q 2725 213 2448 61 
Q 2172 -91 1784 -91 
Q 1150 -91 751 415 
Q 353 922 353 1747 
Q 353 2572 751 3078 
Q 1150 3584 1784 3584 
Q 2172 3584 2448 3432 
Q 2725 3281 2906 2969 
z
M 947 1747 
Q 947 1113 1208 752 
Q 1469 391 1925 391 
Q 2381 391 2643 752 
Q 2906 1113 2906 1747 
Q 2906 2381 2643 2742 
Q 2381 3103 1925 3103 
Q 1469 3103 1208 2742 
Q 947 2381 947 1747 
z
" transform="scale(0.015625)"/>
       <path id="DejaVuSans-69" d="M 603 3500 
L 1178 3500 
L 1178 0 
L 603 0 
L 603 3500 
z
M 603 4863 
L 1178 4863 
L 1178 4134 
L 603 4134 
L 603 4863 
z
" transform="scale(0.015625)"/>
      </defs>
      <use xlink:href="#DejaVuSans-4d"/>
      <use xlink:href="#DejaVuSans-65" x="86.279297"/>
      <use xlink:href="#DejaVuSans-64" x="147.802734"/>
      <use xlink:href="#DejaVuSans-69" x="211.279297"/>
      <use xlink:href="#DejaVuSans-61" x="239.0625"/>
      <use xlink:href="#DejaVuSans-6e" x="300.341797"/>
     </g>
    </g>
    <g id="line2d_18">
     <path d="M 110.10125 78.46625 
L 118.10125 78.46625 
L 126.10125 78.46625 
" style="fill: none; stroke-dasharray: 2,3.3; stroke-dashoffset: 0; stroke: #0000ff; stroke-width: 2"/>
    </g>
    <g id="text_12">
     <!-- 95th Percentile -->
     <g transform="translate(132.50125 81.26625) scale(0.08 -0.08)">
      <defs>
       <path id="DejaVuSans-39" d="M 703 97 
L 703 672 
Q 941 559 1184 500 
Q 1428 441 1663 441 
Q 2288 441 2617 861 
Q 2947 1281 2994 2138 
Q 2813 1869 2534 1725 
Q 2256 1581 1919 1581 
Q 1219 1581 811 2004 
Q 403 2428 403 3163 
Q 403 3881 828 4315 
Q 1253 4750 1959 4750 
Q 2769 4750 3195 4129 
Q 3622 3509 3622 2328 
Q 3622 1225 3098 567 
Q 2575 -91 1691 -91 
Q 1453 -91 1209 -44 
Q 966 3 703 97 
z
M 1959 2075 
Q 2384 2075 2632 2365 
Q 2881 2656 2881 3163 
Q 2881 3666 2632 3958 
Q 2384 4250 1959 4250 
Q 1534 4250 1286 3958 
Q 1038 3666 1038 3163 
Q 1038 2656 1286 2365 
Q 1534 2075 1959 2075 
z
" transform="scale(0.015625)"/>
       <path id="DejaVuSans-35" d="M 691 4666 
L 3169 4666 
L 3169 4134 
L 1269 4134 
L 1269 2991 
Q 1406 3038 1543 3061 
Q 1681 3084 1819 3084 
Q 2600 3084 3056 2656 
Q 3513 2228 3513 1497 
Q 3513 744 3044 326 
Q 2575 -91 1722 -91 
Q 1428 -91 1123 -41 
Q 819 9 494 109 
L 494 744 
Q 775 591 1075 516 
Q 1375 441 1709 441 
Q 2250 441 2565 725 
Q 2881 1009 2881 1497 
Q 2881 1984 2565 2268 
Q 2250 2553 1709 2553 
Q 1456 2553 1204 2497 
Q 953 2441 691 2322 
L 691 4666 
z
" transform="scale(0.015625)"/>
       <path id="DejaVuSans-68" d="M 3513 2113 
L 3513 0 
L 2938 0 
L 2938 2094 
Q 2938 2591 2744 2837 
Q 2550 3084 2163 3084 
Q 1697 3084 1428 2787 
Q 1159 2491 1159 1978 
L 1159 0 
L 581 0 
L 581 4863 
L 1159 4863 
L 1159 2956 
Q 1366 3272 1645 3428 
Q 1925 3584 2291 3584 
Q 2894 3584 3203 3211 
Q 3513 2838 3513 2113 
z
" transform="scale(0.015625)"/>
       <path id="DejaVuSans-20" transform="scale(0.015625)"/>
       <path id="DejaVuSans-72" d="M 2631 2963 
Q 2534 3019 2420 3045 
Q 2306 3072 2169 3072 
Q 1681 3072 1420 2755 
Q 1159 2438 1159 1844 
L 1159 0 
L 581 0 
L 581 3500 
L 1159 3500 
L 1159 2956 
Q 1341 3275 1631 3429 
Q 1922 3584 2338 3584 
Q 2397 3584 2469 3576 
Q 2541 3569 2628 3553 
L 2631 2963 
z
" transform="scale(0.015625)"/>
      </defs>
      <use xlink:href="#DejaVuSans-39"/>
      <use xlink:href="#DejaVuSans-35" x="63.623047"/>
      <use xlink:href="#DejaVuSans-74" x="127.246094"/>
      <use xlink:href="#DejaVuSans-68" x="166.455078"/>
      <use xlink:href="#DejaVuSans-20" x="229.833984"/>
      <use xlink:href="#DejaVuSans-50" x="261.621094"/>
      <use xlink:href="#DejaVuSans-65" x="318.298828"/>
      <use xlink:href="#DejaVuSans-72" x="379.822266"/>
      <use xlink:href="#DejaVuSans-63" x="418.685547"/>
      <use xlink:href="#DejaVuSans-65" x="473.666016"/>
      <use xlink:href="#DejaVuSans-6e" x="535.189453"/>
      <use xlink:href="#DejaVuSans-74" x="598.568359"/>
      <use xlink:href="#DejaVuSans-69" x="637.777344"/>
      <use xlink:href="#DejaVuSans-6c" x="665.560547"/>
      <use xlink:href="#DejaVuSans-65" x="693.34375"/>
     </g>
    </g>
   </g>
  </g>
  <g id="axes_2">
   <g id="patch_9">
    <path d="M 219.7 154.52 
L 349.3 154.52 
L 349.3 32.76 
L 219.7 32.76 
z
" style="fill: #ffffff"/>
   </g>
   <g id="matplotlib.axis_3">
    <g id="xtick_5">
     <g id="line2d_19">
      <g>
       <use xlink:href="#m76a2b54bc1" x="222.353797" y="154.52" style="stroke: #000000; stroke-width: 0.8"/>
      </g>
     </g>
    </g>
    <g id="xtick_6">
     <g id="line2d_20">
      <g>
       <use xlink:href="#m76a2b54bc1" x="255.045291" y="154.52" style="stroke: #000000; stroke-width: 0.8"/>
      </g>
     </g>
    </g>
    <g id="xtick_7">
     <g id="line2d_21">
      <g>
       <use xlink:href="#m76a2b54bc1" x="287.736785" y="154.52" style="stroke: #000000; stroke-width: 0.8"/>
      </g>
     </g>
    </g>
    <g id="xtick_8">
     <g id="line2d_22">
      <g>
       <use xlink:href="#m76a2b54bc1" x="320.428278" y="154.52" style="stroke: #000000; stroke-width: 0.8"/>
      </g>
     </g>
    </g>
   </g>
   <g id="matplotlib.axis_4">
    <g id="ytick_7">
     <g id="line2d_23">
      <g>
       <use xlink:href="#m32acff9841" x="219.7" y="154.52" style="stroke: #000000; stroke-width: 0.8"/>
      </g>
     </g>
    </g>
    <g id="ytick_8">
     <g id="line2d_24">
      <g>
       <use xlink:href="#m32acff9841" x="219.7" y="130.168" style="stroke: #000000; stroke-width: 0.8"/>
      </g>
     </g>
    </g>
    <g id="ytick_9">
     <g id="line2d_25">
      <g>
       <use xlink:href="#m32acff9841" x="219.7" y="105.816" style="stroke: #000000; stroke-width: 0.8"/>
      </g>
     </g>
    </g>
    <g id="ytick_10">
     <g id="line2d_26">
      <g>
       <use xlink:href="#m32acff9841" x="219.7" y="81.464" style="stroke: #000000; stroke-width: 0.8"/>
      </g>
     </g>
    </g>
    <g id="ytick_11">
     <g id="line2d_27">
      <g>
       <use xlink:href="#m32acff9841" x="219.7" y="57.112" style="stroke: #000000; stroke-width: 0.8"/>
      </g>
     </g>
    </g>
    <g id="ytick_12">
     <g id="line2d_28">
      <g>
       <use xlink:href="#m32acff9841" x="219.7" y="32.76" style="stroke: #000000; stroke-width: 0.8"/>
      </g>
     </g>
    </g>
   </g>
   <g id="line2d_29">
    <path d="M 225.590909 154.52 
L 225.590909 154.051692 
L 225.796866 154.051692 
L 225.796866 153.583385 
L 226.563808 153.583385 
L 226.661229 151.241846 
L 226.703728 151.241846 
L 226.810302 147.027077 
L 226.829917 147.027077 
L 226.937799 143.748923 
L 226.971798 143.748923 
L 227.063334 142.344 
L 227.099295 142.344 
L 227.209792 140.939077 
L 227.27256 140.939077 
L 227.27256 140.470769 
L 227.539976 140.470769 
L 227.643281 139.065846 
L 227.7917 139.065846 
L 227.7917 138.597538 
L 227.910697 138.597538 
L 227.918543 137.660923 
L 228.625987 137.660923 
L 228.627949 136.724308 
L 229.290279 136.724308 
L 229.360892 135.787692 
L 231.668258 135.787692 
L 231.668258 135.319385 
L 231.850676 135.319385 
L 231.952674 134.382769 
L 231.966404 134.382769 
L 232.046825 132.041231 
L 232.084747 132.041231 
L 232.084747 131.572923 
L 232.250166 131.572923 
L 232.346933 130.168 
L 232.489468 130.168 
L 232.554851 128.294769 
L 232.602581 128.294769 
L 232.694117 125.953231 
L 232.773884 125.953231 
L 232.879151 123.143385 
L 232.937342 123.143385 
L 233.020378 121.270154 
L 233.101453 121.270154 
L 233.147875 120.333538 
L 233.215219 120.333538 
L 233.317217 116.587077 
L 233.366908 116.587077 
L 233.473482 113.308923 
L 233.507481 113.308923 
L 233.601633 110.030769 
L 233.620594 110.030769 
L 233.716053 107.689231 
L 233.740898 107.689231 
L 233.84355 103.474462 
L 233.867088 103.474462 
L 233.972354 101.132923 
L 234.033814 101.132923 
L 234.106389 99.728 
L 234.149542 99.728 
L 234.246309 97.854769 
L 234.280308 97.854769 
L 234.341114 95.513231 
L 234.391459 95.513231 
L 234.476457 88.956923 
L 234.53334 88.956923 
L 234.641876 83.337231 
L 234.647107 83.337231 
L 234.733412 78.185846 
L 234.770681 78.185846 
L 234.862871 72.566154 
L 234.898177 72.566154 
L 235.000175 69.756308 
L 235.026328 69.756308 
L 235.131595 67.414769 
L 235.161017 67.414769 
L 235.249938 64.604923 
L 235.289168 64.604923 
L 235.389204 63.2 
L 235.413395 63.2 
L 235.48924 60.390154 
L 235.59516 60.390154 
L 235.664466 58.985231 
L 235.838385 58.985231 
L 235.916844 57.112 
L 235.96392 57.112 
L 236.063956 56.175385 
L 236.132608 56.175385 
L 236.132608 55.707077 
L 236.280374 55.707077 
L 236.280374 55.238769 
L 239.714942 55.238769 
L 239.714942 54.770462 
L 239.884284 54.770462 
L 239.903899 53.833846 
L 240.147124 53.833846 
L 240.160854 52.897231 
L 240.313196 52.897231 
L 240.313196 52.428923 
L 240.481231 52.428923 
L 240.570805 51.492308 
L 240.654496 51.492308 
L 240.708763 50.555692 
L 240.834299 50.555692 
L 240.896413 49.619077 
L 240.965719 49.619077 
L 240.975526 48.682462 
L 241.206982 48.682462 
L 241.292634 46.809231 
L 241.349517 46.809231 
L 241.415554 45.872615 
L 241.531935 45.872615 
L 241.605164 44.936 
L 241.78889 44.936 
L 241.882388 43.999385 
L 242.313262 43.999385 
L 242.396298 41.657846 
L 242.425721 41.657846 
L 242.492411 40.252923 
L 242.588524 40.252923 
L 242.689868 39.316308 
L 242.880132 39.316308 
L 242.880132 38.848 
L 243.007629 38.848 
L 243.077589 37.443077 
L 243.221432 37.443077 
L 243.233201 36.506462 
L 243.354159 36.506462 
L 243.464003 34.633231 
L 243.886377 34.633231 
L 243.996874 33.696615 
L 244.123063 33.696615 
L 244.123063 33.228308 
L 250.991546 33.228308 
L 250.991546 32.76 
L 250.991546 32.76 
" clip-path="url(#p201cabe764)" style="fill: none; stroke: #f4b942; stroke-width: 1.5; stroke-linecap: square"/>
   </g>
   <g id="line2d_30">
    <path d="M 234.512164 154.52 
L 234.512164 32.76 
" clip-path="url(#p201cabe764)" style="fill: none; stroke-dasharray: 5.55,2.4; stroke-dashoffset: 0; stroke: #ff0000; stroke-width: 1.5"/>
   </g>
   <g id="line2d_31">
    <path d="M 234.417285 154.52 
L 234.417285 32.76 
" clip-path="url(#p201cabe764)" style="fill: none; stroke-dasharray: 9.6,2.4,1.5,2.4; stroke-dashoffset: 0; stroke: #008000; stroke-width: 1.5"/>
   </g>
   <g id="line2d_32">
    <path d="M 242.886507 154.52 
L 242.886507 32.76 
" clip-path="url(#p201cabe764)" style="fill: none; stroke-dasharray: 1.5,2.475; stroke-dashoffset: 0; stroke: #0000ff; stroke-width: 1.5"/>
   </g>
   <g id="patch_10">
    <path d="M 219.7 154.52 
L 219.7 32.76 
" style="fill: none; stroke: #000000; stroke-width: 0.8; stroke-linejoin: miter; stroke-linecap: square"/>
   </g>
   <g id="patch_11">
    <path d="M 349.3 154.52 
L 349.3 32.76 
" style="fill: none; stroke: #000000; stroke-width: 0.8; stroke-linejoin: miter; stroke-linecap: square"/>
   </g>
   <g id="patch_12">
    <path d="M 219.7 154.52 
L 349.3 154.52 
" style="fill: none; stroke: #000000; stroke-width: 0.8; stroke-linejoin: miter; stroke-linecap: square"/>
   </g>
   <g id="patch_13">
    <path d="M 219.7 32.76 
L 349.3 32.76 
" style="fill: none; stroke: #000000; stroke-width: 0.8; stroke-linejoin: miter; stroke-linecap: square"/>
   </g>
   <g id="text_13">
    <g id="patch_14">
     <path d="M 312.9 150.21525 
L 346.02 150.21525 
L 346.02 134.47275 
L 312.9 134.47275 
z
" style="fill: #ffffff; opacity: 0.2; stroke: #000000; stroke-linejoin: miter"/>
    </g>
    <!-- $n = 26$ -->
    <g transform="translate(316.9 144.5515) scale(0.08 -0.08)">
     <use xlink:href="#DejaVuSans-Oblique-6e" transform="translate(0 0.78125)"/>
     <use xlink:href="#DejaVuSans-3d" transform="translate(82.861328 0.78125)"/>
     <use xlink:href="#DejaVuSans-32" transform="translate(186.132812 0.78125)"/>
     <use xlink:href="#DejaVuSans-36" transform="translate(249.755859 0.78125)"/>
    </g>
   </g>
  </g>
  <g id="axes_3">
   <g id="patch_15">
    <path d="M 363.6 154.52 
L 493.2 154.52 
L 493.2 32.76 
L 363.6 32.76 
z
" style="fill: #ffffff"/>
   </g>
   <g id="matplotlib.axis_5">
    <g id="xtick_9">
     <g id="line2d_33">
      <g>
       <use xlink:href="#m76a2b54bc1" x="366.253797" y="154.52" style="stroke: #000000; stroke-width: 0.8"/>
      </g>
     </g>
    </g>
    <g id="xtick_10">
     <g id="line2d_34">
      <g>
       <use xlink:href="#m76a2b54bc1" x="398.945291" y="154.52" style="stroke: #000000; stroke-width: 0.8"/>
      </g>
     </g>
    </g>
    <g id="xtick_11">
     <g id="line2d_35">
      <g>
       <use xlink:href="#m76a2b54bc1" x="431.636785" y="154.52" style="stroke: #000000; stroke-width: 0.8"/>
      </g>
     </g>
    </g>
    <g id="xtick_12">
     <g id="line2d_36">
      <g>
       <use xlink:href="#m76a2b54bc1" x="464.328278" y="154.52" style="stroke: #000000; stroke-width: 0.8"/>
      </g>
     </g>
    </g>
   </g>
   <g id="matplotlib.axis_6">
    <g id="ytick_13">
     <g id="line2d_37">
      <g>
       <use xlink:href="#m32acff9841" x="363.6" y="154.52" style="stroke: #000000; stroke-width: 0.8"/>
      </g>
     </g>
    </g>
    <g id="ytick_14">
     <g id="line2d_38">
      <g>
       <use xlink:href="#m32acff9841" x="363.6" y="130.168" style="stroke: #000000; stroke-width: 0.8"/>
      </g>
     </g>
    </g>
    <g id="ytick_15">
     <g id="line2d_39">
      <g>
       <use xlink:href="#m32acff9841" x="363.6" y="105.816" style="stroke: #000000; stroke-width: 0.8"/>
      </g>
     </g>
    </g>
    <g id="ytick_16">
     <g id="line2d_40">
      <g>
       <use xlink:href="#m32acff9841" x="363.6" y="81.464" style="stroke: #000000; stroke-width: 0.8"/>
      </g>
     </g>
    </g>
    <g id="ytick_17">
     <g id="line2d_41">
      <g>
       <use xlink:href="#m32acff9841" x="363.6" y="57.112" style="stroke: #000000; stroke-width: 0.8"/>
      </g>
     </g>
    </g>
    <g id="ytick_18">
     <g id="line2d_42">
      <g>
       <use xlink:href="#m32acff9841" x="363.6" y="32.76" style="stroke: #000000; stroke-width: 0.8"/>
      </g>
     </g>
    </g>
   </g>
   <g id="line2d_43">
    <path d="M 370.552729 154.52 
L 370.650803 153.780567 
L 370.674995 153.780567 
L 370.770454 151.808745 
L 370.807722 151.808745 
L 370.893374 150.329879 
L 370.927373 150.329879 
L 371.023486 148.604534 
L 371.047024 148.604534 
L 371.156868 146.87919 
L 371.187598 146.87919 
L 371.298095 146.386235 
L 371.322287 146.386235 
L 371.42363 144.907368 
L 371.433438 144.907368 
L 371.523666 142.196113 
L 371.553089 142.196113 
L 371.63874 140.717247 
L 371.693662 140.717247 
L 371.749891 139.238381 
L 371.844697 139.238381 
L 371.925772 136.527126 
L 371.975463 136.527126 
L 372.080729 134.801781 
L 372.164419 134.801781 
L 372.269686 133.076437 
L 372.291262 133.076437 
L 372.380837 130.365182 
L 372.411567 130.365182 
L 372.496565 128.639838 
L 372.548871 128.639838 
L 372.610331 127.407449 
L 372.676368 127.407449 
L 372.71429 126.175061 
L 372.799288 126.175061 
L 372.88494 124.942672 
L 372.930708 124.942672 
L 373.009168 123.710283 
L 373.050359 123.710283 
L 373.154318 121.984939 
L 373.168702 121.984939 
L 373.278546 117.055385 
L 373.282469 117.055385 
L 373.392312 112.865263 
L 373.39362 112.865263 
L 373.504117 108.921619 
L 373.513924 108.921619 
L 373.621806 106.949798 
L 373.663651 106.949798 
L 373.765649 103.252632 
L 373.777418 103.252632 
L 373.870915 100.294899 
L 373.889876 100.294899 
L 373.987951 98.816032 
L 374.015412 98.816032 
L 374.11414 96.351255 
L 374.157293 96.351255 
L 374.261906 94.872389 
L 374.271059 94.872389 
L 374.31552 94.132955 
L 374.507746 94.132955 
L 374.546976 93.64 
L 374.732009 93.64 
L 374.817661 92.900567 
L 374.879775 92.900567 
L 374.879775 92.654089 
L 375.06677 92.654089 
L 375.06677 92.407611 
L 375.315879 92.407611 
L 375.315879 92.161134 
L 376.093937 92.161134 
L 376.184819 91.668178 
L 377.21264 91.668178 
L 377.21264 91.4217 
L 377.476133 91.4217 
L 377.561785 90.928745 
L 377.827894 90.928745 
L 377.91093 90.435789 
L 378.095964 90.435789 
L 378.095964 90.189312 
L 378.226076 90.189312 
L 378.304536 89.696356 
L 378.372534 89.696356 
L 378.473878 88.710445 
L 378.533376 88.710445 
L 378.533376 88.463968 
L 378.646489 88.463968 
L 378.751102 87.231579 
L 378.845907 87.231579 
L 378.923713 85.752713 
L 378.997595 85.752713 
L 379.106131 84.520324 
L 379.121169 84.520324 
L 379.193091 83.780891 
L 379.234282 83.780891 
L 379.338895 81.316113 
L 379.370932 81.316113 
L 379.454623 79.837247 
L 379.507583 79.837247 
L 379.605657 77.618947 
L 379.633772 77.618947 
L 379.736423 76.633036 
L 379.756038 76.633036 
L 379.831882 75.400648 
L 379.867843 75.400648 
L 379.967225 73.428826 
L 379.981609 73.428826 
L 380.077722 71.94996 
L 380.111722 71.94996 
L 380.220257 69.485182 
L 380.225488 69.485182 
L 380.332062 67.51336 
L 380.361485 67.51336 
L 380.469367 66.280972 
L 380.477866 66.280972 
L 380.56221 64.30915 
L 380.590979 64.30915 
L 380.675323 63.816194 
L 380.704091 63.816194 
L 380.804127 62.583806 
L 380.817858 62.583806 
L 380.881279 60.119028 
L 380.929009 60.119028 
L 381.039506 58.147206 
L 381.072851 58.147206 
L 381.17681 55.435951 
L 381.187926 55.435951 
L 381.265731 53.46413 
L 381.314115 53.46413 
L 381.418727 51.985263 
L 381.426573 51.985263 
L 381.460573 51.492308 
L 381.551455 51.492308 
L 381.651491 50.259919 
L 381.678952 50.259919 
L 381.752181 49.02753 
L 381.805795 49.02753 
L 381.892754 48.534575 
L 381.931984 48.534575 
L 382.008482 47.548664 
L 382.161478 47.548664 
L 382.219669 46.316275 
L 382.278514 46.316275 
L 382.340628 45.330364 
L 382.404703 45.330364 
L 382.458317 44.590931 
L 382.656427 44.590931 
L 382.69435 44.097976 
L 382.920575 44.097976 
L 382.99838 43.60502 
L 383.290642 43.60502 
L 383.394601 43.112065 
L 384.904948 43.112065 
L 384.904948 42.865587 
L 385.522164 42.865587 
L 385.522164 42.619109 
L 385.978537 42.619109 
L 385.978537 42.372632 
L 386.108649 42.372632 
L 386.163571 41.879676 
L 386.43491 41.879676 
L 386.532985 41.140243 
L 386.914821 41.140243 
L 387.001781 40.40081 
L 387.382964 40.40081 
L 387.382964 40.154332 
L 387.764146 40.154332 
L 387.764146 39.907854 
L 387.976641 39.907854 
L 388.032217 39.414899 
L 388.62851 39.414899 
L 388.68997 38.921943 
L 388.823351 38.921943 
L 388.931887 38.18251 
L 389.136535 38.18251 
L 389.167919 37.689555 
L 389.3013 37.689555 
L 389.34053 37.196599 
L 389.649792 37.196599 
L 389.666791 36.703644 
L 389.98586 36.703644 
L 390.01136 36.210688 
L 395.695757 36.210688 
L 395.695757 35.964211 
L 395.816061 35.964211 
L 395.816061 35.717733 
L 396.176322 35.717733 
L 396.176322 35.471255 
L 396.586927 35.471255 
L 396.626157 34.9783 
L 396.711808 34.9783 
L 396.733385 34.485344 
L 403.116072 34.485344 
L 403.116072 34.238866 
L 403.839208 34.238866 
L 403.839208 33.992389 
L 404.598304 33.992389 
L 404.598304 33.745911 
L 411.883277 33.745911 
L 411.883277 33.499433 
L 412.099694 33.499433 
L 412.099694 33.252955 
L 412.926789 33.252955 
L 412.926789 33.006478 
L 460.053539 33.006478 
L 460.053539 32.76 
L 460.053539 32.76 
" clip-path="url(#p037fc8bacd)" style="fill: none; stroke: #f4b942; stroke-width: 1.5; stroke-linecap: square"/>
   </g>
   <g id="line2d_44">
    <path d="M 377.59442 154.52 
L 377.59442 32.76 
" clip-path="url(#p037fc8bacd)" style="fill: none; stroke-dasharray: 5.55,2.4; stroke-dashoffset: 0; stroke: #ff0000; stroke-width: 1.5"/>
   </g>
   <g id="line2d_45">
    <path d="M 374.639492 154.52 
L 374.639492 32.76 
" clip-path="url(#p037fc8bacd)" style="fill: none; stroke-dasharray: 9.6,2.4,1.5,2.4; stroke-dashoffset: 0; stroke: #008000; stroke-width: 1.5"/>
   </g>
   <g id="line2d_46">
    <path d="M 388.736653 154.52 
L 388.736653 32.76 
" clip-path="url(#p037fc8bacd)" style="fill: none; stroke-dasharray: 1.5,2.475; stroke-dashoffset: 0; stroke: #0000ff; stroke-width: 1.5"/>
   </g>
   <g id="patch_16">
    <path d="M 363.6 154.52 
L 363.6 32.76 
" style="fill: none; stroke: #000000; stroke-width: 0.8; stroke-linejoin: miter; stroke-linecap: square"/>
   </g>
   <g id="patch_17">
    <path d="M 493.2 154.52 
L 493.2 32.76 
" style="fill: none; stroke: #000000; stroke-width: 0.8; stroke-linejoin: miter; stroke-linecap: square"/>
   </g>
   <g id="patch_18">
    <path d="M 363.6 154.52 
L 493.2 154.52 
" style="fill: none; stroke: #000000; stroke-width: 0.8; stroke-linejoin: miter; stroke-linecap: square"/>
   </g>
   <g id="patch_19">
    <path d="M 363.6 32.76 
L 493.2 32.76 
" style="fill: none; stroke: #000000; stroke-width: 0.8; stroke-linejoin: miter; stroke-linecap: square"/>
   </g>
   <g id="text_14">
    <g id="patch_20">
     <path d="M 456.8 150.21525 
L 489.92 150.21525 
L 489.92 134.47275 
L 456.8 134.47275 
z
" style="fill: #ffffff; opacity: 0.2; stroke: #000000; stroke-linejoin: miter"/>
    </g>
    <!-- $n = 50$ -->
    <g transform="translate(460.8 144.5515) scale(0.08 -0.08)">
     <use xlink:href="#DejaVuSans-Oblique-6e" transform="translate(0 0.78125)"/>
     <use xlink:href="#DejaVuSans-3d" transform="translate(82.861328 0.78125)"/>
     <use xlink:href="#DejaVuSans-35" transform="translate(186.132812 0.78125)"/>
     <use xlink:href="#DejaVuSans-30" transform="translate(249.755859 0.78125)"/>
    </g>
   </g>
  </g>
  <g id="axes_4">
   <g id="patch_21">
    <path d="M 75.8 297.16 
L 205.4 297.16 
L 205.4 175.4 
L 75.8 175.4 
z
" style="fill: #ffffff"/>
   </g>
   <g id="matplotlib.axis_7">
    <g id="xtick_13">
     <g id="line2d_47">
      <g>
       <use xlink:href="#m76a2b54bc1" x="78.453797" y="297.16" style="stroke: #000000; stroke-width: 0.8"/>
      </g>
     </g>
     <g id="text_15">
      <!-- 0 -->
      <g transform="translate(75.272547 311.758438) scale(0.1 -0.1)">
       <use xlink:href="#DejaVuSans-30"/>
      </g>
     </g>
    </g>
    <g id="xtick_14">
     <g id="line2d_48">
      <g>
       <use xlink:href="#m76a2b54bc1" x="111.145291" y="297.16" style="stroke: #000000; stroke-width: 0.8"/>
      </g>
     </g>
     <g id="text_16">
      <!-- 50 -->
      <g transform="translate(104.782791 311.758438) scale(0.1 -0.1)">
       <use xlink:href="#DejaVuSans-35"/>
       <use xlink:href="#DejaVuSans-30" x="63.623047"/>
      </g>
     </g>
    </g>
    <g id="xtick_15">
     <g id="line2d_49">
      <g>
       <use xlink:href="#m76a2b54bc1" x="143.836785" y="297.16" style="stroke: #000000; stroke-width: 0.8"/>
      </g>
     </g>
     <g id="text_17">
      <!-- 100 -->
      <g transform="translate(134.293035 311.758438) scale(0.1 -0.1)">
       <use xlink:href="#DejaVuSans-31"/>
       <use xlink:href="#DejaVuSans-30" x="63.623047"/>
       <use xlink:href="#DejaVuSans-30" x="127.246094"/>
      </g>
     </g>
    </g>
    <g id="xtick_16">
     <g id="line2d_50">
      <g>
       <use xlink:href="#m76a2b54bc1" x="176.528278" y="297.16" style="stroke: #000000; stroke-width: 0.8"/>
      </g>
     </g>
     <g id="text_18">
      <!-- 150 -->
      <g transform="translate(166.984528 311.758438) scale(0.1 -0.1)">
       <use xlink:href="#DejaVuSans-31"/>
       <use xlink:href="#DejaVuSans-35" x="63.623047"/>
       <use xlink:href="#DejaVuSans-30" x="127.246094"/>
      </g>
     </g>
    </g>
    <g id="text_19">
     <!-- Latency (s) -->
     <g transform="translate(107.16875 326.95625) scale(0.12 -0.12)">
      <defs>
       <path id="DejaVuSans-4c" d="M 628 4666 
L 1259 4666 
L 1259 531 
L 3531 531 
L 3531 0 
L 628 0 
L 628 4666 
z
" transform="scale(0.015625)"/>
       <path id="DejaVuSans-28" d="M 1984 4856 
Q 1566 4138 1362 3434 
Q 1159 2731 1159 2009 
Q 1159 1288 1364 580 
Q 1569 -128 1984 -844 
L 1484 -844 
Q 1016 -109 783 600 
Q 550 1309 550 2009 
Q 550 2706 781 3412 
Q 1013 4119 1484 4856 
L 1984 4856 
z
" transform="scale(0.015625)"/>
       <path id="DejaVuSans-73" d="M 2834 3397 
L 2834 2853 
Q 2591 2978 2328 3040 
Q 2066 3103 1784 3103 
Q 1356 3103 1142 2972 
Q 928 2841 928 2578 
Q 928 2378 1081 2264 
Q 1234 2150 1697 2047 
L 1894 2003 
Q 2506 1872 2764 1633 
Q 3022 1394 3022 966 
Q 3022 478 2636 193 
Q 2250 -91 1575 -91 
Q 1294 -91 989 -36 
Q 684 19 347 128 
L 347 722 
Q 666 556 975 473 
Q 1284 391 1588 391 
Q 1994 391 2212 530 
Q 2431 669 2431 922 
Q 2431 1156 2273 1281 
Q 2116 1406 1581 1522 
L 1381 1569 
Q 847 1681 609 1914 
Q 372 2147 372 2553 
Q 372 3047 722 3315 
Q 1072 3584 1716 3584 
Q 2034 3584 2315 3537 
Q 2597 3491 2834 3397 
z
" transform="scale(0.015625)"/>
       <path id="DejaVuSans-29" d="M 513 4856 
L 1013 4856 
Q 1481 4119 1714 3412 
Q 1947 2706 1947 2009 
Q 1947 1309 1714 600 
Q 1481 -109 1013 -844 
L 513 -844 
Q 928 -128 1133 580 
Q 1338 1288 1338 2009 
Q 1338 2731 1133 3434 
Q 928 4138 513 4856 
z
" transform="scale(0.015625)"/>
      </defs>
      <use xlink:href="#DejaVuSans-4c"/>
      <use xlink:href="#DejaVuSans-61" x="55.712891"/>
      <use xlink:href="#DejaVuSans-74" x="116.992188"/>
      <use xlink:href="#DejaVuSans-65" x="156.201172"/>
      <use xlink:href="#DejaVuSans-6e" x="217.724609"/>
      <use xlink:href="#DejaVuSans-63" x="281.103516"/>
      <use xlink:href="#DejaVuSans-79" x="336.083984"/>
      <use xlink:href="#DejaVuSans-20" x="395.263672"/>
      <use xlink:href="#DejaVuSans-28" x="427.050781"/>
      <use xlink:href="#DejaVuSans-73" x="466.064453"/>
      <use xlink:href="#DejaVuSans-29" x="518.164062"/>
     </g>
    </g>
   </g>
   <g id="matplotlib.axis_8">
    <g id="ytick_19">
     <g id="line2d_51">
      <g>
       <use xlink:href="#m32acff9841" x="75.8" y="297.16" style="stroke: #000000; stroke-width: 0.8"/>
      </g>
     </g>
     <g id="text_20">
      <!-- 0.0 -->
      <g transform="translate(52.896875 300.959219) scale(0.1 -0.1)">
       <use xlink:href="#DejaVuSans-30"/>
       <use xlink:href="#DejaVuSans-2e" x="63.623047"/>
       <use xlink:href="#DejaVuSans-30" x="95.410156"/>
      </g>
     </g>
    </g>
    <g id="ytick_20">
     <g id="line2d_52">
      <g>
       <use xlink:href="#m32acff9841" x="75.8" y="272.808" style="stroke: #000000; stroke-width: 0.8"/>
      </g>
     </g>
     <g id="text_21">
      <!-- 0.2 -->
      <g transform="translate(52.896875 276.607219) scale(0.1 -0.1)">
       <use xlink:href="#DejaVuSans-30"/>
       <use xlink:href="#DejaVuSans-2e" x="63.623047"/>
       <use xlink:href="#DejaVuSans-32" x="95.410156"/>
      </g>
     </g>
    </g>
    <g id="ytick_21">
     <g id="line2d_53">
      <g>
       <use xlink:href="#m32acff9841" x="75.8" y="248.456" style="stroke: #000000; stroke-width: 0.8"/>
      </g>
     </g>
     <g id="text_22">
      <!-- 0.4 -->
      <g transform="translate(52.896875 252.255219) scale(0.1 -0.1)">
       <use xlink:href="#DejaVuSans-30"/>
       <use xlink:href="#DejaVuSans-2e" x="63.623047"/>
       <use xlink:href="#DejaVuSans-34" x="95.410156"/>
      </g>
     </g>
    </g>
    <g id="ytick_22">
     <g id="line2d_54">
      <g>
       <use xlink:href="#m32acff9841" x="75.8" y="224.104" style="stroke: #000000; stroke-width: 0.8"/>
      </g>
     </g>
     <g id="text_23">
      <!-- 0.6 -->
      <g transform="translate(52.896875 227.903219) scale(0.1 -0.1)">
       <use xlink:href="#DejaVuSans-30"/>
       <use xlink:href="#DejaVuSans-2e" x="63.623047"/>
       <use xlink:href="#DejaVuSans-36" x="95.410156"/>
      </g>
     </g>
    </g>
    <g id="ytick_23">
     <g id="line2d_55">
      <g>
       <use xlink:href="#m32acff9841" x="75.8" y="199.752" style="stroke: #000000; stroke-width: 0.8"/>
      </g>
     </g>
     <g id="text_24">
      <!-- 0.8 -->
      <g transform="translate(52.896875 203.551219) scale(0.1 -0.1)">
       <use xlink:href="#DejaVuSans-30"/>
       <use xlink:href="#DejaVuSans-2e" x="63.623047"/>
       <use xlink:href="#DejaVuSans-38" x="95.410156"/>
      </g>
     </g>
    </g>
    <g id="ytick_24">
     <g id="line2d_56">
      <g>
       <use xlink:href="#m32acff9841" x="75.8" y="175.4" style="stroke: #000000; stroke-width: 0.8"/>
      </g>
     </g>
     <g id="text_25">
      <!-- 1.0 -->
      <g transform="translate(52.896875 179.199219) scale(0.1 -0.1)">
       <use xlink:href="#DejaVuSans-31"/>
       <use xlink:href="#DejaVuSans-2e" x="63.623047"/>
       <use xlink:href="#DejaVuSans-30" x="95.410156"/>
      </g>
     </g>
    </g>
    <g id="text_26">
     <!-- CDF -->
     <g transform="translate(46.40125 248.540625) rotate(-90) scale(0.12 -0.12)">
      <use xlink:href="#DejaVuSans-43"/>
      <use xlink:href="#DejaVuSans-44" x="69.824219"/>
      <use xlink:href="#DejaVuSans-46" x="146.826172"/>
     </g>
    </g>
   </g>
   <g id="line2d_57">
    <path d="M 82.871726 297.16 
L 82.871726 281.94 
L 83.204525 281.94 
L 83.204525 266.72 
L 90.397962 266.72 
L 90.397962 251.5 
L 90.484267 251.5 
L 90.484267 236.28 
L 90.662763 236.28 
L 90.662763 221.06 
L 90.803336 221.06 
L 90.803336 205.84 
L 95.885556 205.84 
L 95.885556 190.62 
L 95.964669 190.62 
L 95.964669 175.4 
" clip-path="url(#p4b1e776aa8)" style="fill: none; stroke: #97d8c4; stroke-width: 1.5; stroke-linecap: square"/>
   </g>
   <g id="line2d_58">
    <path d="M 90.03435 297.16 
L 90.03435 175.4 
" clip-path="url(#p4b1e776aa8)" style="fill: none; stroke-dasharray: 5.55,2.4; stroke-dashoffset: 0; stroke: #ff0000; stroke-width: 1.5"/>
   </g>
   <g id="line2d_59">
    <path d="M 90.573515 297.16 
L 90.573515 175.4 
" clip-path="url(#p4b1e776aa8)" style="fill: none; stroke-dasharray: 9.6,2.4,1.5,2.4; stroke-dashoffset: 0; stroke: #008000; stroke-width: 1.5"/>
   </g>
   <g id="line2d_60">
    <path d="M 95.936979 297.16 
L 95.936979 175.4 
" clip-path="url(#p4b1e776aa8)" style="fill: none; stroke-dasharray: 1.5,2.475; stroke-dashoffset: 0; stroke: #0000ff; stroke-width: 1.5"/>
   </g>
   <g id="patch_22">
    <path d="M 75.8 297.16 
L 75.8 175.4 
" style="fill: none; stroke: #000000; stroke-width: 0.8; stroke-linejoin: miter; stroke-linecap: square"/>
   </g>
   <g id="patch_23">
    <path d="M 205.4 297.16 
L 205.4 175.4 
" style="fill: none; stroke: #000000; stroke-width: 0.8; stroke-linejoin: miter; stroke-linecap: square"/>
   </g>
   <g id="patch_24">
    <path d="M 75.8 297.16 
L 205.4 297.16 
" style="fill: none; stroke: #000000; stroke-width: 0.8; stroke-linejoin: miter; stroke-linecap: square"/>
   </g>
   <g id="patch_25">
    <path d="M 75.8 175.4 
L 205.4 175.4 
" style="fill: none; stroke: #000000; stroke-width: 0.8; stroke-linejoin: miter; stroke-linecap: square"/>
   </g>
   <g id="text_27">
    <g id="patch_26">
     <path d="M 169 292.85525 
L 197 292.85525 
L 197 277.11275 
L 169 277.11275 
z
" style="fill: #ffffff; opacity: 0.2; stroke: #000000; stroke-linejoin: miter"/>
    </g>
    <!-- $n = 2$ -->
    <g transform="translate(173 287.1915) scale(0.08 -0.08)">
     <use xlink:href="#DejaVuSans-Oblique-6e" transform="translate(0 0.78125)"/>
     <use xlink:href="#DejaVuSans-3d" transform="translate(82.861328 0.78125)"/>
     <use xlink:href="#DejaVuSans-32" transform="translate(186.132812 0.78125)"/>
    </g>
   </g>
   <g id="legend_2">
    <g id="patch_27">
     <path d="M 119.06 193.5425 
L 199.8 193.5425 
Q 201.4 193.5425 201.4 191.9425 
L 201.4 181 
Q 201.4 179.4 199.8 179.4 
L 119.06 179.4 
Q 117.46 179.4 117.46 181 
L 117.46 191.9425 
Q 117.46 193.5425 119.06 193.5425 
z
" style="fill: #ffffff; opacity: 0.8; stroke: #cccccc; stroke-linejoin: miter"/>
    </g>
    <g id="line2d_61">
     <path d="M 120.66 185.87875 
L 128.66 185.87875 
L 136.66 185.87875 
" style="fill: none; stroke: #97d8c4; stroke-width: 2; stroke-linecap: square"/>
    </g>
    <g id="text_28">
     <!-- transferFunds -->
     <g transform="translate(143.06 188.67875) scale(0.08 -0.08)">
      <defs>
       <path id="DejaVuSans-66" d="M 2375 4863 
L 2375 4384 
L 1825 4384 
Q 1516 4384 1395 4259 
Q 1275 4134 1275 3809 
L 1275 3500 
L 2222 3500 
L 2222 3053 
L 1275 3053 
L 1275 0 
L 697 0 
L 697 3053 
L 147 3053 
L 147 3500 
L 697 3500 
L 697 3744 
Q 697 4328 969 4595 
Q 1241 4863 1831 4863 
L 2375 4863 
z
" transform="scale(0.015625)"/>
      </defs>
      <use xlink:href="#DejaVuSans-74"/>
      <use xlink:href="#DejaVuSans-72" x="39.208984"/>
      <use xlink:href="#DejaVuSans-61" x="80.322266"/>
      <use xlink:href="#DejaVuSans-6e" x="141.601562"/>
      <use xlink:href="#DejaVuSans-73" x="204.980469"/>
      <use xlink:href="#DejaVuSans-66" x="257.080078"/>
      <use xlink:href="#DejaVuSans-65" x="292.285156"/>
      <use xlink:href="#DejaVuSans-72" x="353.808594"/>
      <use xlink:href="#DejaVuSans-46" x="394.921875"/>
      <use xlink:href="#DejaVuSans-75" x="446.941406"/>
      <use xlink:href="#DejaVuSans-6e" x="510.320312"/>
      <use xlink:href="#DejaVuSans-64" x="573.699219"/>
      <use xlink:href="#DejaVuSans-73" x="637.175781"/>
     </g>
    </g>
   </g>
  </g>
  <g id="axes_5">
   <g id="patch_28">
    <path d="M 219.7 297.16 
L 349.3 297.16 
L 349.3 175.4 
L 219.7 175.4 
z
" style="fill: #ffffff"/>
   </g>
   <g id="matplotlib.axis_9">
    <g id="xtick_17">
     <g id="line2d_62">
      <g>
       <use xlink:href="#m76a2b54bc1" x="222.353797" y="297.16" style="stroke: #000000; stroke-width: 0.8"/>
      </g>
     </g>
     <g id="text_29">
      <!-- 0 -->
      <g transform="translate(219.172547 311.758438) scale(0.1 -0.1)">
       <use xlink:href="#DejaVuSans-30"/>
      </g>
     </g>
    </g>
    <g id="xtick_18">
     <g id="line2d_63">
      <g>
       <use xlink:href="#m76a2b54bc1" x="255.045291" y="297.16" style="stroke: #000000; stroke-width: 0.8"/>
      </g>
     </g>
     <g id="text_30">
      <!-- 50 -->
      <g transform="translate(248.682791 311.758438) scale(0.1 -0.1)">
       <use xlink:href="#DejaVuSans-35"/>
       <use xlink:href="#DejaVuSans-30" x="63.623047"/>
      </g>
     </g>
    </g>
    <g id="xtick_19">
     <g id="line2d_64">
      <g>
       <use xlink:href="#m76a2b54bc1" x="287.736785" y="297.16" style="stroke: #000000; stroke-width: 0.8"/>
      </g>
     </g>
     <g id="text_31">
      <!-- 100 -->
      <g transform="translate(278.193035 311.758438) scale(0.1 -0.1)">
       <use xlink:href="#DejaVuSans-31"/>
       <use xlink:href="#DejaVuSans-30" x="63.623047"/>
       <use xlink:href="#DejaVuSans-30" x="127.246094"/>
      </g>
     </g>
    </g>
    <g id="xtick_20">
     <g id="line2d_65">
      <g>
       <use xlink:href="#m76a2b54bc1" x="320.428278" y="297.16" style="stroke: #000000; stroke-width: 0.8"/>
      </g>
     </g>
     <g id="text_32">
      <!-- 150 -->
      <g transform="translate(310.884528 311.758438) scale(0.1 -0.1)">
       <use xlink:href="#DejaVuSans-31"/>
       <use xlink:href="#DejaVuSans-35" x="63.623047"/>
       <use xlink:href="#DejaVuSans-30" x="127.246094"/>
      </g>
     </g>
    </g>
    <g id="text_33">
     <!-- Latency (s) -->
     <g transform="translate(251.06875 326.95625) scale(0.12 -0.12)">
      <use xlink:href="#DejaVuSans-4c"/>
      <use xlink:href="#DejaVuSans-61" x="55.712891"/>
      <use xlink:href="#DejaVuSans-74" x="116.992188"/>
      <use xlink:href="#DejaVuSans-65" x="156.201172"/>
      <use xlink:href="#DejaVuSans-6e" x="217.724609"/>
      <use xlink:href="#DejaVuSans-63" x="281.103516"/>
      <use xlink:href="#DejaVuSans-79" x="336.083984"/>
      <use xlink:href="#DejaVuSans-20" x="395.263672"/>
      <use xlink:href="#DejaVuSans-28" x="427.050781"/>
      <use xlink:href="#DejaVuSans-73" x="466.064453"/>
      <use xlink:href="#DejaVuSans-29" x="518.164062"/>
     </g>
    </g>
   </g>
   <g id="matplotlib.axis_10">
    <g id="ytick_25">
     <g id="line2d_66">
      <g>
       <use xlink:href="#m32acff9841" x="219.7" y="297.16" style="stroke: #000000; stroke-width: 0.8"/>
      </g>
     </g>
    </g>
    <g id="ytick_26">
     <g id="line2d_67">
      <g>
       <use xlink:href="#m32acff9841" x="219.7" y="272.808" style="stroke: #000000; stroke-width: 0.8"/>
      </g>
     </g>
    </g>
    <g id="ytick_27">
     <g id="line2d_68">
      <g>
       <use xlink:href="#m32acff9841" x="219.7" y="248.456" style="stroke: #000000; stroke-width: 0.8"/>
      </g>
     </g>
    </g>
    <g id="ytick_28">
     <g id="line2d_69">
      <g>
       <use xlink:href="#m32acff9841" x="219.7" y="224.104" style="stroke: #000000; stroke-width: 0.8"/>
      </g>
     </g>
    </g>
    <g id="ytick_29">
     <g id="line2d_70">
      <g>
       <use xlink:href="#m32acff9841" x="219.7" y="199.752" style="stroke: #000000; stroke-width: 0.8"/>
      </g>
     </g>
    </g>
    <g id="ytick_30">
     <g id="line2d_71">
      <g>
       <use xlink:href="#m32acff9841" x="219.7" y="175.4" style="stroke: #000000; stroke-width: 0.8"/>
      </g>
     </g>
    </g>
   </g>
   <g id="line2d_72">
    <path d="M 228.072847 297.16 
L 228.072847 296.691692 
L 231.078503 296.691692 
L 231.121002 294.818462 
L 231.293613 294.818462 
L 231.386457 293.881846 
L 231.433533 293.881846 
L 231.540761 292.945231 
L 231.568222 292.945231 
L 231.623797 291.540308 
L 231.737564 291.540308 
L 231.787255 290.135385 
L 231.853292 290.135385 
L 231.923251 288.262154 
L 231.980135 288.262154 
L 232.070363 286.857231 
L 232.164515 286.857231 
L 232.212898 284.984 
L 232.333203 284.984 
L 232.422124 280.769231 
L 232.456123 280.769231 
L 232.521506 278.427692 
L 232.595389 278.427692 
L 232.595389 277.959385 
L 232.787615 277.959385 
L 232.82946 277.022769 
L 232.915111 277.022769 
L 232.984417 276.086154 
L 233.032801 276.086154 
L 233.13676 274.212923 
L 233.15049 274.212923 
L 233.253141 270.934769 
L 233.311332 270.934769 
L 233.375408 268.593231 
L 233.538211 268.593231 
L 233.565018 266.251692 
L 233.684669 266.251692 
L 233.770975 263.910154 
L 233.845511 263.910154 
L 233.918086 262.973538 
L 234.073698 262.973538 
L 234.143658 261.100308 
L 234.284885 261.100308 
L 234.284885 260.632 
L 234.515033 260.632 
L 234.515033 260.163692 
L 234.943945 260.163692 
L 234.943945 259.695385 
L 235.109364 259.695385 
L 235.153171 258.758769 
L 235.238169 258.758769 
L 235.30486 256.885538 
L 235.46374 256.885538 
L 235.497086 255.948923 
L 235.734426 255.948923 
L 235.788694 254.544 
L 236.081609 254.544 
L 236.152877 252.202462 
L 236.250298 252.202462 
L 236.354256 249.860923 
L 236.362756 249.860923 
L 236.439254 247.519385 
L 236.515099 247.519385 
L 236.589635 246.582769 
L 236.653711 246.582769 
L 236.753747 243.772923 
L 236.769438 243.772923 
L 236.879936 237.216615 
L 236.88059 237.216615 
L 236.979318 234.406769 
L 236.996971 234.406769 
L 237.086546 231.596923 
L 237.204889 231.596923 
L 237.315386 229.723692 
L 237.316694 229.723692 
L 237.350039 228.787077 
L 237.532458 228.787077 
L 237.557957 226.913846 
L 237.771106 226.913846 
L 237.771106 226.445538 
L 238.020869 226.445538 
L 238.099328 224.104 
L 238.361514 224.104 
L 238.361514 223.635692 
L 239.018613 223.635692 
L 239.018613 223.167385 
L 239.458641 223.167385 
L 239.458641 222.699077 
L 239.609675 222.699077 
L 239.609675 222.230769 
L 239.731288 222.230769 
L 239.823478 219.420923 
L 239.996743 219.420923 
L 240.106586 217.547692 
L 240.194199 217.547692 
L 240.296197 215.206154 
L 240.34458 215.206154 
L 240.440039 214.269538 
L 240.560344 214.269538 
L 240.659072 211.928 
L 240.681303 211.928 
L 240.703533 210.523077 
L 240.89249 210.523077 
L 240.999718 208.181538 
L 241.052678 208.181538 
L 241.104331 207.244923 
L 241.211559 207.244923 
L 241.295249 203.966769 
L 241.370439 203.966769 
L 241.473744 203.030154 
L 241.51559 203.030154 
L 241.566588 200.688615 
L 241.647663 200.688615 
L 241.647663 200.220308 
L 241.817659 200.220308 
L 241.894157 199.283692 
L 241.940579 199.283692 
L 242.047153 196.942154 
L 242.06546 196.942154 
L 242.06546 196.473846 
L 242.207342 196.473846 
L 242.275994 193.664 
L 242.343338 193.664 
L 242.409375 191.790769 
L 242.462335 191.790769 
L 242.480642 190.854154 
L 242.664369 190.854154 
L 242.694445 189.449231 
L 242.801673 189.449231 
L 242.801673 188.980923 
L 242.922631 188.980923 
L 242.922631 188.512615 
L 247.001222 188.512615 
L 247.088835 187.107692 
L 247.159449 187.107692 
L 247.227447 185.702769 
L 247.667475 185.702769 
L 247.667475 185.234462 
L 247.921815 185.234462 
L 247.921815 184.766154 
L 248.131694 184.766154 
L 248.229768 183.361231 
L 248.246114 183.361231 
L 248.284036 182.424615 
L 248.652143 182.424615 
L 248.760678 181.488 
L 248.785524 181.488 
L 248.785524 181.019692 
L 248.969904 181.019692 
L 248.969904 180.551385 
L 249.092824 180.551385 
L 249.125515 179.614769 
L 249.211821 179.614769 
L 249.275896 178.678154 
L 249.488391 178.678154 
L 249.506044 177.741538 
L 249.984648 177.741538 
L 249.984648 177.273231 
L 250.196489 177.273231 
L 250.196489 176.804923 
L 250.325947 176.804923 
L 250.325947 176.336615 
L 251.630338 176.336615 
L 251.630338 175.868308 
L 252.488162 175.868308 
L 252.488162 175.4 
L 252.488162 175.4 
" clip-path="url(#paaa4fc47d5)" style="fill: none; stroke: #97d8c4; stroke-width: 1.5; stroke-linecap: square"/>
   </g>
   <g id="line2d_73">
    <path d="M 238.058519 297.16 
L 238.058519 175.4 
" clip-path="url(#paaa4fc47d5)" style="fill: none; stroke-dasharray: 5.55,2.4; stroke-dashoffset: 0; stroke: #ff0000; stroke-width: 1.5"/>
   </g>
   <g id="line2d_74">
    <path d="M 236.915243 297.16 
L 236.915243 175.4 
" clip-path="url(#paaa4fc47d5)" style="fill: none; stroke-dasharray: 9.6,2.4,1.5,2.4; stroke-dashoffset: 0; stroke: #008000; stroke-width: 1.5"/>
   </g>
   <g id="line2d_75">
    <path d="M 248.761921 297.16 
L 248.761921 175.4 
" clip-path="url(#paaa4fc47d5)" style="fill: none; stroke-dasharray: 1.5,2.475; stroke-dashoffset: 0; stroke: #0000ff; stroke-width: 1.5"/>
   </g>
   <g id="patch_29">
    <path d="M 219.7 297.16 
L 219.7 175.4 
" style="fill: none; stroke: #000000; stroke-width: 0.8; stroke-linejoin: miter; stroke-linecap: square"/>
   </g>
   <g id="patch_30">
    <path d="M 349.3 297.16 
L 349.3 175.4 
" style="fill: none; stroke: #000000; stroke-width: 0.8; stroke-linejoin: miter; stroke-linecap: square"/>
   </g>
   <g id="patch_31">
    <path d="M 219.7 297.16 
L 349.3 297.16 
" style="fill: none; stroke: #000000; stroke-width: 0.8; stroke-linejoin: miter; stroke-linecap: square"/>
   </g>
   <g id="patch_32">
    <path d="M 219.7 175.4 
L 349.3 175.4 
" style="fill: none; stroke: #000000; stroke-width: 0.8; stroke-linejoin: miter; stroke-linecap: square"/>
   </g>
   <g id="text_34">
    <g id="patch_33">
     <path d="M 312.9 292.85525 
L 346.02 292.85525 
L 346.02 277.11275 
L 312.9 277.11275 
z
" style="fill: #ffffff; opacity: 0.2; stroke: #000000; stroke-linejoin: miter"/>
    </g>
    <!-- $n = 26$ -->
    <g transform="translate(316.9 287.1915) scale(0.08 -0.08)">
     <use xlink:href="#DejaVuSans-Oblique-6e" transform="translate(0 0.78125)"/>
     <use xlink:href="#DejaVuSans-3d" transform="translate(82.861328 0.78125)"/>
     <use xlink:href="#DejaVuSans-32" transform="translate(186.132812 0.78125)"/>
     <use xlink:href="#DejaVuSans-36" transform="translate(249.755859 0.78125)"/>
    </g>
   </g>
  </g>
  <g id="axes_6">
   <g id="patch_34">
    <path d="M 363.6 297.16 
L 493.2 297.16 
L 493.2 175.4 
L 363.6 175.4 
z
" style="fill: #ffffff"/>
   </g>
   <g id="matplotlib.axis_11">
    <g id="xtick_21">
     <g id="line2d_76">
      <g>
       <use xlink:href="#m76a2b54bc1" x="366.253797" y="297.16" style="stroke: #000000; stroke-width: 0.8"/>
      </g>
     </g>
     <g id="text_35">
      <!-- 0 -->
      <g transform="translate(363.072547 311.758438) scale(0.1 -0.1)">
       <use xlink:href="#DejaVuSans-30"/>
      </g>
     </g>
    </g>
    <g id="xtick_22">
     <g id="line2d_77">
      <g>
       <use xlink:href="#m76a2b54bc1" x="398.945291" y="297.16" style="stroke: #000000; stroke-width: 0.8"/>
      </g>
     </g>
     <g id="text_36">
      <!-- 50 -->
      <g transform="translate(392.582791 311.758438) scale(0.1 -0.1)">
       <use xlink:href="#DejaVuSans-35"/>
       <use xlink:href="#DejaVuSans-30" x="63.623047"/>
      </g>
     </g>
    </g>
    <g id="xtick_23">
     <g id="line2d_78">
      <g>
       <use xlink:href="#m76a2b54bc1" x="431.636785" y="297.16" style="stroke: #000000; stroke-width: 0.8"/>
      </g>
     </g>
     <g id="text_37">
      <!-- 100 -->
      <g transform="translate(422.093035 311.758438) scale(0.1 -0.1)">
       <use xlink:href="#DejaVuSans-31"/>
       <use xlink:href="#DejaVuSans-30" x="63.623047"/>
       <use xlink:href="#DejaVuSans-30" x="127.246094"/>
      </g>
     </g>
    </g>
    <g id="xtick_24">
     <g id="line2d_79">
      <g>
       <use xlink:href="#m76a2b54bc1" x="464.328278" y="297.16" style="stroke: #000000; stroke-width: 0.8"/>
      </g>
     </g>
     <g id="text_38">
      <!-- 150 -->
      <g transform="translate(454.784528 311.758438) scale(0.1 -0.1)">
       <use xlink:href="#DejaVuSans-31"/>
       <use xlink:href="#DejaVuSans-35" x="63.623047"/>
       <use xlink:href="#DejaVuSans-30" x="127.246094"/>
      </g>
     </g>
    </g>
    <g id="text_39">
     <!-- Latency (s) -->
     <g transform="translate(394.96875 326.95625) scale(0.12 -0.12)">
      <use xlink:href="#DejaVuSans-4c"/>
      <use xlink:href="#DejaVuSans-61" x="55.712891"/>
      <use xlink:href="#DejaVuSans-74" x="116.992188"/>
      <use xlink:href="#DejaVuSans-65" x="156.201172"/>
      <use xlink:href="#DejaVuSans-6e" x="217.724609"/>
      <use xlink:href="#DejaVuSans-63" x="281.103516"/>
      <use xlink:href="#DejaVuSans-79" x="336.083984"/>
      <use xlink:href="#DejaVuSans-20" x="395.263672"/>
      <use xlink:href="#DejaVuSans-28" x="427.050781"/>
      <use xlink:href="#DejaVuSans-73" x="466.064453"/>
      <use xlink:href="#DejaVuSans-29" x="518.164062"/>
     </g>
    </g>
   </g>
   <g id="matplotlib.axis_12">
    <g id="ytick_31">
     <g id="line2d_80">
      <g>
       <use xlink:href="#m32acff9841" x="363.6" y="297.16" style="stroke: #000000; stroke-width: 0.8"/>
      </g>
     </g>
    </g>
    <g id="ytick_32">
     <g id="line2d_81">
      <g>
       <use xlink:href="#m32acff9841" x="363.6" y="272.808" style="stroke: #000000; stroke-width: 0.8"/>
      </g>
     </g>
    </g>
    <g id="ytick_33">
     <g id="line2d_82">
      <g>
       <use xlink:href="#m32acff9841" x="363.6" y="248.456" style="stroke: #000000; stroke-width: 0.8"/>
      </g>
     </g>
    </g>
    <g id="ytick_34">
     <g id="line2d_83">
      <g>
       <use xlink:href="#m32acff9841" x="363.6" y="224.104" style="stroke: #000000; stroke-width: 0.8"/>
      </g>
     </g>
    </g>
    <g id="ytick_35">
     <g id="line2d_84">
      <g>
       <use xlink:href="#m32acff9841" x="363.6" y="199.752" style="stroke: #000000; stroke-width: 0.8"/>
      </g>
     </g>
    </g>
    <g id="ytick_36">
     <g id="line2d_85">
      <g>
       <use xlink:href="#m32acff9841" x="363.6" y="175.4" style="stroke: #000000; stroke-width: 0.8"/>
      </g>
     </g>
    </g>
   </g>
   <g id="line2d_86">
    <path d="M 371.34844 297.16 
L 371.34844 296.91648 
L 375.485221 296.91648 
L 375.592449 296.42944 
L 375.60618 296.42944 
L 375.685293 295.9424 
L 375.727792 295.9424 
L 375.784022 295.45536 
L 375.839597 295.45536 
L 375.948787 294.48128 
L 376.018747 294.48128 
L 376.029862 293.99424 
L 376.656231 293.99424 
L 376.725537 293.26368 
L 376.775228 293.26368 
L 376.824919 292.53312 
L 376.904686 292.53312 
L 376.937378 291.80256 
L 377.047221 291.80256 
L 377.047221 291.55904 
L 377.418596 291.55904 
L 377.519286 290.34144 
L 377.541516 290.34144 
L 377.631745 288.88032 
L 377.671628 288.88032 
L 377.780818 287.17568 
L 377.806317 287.17568 
L 377.913546 286.44512 
L 378.092695 286.44512 
L 378.192077 285.71456 
L 378.241768 285.71456 
L 378.335266 282.79232 
L 378.36338 282.79232 
L 378.468647 281.3312 
L 378.492839 281.3312 
L 378.582413 280.1136 
L 379.05644 280.1136 
L 379.119862 279.62656 
L 379.232974 279.62656 
L 379.321241 278.40896 
L 379.352625 278.40896 
L 379.352625 278.16544 
L 379.499083 278.16544 
L 379.583427 277.43488 
L 379.674963 277.43488 
L 379.780884 275.97376 
L 379.797229 275.97376 
L 379.797229 275.73024 
L 380.177105 275.73024 
L 380.189527 275.2432 
L 380.610594 275.2432 
L 380.712591 274.51264 
L 380.974123 274.51264 
L 380.974123 274.26912 
L 381.508956 274.26912 
L 381.508956 274.0256 
L 381.789449 274.0256 
L 381.890793 273.05152 
L 381.926753 273.05152 
L 381.926753 272.808 
L 382.064711 272.808 
L 382.064711 272.56448 
L 382.626351 272.56448 
L 382.698273 271.83392 
L 383.193876 271.83392 
L 383.193876 271.5904 
L 383.405716 271.5904 
L 383.405716 271.34688 
L 383.600558 271.34688 
L 383.709094 270.61632 
L 383.767938 270.61632 
L 383.820898 269.39872 
L 383.879089 269.39872 
L 383.951011 268.42464 
L 383.996125 268.42464 
L 384.105968 267.45056 
L 384.118391 267.45056 
L 384.226273 266.47648 
L 384.272041 266.47648 
L 384.375346 265.5024 
L 384.436152 265.5024 
L 384.532265 264.52832 
L 384.581956 264.52832 
L 384.660416 263.0672 
L 384.693761 263.0672 
L 384.736914 262.58016 
L 384.816028 262.58016 
L 384.925871 260.14496 
L 384.93764 260.14496 
L 385.029176 256.00512 
L 385.056637 256.00512 
L 385.149481 254.30048 
L 385.17498 254.30048 
L 385.282862 252.59584 
L 385.301169 252.59584 
L 385.403821 251.37824 
L 385.418859 251.37824 
L 385.467896 250.16064 
L 385.567932 250.16064 
L 385.65293 247.96896 
L 385.70589 247.96896 
L 385.809195 246.0208 
L 385.818349 246.0208 
L 385.919692 244.8032 
L 385.941923 244.8032 
L 386.045228 242.368 
L 386.054381 242.368 
L 386.160956 240.17632 
L 386.166186 240.17632 
L 386.268837 238.7152 
L 386.284529 238.7152 
L 386.383912 237.74112 
L 386.416603 237.74112 
L 386.526446 236.52352 
L 386.527754 236.52352 
L 386.603598 235.30592 
L 386.656559 235.30592 
L 386.765094 233.11424 
L 386.774248 233.11424 
L 386.880822 231.4096 
L 386.911552 231.4096 
L 387.007011 229.70496 
L 387.025972 229.70496 
L 387.050818 228.48736 
L 387.277043 228.48736 
L 387.277043 228.24384 
L 387.433962 228.24384 
L 387.522883 227.02624 
L 387.565382 227.02624 
L 387.665418 225.80864 
L 387.747147 225.80864 
L 387.85699 224.104 
L 387.924335 224.104 
L 387.924335 223.86048 
L 388.160367 223.86048 
L 388.179982 223.37344 
L 388.310094 223.37344 
L 388.310094 223.12992 
L 391.124832 223.12992 
L 391.124832 222.8864 
L 391.275213 222.8864 
L 391.275213 222.64288 
L 391.50863 222.64288 
L 391.548514 222.15584 
L 391.624358 222.15584 
L 391.708048 220.93824 
L 391.785854 220.93824 
L 391.893736 220.4512 
L 391.907466 220.4512 
L 391.987234 219.72064 
L 392.02581 219.72064 
L 392.106231 218.016 
L 392.149383 218.016 
L 392.23765 216.7984 
L 392.366455 216.7984 
L 392.428569 216.31136 
L 392.522066 216.31136 
L 392.608372 214.60672 
L 392.681601 214.60672 
L 392.788829 213.1456 
L 392.82152 213.1456 
L 392.919595 212.17152 
L 392.943133 212.17152 
L 393.018977 211.19744 
L 393.104629 211.19744 
L 393.166743 209.97984 
L 393.245202 209.97984 
L 393.281817 209.24928 
L 393.424352 209.24928 
L 393.507388 208.51872 
L 393.561656 208.51872 
L 393.628347 208.03168 
L 393.678038 208.03168 
L 393.776766 207.0576 
L 393.815342 207.0576 
L 393.90884 206.08352 
L 394.02326 206.08352 
L 394.124603 205.35296 
L 394.18541 205.35296 
L 394.286753 204.6224 
L 394.658782 204.6224 
L 394.714358 203.89184 
L 394.957583 203.89184 
L 394.965429 203.4048 
L 395.104694 203.4048 
L 395.156347 202.67424 
L 395.241999 202.67424 
L 395.287767 201.94368 
L 395.391072 201.94368 
L 395.447955 201.21312 
L 395.562375 201.21312 
L 395.651296 200.48256 
L 395.689218 200.48256 
L 395.702295 199.99552 
L 395.933097 199.99552 
L 395.933097 199.752 
L 396.072363 199.752 
L 396.150168 199.26496 
L 396.25805 199.26496 
L 396.25805 199.02144 
L 397.926624 199.02144 
L 397.926624 198.77792 
L 398.50984 198.77792 
L 398.50984 198.5344 
L 398.751757 198.5344 
L 398.751757 198.29088 
L 399.270898 198.29088 
L 399.270898 198.04736 
L 399.459855 198.04736 
L 399.541584 197.3168 
L 399.680196 197.3168 
L 399.680196 197.07328 
L 399.893344 197.07328 
L 399.969843 196.58624 
L 400.038495 196.58624 
L 400.048956 196.0992 
L 400.231374 196.0992 
L 400.316372 195.12512 
L 400.355602 195.12512 
L 400.355602 194.8816 
L 400.545867 194.8816 
L 400.642633 194.15104 
L 400.713901 194.15104 
L 400.794976 193.17696 
L 400.904165 193.17696 
L 400.980663 192.68992 
L 401.112737 192.68992 
L 401.220619 191.2288 
L 401.255926 191.2288 
L 401.255926 190.98528 
L 401.523996 190.98528 
L 401.634493 190.49824 
L 401.663262 190.49824 
L 401.769836 189.52416 
L 401.820181 189.52416 
L 401.930678 188.06304 
L 401.998023 188.06304 
L 402.041829 187.33248 
L 402.26217 187.33248 
L 402.307284 186.84544 
L 402.466165 186.84544 
L 402.553778 186.3584 
L 402.764311 186.3584 
L 402.764311 186.11488 
L 402.895731 186.11488 
L 403.004267 185.38432 
L 403.099726 185.38432 
L 403.135687 184.89728 
L 403.265799 184.89728 
L 403.309605 184.41024 
L 403.422064 184.41024 
L 403.511639 183.9232 
L 403.717595 183.9232 
L 403.75421 183.19264 
L 404.217775 183.19264 
L 404.256351 182.7056 
L 405.265211 182.7056 
L 405.307056 182.21856 
L 405.465283 182.21856 
L 405.524781 181.24448 
L 405.618933 181.24448 
L 405.643778 180.51392 
L 407.10378 180.51392 
L 407.133856 180.02688 
L 407.507847 180.02688 
L 407.507847 179.78336 
L 407.703342 179.78336 
L 407.703342 179.53984 
L 408.701087 179.53984 
L 408.701087 179.29632 
L 408.831853 179.29632 
L 408.88612 178.80928 
L 409.112999 178.80928 
L 409.112999 178.56576 
L 409.507259 178.56576 
L 409.507259 178.32224 
L 409.88648 178.32224 
L 409.88648 178.07872 
L 410.119897 178.07872 
L 410.119897 177.8352 
L 410.738421 177.8352 
L 410.738421 177.59168 
L 410.88684 177.59168 
L 410.88684 177.34816 
L 411.226831 177.34816 
L 411.328175 176.86112 
L 411.394866 176.86112 
L 411.410558 176.37408 
L 415.404151 176.37408 
L 415.404151 176.13056 
L 416.932151 176.13056 
L 416.932151 175.88704 
L 422.722468 175.88704 
L 422.722468 175.64352 
L 487.309091 175.64352 
L 487.309091 175.4 
L 487.309091 175.4 
" clip-path="url(#p396c6d5244)" style="fill: none; stroke: #97d8c4; stroke-width: 1.5; stroke-linecap: square"/>
   </g>
   <g id="line2d_87">
    <path d="M 389.387538 297.16 
L 389.387538 175.4 
" clip-path="url(#p396c6d5244)" style="fill: none; stroke-dasharray: 5.55,2.4; stroke-dashoffset: 0; stroke: #ff0000; stroke-width: 1.5"/>
   </g>
   <g id="line2d_88">
    <path d="M 386.541811 297.16 
L 386.541811 175.4 
" clip-path="url(#p396c6d5244)" style="fill: none; stroke-dasharray: 9.6,2.4,1.5,2.4; stroke-dashoffset: 0; stroke: #008000; stroke-width: 1.5"/>
   </g>
   <g id="line2d_89">
    <path d="M 405.499314 297.16 
L 405.499314 175.4 
" clip-path="url(#p396c6d5244)" style="fill: none; stroke-dasharray: 1.5,2.475; stroke-dashoffset: 0; stroke: #0000ff; stroke-width: 1.5"/>
   </g>
   <g id="patch_35">
    <path d="M 363.6 297.16 
L 363.6 175.4 
" style="fill: none; stroke: #000000; stroke-width: 0.8; stroke-linejoin: miter; stroke-linecap: square"/>
   </g>
   <g id="patch_36">
    <path d="M 493.2 297.16 
L 493.2 175.4 
" style="fill: none; stroke: #000000; stroke-width: 0.8; stroke-linejoin: miter; stroke-linecap: square"/>
   </g>
   <g id="patch_37">
    <path d="M 363.6 297.16 
L 493.2 297.16 
" style="fill: none; stroke: #000000; stroke-width: 0.8; stroke-linejoin: miter; stroke-linecap: square"/>
   </g>
   <g id="patch_38">
    <path d="M 363.6 175.4 
L 493.2 175.4 
" style="fill: none; stroke: #000000; stroke-width: 0.8; stroke-linejoin: miter; stroke-linecap: square"/>
   </g>
   <g id="text_40">
    <g id="patch_39">
     <path d="M 456.8 292.85525 
L 489.92 292.85525 
L 489.92 277.11275 
L 456.8 277.11275 
z
" style="fill: #ffffff; opacity: 0.2; stroke: #000000; stroke-linejoin: miter"/>
    </g>
    <!-- $n = 50$ -->
    <g transform="translate(460.8 287.1915) scale(0.08 -0.08)">
     <use xlink:href="#DejaVuSans-Oblique-6e" transform="translate(0 0.78125)"/>
     <use xlink:href="#DejaVuSans-3d" transform="translate(82.861328 0.78125)"/>
     <use xlink:href="#DejaVuSans-35" transform="translate(186.132812 0.78125)"/>
     <use xlink:href="#DejaVuSans-30" transform="translate(249.755859 0.78125)"/>
    </g>
   </g>
  </g>
 </g>
 <defs>
  <clipPath id="p7695ce0b2f">
   <rect x="75.8" y="32.76" width="129.6" height="121.76"/>
  </clipPath>
  <clipPath id="p201cabe764">
   <rect x="219.7" y="32.76" width="129.6" height="121.76"/>
  </clipPath>
  <clipPath id="p037fc8bacd">
   <rect x="363.6" y="32.76" width="129.6" height="121.76"/>
  </clipPath>
  <clipPath id="p4b1e776aa8">
   <rect x="75.8" y="175.4" width="129.6" height="121.76"/>
  </clipPath>
  <clipPath id="paaa4fc47d5">
   <rect x="219.7" y="175.4" width="129.6" height="121.76"/>
  </clipPath>
  <clipPath id="p396c6d5244">
   <rect x="363.6" y="175.4" width="129.6" height="121.76"/>
  </clipPath>
 </defs>
</svg>
